<svg xmlns="http://www.w3.org/2000/svg" width="85" height="65.498" viewBox="0 0 85 65.498">
  <g id="Grupo_1078751" data-name="Grupo 1078751" transform="translate(-285.291 -7390.741)">
    <path id="Trazado_841538" data-name="Trazado 841538" d="M85,78h0Z" transform="translate(285.291 7378.238)" fill="#d1bcff"/>
    <g id="sastre" transform="translate(297.542 7390.741)">
      <g id="Grupo_1078749" data-name="Grupo 1078749" transform="translate(0.886 0.886)">
        <path id="Trazado_841176" data-name="Trazado 841176" d="M125.54,234.912l-1.695-.3a1.471,1.471,0,0,1-1.218-1.449v-8.4H112.584v8.4a1.471,1.471,0,0,1-1.218,1.449l-2.1.368a20.259,20.259,0,0,0,16.278-.071Z" transform="translate(-97.238 -199.092)" fill="#ffb09e"/>
        <path id="Trazado_841177" data-name="Trazado 841177" d="M45.138,319.622l.564,9.6c0,.813-3.946,4.334-4.759,4.334H8.971A1.47,1.47,0,0,1,7.5,332.084V319.622a8.09,8.09,0,0,1,6.7-7.97l2.976-.52,2.35-.411A20.261,20.261,0,0,0,35.8,310.65l5.735,1c3.872.676,3.6,4.039,3.6,7.97Z" transform="translate(-7.5 -274.83)" fill="#fd8087"/>
        <path id="Trazado_841178" data-name="Trazado 841178" d="M161.994,21.673a5.8,5.8,0,0,0-5.8,5.8V51.311h12.8a4.318,4.318,0,0,0,4.318-4.318V32.987a11.314,11.314,0,0,0-11.314-11.314Z" transform="translate(-138.622 -19.998)" fill="#ffe177"/>
        <path id="Trazado_841179" data-name="Trazado 841179" d="M72.522,7.5A13.826,13.826,0,0,0,58.7,21.326V34.495a4.318,4.318,0,0,0,4.318,4.318H77.321a3.137,3.137,0,0,0,3.137-3.137V15.436A7.936,7.936,0,0,0,72.522,7.5Z" transform="translate(-52.647 -7.5)" fill="#ffe177"/>
        <path id="Trazado_841180" data-name="Trazado 841180" d="M207.461,32.985V46.99a4.319,4.319,0,0,1-4.319,4.318h-2.954a4.319,4.319,0,0,0,4.319-4.318V32.985A11.317,11.317,0,0,0,194.92,21.8a5.753,5.753,0,0,1,1.227-.131A11.314,11.314,0,0,1,207.461,32.985Z" transform="translate(-172.775 -19.996)" fill="#ffd15b"/>
        <path id="Trazado_841181" data-name="Trazado 841181" d="M171.106,15.436v20.24a3.138,3.138,0,0,1-3.137,3.137h-2.954a3.138,3.138,0,0,0,3.137-3.137V15.436A7.938,7.938,0,0,0,161.49,7.6a13.841,13.841,0,0,1,1.68-.1A7.936,7.936,0,0,1,171.106,15.436Z" transform="translate(-143.295 -7.5)" fill="#ffd15b"/>
        <path id="Trazado_841182" data-name="Trazado 841182" d="M148.637,234.612a1.471,1.471,0,0,1-1.218-1.449v-8.4H137.376v7.321a10.551,10.551,0,0,0,7.089,1.068v2.966a1.472,1.472,0,0,0,.053.39,20.215,20.215,0,0,0,5.814-1.6Z" transform="translate(-122.03 -199.089)" fill="#ffa78f"/>
        <path id="Trazado_841183" data-name="Trazado 841183" d="M209.371,311.649l-5.736-1a20.215,20.215,0,0,1-5.814,1.6,1.471,1.471,0,0,0,1.165,1.059l7.43,1.3a8.09,8.09,0,0,1,6.7,7.97l1.422-2.784C214.536,315.858,213.243,312.326,209.371,311.649Z" transform="translate(-175.333 -274.827)" fill="#fe646f"/>
        <path id="Trazado_841184" data-name="Trazado 841184" d="M84.053,133.056H61.976a3.28,3.28,0,0,1,0-6.56H84.053a3.28,3.28,0,1,1,0,6.56Z" transform="translate(-52.647 -112.436)" fill="#ffa78f"/>
        <path id="Trazado_841185" data-name="Trazado 841185" d="M101.357,99.687a10.521,10.521,0,0,0,10.521-10.521V82.8a6.266,6.266,0,0,0-6.266-6.266H97.1A6.266,6.266,0,0,0,90.836,82.8v6.369A10.521,10.521,0,0,0,101.357,99.687Z" transform="translate(-80.989 -68.375)" fill="#ffcebf"/>
        <path id="Trazado_841186" data-name="Trazado 841186" d="M173.108,76.532h-2.954A6.266,6.266,0,0,1,176.42,82.8v6.369a10.523,10.523,0,0,1-9.044,10.417,10.524,10.524,0,0,0,12-10.417V82.8A6.266,6.266,0,0,0,173.108,76.532Z" transform="translate(-148.485 -68.375)" fill="#ffb09e"/>
        <path id="Trazado_841187" data-name="Trazado 841187" d="M17.175,318.646l0,18.507h-8.2A1.47,1.47,0,0,1,7.5,335.682V323.22a8.09,8.09,0,0,1,6.7-7.97l2.976-.52Z" transform="translate(-7.5 -278.428)" fill="#ffb09e"/>
        <path id="Trazado_841188" data-name="Trazado 841188" d="M243.678,349.413h-3.66a1.891,1.891,0,0,1-1.891-1.891V344.4a1.891,1.891,0,0,1,1.891-1.891h3.66Z" transform="translate(-210.876 -302.928)" fill="#7a8c98"/>
        <path id="Trazado_841189" data-name="Trazado 841189" d="M266.035,298.079v19.449h10V307.72a.945.945,0,0,1,.945-.945h7.611a.945.945,0,0,1,.945.945v1.587a.945.945,0,0,0,.945.945h5.557a.945.945,0,0,0,.945-.945V298.079a2.363,2.363,0,0,0-2.363-2.363H268.4A2.363,2.363,0,0,0,266.035,298.079Z" transform="translate(-235.487 -261.661)" fill="#8d9ca8"/>
        <path id="Trazado_841190" data-name="Trazado 841190" d="M454.4,298.083v11.228a.945.945,0,0,1-.945.945H450.5a.945.945,0,0,0,.945-.945V298.083a2.363,2.363,0,0,0-2.363-2.363h2.954A2.363,2.363,0,0,1,454.4,298.083Z" transform="translate(-396.903 -261.664)" fill="#7a8c98"/>
        <path id="Trazado_841191" data-name="Trazado 841191" d="M272.612,475.4h-30v-2.954a.945.945,0,0,1,.945-.945h29.054a.945.945,0,0,1,.945.945v2.009A.945.945,0,0,1,272.612,475.4Z" transform="translate(-214.832 -416.674)" fill="#7a8c98"/>
        <path id="Trazado_841192" data-name="Trazado 841192" d="M475.4,472.445v2.009a.945.945,0,0,1-.945.945H471.5a.945.945,0,0,0,.945-.945v-2.009a.945.945,0,0,0-.945-.945h2.954A.945.945,0,0,1,475.4,472.445Z" transform="translate(-416.674 -416.674)" fill="#596c76"/>
        <path id="Trazado_841193" data-name="Trazado 841193" d="M247.612,504.5h-30" transform="translate(-192.786 -445.775)" fill="#d9b1ee"/>
        <circle id="Elipse_5024" data-name="Elipse 5024" cx="1.772" cy="1.772" r="1.772" transform="translate(34.093 37.813)" fill="#eaf6ff"/>
        <circle id="Elipse_5025" data-name="Elipse 5025" cx="1.772" cy="1.772" r="1.772" transform="translate(41.183 37.813)" fill="#eaf6ff"/>
        <path id="Trazado_841194" data-name="Trazado 841194" d="M74.357,424.066v3.068a.709.709,0,0,0,.709.709h2.127a.709.709,0,0,0,.709-.709v-3.068Z" transform="translate(-66.457 -374.845)" fill="#8d9ca8"/>
        <path id="Trazado_841195" data-name="Trazado 841195" d="M77.9,304.489a.709.709,0,0,0-.709-.709H75.066a.709.709,0,0,0-.709.709v13.5H77.9Z" transform="translate(-66.457 -268.772)" fill="#ffe177"/>
      </g>
      <g id="Grupo_1078851" data-name="Grupo 1078851">
        <g id="Grupo_1078750" data-name="Grupo 1078750">
          <path id="Trazado_841196" data-name="Trazado 841196" d="M213.772,144.253a.886.886,0,0,0,1.772,0v-1.063a.886.886,0,0,0-1.772,0Z" transform="translate(-188.513 -125.495)"/>
          <path id="Trazado_841197" data-name="Trazado 841197" d="M131.865,142.255a.886.886,0,0,0-.886.886V144.2a.886.886,0,0,0,1.772,0v-1.063A.886.886,0,0,0,131.865,142.255Z" transform="translate(-115.503 -125.446)"/>
          <path id="Trazado_841198" data-name="Trazado 841198" d="M159.517,216.363a2.586,2.586,0,0,1-3.049,0,.886.886,0,1,0-1.043,1.434,4.353,4.353,0,0,0,5.134,0,.886.886,0,1,0-1.042-1.434Z" transform="translate(-136.739 -190.648)"/>
          <path id="Trazado_841199" data-name="Trazado 841199" d="M170.81,190.763h.591a.886.886,0,0,0,0-1.772h-.591A.886.886,0,0,0,170.81,190.763Z" transform="translate(-149.852 -166.66)"/>
          <path id="Trazado_841200" data-name="Trazado 841200" d="M58.666,54.826H42.316v-7.88a.059.059,0,0,1,.059-.059h7.612a.06.06,0,0,1,.059.059v1.587a1.834,1.834,0,0,0,1.831,1.831H53.77v1.528a.886.886,0,0,0,1.772,0V50.364h1.893a1.834,1.834,0,0,0,1.831-1.831V45.7a.886.886,0,0,0-1.772,0v2.831a.059.059,0,0,1-.059.059H51.878a.059.059,0,0,1-.059-.059V46.946a1.834,1.834,0,0,0-1.831-1.831H42.376a1.834,1.834,0,0,0-1.831,1.831v7.88H32.321V37.305c0-.048,0-.1.007-.143h0a1.479,1.479,0,0,1,1.47-1.333H53.77V41.1a.886.886,0,0,0,1.772,0V35.828h.475a1.479,1.479,0,0,1,1.477,1.477v4.261a.886.886,0,0,0,1.772,0V37.305a3.253,3.253,0,0,0-3.249-3.249H33.8a3.254,3.254,0,0,0-3.011,2.029l-3.142-.549a.583.583,0,0,1-.483-.576V33.085h4.092a5.21,5.21,0,0,0,5.2-5.2V13.875A12.229,12.229,0,0,0,26.118,1.819,8.776,8.776,0,0,0,20.762,0,14.729,14.729,0,0,0,6.05,14.712V27.881a5.21,5.21,0,0,0,5.2,5.2h4.093v1.876a.583.583,0,0,1-.485.576l-1.831.32a1.6,1.6,0,0,0-1.409-.849H9.495a1.6,1.6,0,0,0-1.6,1.6v.15l-.469.082A8.96,8.96,0,0,0,0,45.678V47.41a.886.886,0,0,0,1.772,0V45.678a7.191,7.191,0,0,1,5.964-7.1l.164-.029V53.175a1.6,1.6,0,0,0,1.6,1.6h.177l0,3.955H2.357a.586.586,0,0,1-.585-.585V51.546a.886.886,0,0,0-1.772,0V58.14A2.36,2.36,0,0,0,2.357,60.5H58.666A1.834,1.834,0,0,0,60.5,58.666V56.657a1.834,1.834,0,0,0-1.831-1.831ZM27.293,41.882a19.463,19.463,0,0,1-14.077-.557V37.862A21.16,21.16,0,0,0,29.3,37.624l1.253.219v1.742h-.521a2.781,2.781,0,0,0-2.734,2.3ZM11.445,53H9.672v-2h1.772ZM30.889,15.309v6.369c-.486,12.767-18.788,12.758-19.269,0V15.309A5.386,5.386,0,0,1,17,9.929h8.51A5.386,5.386,0,0,1,30.889,15.309ZM17.119,34.961V32.309a11.484,11.484,0,0,0,8.271,0v2.653a2.351,2.351,0,0,0,.9,1.855,19.428,19.428,0,0,1-10.236.113,2.351,2.351,0,0,0,1.061-1.968Zm11.9,7.4a1.006,1.006,0,0,1,1-1.006h.521v5.128h-.521a1.006,1.006,0,0,1-1-1.006Zm2.231-11.05h-3.9a11.414,11.414,0,0,0,5.285-8.935,4.127,4.127,0,0,0,2.048-.742v6.246A3.436,3.436,0,0,1,31.254,31.312Zm3.433-13.085a2.388,2.388,0,0,1-2.026,2.362V15.865a2.4,2.4,0,0,1,2.026,2.363Zm0-4.352v.945a4.139,4.139,0,0,0-2.135-.751,7.163,7.163,0,0,0-2.968-4.634V8.822a8.769,8.769,0,0,0-1.27-4.555A10.467,10.467,0,0,1,34.687,13.875ZM20.762,1.772A7.057,7.057,0,0,1,27.8,8.537a7.118,7.118,0,0,0-2.295-.38H17A7.162,7.162,0,0,0,9.957,14.07a4.124,4.124,0,0,0-2.134.747v-.1A12.954,12.954,0,0,1,20.762,1.772ZM7.822,18.227a2.388,2.388,0,0,1,2.025-2.363v4.724A2.4,2.4,0,0,1,7.822,18.227Zm0,9.654V21.633a4.14,4.14,0,0,0,2.047.744,11.414,11.414,0,0,0,5.285,8.935h-3.9a3.435,3.435,0,0,1-3.431-3.431Zm3.622,8.9V49.221H9.672V36.78Zm0,17.99h.177a1.6,1.6,0,0,0,1.6-1.6V43.242a21.243,21.243,0,0,0,14.034.518v1.719a2.781,2.781,0,0,0,2.777,2.778h.521v6.568h-.937a1.834,1.834,0,0,0-1.831,1.831v2.068H11.443Zm47.281,3.9a.059.059,0,0,1-.059.059H29.553V56.657a.059.059,0,0,1,.059-.059H58.666a.059.059,0,0,1,.059.059Z" transform="translate(0 0)"/>
          <path id="Trazado_841201" data-name="Trazado 841201" d="M291.194,320.013a2.659,2.659,0,1,0,2.659,2.659A2.662,2.662,0,0,0,291.194,320.013Zm0,3.545a.886.886,0,1,1,.886-.886A.887.887,0,0,1,291.194,323.558Z" transform="translate(-254.442 -282.2)"/>
          <path id="Trazado_841202" data-name="Trazado 841202" d="M348.535,322.672a2.659,2.659,0,1,0,2.659-2.659A2.662,2.662,0,0,0,348.535,322.672Zm3.545,0a.886.886,0,1,1-.886-.886A.887.887,0,0,1,352.08,322.672Z" transform="translate(-307.352 -282.2)"/>
          <path id="Trazado_841203" data-name="Trazado 841203" d="M293.394,431h-2.842a.886.886,0,0,0,0,1.772h2.842A.886.886,0,0,0,293.394,431Z" transform="translate(-255.444 -380.073)"/>
          <path id="Trazado_841204" data-name="Trazado 841204" d="M293.394,399.585h-2.842a.886.886,0,0,0,0,1.772h2.842A.886.886,0,0,0,293.394,399.585Z" transform="translate(-255.444 -352.37)"/>
        </g>
      </g>
    </g>
  </g>
</svg>
