<svg xmlns="http://www.w3.org/2000/svg" width="96" height="96" viewBox="0 0 96 96">
  <g id="Grupo_1060991" data-name="Grupo 1060991" transform="translate(-364.155 -15550.587)">
    <circle id="Elipse_4970" data-name="Elipse 4970" cx="48" cy="48" r="48" transform="translate(364.155 15550.587)" fill="#673ab7"/>
    <g id="Grupo_1060414" data-name="Grupo 1060414" transform="translate(-264.845 4788.412)">
      <ellipse id="Elipse_884" data-name="Elipse 884" cx="36" cy="36.5" rx="36" ry="36.5" transform="translate(641 10774)" fill="#ffd54f"/>
      <g id="Grupo_15796" data-name="Grupo 15796" transform="translate(658.249 10767.175)">
        <g id="Grupo_15793" data-name="Grupo 15793" transform="translate(0 5.235)">
          <path id="Trazado_24855" data-name="Trazado 24855" d="M-452.032,1305.61c-5.713,0-11.162-3.747-14.159-8.378-4.079-6.305-4.956-13.76-4.974-18.9a61.9,61.9,0,0,1,3.419-19.087c.576-1.787,1.316-3.641,2.03-5.432,2.4-6.022,4.888-12.248,2.242-18.092-.987-2.179-3.109-4.326-6.1-3.821-2.089.353-3.885,1.62-5.788,2.962a17.744,17.744,0,0,1-6.64,3.385c-4.071.825-8.587-1.16-11.23-4.939a1.372,1.372,0,0,1,.339-1.909,1.371,1.371,0,0,1,1.908.339c1.994,2.852,5.464,4.426,8.438,3.823a15.484,15.484,0,0,0,5.6-2.939c2.069-1.458,4.208-2.967,6.911-3.424,3.731-.631,7.289,1.485,9.056,5.393,3.128,6.906.3,13.989-2.193,20.238-.73,1.829-1.42,3.558-1.967,5.257a59.236,59.236,0,0,0-3.288,18.237c.016,4.777.816,11.677,4.535,17.425,3.32,5.132,10.116,9.032,16.173,6.145,8.14-3.876,7.327-16.787,4.9-24.014a1.371,1.371,0,0,1,.864-1.736,1.37,1.37,0,0,1,1.735.864c2.833,8.44,3.486,22.692-6.322,27.362A12.678,12.678,0,0,1-452.032,1305.61Z" transform="translate(493.479 -1229.082)" fill="#fff"/>
        </g>
        <g id="Grupo_15794" data-name="Grupo 15794" transform="translate(10.44 0)">
          <path id="Trazado_24856" data-name="Trazado 24856" d="M-471.526,1223.38a3.331,3.331,0,0,0-3.74,3.032l-6.786,82.857a.534.534,0,0,0,.464.572.534.534,0,0,0,.595-.45l12.34-82.212A3.331,3.331,0,0,0-471.526,1223.38Zm.033,9.325a1.035,1.035,0,0,1-1.149.8,1.037,1.037,0,0,1-.91-1.067q.166-2.578.33-5.157c.027-.537.693-.939,1.479-.839s1.33.655,1.222,1.182Q-471.007,1230.168-471.493,1232.705Z" transform="translate(482.054 -1223.354)" fill="#12263f"/>
        </g>
        <g id="Grupo_15795" data-name="Grupo 15795" transform="translate(0 6.38)">
          <path id="Trazado_24857" data-name="Trazado 24857" d="M-473.088,1230.335a27.98,27.98,0,0,0-3.854,2.39,15.484,15.484,0,0,1-5.6,2.939c-2.974.6-6.444-.971-8.438-3.823a1.371,1.371,0,0,0-1.908-.339,1.372,1.372,0,0,0-.339,1.909c2.643,3.78,7.159,5.764,11.23,4.939a17.744,17.744,0,0,0,6.64-3.385c.767-.54,1.517-1.066,2.274-1.526Z" transform="translate(493.479 -1230.335)" fill="#fff"/>
        </g>
      </g>
    </g>
  </g>
</svg>
