<svg xmlns="http://www.w3.org/2000/svg" xmlns:xlink="http://www.w3.org/1999/xlink" width="237.189" height="132.601" viewBox="0 0 237.189 132.601">
  <defs>
    <clipPath id="clip-path">
      <rect id="Rectángulo_364492" data-name="Rectángulo 364492" width="121.572" height="132.601" fill="#12263f"/>
    </clipPath>
  </defs>
  <g id="Grupo_1069685" data-name="Grupo 1069685" transform="translate(-1044.155 -6832.426)">
    <g id="Grupo_1069684" data-name="Grupo 1069684">
      <g id="Grupo_1069683" data-name="Grupo 1069683">
        <g id="Grupo_1069682" data-name="Grupo 1069682">
          <g id="Grupo_1060906" data-name="Grupo 1060906" transform="translate(1184.9 6862.426)">
            <path id="Trazado_816247" data-name="Trazado 816247" d="M2.468,11.1V15H1.155V5.047H4.826a3.688,3.688,0,0,1,2.56.834,2.827,2.827,0,0,1,.926,2.208,2.79,2.79,0,0,1-.906,2.232,3.853,3.853,0,0,1-2.594.783Zm0-1.073H4.826a2.361,2.361,0,0,0,1.613-.5A1.811,1.811,0,0,0,7,8.1a1.871,1.871,0,0,0-.561-1.422A2.212,2.212,0,0,0,4.9,6.127H2.468Zm8.7,4.97H9.9V7.6h1.265ZM9.8,5.642a.755.755,0,0,1,.188-.52.706.706,0,0,1,.557-.212.717.717,0,0,1,.561.212.747.747,0,0,1,.191.52.722.722,0,0,1-.191.513.73.73,0,0,1-.561.205.718.718,0,0,1-.557-.205A.73.73,0,0,1,9.8,5.642Zm6.46,9.5a3.232,3.232,0,0,1-2.447-.988,3.666,3.666,0,0,1-.943-2.642v-.232a4.438,4.438,0,0,1,.42-1.965,3.28,3.28,0,0,1,1.176-1.354A2.956,2.956,0,0,1,16.1,7.467a2.77,2.77,0,0,1,2.242.95,4.114,4.114,0,0,1,.8,2.721v.526H14.13a2.629,2.629,0,0,0,.639,1.767,2.009,2.009,0,0,0,1.555.673,2.2,2.2,0,0,0,1.135-.273,2.851,2.851,0,0,0,.813-.725l.772.6A3.106,3.106,0,0,1,16.256,15.137ZM16.1,8.506a1.687,1.687,0,0,0-1.285.557,2.708,2.708,0,0,0-.643,1.562h3.705v-.1a2.409,2.409,0,0,0-.52-1.494A1.588,1.588,0,0,0,16.1,8.506Zm9.481,2.6V15H24.268V5.047h3.671a3.688,3.688,0,0,1,2.56.834,2.827,2.827,0,0,1,.926,2.208,2.79,2.79,0,0,1-.906,2.232,3.853,3.853,0,0,1-2.594.783Zm0-1.073h2.358a2.361,2.361,0,0,0,1.613-.5A1.811,1.811,0,0,0,30.112,8.1a1.871,1.871,0,0,0-.561-1.422,2.212,2.212,0,0,0-1.538-.554H25.58Zm10.9-1.292a3.79,3.79,0,0,0-.622-.048,1.667,1.667,0,0,0-1.688,1.06V15H32.9V7.6h1.23l.021.854a1.969,1.969,0,0,1,1.764-.991,1.292,1.292,0,0,1,.561.1Zm4.231,6.4a3.232,3.232,0,0,1-2.447-.988,3.666,3.666,0,0,1-.943-2.642v-.232a4.438,4.438,0,0,1,.42-1.965,3.28,3.28,0,0,1,1.176-1.354,2.956,2.956,0,0,1,1.637-.489,2.77,2.77,0,0,1,2.242.95,4.114,4.114,0,0,1,.8,2.721v.526H38.582a2.629,2.629,0,0,0,.639,1.767,2.009,2.009,0,0,0,1.555.673,2.2,2.2,0,0,0,1.135-.273,2.851,2.851,0,0,0,.813-.725l.772.6A3.106,3.106,0,0,1,40.708,15.137Zm-.157-6.631a1.687,1.687,0,0,0-1.285.557,2.708,2.708,0,0,0-.643,1.562h3.705v-.1a2.409,2.409,0,0,0-.52-1.494A1.588,1.588,0,0,0,40.551,8.506Zm5.7-.9.041.93a2.7,2.7,0,0,1,2.215-1.066q2.345,0,2.365,2.646V15H49.608V10.105a1.7,1.7,0,0,0-.366-1.183,1.466,1.466,0,0,0-1.118-.383,1.825,1.825,0,0,0-1.08.328,2.228,2.228,0,0,0-.725.861V15H45.056V7.6Zm10.835,5.435a.931.931,0,0,0-.386-.8,3.718,3.718,0,0,0-1.347-.489,6.367,6.367,0,0,1-1.524-.492A2.169,2.169,0,0,1,53,10.577a1.635,1.635,0,0,1-.27-.943A1.919,1.919,0,0,1,53.495,8.1a3,3,0,0,1,1.965-.629,3.091,3.091,0,0,1,2.041.649,2.063,2.063,0,0,1,.783,1.661H57.012a1.142,1.142,0,0,0-.441-.9,1.652,1.652,0,0,0-1.111-.376,1.729,1.729,0,0,0-1.08.3.947.947,0,0,0-.39.786.767.767,0,0,0,.362.69,4.458,4.458,0,0,0,1.309.444,6.821,6.821,0,0,1,1.535.506,2.239,2.239,0,0,1,.872.708,1.74,1.74,0,0,1,.284,1.008,1.893,1.893,0,0,1-.793,1.589,3.326,3.326,0,0,1-2.058.6,3.725,3.725,0,0,1-1.572-.314,2.557,2.557,0,0,1-1.07-.878,2.117,2.117,0,0,1-.386-1.22h1.265a1.309,1.309,0,0,0,.509,1.008A1.976,1.976,0,0,0,55.5,14.1a2.039,2.039,0,0,0,1.152-.291A.893.893,0,0,0,57.087,13.038ZM64.565,15a2.657,2.657,0,0,1-.178-.779,2.822,2.822,0,0,1-2.105.916,2.611,2.611,0,0,1-1.794-.619,2,2,0,0,1-.7-1.569,2.091,2.091,0,0,1,.878-1.794,4.142,4.142,0,0,1,2.471-.639h1.23V9.935a1.42,1.42,0,0,0-.4-1.056A1.593,1.593,0,0,0,62.8,8.485a1.844,1.844,0,0,0-1.135.342,1.007,1.007,0,0,0-.458.827H59.938a1.745,1.745,0,0,1,.393-1.07A2.683,2.683,0,0,1,61.4,7.768a3.588,3.588,0,0,1,1.48-.3,2.924,2.924,0,0,1,2,.639,2.306,2.306,0,0,1,.752,1.76v3.4a4.162,4.162,0,0,0,.26,1.62V15Zm-2.1-.964a2.223,2.223,0,0,0,1.128-.308,1.861,1.861,0,0,0,.772-.8V11.411h-.991q-2.324,0-2.324,1.36a1.151,1.151,0,0,0,.4.93A1.524,1.524,0,0,0,62.467,14.036ZM69.33,5.813V7.6h1.381v.978H69.33v4.587a1.024,1.024,0,0,0,.185.667.777.777,0,0,0,.629.222,3.062,3.062,0,0,0,.6-.082V15a3.666,3.666,0,0,1-.971.137,1.575,1.575,0,0,1-1.278-.513,2.2,2.2,0,0,1-.431-1.456V8.581H66.719V7.6h1.347V5.813Zm5.927,9.324a3.232,3.232,0,0,1-2.447-.988,3.666,3.666,0,0,1-.943-2.642v-.232a4.438,4.438,0,0,1,.42-1.965,3.28,3.28,0,0,1,1.176-1.354A2.956,2.956,0,0,1,75.1,7.467a2.77,2.77,0,0,1,2.242.95,4.114,4.114,0,0,1,.8,2.721v.526H73.131a2.629,2.629,0,0,0,.639,1.767,2.009,2.009,0,0,0,1.555.673,2.2,2.2,0,0,0,1.135-.273,2.851,2.851,0,0,0,.813-.725l.772.6A3.106,3.106,0,0,1,75.257,15.137ZM75.1,8.506a1.687,1.687,0,0,0-1.285.557,2.708,2.708,0,0,0-.643,1.562h3.705v-.1a2.409,2.409,0,0,0-.52-1.494A1.588,1.588,0,0,0,75.1,8.506ZM80.979,15H79.714V4.5h1.265Zm6.59,0a2.657,2.657,0,0,1-.178-.779,2.822,2.822,0,0,1-2.105.916,2.611,2.611,0,0,1-1.794-.619,2,2,0,0,1-.7-1.569,2.091,2.091,0,0,1,.878-1.794,4.141,4.141,0,0,1,2.471-.639h1.23V9.935a1.42,1.42,0,0,0-.4-1.056A1.593,1.593,0,0,0,85.8,8.485a1.844,1.844,0,0,0-1.135.342,1.007,1.007,0,0,0-.458.827H82.94a1.745,1.745,0,0,1,.393-1.07A2.683,2.683,0,0,1,84.4,7.768a3.588,3.588,0,0,1,1.48-.3,2.924,2.924,0,0,1,2,.639,2.306,2.306,0,0,1,.752,1.76v3.4a4.162,4.162,0,0,0,.26,1.62V15Zm-2.1-.964a2.223,2.223,0,0,0,1.128-.308,1.861,1.861,0,0,0,.772-.8V11.411h-.991q-2.324,0-2.324,1.36a1.151,1.151,0,0,0,.4.93A1.524,1.524,0,0,0,85.47,14.036Zm9.454-1a.931.931,0,0,0-.386-.8,3.718,3.718,0,0,0-1.347-.489,6.367,6.367,0,0,1-1.524-.492,2.169,2.169,0,0,1-.834-.684,1.635,1.635,0,0,1-.27-.943A1.919,1.919,0,0,1,91.332,8.1,3,3,0,0,1,93.3,7.467a3.091,3.091,0,0,1,2.041.649,2.063,2.063,0,0,1,.783,1.661H94.849a1.142,1.142,0,0,0-.441-.9A1.652,1.652,0,0,0,93.3,8.506a1.729,1.729,0,0,0-1.08.3.947.947,0,0,0-.39.786.767.767,0,0,0,.362.69,4.458,4.458,0,0,0,1.309.444,6.821,6.821,0,0,1,1.535.506,2.239,2.239,0,0,1,.872.708,1.74,1.74,0,0,1,.284,1.008,1.893,1.893,0,0,1-.793,1.589,3.326,3.326,0,0,1-2.058.6,3.725,3.725,0,0,1-1.572-.314,2.557,2.557,0,0,1-1.07-.878,2.117,2.117,0,0,1-.386-1.22h1.265a1.309,1.309,0,0,0,.509,1.008,1.976,1.976,0,0,0,1.254.373,2.039,2.039,0,0,0,1.152-.291A.893.893,0,0,0,94.924,13.038Z" transform="translate(0.255)" fill="#12263f"/>
            <path id="Trazado_816248" data-name="Trazado 816248" d="M1.155,15V5.047h2.81a4.523,4.523,0,0,1,2.3.574A3.884,3.884,0,0,1,7.8,7.255a5.318,5.318,0,0,1,.55,2.434v.636a5.336,5.336,0,0,1-.543,2.468,3.823,3.823,0,0,1-1.552,1.627A4.811,4.811,0,0,1,3.91,15ZM2.468,6.127v7.8H3.849a3.006,3.006,0,0,0,2.362-.943A3.9,3.9,0,0,0,7.055,10.3V9.716a3.957,3.957,0,0,0-.8-2.635A2.835,2.835,0,0,0,4,6.127ZM11.512,15H10.247V7.6h1.265ZM10.145,5.642a.755.755,0,0,1,.188-.52.706.706,0,0,1,.557-.212.717.717,0,0,1,.561.212.747.747,0,0,1,.191.52.722.722,0,0,1-.191.513.73.73,0,0,1-.561.205.718.718,0,0,1-.557-.205A.73.73,0,0,1,10.145,5.642Zm6.46,9.5a3.232,3.232,0,0,1-2.447-.988,3.666,3.666,0,0,1-.943-2.642v-.232a4.438,4.438,0,0,1,.42-1.965A3.28,3.28,0,0,1,14.81,7.956a2.956,2.956,0,0,1,1.637-.489,2.77,2.77,0,0,1,2.242.95,4.114,4.114,0,0,1,.8,2.721v.526H14.479a2.629,2.629,0,0,0,.639,1.767,2.009,2.009,0,0,0,1.555.673,2.2,2.2,0,0,0,1.135-.273,2.851,2.851,0,0,0,.813-.725l.772.6A3.106,3.106,0,0,1,16.6,15.137Zm-.157-6.631a1.687,1.687,0,0,0-1.285.557,2.708,2.708,0,0,0-.643,1.562h3.705v-.1a2.409,2.409,0,0,0-.52-1.494A1.588,1.588,0,0,0,16.447,8.506Zm5.7-.9.041.93A2.7,2.7,0,0,1,24.4,7.467q2.345,0,2.365,2.646V15H25.5V10.105a1.7,1.7,0,0,0-.366-1.183,1.466,1.466,0,0,0-1.118-.383,1.825,1.825,0,0,0-1.08.328,2.228,2.228,0,0,0-.725.861V15H20.952V7.6Zm8.244-1.791V7.6h1.381v.978H30.393v4.587a1.024,1.024,0,0,0,.185.667.777.777,0,0,0,.629.222,3.062,3.062,0,0,0,.6-.082V15a3.666,3.666,0,0,1-.971.137,1.575,1.575,0,0,1-1.278-.513,2.2,2.2,0,0,1-.431-1.456V8.581H27.781V7.6h1.347V5.813Zm5.927,9.324a3.232,3.232,0,0,1-2.447-.988,3.666,3.666,0,0,1-.943-2.642v-.232a4.438,4.438,0,0,1,.42-1.965,3.28,3.28,0,0,1,1.176-1.354,2.956,2.956,0,0,1,1.637-.489,2.77,2.77,0,0,1,2.242.95,4.114,4.114,0,0,1,.8,2.721v.526H34.193a2.629,2.629,0,0,0,.639,1.767,2.009,2.009,0,0,0,1.555.673,2.2,2.2,0,0,0,1.135-.273,2.851,2.851,0,0,0,.813-.725l.772.6A3.106,3.106,0,0,1,36.319,15.137Zm-.157-6.631a1.687,1.687,0,0,0-1.285.557,2.708,2.708,0,0,0-.643,1.562h3.705v-.1a2.409,2.409,0,0,0-.52-1.494A1.588,1.588,0,0,0,36.162,8.506Zm11.1,2.058a6.172,6.172,0,0,1-2.458-1.193,2.279,2.279,0,0,1-.769-1.747,2.408,2.408,0,0,1,.94-1.945,3.736,3.736,0,0,1,2.444-.769,4.078,4.078,0,0,1,1.829.4A3.007,3.007,0,0,1,50.494,6.4a2.8,2.8,0,0,1,.441,1.524H49.615a1.81,1.81,0,0,0-.574-1.418,2.34,2.34,0,0,0-1.62-.516,2.394,2.394,0,0,0-1.514.427A1.424,1.424,0,0,0,45.363,7.6a1.281,1.281,0,0,0,.516,1.029,5.066,5.066,0,0,0,1.757.769,8.136,8.136,0,0,1,1.941.769,2.946,2.946,0,0,1,1.039.981,2.5,2.5,0,0,1,.338,1.319,2.326,2.326,0,0,1-.943,1.938,4.022,4.022,0,0,1-2.522.728,4.678,4.678,0,0,1-1.914-.393A3.221,3.221,0,0,1,44.2,13.667a2.627,2.627,0,0,1-.482-1.552h1.319a1.714,1.714,0,0,0,.667,1.425,2.806,2.806,0,0,0,1.781.523,2.58,2.58,0,0,0,1.593-.424,1.377,1.377,0,0,0,.554-1.155,1.351,1.351,0,0,0-.513-1.131A5.911,5.911,0,0,0,47.264,10.563ZM57,14.269a2.686,2.686,0,0,1-2.167.868,2.3,2.3,0,0,1-1.8-.687,2.974,2.974,0,0,1-.625-2.034V7.6h1.265v4.778q0,1.682,1.367,1.682a1.893,1.893,0,0,0,1.928-1.08V7.6h1.265V15h-1.2Zm9.4-2.885a4.429,4.429,0,0,1-.772,2.721,2.476,2.476,0,0,1-2.092,1.032,2.713,2.713,0,0,1-2.119-.854v3.562H60.156V7.6h1.155l.062.82a2.605,2.605,0,0,1,2.146-.957,2.522,2.522,0,0,1,2.109,1,4.477,4.477,0,0,1,.776,2.8ZM65.14,11.24a3.268,3.268,0,0,0-.533-1.976,1.718,1.718,0,0,0-1.463-.725,1.859,1.859,0,0,0-1.723,1.019v3.534A1.863,1.863,0,0,0,63.157,14.1a1.71,1.71,0,0,0,1.446-.721A3.567,3.567,0,0,0,65.14,11.24Zm5.94,3.9a3.232,3.232,0,0,1-2.447-.988,3.666,3.666,0,0,1-.943-2.642v-.232a4.438,4.438,0,0,1,.42-1.965,3.28,3.28,0,0,1,1.176-1.354,2.956,2.956,0,0,1,1.637-.489,2.77,2.77,0,0,1,2.242.95,4.114,4.114,0,0,1,.8,2.721v.526H68.954a2.629,2.629,0,0,0,.639,1.767,2.009,2.009,0,0,0,1.555.673,2.2,2.2,0,0,0,1.135-.273,2.851,2.851,0,0,0,.813-.725l.772.6A3.106,3.106,0,0,1,71.08,15.137Zm-.157-6.631a1.687,1.687,0,0,0-1.285.557A2.708,2.708,0,0,0,69,10.625H72.7v-.1a2.409,2.409,0,0,0-.52-1.494A1.588,1.588,0,0,0,70.923,8.506ZM79,8.738a3.79,3.79,0,0,0-.622-.048,1.667,1.667,0,0,0-1.688,1.06V15H75.428V7.6h1.23l.021.854a1.969,1.969,0,0,1,1.764-.991,1.292,1.292,0,0,1,.561.1ZM81.539,15H80.274V7.6h1.265ZM80.172,5.642a.755.755,0,0,1,.188-.52.706.706,0,0,1,.557-.212.717.717,0,0,1,.561.212.747.747,0,0,1,.191.52.722.722,0,0,1-.191.513.73.73,0,0,1-.561.205.718.718,0,0,1-.557-.205A.73.73,0,0,1,80.172,5.642Zm3.056,5.592a4.369,4.369,0,0,1,.427-1.955,3.187,3.187,0,0,1,1.189-1.34,3.238,3.238,0,0,1,1.74-.472,3.119,3.119,0,0,1,2.444,1.046,4.024,4.024,0,0,1,.933,2.782v.089a4.407,4.407,0,0,1-.414,1.938,3.14,3.14,0,0,1-1.183,1.336,3.275,3.275,0,0,1-1.767.479,3.111,3.111,0,0,1-2.437-1.046,4,4,0,0,1-.933-2.769Zm1.271.15a3.164,3.164,0,0,0,.571,1.976,1.934,1.934,0,0,0,3.059-.01,3.46,3.46,0,0,0,.567-2.116,3.159,3.159,0,0,0-.578-1.972,1.836,1.836,0,0,0-1.535-.755,1.816,1.816,0,0,0-1.511.745A3.435,3.435,0,0,0,84.5,11.384ZM95.122,8.738A3.79,3.79,0,0,0,94.5,8.69a1.667,1.667,0,0,0-1.688,1.06V15H91.547V7.6h1.23l.021.854a1.969,1.969,0,0,1,1.764-.991,1.292,1.292,0,0,1,.561.1Z" transform="translate(0 41.812)" fill="#12263f"/>
            <path id="Trazado_816249" data-name="Trazado 816249" d="M1.155,15V5.047h2.81a4.523,4.523,0,0,1,2.3.574A3.884,3.884,0,0,1,7.8,7.255a5.318,5.318,0,0,1,.55,2.434v.636a5.336,5.336,0,0,1-.543,2.468,3.823,3.823,0,0,1-1.552,1.627A4.811,4.811,0,0,1,3.91,15ZM2.468,6.127v7.8H3.849a3.006,3.006,0,0,0,2.362-.943A3.9,3.9,0,0,0,7.055,10.3V9.716a3.957,3.957,0,0,0-.8-2.635A2.835,2.835,0,0,0,4,6.127ZM11.512,15H10.247V7.6h1.265ZM10.145,5.642a.755.755,0,0,1,.188-.52.706.706,0,0,1,.557-.212.717.717,0,0,1,.561.212.747.747,0,0,1,.191.52.722.722,0,0,1-.191.513.73.73,0,0,1-.561.205.718.718,0,0,1-.557-.205A.73.73,0,0,1,10.145,5.642Zm6.46,9.5a3.232,3.232,0,0,1-2.447-.988,3.666,3.666,0,0,1-.943-2.642v-.232a4.438,4.438,0,0,1,.42-1.965A3.28,3.28,0,0,1,14.81,7.956a2.956,2.956,0,0,1,1.637-.489,2.77,2.77,0,0,1,2.242.95,4.114,4.114,0,0,1,.8,2.721v.526H14.479a2.629,2.629,0,0,0,.639,1.767,2.009,2.009,0,0,0,1.555.673,2.2,2.2,0,0,0,1.135-.273,2.851,2.851,0,0,0,.813-.725l.772.6A3.106,3.106,0,0,1,16.6,15.137Zm-.157-6.631a1.687,1.687,0,0,0-1.285.557,2.708,2.708,0,0,0-.643,1.562h3.705v-.1a2.409,2.409,0,0,0-.52-1.494A1.588,1.588,0,0,0,16.447,8.506Zm5.7-.9.041.93A2.7,2.7,0,0,1,24.4,7.467q2.345,0,2.365,2.646V15H25.5V10.105a1.7,1.7,0,0,0-.366-1.183,1.466,1.466,0,0,0-1.118-.383,1.825,1.825,0,0,0-1.08.328,2.228,2.228,0,0,0-.725.861V15H20.952V7.6Zm8.244-1.791V7.6h1.381v.978H30.393v4.587a1.024,1.024,0,0,0,.185.667.777.777,0,0,0,.629.222,3.062,3.062,0,0,0,.6-.082V15a3.666,3.666,0,0,1-.971.137,1.575,1.575,0,0,1-1.278-.513,2.2,2.2,0,0,1-.431-1.456V8.581H27.781V7.6h1.347V5.813Zm5.927,9.324a3.232,3.232,0,0,1-2.447-.988,3.666,3.666,0,0,1-.943-2.642v-.232a4.438,4.438,0,0,1,.42-1.965,3.28,3.28,0,0,1,1.176-1.354,2.956,2.956,0,0,1,1.637-.489,2.77,2.77,0,0,1,2.242.95,4.114,4.114,0,0,1,.8,2.721v.526H34.193a2.629,2.629,0,0,0,.639,1.767,2.009,2.009,0,0,0,1.555.673,2.2,2.2,0,0,0,1.135-.273,2.851,2.851,0,0,0,.813-.725l.772.6A3.106,3.106,0,0,1,36.319,15.137Zm-.157-6.631a1.687,1.687,0,0,0-1.285.557,2.708,2.708,0,0,0-.643,1.562h3.705v-.1a2.409,2.409,0,0,0-.52-1.494A1.588,1.588,0,0,0,36.162,8.506ZM45.507,15H44.242V7.6h1.265ZM44.14,5.642a.755.755,0,0,1,.188-.52.706.706,0,0,1,.557-.212.717.717,0,0,1,.561.212.747.747,0,0,1,.191.52.722.722,0,0,1-.191.513.73.73,0,0,1-.561.205.718.718,0,0,1-.557-.205A.73.73,0,0,1,44.14,5.642ZM48.727,7.6l.041.93a2.7,2.7,0,0,1,2.215-1.066q2.345,0,2.365,2.646V15H52.083V10.105a1.7,1.7,0,0,0-.366-1.183A1.466,1.466,0,0,0,50.6,8.54a1.825,1.825,0,0,0-1.08.328,2.228,2.228,0,0,0-.725.861V15H47.53V7.6Zm7.15,7.4V8.581H54.708V7.6h1.169V6.845a2.519,2.519,0,0,1,.636-1.839,2.4,2.4,0,0,1,1.8-.649,3.319,3.319,0,0,1,.868.116L59.11,5.5a3.632,3.632,0,0,0-.684-.062,1.236,1.236,0,0,0-.95.359,1.453,1.453,0,0,0-.335,1.029V7.6h1.579v.978H57.142V15Zm7.308.137a3.232,3.232,0,0,1-2.447-.988,3.666,3.666,0,0,1-.943-2.642v-.232a4.438,4.438,0,0,1,.42-1.965A3.28,3.28,0,0,1,61.39,7.956a2.956,2.956,0,0,1,1.637-.489,2.77,2.77,0,0,1,2.242.95,4.114,4.114,0,0,1,.8,2.721v.526H61.059a2.629,2.629,0,0,0,.639,1.767,2.009,2.009,0,0,0,1.555.673,2.2,2.2,0,0,0,1.135-.273,2.851,2.851,0,0,0,.813-.725l.772.6A3.106,3.106,0,0,1,63.185,15.137Zm-.157-6.631a1.687,1.687,0,0,0-1.285.557,2.708,2.708,0,0,0-.643,1.562H64.8v-.1a2.409,2.409,0,0,0-.52-1.494A1.588,1.588,0,0,0,63.027,8.506Zm8.08.232a3.79,3.79,0,0,0-.622-.048A1.667,1.667,0,0,0,68.8,9.75V15H67.532V7.6h1.23l.021.854a1.969,1.969,0,0,1,1.764-.991,1.292,1.292,0,0,1,.561.1ZM73.644,15H72.379V7.6h1.265ZM72.276,5.642a.755.755,0,0,1,.188-.52.706.706,0,0,1,.557-.212.717.717,0,0,1,.561.212.747.747,0,0,1,.191.52.722.722,0,0,1-.191.513.73.73,0,0,1-.561.205.718.718,0,0,1-.557-.205A.73.73,0,0,1,72.276,5.642Zm3.056,5.592a4.369,4.369,0,0,1,.427-1.955,3.187,3.187,0,0,1,1.189-1.34,3.238,3.238,0,0,1,1.74-.472,3.119,3.119,0,0,1,2.444,1.046,4.024,4.024,0,0,1,.933,2.782v.089a4.407,4.407,0,0,1-.414,1.938,3.14,3.14,0,0,1-1.183,1.336,3.275,3.275,0,0,1-1.767.479,3.111,3.111,0,0,1-2.437-1.046,4,4,0,0,1-.933-2.769Zm1.271.15a3.164,3.164,0,0,0,.571,1.976,1.934,1.934,0,0,0,3.059-.01,3.46,3.46,0,0,0,.567-2.116,3.159,3.159,0,0,0-.578-1.972,1.836,1.836,0,0,0-1.535-.755,1.816,1.816,0,0,0-1.511.745A3.435,3.435,0,0,0,76.6,11.384ZM87.227,8.738A3.79,3.79,0,0,0,86.6,8.69a1.667,1.667,0,0,0-1.688,1.06V15H83.651V7.6h1.23l.021.854a1.969,1.969,0,0,1,1.764-.991,1.292,1.292,0,0,1,.561.1Z" transform="translate(0 83.865)" fill="#12263f"/>
          </g>
          <g id="Grupo_1060905" data-name="Grupo 1060905" transform="translate(1044.155 6832.426)">
            <g id="Grupo_1060904" data-name="Grupo 1060904" transform="translate(0 0)" clip-path="url(#clip-path)">
              <path id="Trazado_780968" data-name="Trazado 780968" d="M6.005,0H32.913l-.242,37.09S33.883,44.605,48.914,48l28.847-.242s7.758,0,15.273-12.122c0,0,7.917-7.758,4.525,6.3A32.313,32.313,0,0,1,75.9,56.159H24.751L5.643,37.048S5.8.2,6.005,0" transform="translate(8.176 -0.001)" fill="#12263f"/>
              <path id="Trazado_780969" data-name="Trazado 780969" d="M118.586,56.3,104.16,41.6V52.681s-.639,11.113-10.728,0L81.92,40.953s.617,9.974-.142,13.175C80.3,60.346,76.663,64.553,60.6,40.373V56.3h-2.62L43.557,41.6V52.681s-.639,11.113-10.728,0L21.317,40.953s.617,9.974-.142,13.175C19.7,60.346,16.057,64.553,0,40.373V74.11H121.572V56.3Z" transform="translate(0 58.492)" fill="#12263f"/>
              <path id="Trazado_780970" data-name="Trazado 780970" d="M75.911,44.651c-5.694,6.524-11.573,6.524-11.573,6.524l-21.861.13c-11.387-1.827-12.308-5.87-12.308-5.87l.184-19.96H9.965c-.154.11-.277,19.938-.277,19.938L24.17,55.695h1.913l3.512,2.231V56.19a1.014,1.014,0,0,1,.213-.495H31.46a6.6,6.6,0,0,1,.833.495l2.895,3.445a23.922,23.922,0,0,1,.034-3.673.609.609,0,0,1,.174-.267h.429c.666.294,1.966,1.653,4.724,4.244V55.695h.722l3.565,4.244V56.19a1.014,1.014,0,0,1,.213-.495H46.7a6.6,6.6,0,0,1,.833.495l2.895,2.779a16.05,16.05,0,0,1,.034-3.007,2.43,2.43,0,0,1,.127-.267h2.167a18.466,18.466,0,0,1,3.032,2.424V55.695h.752l2.782,3.636V55.695h2.566l2.532,2.667a19.925,19.925,0,0,1,.012-2.9c.708-.12,1.391-.257,2.045-.411A16.352,16.352,0,0,1,69.3,57.514V54.248c6.93-2.339,10.035-6.205,10.035-6.205,2.571-7.567-3.428-3.392-3.428-3.392" transform="translate(14.036 36.906)" fill="#12263f"/>
            </g>
          </g>
        </g>
      </g>
    </g>
  </g>
</svg>
