<svg xmlns="http://www.w3.org/2000/svg" width="45.992" height="53.773" viewBox="0 0 45.992 53.773">
  <g id="Grupo_1069683" data-name="Grupo 1069683" transform="translate(-527.806 -2331.587)">
    <g id="Grupo_1069682" data-name="Grupo 1069682">
      <g id="Grupo_1069681" data-name="Grupo 1069681">
        <g id="Grupo_1069680" data-name="Grupo 1069680">
          <g id="Grupo_1069679" data-name="Grupo 1069679">
            <path id="Trazado_724" data-name="Trazado 724" d="M4.251-.047,26.983-.053c1.477,1.5,10.351,10.46,13.454,13.6V49.4a4.278,4.278,0,0,1-4.251,4.3H4.251A4.278,4.278,0,0,1,0,49.4V4.257A4.278,4.278,0,0,1,4.251-.047Z" transform="translate(533.361 2331.654)" fill="#673ab7"/>
            <path id="Trazado_722" data-name="Trazado 722" d="M1496.692,662.327h-22.658a4.432,4.432,0,0,0-4.4,4.454v44.844a4.432,4.432,0,0,0,4.4,4.454h31.638a4.432,4.432,0,0,0,4.4-4.454V675.873Zm10.907,49.3a1.942,1.942,0,0,1-1.928,1.952h-31.638a1.942,1.942,0,0,1-1.928-1.952V666.781a1.942,1.942,0,0,1,1.928-1.952h21.634l.012.012V676.9h11.911l.008.008Z" transform="translate(-936.311 1669.26)" fill="#ffd54f"/>
            <path id="Trazado_723" data-name="Trazado 723" d="M1459.213,950.207a1.715,1.715,0,0,1-1.653,1.762h-36.373a1.715,1.715,0,0,1-1.653-1.762V932.589a1.715,1.715,0,0,1,1.653-1.762h36.373a1.715,1.715,0,0,1,1.653,1.762Z" transform="translate(-891.728 1425.495)" fill="#ffd54f"/>
            <text id="PDF" transform="translate(545.806 2371.587)" fill="#673ab7" font-size="13" font-family="Montserrat-ExtraBold, Montserrat" font-weight="800" letter-spacing="0.04em" style="isolation: isolate"><tspan x="-14.788" y="0">PDF</tspan></text>
          </g>
        </g>
      </g>
    </g>
  </g>
</svg>
