<svg id="Grupo_1079130" data-name="Grupo 1079130" xmlns="http://www.w3.org/2000/svg" xmlns:xlink="http://www.w3.org/1999/xlink" width="278" height="255.602" viewBox="0 0 278 255.602">
  <defs>
    <clipPath id="clip-path">
      <rect id="Rectángulo_374708" data-name="Rectángulo 374708" width="278" height="255.602" fill="none"/>
    </clipPath>
    <clipPath id="clip-path-4">
      <rect id="Rectángulo_374661" data-name="Rectángulo 374661" width="6.53" height="2.859" fill="none"/>
    </clipPath>
    <clipPath id="clip-path-5">
      <rect id="Rectángulo_374662" data-name="Rectángulo 374662" width="2.238" height="2.204" fill="none"/>
    </clipPath>
    <clipPath id="clip-path-6">
      <rect id="Rectángulo_374663" data-name="Rectángulo 374663" width="0.836" height="1.413" fill="none"/>
    </clipPath>
    <clipPath id="clip-path-7">
      <rect id="Rectángulo_374664" data-name="Rectángulo 374664" width="1.533" height="0.964" fill="none"/>
    </clipPath>
    <clipPath id="clip-path-8">
      <rect id="Rectángulo_374665" data-name="Rectángulo 374665" width="0.761" height="0.583" fill="none"/>
    </clipPath>
    <clipPath id="clip-path-9">
      <rect id="Rectángulo_374666" data-name="Rectángulo 374666" width="0.665" height="0.402" fill="none"/>
    </clipPath>
    <clipPath id="clip-path-10">
      <rect id="Rectángulo_374667" data-name="Rectángulo 374667" width="0.662" height="1.247" fill="none"/>
    </clipPath>
    <clipPath id="clip-path-11">
      <rect id="Rectángulo_374668" data-name="Rectángulo 374668" width="0.677" height="0.87" fill="none"/>
    </clipPath>
    <clipPath id="clip-path-12">
      <rect id="Rectángulo_374669" data-name="Rectángulo 374669" width="7.376" height="5.488" fill="none"/>
    </clipPath>
    <clipPath id="clip-path-13">
      <rect id="Rectángulo_374670" data-name="Rectángulo 374670" width="6.016" height="3.756" fill="none"/>
    </clipPath>
    <clipPath id="clip-path-14">
      <rect id="Rectángulo_374671" data-name="Rectángulo 374671" width="6.939" height="0.864" fill="none"/>
    </clipPath>
    <clipPath id="clip-path-16">
      <rect id="Rectángulo_374674" data-name="Rectángulo 374674" width="0.519" height="2.053" fill="none"/>
    </clipPath>
    <clipPath id="clip-path-17">
      <rect id="Rectángulo_374675" data-name="Rectángulo 374675" width="0.849" height="2.392" fill="none"/>
    </clipPath>
    <clipPath id="clip-path-18">
      <rect id="Rectángulo_374676" data-name="Rectángulo 374676" width="0.768" height="2.178" fill="none"/>
    </clipPath>
    <clipPath id="clip-path-19">
      <rect id="Rectángulo_374677" data-name="Rectángulo 374677" width="0.259" height="2.828" fill="none"/>
    </clipPath>
    <clipPath id="clip-path-20">
      <rect id="Rectángulo_374678" data-name="Rectángulo 374678" width="0.478" height="2.921" fill="none"/>
    </clipPath>
    <clipPath id="clip-path-21">
      <rect id="Rectángulo_374679" data-name="Rectángulo 374679" width="1.13" height="0.573" fill="none"/>
    </clipPath>
    <clipPath id="clip-path-22">
      <rect id="Rectángulo_374680" data-name="Rectángulo 374680" width="1.297" height="0.529" fill="none"/>
    </clipPath>
    <clipPath id="clip-path-23">
      <rect id="Rectángulo_374681" data-name="Rectángulo 374681" width="0.577" height="0.18" fill="none"/>
    </clipPath>
    <clipPath id="clip-path-24">
      <rect id="Rectángulo_374682" data-name="Rectángulo 374682" width="0.533" height="1.201" fill="none"/>
    </clipPath>
    <clipPath id="clip-path-25">
      <rect id="Rectángulo_374683" data-name="Rectángulo 374683" width="0.31" height="0.625" fill="none"/>
    </clipPath>
    <clipPath id="clip-path-26">
      <rect id="Rectángulo_374684" data-name="Rectángulo 374684" width="0.264" height="0.4" fill="none"/>
    </clipPath>
    <clipPath id="clip-path-27">
      <rect id="Rectángulo_374685" data-name="Rectángulo 374685" width="0.426" height="0.919" fill="none"/>
    </clipPath>
    <clipPath id="clip-path-28">
      <rect id="Rectángulo_374686" data-name="Rectángulo 374686" width="2.339" height="0.313" fill="none"/>
    </clipPath>
    <clipPath id="clip-path-29">
      <rect id="Rectángulo_374687" data-name="Rectángulo 374687" width="3.494" height="0.256" fill="none"/>
    </clipPath>
    <clipPath id="clip-path-31">
      <rect id="Rectángulo_374690" data-name="Rectángulo 374690" width="5.759" height="2.244" fill="none"/>
    </clipPath>
    <clipPath id="clip-path-32">
      <rect id="Rectángulo_374691" data-name="Rectángulo 374691" width="4.95" height="0.878" fill="none"/>
    </clipPath>
    <clipPath id="clip-path-33">
      <rect id="Rectángulo_374692" data-name="Rectángulo 374692" width="0.898" height="0.218" fill="none"/>
    </clipPath>
    <clipPath id="clip-path-34">
      <rect id="Rectángulo_374693" data-name="Rectángulo 374693" width="4.947" height="0.468" fill="none"/>
    </clipPath>
    <clipPath id="clip-path-35">
      <rect id="Rectángulo_374694" data-name="Rectángulo 374694" width="1.076" height="3.247" fill="none"/>
    </clipPath>
    <clipPath id="clip-path-36">
      <rect id="Rectángulo_374695" data-name="Rectángulo 374695" width="1.068" height="3.183" fill="none"/>
    </clipPath>
    <clipPath id="clip-path-37">
      <rect id="Rectángulo_374696" data-name="Rectángulo 374696" width="1.018" height="3.035" fill="none"/>
    </clipPath>
    <clipPath id="clip-path-38">
      <rect id="Rectángulo_374697" data-name="Rectángulo 374697" width="2.293" height="0.551" fill="none"/>
    </clipPath>
    <clipPath id="clip-path-39">
      <rect id="Rectángulo_374698" data-name="Rectángulo 374698" width="2.836" height="0.88" fill="none"/>
    </clipPath>
    <clipPath id="clip-path-40">
      <rect id="Rectángulo_374699" data-name="Rectángulo 374699" width="0.85" height="1.121" fill="none"/>
    </clipPath>
    <clipPath id="clip-path-41">
      <rect id="Rectángulo_374700" data-name="Rectángulo 374700" width="0.46" height="1.565" fill="none"/>
    </clipPath>
  </defs>
  <g id="Grupo_1079042" data-name="Grupo 1079042" clip-path="url(#clip-path)">
    <g id="Grupo_1078923" data-name="Grupo 1078923">
      <g id="Grupo_1078922" data-name="Grupo 1078922" clip-path="url(#clip-path)">
        <path id="Trazado_841907" data-name="Trazado 841907" d="M89.125,189.248a169.267,169.267,0,0,0,37.942,5.331v-28.32Z" transform="translate(1.257 2.345)" fill="#eefb29"/>
        <path id="Trazado_841908" data-name="Trazado 841908" d="M174.462,111.793a127.861,127.861,0,0,0-25.7-24.3v39.874Z" transform="translate(2.098 1.234)" fill="#4b2354"/>
        <path id="Trazado_841909" data-name="Trazado 841909" d="M126.891,128.367V88.049a129.8,129.8,0,0,0-25.318,23.334Z" transform="translate(1.433 1.242)" fill="#f7dca0"/>
        <path id="Trazado_841910" data-name="Trazado 841910" d="M89.374,129.521a106.409,106.409,0,0,0-12.125,41.191L115.882,147.3Z" transform="translate(1.09 1.827)" fill="#eefb29"/>
        <path id="Trazado_841911" data-name="Trazado 841911" d="M199.561,177.044a115.659,115.659,0,0,0-12.882-46.971l-30.022,18.19Z" transform="translate(2.21 1.835)" fill="#decbc5"/>
        <path id="Trazado_841912" data-name="Trazado 841912" d="M148.762,169.475v24.781a302.867,302.867,0,0,0,31.686-3.525Z" transform="translate(2.098 2.391)" fill="#decbc5"/>
        <path id="Trazado_841913" data-name="Trazado 841913" d="M137.645,159.614a14.478,14.478,0,1,1,14.478-14.478,14.494,14.494,0,0,1-14.478,14.478m0-27.942a13.464,13.464,0,1,0,13.464,13.463,13.478,13.478,0,0,0-13.464-13.463" transform="translate(1.737 1.843)" fill="#d11818"/>
        <path id="Trazado_841914" data-name="Trazado 841914" d="M126.567,212.645V15.235H149.1v197.41" transform="translate(1.785 0.215)" fill="#fff"/>
        <path id="Trazado_841915" data-name="Trazado 841915" d="M150.132,212.659H148.1v-3.6h2.028Zm-22.536,0h-2.028V208.6H127.6ZM150.132,205H148.1v-4.056h2.028Zm-22.536-.456h-2.028V200.49H127.6Zm22.536-7.656H148.1v-4.056h2.028Zm-22.536-.456h-2.028v-4.056H127.6Zm22.536-7.657H148.1V184.72h2.028Zm-22.536-.456h-2.028v-4.056H127.6Zm22.536-7.657H148.1v-4.056h2.028Zm-22.536-.456h-2.028v-4.056H127.6Zm22.536-7.657H148.1v-4.056h2.028Zm-22.536-.456h-2.028v-4.056H127.6Zm22.536-7.656H148.1v-4.056h2.028Zm-22.536-.456h-2.028v-4.056H127.6Zm22.536-7.657H148.1v-4.056h2.028Zm-22.536-.456h-2.028v-4.056H127.6Zm22.536-7.657H148.1v-4.056h2.028Zm-22.536-.456h-2.028V143.7H127.6Zm22.536-7.657H148.1v-4.056h2.028Zm-22.536-.456h-2.028v-4.056H127.6Zm22.536-7.656H148.1v-4.056h2.028Zm-22.536-.456h-2.028v-4.056H127.6Zm22.536-7.657H148.1v-4.056h2.028Zm-22.536-.456h-2.028v-4.056H127.6Zm22.536-7.657H148.1V111.7h2.028ZM127.6,115.3h-2.028v-4.056H127.6Zm22.536-7.657H148.1v-4.056h2.028Zm-22.536-.456h-2.028v-4.056H127.6Zm22.536-7.657H148.1V95.479h2.028ZM127.6,99.079h-2.028V95.023H127.6Zm22.536-7.657H148.1V87.366h2.028ZM127.6,90.966h-2.028V86.91H127.6Zm22.536-7.657H148.1V79.253h2.028ZM127.6,82.853h-2.028V78.8H127.6ZM150.132,75.2H148.1V71.141h2.028ZM127.6,74.741h-2.028V70.684H127.6Zm22.536-7.657H148.1V63.028h2.028ZM127.6,66.628h-2.028V62.571H127.6Zm22.536-7.657H148.1V54.915h2.028ZM127.6,58.515h-2.028V54.459H127.6Zm22.536-7.657H148.1V46.8h2.028ZM127.6,50.4h-2.028V46.346H127.6Zm22.536-7.657H148.1V38.689h2.028ZM127.6,42.289h-2.028V38.233H127.6Zm22.536-7.657H148.1V30.576h2.028ZM127.6,34.176h-2.028V30.12H127.6Zm22.536-7.656H148.1V22.463h2.028ZM127.6,26.064h-2.028V22.007H127.6Zm22.536-7.657H148.1V15.249h.115V14.235h1.914ZM127.6,17.951h-2.028V14.235h2.369v2.028H127.6Zm16.566-1.687h-4.056V14.235h4.056Zm-8.113,0h-4.056V14.235h4.056Z" transform="translate(1.771 0.201)"/>
        <path id="Trazado_841916" data-name="Trazado 841916" d="M76.975,93.736,255.491,213.492l-12.555,18.715L64.42,112.452" transform="translate(0.909 1.322)" fill="#fff"/>
        <path id="Trazado_841917" data-name="Trazado 841917" d="M243.2,233.625l-2.363-1.584,1.131-1.684.677.454.675-1.008,1.684,1.13Zm-5.731-3.843-3.368-2.26,1.129-1.684,3.37,2.26Zm9.8-2.218-1.685-1.13,2.26-3.369,1.684,1.131Zm-16.534-2.3L227.36,223l1.13-1.684,3.368,2.259Zm21.052-4.435L250.1,219.7l2.26-3.369,1.684,1.13Zm-27.788-.085-3.37-2.259,1.13-1.684,3.37,2.259Zm-6.739-4.52-3.368-2.259,1.13-1.684,3.369,2.259Zm37.654-1.877-3.345-2.245,1.129-1.684,4.187,2.808-.562.842-.851-.552ZM210.516,211.7l-3.368-2.26,1.13-1.684,3.37,2.26Zm37.677-1.863-3.368-2.26,1.13-1.684,3.368,2.26Zm-44.415-2.657-3.368-2.259,1.13-1.684,3.369,2.259Zm37.677-1.863-3.368-2.259,1.13-1.684,3.37,2.259Zm-44.414-2.657-3.368-2.259,1.13-1.684,3.368,2.259Zm37.677-1.863-3.368-2.259,1.13-1.684,3.369,2.259ZM190.3,198.144l-3.368-2.259,1.13-1.684,3.37,2.259Zm37.677-1.863-3.368-2.259,1.13-1.684,3.368,2.259Zm-44.414-2.656-3.369-2.26,1.13-1.684,3.369,2.26Zm37.678-1.863-3.37-2.26,1.13-1.684,3.37,2.26Zm-44.416-2.657-3.368-2.259,1.13-1.684,3.368,2.259Zm37.677-1.863-3.368-2.259,1.13-1.684,3.368,2.259Zm-44.414-2.657-3.369-2.259,1.13-1.685,3.37,2.26Zm37.676-1.863-3.369-2.259,1.131-1.684,3.368,2.259Zm-44.414-2.656-3.369-2.26,1.131-1.684,3.368,2.259Zm37.676-1.863-3.368-2.26,1.13-1.684,3.369,2.26Zm-44.412-2.657-3.37-2.26,1.13-1.684,3.369,2.259Zm37.675-1.863-3.368-2.26,1.13-1.684,3.368,2.26Zm-44.414-2.657-3.369-2.259,1.132-1.685,3.368,2.26Zm37.676-1.863-3.368-2.259,1.13-1.685,3.37,2.26Zm-44.414-2.657-3.368-2.259,1.13-1.684,3.369,2.259Zm37.677-1.863-3.369-2.259,1.13-1.684,3.369,2.259Zm-44.413-2.657-3.37-2.259,1.13-1.684,3.369,2.259Zm37.675-1.862-3.368-2.26,1.13-1.684,3.369,2.259Zm-44.414-2.658-3.368-2.259,1.13-1.684,3.369,2.259Zm37.677-1.862-3.369-2.26,1.13-1.684,3.37,2.259Zm-44.414-2.657-3.369-2.26,1.13-1.684,3.369,2.26Zm37.676-1.863-3.369-2.26,1.131-1.684,3.368,2.26Zm-44.414-2.657-3.369-2.259,1.132-1.684,3.368,2.259Zm37.678-1.863-3.37-2.259,1.13-1.684L155,144.881Zm-44.415-2.657-3.369-2.259,1.13-1.684,3.369,2.259Zm37.676-1.863-3.369-2.259L144.9,138.1l3.369,2.259Zm-44.414-2.656-3.369-2.26,1.13-1.684,3.369,2.26Zm37.676-1.863-3.368-2.26,1.13-1.684,3.369,2.26ZM95.982,134.87l-3.369-2.26,1.131-1.684,3.368,2.26Zm37.677-1.863-3.369-2.259,1.13-1.684,3.369,2.259ZM89.245,130.35l-3.369-2.259,1.13-1.684,3.369,2.259Zm37.676-1.863-3.368-2.259,1.13-1.684,3.369,2.259ZM82.507,125.83l-3.369-2.259,1.13-1.685,3.369,2.26Zm37.676-1.863-3.368-2.259,1.13-1.684,3.369,2.259ZM75.77,121.311l-3.368-2.26,1.13-1.684,3.369,2.259Zm37.677-1.863-3.369-2.26,1.13-1.684,3.369,2.26Zm-44.414-2.657-3.369-2.259,1.13-1.685,3.369,2.259Zm37.676-1.863-3.369-2.259,1.131-1.684,3.368,2.259Zm-6.737-4.52L96.6,108.149l1.13-1.685,3.369,2.26Zm-6.738-4.519-3.369-2.26L91,101.945l3.368,2.259ZM86.5,101.37l-3.369-2.26,1.13-1.684,3.369,2.259ZM79.76,96.85l-3.369-2.26,1.13-1.684,3.369,2.26Z" transform="translate(0.926 1.311)"/>
        <path id="Trazado_841918" data-name="Trazado 841918" d="M210.693,116.8,40.176,219.716,28.5,200.441,199.015,97.525" transform="translate(0.402 1.376)" fill="#fff"/>
        <path id="Trazado_841919" data-name="Trazado 841919" d="M41.065,220.365l-1.048-1.736,3.472-2.1,1.048,1.736Zm-3.631-3.258-2.1-3.469,1.735-1.051,2.1,3.469Zm10.576-.934-1.048-1.736,3.472-2.1,1.049,1.735Zm6.946-4.192-1.048-1.736,3.473-2.1,1.048,1.736Zm-21.725-1.812-2.1-3.469,1.735-1.051,2.1,3.469Zm28.671-2.38-1.048-1.736,3.473-2.1,1.048,1.735Zm6.946-4.191L67.8,201.861l3.473-2.1,1.048,1.736Zm-39.821-.367-1.9-3.142,2.067-1.247,1.048,1.736-.327.2.851,1.406ZM75.793,199.4l-1.048-1.736,3.473-2.1,1.048,1.736Zm-42.082-.924-1.048-1.736,3.472-2.1,1.048,1.736Zm49.029-3.268-1.048-1.736,3.472-2.1,1.048,1.736Zm-42.083-.924-1.048-1.736,3.472-2.1,1.048,1.736Zm49.029-3.268-1.048-1.736,3.472-2.1,1.048,1.736ZM47.6,190.1l-1.048-1.736,3.472-2.1L51.074,188Zm49.029-3.268-1.048-1.736,3.472-2.1,1.049,1.736ZM54.547,185.9,53.5,184.167l3.473-2.1,1.048,1.736Zm49.029-3.268-1.048-1.736L106,178.8l1.049,1.736Zm-42.083-.924-1.048-1.735,3.473-2.1,1.048,1.736Zm49.029-3.268-1.048-1.736,3.473-2.1L114,176.347Zm-42.083-.924-1.048-1.736,3.473-2.1,1.048,1.736Zm49.03-3.267-1.049-1.736,3.473-2.1,1.048,1.736Zm-42.084-.925-1.048-1.736,3.473-2.1,1.048,1.735Zm49.03-3.267-1.049-1.736,3.473-2.1,1.048,1.736Zm-42.083-.924L81.283,167.4l3.472-2.1,1.048,1.736Zm49.029-3.268-1.048-1.736,3.472-2.1,1.049,1.736Zm-42.083-.924-1.048-1.736,3.472-2.1,1.049,1.736Zm49.029-3.268-1.048-1.736,3.472-2.1,1.049,1.736Zm-42.083-.924-1.048-1.736,3.472-2.1,1.049,1.736Zm49.029-3.268-1.048-1.736,3.473-2.1,1.048,1.736Zm-42.083-.924-1.048-1.736,3.473-2.1,1.048,1.736Zm49.03-3.268-1.049-1.736,3.473-2.1,1.048,1.736Zm-42.083-.924-1.049-1.735,3.473-2.1,1.048,1.736Zm49.029-3.268-1.048-1.736,3.472-2.1L162.616,147Zm-42.083-.923-1.049-1.736,3.473-2.1,1.048,1.736Zm49.029-3.268-1.048-1.736,3.472-2.1,1.048,1.736Zm-42.083-.925-1.048-1.736,3.472-2.1,1.049,1.735Zm49.029-3.267-1.048-1.736,3.472-2.1,1.048,1.736Zm-42.083-.924-1.048-1.736,3.473-2.1,1.048,1.736Zm49.029-3.268-1.048-1.736,3.473-2.1,1.048,1.736ZM137.9,135.6l-1.049-1.736,3.473-2.1,1.048,1.736Zm49.028-3.268-1.048-1.736,3.473-2.1,1.048,1.736Zm-42.082-.924-1.049-1.736,3.473-2.1,1.048,1.736Zm49.028-3.268-1.048-1.736,3.473-2.1,1.048,1.736Zm-42.082-.924-1.048-1.736,3.472-2.1,1.048,1.736Zm49.028-3.268-1.048-1.736,3.473-2.1,1.048,1.736Zm-42.082-.924-1.048-1.735,3.472-2.1,1.048,1.736Zm49.029-3.268-1.049-1.736,3.473-2.1,1.048,1.736Zm-42.083-.923-1.048-1.736,3.473-2.1,1.048,1.736Zm6.946-4.192-1.048-1.736,3.473-2.1,1.048,1.736Zm6.946-4.192-1.048-1.736,3.473-2.1,1.048,1.736Zm6.946-4.192-1.048-1.736,3.473-2.1,1.048,1.736Zm6.947-4.192-1.048-1.736,3.472-2.1,1.048,1.736Z" transform="translate(0.383 1.386)"/>
      </g>
    </g>
    <text id="Ectomorfo_-" data-name="Ectomorfo -" transform="translate(117.682 226.254)" font-size="9" font-family="Roboto-Regular, Roboto"><tspan x="0" y="0" letter-spacing="-0.009em">E</tspan><tspan y="0">c</tspan><tspan y="0" letter-spacing="-0.009em">t</tspan><tspan y="0">omo</tspan><tspan y="0" letter-spacing="0.008em">r</tspan><tspan y="0">fo -</tspan></text>
    <text id="Endomorfo" transform="translate(118.768 237.206)" font-size="9" font-family="Roboto-Regular, Roboto"><tspan x="0" y="0">Endomo</tspan><tspan y="0" letter-spacing="0.008em">r</tspan><tspan y="0">fo</tspan></text>
    <text id="Endomorfo_-" data-name="Endomorfo -" transform="translate(19.932 95.465)" font-size="9" font-family="Roboto-Regular, Roboto"><tspan x="0" y="0">Endomo</tspan><tspan y="0" letter-spacing="0.008em">r</tspan><tspan y="0">fo -</tspan></text>
    <text id="Mesomorfo" transform="translate(21.256 106.417)" font-size="9" font-family="Roboto-Regular, Roboto"><tspan x="0" y="0">Mesomo</tspan><tspan y="0" letter-spacing="0.007em">r</tspan><tspan y="0">fo</tspan></text>
    <text id="Ectomorfo_--2" data-name="Ectomorfo -" transform="translate(209.271 95.556)" font-size="9" font-family="Roboto-Regular, Roboto"><tspan x="0" y="0" letter-spacing="-0.009em">E</tspan><tspan y="0">c</tspan><tspan y="0" letter-spacing="-0.009em">t</tspan><tspan y="0">omo</tspan><tspan y="0" letter-spacing="0.008em">r</tspan><tspan y="0">fo -</tspan></text>
    <text id="Mesomorfo-2" data-name="Mesomorfo" transform="translate(209.289 106.508)" font-size="9" font-family="Roboto-Regular, Roboto"><tspan x="0" y="0">Mesomo</tspan><tspan y="0" letter-spacing="0.007em">r</tspan><tspan y="0">fo</tspan></text>
    <g id="Grupo_1078958" data-name="Grupo 1078958">
      <g id="Grupo_1078957" data-name="Grupo 1078957" clip-path="url(#clip-path)">
        <rect id="Rectángulo_374660" data-name="Rectángulo 374660" width="70.193" height="31.904" transform="translate(145.483 13.585)" fill="#fff"/>
        <path id="Trazado_841920" data-name="Trazado 841920" d="M214.681,46.328H142.459V12.4h72.222ZM144.487,44.3h68.165V14.424H144.487Z" transform="translate(2.01 0.175)" fill="#ba68c8"/>
        <path id="Trazado_841921" data-name="Trazado 841921" d="M133.035,11a.545.545,0,0,1,.091-.107l0-.069Z" transform="translate(1.877 0.153)" fill="#ed744d"/>
        <path id="Trazado_841922" data-name="Trazado 841922" d="M149.948,33.97a1.023,1.023,0,0,1-1.5-.222,1.947,1.947,0,0,1-.751.09c-.574,0-1.941-.177-1.941-.177l-.222,2.209a35.955,35.955,0,0,1-5.253,1.013c-3.754.529-10.329-.529-10.329-.529l.309-1.5s-2.342,1.1-4.064-.355-1.941-8.564-1.941-8.564a9.1,9.1,0,0,1-.969-3.486c-.133-1.987.351-4.194,3.485-5.914a35.537,35.537,0,0,1,6.623-2.694l-.071-1.65-.058-1.282c.949-.9,6.309-.819,6.309-.819l.222,2.034.177,1.629s7.239,1.367,8.43,2.25,2.295,4.592,2.915,9.006-.4,8.344-1.372,8.963" transform="translate(1.739 0.142)" fill="#ed744d"/>
        <path id="Trazado_841923" data-name="Trazado 841923" d="M129.439,42.924a31.416,31.416,0,0,0,0,6.709c.354,2.708,1,6.946,1,6.946s-1.3,3.709-1.119,5.3,1.824,10.24,1.824,10.24-.706,2.532-.471,3.238,2.358,1.685,4.857,2.149c2.383.441,3.149.671,4.073.374.634-.2,1.421-1.27.664-1.7a8.68,8.68,0,0,0-1.691-.688l-3.547-3.314s.883-9.005,1-11.772a14.035,14.035,0,0,0-.059-3.355,5.957,5.957,0,0,0,.706-1.884c.472-1.646,1.119-10.653,1.177-11.713s-7.3-2.53-8.417-.529" transform="translate(1.823 0.592)" fill="#ed744d"/>
        <path id="Trazado_841924" data-name="Trazado 841924" d="M138.723,42.535s1.354,6.416,2,9.359a19.719,19.719,0,0,0,1.06,3.766,24.37,24.37,0,0,0-1.354,6.121c-.118,2.766,1.883,10.713,1.824,11.066s-.823,2.884-.234,3.65,9.3.529,9.946.176-.059-1.236-.882-1.413a2.5,2.5,0,0,0-1.3,0s-3.238-2.472-3.532-3.12,1.177-15.479,1.413-16.833.368-9.33-.633-12.8-8.078-2.383-8.314.029" transform="translate(1.957 0.568)" fill="#ed744d"/>
        <path id="Trazado_841925" data-name="Trazado 841925" d="M146.083,26.55a43.117,43.117,0,0,0-1.4-9.572,22.974,22.974,0,0,0-.915-2.579c-.085-.2-.206-.181-.407-.216l-.538-.1a.13.13,0,0,0-.157.094.11.11,0,0,0,0,.063,3.081,3.081,0,0,1-.52,2.918,5.518,5.518,0,0,1-2.939,1.691,8.769,8.769,0,0,1-7.11-1.375,22.085,22.085,0,0,1-2.794-2.406.163.163,0,0,0-.19-.023l-1.383.7a.16.16,0,0,0-.055.22.157.157,0,0,0,.055.055,4.776,4.776,0,0,1,1.209,1.019,13.125,13.125,0,0,1,1.009,1.2,9.17,9.17,0,0,1,1.572,3.657,20.663,20.663,0,0,1-.555,9.034c-.407,1.711-.883,3.416-1.118,5.161a.151.151,0,0,0,.044.129.117.117,0,0,0,.068.129,9.931,9.931,0,0,0,2.308.563c1.1.165,2.208.272,3.317.334a35.334,35.334,0,0,0,7.215-.263,13.857,13.857,0,0,0,1.612-.331,2.564,2.564,0,0,0,1.176-.551.12.12,0,0,0,0-.169.175.175,0,0,0-.026-.021,15.7,15.7,0,0,0,.54-4.189,50.089,50.089,0,0,0-.028-5.177" transform="translate(1.801 0.199)" fill="#fadee1"/>
        <g id="Grupo_1078926" data-name="Grupo 1078926" transform="translate(135.004 10.229)" style="mix-blend-mode: multiply;isolation: isolate">
          <g id="Grupo_1078925" data-name="Grupo 1078925">
            <g id="Grupo_1078924" data-name="Grupo 1078924" clip-path="url(#clip-path-4)">
              <path id="Trazado_841926" data-name="Trazado 841926" d="M139.656,12.124a8.017,8.017,0,0,1-1.634.678,8.165,8.165,0,0,1-3.31-.066,11.582,11.582,0,0,1-1.529-.547l-.058-1.283c.949-.9,6.31-.818,6.31-.818Z" transform="translate(-133.126 -10.087)" fill="#c1b1b3"/>
            </g>
          </g>
        </g>
        <path id="Trazado_841927" data-name="Trazado 841927" d="M135.675.032C134.086.209,132.5.3,131.26,1.8c-1.052,1.278-.662,3.488-.265,5.43s.882,4.283,1.721,4.547a12.141,12.141,0,0,0,5.519.441c1.942-.486,2.6-1.589,3.31-3.135.583-1.275-.529-5.65-1.1-7.062S137.521-.172,135.675.032" transform="translate(1.842 0)" fill="#ed744d"/>
        <path id="Trazado_841928" data-name="Trazado 841928" d="M131.844,7.811s-.994-.883-1.611-.463-.287,2.03.552,2.141a1.537,1.537,0,0,0,1.3-.4Z" transform="translate(1.833 0.102)" fill="#ed744d"/>
        <path id="Trazado_841929" data-name="Trazado 841929" d="M130.008,27.913a52.023,52.023,0,0,1,8.888-1.456,56.453,56.453,0,0,1,7,.147,18.753,18.753,0,0,1-3.914,3.266,24.175,24.175,0,0,1-8.094,3.958,32.134,32.134,0,0,1-5.252,1.015s.264-6.047,1.368-6.93" transform="translate(1.815 0.373)" fill="#ed744d"/>
        <path id="Trazado_841930" data-name="Trazado 841930" d="M146.723,33.491a28.63,28.63,0,0,1-4.679-.471,13.56,13.56,0,0,1-3.276-.965c-.081-.034-.157-.068-.228-.1a6.811,6.811,0,0,1-1.03-.58l-.412-4.5s2.708-.294,5.327-.441a16.859,16.859,0,0,1,3.376.153l.094.013v0a10.5,10.5,0,0,1,1.092.216,3.011,3.011,0,0,1,1.53,2.588c.177,2-1.795,4.092-1.795,4.092" transform="translate(1.934 0.372)" fill="#ed744d"/>
        <path id="Trazado_841931" data-name="Trazado 841931" d="M129.87,35.166a49.449,49.449,0,0,0,8.962.574,35.235,35.235,0,0,0,7.019-.839,5.713,5.713,0,0,0-.044,1.192c.044.662,1.368,5.607,1.589,6.446a13.006,13.006,0,0,1,.309,1.589,43.994,43.994,0,0,0-4.635.839,19.086,19.086,0,0,0-3.62,1.148s-.4-1.456-.529-2.208-.22-1.1-.22-1.1l-.619,3.222a25.328,25.328,0,0,1-4.857-.176,20.815,20.815,0,0,1-4.149-.839,44.414,44.414,0,0,1,.132-5.562c.265-2.3.662-4.282.662-4.282" transform="translate(1.82 0.492)" fill="#ffd54f"/>
        <g id="Grupo_1078929" data-name="Grupo 1078929" transform="translate(134.459 55.55)" style="mix-blend-mode: multiply;isolation: isolate">
          <g id="Grupo_1078928" data-name="Grupo 1078928">
            <g id="Grupo_1078927" data-name="Grupo 1078927" clip-path="url(#clip-path-5)">
              <path id="Trazado_841932" data-name="Trazado 841932" d="M132.6,54.934c.234.533.173,1.214.6,1.657a1.345,1.345,0,0,0,.76.339,3.639,3.639,0,0,0,.445.046.787.787,0,0,0,.389-.052c.055-.026.028-.1-.016-.117a1.135,1.135,0,0,0-.373-.053,3.266,3.266,0,0,1-.4-.054,1.134,1.134,0,0,1-.672-.337,2.064,2.064,0,0,1-.3-.751,4.315,4.315,0,0,0-.258-.783C132.717,54.709,132.546,54.815,132.6,54.934Z" transform="translate(-132.589 -54.777)" fill="#c1b1b3"/>
            </g>
          </g>
        </g>
        <g id="Grupo_1078932" data-name="Grupo 1078932" transform="translate(147.838 54.805)" style="mix-blend-mode: multiply;isolation: isolate">
          <g id="Grupo_1078931" data-name="Grupo 1078931">
            <g id="Grupo_1078930" data-name="Grupo 1078930" clip-path="url(#clip-path-6)">
              <path id="Trazado_841933" data-name="Trazado 841933" d="M145.793,54.191c.1.224.169.46.262.688a1.819,1.819,0,0,0,.174.336.5.5,0,0,0,.291.239.077.077,0,0,0,.094-.056.087.087,0,0,0,0-.04,1.045,1.045,0,0,0-.165-.3,3.24,3.24,0,0,1-.173-.319c-.106-.216-.2-.441-.313-.651-.063-.112-.221-.013-.17.1Z" transform="translate(-145.782 -54.043)" fill="#c1b1b3"/>
            </g>
          </g>
        </g>
        <g id="Grupo_1078935" data-name="Grupo 1078935" transform="translate(140.736 76.929)" style="mix-blend-mode: multiply;isolation: isolate">
          <g id="Grupo_1078934" data-name="Grupo 1078934">
            <g id="Grupo_1078933" data-name="Grupo 1078933" clip-path="url(#clip-path-7)">
              <path id="Trazado_841934" data-name="Trazado 841934" d="M138.845,76.041a2.849,2.849,0,0,1,1.131.664c.071.052.227.176.31.089s-.092-.2-.153-.249c-.176-.132-.352-.268-.533-.39a1.757,1.757,0,0,0-.7-.293C138.778,75.843,138.726,76.019,138.845,76.041Z" transform="translate(-138.778 -75.859)" fill="#c1b1b3"/>
            </g>
          </g>
        </g>
        <g id="Grupo_1078938" data-name="Grupo 1078938" transform="translate(140.802 77.613)" style="mix-blend-mode: multiply;isolation: isolate">
          <g id="Grupo_1078937" data-name="Grupo 1078937">
            <g id="Grupo_1078936" data-name="Grupo 1078936" clip-path="url(#clip-path-8)">
              <path id="Trazado_841935" data-name="Trazado 841935" d="M138.9,76.747c.1.062.2.131.3.2.048.033.094.071.142.1a.442.442,0,0,0,.078.042.265.265,0,0,0,.11.023.071.071,0,0,0,.072-.069.078.078,0,0,0,0-.021.291.291,0,0,0-.05-.092.584.584,0,0,0-.061-.062c-.053-.044-.111-.081-.165-.121-.1-.071-.2-.14-.309-.2a.115.115,0,0,0-.116.2Z" transform="translate(-138.843 -76.533)" fill="#c1b1b3"/>
            </g>
          </g>
        </g>
        <g id="Grupo_1078941" data-name="Grupo 1078941" transform="translate(140.367 78.193)" style="mix-blend-mode: multiply;isolation: isolate">
          <g id="Grupo_1078940" data-name="Grupo 1078940">
            <g id="Grupo_1078939" data-name="Grupo 1078939" clip-path="url(#clip-path-9)">
              <path id="Trazado_841936" data-name="Trazado 841936" d="M138.493,77.318c.09.027.183.048.271.079.005,0,.029.008.03.012s-.021-.01-.006,0l.016.007c.019.01.04.019.059.03l.026.015.013.01,0,0a.159.159,0,0,0,.062.029l.027.008a.072.072,0,0,0,.088-.052l0-.017a.205.205,0,0,0-.021-.092.217.217,0,0,0-.061-.061.584.584,0,0,0-.158-.086c-.094-.037-.193-.057-.288-.086a.108.108,0,0,0-.058.209Z" transform="translate(-138.414 -77.105)" fill="#c1b1b3"/>
            </g>
          </g>
        </g>
        <g id="Grupo_1078944" data-name="Grupo 1078944" transform="translate(134.075 72.347)" style="mix-blend-mode: multiply;isolation: isolate">
          <g id="Grupo_1078943" data-name="Grupo 1078943">
            <g id="Grupo_1078942" data-name="Grupo 1078942" clip-path="url(#clip-path-10)">
              <path id="Trazado_841937" data-name="Trazado 841937" d="M132.212,71.5c.048.206.062.42.122.624a.975.975,0,0,0,.142.305c.075.1.228.208.352.129a.092.092,0,0,0,.042-.1.2.2,0,0,0-.042-.084c-.015-.015-.032-.03-.048-.047s-.048-.058-.023-.024c-.012-.016-.024-.032-.036-.047s-.016-.024,0,0a.988.988,0,0,1-.073-.128c-.017-.034.01.028,0-.008,0-.011-.008-.024-.012-.033a.743.743,0,0,1-.025-.076c-.058-.19-.081-.386-.133-.576a.134.134,0,0,0-.258.071Z" transform="translate(-132.21 -71.341)" fill="#c1b1b3"/>
            </g>
          </g>
        </g>
        <g id="Grupo_1078947" data-name="Grupo 1078947" transform="translate(145.637 72.644)" style="mix-blend-mode: multiply;isolation: isolate">
          <g id="Grupo_1078946" data-name="Grupo 1078946">
            <g id="Grupo_1078945" data-name="Grupo 1078945" clip-path="url(#clip-path-11)">
              <path id="Trazado_841938" data-name="Trazado 841938" d="M143.611,71.728a1.034,1.034,0,0,0,.167.512.778.778,0,0,0,.2.19.545.545,0,0,0,.129.064.207.207,0,0,0,.157-.011.057.057,0,0,0,.02-.077.292.292,0,0,0-.1-.091c-.033-.019-.069-.034-.1-.053-.016-.011-.032-.021-.047-.032.016.011-.006-.006-.007-.007l-.019-.017c-.014-.013-.026-.026-.04-.04l-.019-.023c-.013-.017.007.01-.006-.009a.688.688,0,0,1-.057-.091.46.46,0,0,1-.023-.051c.007.015,0-.011,0-.011l-.009-.026a1.1,1.1,0,0,1-.052-.227.094.094,0,0,0-.092-.091.092.092,0,0,0-.091.091Z" transform="translate(-143.611 -71.634)" fill="#c1b1b3"/>
            </g>
          </g>
        </g>
        <g id="Grupo_1078950" data-name="Grupo 1078950" transform="translate(140.474 26.938)" style="mix-blend-mode: multiply;isolation: isolate">
          <g id="Grupo_1078949" data-name="Grupo 1078949">
            <g id="Grupo_1078948" data-name="Grupo 1078948" clip-path="url(#clip-path-12)">
              <path id="Trazado_841939" data-name="Trazado 841939" d="M145.887,26.684a3.19,3.19,0,0,1-.815.746q-.435.359-.881.713c-.572.452-1.152.9-1.745,1.327-1.218.885-2.4,1.82-3.7,2.581-.081-.033-.158-.068-.228-.1,1.264-.8,2.576-1.763,3.77-2.648.626-.463,1.244-.932,1.85-1.42q.441-.354.877-.716a3.083,3.083,0,0,1,.764-.589.056.056,0,0,1,.017-.009.068.068,0,0,1,.077.022v0a.087.087,0,0,1,.012.092" transform="translate(-138.52 -26.563)" fill="#c1b1b3"/>
            </g>
          </g>
        </g>
        <path id="Trazado_841940" data-name="Trazado 841940" d="M135.336,26.862c-1.03.307-1.925,1.931-2.425,1.813a.289.289,0,0,1-.254-.3.93.93,0,0,1,.126-.414c-.045.071-.145.236-.275.416-.258.357-.63.779-.892.692s-.281-.449-.249-.71v0a2.115,2.115,0,0,1,.058-.287,3.582,3.582,0,0,1-.2.329l0,0c-.213.317-.565.753-.9.772s-.3-.362-.224-.638v0a2.664,2.664,0,0,1,.09-.265.541.541,0,0,1-.137.113.578.578,0,0,1-.642-.059c-.375-.243,1.773-2.9,2.677-2.738a8.626,8.626,0,0,1,3.25,1.278" transform="translate(1.825 0.361)" fill="#ed744d"/>
        <g id="Grupo_1078953" data-name="Grupo 1078953" transform="translate(131.157 25.927)" style="mix-blend-mode: multiply;isolation: isolate">
          <g id="Grupo_1078952" data-name="Grupo 1078952">
            <g id="Grupo_1078951" data-name="Grupo 1078951" clip-path="url(#clip-path-13)">
              <path id="Trazado_841941" data-name="Trazado 841941" d="M135.329,26.857l-.029-.02-.006,0-.005,0-.019-.012a5.346,5.346,0,0,0-1.357,1.1,3.389,3.389,0,0,1-.681.574c-.148.082-.384.191-.451-.035a.828.828,0,0,1,.16-.622,5.762,5.762,0,0,1,.425-.6c.074-.1.153-.188.236-.276.068-.075.2-.16.222-.265,0-.021-.009-.051-.036-.049-.112.012-.193.136-.263.213-.09.1-.175.2-.257.3a17.454,17.454,0,0,1-1.2,1.628c-.191.191-.579.431-.639,0a2.229,2.229,0,0,1,.1-.726c.077-.146.157-.292.245-.434a5.558,5.558,0,0,1,.48-.667c.081-.1.165-.2.254-.29s.2-.175.229-.291a.041.041,0,0,0-.028-.051.045.045,0,0,0-.023,0c-.111.027-.189.142-.265.224-.094.106-.188.215-.277.329a8.8,8.8,0,0,0-.728,1.144,3.36,3.36,0,0,1-.761,1,.549.549,0,0,1-.339.165c-.2-.019-.229-.255-.216-.4a2.05,2.05,0,0,1,.165-.6.073.073,0,0,0,.006-.029,5.186,5.186,0,0,1,.7-1.078c.16-.186.318-.376.489-.553.079-.083.164-.166.249-.243.056-.051.173-.113.188-.19a.023.023,0,0,0-.016-.028h-.007c-.077-.008-.158.087-.209.134-.1.084-.184.173-.274.263-.184.185-.362.367-.529.566a5.423,5.423,0,0,0-.424.592,3.569,3.569,0,0,1-.324.542c-.119.132-.318.305-.508.22-.249-.113-.082-.449.01-.621a5.741,5.741,0,0,1,.7-1.012,7.021,7.021,0,0,1,.6-.569,3.154,3.154,0,0,1,.863-.557l0-.062a3.616,3.616,0,0,0-.548.253,3.969,3.969,0,0,0-.555.462,5.889,5.889,0,0,0-.994,1.146c-.165.247-.5.709-.251,1.006.172.2.424.11.619-.034-.114.386-.182.949.293.923.272-.015.495-.281.655-.474a4.734,4.734,0,0,0,.347-.481c-.063.4-.071.923.416.793.375-.1.651-.509.879-.866a.413.413,0,0,0,.1.364c.184.163.45-.015.605-.129a13.339,13.339,0,0,1,2.009-1.651l-.019-.021" transform="translate(-129.333 -25.566)" fill="#c2b3b5"/>
            </g>
          </g>
        </g>
        <g id="Grupo_1078956" data-name="Grupo 1078956" transform="translate(138.544 25.785)" style="mix-blend-mode: multiply;isolation: isolate">
          <g id="Grupo_1078955" data-name="Grupo 1078955">
            <g id="Grupo_1078954" data-name="Grupo 1078954" clip-path="url(#clip-path-14)">
              <path id="Trazado_841942" data-name="Trazado 841942" d="M136.714,26.284a11.022,11.022,0,0,1,3.417-.551c.576-.022,1.152-.025,1.729-.02a7.868,7.868,0,0,0,1.649-.064.065.065,0,0,0,0-.125,8.161,8.161,0,0,0-1.649-.089c-.605,0-1.213,0-1.818.032a10.417,10.417,0,0,0-3.371.658C136.576,26.165,136.615,26.32,136.714,26.284Z" transform="translate(-136.617 -25.426)" fill="#d7cdce"/>
            </g>
          </g>
        </g>
        <path id="Trazado_841943" data-name="Trazado 841943" d="M139.569,5.561c.041.246-.071.471-.25.5s-.356-.146-.4-.392.071-.47.25-.5.356.146.4.392" transform="translate(1.96 0.073)" fill="#28121e"/>
        <path id="Trazado_841944" data-name="Trazado 841944" d="M136.316,5.886c.041.247-.071.471-.251.5s-.356-.147-.4-.391a.406.406,0,0,1,.25-.5c.18-.029.356.146.4.392" transform="translate(1.914 0.077)" fill="#28121e"/>
        <path id="Trazado_841945" data-name="Trazado 841945" d="M134.885,5.295a2.16,2.16,0,0,1,1.955-.326l.171-.433a2.588,2.588,0,0,0-2.417.392Z" transform="translate(1.899 0.062)" fill="#bb5a38"/>
        <path id="Trazado_841946" data-name="Trazado 841946" d="M138.178,7.745a.66.66,0,0,0,.479-.341c.087-.23-.046-.445-.248-.771-.076-.123-.165-.268-.262-.439a1.4,1.4,0,0,1-.079-.173,1.183,1.183,0,0,1,.094-1.027,1.358,1.358,0,0,1,.965-.653,1.763,1.763,0,0,1,.943.1l.171-.433a2.228,2.228,0,0,0-1.187-.127,1.825,1.825,0,0,0-1.3.878,1.672,1.672,0,0,0-.13,1.425,1.718,1.718,0,0,0,.11.236c.1.181.194.332.274.46a2.192,2.192,0,0,1,.2.363c-.019-.006-.062.022-.165.053Z" transform="translate(1.94 0.054)" fill="#bb5a38"/>
        <path id="Trazado_841947" data-name="Trazado 841947" d="M137.944,9.316a1.345,1.345,0,0,0,.954-.522l-.362-.3a.886.886,0,0,1-1.087.278l-.2.421a1.377,1.377,0,0,0,.7.119" transform="translate(1.936 0.12)" fill="#bb5a38"/>
        <path id="Trazado_841948" data-name="Trazado 841948" d="M134.866,7.345a.145.145,0,1,1-.167-.12h0a.145.145,0,0,1,.165.12" transform="translate(1.898 0.102)" fill="#bb5a38"/>
        <path id="Trazado_841949" data-name="Trazado 841949" d="M135.55,7.629a.064.064,0,0,1-.053.072.063.063,0,0,1-.02-.124h0a.064.064,0,0,1,.072.052" transform="translate(1.91 0.107)" fill="#bb5a38"/>
        <path id="Trazado_841950" data-name="Trazado 841950" d="M134.85,8.133a.127.127,0,1,1-.147-.105h0a.128.128,0,0,1,.146.1h0" transform="translate(1.899 0.113)" fill="#bb5a38"/>
        <path id="Trazado_841951" data-name="Trazado 841951" d="M134.1,7.661a.071.071,0,1,1-.14.023.07.07,0,0,1,.058-.081h0a.071.071,0,0,1,.081.059" transform="translate(1.89 0.107)" fill="#bb5a38"/>
        <path id="Trazado_841952" data-name="Trazado 841952" d="M135.636,8.356a.107.107,0,1,1-.123-.088.107.107,0,0,1,.123.088" transform="translate(1.91 0.117)" fill="#bb5a38"/>
        <path id="Trazado_841953" data-name="Trazado 841953" d="M136.236,7.214a.094.094,0,0,1-.077.11h0a.1.1,0,1,1,.079-.112v0" transform="translate(1.919 0.101)" fill="#bb5a38"/>
        <path id="Trazado_841954" data-name="Trazado 841954" d="M136.151,7.883a.165.165,0,1,1,.191.136h0a.166.166,0,0,1-.19-.137" transform="translate(1.921 0.108)" fill="#bb5a38"/>
        <path id="Trazado_841955" data-name="Trazado 841955" d="M139.475,6.674a.127.127,0,1,1-.25.041.127.127,0,0,1,.25-.042h0" transform="translate(1.964 0.093)" fill="#bb5a38"/>
        <path id="Trazado_841956" data-name="Trazado 841956" d="M139.721,7.511a.176.176,0,1,1,.2.146.175.175,0,0,1-.2-.146" transform="translate(1.971 0.103)" fill="#bb5a38"/>
        <path id="Trazado_841957" data-name="Trazado 841957" d="M140.241,6.756a.1.1,0,1,1-.119-.084h0a.1.1,0,0,1,.119.085" transform="translate(1.975 0.094)" fill="#bb5a38"/>
      </g>
    </g>
    <text id="Mesomorfo-3" data-name="Mesomorfo" transform="translate(156.949 26.632)" font-size="10" font-family="Roboto-Regular, Roboto"><tspan x="0" y="0">Mesomo</tspan><tspan y="0" letter-spacing="0.007em">r</tspan><tspan y="0">fo</tspan></text>
    <text id="Balanceado" transform="translate(156.949 38.801)" font-size="10" font-family="Roboto-Regular, Roboto"><tspan x="0" y="0">Balanceado</tspan></text>
    <g id="Grupo_1079002" data-name="Grupo 1079002">
      <g id="Grupo_1079001" data-name="Grupo 1079001" clip-path="url(#clip-path)">
        <rect id="Rectángulo_374673" data-name="Rectángulo 374673" width="70.193" height="31.904" transform="translate(184.035 221.52)" fill="#fff"/>
        <path id="Trazado_841958" data-name="Trazado 841958" d="M252.7,251.371H180.475V217.439H252.7ZM182.5,249.343h68.165V219.467H182.5Z" transform="translate(2.546 3.067)" fill="#ba68c8"/>
        <path id="Trazado_841959" data-name="Trazado 841959" d="M262.759,216.437a1.487,1.487,0,0,1-.248.509.369.369,0,0,1-.1.053.154.154,0,0,1-.088.007l-.016,0a.226.226,0,0,1-.112.069l-.071.015a.661.661,0,0,1-.077.007.138.138,0,0,1-.015.026.117.117,0,0,1-.192.019c-.137-.115-.147-.605-.2-1.357a16.254,16.254,0,0,0-.274-2.029c-.068-.216-.1-.227-.1-.227s-.535,1.4-.742,1.3-.113-.3-.069-.56.345-2.063.356-2.21-1.142-5.312-1.322-5.87-1.174-4.4-1.426-5.061c0,0-1.674-8.091-1.948-10.825a16.947,16.947,0,0,0-1.245-4.863s4.407,2,5.106,2.917.912,4.832,1.033,7.2.092,6.2.214,6.685,1.276,9.939,1.276,9.939a2.656,2.656,0,0,1,.639,1.853,5.187,5.187,0,0,1-.368,2.4" transform="translate(3.595 2.616)" fill="#ffa181"/>
        <path id="Trazado_841960" data-name="Trazado 841960" d="M251.6,183.551v2.4s-1.763,3.372-2.4,4.406-.335,3.829-.335,3.829.061,5.227.213,7.05a25.936,25.936,0,0,1-.183,4.405s5.044.214,6.474.124a11.4,11.4,0,0,0,2.764-.578s.4-7.263.244-10.334-.152-4.924-.152-4.924a35.917,35.917,0,0,1-2.765-3.767,11.562,11.562,0,0,1-.122-2.066s-3.465-.789-3.739-.548" transform="translate(3.51 2.589)" fill="#ffa181"/>
        <path id="Trazado_841961" data-name="Trazado 841961" d="M251.929,185.1a4.374,4.374,0,0,0,2.461.773,3.488,3.488,0,0,0,.959-.144c-.068-.668-.049-1.628-.049-1.628s-3.464-.79-3.738-.548v1.272c.118.1.239.19.366.275" transform="translate(3.549 2.589)" fill="#ff7454"/>
        <path id="Trazado_841962" data-name="Trazado 841962" d="M250.454,175.047s.061,5.561.242,7.111.3,1.884.517,1.975a22.361,22.361,0,0,0,3.16,1.277c.669.091,2.766-1.216,3.191-1.763s-.061-9.391-.092-9.543-2.035-1.975-3.707-1.671a5.987,5.987,0,0,0-3.312,2.613" transform="translate(3.533 2.432)" fill="#ffa181"/>
        <path id="Trazado_841963" data-name="Trazado 841963" d="M250.81,179.248s-1.186-1.307-1.671-.82-.3,2.188.638,2.31,1.155-.973,1.155-.973Z" transform="translate(3.511 2.515)" fill="#ffa181"/>
        <path id="Trazado_841964" data-name="Trazado 841964" d="M251.851,188.262c-.366,1.49-2.035,3.953-2.249,4.711s-2.614,8.055-2.675,8.693-.515,11.426-.515,11.426.122.366.333.881.505,1.694.183,1.824c-.2.083-.667-1.065-.667-1.065a2.186,2.186,0,0,0,.211,1.034,6.037,6.037,0,0,1,.441,1.778c-.02.162-.193.128-.3.085a.907.907,0,0,1-.092-.04,1.76,1.76,0,0,1,.044.242.392.392,0,0,1-.059.312.3.3,0,0,1-.354-.015h0c-.032-.022-.055-.04-.055-.04a.5.5,0,0,1-.017.077c-.028.083-.094.194-.249.123a1.43,1.43,0,0,1-.44-.381l0,0c-.051-.065-.081-.111-.081-.111a.314.314,0,0,1-.045.064c-.066.069-.195.137-.356-.141a5.089,5.089,0,0,1-.464-2.225,13.3,13.3,0,0,1,.335-2.249c0-.183-.669-9.208-.669-10.394s1.762-12.429,2.249-13.372,5.529-3.92,5.529-3.92a5.892,5.892,0,0,1-.028,2.7" transform="translate(3.443 2.618)" fill="#ffa181"/>
        <path id="Trazado_841965" data-name="Trazado 841965" d="M248.322,213.587c0,.3.547,12.1.607,12.4a44.267,44.267,0,0,0-.668,7.9c.122,4.377.79,11.731.79,11.731s-2.736,3.1-2.614,3.768,2.432,1.033,3.222,1.033.851-.122,1.093-.668a18.6,18.6,0,0,0,.791-4.073,28.7,28.7,0,0,1-.122-3.282c.06-2.31.79-13.737,1.215-16.046s.425-12.7.425-13.25-4.739.486-4.739.486" transform="translate(3.476 3.004)" fill="#ffa181"/>
        <path id="Trazado_841966" data-name="Trazado 841966" d="M254.409,214.267s1.519,13.25,1.519,13.614a25.715,25.715,0,0,0,.183,6.383c.548,3.586,1.764,10.575,1.764,10.575s-.548,3.526-.123,3.951,8.673.363,9.042.26.417-1.075-.416-1.482-1.809-.33-2.043-.523-3.542-2.206-3.665-3-.729-15.985-.729-16.411,0-10.394-.851-14.04a23.944,23.944,0,0,0-2.006-5.713s-3.039,3.04-2.674,6.383" transform="translate(3.588 2.932)" fill="#ffa181"/>
        <path id="Trazado_841967" data-name="Trazado 841967" d="M258.47,205.392c0-1.161-.171-7.235-.069-9.612a46.224,46.224,0,0,0-.569-8.957l-.776-.388c0,2.037-.139,4.261-2.529,4.559-2.631.327-3.966-2.37-4.49-4.447l-1.094.708a10.116,10.116,0,0,1,.578,2.024,18.891,18.891,0,0,1,.227,2.5,8.509,8.509,0,0,1-.973,3.9c.02,3.128.155,6.666.152,9.814,2.679,1.769,9.03.743,9.512-.131" transform="translate(3.509 2.63)" fill="#fadee1"/>
        <path id="Trazado_841968" data-name="Trazado 841968" d="M248.817,204.649s1.487.794,5.06.7c3.419-.091,4.65-.775,4.65-.775s.471,4.939.714,6.7.3,3.525.3,3.525-.7.031-2.492.3a11.459,11.459,0,0,0-2.431.517s-.506-2.438-.562-2.774a1.712,1.712,0,0,0-.5-1l-.388,3.807a11.861,11.861,0,0,1-2.666.159,7.413,7.413,0,0,1-2.28-.274,29.781,29.781,0,0,1-.16-6.108,27.9,27.9,0,0,1,.752-4.779" transform="translate(3.498 2.886)" fill="#ffd54f"/>
        <path id="Trazado_841969" data-name="Trazado 841969" d="M251.054,177.083a7.383,7.383,0,0,0-.092-2.626c-.1-.223-.623-.461-.881.489a8.854,8.854,0,0,0,.062,3.407,8.055,8.055,0,0,0,.441,1.466s.317-1.577.471-2.737" transform="translate(3.526 2.458)" fill="#aa4f20"/>
        <path id="Trazado_841970" data-name="Trazado 841970" d="M255.861,171.66a8.364,8.364,0,0,0-5.045,2.607c-.388.679.006.776.006.776a7.374,7.374,0,0,1,3.6-.867c1.869.112,3.23,1.285,3.555,1.14.744-.332-.487-1.268-.487-1.268s1.049.8,1.338.249c.266-.5-.623-.989-.623-.989s.638.419.713-.014-.912-1.747-3.053-1.635" transform="translate(3.536 2.421)" fill="#aa4f20"/>
        <g id="Grupo_1078961" data-name="Grupo 1078961" transform="translate(248.224 218.423)" style="mix-blend-mode: multiply;isolation: isolate">
          <g id="Grupo_1078960" data-name="Grupo 1078960">
            <g id="Grupo_1078959" data-name="Grupo 1078959" clip-path="url(#clip-path-16)">
              <path id="Trazado_841971" data-name="Trazado 841971" d="M245.29,217.375a.314.314,0,0,1-.045.064c-.022-.049-.042-.1-.061-.147a4.958,4.958,0,0,1-.174-.551,5.756,5.756,0,0,1-.24-1.3c0-.066.079-.074.08-.009a7.446,7.446,0,0,0,.44,1.945" transform="translate(-244.771 -215.385)" fill="#c1b1b3"/>
            </g>
          </g>
        </g>
        <g id="Grupo_1078964" data-name="Grupo 1078964" transform="translate(248.685 218.393)" style="mix-blend-mode: multiply;isolation: isolate">
          <g id="Grupo_1078963" data-name="Grupo 1078963">
            <g id="Grupo_1078962" data-name="Grupo 1078962" clip-path="url(#clip-path-17)">
              <path id="Trazado_841972" data-name="Trazado 841972" d="M246.075,217.67a.4.4,0,0,1-.017.077,1.909,1.909,0,0,1-.152-.239,3.982,3.982,0,0,1-.3-.567,5.113,5.113,0,0,1-.2-.678,7.579,7.579,0,0,1-.176-.851c-.009-.057.077-.081.085-.024a9.862,9.862,0,0,0,.412,1.553c.118.3.351.73.351.73" transform="translate(-245.226 -215.355)" fill="#c1b1b3"/>
            </g>
          </g>
        </g>
        <g id="Grupo_1078967" data-name="Grupo 1078967" transform="translate(249.237 218.272)" style="mix-blend-mode: multiply;isolation: isolate">
          <g id="Grupo_1078966" data-name="Grupo 1078966">
            <g id="Grupo_1078965" data-name="Grupo 1078965" clip-path="url(#clip-path-18)">
              <path id="Trazado_841973" data-name="Trazado 841973" d="M246.494,217.171a1.814,1.814,0,0,1,.044.242c-.075-.13-.136-.267-.2-.391-.1-.208-.186-.422-.267-.638a4.9,4.9,0,0,1-.3-1.1c-.008-.066.077-.058.089.011a13.512,13.512,0,0,0,.634,1.879" transform="translate(-245.77 -215.236)" fill="#c1b1b3"/>
            </g>
          </g>
        </g>
        <g id="Grupo_1078970" data-name="Grupo 1078970" transform="translate(265.623 216.908)" style="mix-blend-mode: multiply;isolation: isolate">
          <g id="Grupo_1078969" data-name="Grupo 1078969">
            <g id="Grupo_1078968" data-name="Grupo 1078968" clip-path="url(#clip-path-19)">
              <path id="Trazado_841974" data-name="Trazado 841974" d="M262.186,215.146a7.278,7.278,0,0,1-.165,1.539c-.025,0-.051.005-.077.006a.137.137,0,0,1-.015.026,7.058,7.058,0,0,0,.158-1.558c0-.235-.015-.472-.034-.707a3.22,3.22,0,0,1-.041-.531c.005-.026.033-.044.054-.021.109.107.105.358.113.5.01.247.01.5.008.745" transform="translate(-261.928 -213.891)" fill="#c1b1b3"/>
            </g>
          </g>
        </g>
        <g id="Grupo_1078973" data-name="Grupo 1078973" transform="translate(265.914 216.704)" style="mix-blend-mode: multiply;isolation: isolate">
          <g id="Grupo_1078972" data-name="Grupo 1078972">
            <g id="Grupo_1078971" data-name="Grupo 1078971" clip-path="url(#clip-path-20)">
              <path id="Trazado_841975" data-name="Trazado 841975" d="M262.671,214.614c-.015.243-.042.486-.081.727a9.107,9.107,0,0,1-.287,1.261.163.163,0,0,1-.088.006,10.505,10.505,0,0,0,.244-1.237,7.464,7.464,0,0,0,.079-.8,5.6,5.6,0,0,1,0-.855c.009-.045.064-.033.077,0a2.184,2.184,0,0,1,.06.894" transform="translate(-262.215 -213.69)" fill="#c1b1b3"/>
            </g>
          </g>
        </g>
        <g id="Grupo_1078976" data-name="Grupo 1078976" transform="translate(262.146 229.547)" style="mix-blend-mode: multiply;isolation: isolate">
          <g id="Grupo_1078975" data-name="Grupo 1078975">
            <g id="Grupo_1078974" data-name="Grupo 1078974" clip-path="url(#clip-path-21)">
              <path id="Trazado_841976" data-name="Trazado 841976" d="M258.561,226.9a2.288,2.288,0,0,0,.311.024.956.956,0,0,0,.3-.058.668.668,0,0,0,.454-.431.068.068,0,0,0-.051-.082.074.074,0,0,0-.047.006c-.082.049-.146.12-.224.171a1.012,1.012,0,0,1-.214.115,1.819,1.819,0,0,1-.256.067,1.928,1.928,0,0,1-.276.044.073.073,0,0,0-.059.085A.071.071,0,0,0,258.561,226.9Z" transform="translate(-258.5 -226.354)" fill="#c1b1b3"/>
            </g>
          </g>
        </g>
        <g id="Grupo_1078979" data-name="Grupo 1078979" transform="translate(254.236 229.619)" style="mix-blend-mode: multiply;isolation: isolate">
          <g id="Grupo_1078978" data-name="Grupo 1078978">
            <g id="Grupo_1078977" data-name="Grupo 1078977" clip-path="url(#clip-path-22)">
              <path id="Trazado_841977" data-name="Trazado 841977" d="M250.741,226.586a2.541,2.541,0,0,0,.6.319c.2.065.534.1.644-.13a.074.074,0,0,0-.064-.112,1.157,1.157,0,0,0-.146.024.88.88,0,0,1-.126.021.91.91,0,0,1-.281-.032,2.522,2.522,0,0,1-.542-.243.088.088,0,0,0-.119.038A.086.086,0,0,0,250.741,226.586Z" transform="translate(-250.7 -226.425)" fill="#c1b1b3"/>
            </g>
          </g>
        </g>
        <g id="Grupo_1078982" data-name="Grupo 1078982" transform="translate(254.836 230.568)" style="mix-blend-mode: multiply;isolation: isolate">
          <g id="Grupo_1078981" data-name="Grupo 1078981">
            <g id="Grupo_1078980" data-name="Grupo 1078980" clip-path="url(#clip-path-23)">
              <path id="Trazado_841978" data-name="Trazado 841978" d="M251.348,227.529a1.051,1.051,0,0,0,.265.006.467.467,0,0,0,.129-.024.536.536,0,0,0,.066-.028.178.178,0,0,0,.049-.043.045.045,0,0,0,0-.064.051.051,0,0,0-.029-.012.2.2,0,0,0-.06,0l-.043.006a.556.556,0,0,0-.067.009l-.018,0a.248.248,0,0,0-.028,0,1.063,1.063,0,0,1-.114.005c-.019,0-.039,0-.057,0l-.028,0-.016,0h0a.08.08,0,0,0-.1.054A.078.078,0,0,0,251.348,227.529Z" transform="translate(-251.291 -227.361)" fill="#c1b1b3"/>
            </g>
          </g>
        </g>
        <g id="Grupo_1078985" data-name="Grupo 1078985" transform="translate(252.582 252.013)" style="mix-blend-mode: multiply;isolation: isolate">
          <g id="Grupo_1078984" data-name="Grupo 1078984">
            <g id="Grupo_1078983" data-name="Grupo 1078983" clip-path="url(#clip-path-24)">
              <path id="Trazado_841979" data-name="Trazado 841979" d="M249.378,249.552a.731.731,0,0,1,.037-.489c.028-.073.073-.146.111-.225a.484.484,0,0,0,.077-.276.077.077,0,0,0-.092-.052c-.1.016-.188.128-.241.209a1.251,1.251,0,0,0-.145.29.976.976,0,0,0-.055.3.676.676,0,0,0,.079.335.126.126,0,0,0,.23-.1Z" transform="translate(-249.069 -248.507)" fill="#c1b1b3"/>
            </g>
          </g>
        </g>
        <g id="Grupo_1078988" data-name="Grupo 1078988" transform="translate(251.621 252.387)" style="mix-blend-mode: multiply;isolation: isolate">
          <g id="Grupo_1078987" data-name="Grupo 1078987">
            <g id="Grupo_1078986" data-name="Grupo 1078986" clip-path="url(#clip-path-25)">
              <path id="Trazado_841980" data-name="Trazado 841980" d="M248.319,249.424a2.431,2.431,0,0,1,.064-.238c.012-.038.021-.078.031-.117.007-.022.013-.044.018-.066a.351.351,0,0,0-.009-.079.066.066,0,0,0-.082-.045l-.014.006a.247.247,0,0,0-.059.049.316.316,0,0,0-.032.064c-.019.043-.035.085-.051.129-.023.08-.043.162-.058.244a.1.1,0,0,0,.064.126.1.1,0,0,0,.126-.064l0-.009" transform="translate(-248.121 -248.876)" fill="#c1b1b3"/>
            </g>
          </g>
        </g>
        <g id="Grupo_1078991" data-name="Grupo 1078991" transform="translate(250.961 252.402)" style="mix-blend-mode: multiply;isolation: isolate">
          <g id="Grupo_1078990" data-name="Grupo 1078990">
            <g id="Grupo_1078989" data-name="Grupo 1078989" clip-path="url(#clip-path-26)">
              <path id="Trazado_841981" data-name="Trazado 841981" d="M247.622,249.235a.5.5,0,0,1,.018-.077l.013-.038.007-.019s-.006.014,0,.005l.005-.01c.012-.024.027-.049.038-.074l.009-.021,0-.009s-.005.013,0,0a.3.3,0,0,1,.016-.029.051.051,0,0,0-.008-.061.052.052,0,0,0-.061-.008.418.418,0,0,0-.067.047.241.241,0,0,0-.053.078.689.689,0,0,0-.066.171.077.077,0,0,0,.149.041Z" transform="translate(-247.47 -248.891)" fill="#c1b1b3"/>
            </g>
          </g>
        </g>
        <g id="Grupo_1078994" data-name="Grupo 1078994" transform="translate(262.754 247.181)" style="mix-blend-mode: multiply;isolation: isolate">
          <g id="Grupo_1078993" data-name="Grupo 1078993">
            <g id="Grupo_1078992" data-name="Grupo 1078992" clip-path="url(#clip-path-27)">
              <path id="Trazado_841982" data-name="Trazado 841982" d="M259.114,243.817a2.12,2.12,0,0,0,0,.513.491.491,0,0,0,.1.229.265.265,0,0,0,.1.077.2.2,0,0,0,.163.015.063.063,0,0,0,.043-.078.062.062,0,0,0-.015-.026.247.247,0,0,0-.053-.045l-.045-.024h0l-.022-.017s-.024-.02-.01-.006c-.011-.01-.021-.021-.032-.032s.005.01-.005-.005-.01-.015-.014-.023a.134.134,0,0,1-.013-.024s-.012-.024,0-.007a.531.531,0,0,1-.031-.1,1.219,1.219,0,0,1-.016-.219c0-.075,0-.149.005-.223A.076.076,0,0,0,259.114,243.817Z" transform="translate(-259.099 -243.743)" fill="#c1b1b3"/>
            </g>
          </g>
        </g>
        <g id="Grupo_1078997" data-name="Grupo 1078997" transform="translate(254.611 198.062)" style="mix-blend-mode: multiply;isolation: isolate">
          <g id="Grupo_1078996" data-name="Grupo 1078996">
            <g id="Grupo_1078995" data-name="Grupo 1078995" clip-path="url(#clip-path-28)">
              <path id="Trazado_841983" data-name="Trazado 841983" d="M251.149,195.618a8.152,8.152,0,0,1,1.143-.111,3.952,3.952,0,0,0,1.09-.129c.036-.013.035-.071-.007-.072-.192,0-.385.024-.577.033s-.376.023-.565.033a7.778,7.778,0,0,0-1.116.118C251.036,195.508,251.066,195.634,251.149,195.618Z" transform="translate(-251.069 -195.307)" fill="#d7cdce"/>
            </g>
          </g>
        </g>
        <g id="Grupo_1079000" data-name="Grupo 1079000" transform="translate(257.385 197.849)" style="mix-blend-mode: multiply;isolation: isolate">
          <g id="Grupo_1078999" data-name="Grupo 1078999">
            <g id="Grupo_1078998" data-name="Grupo 1078998" clip-path="url(#clip-path-29)">
              <path id="Trazado_841984" data-name="Trazado 841984" d="M253.835,195.348c.579.017,1.159-.018,1.738-.04.285-.01.57-.028.855-.041a5.559,5.559,0,0,0,.842-.051.038.038,0,0,0,.026-.048.033.033,0,0,0-.024-.024,2.757,2.757,0,0,0-.806-.033q-.421.02-.841.064a14.635,14.635,0,0,1-1.788.1.033.033,0,0,0-.032.036A.035.035,0,0,0,253.835,195.348Z" transform="translate(-253.805 -195.097)" fill="#d7cdce"/>
            </g>
          </g>
        </g>
        <path id="Trazado_841985" data-name="Trazado 841985" d="M252.066,179.421a.777.777,0,0,1,.1-.467.524.524,0,0,1,.4-.263.506.506,0,0,1,.37.127.751.751,0,0,1,.245.514l-.47.038a.292.292,0,0,0-.082-.194l-.065.024a.32.32,0,0,0-.038.186Z" transform="translate(3.556 2.521)" fill="#28121e"/>
        <path id="Trazado_841986" data-name="Trazado 841986" d="M256.524,179.065c.019.248-.111.462-.292.477s-.343-.175-.362-.425.111-.461.292-.477.342.176.362.425" transform="translate(3.609 2.52)" fill="#28121e"/>
        <path id="Trazado_841987" data-name="Trazado 841987" d="M251.877,178.406l-.259-.388a2.589,2.589,0,0,1,2.443-.189l-.209.418a2.142,2.142,0,0,0-1.975.159" transform="translate(3.549 2.505)" fill="#ff7454"/>
        <path id="Trazado_841988" data-name="Trazado 841988" d="M254.957,181.125l-.093-.457a.479.479,0,0,0,.19-.061c-.016-.019-.108-.2-.19-.358-.069-.135-.15-.293-.234-.481a1.786,1.786,0,0,1-.089-.246,1.661,1.661,0,0,1,.249-1.41,1.821,1.821,0,0,1,1.365-.768,2.223,2.223,0,0,1,1.172.227l-.208.418a1.784,1.784,0,0,0-.932-.18,1.358,1.358,0,0,0-1.017.571,1.185,1.185,0,0,0-.181,1.016,1.221,1.221,0,0,0,.065.18c.08.179.158.331.224.459.174.342.29.568.184.79a.66.66,0,0,1-.505.3" transform="translate(3.59 2.502)" fill="#ff7454"/>
        <path id="Trazado_841989" data-name="Trazado 841989" d="M254.589,182.674a1.388,1.388,0,0,1-.684-.177l.237-.4a.89.89,0,0,0,1.106-.186l.337.324a1.353,1.353,0,0,1-1,.442" transform="translate(3.582 2.566)" fill="#ff7454"/>
      </g>
    </g>
    <text id="Ectomorfo" transform="translate(195.178 235.217)" font-size="10" font-family="Roboto-Regular, Roboto"><tspan x="0" y="0" letter-spacing="-0.009em">E</tspan><tspan y="0">c</tspan><tspan y="0" letter-spacing="-0.009em">t</tspan><tspan y="0">omo</tspan><tspan y="0" letter-spacing="0.008em">r</tspan><tspan y="0">fo</tspan></text>
    <text id="Balanceado-2" data-name="Balanceado" transform="translate(195.178 247.387)" font-size="10" font-family="Roboto-Regular, Roboto"><tspan x="0" y="0">Balanceado</tspan></text>
    <g id="Grupo_1079037" data-name="Grupo 1079037">
      <g id="Grupo_1079036" data-name="Grupo 1079036" clip-path="url(#clip-path)">
        <rect id="Rectángulo_374689" data-name="Rectángulo 374689" width="70.193" height="31.904" transform="translate(36.289 221.52)" fill="#fff"/>
        <path id="Trazado_841990" data-name="Trazado 841990" d="M107.006,251.371H34.784V217.439h72.222Zm-70.193-2.028h68.165V219.467H36.812Z" transform="translate(0.491 3.067)" fill="#ba68c8"/>
        <path id="Trazado_841991" data-name="Trazado 841991" d="M37.8,210.123c-1.838-1.225-8.574,2.817-7.963,6.125s2.879,12.434,2.879,12.434a13.91,13.91,0,0,0-1.838,5.757c0,2.635,2.94,13.046,2.573,13.415a3.952,3.952,0,0,0-.8,2.878c.244,1.041,1.1,1.1,2.45,1.225s4.716.244,7.166.367,2.327-.98,2.267-1.469-1.776-.186-2.388-.49-4.532-3.185-4.532-3.185.245-2.635.8-7.6.735-10.474.735-10.474.367-.49.919-3.736a102.4,102.4,0,0,0,.49-11.515,8.1,8.1,0,0,0-2.757-3.736" transform="translate(0.42 2.961)" fill="#ff926d"/>
        <path id="Trazado_841992" data-name="Trazado 841992" d="M30.728,209.037c-2.021,1.011-.964,10.061-.964,10.061a46.5,46.5,0,0,0,6.109-.506,25.481,25.481,0,0,0,4.87-.964s-.137-3.355-.137-5.008-.414-5.007-.414-5.007-7.443.413-9.464,1.424" transform="translate(0.416 2.929)" fill="#ba68c8"/>
        <path id="Trazado_841993" data-name="Trazado 841993" d="M20.568,213.342c-.613,2.45.49,14.578.49,14.578a9.732,9.732,0,0,0-2.694,3.123c-1.348,2.267-2.757,13.169-2.757,13.169a3.82,3.82,0,0,0-1.653,2.144c-.493,1.531,1.683,2.657,2.388,3.307.8.735,3.368,2.573,3.368,2.573a9.639,9.639,0,0,0,2.267.367c1.592.123,1.959-.8,1.959-1.348s-2.2-.428-2.449-.612-2.021-4.778-2.021-4.778a41.749,41.749,0,0,1,2.082-4.165c1.409-2.511,5.819-10.26,5.819-10.26s.613-1.408,2.2-5.512,2.573-12.464,2.573-12.464c-.49-1.654-10.962-2.573-11.575-.123" transform="translate(0.196 2.988)" fill="#ff926d"/>
        <path id="Trazado_841994" data-name="Trazado 841994" d="M21.77,204.986a19.472,19.472,0,0,0-1.561,4.318,39.128,39.128,0,0,0-.505,7.258,22,22,0,0,0,5.19,1.608,32.6,32.6,0,0,0,6.569.6s.23-.505.459-1.195,1.057-6.294,1.057-6.294c-3.4.367-11.21-6.294-11.21-6.294" transform="translate(0.278 2.892)" fill="#ba68c8"/>
        <path id="Trazado_841995" data-name="Trazado 841995" d="M31.632,194.52c2.435,4.595,9.372,7.213,9.372,7.213a29.128,29.128,0,0,0,.183-4.548c-.092-2.572-.6-5.88-2.757-8.222a21.525,21.525,0,0,0-6.615-4.227s-2.617,5.189-.183,9.784" transform="translate(0.432 2.606)" fill="#ff926d"/>
        <path id="Trazado_841996" data-name="Trazado 841996" d="M26.62,182.291l-.138,2.987s-5.673,1.355-7.9,3.491c-2.3,2.2,1.424,11.3,1.378,12.541s.367,5.1,2.251,7.35A12.425,12.425,0,0,0,34.522,212.7c6.248-1.287,7.717-5.282,7.442-9.233s-3.216-8.269-3.216-8.269.505-1.195-.321-3.675-5.742-6.294-5.925-6.477a13.236,13.236,0,0,1-.276-2.527c-1.7,1.334-5.6-.229-5.6-.229" transform="translate(0.252 2.571)" fill="#ff926d"/>
        <g id="Grupo_1079005" data-name="Grupo 1079005" transform="translate(26.794 184.862)" style="mix-blend-mode: multiply;isolation: isolate">
          <g id="Grupo_1079004" data-name="Grupo 1079004">
            <g id="Grupo_1079003" data-name="Grupo 1079003" clip-path="url(#clip-path-31)">
              <path id="Trazado_841997" data-name="Trazado 841997" d="M32.18,183.825c-.053-.646-.078-1.305-.078-1.305-1.7,1.333-5.6-.229-5.6-.229l-.077,1.665.01.006a5.125,5.125,0,0,0,1.324.474,7.354,7.354,0,0,0,3.39-.266c.351-.1.694-.218,1.034-.345" transform="translate(-26.422 -182.291)" fill="#c1b1b3"/>
            </g>
          </g>
        </g>
        <path id="Trazado_841998" data-name="Trazado 841998" d="M26.034,173.649c-2.014.983-2.547,4.229-2.449,5.26s1.325,5.158,4.715,5.3,6.827-1.375,7.121-3.389-2.357-6.974-2.357-6.974c-.884-1.179-5.016-1.184-7.03-.2" transform="translate(0.333 2.44)" fill="#ff926d"/>
        <path id="Trazado_841999" data-name="Trazado 841999" d="M24.685,180.882a1.848,1.848,0,0,1-1.325.639c-.884.049-1.67-1.425-.884-1.964a1.69,1.69,0,0,1,1.669-.05Z" transform="translate(0.312 2.529)" fill="#ff926d"/>
        <path id="Trazado_842000" data-name="Trazado 842000" d="M19.7,202.075a11.263,11.263,0,0,0,2.5,6.538A12.425,12.425,0,0,0,34.5,212.656c6.247-1.287,7.716-5.282,7.442-9.233s-3.215-8.27-3.215-8.27.505-1.195-.322-3.675c-.615-1.847-2.722-4.277-3.826-5.553l-.783-.388s2.113,2.313-.367,4.105-5.578.191-6.876-.8a4.885,4.885,0,0,1-1.727-3.158c-.351.106-.742.233-1.155.375.389,1.111,1.672,5.341-.15,8.586-1.412,2.517-2.927,3.474-4.42,3.339.226,2.311.608,3.677.592,4.088" transform="translate(0.269 2.617)" fill="#fadee1"/>
        <path id="Trazado_842001" data-name="Trazado 842001" d="M13.013,203.2c.031-.644,1.43-10.325,4.827-13.928s6.149.3,5.4,3.3-4.927,11.255-4.927,11.255l-.132,10.114A7.91,7.91,0,0,1,19.2,215.69a3.218,3.218,0,0,1-.433,2.278c-.26.584-.442-.39-.461-.9a.647.647,0,0,0-.431-.62,5.61,5.61,0,0,0,.131,1.11c.144.791.46,1.874.571,2.374a.4.4,0,0,1-.446.542.573.573,0,0,1-.287-.183v.026a1.074,1.074,0,0,1-.022.2.409.409,0,0,1-.241.342c-.218.062-.491-.256-.6-.4l0,0c-.029-.038-.045-.06-.045-.06a.222.222,0,0,1-.047.133.3.3,0,0,1-.3.072.358.358,0,0,1-.209-.148l-.005-.006a1.293,1.293,0,0,1-.142-.27.322.322,0,0,1-.074-.026,1.634,1.634,0,0,1-.464-.342c-.353-.337-.537-.515-.75-1.814a10.071,10.071,0,0,1-.058-2.531,19.033,19.033,0,0,1-1.161-3.508,39.7,39.7,0,0,1-.716-8.774" transform="translate(0.183 2.649)" fill="#ff926d"/>
        <g id="Grupo_1079008" data-name="Grupo 1079008" transform="translate(33.459 197.827)" style="mix-blend-mode: multiply;isolation: isolate">
          <g id="Grupo_1079007" data-name="Grupo 1079007">
            <g id="Grupo_1079006" data-name="Grupo 1079006" clip-path="url(#clip-path-32)">
              <path id="Trazado_842002" data-name="Trazado 842002" d="M37.892,195.22c.093-.024.048-.164-.046-.143a22.271,22.271,0,0,1-2.46.45q-.6.075-1.21.12a3.454,3.454,0,0,0-1.141.126.062.062,0,0,0-.04.043.063.063,0,0,0,.044.078,3.1,3.1,0,0,0,1.24-.021q.605-.061,1.208-.148A20.706,20.706,0,0,0,37.892,195.22Z" transform="translate(-32.993 -195.076)" fill="#d7cdce"/>
            </g>
          </g>
        </g>
        <g id="Grupo_1079011" data-name="Grupo 1079011" transform="translate(31.443 198.531)" style="mix-blend-mode: multiply;isolation: isolate">
          <g id="Grupo_1079010" data-name="Grupo 1079010">
            <g id="Grupo_1079009" data-name="Grupo 1079009" clip-path="url(#clip-path-33)">
              <path id="Trazado_842003" data-name="Trazado 842003" d="M31.8,195.975h.006a.1.1,0,1,0-.014-.2l-.374.019c-.061,0-.123.007-.184.014l-.1.01a.351.351,0,0,0-.1.031.062.062,0,0,0-.038.041.06.06,0,0,0,.042.073.319.319,0,0,0,.105.024l.088,0c.061,0,.123,0,.185,0l.374-.01Z" transform="translate(-31.005 -195.77)" fill="#d7cdce"/>
            </g>
          </g>
        </g>
        <g id="Grupo_1079014" data-name="Grupo 1079014" transform="translate(24.556 198.842)" style="mix-blend-mode: multiply;isolation: isolate">
          <g id="Grupo_1079013" data-name="Grupo 1079013">
            <g id="Grupo_1079012" data-name="Grupo 1079012" clip-path="url(#clip-path-34)">
              <path id="Trazado_842004" data-name="Trazado 842004" d="M29.09,196.241a.078.078,0,0,0-.006-.156c-.825,0-1.64.1-2.462.143a8.967,8.967,0,0,1-1.246,0,4.73,4.73,0,0,1-.62-.092,1.032,1.032,0,0,0-.478-.049.1.1,0,0,0-.021.009.093.093,0,0,0-.028.126c.211.258.7.267,1.008.3a8.515,8.515,0,0,0,1.277.008c.864-.051,1.714-.207,2.576-.281Z" transform="translate(-24.214 -196.076)" fill="#d7cdce"/>
            </g>
          </g>
        </g>
        <path id="Trazado_842005" data-name="Trazado 842005" d="M23.193,177.3a5.778,5.778,0,0,0,1.057,3.354,7.032,7.032,0,0,0,1.148-3.928,7.961,7.961,0,0,0-.107-1.161c.279.006.561-.013.838.017a6.9,6.9,0,0,1,1.158.287c.44.131.831.4,1.257.534a3.39,3.39,0,0,0-1.979-1.948,8.431,8.431,0,0,1,1.773.071,15.566,15.566,0,0,1,2.9.717,15.236,15.236,0,0,1,3.731,2.213,8.051,8.051,0,0,0-1.147-3.048,6.534,6.534,0,0,0-2.331-2.242,4.953,4.953,0,0,0-2.723-.494,5.1,5.1,0,0,0-1.238.237,4.088,4.088,0,0,0-2.692,2.657.8.8,0,0,0-.753-.069c-.689.207-.981,1.538-.894,2.8" transform="translate(0.327 2.421)" fill="#bb5a38"/>
        <g id="Grupo_1079017" data-name="Grupo 1079017" transform="translate(16.954 219.93)" style="mix-blend-mode: multiply;isolation: isolate">
          <g id="Grupo_1079016" data-name="Grupo 1079016">
            <g id="Grupo_1079015" data-name="Grupo 1079015" clip-path="url(#clip-path-35)">
              <path id="Trazado_842006" data-name="Trazado 842006" d="M16.719,216.891a.03.03,0,0,1,.013-.016.031.031,0,0,1,.043.009,1.942,1.942,0,0,1,.118.42c.042.171.093.34.144.509.125.4.263.8.409,1.193.111.3.229.605.349.908a1.15,1.15,0,0,1-.022.2c-.145-.344-.28-.693-.411-1.042-.149-.4-.294-.806-.422-1.215-.056-.182-.109-.364-.158-.546a1.115,1.115,0,0,1-.062-.424" transform="translate(-16.718 -216.87)" fill="#c1b1b3"/>
            </g>
          </g>
        </g>
        <g id="Grupo_1079020" data-name="Grupo 1079020" transform="translate(16.098 220.012)" style="mix-blend-mode: multiply;isolation: isolate">
          <g id="Grupo_1079019" data-name="Grupo 1079019">
            <g id="Grupo_1079018" data-name="Grupo 1079018" clip-path="url(#clip-path-36)">
              <path id="Trazado_842007" data-name="Trazado 842007" d="M15.893,216.957a.041.041,0,0,1,.056.014,3.447,3.447,0,0,1,.248.793c.067.236.134.477.2.714.1.344.209.686.329,1.023.066.187.136.375.213.56L16.9,220a.219.219,0,0,1-.046.133c-.085-.187-.162-.377-.233-.566-.131-.349-.244-.7-.353-1.053-.071-.229-.138-.455-.2-.686a3.066,3.066,0,0,1-.19-.84.041.041,0,0,1,.02-.033" transform="translate(-15.874 -216.951)" fill="#c1b1b3"/>
            </g>
          </g>
        </g>
        <g id="Grupo_1079023" data-name="Grupo 1079023" transform="translate(15.545 220.075)" style="mix-blend-mode: multiply;isolation: isolate">
          <g id="Grupo_1079022" data-name="Grupo 1079022">
            <g id="Grupo_1079021" data-name="Grupo 1079021" clip-path="url(#clip-path-37)">
              <path id="Trazado_842008" data-name="Trazado 842008" d="M15.357,217.038a.036.036,0,0,1,.023-.023.034.034,0,0,1,.042.023,3.272,3.272,0,0,1,.078.454,4.878,4.878,0,0,0,.111.511c.07.271.15.54.245.8.151.417.315.835.491,1.243a1.219,1.219,0,0,1-.142-.269.357.357,0,0,1-.074-.026q-.207-.453-.376-.92c-.1-.271-.184-.549-.264-.825a1.91,1.91,0,0,1-.134-.971" transform="translate(-15.329 -217.014)" fill="#c1b1b3"/>
            </g>
          </g>
        </g>
        <g id="Grupo_1079026" data-name="Grupo 1079026" transform="translate(36.491 232.058)" style="mix-blend-mode: multiply;isolation: isolate">
          <g id="Grupo_1079025" data-name="Grupo 1079025">
            <g id="Grupo_1079024" data-name="Grupo 1079024" clip-path="url(#clip-path-38)">
              <path id="Trazado_842009" data-name="Trazado 842009" d="M38.224,229.088c.12-.067.014-.243-.107-.183a1.957,1.957,0,0,1-1.036.221,3.749,3.749,0,0,1-1-.293.075.075,0,0,0-.072.018.074.074,0,0,0,0,.1,1.8,1.8,0,0,0,1.075.424,2.125,2.125,0,0,0,1.144-.293Z" transform="translate(-35.984 -228.83)" fill="#c1b1b3"/>
            </g>
          </g>
        </g>
        <g id="Grupo_1079029" data-name="Grupo 1079029" transform="translate(24.278 231.935)" style="mix-blend-mode: multiply;isolation: isolate">
          <g id="Grupo_1079028" data-name="Grupo 1079028">
            <g id="Grupo_1079027" data-name="Grupo 1079027" clip-path="url(#clip-path-39)">
              <path id="Trazado_842010" data-name="Trazado 842010" d="M26.746,228.888c.087-.079-.027-.229-.126-.163a3.209,3.209,0,0,1-1.286.573,1.569,1.569,0,0,1-.662-.039,2.522,2.522,0,0,1-.63-.319.071.071,0,0,0-.067,0,.069.069,0,0,0-.025.093,1.364,1.364,0,0,0,1.366.542A2.658,2.658,0,0,0,26.746,228.888Z" transform="translate(-23.941 -228.708)" fill="#c1b1b3"/>
            </g>
          </g>
        </g>
        <g id="Grupo_1079032" data-name="Grupo 1079032" transform="translate(35.551 249.959)" style="mix-blend-mode: multiply;isolation: isolate">
          <g id="Grupo_1079031" data-name="Grupo 1079031">
            <g id="Grupo_1079030" data-name="Grupo 1079030" clip-path="url(#clip-path-40)">
              <path id="Trazado_842011" data-name="Trazado 842011" d="M35.762,247.6a.115.115,0,0,0,.061-.221.52.52,0,0,1-.117-.058l-.024-.017-.014-.011c.007.005.008.005,0,0a.4.4,0,0,1-.049-.045c-.017-.016-.033-.034-.05-.053,0,0-.022-.026-.012-.015s-.012-.017-.015-.02c-.026-.038-.051-.075-.073-.115a1.232,1.232,0,0,1-.066-.132c-.013-.027.006.017-.006-.013l-.021-.052-.016-.036c-.005-.013.006.014,0-.008-.019-.05-.034-.1-.055-.148s-.05-.087-.072-.132a.091.091,0,0,0-.168.046.733.733,0,0,0,0,.183c.01.051.024.1.039.149a1.267,1.267,0,0,0,.142.305.869.869,0,0,0,.52.393Z" transform="translate(-35.057 -246.482)" fill="#c1b1b3"/>
            </g>
          </g>
        </g>
        <g id="Grupo_1079035" data-name="Grupo 1079035" transform="translate(17.025 247.506)" style="mix-blend-mode: multiply;isolation: isolate">
          <g id="Grupo_1079034" data-name="Grupo 1079034">
            <g id="Grupo_1079033" data-name="Grupo 1079033" clip-path="url(#clip-path-41)">
              <path id="Trazado_842012" data-name="Trazado 842012" d="M17.04,245.589c.089.107.263-.033.191-.148a1.325,1.325,0,0,1-.165-.623c-.008-.117-.006-.233-.013-.35a1.6,1.6,0,0,0-.05-.361.061.061,0,0,0-.042-.042.064.064,0,0,0-.081.042,2.269,2.269,0,0,0-.072.395,3.05,3.05,0,0,0-.019.372,1.123,1.123,0,0,0,.251.714Z" transform="translate(-16.788 -244.063)" fill="#c1b1b3"/>
            </g>
          </g>
        </g>
        <path id="Trazado_842013" data-name="Trazado 842013" d="M32.125,176.906a.423.423,0,0,0-.116.57c.107.236.334.364.506.286a.423.423,0,0,0,.116-.57c-.109-.236-.335-.364-.506-.286" transform="translate(0.451 2.495)" fill="#28121e"/>
        <path id="Trazado_842014" data-name="Trazado 842014" d="M28.948,178.119a.42.42,0,0,0-.116.569c.107.237.333.365.505.286a.42.42,0,0,0,.116-.569c-.107-.236-.334-.365-.505-.286" transform="translate(0.406 2.512)" fill="#28121e"/>
        <path id="Trazado_842015" data-name="Trazado 842015" d="M27.463,177.92a2.688,2.688,0,0,1,2.319-1.053l-.055.482a2.243,2.243,0,0,0-1.874.86Z" transform="translate(0.387 2.495)" fill="#ff7454"/>
        <path id="Trazado_842016" data-name="Trazado 842016" d="M31.571,179.358c.1-.059.132-.1.153-.1a2.349,2.349,0,0,0-.3-.309c-.116-.107-.251-.233-.4-.387a1.886,1.886,0,0,1-.173-.208,1.733,1.733,0,0,1-.258-1.466,1.894,1.894,0,0,1,1.061-1.235,2.315,2.315,0,0,1,1.228-.2l-.055.482a1.826,1.826,0,0,0-.974.157,1.409,1.409,0,0,0-.792.919,1.232,1.232,0,0,0,.184,1.057,1.535,1.535,0,0,0,.128.152c.142.146.273.267.382.37.293.271.485.451.46.706a.687.687,0,0,1-.388.473Z" transform="translate(0.431 2.475)" fill="#ff7454"/>
        <path id="Trazado_842017" data-name="Trazado 842017" d="M31.287,181.48l.09-.478a.924.924,0,0,0,1.015-.574l.444.2a1.4,1.4,0,0,1-.816.786,1.444,1.444,0,0,1-.733.069" transform="translate(0.441 2.545)" fill="#ff7454"/>
      </g>
    </g>
    <text id="Endomorfo-2" data-name="Endomorfo" transform="translate(47.007 235.165)" font-size="10" font-family="Roboto-Regular, Roboto"><tspan x="0" y="0">Endomo</tspan><tspan y="0" letter-spacing="0.008em">r</tspan><tspan y="0">fo</tspan></text>
    <text id="Balanceado-3" data-name="Balanceado" transform="translate(47.007 247.335)" font-size="10" font-family="Roboto-Regular, Roboto"><tspan x="0" y="0">Balanceado</tspan></text>
    <g id="Grupo_1079039" data-name="Grupo 1079039">
      <g id="Grupo_1079038" data-name="Grupo 1079038" clip-path="url(#clip-path)">
        <rect id="Rectángulo_374702" data-name="Rectángulo 374702" width="77.569" height="11.082" transform="translate(41.64 59.218)" fill="#f7dca0"/>
        <rect id="Rectángulo_374703" data-name="Rectángulo 374703" width="77.569" height="11.082" transform="translate(0 138.298)" fill="#eefb29"/>
        <rect id="Rectángulo_374704" data-name="Rectángulo 374704" width="77.569" height="11.082" transform="translate(200.431 138.298)" fill="#decbc5"/>
        <rect id="Rectángulo_374705" data-name="Rectángulo 374705" width="77.569" height="11.082" transform="translate(161.647 59.218)" fill="#4b2354"/>
      </g>
    </g>
    <text id="Endo_-_Endomorfo" data-name="Endo - Endomorfo" transform="translate(43.964 67.783)" font-size="9" font-family="Roboto-Regular, Roboto"><tspan x="0" y="0">Endo - Endomo</tspan><tspan y="0" letter-spacing="0.007em">r</tspan><tspan y="0">fo</tspan></text>
    <text id="Endo_-_Ectomorfo" data-name="Endo - Ectomorfo" transform="translate(164.905 67.874)" fill="#fff" font-size="9" font-family="Roboto-Regular, Roboto"><tspan x="0" y="0">Endo - </tspan><tspan y="0" letter-spacing="-0.009em">E</tspan><tspan y="0">c</tspan><tspan y="0" letter-spacing="-0.009em">t</tspan><tspan y="0">omo</tspan><tspan y="0" letter-spacing="0.008em">r</tspan><tspan y="0">fo</tspan></text>
    <text id="Endo_-_Mesomorfo" data-name="Endo - Mesomorfo" transform="translate(1.249 146.849)" font-size="9" font-family="Roboto-Regular, Roboto"><tspan x="0" y="0">Endo - Mesomo</tspan><tspan y="0" letter-spacing="0.007em">r</tspan><tspan y="0">fo</tspan></text>
    <text id="Ecto_-_Mesomorfo" data-name="Ecto - Mesomorfo" transform="translate(202.9 146.94)" font-size="9" font-family="Roboto-Regular, Roboto"><tspan x="0" y="0" letter-spacing="-0.009em">E</tspan><tspan y="0">c</tspan><tspan y="0" letter-spacing="-0.009em">t</tspan><tspan y="0">o - Mesomo</tspan><tspan y="0" letter-spacing="0.007em">r</tspan><tspan y="0">fo</tspan></text>
    <g id="Grupo_1079041" data-name="Grupo 1079041">
      <g id="Grupo_1079040" data-name="Grupo 1079040" clip-path="url(#clip-path)">
        <path id="Trazado_842018" data-name="Trazado 842018" d="M158.008,144.046a20.05,20.05,0,1,1-20.051-20.051,20.051,20.051,0,0,1,20.051,20.051" transform="translate(1.663 1.749)" fill="#73c6f0"/>
      </g>
    </g>
    <text id="Centro" transform="translate(124.467 149.779)" font-size="10" font-family="Roboto-Regular, Roboto"><tspan x="0" y="0">Cent</tspan><tspan y="0" letter-spacing="-0.01em">r</tspan><tspan y="0">o</tspan></text>
  </g>
</svg>
