<svg xmlns="http://www.w3.org/2000/svg" width="460" height="443.774" viewBox="0 0 460 443.774">
  <g id="Grupo_1078860" data-name="Grupo 1078860" transform="translate(-831 -2897.901)">
    <text id="Talla_Pecho_Cintura_Cadera_Cuello_Estatura_7aC_Talle_espalda" data-name="TallaPechoCinturaCaderaCuelloEstatura 7aCTalle espalda" transform="translate(831 2897.901)" fill="#12263f" font-size="16" font-family="SegoeUI, Segoe UI"><tspan x="0" y="17">Talla</tspan><tspan x="0" y="41">Pecho</tspan><tspan x="0" y="65">Cintura</tspan><tspan x="0" y="89">Cadera</tspan><tspan x="0" y="113">Cuello</tspan><tspan x="0" y="137">Estatura 7aC</tspan><tspan x="0" y="161">Talle espalda</tspan></text>
    <text id="Años_Años_24cm_1_2_de_años_26_Años_28_2_3_de_pecho_4cm_Años_x_5_65cm_3_10_de_estatura_7aC" data-name="AñosAños + 24cm1/2 de años + 26Años + 282/3 de pecho + 4cmAños x 5 + 65cm
3/10 de estatura 7aC" transform="translate(1021 2897.901)" fill="#12263f" font-size="16" font-family="SegoeUI, Segoe UI"><tspan x="0" y="17">Años</tspan><tspan x="0" y="41">Años + 24cm</tspan><tspan x="0" y="65">1/2 de años + 26</tspan><tspan x="0" y="89">Años + 28</tspan><tspan x="0" y="113">2/3 de pecho + 4cm</tspan><tspan x="0" y="137">Años x 5 + 65cm</tspan><tspan x="0" y="161">3/10 de estatura 7aC</tspan></text>
    <text id="_" data-name="=======" transform="translate(985.509 2897.901)" fill="#12263f" font-size="16" font-family="SegoeUI, Segoe UI"><tspan x="-5.473" y="17">=</tspan><tspan x="-5.473" y="41">=</tspan><tspan x="-5.473" y="65">=</tspan><tspan x="-5.473" y="89">=</tspan><tspan x="-5.473" y="113">=</tspan><tspan x="-5.473" y="137">=</tspan><tspan x="-5.473" y="161">=</tspan></text>
    <text id="Estatura_total_Largo_de_brazo_Codo_Cintura_al_suelo_Largo_de_falda_larga_Largo_de_falda_corta" data-name="Estatura total

Largo de brazoCodo


Cintura al sueloLargo de falda largaLargo de falda corta" transform="translate(833 3080.676)" fill="#12263f" font-size="16" font-family="SegoeUI, Segoe UI"><tspan x="0" y="17">Estatura total</tspan><tspan x="0" y="41"></tspan><tspan x="0" y="65"></tspan><tspan x="0" y="89">Largo de brazo</tspan><tspan x="0" y="113">Codo</tspan><tspan x="0" y="137"></tspan><tspan x="0" y="161"></tspan><tspan x="0" y="185"></tspan><tspan x="0" y="209">Cintura al suelo</tspan><tspan x="0" y="233">Largo de falda larga</tspan><tspan x="0" y="257">Largo de falda corta</tspan></text>
    <text id="Estatura_7aC_15_a_18cm._Corresponden_a_él_canon_del_niño_o_medida_de_cabeza._4_10_de_estatura_7aC_1_2_de_brazo._Esta_medida_sin_tener_en_cuenta_lo_que_corresponde_a_la_muñeca_menos_5cms_para_todas_las_tallas_._7_10_de_estatura_7aC_2_3_de_la_medida_cintu" data-name="Estatura 7aC + 15 a 18cm. Corresponden a él canon del niño o medida de cabeza.4/10 de estatura 7aC1/2 de brazo. Esta medida sin tener en cuenta lo que corresponde a la muñeca (menos 5cms para todas las tallas).7/10 de estatura 7aC2/3 de la medida cintu" transform="translate(1021 3080.676)" fill="#12263f" font-size="16" font-family="SegoeUI, Segoe UI"><tspan x="0" y="17">Estatura 7aC + 15 a 18cm. </tspan><tspan x="0" y="41">Corresponden a él canon del niño o </tspan><tspan x="0" y="65">medida de cabeza.</tspan><tspan x="0" y="89">4/10 de estatura 7aC</tspan><tspan x="0" y="113">1/2 de brazo. Esta medida sin tener </tspan><tspan x="0" y="137">en cuenta lo que corresponde a la </tspan><tspan x="0" y="161">muñeca (menos 5cms para todas las </tspan><tspan x="0" y="185">tallas).</tspan><tspan x="0" y="209">7/10 de estatura 7aC</tspan><tspan x="0" y="233">2/3 de la medida cintura al suelo -3</tspan><tspan x="0" y="257">1/2 de la medida cintura al suelo -3</tspan></text>
    <text id="_2" data-name="=

==


===" transform="translate(987 3080.676)" fill="#12263f" font-size="16" font-family="SegoeUI, Segoe UI"><tspan x="-5.473" y="17">=</tspan><tspan x="0" y="41"></tspan><tspan x="0" y="65"></tspan><tspan x="-5.473" y="89">=</tspan><tspan x="-5.473" y="113">=</tspan><tspan x="0" y="137"></tspan><tspan x="0" y="161"></tspan><tspan x="0" y="185"></tspan><tspan x="-5.473" y="209">=</tspan><tspan x="-5.473" y="233">=</tspan><tspan x="-5.473" y="257">=</tspan></text>
  </g>
</svg>
