<svg xmlns="http://www.w3.org/2000/svg" width="259.509" height="135.355" viewBox="0 0 259.509 135.355">
  <g id="Grupo_1069675" data-name="Grupo 1069675" transform="translate(-813 -712.087)">
    <g id="Grupo_1069674" data-name="Grupo 1069674">
      <g id="Grupo_1054588" data-name="Grupo 1054588" transform="translate(489.313 -58.401)">
        <path id="Trazado_816194" data-name="Trazado 816194" d="M22.336,12.389a1.052,1.052,0,0,0-.41-.892,5.38,5.38,0,0,0-1.477-.656,10.467,10.467,0,0,1-1.688-.68,2.759,2.759,0,0,1-1.7-2.468,2.4,2.4,0,0,1,.455-1.439,2.965,2.965,0,0,1,1.306-.988,4.914,4.914,0,0,1,1.911-.355,4.473,4.473,0,0,1,1.9.386,3.026,3.026,0,0,1,1.3,1.09,2.853,2.853,0,0,1,.461,1.6H22.343a1.342,1.342,0,0,0-.431-1.063,1.77,1.77,0,0,0-1.21-.379,1.891,1.891,0,0,0-1.169.318,1,1,0,0,0-.417.837.96.96,0,0,0,.489.813,5.522,5.522,0,0,0,1.439.615,6.217,6.217,0,0,1,2.55,1.306,2.6,2.6,0,0,1,.8,1.941,2.4,2.4,0,0,1-.978,2.027,4.279,4.279,0,0,1-2.632.735,5.082,5.082,0,0,1-2.092-.42,3.31,3.31,0,0,1-1.439-1.152,2.95,2.95,0,0,1-.5-1.7h2.058q0,1.647,1.969,1.647a1.915,1.915,0,0,0,1.142-.3A.967.967,0,0,0,22.336,12.389ZM27.736,15H25.754V7.6h1.982Zm-2.1-9.311a.973.973,0,0,1,.3-.731,1.281,1.281,0,0,1,1.617,0,.967.967,0,0,1,.3.731.97.97,0,0,1-.3.738,1.267,1.267,0,0,1-1.606,0A.97.97,0,0,1,25.638,5.689Zm7.731,7.267a.637.637,0,0,0-.359-.571,4.077,4.077,0,0,0-1.152-.373q-2.639-.554-2.639-2.242a2.032,2.032,0,0,1,.817-1.644,3.3,3.3,0,0,1,2.136-.66,3.547,3.547,0,0,1,2.252.663,2.09,2.09,0,0,1,.844,1.723H33.294a.956.956,0,0,0-.273-.7,1.157,1.157,0,0,0-.854-.277,1.182,1.182,0,0,0-.772.226.712.712,0,0,0-.273.574.609.609,0,0,0,.311.53,3.2,3.2,0,0,0,1.049.349,8.571,8.571,0,0,1,1.244.332,2.044,2.044,0,0,1,1.565,1.989,1.929,1.929,0,0,1-.868,1.637,3.745,3.745,0,0,1-2.242.625,3.912,3.912,0,0,1-1.651-.332A2.77,2.77,0,0,1,29.4,13.9a2.113,2.113,0,0,1-.41-1.248H30.86a1.031,1.031,0,0,0,.39.807,1.546,1.546,0,0,0,.971.28,1.43,1.43,0,0,0,.858-.215A.67.67,0,0,0,33.369,12.956Zm5.558-7.171V7.6h1.265V9.053H38.927v3.691a.881.881,0,0,0,.157.588.79.79,0,0,0,.6.178,3.15,3.15,0,0,0,.581-.048v1.5a4.067,4.067,0,0,1-1.2.178,1.886,1.886,0,0,1-2.119-2.1V9.053h-1.08V7.6h1.08V5.785Zm5.77,9.352a3.631,3.631,0,0,1-2.649-1,3.548,3.548,0,0,1-1.022-2.659v-.191A4.468,4.468,0,0,1,41.456,9.3a3.161,3.161,0,0,1,1.22-1.354,3.425,3.425,0,0,1,1.8-.475,3.07,3.07,0,0,1,2.389.957,3.889,3.889,0,0,1,.872,2.714v.807h-4.71a1.835,1.835,0,0,0,.578,1.162,1.746,1.746,0,0,0,1.22.438,2.132,2.132,0,0,0,1.784-.827l.971,1.087a2.966,2.966,0,0,1-1.2.981A3.947,3.947,0,0,1,44.7,15.137Zm-.226-6.07a1.237,1.237,0,0,0-.954.4,2.048,2.048,0,0,0-.468,1.135H45.8V10.44a1.46,1.46,0,0,0-.355-1.015A1.277,1.277,0,0,0,44.471,9.066ZM50.712,7.6l.062.827A2.6,2.6,0,0,1,52.9,7.467a1.973,1.973,0,0,1,1.962,1.128,2.54,2.54,0,0,1,2.222-1.128,2.206,2.206,0,0,1,1.791.7,3.221,3.221,0,0,1,.588,2.109V15H57.479V10.283a1.408,1.408,0,0,0-.246-.919,1.091,1.091,0,0,0-.868-.291,1.233,1.233,0,0,0-1.23.848L55.141,15H53.166V10.29a1.391,1.391,0,0,0-.253-.93,1.1,1.1,0,0,0-.861-.287,1.28,1.28,0,0,0-1.217.7V15H48.859V7.6ZM65.265,15a2.194,2.194,0,0,1-.2-.663,2.39,2.39,0,0,1-1.866.8,2.626,2.626,0,0,1-1.8-.629,2.023,2.023,0,0,1-.714-1.586,2.09,2.09,0,0,1,.872-1.8,4.3,4.3,0,0,1,2.519-.636h.909v-.424a1.219,1.219,0,0,0-.263-.82,1.035,1.035,0,0,0-.831-.308,1.177,1.177,0,0,0-.783.239.813.813,0,0,0-.284.656H60.849a1.984,1.984,0,0,1,.4-1.189,2.621,2.621,0,0,1,1.121-.858,4.086,4.086,0,0,1,1.627-.311,3.228,3.228,0,0,1,2.17.687,2.4,2.4,0,0,1,.8,1.931v3.206a3.536,3.536,0,0,0,.294,1.593V15Zm-1.634-1.374a1.7,1.7,0,0,0,.807-.195,1.28,1.28,0,0,0,.547-.523V11.637h-.738q-1.483,0-1.579,1.025l-.007.116a.791.791,0,0,0,.26.608A1.009,1.009,0,0,0,63.632,13.626ZM74.056,15H72.074V7.6h1.982Zm-2.1-9.311a.973.973,0,0,1,.3-.731,1.281,1.281,0,0,1,1.617,0,.967.967,0,0,1,.3.731.97.97,0,0,1-.3.738,1.267,1.267,0,0,1-1.606,0A.97.97,0,0,1,71.958,5.689ZM77.5,7.6l.062.854a2.582,2.582,0,0,1,2.126-.991,2.146,2.146,0,0,1,1.75.69,3.221,3.221,0,0,1,.588,2.064V15H80.052V10.27a1.282,1.282,0,0,0-.273-.913,1.224,1.224,0,0,0-.909-.284,1.359,1.359,0,0,0-1.251.711V15H75.642V7.6Zm5.735,3.644a4.335,4.335,0,0,1,.81-2.741,2.625,2.625,0,0,1,2.184-1.039,2.3,2.3,0,0,1,1.894.834l.082-.7H90v7.15a3.161,3.161,0,0,1-.441,1.688,2.832,2.832,0,0,1-1.241,1.094,4.362,4.362,0,0,1-1.873.376,4.056,4.056,0,0,1-1.586-.325,2.815,2.815,0,0,1-1.169-.837l.875-1.2a2.314,2.314,0,0,0,1.791.827,1.694,1.694,0,0,0,1.224-.42,1.577,1.577,0,0,0,.438-1.193v-.4a2.285,2.285,0,0,1-1.8.772,2.618,2.618,0,0,1-2.157-1.042,4.334,4.334,0,0,1-.824-2.765Zm1.976.144a2.692,2.692,0,0,0,.4,1.576,1.284,1.284,0,0,0,1.107.571,1.372,1.372,0,0,0,1.292-.677V9.75a1.369,1.369,0,0,0-1.278-.677,1.292,1.292,0,0,0-1.118.581A3.034,3.034,0,0,0,85.213,11.391ZM93.6,15H91.618V4.5H93.6Zm5.031.137a3.631,3.631,0,0,1-2.649-1,3.548,3.548,0,0,1-1.022-2.659v-.191A4.468,4.468,0,0,1,95.391,9.3a3.161,3.161,0,0,1,1.22-1.354,3.425,3.425,0,0,1,1.8-.475,3.07,3.07,0,0,1,2.389.957,3.889,3.889,0,0,1,.872,2.714v.807h-4.71a1.835,1.835,0,0,0,.578,1.162,1.746,1.746,0,0,0,1.22.438,2.132,2.132,0,0,0,1.784-.827l.971,1.087a2.966,2.966,0,0,1-1.2.981A3.947,3.947,0,0,1,98.632,15.137Zm-.226-6.07a1.237,1.237,0,0,0-.954.4,2.048,2.048,0,0,0-.468,1.135h2.748V10.44a1.46,1.46,0,0,0-.355-1.015A1.277,1.277,0,0,0,98.406,9.066ZM98.584,4.5h2.153L98.844,6.619H97.237Zm8.217,8.456a.637.637,0,0,0-.359-.571,4.077,4.077,0,0,0-1.152-.373q-2.639-.554-2.639-2.242a2.032,2.032,0,0,1,.817-1.644,3.3,3.3,0,0,1,2.136-.66,3.547,3.547,0,0,1,2.252.663,2.09,2.09,0,0,1,.844,1.723h-1.976a.956.956,0,0,0-.273-.7,1.157,1.157,0,0,0-.854-.277,1.182,1.182,0,0,0-.772.226.712.712,0,0,0-.273.574.609.609,0,0,0,.311.53,3.2,3.2,0,0,0,1.049.349,8.571,8.571,0,0,1,1.244.332,2.044,2.044,0,0,1,1.565,1.989,1.929,1.929,0,0,1-.868,1.637,3.745,3.745,0,0,1-2.242.625,3.912,3.912,0,0,1-1.651-.332,2.77,2.77,0,0,1-1.131-.909,2.113,2.113,0,0,1-.41-1.248h1.873a1.031,1.031,0,0,0,.39.807,1.546,1.546,0,0,0,.971.28,1.43,1.43,0,0,0,.858-.215A.67.67,0,0,0,106.8,12.956Z" transform="translate(390.688 765.988)" fill="#12263f"/>
        <g id="Grupo_1054521" data-name="Grupo 1054521" transform="translate(1062.818 -155.853)">
          <rect id="Rectángulo_3674" data-name="Rectángulo 3674" width="259.509" height="95.335" rx="7.453" transform="translate(-739.13 966.361)" fill="#f8f3ff"/>
          <text id="_1" data-name="1" transform="translate(-680.365 1045.304)" fill="#ba68c8" font-size="27" font-family="Helvetica"><tspan x="0" y="0">1</tspan></text>
          <text id="cm" transform="translate(-723.829 1029.305)" fill="#ba68c8" font-size="24" font-family="Helvetica"><tspan x="0" y="0">cm</tspan></text>
          <text id="_2" data-name="2" transform="translate(-643.629 1045.304)" fill="#ba68c8" font-size="27" font-family="Helvetica"><tspan x="0" y="0">2</tspan></text>
          <text id="_3" data-name="3" transform="translate(-603.751 1045.304)" fill="#ba68c8" font-size="27" font-family="Helvetica"><tspan x="0" y="0">3</tspan></text>
          <text id="_4" data-name="4" transform="translate(-564.058 1045.304)" fill="#ba68c8" font-size="27" font-family="Helvetica"><tspan x="0" y="0">4</tspan></text>
          <text id="_5" data-name="5" transform="translate(-524.847 1045.304)" fill="#ba68c8" font-size="27" font-family="Helvetica"><tspan x="0" y="0">5</tspan></text>
          <g id="Grupo_15332" data-name="Grupo 15332" transform="translate(-699.104 982.32)">
            <rect id="Rectángulo_3675" data-name="Rectángulo 3675" width="1.424" height="18.882" transform="translate(0 0.785)" fill="#7b1fa2"/>
            <rect id="Rectángulo_3676" data-name="Rectángulo 3676" width="1.424" height="18.882" transform="translate(3.935 0.785)" fill="#7b1fa2"/>
            <rect id="Rectángulo_3677" data-name="Rectángulo 3677" width="1.424" height="18.882" transform="translate(7.868 0.785)" fill="#7b1fa2"/>
            <rect id="Rectángulo_3678" data-name="Rectángulo 3678" width="1.424" height="18.882" transform="translate(11.803 0.785)" fill="#7b1fa2"/>
            <rect id="Rectángulo_3679" data-name="Rectángulo 3679" width="1.424" height="26.466" transform="translate(15.738 0.785)" fill="#7b1fa2"/>
            <rect id="Rectángulo_3680" data-name="Rectángulo 3680" width="1.424" height="18.882" transform="translate(19.672 0.785)" fill="#7b1fa2"/>
            <rect id="Rectángulo_3681" data-name="Rectángulo 3681" width="1.424" height="18.882" transform="translate(23.606 0.785)" fill="#7b1fa2"/>
            <rect id="Rectángulo_3682" data-name="Rectángulo 3682" width="1.424" height="18.882" transform="translate(27.541 0.785)" fill="#7b1fa2"/>
            <rect id="Rectángulo_3683" data-name="Rectángulo 3683" width="1.424" height="18.882" transform="translate(31.475 0.785)" fill="#7b1fa2"/>
            <rect id="Rectángulo_3684" data-name="Rectángulo 3684" width="1.424" height="61.848" transform="translate(35.409 0.785)" fill="#7b1fa2"/>
            <rect id="Rectángulo_3685" data-name="Rectángulo 3685" width="1.424" height="18.882" transform="translate(39.343 0.785)" fill="#7b1fa2"/>
            <rect id="Rectángulo_3686" data-name="Rectángulo 3686" width="1.424" height="18.882" transform="translate(43.278 0.785)" fill="#7b1fa2"/>
            <rect id="Rectángulo_3687" data-name="Rectángulo 3687" width="1.424" height="18.882" transform="translate(47.212 0.785)" fill="#7b1fa2"/>
            <rect id="Rectángulo_3688" data-name="Rectángulo 3688" width="1.424" height="18.882" transform="translate(51.146 0.785)" fill="#7b1fa2"/>
            <rect id="Rectángulo_3689" data-name="Rectángulo 3689" width="1.424" height="26.466" transform="translate(55.081 0.785)" fill="#7b1fa2"/>
            <rect id="Rectángulo_3690" data-name="Rectángulo 3690" width="1.424" height="18.882" transform="translate(59.016 0.785)" fill="#7b1fa2"/>
            <rect id="Rectángulo_3691" data-name="Rectángulo 3691" width="1.424" height="18.882" transform="translate(62.95 0.785)" fill="#7b1fa2"/>
            <rect id="Rectángulo_3692" data-name="Rectángulo 3692" width="1.424" height="18.882" transform="translate(66.884 0.785)" fill="#7b1fa2"/>
            <rect id="Rectángulo_3693" data-name="Rectángulo 3693" width="1.424" height="18.882" transform="translate(70.819 0.785)" fill="#7b1fa2"/>
            <rect id="Rectángulo_3694" data-name="Rectángulo 3694" width="1.424" height="61.848" transform="translate(74.753 0.785)" fill="#7b1fa2"/>
            <rect id="Rectángulo_3695" data-name="Rectángulo 3695" width="1.424" height="18.882" transform="translate(78.687 0.785)" fill="#7b1fa2"/>
            <rect id="Rectángulo_3696" data-name="Rectángulo 3696" width="1.424" height="18.882" transform="translate(82.622 0.785)" fill="#7b1fa2"/>
            <rect id="Rectángulo_3697" data-name="Rectángulo 3697" width="1.424" height="18.882" transform="translate(86.556 0.785)" fill="#7b1fa2"/>
            <rect id="Rectángulo_3698" data-name="Rectángulo 3698" width="1.424" height="18.882" transform="translate(90.49 0.785)" fill="#7b1fa2"/>
            <rect id="Rectángulo_3699" data-name="Rectángulo 3699" width="1.424" height="26.466" transform="translate(94.424 0.785)" fill="#7b1fa2"/>
            <rect id="Rectángulo_3700" data-name="Rectángulo 3700" width="1.424" height="18.882" transform="translate(98.359 0.785)" fill="#7b1fa2"/>
            <rect id="Rectángulo_3701" data-name="Rectángulo 3701" width="1.424" height="18.882" transform="translate(102.293 0.785)" fill="#7b1fa2"/>
            <rect id="Rectángulo_3702" data-name="Rectángulo 3702" width="1.424" height="18.882" transform="translate(106.227 0.785)" fill="#7b1fa2"/>
            <rect id="Rectángulo_3703" data-name="Rectángulo 3703" width="1.424" height="18.882" transform="translate(110.162 0.785)" fill="#7b1fa2"/>
            <rect id="Rectángulo_3704" data-name="Rectángulo 3704" width="1.424" height="61.848" transform="translate(114.097 0.785)" fill="#7b1fa2"/>
            <rect id="Rectángulo_3705" data-name="Rectángulo 3705" width="1.424" height="18.882" transform="translate(118.031 0.785)" fill="#7b1fa2"/>
            <rect id="Rectángulo_3706" data-name="Rectángulo 3706" width="1.424" height="18.882" transform="translate(121.965 0.785)" fill="#7b1fa2"/>
            <rect id="Rectángulo_3707" data-name="Rectángulo 3707" width="1.424" height="18.882" transform="translate(125.9 0.785)" fill="#7b1fa2"/>
            <rect id="Rectángulo_3708" data-name="Rectángulo 3708" width="1.424" height="18.882" transform="translate(129.834 0.785)" fill="#7b1fa2"/>
            <rect id="Rectángulo_3709" data-name="Rectángulo 3709" width="1.424" height="26.466" transform="translate(133.768 0.785)" fill="#7b1fa2"/>
            <rect id="Rectángulo_3710" data-name="Rectángulo 3710" width="1.424" height="18.882" transform="translate(137.703 0.785)" fill="#7b1fa2"/>
            <rect id="Rectángulo_3711" data-name="Rectángulo 3711" width="1.424" height="18.882" transform="translate(141.637 0.785)" fill="#7b1fa2"/>
            <rect id="Rectángulo_3712" data-name="Rectángulo 3712" width="1.424" height="18.882" transform="translate(145.571 0.785)" fill="#7b1fa2"/>
            <rect id="Rectángulo_3713" data-name="Rectángulo 3713" width="1.424" height="18.882" transform="translate(149.505 0.785)" fill="#7b1fa2"/>
            <rect id="Rectángulo_3714" data-name="Rectángulo 3714" width="1.424" height="61.848" transform="translate(153.44 0.785)" fill="#7b1fa2"/>
            <rect id="Rectángulo_3715" data-name="Rectángulo 3715" width="1.424" height="18.882" transform="translate(157.375 0.785)" fill="#7b1fa2"/>
            <rect id="Rectángulo_3716" data-name="Rectángulo 3716" width="1.424" height="18.882" transform="translate(161.308 0.785)" fill="#7b1fa2"/>
            <rect id="Rectángulo_3717" data-name="Rectángulo 3717" width="1.424" height="18.882" transform="translate(165.243 0.785)" fill="#7b1fa2"/>
            <rect id="Rectángulo_3718" data-name="Rectángulo 3718" width="1.424" height="18.882" transform="translate(169.178 0.785)" fill="#7b1fa2"/>
            <rect id="Rectángulo_3719" data-name="Rectángulo 3719" width="1.424" height="26.466" transform="translate(173.112 0.785)" fill="#7b1fa2"/>
            <rect id="Rectángulo_3720" data-name="Rectángulo 3720" width="1.424" height="18.882" transform="translate(177.046 0.785)" fill="#7b1fa2"/>
            <rect id="Rectángulo_3721" data-name="Rectángulo 3721" width="1.424" height="18.882" transform="translate(180.981 0.785)" fill="#7b1fa2"/>
            <rect id="Rectángulo_3722" data-name="Rectángulo 3722" width="1.424" height="18.882" transform="translate(184.915 0.785)" fill="#7b1fa2"/>
            <rect id="Rectángulo_3723" data-name="Rectángulo 3723" width="1.424" height="18.882" transform="translate(188.849 0.785)" fill="#7b1fa2"/>
            <rect id="Rectángulo_3724" data-name="Rectángulo 3724" width="1.424" height="61.848" transform="translate(192.784 0.785)" fill="#7b1fa2"/>
            <rect id="Rectángulo_3725" data-name="Rectángulo 3725" width="194.208" height="1.57" fill="#7b1fa2"/>
          </g>
        </g>
      </g>
    </g>
  </g>
</svg>
