<svg xmlns="http://www.w3.org/2000/svg" width="252.513" height="135.355" viewBox="0 0 252.513 135.355">
  <g id="Grupo_1069677" data-name="Grupo 1069677" transform="translate(-1134.899 -712.087)">
    <g id="Grupo_1069676" data-name="Grupo 1069676">
      <g id="Grupo_1054589" data-name="Grupo 1054589" transform="translate(296.021 -58.401)">
        <path id="Trazado_816195" data-name="Trazado 816195" d="M50.77,12.389a1.052,1.052,0,0,0-.41-.892,5.38,5.38,0,0,0-1.477-.656,10.467,10.467,0,0,1-1.688-.68,2.759,2.759,0,0,1-1.7-2.468,2.4,2.4,0,0,1,.455-1.439,2.965,2.965,0,0,1,1.306-.988A4.914,4.914,0,0,1,49.17,4.91a4.473,4.473,0,0,1,1.9.386,3.026,3.026,0,0,1,1.3,1.09,2.853,2.853,0,0,1,.461,1.6H50.776a1.342,1.342,0,0,0-.431-1.063,1.77,1.77,0,0,0-1.21-.379,1.891,1.891,0,0,0-1.169.318,1,1,0,0,0-.417.837.96.96,0,0,0,.489.813,5.522,5.522,0,0,0,1.439.615,6.217,6.217,0,0,1,2.55,1.306,2.6,2.6,0,0,1,.8,1.941A2.4,2.4,0,0,1,51.85,14.4a4.279,4.279,0,0,1-2.632.735,5.082,5.082,0,0,1-2.092-.42,3.31,3.31,0,0,1-1.439-1.152,2.95,2.95,0,0,1-.5-1.7h2.058q0,1.647,1.969,1.647a1.915,1.915,0,0,0,1.142-.3A.967.967,0,0,0,50.77,12.389ZM56.17,15H54.188V7.6H56.17Zm-2.1-9.311a.973.973,0,0,1,.3-.731,1.281,1.281,0,0,1,1.617,0,.967.967,0,0,1,.3.731.97.97,0,0,1-.3.738,1.267,1.267,0,0,1-1.606,0A.97.97,0,0,1,54.071,5.689ZM61.8,12.956a.637.637,0,0,0-.359-.571,4.077,4.077,0,0,0-1.152-.373q-2.639-.554-2.639-2.242a2.032,2.032,0,0,1,.817-1.644,3.3,3.3,0,0,1,2.136-.66,3.547,3.547,0,0,1,2.252.663A2.09,2.09,0,0,1,63.7,9.853H61.728a.956.956,0,0,0-.273-.7,1.157,1.157,0,0,0-.854-.277,1.182,1.182,0,0,0-.772.226.712.712,0,0,0-.273.574.609.609,0,0,0,.311.53,3.2,3.2,0,0,0,1.049.349,8.571,8.571,0,0,1,1.244.332,2.044,2.044,0,0,1,1.565,1.989,1.929,1.929,0,0,1-.868,1.637,3.745,3.745,0,0,1-2.242.625,3.912,3.912,0,0,1-1.651-.332,2.77,2.77,0,0,1-1.131-.909,2.113,2.113,0,0,1-.41-1.248h1.873a1.031,1.031,0,0,0,.39.807,1.546,1.546,0,0,0,.971.28,1.43,1.43,0,0,0,.858-.215A.67.67,0,0,0,61.8,12.956ZM67.36,5.785V7.6h1.265V9.053H67.36v3.691a.881.881,0,0,0,.157.588.79.79,0,0,0,.6.178,3.15,3.15,0,0,0,.581-.048v1.5a4.067,4.067,0,0,1-1.2.178,1.886,1.886,0,0,1-2.119-2.1V9.053H64.3V7.6h1.08V5.785Zm5.77,9.352a3.631,3.631,0,0,1-2.649-1,3.548,3.548,0,0,1-1.022-2.659v-.191A4.468,4.468,0,0,1,69.89,9.3a3.161,3.161,0,0,1,1.22-1.354,3.425,3.425,0,0,1,1.8-.475,3.07,3.07,0,0,1,2.389.957,3.889,3.889,0,0,1,.872,2.714v.807h-4.71a1.835,1.835,0,0,0,.578,1.162,1.746,1.746,0,0,0,1.22.438,2.132,2.132,0,0,0,1.784-.827l.971,1.087a2.966,2.966,0,0,1-1.2.981A3.947,3.947,0,0,1,73.13,15.137ZM72.9,9.066a1.237,1.237,0,0,0-.954.4,2.048,2.048,0,0,0-.468,1.135H74.23V10.44a1.46,1.46,0,0,0-.355-1.015A1.277,1.277,0,0,0,72.9,9.066ZM79.146,7.6l.062.827a2.6,2.6,0,0,1,2.126-.964,1.973,1.973,0,0,1,1.962,1.128,2.54,2.54,0,0,1,2.222-1.128,2.206,2.206,0,0,1,1.791.7,3.221,3.221,0,0,1,.588,2.109V15H85.913V10.283a1.408,1.408,0,0,0-.246-.919,1.091,1.091,0,0,0-.868-.291,1.233,1.233,0,0,0-1.23.848L83.575,15H81.6V10.29a1.391,1.391,0,0,0-.253-.93,1.1,1.1,0,0,0-.861-.287,1.28,1.28,0,0,0-1.217.7V15H77.293V7.6ZM93.7,15a2.194,2.194,0,0,1-.2-.663,2.39,2.39,0,0,1-1.866.8,2.626,2.626,0,0,1-1.8-.629,2.023,2.023,0,0,1-.714-1.586,2.09,2.09,0,0,1,.872-1.8,4.3,4.3,0,0,1,2.519-.636h.909v-.424a1.219,1.219,0,0,0-.263-.82,1.035,1.035,0,0,0-.831-.308,1.177,1.177,0,0,0-.783.239.813.813,0,0,0-.284.656H89.283a1.985,1.985,0,0,1,.4-1.189A2.621,2.621,0,0,1,90.8,7.778a4.086,4.086,0,0,1,1.627-.311,3.228,3.228,0,0,1,2.17.687,2.4,2.4,0,0,1,.8,1.931v3.206a3.536,3.536,0,0,0,.294,1.593V15Zm-1.634-1.374a1.7,1.7,0,0,0,.807-.195,1.28,1.28,0,0,0,.547-.523V11.637h-.738q-1.483,0-1.579,1.025l-.007.116a.791.791,0,0,0,.26.608A1.009,1.009,0,0,0,92.065,13.626ZM102.49,15h-1.982V7.6h1.982Zm-2.1-9.311a.973.973,0,0,1,.3-.731,1.281,1.281,0,0,1,1.617,0,.967.967,0,0,1,.3.731.97.97,0,0,1-.3.738,1.267,1.267,0,0,1-1.606,0A.97.97,0,0,1,100.392,5.689ZM105.936,7.6l.062.854a2.582,2.582,0,0,1,2.126-.991,2.146,2.146,0,0,1,1.75.69,3.221,3.221,0,0,1,.588,2.064V15h-1.976V10.27a1.282,1.282,0,0,0-.273-.913,1.224,1.224,0,0,0-.909-.284,1.359,1.359,0,0,0-1.251.711V15h-1.976V7.6Zm8.388-1.818V7.6h1.265V9.053h-1.265v3.691a.881.881,0,0,0,.157.588.79.79,0,0,0,.6.178,3.15,3.15,0,0,0,.581-.048v1.5a4.067,4.067,0,0,1-1.2.178,1.886,1.886,0,0,1-2.119-2.1V9.053h-1.08V7.6h1.08V5.785Zm5.77,9.352a3.631,3.631,0,0,1-2.649-1,3.548,3.548,0,0,1-1.022-2.659v-.191a4.468,4.468,0,0,1,.431-1.993,3.161,3.161,0,0,1,1.22-1.354,3.425,3.425,0,0,1,1.8-.475,3.07,3.07,0,0,1,2.389.957,3.889,3.889,0,0,1,.872,2.714v.807h-4.71A1.835,1.835,0,0,0,119,13.106a1.746,1.746,0,0,0,1.22.438,2.132,2.132,0,0,0,1.784-.827l.971,1.087a2.966,2.966,0,0,1-1.2.981A3.947,3.947,0,0,1,120.093,15.137Zm-.226-6.07a1.237,1.237,0,0,0-.954.4,2.048,2.048,0,0,0-.468,1.135h2.748V10.44a1.46,1.46,0,0,0-.355-1.015A1.277,1.277,0,0,0,119.867,9.066Zm8.545.39A5.367,5.367,0,0,0,127.7,9.4a1.447,1.447,0,0,0-1.47.759V15h-1.976V7.6h1.866l.055.882a1.831,1.831,0,0,1,1.647-1.019,2.07,2.07,0,0,1,.615.089ZM131.181,7.6l.062.854a2.582,2.582,0,0,1,2.126-.991,2.146,2.146,0,0,1,1.75.69,3.221,3.221,0,0,1,.588,2.064V15H133.73V10.27a1.282,1.282,0,0,0-.273-.913,1.224,1.224,0,0,0-.909-.284,1.359,1.359,0,0,0-1.251.711V15h-1.976V7.6ZM141.489,15a2.194,2.194,0,0,1-.2-.663,2.39,2.39,0,0,1-1.866.8,2.626,2.626,0,0,1-1.8-.629,2.023,2.023,0,0,1-.714-1.586,2.09,2.09,0,0,1,.872-1.8,4.3,4.3,0,0,1,2.519-.636h.909v-.424a1.219,1.219,0,0,0-.263-.82,1.035,1.035,0,0,0-.831-.308,1.177,1.177,0,0,0-.783.239.813.813,0,0,0-.284.656h-1.976a1.984,1.984,0,0,1,.4-1.189,2.621,2.621,0,0,1,1.121-.858,4.086,4.086,0,0,1,1.627-.311,3.228,3.228,0,0,1,2.17.687,2.4,2.4,0,0,1,.8,1.931v3.206a3.536,3.536,0,0,0,.294,1.593V15Zm-1.634-1.374a1.7,1.7,0,0,0,.807-.195,1.28,1.28,0,0,0,.547-.523V11.637h-.738q-1.483,0-1.579,1.025l-.007.116a.791.791,0,0,0,.26.608A1.009,1.009,0,0,0,139.855,13.626Zm7.93-.082a1.3,1.3,0,0,0,.889-.3,1.054,1.054,0,0,0,.355-.8h1.853a2.534,2.534,0,0,1-.41,1.377,2.706,2.706,0,0,1-1.1.971,3.455,3.455,0,0,1-1.548.345,3.211,3.211,0,0,1-2.5-1.008,3.99,3.99,0,0,1-.916-2.786v-.13a3.944,3.944,0,0,1,.909-2.728,3.174,3.174,0,0,1,2.5-1.019,3.111,3.111,0,0,1,2.225.79,2.8,2.8,0,0,1,.851,2.1h-1.853a1.346,1.346,0,0,0-.355-.933,1.324,1.324,0,0,0-1.945.144,2.908,2.908,0,0,0-.352,1.63V11.4a2.945,2.945,0,0,0,.349,1.641A1.205,1.205,0,0,0,147.785,13.544ZM154.095,15h-1.982V7.6h1.982ZM152,5.689a.973.973,0,0,1,.3-.731,1.281,1.281,0,0,1,1.617,0,.967.967,0,0,1,.3.731.97.97,0,0,1-.3.738,1.267,1.267,0,0,1-1.606,0A.97.97,0,0,1,152,5.689Zm3.418,5.544a4.387,4.387,0,0,1,.424-1.962,3.1,3.1,0,0,1,1.22-1.333,3.56,3.56,0,0,1,1.849-.472,3.368,3.368,0,0,1,2.444.916,3.676,3.676,0,0,1,1.056,2.488l.014.506a3.866,3.866,0,0,1-.95,2.731,3.683,3.683,0,0,1-5.1,0,3.934,3.934,0,0,1-.954-2.789Zm1.976.144a2.757,2.757,0,0,0,.4,1.61,1.426,1.426,0,0,0,2.256.007,3.017,3.017,0,0,0,.4-1.76,2.73,2.73,0,0,0-.4-1.6,1.312,1.312,0,0,0-1.135-.567,1.29,1.29,0,0,0-1.121.564A3.068,3.068,0,0,0,157.39,11.377ZM165.456,7.6l.062.854a2.582,2.582,0,0,1,2.126-.991,2.146,2.146,0,0,1,1.75.69,3.221,3.221,0,0,1,.588,2.064V15h-1.976V10.27a1.282,1.282,0,0,0-.273-.913,1.224,1.224,0,0,0-.909-.284,1.359,1.359,0,0,0-1.251.711V15H163.6V7.6ZM175.765,15a2.194,2.194,0,0,1-.2-.663,2.39,2.39,0,0,1-1.866.8,2.626,2.626,0,0,1-1.8-.629,2.023,2.023,0,0,1-.714-1.586,2.09,2.09,0,0,1,.872-1.8,4.3,4.3,0,0,1,2.519-.636h.909v-.424a1.219,1.219,0,0,0-.263-.82,1.035,1.035,0,0,0-.831-.308,1.177,1.177,0,0,0-.783.239.813.813,0,0,0-.284.656h-1.976a1.984,1.984,0,0,1,.4-1.189,2.621,2.621,0,0,1,1.121-.858,4.086,4.086,0,0,1,1.627-.311,3.228,3.228,0,0,1,2.17.687,2.4,2.4,0,0,1,.8,1.931v3.206a3.536,3.536,0,0,0,.294,1.593V15Zm-1.634-1.374a1.7,1.7,0,0,0,.807-.195,1.28,1.28,0,0,0,.547-.523V11.637h-.738q-1.483,0-1.579,1.025l-.007.116a.791.791,0,0,0,.26.608A1.009,1.009,0,0,0,174.131,13.626ZM181.069,15h-1.982V4.5h1.982Zm4.806-3.767a4.387,4.387,0,0,1,.424-1.962,3.1,3.1,0,0,1,1.22-1.333,3.56,3.56,0,0,1,1.849-.472,3.368,3.368,0,0,1,2.444.916,3.676,3.676,0,0,1,1.056,2.488l.014.506a3.866,3.866,0,0,1-.95,2.731,3.683,3.683,0,0,1-5.1,0,3.934,3.934,0,0,1-.954-2.789Zm1.976.144a2.757,2.757,0,0,0,.4,1.61,1.426,1.426,0,0,0,2.256.007,3.017,3.017,0,0,0,.4-1.76,2.73,2.73,0,0,0-.4-1.6,1.312,1.312,0,0,0-1.135-.567,1.29,1.29,0,0,0-1.121.564A3.068,3.068,0,0,0,187.851,11.377ZM199.438,7.6l.062.827a2.6,2.6,0,0,1,2.126-.964,1.973,1.973,0,0,1,1.962,1.128,2.54,2.54,0,0,1,2.222-1.128,2.206,2.206,0,0,1,1.791.7,3.221,3.221,0,0,1,.588,2.109V15h-1.982V10.283a1.408,1.408,0,0,0-.246-.919,1.091,1.091,0,0,0-.868-.291,1.233,1.233,0,0,0-1.23.848L203.867,15h-1.976V10.29a1.391,1.391,0,0,0-.253-.93,1.1,1.1,0,0,0-.861-.287,1.28,1.28,0,0,0-1.217.7V15h-1.976V7.6Zm13.672,7.533a3.631,3.631,0,0,1-2.649-1,3.548,3.548,0,0,1-1.022-2.659v-.191a4.468,4.468,0,0,1,.431-1.993,3.161,3.161,0,0,1,1.22-1.354,3.425,3.425,0,0,1,1.8-.475,3.07,3.07,0,0,1,2.389.957,3.889,3.889,0,0,1,.872,2.714v.807h-4.71a1.835,1.835,0,0,0,.578,1.162,1.746,1.746,0,0,0,1.22.438,2.132,2.132,0,0,0,1.784-.827l.971,1.087a2.966,2.966,0,0,1-1.2.981A3.947,3.947,0,0,1,213.109,15.137Zm-.226-6.07a1.237,1.237,0,0,0-.954.4,2.048,2.048,0,0,0-.468,1.135h2.748V10.44a1.46,1.46,0,0,0-.355-1.015A1.277,1.277,0,0,0,212.884,9.066Zm.178-4.566h2.153l-1.894,2.119h-1.606Zm6.576,1.285V7.6H220.9V9.053h-1.265v3.691a.881.881,0,0,0,.157.588.79.79,0,0,0,.6.178,3.151,3.151,0,0,0,.581-.048v1.5a4.067,4.067,0,0,1-1.2.178,1.886,1.886,0,0,1-2.119-2.1V9.053h-1.08V7.6h1.08V5.785Zm6.521,3.671a5.367,5.367,0,0,0-.711-.055,1.447,1.447,0,0,0-1.47.759V15H222V7.6h1.866l.055.882a1.831,1.831,0,0,1,1.647-1.019,2.07,2.07,0,0,1,.615.089ZM229.194,15h-1.982V7.6h1.982Zm-2.1-9.311a.973.973,0,0,1,.3-.731,1.281,1.281,0,0,1,1.617,0,.967.967,0,0,1,.3.731.97.97,0,0,1-.3.738,1.267,1.267,0,0,1-1.606,0A.97.97,0,0,1,227.1,5.689Zm6.8,7.854a1.3,1.3,0,0,0,.889-.3,1.054,1.054,0,0,0,.355-.8h1.853a2.534,2.534,0,0,1-.41,1.377,2.706,2.706,0,0,1-1.1.971,3.455,3.455,0,0,1-1.548.345,3.211,3.211,0,0,1-2.5-1.008,3.99,3.99,0,0,1-.916-2.786v-.13a3.944,3.944,0,0,1,.909-2.728,3.174,3.174,0,0,1,2.5-1.019,3.111,3.111,0,0,1,2.225.79,2.8,2.8,0,0,1,.851,2.1h-1.853a1.346,1.346,0,0,0-.355-.933,1.324,1.324,0,0,0-1.945.144,2.908,2.908,0,0,0-.352,1.63V11.4a2.945,2.945,0,0,0,.349,1.641A1.205,1.205,0,0,0,233.9,13.544Zm3.917-2.311a4.387,4.387,0,0,1,.424-1.962,3.1,3.1,0,0,1,1.22-1.333,3.56,3.56,0,0,1,1.849-.472,3.368,3.368,0,0,1,2.444.916,3.676,3.676,0,0,1,1.056,2.488l.014.506a3.866,3.866,0,0,1-.95,2.731,3.683,3.683,0,0,1-5.1,0,3.934,3.934,0,0,1-.954-2.789Zm1.976.144a2.757,2.757,0,0,0,.4,1.61,1.426,1.426,0,0,0,2.256.007,3.017,3.017,0,0,0,.4-1.76,2.73,2.73,0,0,0-.4-1.6,1.312,1.312,0,0,0-1.135-.567,1.29,1.29,0,0,0-1.121.564A3.068,3.068,0,0,0,239.79,11.377Zm9.427-.13a4.457,4.457,0,0,1,.776-2.755,2.517,2.517,0,0,1,2.123-1.025,2.265,2.265,0,0,1,1.784.807V4.5h1.982V15H254.1l-.1-.786a2.325,2.325,0,0,1-1.9.923,2.511,2.511,0,0,1-2.1-1.029A4.6,4.6,0,0,1,249.217,11.247Zm1.976.144a2.912,2.912,0,0,0,.362,1.593,1.181,1.181,0,0,0,1.053.554,1.322,1.322,0,0,0,1.292-.772V9.846a1.3,1.3,0,0,0-1.278-.772Q251.192,9.073,251.192,11.391Zm9.625,3.746a3.631,3.631,0,0,1-2.649-1,3.548,3.548,0,0,1-1.022-2.659v-.191a4.468,4.468,0,0,1,.431-1.993,3.161,3.161,0,0,1,1.22-1.354,3.425,3.425,0,0,1,1.8-.475,3.07,3.07,0,0,1,2.389.957,3.889,3.889,0,0,1,.872,2.714v.807h-4.71a1.835,1.835,0,0,0,.578,1.162,1.746,1.746,0,0,0,1.22.438,2.132,2.132,0,0,0,1.784-.827L263.7,13.8a2.966,2.966,0,0,1-1.2.981A3.947,3.947,0,0,1,260.817,15.137Zm-.226-6.07a1.237,1.237,0,0,0-.954.4,2.048,2.048,0,0,0-.468,1.135h2.748V10.44a1.46,1.46,0,0,0-.355-1.015A1.277,1.277,0,0,0,260.592,9.066Zm7.465,4.478a1.3,1.3,0,0,0,.889-.3,1.054,1.054,0,0,0,.355-.8h1.853a2.534,2.534,0,0,1-.41,1.377,2.706,2.706,0,0,1-1.1.971,3.455,3.455,0,0,1-1.548.345,3.211,3.211,0,0,1-2.5-1.008,3.99,3.99,0,0,1-.916-2.786v-.13a3.944,3.944,0,0,1,.909-2.728,3.174,3.174,0,0,1,2.5-1.019,3.111,3.111,0,0,1,2.225.79,2.8,2.8,0,0,1,.851,2.1H269.3a1.346,1.346,0,0,0-.355-.933A1.324,1.324,0,0,0,267,9.569a2.908,2.908,0,0,0-.352,1.63V11.4A2.945,2.945,0,0,0,267,13.045,1.205,1.205,0,0,0,268.057,13.544ZM274.366,15h-1.982V7.6h1.982Zm-2.1-9.311a.973.973,0,0,1,.3-.731,1.281,1.281,0,0,1,1.617,0,.967.967,0,0,1,.3.731.97.97,0,0,1-.3.738,1.267,1.267,0,0,1-1.606,0A.97.97,0,0,1,272.268,5.689ZM277.846,7.6l.062.827a2.6,2.6,0,0,1,2.126-.964A1.973,1.973,0,0,1,282,8.595a2.54,2.54,0,0,1,2.222-1.128,2.206,2.206,0,0,1,1.791.7,3.221,3.221,0,0,1,.588,2.109V15h-1.982V10.283a1.408,1.408,0,0,0-.246-.919,1.091,1.091,0,0,0-.868-.291,1.233,1.233,0,0,0-1.23.848L282.275,15H280.3V10.29a1.391,1.391,0,0,0-.253-.93,1.1,1.1,0,0,0-.861-.287,1.28,1.28,0,0,0-1.217.7V15h-1.976V7.6ZM292.4,15a2.194,2.194,0,0,1-.2-.663,2.39,2.39,0,0,1-1.866.8,2.626,2.626,0,0,1-1.8-.629,2.023,2.023,0,0,1-.714-1.586,2.09,2.09,0,0,1,.872-1.8,4.3,4.3,0,0,1,2.519-.636h.909v-.424a1.219,1.219,0,0,0-.263-.82,1.035,1.035,0,0,0-.831-.308,1.177,1.177,0,0,0-.783.239.813.813,0,0,0-.284.656h-1.976a1.985,1.985,0,0,1,.4-1.189,2.621,2.621,0,0,1,1.121-.858,4.086,4.086,0,0,1,1.627-.311,3.228,3.228,0,0,1,2.17.687,2.4,2.4,0,0,1,.8,1.931v3.206a3.536,3.536,0,0,0,.294,1.593V15Zm-1.634-1.374a1.7,1.7,0,0,0,.807-.195,1.28,1.28,0,0,0,.547-.523V11.637h-.738q-1.483,0-1.579,1.025l-.007.116a.791.791,0,0,0,.26.608A1.009,1.009,0,0,0,290.766,13.626ZM297.7,15h-1.982V4.5H297.7Z" transform="translate(793.688 765.988)" fill="#12263f"/>
        <g id="Grupo_1054520" data-name="Grupo 1054520" transform="translate(1268.264 -155.853)">
          <rect id="Rectángulo_3637" data-name="Rectángulo 3637" width="244.333" height="95.335" rx="7.453" transform="translate(-425.576 966.361)" fill="#f8f3ff"/>
          <text id="inches" transform="translate(-411.215 991.715)" fill="#ba68c8" font-size="19" font-family="Helvetica"><tspan x="0" y="0">inches</tspan></text>
          <text id="_1" data-name="1" transform="translate(-313.193 999.84)" fill="#ba68c8" font-size="27" font-family="Helvetica"><tspan x="0" y="0">1</tspan></text>
          <text id="_2" data-name="2" transform="translate(-229.532 999.84)" fill="#ba68c8" font-size="27" font-family="Helvetica"><tspan x="0" y="0">2</tspan></text>
          <g id="Grupo_15330" data-name="Grupo 15330" transform="translate(-378.476 980.189)">
            <rect id="Rectángulo_3638" data-name="Rectángulo 3638" width="1.57" height="20.814" transform="translate(120.355 47.36)" fill="#7b1fa2"/>
            <rect id="Rectángulo_3639" data-name="Rectángulo 3639" width="1.57" height="20.814" transform="translate(114.788 47.36)" fill="#7b1fa2"/>
            <rect id="Rectángulo_3640" data-name="Rectángulo 3640" width="1.57" height="20.814" transform="translate(109.359 47.36)" fill="#7b1fa2"/>
            <rect id="Rectángulo_3641" data-name="Rectángulo 3641" width="1.57" height="68.173" transform="translate(169.289)" fill="#7b1fa2"/>
            <rect id="Rectángulo_3642" data-name="Rectángulo 3642" width="1.57" height="29.173" transform="translate(147.606 39)" fill="#7b1fa2"/>
            <rect id="Rectángulo_3643" data-name="Rectángulo 3643" width="1.57" height="43.234" transform="translate(125.922 24.939)" fill="#7b1fa2"/>
            <g id="Grupo_15323" data-name="Grupo 15323" transform="translate(109.359 47.36)">
              <rect id="Rectángulo_3644" data-name="Rectángulo 3644" width="1.57" height="20.814" transform="translate(10.996)" fill="#7b1fa2"/>
              <rect id="Rectángulo_3645" data-name="Rectángulo 3645" width="1.57" height="20.814" transform="translate(5.429)" fill="#7b1fa2"/>
              <rect id="Rectángulo_3646" data-name="Rectángulo 3646" width="1.57" height="20.814" fill="#7b1fa2"/>
            </g>
            <g id="Grupo_15324" data-name="Grupo 15324" transform="translate(87.898 47.36)">
              <rect id="Rectángulo_3647" data-name="Rectángulo 3647" width="1.57" height="20.814" transform="translate(10.996)" fill="#7b1fa2"/>
              <rect id="Rectángulo_3648" data-name="Rectángulo 3648" width="1.57" height="20.814" transform="translate(5.429)" fill="#7b1fa2"/>
              <rect id="Rectángulo_3649" data-name="Rectángulo 3649" width="1.57" height="20.814" fill="#7b1fa2"/>
            </g>
            <g id="Grupo_15325" data-name="Grupo 15325" transform="translate(66.136 47.36)">
              <rect id="Rectángulo_3650" data-name="Rectángulo 3650" width="1.57" height="20.814" transform="translate(10.996)" fill="#7b1fa2"/>
              <rect id="Rectángulo_3651" data-name="Rectángulo 3651" width="1.57" height="20.814" transform="translate(5.429)" fill="#7b1fa2"/>
              <rect id="Rectángulo_3652" data-name="Rectángulo 3652" width="1.57" height="20.814" fill="#7b1fa2"/>
            </g>
            <g id="Grupo_15326" data-name="Grupo 15326" transform="translate(44.375 47.36)">
              <rect id="Rectángulo_3653" data-name="Rectángulo 3653" width="1.57" height="20.814" transform="translate(10.996)" fill="#7b1fa2"/>
              <rect id="Rectángulo_3654" data-name="Rectángulo 3654" width="1.57" height="20.814" transform="translate(5.429)" fill="#7b1fa2"/>
              <rect id="Rectángulo_3655" data-name="Rectángulo 3655" width="1.57" height="20.814" fill="#7b1fa2"/>
            </g>
            <g id="Grupo_15327" data-name="Grupo 15327" transform="translate(22.691 47.36)">
              <rect id="Rectángulo_3656" data-name="Rectángulo 3656" width="1.57" height="20.814" transform="translate(10.996)" fill="#7b1fa2"/>
              <rect id="Rectángulo_3657" data-name="Rectángulo 3657" width="1.57" height="20.814" transform="translate(5.429)" fill="#7b1fa2"/>
              <rect id="Rectángulo_3658" data-name="Rectángulo 3658" width="1.57" height="20.814" fill="#7b1fa2"/>
            </g>
            <g id="Grupo_15328" data-name="Grupo 15328" transform="translate(131.266 47.36)">
              <rect id="Rectángulo_3659" data-name="Rectángulo 3659" width="1.57" height="20.814" transform="translate(10.996)" fill="#7b1fa2"/>
              <rect id="Rectángulo_3660" data-name="Rectángulo 3660" width="1.57" height="20.814" transform="translate(5.429)" fill="#7b1fa2"/>
              <rect id="Rectángulo_3661" data-name="Rectángulo 3661" width="1.57" height="20.814" fill="#7b1fa2"/>
            </g>
            <g id="Grupo_15329" data-name="Grupo 15329" transform="translate(152.949 47.36)">
              <rect id="Rectángulo_3662" data-name="Rectángulo 3662" width="1.57" height="20.814" transform="translate(10.996)" fill="#7b1fa2"/>
              <rect id="Rectángulo_3663" data-name="Rectángulo 3663" width="1.57" height="20.814" transform="translate(5.429)" fill="#7b1fa2"/>
              <rect id="Rectángulo_3664" data-name="Rectángulo 3664" width="1.57" height="20.814" fill="#7b1fa2"/>
            </g>
            <rect id="Rectángulo_3665" data-name="Rectángulo 3665" width="1.57" height="29.173" transform="translate(104.238 39)" fill="#7b1fa2"/>
            <rect id="Rectángulo_3666" data-name="Rectángulo 3666" width="1.57" height="43.234" transform="translate(82.554 24.939)" fill="#7b1fa2"/>
            <rect id="Rectángulo_3667" data-name="Rectángulo 3667" width="170.859" height="1.57" transform="translate(0 67.388)" fill="#7b1fa2"/>
            <rect id="Rectángulo_3668" data-name="Rectángulo 3668" width="1.57" height="29.173" transform="translate(60.715 39)" fill="#7b1fa2"/>
            <rect id="Rectángulo_3669" data-name="Rectángulo 3669" width="1.57" height="43.234" transform="translate(39.031 24.939)" fill="#7b1fa2"/>
            <rect id="Rectángulo_3670" data-name="Rectángulo 3670" width="1.57" height="29.173" transform="translate(17.347 39)" fill="#7b1fa2"/>
            <rect id="Rectángulo_3671" data-name="Rectángulo 3671" width="1.57" height="20.814" transform="translate(11.643 47.36)" fill="#7b1fa2"/>
            <rect id="Rectángulo_3672" data-name="Rectángulo 3672" width="1.57" height="20.814" transform="translate(5.704 47.36)" fill="#7b1fa2"/>
            <rect id="Rectángulo_3673" data-name="Rectángulo 3673" width="1.57" height="43.234" transform="translate(0 24.939)" fill="#7b1fa2"/>
          </g>
        </g>
      </g>
    </g>
  </g>
</svg>
