<svg xmlns="http://www.w3.org/2000/svg" width="256.474" height="222.764" viewBox="0 0 256.474 222.764">
  <g id="Grupo_1069682" data-name="Grupo 1069682" transform="translate(-1177.321 -2026.807)">
    <g id="Grupo_1069681" data-name="Grupo 1069681">
      <g id="Grupo_1069680" data-name="Grupo 1069680">
        <g id="Grupo_1069679" data-name="Grupo 1069679">
          <g id="BACKGROUND" transform="translate(1175.157 2044.438) rotate(-8)">
            <g id="Grupo_32241" data-name="Grupo 32241" transform="translate(0 0)">
              <path id="Trazado_61861" data-name="Trazado 61861" d="M31.61,48.863c11.469-.4,22.56,3.623,33.531,6.989S87.855,61.986,98.96,59.09c14.931-3.893,25.347-16.982,34.7-29.254S153.6,4.55,168.6.939c14.008-3.372,29.121,2.673,39.317,12.854s16.079,23.943,19.752,37.876c9.095,34.51,4.705,74.3-18.925,101.042-18.906,21.4-47.445,31.908-75.635,36.451-20.335,3.277-41.477,3.824-61.251-1.941a100.071,100.071,0,0,1-57.813-45.2C-.729,116.655-14.426,50.453,31.61,48.863Z" transform="translate(0 15.547)" fill="#d1bcff"/>
              <path id="Trazado_61862" data-name="Trazado 61862" d="M34.52,65.144c13.807.256,28.675-4.827,39-12.035,5.725-4,10.843-9.088,13.9-15.365s3.864-13.838,1.2-20.292C84.778,8.14,74.667,2.872,64.771.989a58.6,58.6,0,0,0-43.927,9.385c-8.869,6.184-18.166,14.986-20.468,26-2.48,11.866,7.738,20.97,17.8,25.417A42.34,42.34,0,0,0,34.52,65.144Z" transform="translate(36.459 0)" fill="#d1bcff"/>
            </g>
          </g>
          <g id="Grupo_1054600" data-name="Grupo 1054600" transform="translate(1221.356 2047.335)">
            <path id="Trazado_816197" data-name="Trazado 816197" d="M7.859,12.07h-4.5v3.047H8.641V17H1.016V5.625H8.625v1.9H3.359v2.711h4.5ZM12.25,17H9.984V5H12.25Zm9.359-1.664a1.481,1.481,0,0,0,1.016-.344,1.2,1.2,0,0,0,.406-.914h2.117a2.9,2.9,0,0,1-.469,1.574,3.093,3.093,0,0,1-1.262,1.109,3.949,3.949,0,0,1-1.77.395A3.67,3.67,0,0,1,18.789,16a4.56,4.56,0,0,1-1.047-3.184v-.148a4.508,4.508,0,0,1,1.039-3.117,3.627,3.627,0,0,1,2.852-1.164,3.555,3.555,0,0,1,2.543.9,3.2,3.2,0,0,1,.973,2.4H23.031a1.539,1.539,0,0,0-.406-1.066,1.513,1.513,0,0,0-2.223.164,3.324,3.324,0,0,0-.4,1.863v.234a3.366,3.366,0,0,0,.4,1.875A1.378,1.378,0,0,0,21.609,15.336Zm8.719,1.82A4.15,4.15,0,0,1,27.3,16.016a4.054,4.054,0,0,1-1.168-3.039v-.219a5.106,5.106,0,0,1,.492-2.277A3.612,3.612,0,0,1,28.02,8.934a3.914,3.914,0,0,1,2.059-.543,3.508,3.508,0,0,1,2.73,1.094,4.444,4.444,0,0,1,1,3.1v.922H28.422a2.1,2.1,0,0,0,.66,1.328,2,2,0,0,0,1.395.5,2.437,2.437,0,0,0,2.039-.945l1.109,1.242a3.389,3.389,0,0,1-1.375,1.121A4.511,4.511,0,0,1,30.328,17.156Zm-.258-6.937a1.414,1.414,0,0,0-1.09.453,2.341,2.341,0,0,0-.535,1.3h3.141v-.18a1.669,1.669,0,0,0-.406-1.16A1.459,1.459,0,0,0,30.07,10.219Zm7.094-1.672.07.977a2.951,2.951,0,0,1,2.43-1.133,2.453,2.453,0,0,1,2,.789,3.682,3.682,0,0,1,.672,2.359V17H40.078V11.594a1.465,1.465,0,0,0-.312-1.043,1.4,1.4,0,0,0-1.039-.324,1.553,1.553,0,0,0-1.43.813V17H35.039V8.547ZM46.75,6.469V8.547H48.2V10.2H46.75v4.219a1.007,1.007,0,0,0,.18.672.9.9,0,0,0,.688.2,3.6,3.6,0,0,0,.664-.055v1.711a4.648,4.648,0,0,1-1.367.2,2.156,2.156,0,0,1-2.422-2.4V10.2H43.258V8.547h1.234V6.469ZM51.891,17H49.633V8.547h2.258ZM51.227,5.117h2.461L51.523,7.539H49.688Zm4.727,3.43.07.945a2.971,2.971,0,0,1,2.43-1.1A2.255,2.255,0,0,1,60.7,9.68a2.9,2.9,0,0,1,2.539-1.289,2.521,2.521,0,0,1,2.047.8,3.681,3.681,0,0,1,.672,2.41V17H63.688V11.609a1.61,1.61,0,0,0-.281-1.051,1.246,1.246,0,0,0-.992-.332,1.409,1.409,0,0,0-1.406.969l.008,5.8H58.758V11.617a1.59,1.59,0,0,0-.289-1.062,1.259,1.259,0,0,0-.984-.328,1.463,1.463,0,0,0-1.391.8V17H53.836V8.547Zm15.625,8.609a4.15,4.15,0,0,1-3.027-1.141,4.054,4.054,0,0,1-1.168-3.039v-.219a5.106,5.106,0,0,1,.492-2.277A3.612,3.612,0,0,1,69.27,8.934a3.914,3.914,0,0,1,2.059-.543,3.508,3.508,0,0,1,2.73,1.094,4.444,4.444,0,0,1,1,3.1v.922H69.672a2.1,2.1,0,0,0,.66,1.328,2,2,0,0,0,1.395.5,2.437,2.437,0,0,0,2.039-.945l1.109,1.242A3.389,3.389,0,0,1,73.5,16.754,4.511,4.511,0,0,1,71.578,17.156Zm-.258-6.937a1.414,1.414,0,0,0-1.09.453,2.341,2.341,0,0,0-.535,1.3h3.141v-.18a1.669,1.669,0,0,0-.406-1.16A1.459,1.459,0,0,0,71.32,10.219Zm7.719-3.75V8.547h1.445V10.2H79.039v4.219a1.007,1.007,0,0,0,.18.672.9.9,0,0,0,.688.2,3.6,3.6,0,0,0,.664-.055v1.711a4.648,4.648,0,0,1-1.367.2,2.156,2.156,0,0,1-2.422-2.4V10.2H75.547V8.547h1.234V6.469Zm7.453,4.2a6.134,6.134,0,0,0-.812-.062,1.654,1.654,0,0,0-1.68.867V17H81.742V8.547h2.133l.063,1.008A2.092,2.092,0,0,1,85.82,8.391a2.366,2.366,0,0,1,.7.1Zm.453,2.031a5.013,5.013,0,0,1,.484-2.242A3.546,3.546,0,0,1,88.824,8.93a4.069,4.069,0,0,1,2.113-.539A3.849,3.849,0,0,1,93.73,9.438a4.2,4.2,0,0,1,1.207,2.844l.016.578a4.418,4.418,0,0,1-1.086,3.121,4.209,4.209,0,0,1-5.832,0,4.5,4.5,0,0,1-1.09-3.187Zm2.258.164a3.151,3.151,0,0,0,.453,1.84,1.629,1.629,0,0,0,2.578.008A3.448,3.448,0,0,0,92.7,12.7a3.12,3.12,0,0,0-.461-1.828,1.5,1.5,0,0,0-1.3-.648,1.475,1.475,0,0,0-1.281.645A3.506,3.506,0,0,0,89.2,12.859Z" transform="translate(26.06 0)" fill="#12263f"/>
            <path id="Trazado_816198" data-name="Trazado 816198" d="M5.7,17H4.242V7.367L1.328,8.438V7.125L5.469,5.57H5.7ZM17.43,15.977a2.082,2.082,0,0,0,1.352-.469,1.649,1.649,0,0,0,.641-1.172h1.367a2.621,2.621,0,0,1-.5,1.383,3.293,3.293,0,0,1-1.23,1.047,3.55,3.55,0,0,1-1.629.391A3.482,3.482,0,0,1,14.684,16a4.59,4.59,0,0,1-1.02-3.152v-.242a5.089,5.089,0,0,1,.453-2.2,3.451,3.451,0,0,1,1.3-1.492,3.7,3.7,0,0,1,2-.531,3.39,3.39,0,0,1,2.363.852,3.043,3.043,0,0,1,1,2.211H19.422a1.992,1.992,0,0,0-.621-1.348,1.932,1.932,0,0,0-1.379-.527,2.023,2.023,0,0,0-1.707.793,3.724,3.724,0,0,0-.605,2.293v.273a3.65,3.65,0,0,0,.6,2.25A2.033,2.033,0,0,0,17.43,15.977Zm8.492,1.18a3.693,3.693,0,0,1-2.8-1.129,4.19,4.19,0,0,1-1.078-3.02v-.266a5.073,5.073,0,0,1,.48-2.246,3.748,3.748,0,0,1,1.344-1.547,3.378,3.378,0,0,1,1.871-.559A3.166,3.166,0,0,1,28.3,9.477a4.7,4.7,0,0,1,.914,3.109v.6H23.492a3,3,0,0,0,.73,2.02,2.3,2.3,0,0,0,1.777.77,2.517,2.517,0,0,0,1.3-.312,3.259,3.259,0,0,0,.93-.828l.883.688A3.55,3.55,0,0,1,25.922,17.156Zm-.18-7.578a1.928,1.928,0,0,0-1.469.637A3.1,3.1,0,0,0,23.539,12h4.234v-.109a2.753,2.753,0,0,0-.594-1.707A1.815,1.815,0,0,0,25.742,9.578Zm6.516-1.031L32.3,9.609a3.08,3.08,0,0,1,2.531-1.219q2.68,0,2.7,3.023V17H36.094V11.406a1.946,1.946,0,0,0-.418-1.352A1.675,1.675,0,0,0,34.4,9.617a2.086,2.086,0,0,0-1.234.375,2.546,2.546,0,0,0-.828.984V17H30.891V8.547ZM41.68,6.5V8.547h1.578V9.664H41.68v5.242a1.171,1.171,0,0,0,.211.762.888.888,0,0,0,.719.254,3.5,3.5,0,0,0,.688-.094V17a4.19,4.19,0,0,1-1.109.156,1.8,1.8,0,0,1-1.461-.586,2.517,2.517,0,0,1-.492-1.664V9.664H38.7V8.547h1.539V6.5ZM46.516,17H45.063V8.547h1.453Zm.016-11.992h1.75L46.188,7.3H45.023Zm3.727,3.539.039.938A3.122,3.122,0,0,1,52.8,8.391,2.417,2.417,0,0,1,55.219,9.75a3.2,3.2,0,0,1,1.1-.984,3.242,3.242,0,0,1,1.6-.375q2.781,0,2.828,2.945V17H59.3V11.422a1.941,1.941,0,0,0-.414-1.355,1.823,1.823,0,0,0-1.391-.449,1.916,1.916,0,0,0-1.336.48,1.949,1.949,0,0,0-.617,1.293V17H54.086V11.461a1.613,1.613,0,0,0-1.8-1.844,1.934,1.934,0,0,0-1.945,1.211V17H48.891V8.547ZM66.43,17.156a3.693,3.693,0,0,1-2.8-1.129,4.19,4.19,0,0,1-1.078-3.02v-.266a5.073,5.073,0,0,1,.48-2.246,3.748,3.748,0,0,1,1.344-1.547,3.378,3.378,0,0,1,1.871-.559,3.166,3.166,0,0,1,2.563,1.086,4.7,4.7,0,0,1,.914,3.109v.6H64a3,3,0,0,0,.73,2.02,2.3,2.3,0,0,0,1.777.77,2.517,2.517,0,0,0,1.3-.312,3.259,3.259,0,0,0,.93-.828l.883.688A3.55,3.55,0,0,1,66.43,17.156Zm-.18-7.578a1.928,1.928,0,0,0-1.469.637A3.1,3.1,0,0,0,64.047,12h4.234v-.109a2.753,2.753,0,0,0-.594-1.707A1.815,1.815,0,0,0,66.25,9.578ZM73.359,6.5V8.547h1.578V9.664H73.359v5.242a1.171,1.171,0,0,0,.211.762.888.888,0,0,0,.719.254,3.5,3.5,0,0,0,.688-.094V17a4.19,4.19,0,0,1-1.109.156,1.8,1.8,0,0,1-1.461-.586,2.517,2.517,0,0,1-.492-1.664V9.664H70.375V8.547h1.539V6.5Zm7.352,3.344A4.331,4.331,0,0,0,80,9.789,1.9,1.9,0,0,0,78.07,11v6H76.625V8.547h1.406l.023.977A2.251,2.251,0,0,1,80.07,8.391a1.477,1.477,0,0,1,.641.109ZM81.5,12.7a4.993,4.993,0,0,1,.488-2.234A3.643,3.643,0,0,1,83.348,8.93a3.7,3.7,0,0,1,1.988-.539,3.565,3.565,0,0,1,2.793,1.2,4.6,4.6,0,0,1,1.066,3.18v.1a5.036,5.036,0,0,1-.473,2.215,3.589,3.589,0,0,1-1.352,1.527,3.743,3.743,0,0,1-2.02.547,3.556,3.556,0,0,1-2.785-1.2A4.575,4.575,0,0,1,81.5,12.8Zm1.453.172a3.616,3.616,0,0,0,.652,2.258,2.211,2.211,0,0,0,3.5-.012A3.955,3.955,0,0,0,87.75,12.7a3.61,3.61,0,0,0-.66-2.254,2.1,2.1,0,0,0-1.754-.863,2.075,2.075,0,0,0-1.727.852A3.925,3.925,0,0,0,82.953,12.867Zm18.625-2.227H95.063V9.383h6.516Zm0,3.242H95.063v-1.25h6.516ZM112.313,17h-1.453V7.367l-2.914,1.07V7.125l4.141-1.555h.227Zm11.734-1.023a2.082,2.082,0,0,0,1.352-.469,1.649,1.649,0,0,0,.641-1.172h1.367a2.621,2.621,0,0,1-.5,1.383,3.293,3.293,0,0,1-1.23,1.047,3.55,3.55,0,0,1-1.629.391A3.482,3.482,0,0,1,121.3,16a4.59,4.59,0,0,1-1.02-3.152v-.242a5.089,5.089,0,0,1,.453-2.2,3.451,3.451,0,0,1,1.3-1.492,3.7,3.7,0,0,1,2-.531,3.39,3.39,0,0,1,2.363.852,3.043,3.043,0,0,1,1,2.211h-1.367a1.992,1.992,0,0,0-.621-1.348,1.932,1.932,0,0,0-1.379-.527,2.023,2.023,0,0,0-1.707.793,3.724,3.724,0,0,0-.605,2.293v.273a3.65,3.65,0,0,0,.6,2.25A2.033,2.033,0,0,0,124.047,15.977Zm6.344-7.43.039.938a3.122,3.122,0,0,1,2.508-1.094,2.417,2.417,0,0,1,2.414,1.359,3.2,3.2,0,0,1,1.1-.984,3.242,3.242,0,0,1,1.6-.375q2.781,0,2.828,2.945V17H139.43V11.422a1.941,1.941,0,0,0-.414-1.355,1.823,1.823,0,0,0-1.391-.449,1.917,1.917,0,0,0-1.336.48,1.949,1.949,0,0,0-.617,1.293V17h-1.453V11.461a1.613,1.613,0,0,0-1.8-1.844,1.934,1.934,0,0,0-1.945,1.211V17h-1.445V8.547Z" transform="translate(0 152.891)" fill="#12263f"/>
            <g id="Grupo_1054518" data-name="Grupo 1054518" transform="translate(26.061 32.378)">
              <rect id="Rectángulo_3587" data-name="Rectángulo 3587" width="114.665" height="108.275" rx="7.453" transform="translate(0)" fill="#f8f3ff"/>
              <g id="Grupo_15313" data-name="Grupo 15313" transform="translate(17.24 13.897)">
                <rect id="Rectángulo_3588" data-name="Rectángulo 3588" width="1.599" height="34.611" transform="translate(40.263 0.349)" fill="#7b1fa2"/>
                <rect id="Rectángulo_3589" data-name="Rectángulo 3589" width="1.779" height="23.587" transform="translate(69.347 0.349)" fill="#7b1fa2"/>
                <rect id="Rectángulo_3590" data-name="Rectángulo 3590" width="1.779" height="23.587" transform="translate(47.034 0.349)" fill="#7b1fa2"/>
                <rect id="Rectángulo_3591" data-name="Rectángulo 3591" width="1.779" height="23.587" transform="translate(53.914 0.349)" fill="#7b1fa2"/>
                <rect id="Rectángulo_3592" data-name="Rectángulo 3592" width="1.779" height="23.587" transform="translate(61.63 0.349)" fill="#7b1fa2"/>
                <rect id="Rectángulo_3593" data-name="Rectángulo 3593" width="1.779" height="23.587" transform="translate(32.472 0.349)" fill="#7b1fa2"/>
                <rect id="Rectángulo_3594" data-name="Rectángulo 3594" width="1.779" height="23.587" transform="translate(10.159 0.349)" fill="#7b1fa2"/>
                <rect id="Rectángulo_3595" data-name="Rectángulo 3595" width="1.779" height="23.587" transform="translate(17.039 0.349)" fill="#7b1fa2"/>
                <rect id="Rectángulo_3596" data-name="Rectángulo 3596" width="1.779" height="23.587" transform="translate(24.755 0.349)" fill="#7b1fa2"/>
                <rect id="Rectángulo_3597" data-name="Rectángulo 3597" width="1.779" height="77.259" transform="translate(77.629 0.349)" fill="#7b1fa2"/>
                <rect id="Rectángulo_3598" data-name="Rectángulo 3598" width="1.779" height="34.611" transform="translate(2.98 0.349)" fill="#7b1fa2"/>
                <text id="_1" data-name="1" transform="translate(60.37 72.639)" fill="#ba68c8" font-size="22" font-family="Helvetica"><tspan x="0" y="0">1</tspan></text>
                <text id="cm" transform="translate(0 72.139)" fill="#ba68c8" font-size="22" font-family="Helvetica"><tspan x="0" y="0">cm</tspan></text>
                <rect id="Rectángulo_3599" data-name="Rectángulo 3599" width="76.39" height="1.859" transform="translate(2.98)" fill="#7b1fa2"/>
              </g>
            </g>
          </g>
        </g>
      </g>
    </g>
  </g>
</svg>
