<svg xmlns="http://www.w3.org/2000/svg" width="295" height="371.088" viewBox="0 0 295 371.088">
  <g id="Grupo_1069656" data-name="Grupo 1069656" transform="translate(-180 -5613.186)">
    <g id="Grupo_1069655" data-name="Grupo 1069655">
      <g id="Grupo_1069654" data-name="Grupo 1069654">
        <g id="Grupo_1069653" data-name="Grupo 1069653">
          <g id="Grupo_1069652" data-name="Grupo 1069652">
            <g id="Grupo_1069651" data-name="Grupo 1069651">
              <g id="Grupo_1069650" data-name="Grupo 1069650">
                <g id="Grupo_1069649" data-name="Grupo 1069649">
                  <path id="Trazado_21842" data-name="Trazado 21842" d="M481.115,282.495c-18.635,6.161-35.507,20.74-40.308,39.242-7.632,29.4,14.731,59.945,1.051,88.534-4.689,9.8-14.473,15.153-21.3,23.483-4.865,5.943-8.537,13-9.089,20.5-1.55,21.083,19.952,44.05,38.747,52.976,27.051,12.846,63.69,11.626,91.9,3.15,14.792-4.444,28.22-13.2,43.862-15.012,13.271-1.534,25.328,3.134,37.942,6.023,24.79,5.675,57.146,4.808,72.97-17.247,6.726-9.377,9.352-20.963,9.492-32.3a134.489,134.489,0,0,0-10.207-52.263c-6.135-14.656-15.5-28.573-18.534-44.266-3.279-16.99.025-34.468.788-51.519.88-19.629-1.794-41.5-19.946-53.813-22.7-15.4-58.519-8.479-80.714,3.766-14.577,8.043-27.461,18-44.338,21.245-16.723,3.216-34.187,2.023-50.58,6.953C482.27,282.123,481.692,282.3,481.115,282.495Z" transform="translate(-231.39 5416.554)" fill="#b0c0d2"/>
                  <g id="Grupo_6445" data-name="Grupo 6445" transform="translate(423.993 5790.913)">
                    <path id="Trazado_21843" data-name="Trazado 21843" d="M508.556,309.507l-3.232,2.19h0a3.371,3.371,0,0,1,1.246-4.242l2.887-1.853.829-1.276,1.193,3.639Z" transform="translate(-500.152 -269.574)" fill="#ffa181"/>
                    <g id="Grupo_6443" data-name="Grupo 6443" transform="translate(0 25.264)">
                      <path id="Trazado_21844" data-name="Trazado 21844" d="M515.43,304.829l-5.975,3.812-6.055-.577s.494-2.238,1.89-2.158a24.831,24.831,0,0,0,4.2-.441l3.849-3.516Z" transform="translate(-502.834 -298.782)" fill="#ff7e46"/>
                      <path id="Trazado_21845" data-name="Trazado 21845" d="M513.679,302.634l-5.13,3.267-4.952-1.087s.635-1.8,1.784-1.595a20.63,20.63,0,0,0,3.516.059l3.538-2.52Z" transform="translate(-502.507 -300.757)" fill="#ff7e46"/>
                      <path id="Trazado_21846" data-name="Trazado 21846" d="M515.286,303.441l-6.156,3.921-5.943-1.3s.763-2.164,2.14-1.914a24.908,24.908,0,0,0,4.221.069l4.248-3.022Z" transform="translate(-503.187 -300.036)" fill="#ff7e46"/>
                    </g>
                    <g id="Grupo_6444" data-name="Grupo 6444" transform="translate(0.643)">
                      <path id="Trazado_21847" data-name="Trazado 21847" d="M505.805,315.99c.324,1.6,1.51,4.149,1.409,5.781-.186,2.908-.3,6.948,1.244,7.1,2.11.2,2.033-6.759,2.078-7.052a1.512,1.512,0,0,1,1.667-1.263h0a.88.88,0,0,1,.768.718l.221,3.083L512.92,326l1.193,3.639s2.382-2.663,2.549-3.631c.47-2.735,1.93-6.637.965-8.625-.441-.909-5.305-8.745-5.305-8.745l-2.677-14.023a4.143,4.143,0,0,0-6.217-2.764h0l1.661,13.723a8.632,8.632,0,0,1,.513,4.346A17.894,17.894,0,0,0,505.805,315.99Z" transform="translate(-503.429 -291.252)" fill="#ffa181"/>
                      <path id="Trazado_21848" data-name="Trazado 21848" d="M506.107,305.267A1.512,1.512,0,0,1,507.773,304a.88.88,0,0,1,.768.718l.221,3.083s1.164-7.777-1.47-6.411C506.258,301.929,506.061,305.559,506.107,305.267Z" transform="translate(-498.999 -274.703)" fill="#ff7e46"/>
                    </g>
                  </g>
                  <path id="Trazado_21849" data-name="Trazado 21849" d="M510.434,329.839l-9.888-44.486,7.551-7.259,3.921,3.889c4.138,4.107,5.9,9.757,6.185,15.581.534,11.081-1.1,32.895-1.1,32.895Z" transform="translate(-83.572 5477.845)" fill="#ffa181"/>
                  <path id="Trazado_21850" data-name="Trazado 21850" d="M497.789,347.732s-3.809,21.322-3.809,28.368,3.046,10.661,1.9,12.376-2.855,1.523-3.235,5.329-4.189,6.855-10.281,6.855-5.842-4.806-5.141-6.664c.343-.909,6.092-7.615,7.8-13.327s-1.14-34.843-1.14-34.843S496.455,331.739,497.789,347.732Z" transform="translate(-122.822 5580.639)" fill="#ffa181"/>
                  <path id="Trazado_21851" data-name="Trazado 21851" d="M508.778,347.4s-3.639,25.87-1.837,30.482c3.237,8.272,15.052,12.056,15.052,12.056s5.847.93,6.323,1.839-.146,3.083-4.261,3.7c-2.071.311-4.306.54-6.018.694a9.4,9.4,0,0,1-5-.967,29.035,29.035,0,0,0-13.643-3.12s-4.271-.518-2.262-7.054-2.039-30.848-2.039-30.848S505.39,327.615,508.778,347.4Z" transform="translate(-92.604 5580.606)" fill="#ffa181"/>
                  <path id="Trazado_21852" data-name="Trazado 21852" d="M463.825,285.73s30.426,33.193,35.957,31.348,3.041-8.529-.231-12.447c-1.783-2.137-11.039-16.806-18.643-28.1S459.158,280.122,463.825,285.73Z" transform="translate(-145.985 5468.417)" fill="#ff947a"/>
                  <path id="Trazado_21853" data-name="Trazado 21853" d="M475,293.985l.122-.125a1.6,1.6,0,0,0-.122-2.323h0l.643-2.009h0a1.62,1.62,0,0,0,.117-2.113l-.314-.407,4.519-3.623,3.134.649s1.082,9.656-3.081,11.722S475,293.985,475,293.985Z" transform="translate(-125.921 5486.618)" fill="#ffa181"/>
                  <path id="Trazado_21854" data-name="Trazado 21854" d="M481.483,254.527c.872,11.036,9.837,19.331,20.02,18.529s17.952-10.425,16.865-21.442c-1.183-11.95-8.75-17.093-18.845-15.525C488.442,237.808,480.614,243.488,481.483,254.527Z" transform="translate(-115.287 5407.746)" fill="#ff5953"/>
                  <path id="Trazado_21855" data-name="Trazado 21855" d="M536.924,272.42a15,15,0,0,1-2.8-12.74,25.718,25.718,0,0,0,.68-7.626c-.975-16.939-8.742-19.419-17.582-18.72a13.881,13.881,0,0,0-8.851,4.3,8.669,8.669,0,0,1-4.324,2.374,14.606,14.606,0,0,0-11.211,16.081,10.146,10.146,0,0,1-2.613,8.322,21.146,21.146,0,0,0-5.842,13.407,10.577,10.577,0,0,1-4.689,8.059,21.2,21.2,0,1,0,30.524,27.68,13.329,13.329,0,0,1,10.932-7.083c.183-.008.367-.021.55-.035C539.452,305.036,546.429,284.753,536.924,272.42Z" transform="translate(-133.546 5403.464)" fill="#ff5953"/>
                  <path id="Trazado_21856" data-name="Trazado 21856" d="M519.522,323.812c-5.122-48.109-15.9-64.381-20.868-68.307,0,0-2.164,24.177-1.013,42.206.68,10.688,7.113,28.414,11.971,27.124C519.213,322.292,519.522,323.812,519.522,323.812Z" transform="translate(-88.947 5440.394)" fill="#ffa181"/>
                  <path id="Trazado_21857" data-name="Trazado 21857" d="M526.445,353.1s10.207-42.929,9.949-59.355c-.1-6.286-3.15-33.876-3.15-33.876s-13.917-7.315-24.506-6.988c-12.843.4-30.253,7.618-30.253,7.618s-2.966,9.348-1.752,18.5c1.89,14.247,8.418,31.146,9.662,35.651C499.82,363.2,513.107,360.9,526.445,353.1Z" transform="translate(-123.537 5436.028)" fill="#ffa181"/>
                  <path id="Trazado_21858" data-name="Trazado 21858" d="M532.362,282.751c-4.713-7.743-6.331-17.133-5.377-26.279-1.353-.617-3.12-1.372-5.127-2.129a82.12,82.12,0,0,1-2.113,15.408c-1.082,4.277-2.621,10.029-7.461,11.371-5.4,1.5-11.623-3.027-14.422-6.953-4.4-6.169-10.09-20.073-10.09-20.073-2.759.8-5.284,1.635-7.339,2.358,2.35,4.343,5.826,18.43,4.888,28.137-.532,5.483-2.8,10.815-6.823,14.183,1.985,6.416,3.875,11.629,4.487,13.845q.331,1.2.662,2.352c4.388-1.1,36.64-5.667,47.32-3.3a45.133,45.133,0,0,1,1.119-5.085s2.44-2.326,2.865-3.692c1.411-4.532.035-5.563,0-7.992C534.921,293.179,532.707,286.667,532.362,282.751Z" transform="translate(-120.127 5438.058)" fill="#7b1fa2"/>
                  <path id="Trazado_21859" data-name="Trazado 21859" d="M534.5,282.135H494.781s-22.7-.441-20.145,59.631c.646,15.2,6.507,35.287,9.048,55.166-1.876,20.009,5.709,64.793,5.709,64.793l9.715.154c3.471-21.537,6.079-42.15,6.289-60.184,0,0,1.414-72.366,10.283-73s11.393,75.145,11.393,75.145c-1.619,14.2.25,34.54,3.9,58h10.042l8.492-62.114C556.9,332.9,548.919,289.79,534.5,282.135Z" transform="translate(-126.86 5484.545)" fill="#ffa181"/>
                  <path id="Trazado_21860" data-name="Trazado 21860" d="M514.358,328.952c11.777-14.092,33.979-16.046,33.979-16.046-3.067-16.708-8.245-27.329-14.728-30.771-9.765,6.081-22.516,6.932-39.715,0,0,0-14.3-.274-18.922,29.663C488,309.993,511.16,321.422,514.358,328.952Z" transform="translate(-125.973 5484.545)" fill="#7b1fa2"/>
                  <path id="Trazado_21861" data-name="Trazado 21861" d="M495.439,258.5s-1.738-3.187-3.1-2.69a70.969,70.969,0,0,1-7.533,1.244s6.342.045,7.456.853S495.886,259.229,495.439,258.5Z" transform="translate(-109.662 5440.818)" fill="#ff7454"/>
                  <path id="Trazado_21862" data-name="Trazado 21862" d="M490.083,258.661s1.217-3.418,2.637-3.139a61.518,61.518,0,0,0,6.416.266s-5.04.819-6.012,1.792S489.756,259.451,490.083,258.661Z" transform="translate(-100.97 5440.395)" fill="#ff7454"/>
                  <g id="Grupo_6449" data-name="Grupo 6449" transform="translate(377.612 5673.394)">
                    <path id="Trazado_21863" data-name="Trazado 21863" d="M485.737,247.168l.6,22.2,14.549-1.149-1.523-21.18Z" transform="translate(-485.737 -247.038)" fill="#ffa181"/>
                  </g>
                  <path id="Trazado_21864" data-name="Trazado 21864" d="M503.684,274.332h0c-7.081.215-18.592-8.155-18.81-15.235,0,0-1.523-10.791.369-14.2,3.285-5.919,17.433-6.911,23.1-6.084,8.681,1.263,7.588,17.3,7.588,17.3C516.971,269.29,506.78,274.236,503.684,274.332Z" transform="translate(-110.518 5412.301)" fill="#ff8f68"/>
                  <path id="Trazado_21865" data-name="Trazado 21865" d="M499.288,247.038l-13.505.13a6.054,6.054,0,0,0,2.166,4.229c.356,6.8,7.363,11.719,12.5,11.719Z" transform="translate(-108.049 5426.355)" fill="#ff7454"/>
                  <path id="Trazado_21866" data-name="Trazado 21866" d="M503.684,274.332h0c-7.081.215-18.592-8.155-18.81-15.235,0,0-1.523-10.791.369-14.2,3.285-5.919,17.433-6.911,23.1-6.084,8.681,1.263,7.588,17.3,7.588,17.3C516.971,269.29,506.78,274.236,503.684,274.332Z" transform="translate(-110.518 5412.301)" fill="#ffa181"/>
                  <path id="Trazado_21867" data-name="Trazado 21867" d="M482.684,248.812c.242,3.033,3.15,5.428,6.8,5.329l-.377-11.017C485.456,243.222,482.248,243.366,482.684,248.812Z" transform="translate(-113.253 5419.866)" fill="#ffa181"/>
                  <path id="Trazado_21868" data-name="Trazado 21868" d="M484.767,244.763a.408.408,0,0,0-.755-.223,2.418,2.418,0,0,0-.191,2.368c.606,1.377,1.789,2.7,2.3,2.108s-.045-.441-.936-2.214A4.329,4.329,0,0,1,484.767,244.763Z" transform="translate(-111.673 5421.893)" fill="#ff7454"/>
                  <path id="Trazado_21869" data-name="Trazado 21869" d="M487.512,239.849c5.17-2.071,24.637-2.982,24.637-2.982A28.641,28.641,0,0,1,501,248.551a34.748,34.748,0,0,1-7.628,3.15,7.314,7.314,0,0,0-5.2,5.911h0l-.162-.691a4.062,4.062,0,0,0-4.484-3.094h0S482.342,241.92,487.512,239.849Z" transform="translate(-111.988 5409.493)" fill="#ff5953"/>
                  <path id="Trazado_21870" data-name="Trazado 21870" d="M488.966,247.283a2.8,2.8,0,0,1,.372-1.661,1.855,1.855,0,0,1,1.433-.93,1.8,1.8,0,0,1,1.316.447,2.671,2.671,0,0,1,.874,1.829l-1.669.133a1.048,1.048,0,0,0-.292-.688l-.231.085a1.111,1.111,0,0,0-.133.654Z" transform="translate(-102.785 5422.454)" fill="#28121e"/>
                  <path id="Trazado_21871" data-name="Trazado 21871" d="M496.447,246.129c.069.882-.393,1.64-1.037,1.69s-1.217-.625-1.289-1.507.4-1.643,1.037-1.693S496.378,245.244,496.447,246.129Z" transform="translate(-94.235 5422.341)" fill="#28121e"/>
                  <path id="Trazado_21872" data-name="Trazado 21872" d="M489.271,246.084l-.917-1.382c.175-.117,4.338-2.831,8.678-.67l-.742,1.486C492.806,243.78,489.308,246.063,489.271,246.084Z" transform="translate(-103.785 5419.992)" fill="#ff7454"/>
                  <path id="Trazado_21873" data-name="Trazado 21873" d="M493.925,256.3l-.33-1.624a1.71,1.71,0,0,0,.675-.218c-.059-.066-.385-.7-.675-1.268-.244-.481-.531-1.045-.832-1.712a6.515,6.515,0,0,1-.316-.872,5.912,5.912,0,0,1,.885-5.008,6.477,6.477,0,0,1,4.848-2.727,7.926,7.926,0,0,1,4.17.805l-.742,1.483a6.286,6.286,0,0,0-3.307-.633,4.822,4.822,0,0,0-3.615,2.025,4.2,4.2,0,0,0-.641,3.61,4.71,4.71,0,0,0,.229.638c.287.635.561,1.175.8,1.632.619,1.215,1.031,2.017.651,2.8A2.333,2.333,0,0,1,493.925,256.3Z" transform="translate(-97.356 5419.417)" fill="#ff7454"/>
                  <path id="Trazado_21874" data-name="Trazado 21874" d="M493.885,251.768a4.927,4.927,0,0,1-2.432-.633l.845-1.427a3.167,3.167,0,0,0,3.931-.662l1.2,1.151A4.806,4.806,0,0,1,493.885,251.768Z" transform="translate(-98.647 5429.685)" fill="#ff7454"/>
                  <path id="Trazado_21875" data-name="Trazado 21875" d="M489.083,247.364a.516.516,0,1,1-.556-.473A.517.517,0,0,1,489.083,247.364Z" transform="translate(-104.286 5426.109)" fill="#ff7454"/>
                  <path id="Trazado_21876" data-name="Trazado 21876" d="M489.61,247.658a.221.221,0,0,1-.2.239.223.223,0,0,1-.239-.2.221.221,0,0,1,.2-.239A.223.223,0,0,1,489.61,247.658Z" transform="translate(-102.437 5427.043)" fill="#ff7454"/>
                  <path id="Trazado_21877" data-name="Trazado 21877" d="M488.892,248.391a.452.452,0,1,1-.486-.415A.453.453,0,0,1,488.892,248.391Z" transform="translate(-104.391 5427.91)" fill="#ff7454"/>
                  <path id="Trazado_21878" data-name="Trazado 21878" d="M487.681,247.554a.252.252,0,1,1-.271-.231A.253.253,0,0,1,487.681,247.554Z" transform="translate(-105.736 5426.826)" fill="#ff7454"/>
                  <path id="Trazado_21879" data-name="Trazado 21879" d="M489.839,248.742a.379.379,0,1,1-.407-.348A.376.376,0,0,1,489.839,248.742Z" transform="translate(-102.578 5428.602)" fill="#ff7454"/>
                  <path id="Trazado_21880" data-name="Trazado 21880" d="M490.731,247.244a.34.34,0,1,1-.364-.311A.339.339,0,0,1,490.731,247.244Z" transform="translate(-100.97 5426.179)" fill="#ff7454"/>
                  <path id="Trazado_21881" data-name="Trazado 21881" d="M490.123,248.335a.589.589,0,1,1,.633.542A.589.589,0,0,1,490.123,248.335Z" transform="translate(-100.855 5427.454)" fill="#ff7454"/>
                  <path id="Trazado_21882" data-name="Trazado 21882" d="M495.306,246.947a.448.448,0,0,1-.412.484.451.451,0,1,1,.412-.484Z" transform="translate(-93.751 5425.514)" fill="#ff7454"/>
                  <path id="Trazado_21883" data-name="Trazado 21883" d="M494.989,248.265a.628.628,0,1,1,.675.577A.626.626,0,0,1,494.989,248.265Z" transform="translate(-92.788 5427.268)" fill="#ff7454"/>
                  <path id="Trazado_21884" data-name="Trazado 21884" d="M496.227,247.093a.365.365,0,1,1-.393-.335A.367.367,0,0,1,496.227,247.093Z" transform="translate(-91.942 5425.889)" fill="#ff7454"/>
                  <path id="Trazado_21885" data-name="Trazado 21885" d="M486.436,258.5s13.6-6.212,29-4.043c0,0,2.653-12.431-5.409-17.537C504.818,233.624,481.768,235.793,486.436,258.5Z" transform="translate(-107.994 5407.555)" fill="#ff5953"/>
                  <path id="Trazado_21886" data-name="Trazado 21886" d="M500.888,255.835s-5.632,1.93-17.88,23c-14.169,24.371-21.054,26.317-20.028,32.215s13.338,5.645,21.609-2.3c5.369-5.156,21.334-29.256,23.644-37.809S504.234,256.005,500.888,255.835Z" transform="translate(-146.02 5440.94)" fill="#ffa181"/>
                  <g id="Grupo_6456" data-name="Grupo 6456" transform="translate(361.033 5732.743)">
                    <path id="Trazado_21887" data-name="Trazado 21887" d="M484.969,288.884a1,1,0,0,1-.965-.75l-4.473-17.524a1,1,0,1,1,1.932-.492l4.473,17.521a1,1,0,0,1-.967,1.244Z" transform="translate(-479.499 -269.367)" fill="#621989"/>
                  </g>
                  <g id="Grupo_6457" data-name="Grupo 6457" transform="translate(410.541 5719.824)">
                    <path id="Trazado_21888" data-name="Trazado 21888" d="M499.123,290.776a1,1,0,0,1-.555-1.829,8.971,8.971,0,0,0,3.083-10.361,108.817,108.817,0,0,1-2.889-12.91,1,1,0,1,1,1.964-.346,106.17,106.17,0,0,0,2.828,12.655,11.107,11.107,0,0,1-3.883,12.625A.991.991,0,0,1,499.123,290.776Z" transform="translate(-498.126 -264.506)" fill="#621989"/>
                  </g>
                  <g id="Grupo_6458" data-name="Grupo 6458" transform="translate(369.391 5740.809)">
                    <path id="Trazado_21889" data-name="Trazado 21889" d="M494.334,277.663a21.756,21.756,0,0,1-11.27-3.45,1,1,0,0,1,1.148-1.629c.407.284,10.015,6.887,19.028.021a1,1,0,1,1,1.207,1.587A16.345,16.345,0,0,1,494.334,277.663Z" transform="translate(-482.644 -272.402)" fill="#621989"/>
                  </g>
                  <g id="Grupo_6459" data-name="Grupo 6459" transform="translate(387.39 5776.559)">
                    <path id="Trazado_21890" data-name="Trazado 21890" d="M490.414,323.787a1.047,1.047,0,0,1-.239-.027,1,1,0,0,1-.731-1.207,141.528,141.528,0,0,0,2.988-35.659,1,1,0,0,1,.952-1.042,1.023,1.023,0,0,1,1.039.952,143.546,143.546,0,0,1-3.041,36.223A1,1,0,0,1,490.414,323.787Z" transform="translate(-489.415 -285.852)" fill="#621989"/>
                  </g>
                  <g id="Grupo_6460" data-name="Grupo 6460" transform="translate(358.867 5769.583)">
                    <path id="Trazado_21891" data-name="Trazado 21891" d="M510.164,292.253c-7.892,0-18.066-1.783-30.864-7.107a1,1,0,0,1,.763-1.842c36.6,15.225,51.118.393,51.259.242a1,1,0,0,1,1.462,1.358C532.377,285.342,525.695,292.253,510.164,292.253Z" transform="translate(-478.684 -283.227)" fill="#621989"/>
                  </g>
                  <path id="Trazado_21892" data-name="Trazado 21892" d="M484.813,282.8l-7.636.561a1.548,1.548,0,0,0-1.47,1.523c.029.845.5,1.869,1.345,1.813l7.014-.409,3.769,1.212a2.945,2.945,0,0,0,3.926-1.4h0Z" transform="translate(-124.757 5485.649)" fill="#ffa181"/>
                  <path id="Trazado_21893" data-name="Trazado 21893" d="M485.961,285.933l-8.981-2.156c-.84-.3-1.635.765-1.8,1.685-.128.726.3,2.177.994,2.419l7.147.922,5.167,2.948a3.849,3.849,0,0,0,4.173-.994Z" transform="translate(-125.66 5487.185)" fill="#ffa181"/>
                  <path id="Trazado_21894" data-name="Trazado 21894" d="M484.17,286.553l-7.184-1.151c-.872-.072-2.14,1.324-2.047,2.254a1.548,1.548,0,0,0,1.47,1.326l6.719.452,3.54,2.565a2.946,2.946,0,0,0,4.115-.659h0Z" transform="translate(-126.036 5489.957)" fill="#ffa181"/>
                  <path id="Trazado_21895" data-name="Trazado 21895" d="M481.388,287.665l-4.808-.574a1.477,1.477,0,0,0-1.645,1.534,1.533,1.533,0,0,0,1.382,1.4l4.189.5,2.554,1.326a2.946,2.946,0,0,0,3.974-1.255h0Z" transform="translate(-126.037 5492.746)" fill="#ffa181"/>
                  <path id="Trazado_21896" data-name="Trazado 21896" d="M485.1,393.952a6.972,6.972,0,0,1-1.164,2.382,1.731,1.731,0,0,1-.484.247.748.748,0,0,1-.412.029.183.183,0,0,1-.074-.011,1.051,1.051,0,0,1-.524.319c-.114.032-.226.053-.33.074a3.01,3.01,0,0,1-.361.029.678.678,0,0,1-.072.125.551.551,0,0,1-.9.093c-.641-.537-.691-2.833-.959-6.347a76.413,76.413,0,0,0-1.279-9.492c-.319-1.01-.473-1.061-.473-1.061s-2.5,6.552-3.471,6.079-.526-1.39-.322-2.618,1.608-9.643,1.661-10.334-5.34-24.841-6.182-27.449-5.494-20.578-6.669-23.669c0,0-7.83-37.836-9.109-50.623a79.467,79.467,0,0,0-5.832-22.742s20.61,9.377,23.874,13.643,4.266,22.6,4.835,33.684.431,29,1,31.263,5.964,46.48,5.964,46.48,2.568,2.134,2.988,8.665A24.2,24.2,0,0,1,485.1,393.952Z" transform="translate(-170.447 5429.582)" fill="#ffa181"/>
                  <path id="Trazado_21897" data-name="Trazado 21897" d="M450.455,245.749v11.23s-8.242,15.775-11.227,20.607-1.563,17.907-1.563,17.907.285,24.445.994,32.975-.853,20.607-.853,20.607,23.592.994,30.274.569a52.991,52.991,0,0,0,12.931-2.7s1.85-33.969,1.138-48.322-.71-23.026-.71-23.026-12.224-15.065-12.934-17.622-.569-9.664-.569-9.664S451.734,244.614,450.455,245.749Z" transform="translate(-188.387 5423.86)" fill="#ffa181"/>
                  <path id="Trazado_21898" data-name="Trazado 21898" d="M443.98,252.981a20.46,20.46,0,0,0,11.512,3.612,16.328,16.328,0,0,0,4.487-.673c-.319-3.126-.231-7.612-.231-7.612s-16.2-3.695-17.481-2.56V251.7C442.819,252.152,443.388,252.585,443.98,252.981Z" transform="translate(-180.198 5423.86)" fill="#ff7454"/>
                  <path id="Trazado_21899" data-name="Trazado 21899" d="M440.288,238.1s.284,26.008,1.135,33.256,1.422,8.811,2.416,9.239,11.655,5.542,14.781,5.97,12.934-5.685,14.924-8.245-.284-43.915-.428-44.627-9.521-9.236-17.338-7.817S440.288,237.105,440.288,238.1Z" transform="translate(-183.478 5391.005)" fill="#ffa181"/>
                  <path id="Trazado_21900" data-name="Trazado 21900" d="M446.514,240.623s-5.545-6.111-7.817-3.835-1.422,10.233,2.985,10.8,5.4-4.55,5.4-4.55Z" transform="translate(-188.141 5408.52)" fill="#ffa181"/>
                  <path id="Trazado_21901" data-name="Trazado 21901" d="M465.2,261.841c-1.709,6.967-9.521,18.486-10.52,22.029s-12.221,37.671-12.508,40.651-2.411,53.436-2.411,53.436.566,1.712,1.555,4.122,2.36,7.923.856,8.532c-.96.391-3.123-4.978-3.123-4.978s-.287,1.422.989,4.835,2.206,7.182,2.063,8.314c-.093.763-.9.6-1.414.4-.247-.093-.431-.186-.431-.186a8.2,8.2,0,0,1,.2,1.135,1.819,1.819,0,0,1-.277,1.462,1.393,1.393,0,0,1-1.651-.072h-.011c-.154-.1-.258-.186-.258-.186a2.053,2.053,0,0,1-.082.362c-.133.391-.441.906-1.164.566a6.647,6.647,0,0,1-2.06-1.781l-.011-.011c-.237-.3-.38-.516-.38-.516a1.561,1.561,0,0,1-.207.3c-.308.322-.917.641-1.669-.659-.906-1.534-2.174-5.717-2.174-10.406s1.565-9.667,1.565-10.52-3.131-43.062-3.131-48.606,8.242-58.124,10.52-62.534S465.332,249.2,465.332,249.2A27.568,27.568,0,0,1,465.2,261.841Z" transform="translate(-202.275 5429.936)" fill="#ffa181"/>
                  <path id="Trazado_21902" data-name="Trazado 21902" d="M441.947,301.076c0,1.422,2.557,56.567,2.841,57.989s-3.695,16.485-3.126,36.951,3.695,54.86,3.695,54.86-12.79,14.5-12.224,17.625,11.371,4.832,15.065,4.832,3.982-.569,5.117-3.128,3.7-14.781,3.7-19.044-.853-4.548-.569-15.35,3.695-64.24,5.685-75.042,1.988-59.408,1.988-61.965S441.947,301.076,441.947,301.076Z" transform="translate(-195.369 5510.941)" fill="#ffa181"/>
                  <path id="Trazado_21903" data-name="Trazado 21903" d="M447.435,318.879s7.1,61.965,7.1,63.671a120.153,120.153,0,0,0,.853,29.846c2.56,16.772,8.245,49.459,8.245,49.459s-2.559,16.487-.569,18.476,40.553,1.7,42.283,1.212,1.951-5.029-1.943-6.924-8.463-1.544-9.558-2.451-16.57-10.313-17.139-14.007-3.41-74.758-3.41-76.749,0-48.606-3.982-65.659-9.38-26.721-9.38-26.721S445.728,303.245,447.435,318.879Z" transform="translate(-171.864 5495.982)" fill="#ffa181"/>
                  <path id="Trazado_21904" data-name="Trazado 21904" d="M482.632,339.412c0-5.428-.8-33.833-.322-44.949a216.3,216.3,0,0,0-2.663-41.889l-3.625-1.813c0,9.523-.651,19.927-11.831,21.32-12.3,1.528-18.547-11.086-21-20.788l-5.117,3.306a47.3,47.3,0,0,1,2.7,9.47,87.612,87.612,0,0,1,1.066,11.668c.338,6.568-2.118,12.952-4.548,18.25.093,14.63.726,31.173.712,45.895,12.527,8.269,42.227,3.477,44.483-.614" transform="translate(-188.442 5432.528)" fill="#fadee1"/>
                  <path id="Trazado_21905" data-name="Trazado 21905" d="M439.806,283.48s6.953,3.716,23.664,3.269c15.988-.428,21.745-3.626,21.745-3.626s2.2,23.095,3.338,31.34,1.422,16.485,1.422,16.485-3.269.143-11.655,1.422c-9.2,1.4-11.368,2.416-11.368,2.416s-2.368-11.4-2.629-12.968a8,8,0,0,0-2.347-4.691l-1.813,17.8s-4.157.96-12.471.744c-8.117-.207-10.658-1.278-10.658-1.278a139.289,139.289,0,0,1-.747-28.568C437.534,291.409,439.806,283.48,439.806,283.48Z" transform="translate(-190.813 5486.185)" fill="#ffd54f"/>
                  <path id="Trazado_21906" data-name="Trazado 21906" d="M444.583,242.252c.712-5.422.072-11.235-.425-12.28s-2.913-2.156-4.123,2.286-.569,11.562.284,15.937a38.091,38.091,0,0,0,2.063,6.858S443.873,247.672,444.583,242.252Z" transform="translate(-185.002 5396.505)" fill="#aa4f20"/>
                  <path id="Trazado_21907" data-name="Trazado 21907" d="M465.023,224.418c-10.021.524-21.888,9.207-23.595,12.192-1.815,3.176.027,3.628.027,3.628s8.075-4.577,16.817-4.056,15.105,6.01,16.628,5.329c3.482-1.55-2.275-5.925-2.275-5.925s4.9,3.724,6.254,1.164c1.244-2.355-2.913-4.625-2.913-4.625s2.985,1.959,3.338-.066S475.041,223.894,465.023,224.418Z" transform="translate(-182.913 5388.8)" fill="#aa4f20"/>
                  <path id="Trazado_21908" data-name="Trazado 21908" d="M432.58,311.725a1.563,1.563,0,0,1-.207.3c-.1-.226-.194-.452-.287-.688a23.046,23.046,0,0,1-.816-2.578,26.7,26.7,0,0,1-1.122-6.089c-.011-.308.369-.348.375-.04C430.579,306.345,432.58,311.725,432.58,311.725Z" transform="translate(-200.289 5518.167)" fill="#c1b1b3"/>
                  <path id="Trazado_21909" data-name="Trazado 21909" d="M434.93,313.19a2.051,2.051,0,0,1-.082.362,8.926,8.926,0,0,1-.71-1.122,18.444,18.444,0,0,1-1.4-2.65,24.584,24.584,0,0,1-.949-3.174,35.428,35.428,0,0,1-.824-3.976c-.043-.268.361-.383.4-.114a46.017,46.017,0,0,0,1.924,7.259C433.837,311.159,434.93,313.19,434.93,313.19Z" transform="translate(-198.941 5518.082)" fill="#c1b1b3"/>
                  <path id="Trazado_21910" data-name="Trazado 21910" d="M435.314,311.2a8.205,8.205,0,0,1,.2,1.135c-.351-.609-.638-1.247-.928-1.834-.473-.97-.864-1.97-1.247-2.98a22.91,22.91,0,0,1-1.411-5.162c-.04-.308.359-.268.417.05A62.928,62.928,0,0,0,435.314,311.2Z" transform="translate(-197.334 5517.73)" fill="#c1b1b3"/>
                  <path id="Trazado_21911" data-name="Trazado 21911" d="M461.966,305.619a34,34,0,0,1-.771,7.2,3.008,3.008,0,0,1-.361.029.684.684,0,0,1-.072.125,33.32,33.32,0,0,0,.742-7.285c-.011-1.1-.072-2.206-.165-3.306a14.5,14.5,0,0,1-.186-2.485c.021-.122.154-.2.247-.1.516.5.494,1.677.526,2.339C461.977,303.291,461.977,304.455,461.966,305.619Z" transform="translate(-149.532 5513.752)" fill="#c1b1b3"/>
                  <path id="Trazado_21912" data-name="Trazado 21912" d="M463.406,303.712a33.653,33.653,0,0,1-.38,3.4,42.529,42.529,0,0,1-1.34,5.9.749.749,0,0,1-.412.029,49.726,49.726,0,0,0,1.143-5.789,34.8,34.8,0,0,0,.372-3.721,25.761,25.761,0,0,1-.021-4c.04-.207.3-.154.359,0A10.191,10.191,0,0,1,463.406,303.712Z" transform="translate(-148.684 5513.156)" fill="#c1b1b3"/>
                  <path id="Trazado_21913" data-name="Trazado 21913" d="M454.956,324.559a10.262,10.262,0,0,0,1.454.114,4.563,4.563,0,0,0,1.411-.269,3.14,3.14,0,0,0,2.126-2.02.317.317,0,0,0-.46-.353c-.383.231-.688.561-1.05.8a4.586,4.586,0,0,1-1,.534,8.483,8.483,0,0,1-1.193.316,9.691,9.691,0,0,1-1.289.2.338.338,0,0,0,0,.675Z" transform="translate(-159.7 5550.616)" fill="#c1b1b3"/>
                  <path id="Trazado_21914" data-name="Trazado 21914" d="M440.918,322.877a12.1,12.1,0,0,0,2.82,1.494c.93.306,2.5.46,3.014-.609a.349.349,0,0,0-.3-.521,5.014,5.014,0,0,0-.688.114,3.8,3.8,0,0,1-.585.1,4.127,4.127,0,0,1-1.313-.152,11.72,11.72,0,0,1-2.536-1.135.411.411,0,0,0-.415.71Z" transform="translate(-182.752 5550.823)" fill="#c1b1b3"/>
                  <path id="Trazado_21915" data-name="Trazado 21915" d="M442.045,324.572a4.951,4.951,0,0,0,1.239.032,2.347,2.347,0,0,0,.6-.114,2.582,2.582,0,0,0,.306-.133.865.865,0,0,0,.229-.2.211.211,0,0,0-.146-.356.9.9,0,0,0-.282-.008c-.093.013-.1.016-.2.024s-.207.027-.311.045c-.011,0-.146.024-.088.016-.045.005-.088.011-.133.013a4.412,4.412,0,0,1-.529.021c-.09,0-.181-.008-.268-.013l-.133-.013-.077-.011-.016,0a.376.376,0,0,0-.447.252.366.366,0,0,0,.253.447Z" transform="translate(-180.997 5553.599)" fill="#c1b1b3"/>
                  <path id="Trazado_21920" data-name="Trazado 21920" d="M441.759,268.048a37.483,37.483,0,0,1,5.345-.516,18.432,18.432,0,0,0,5.1-.606c.17-.061.17-.332-.035-.335-.9-.008-1.8.112-2.7.157-.88.045-1.76.106-2.642.154a36.9,36.9,0,0,0-5.215.55c-.388.077-.242.667.146.6Z" transform="translate(-181.657 5458.773)" fill="#d7cdce"/>
                  <path id="Trazado_21921" data-name="Trazado 21921" d="M446.418,267.388c2.708.082,5.422-.085,8.128-.186,1.334-.048,2.663-.135,3.995-.189a26.283,26.283,0,0,0,3.936-.237.179.179,0,0,0,.008-.343,13.066,13.066,0,0,0-3.769-.152c-1.313.064-2.621.157-3.929.3a67.614,67.614,0,0,1-8.362.486.161.161,0,0,0-.008.322Z" transform="translate(-173.565 5458.16)" fill="#d7cdce"/>
                  <path id="Trazado_21922" data-name="Trazado 21922" d="M443.173,240.362a3.661,3.661,0,0,1,.486-2.188,2.455,2.455,0,0,1,1.887-1.225,2.39,2.39,0,0,1,1.733.59,3.51,3.51,0,0,1,1.148,2.408l-2.2.175a1.361,1.361,0,0,0-.385-.906l-.306.109a1.484,1.484,0,0,0-.173.864Z" transform="translate(-178.716 5409.615)" fill="#28121e"/>
                  <path id="Trazado_21923" data-name="Trazado 21923" d="M453.018,238.842c.09,1.164-.518,2.164-1.363,2.23s-1.605-.824-1.7-1.988.518-2.161,1.363-2.227S452.925,237.677,453.018,238.842Z" transform="translate(-167.459 5409.469)" fill="#28121e"/>
                  <path id="Trazado_21924" data-name="Trazado 21924" d="M443.574,238.783l-1.209-1.818c.229-.154,5.712-3.726,11.424-.882l-.975,1.954C448.226,235.748,443.622,238.754,443.574,238.783Z" transform="translate(-180.034 5406.375)" fill="#ff7454"/>
                  <path id="Trazado_21925" data-name="Trazado 21925" d="M449.7,252.238l-.436-2.137a2.3,2.3,0,0,0,.888-.287c-.077-.088-.508-.928-.888-1.672-.322-.633-.7-1.374-1.1-2.251a8.223,8.223,0,0,1-.417-1.148,7.784,7.784,0,0,1,1.164-6.592,8.514,8.514,0,0,1,6.387-3.591,10.4,10.4,0,0,1,5.486,1.061l-.973,1.954a8.3,8.3,0,0,0-4.356-.837,6.35,6.35,0,0,0-4.758,2.669,5.544,5.544,0,0,0-.845,4.752,5.916,5.916,0,0,0,.3.84c.375.837.739,1.547,1.047,2.148.819,1.6,1.358,2.655.858,3.695A3.072,3.072,0,0,1,449.7,252.238Z" transform="translate(-171.569 5405.618)" fill="#ff7454"/>
                  <path id="Trazado_21926" data-name="Trazado 21926" d="M449.648,246.264a6.482,6.482,0,0,1-3.2-.832l1.114-1.879a4.161,4.161,0,0,0,5.172-.869l1.576,1.512A6.319,6.319,0,0,1,449.648,246.264Z" transform="translate(-173.27 5419.137)" fill="#ff7454"/>
                </g>
              </g>
            </g>
          </g>
        </g>
      </g>
    </g>
  </g>
</svg>
