<svg xmlns="http://www.w3.org/2000/svg" xmlns:xlink="http://www.w3.org/1999/xlink" width="610" height="297.62" viewBox="0 0 610 297.62">
  <defs>
    <clipPath id="clip-path">
      <rect id="Rectángulo_374658" data-name="Rectángulo 374658" width="484" height="212.215" fill="none"/>
    </clipPath>
  </defs>
  <g id="Grupo_1079136" data-name="Grupo 1079136" transform="translate(-705 -5122.967)">
    <g id="Grupo_1079134" data-name="Grupo 1079134" transform="translate(15539 12506.967)">
      <g id="Grupo_1079135" data-name="Grupo 1079135">
        <rect id="Rectángulo_374434" data-name="Rectángulo 374434" width="610" height="297.62" rx="28" transform="translate(-14834 -7384)" fill="#fff"/>
      </g>
    </g>
    <path id="Rectángulo_374434_-_Contorno" data-name="Rectángulo 374434 - Contorno" d="M28,1A26.977,26.977,0,0,0,1,28V269.62a26.977,26.977,0,0,0,27,27H582a26.977,26.977,0,0,0,27-27V28A26.977,26.977,0,0,0,582,1H28m0-1H582a28,28,0,0,1,28,28V269.62a28,28,0,0,1-28,28H28a28,28,0,0,1-28-28V28A28,28,0,0,1,28,0Z" transform="translate(705 5122.967)" fill="#707070"/>
    <g id="Grupo_1079133" data-name="Grupo 1079133" transform="translate(15539 12506.967)">
      <g id="Grupo_1078921" data-name="Grupo 1078921" transform="translate(-14777 -7326.606)">
        <g id="Grupo_1078920" data-name="Grupo 1078920" clip-path="url(#clip-path)">
          <path id="Trazado_841825" data-name="Trazado 841825" d="M174.811,252.99c-1.175-4.561-9.038-5.016-12.724-5.539-8.564-1.217-17.234-3.546-25.921-2.581-13.375,1.486-26.948-2.4-40.329-2.505-13.514-.111-26.9,2.826-40.179,4.942a178.1,178.1,0,0,1-20.836,2.271c-6.3.253-12.578.079-18.788,1.341-4.118.837-14.755,1.324-16.006,6.544a.859.859,0,0,0,.717,1.081,1.581,1.581,0,0,0,1.671,1.418,25.876,25.876,0,0,1,6.942,1.2c2.235.631,4.734.347,7.021.347,5.994,0,11.852,1.3,17.829,1.607,5.574.288,11.207-.517,16.808-.335,6.229.2,12.275,1.351,18.531,1.15,23.259-.75,46.549-.806,69.576-4.6,4.845-.8,10.175-2.647,15.1-2.378,3.251.178,6.49.5,9.744.628,2.719.107,12.228.778,10.845-4.592" transform="translate(0 -53.458)" fill="#cbb3b5"/>
          <path id="Trazado_841826" data-name="Trazado 841826" d="M93.622,148.566a37.9,37.9,0,0,0,8.864,3.177,69.063,69.063,0,0,0,14.352,1.128c1.435-.023,2.872-.061,4.3,0a12.739,12.739,0,0,0,4.719-.736c1.43-.495,2.864-.98,4.23-1.446,2.589.6,5.127,1.2,7.671,1.779s5.083,1.124,7.7,1.7a10.583,10.583,0,0,1,.161,1.287c0,3.123.057,6.249-.044,9.369a19.46,19.46,0,0,1-1.807,8.087,10.557,10.557,0,0,1-1.985,2.772c-2.351.244-4.8.131-7.239.172-2.361.04-4.725.02-7.087-.045-2.422-.067-4.866.229-7.346-.217a13.347,13.347,0,0,1,.884-3.917c.855-.7,1.954-.128,2.671-.832.088-.833-.776-.457-1.042-.974,0-.015-.072-.206-.006-.307a6.436,6.436,0,0,1,2.816-2.068,7.987,7.987,0,0,0,2.947-2.234c-2.564-.192-4.239,1.366-6.12,2.255-.569-.285-.379-.747-.278-1.085.313-1.049.7-2.077,1.061-3.111.5-1.412.516-2.016.082-4.041-.309.185-.7.281-.823.516a13.5,13.5,0,0,0-1.552,3.711c-.345,1.908-.875,3.783-1.213,5.692-.844,4.763-2.709,9.217-4.143,13.8a11.552,11.552,0,0,1-2.541,4.619,11.381,11.381,0,0,0-1.494,2.33,33.732,33.732,0,0,1-3.236,5.307c-1.034,0-1.945.012-2.857,0a7.336,7.336,0,0,1-1.482-.118,56.762,56.762,0,0,1-12.584-4.5,4.954,4.954,0,0,1-1.762-1.352,13.2,13.2,0,0,0-2.309-1.951,2.379,2.379,0,0,1-1.035-2.176c.049-.673.079-1.347.135-2.02a9.3,9.3,0,0,0,.15-1.255,45.068,45.068,0,0,1,.663-7.8,7.928,7.928,0,0,0-.114-2.252,47.142,47.142,0,0,1,0-12.863,7.383,7.383,0,0,1,1.356-3.513c1.566-2.2,3.191-4.356,4.8-6.524a2.465,2.465,0,0,1,.526-.359" transform="translate(-18.99 -32.77)" fill="#b6657c" fill-rule="evenodd"/>
          <path id="Trazado_841827" data-name="Trazado 841827" d="M127.493,99.372a4.162,4.162,0,0,0,.631-.659c.54-.856,1.08-1.715,1.545-2.613.5-.972.882-2.011,1.384-2.984a10.926,10.926,0,0,0,.537-8.617,25.139,25.139,0,0,0-3.291-6.822,30.329,30.329,0,0,1-4.718-9.858c-1.337,0-2.6-.059-3.857.014a12.829,12.829,0,0,1-5.892-1.224c-.773-.334-1.509-.755-2.263-1.133a4.4,4.4,0,0,1-1.676-1.489c-.763-1.1-1.631-2.124-2.415-3.128a4.551,4.551,0,0,0-4.155,2.574c-.294.512-.617,1.008-.927,1.511-2.021,3.279-3,6.968-4.06,10.606A51.742,51.742,0,0,0,96.52,86.771a57.665,57.665,0,0,0,1.255,17.343,26.881,26.881,0,0,1,.505,7.8A17.024,17.024,0,0,1,96.9,117.8c-.9,2.086-1.578,4.273-2.274,6.441-.493,1.538-.337,1.93.949,2.761a23.821,23.821,0,0,0,7.521,3.534c1.562.361,3.1.832,4.666,1.158a17.874,17.874,0,0,0,3.495.447c4.221.025,8.444-.044,12.666-.07a13.266,13.266,0,0,0,5.886-1.765c-.585-.405-.976-.708-1.4-.961q-2.494-1.5-5.006-2.966a7.234,7.234,0,0,1-2.283-2.3,35.953,35.953,0,0,1-1.983-4.083c-1.439-2.772-2.833-5.566-4.229-8.359a12.484,12.484,0,0,1-1.238-2.764,29.2,29.2,0,0,0-1.993-4.887,9.692,9.692,0,0,0-.951-.457A2.751,2.751,0,0,1,108.925,101a5.527,5.527,0,0,1-.081-1.258,6.084,6.084,0,0,0-.591-2.945c-.7-1.72-1.354-3.457-2.063-5.173a21.873,21.873,0,0,1-1.183-4.909,5.663,5.663,0,0,1,.087-1.749c.027-.174.334-.3.706-.613a22.289,22.289,0,0,0,2.257,8.123c1.115,2.467,2.306,4.9,2.4,7.68a1.375,1.375,0,0,0,.055.247,1.416,1.416,0,0,0,.941,1.1,24.636,24.636,0,0,0,3.4.978,5.018,5.018,0,0,0,3.875-.686,19.082,19.082,0,0,1,3.758-2.061,3.972,3.972,0,0,0,2.531-2.595,8.43,8.43,0,0,0-1.164-4.078,12.109,12.109,0,0,1-1.436-4.285,35.085,35.085,0,0,0-1.154-4.4c-.266-.977-.539-1.951-.784-2.933a1.6,1.6,0,0,1,0-.731c.027-.115.226-.2.362-.27a.224.224,0,0,1,.2.069,6.54,6.54,0,0,1,.562,1.107c.823,2.571,1.6,5.157,2.436,7.724a16.991,16.991,0,0,0,1.128,2.81c1.055,1.963,1.9,3.945,1.586,6.256a.814.814,0,0,0,.739.96" transform="translate(-20.816 -13.424)" fill="#f56888"/>
          <path id="Trazado_841828" data-name="Trazado 841828" d="M185.71,220.918a19.953,19.953,0,0,1,1.935,1.355A18.322,18.322,0,0,0,195.7,226.3c1.221.316,2.424.694,3.644,1.046v1.16a11.549,11.549,0,0,0,4.945.006,1.38,1.38,0,0,1,1.5.706.819.819,0,0,1-.029,1.153,6.191,6.191,0,0,1-1.872,1.225,12.4,12.4,0,0,1-3.218.569c-1.939.079-3.885.013-5.828-.016a12.613,12.613,0,0,1-4.822-1.4,5.8,5.8,0,0,0-2.68-.547,28.72,28.72,0,0,0-5.774.648,3.893,3.893,0,0,1-4.911-2.038,2.749,2.749,0,0,1-.433-2.175c.31-1.117.161-2.355,1.031-3.338a2.244,2.244,0,0,0,.336-1.432,11.06,11.06,0,0,0-.344-4.005,3.819,3.819,0,0,1,.056-1.737,13.367,13.367,0,0,0-.023-3.528c-.359-2.588-.578-5.194-.88-7.79a22.064,22.064,0,0,0-.5-3.25,21.475,21.475,0,0,1-.7-5.761c.009-2.535.028-5.069-.009-7.6a13.763,13.763,0,0,1,1.9-7.259c.848-1.458,1.747-2.885,2.67-4.405,1.049-.2,2.125-.4,3.189-.642.174-.041.295-.311.441-.475-.183-.145-.36-.3-.553-.43a.419.419,0,0,0-.246-.046c-3.365.15-6.753-.094-10.087.6a39.678,39.678,0,0,1-9.814.852,4.323,4.323,0,0,1-.832-.238c.224-.758.381-1.494.657-2.182a21.593,21.593,0,0,0,1.447-8.431c-.032-2.45-.023-4.9-.017-7.351,0-.571.059-1.141.087-1.62.3-.159.443-.3.586-.3,1.855-.017,3.712.005,5.567-.026a2.77,2.77,0,0,1,2.11.622,5.466,5.466,0,0,0,3.006,1.2c4,.631,7.982,1.322,11.972,1.99a1.862,1.862,0,0,1,.488.1,34.412,34.412,0,0,1,6.221,3.352,2.727,2.727,0,0,1,1.07,2.14A30.9,30.9,0,0,1,194,176.66c-1.068,4.083-2.076,8.184-3.505,12.163a5.542,5.542,0,0,0-.267.975,53.171,53.171,0,0,1-1.777,6.573,63.4,63.4,0,0,0-2.283,10.365c-.249,2.1-.643,4.178-.8,6.279s-.141,4.214-.118,6.32a5.734,5.734,0,0,0,.457,1.582m-4.822,3.806a1.158,1.158,0,0,0,.438,1.593c.45.345.553.337,1.494-.009l-1.932-1.585" transform="translate(-35.702 -34.461)" fill="#ffdec7" fill-rule="evenodd"/>
          <path id="Trazado_841829" data-name="Trazado 841829" d="M5.878,246.016a.819.819,0,0,1,.013-1.192c1.206-1,2.1-2.455,3.882-2.628a1.151,1.151,0,0,0,.969-1.048,19.42,19.42,0,0,1,1.434-4.041,5.17,5.17,0,0,1,1.489-2.319,2.881,2.881,0,0,0,1.011-2.467,15.768,15.768,0,0,1,1.284-6.15,4.59,4.59,0,0,1,4.521-3,5.668,5.668,0,0,1,4.05,1.087c.769.628,1.7,1.027,2.5,1.673a6.645,6.645,0,0,0,4.2,1.51c1.436,0,2.873.08,4.306.03a19.854,19.854,0,0,0,6.405-1.368c3.7-1.412,7.39-2.875,11.081-4.32a13.466,13.466,0,0,1,4.142-1.067c1.843-.111,3.678-.369,5.573-.57a18,18,0,0,1,.344-1.889,10.414,10.414,0,0,1,.687-1.631,55.973,55.973,0,0,0,2.527-7.416c.281-.878.625-1.735.906-2.613a14.451,14.451,0,0,0,.433-1.71c.233-1.236.434-2.479.639-3.668a.868.868,0,0,1,1.125.483,4.7,4.7,0,0,0,2.378,1.793c2.326,1,4.631,2.044,6.968,3.012a15.774,15.774,0,0,0,4.935,1.022,10.509,10.509,0,0,1,4.279,1.348,15.075,15.075,0,0,1-2.046,4.139c-.488.686-.877,1.442-1.35,2.14-.565.836-1.15,1.659-1.765,2.459a24.825,24.825,0,0,0-3.391,5.314,30.327,30.327,0,0,1-2.019,3.505,8.744,8.744,0,0,0-.928,1.5c-.547,1.621-1.853,2.592-3.031,3.656a2.434,2.434,0,0,1-2.349.672c-2.125-.708-4.184-.087-6.247.191-1.741.235-3.444.761-5.178,1.073a38.865,38.865,0,0,1-7.766.889,8.983,8.983,0,0,0-3.259.32,4.185,4.185,0,0,1-1.248.128c-3.123.088-6.247.129-9.368.265-1.6.069-3.187.355-4.785.455-2.526.16-5.056.284-7.585.345a4.845,4.845,0,0,0-3.023.976,21.224,21.224,0,0,0-4.517,3.993,9.471,9.471,0,0,1-3.219,2.4A14.5,14.5,0,0,1,9.7,245.2a35.619,35.619,0,0,0-3.824.814m15.158-16.037c-.684,1.066-.691,1.44-.21,1.918a1.885,1.885,0,0,0,1.576.6c.393-.037.852.023,1.007-.693l-2.373-1.822" transform="translate(-1.242 -44.369)" fill="#ffdec7" fill-rule="evenodd"/>
          <path id="Trazado_841830" data-name="Trazado 841830" d="M116.376,36.778c1.028.871,1.884,1.649,2.8,2.352a3.052,3.052,0,0,0,2.3.857.818.818,0,0,0,.542-.439,1.013,1.013,0,0,0-.129-.673c-.062-.138-.235-.231-.37-.328a3.561,3.561,0,0,0-.433-.261c-2.142-1.134-3.254-3.108-4.232-5.189a4.3,4.3,0,0,1-.282-2.961.9.9,0,0,1,1.143-.7c1.29.434,2.548.912,3.045,2.387a6.29,6.29,0,0,0,.609,1.067,1.887,1.887,0,0,0,1.772-1.283,13.013,13.013,0,0,1,2.062-3.164,7.722,7.722,0,0,1,2.818-2.086c2.4-1.033,4.8-2.055,7.162-3.171a34.068,34.068,0,0,0,3.022-1.835,7.827,7.827,0,0,1,1.09-.6.823.823,0,0,1,1.083.726c-.044,1.854-.119,3.709-.175,5.563-.034,1.181-.047,2.362-.084,3.542a4.3,4.3,0,0,0,1.634,3.541c.7.6,1.419,1.181,2.047,1.7a1.181,1.181,0,0,1-.49,1.42,8.221,8.221,0,0,1-.832.571,10.662,10.662,0,0,0-3.915,3.716c-3.684.575-4.184.464-8.986-1.988,0,.263-.091.555.014.687a7.34,7.34,0,0,0,5.909,2.876c.838.01,1.673.079,2.508.133.07,0,.134.1.3.224a8.258,8.258,0,0,1-1.339,4.673,2.124,2.124,0,0,1-2.159,1.036q-2.645-.223-5.3-.362a17.2,17.2,0,0,0-1.75.08c-.88,1.269-.9,2.772-1.475,4.067a6.623,6.623,0,0,0-.4,4.012,1.286,1.286,0,0,1-1.227.59,14.464,14.464,0,0,1-8.889-2.4,12.519,12.519,0,0,1-3.61-3.846,1.645,1.645,0,0,1-.061-1.7A19.223,19.223,0,0,0,113.554,44a4.089,4.089,0,0,1,1.153-2.413,4.965,4.965,0,0,0,1.15-2.765c.116-.645.32-1.275.52-2.044m18.73-5.114a2.1,2.1,0,0,0,1.45,2.283,1.112,1.112,0,0,0,1.364-.766,3.547,3.547,0,0,0-.4-2.415,1.633,1.633,0,0,0-1.023-.581,1.182,1.182,0,0,0-1.214.693,6.877,6.877,0,0,0-.178.786m.115-5.265c-.387.056-.72.082-1.042.162a.8.8,0,0,0-.4.272.637.637,0,0,0-.148.435c.021.136.185.364.268.356.743-.067,1.485-.165,2.221-.288a.424.424,0,0,0,.259-.329.506.506,0,0,0-.244-.383,6.752,6.752,0,0,0-.91-.224" transform="translate(-24.68 -4.566)" fill="#ffdec7" fill-rule="evenodd"/>
          <path id="Trazado_841831" data-name="Trazado 841831" d="M173.968,140.875V142.2c1.012.552,2.049,1.106,3.074,1.68a14.885,14.885,0,0,1,4.39,3.372c.291.352.093.6-.2.811-.152-.034-.369-.015-.441-.109-1.247-1.624-3.163-2.206-4.866-3.1a21.335,21.335,0,0,0-2.833-1.084,1.325,1.325,0,0,0-.74-.044.852.852,0,0,0-.549.41.729.729,0,0,0,.15.67,11.8,11.8,0,0,0,1.974,1.087,47.806,47.806,0,0,1,4.6,2.155l-2.558.645a14.226,14.226,0,0,0-5.631-1.414c-1.511-.045-3.011-.4-4.521-.549a3.934,3.934,0,0,1-2.645-1.327c-.328-.366-.627-.761-1.021-1.243a3.84,3.84,0,0,1-2.615.692c-3.242.023-6.366-.75-9.525-1.279-1.663-.278-3.348-.489-4.979-.9a76.335,76.335,0,0,1-8.5-2.434,42.248,42.248,0,0,1-5.48-3.118,10.673,10.673,0,0,1-4.644-5.494,4.822,4.822,0,0,0-.765-1.309,18.955,18.955,0,0,1-3.036-5.8c-1.091-2.829-2.312-5.6-3.541-8.37a2,2,0,0,1-.065-.665,1.347,1.347,0,0,1,1.419-.468c2.709.464,4.928-.723,7.118-2.03a10.444,10.444,0,0,1,3.3-1.389c.238.613.473,1.148.657,1.7q1.478,4.443,2.931,8.894a30.664,30.664,0,0,1,1.418,4.583,3.659,3.659,0,0,0,2.8,2.936c2.889.931,5.746,1.963,8.594,3.012a17.907,17.907,0,0,1,2.726,1.329c3.064,1.772,6.1,3.592,9.159,5.369a4.421,4.421,0,0,0,2.892.581,24.784,24.784,0,0,1,5.043-.083c2.263.193,4.508.614,6.9.959" transform="translate(-26.25 -24.614)" fill="#ffdec7" fill-rule="evenodd"/>
          <path id="Trazado_841832" data-name="Trazado 841832" d="M139.649,12.235a7.973,7.973,0,0,0-1.665-3.9,11.432,11.432,0,0,0-3.74-2.952,29.545,29.545,0,0,0-3.411-1.656,33.373,33.373,0,0,0-6.082-1.656c-2.514-.338-5.02.462-7.542.645a2.459,2.459,0,0,0-.478.164,26.833,26.833,0,0,0-7.069,3.885,8.284,8.284,0,0,0-1.613,1.6,17.188,17.188,0,0,0-3.479,7.206,31.976,31.976,0,0,0-.447,10.333,7.417,7.417,0,0,0,1.666,4.18,27.931,27.931,0,0,0,4.512,4.853l2.2-.156c.5-1.334.975-2.587,1.426-3.783-.2-.5-.344-.9-.527-1.275a7.255,7.255,0,0,1-.253-4.957,1.779,1.779,0,0,1,1.8-1.478,3.769,3.769,0,0,1,2.205.443c1.136.671,2.251,1.376,3.4,2.08a19.376,19.376,0,0,1,4.495-5.394c.919-.866,1.809-1.764,2.74-2.617,1.054-.967,2.137-1.9,3.21-2.846a2.262,2.262,0,0,1,.411-.285c.028-.016.117.082.174.125-.528,1.853-2.064,3.047-2.785,4.888a32.124,32.124,0,0,1,3.207-1.355,15.741,15.741,0,0,0,3.625-1.779c1-.617,1.977-1.281,2.966-1.92a2.209,2.209,0,0,0,1.053-2.394" transform="translate(-22.92 -0.439)" fill="#f5a432"/>
          <path id="Trazado_841833" data-name="Trazado 841833" d="M90.762,25.069c-1.058,1.183-1.9,2.562-2.84,3.849-.157.214-.207.66-.7.381a5.4,5.4,0,0,1,1.029-2.805c.965-1.348,1.541-3.031,3.234-3.924-2.993-.437-5.009,1.1-6.5,3.4A10.6,10.6,0,0,0,83.25,32.2a28.141,28.141,0,0,0,.3,4.283,34.519,34.519,0,0,1,.372,8.579,10.751,10.751,0,0,1-2.7,6.928c-.387.416-.7.9-1.182,1.541a5.061,5.061,0,0,0,1.18.084,11.836,11.836,0,0,0,6.67-3.33c.737-.811,1.447-1.647,2.185-2.458A10.142,10.142,0,0,0,92.1,44.366a28.677,28.677,0,0,0,1.851-9.639c.008-1.35.124-2.7.118-4.05a8.47,8.47,0,0,1,.663-3.705,5.131,5.131,0,0,0,.06-3.713,4.724,4.724,0,0,0-4.027,1.811" transform="translate(-17.654 -4.962)" fill="#f5a432"/>
          <path id="Trazado_841834" data-name="Trazado 841834" d="M190.479,149.665c3.7.394,6.123,1.356,7.325,3.852-.24.058-.494.2-.686.146a3.865,3.865,0,0,1-.861-.5c-.924-.575-1.839-1.162-2.769-1.728-.847-.515-1.708-1.009-3.009-1.774" transform="translate(-42.015 -33.012)" fill="#ffdec7" fill-rule="evenodd"/>
          <path id="Trazado_841835" data-name="Trazado 841835" d="M101.344,23.98c-.048-.564-.113-1.125-.138-1.689-.016-.375.348-.85.439-.691a1.312,1.312,0,0,1,.193.663c-.027.567-.116,1.132-.18,1.7l-.313.02" transform="translate(-22.323 -4.757)" fill="#ff6881" fill-rule="evenodd"/>
          <path id="Trazado_841836" data-name="Trazado 841836" d="M86.632,45.344a9.806,9.806,0,0,0,.5-1.261c.507-2.136,1-4.274,1.465-6.42.279-1.3.151-1.519-1.021-2.273a3.29,3.29,0,0,0-.433-.263c-2.093-.919-3.475-2.666-4.88-4.334a8.564,8.564,0,0,1-2.114-5.321,11.121,11.121,0,0,0-.219-2.265,5.4,5.4,0,0,0-.908-1.367,6.051,6.051,0,0,0-.709,3.528q.123,2.785.233,5.57a28.124,28.124,0,0,1-1.2,7.725,17.251,17.251,0,0,1-6.311,9.255,13.314,13.314,0,0,1-11.42,2.772,4.292,4.292,0,0,1-1.556-.778c-.231-.164-.295-.563-.491-.974a8.554,8.554,0,0,1,1.246-.45c2.5-.46,3.914-2.3,5.046-4.274a9.268,9.268,0,0,0,1.213-4.863,62.9,62.9,0,0,0-.483-8.586,19.732,19.732,0,0,1,.04-5.8A11.283,11.283,0,0,1,69.889,16.7a6.157,6.157,0,0,1,3.362-.983,18.34,18.34,0,0,1,2.529.066,14.393,14.393,0,0,1,2.121.62c1.412-1.364,1.412-1.364,2.784-1.7.407-1.028.871-2.109,1.265-3.215a12.552,12.552,0,0,1,4.366-5.779A51.977,51.977,0,0,1,90.85,2.479,12.23,12.23,0,0,1,96.535.508C97.543.451,98.549.3,99.547.141a14.5,14.5,0,0,1,5.029.193,34.237,34.237,0,0,1,8.9,3.535,10.947,10.947,0,0,1,4.256,3.89,9.365,9.365,0,0,1,1.4,4.289,3.113,3.113,0,0,1-.868,2.556c-.291.3-.571.61-.937,1,.044.97.094,1.976.137,2.982.09,2.195.25,4.39.24,6.585a4.908,4.908,0,0,0,2.044,4.124,4.845,4.845,0,0,1,.912.848,2.4,2.4,0,0,1-.366,3.587,12.407,12.407,0,0,1-1.034.726c-.758.535-1.514,1.073-2.217,1.571a44.825,44.825,0,0,0-1.435,5.663,12.655,12.655,0,0,1-1.038,2.842,2.141,2.141,0,0,1-2.453,1.366c-1.91-.342-3.889-.072-5.769-.7a4.122,4.122,0,0,0-1.242-.018,11.539,11.539,0,0,0-2.039,5.184,1.851,1.851,0,0,0,.132,1.227,20.375,20.375,0,0,1,1.7,4.18,30.279,30.279,0,0,0,3.481,6.736,34.452,34.452,0,0,1,4.011,7.6,20.921,20.921,0,0,1,1.125,4.4,8.884,8.884,0,0,1-.822,5.186,32.127,32.127,0,0,1-3.635,6.938,7.39,7.39,0,0,0-.517.868,3.233,3.233,0,0,0-.308,2.913c.239.631.405,1.29.638,1.924q1.791,4.874,3.6,9.74c.147.393.326.772.535,1.261l5.555,2.32c5.453,2.276,10.935,4.5,15.782,7.97a2.3,2.3,0,0,0,1.638.511c.335-.035.676-.032,1.011-.076,4.429-.6,8.757.155,13.048,1.086a12.886,12.886,0,0,1,6.4,3.411,3.6,3.6,0,0,1,.939,4.36c-.333.765-.692,1.519-1.108,2.425a3.793,3.793,0,0,0,.912.688,11.469,11.469,0,0,1,3.141,2.092A4.125,4.125,0,0,1,161.8,130.7a4.35,4.35,0,0,1,.106,1.006c-.133,3.613.044,7.242-.993,10.788-1.136,3.886-2.143,7.8-3.394,11.665-1.505,4.648-2.551,9.45-3.7,14.207-.4,1.634-.512,3.335-.747,5.007-.246,1.755-.546,3.507-.7,5.271-.15,1.678-.112,3.373-.225,5.056a3.235,3.235,0,0,0,1.217,2.889,13.647,13.647,0,0,0,4.475,2.8c1.436.465,2.77,1.272,4.352,1.257a2.515,2.515,0,0,1,.963.291,14.07,14.07,0,0,0,6.38,1.38,3.614,3.614,0,0,1,1.684.483,1.875,1.875,0,0,1,1.019,1.875,3.176,3.176,0,0,1-1.871,3.051,11,11,0,0,1-2.334.935c-1.483.3-3,.479-4.507.634-.836.087-1.7-.049-2.532.042a10.242,10.242,0,0,1-6.52-1.539,5.69,5.69,0,0,0-4.632-.638c-1.054.3-2.126.535-3.171.857a6.2,6.2,0,0,1-6.746-2.818,4.546,4.546,0,0,1-.565-3.165c.4-1.638.756-3.286,1.23-4.9a13.925,13.925,0,0,0,.46-3.217,46.073,46.073,0,0,0-.934-9.553,42.765,42.765,0,0,0-1.359-5.653,23.758,23.758,0,0,1-.938-6.749c-.005-2.112.008-4.225-.01-6.337a24.233,24.233,0,0,1,1.118-6.713,12.711,12.711,0,0,1,2.871-5.293,8.6,8.6,0,0,0,.655-.912c-.161-.6-.549-.549-.851-.5-1.746.292-3.5.56-5.226.95a13.164,13.164,0,0,1-3.254.366c-2.11-.05-4.222-.023-6.333-.038a2.139,2.139,0,0,0-1.658.448,2.675,2.675,0,0,1-2.118.62c-1.352-.041-2.7-.1-4.054-.1-4.645-.008-9.292.053-13.935-.021a7.982,7.982,0,0,0-3.526,1.21,1.655,1.655,0,0,0-.719.981,32.287,32.287,0,0,1-5.261,9.759c-.494.68-.877,1.44-1.3,2.169-.893,1.53-1.807,3.049-2.658,4.6a3.835,3.835,0,0,1-1.49,1.658,5.534,5.534,0,0,0-2.122,2.451c-.974,1.87-1.978,3.727-3.035,5.553a18.017,18.017,0,0,1-1.638,2.242,25.138,25.138,0,0,0-2.91,4.423c-1.143,2.246-2.578,4.345-3.923,6.486a12.6,12.6,0,0,1-1.142,1.351,6.126,6.126,0,0,1-5.344,2.323c-1.681-.106-3.373-.133-5.058-.1a41.669,41.669,0,0,0-6.767.86c-1.815.339-3.671.455-5.513.648-2.182.227-4.368.428-6.553.641-1.6.157-3.188.355-4.788.459-2.44.158-4.882.186-7.325.465a62.989,62.989,0,0,1-7.589.245,4.74,4.74,0,0,0-3.292,1.037,42.772,42.772,0,0,0-3.345,3.083A21.288,21.288,0,0,1,18,198.441c-2.493,2.147-5.612,3.053-8.513,4.38a8.669,8.669,0,0,1-4.988.419A1.619,1.619,0,0,1,3.167,200.8,6.6,6.6,0,0,1,5.4,198.1c.525-.423,1.072-.818,1.624-1.2.481-.337.981-.646,1.464-.96.4-.963.822-1.884,1.162-2.835a8.73,8.73,0,0,1,3.525-4.852c.014-1.316.072-2.578.028-3.837a11.546,11.546,0,0,1,.548-3.744,3.329,3.329,0,0,1,2.548-2.54,3.648,3.648,0,0,0,1.194-.366c1.9-1.214,3.775-.653,5.549.155,1.754.8,3.4,1.838,5.078,2.793a5.673,5.673,0,0,0,2.644.744,25.367,25.367,0,0,0,11.119-1.993c3.336-1.424,6.755-2.658,10.092-4.079,1.892-.805,3.93-.908,5.874-1.45a6.787,6.787,0,0,1,2.348.263,53.216,53.216,0,0,0,3.666-9.627c.984-3.222,1.784-6.5,2.7-9.869a4.746,4.746,0,0,1-.689-4.027,53.188,53.188,0,0,0,.629-7.561,47.725,47.725,0,0,0-.114-6.524,48.232,48.232,0,0,1,.25-10.37,13.813,13.813,0,0,1,2.194-5.627c1.128-1.766,2.51-3.373,3.808-5.028a7.134,7.134,0,0,1,1.037-.882c-.314-.823-1.3-1.379-1.068-2.416a9.419,9.419,0,0,1,.274-1.46c.468-1.172,1-2.322,1.528-3.468a20.572,20.572,0,0,0,1.318-5.909c.321-2.253.4-4.54.6-6.811a9.761,9.761,0,0,0-.309-3.258c-.468-1.884-.937-3.772-1.286-5.68a21.5,21.5,0,0,1-.39-4.023c.032-3.716.052-7.438.307-11.142a47.29,47.29,0,0,1,2.088-10.409c.464-1.535,1.011-3.044,1.514-4.568a30.774,30.774,0,0,1,3.691-7.191,10.433,10.433,0,0,1,2.133-2.136c.707-.6,1.57-.534,2.556-.868M75.29,115.8a2.446,2.446,0,0,0-.527.359c-1.61,2.168-3.235,4.324-4.8,6.524a7.376,7.376,0,0,0-1.356,3.513,47.174,47.174,0,0,0,0,12.863,7.927,7.927,0,0,1,.115,2.252,45.07,45.07,0,0,0-.664,7.8,9.425,9.425,0,0,1-.149,1.255c-.057.673-.086,1.346-.135,2.019a2.379,2.379,0,0,0,1.035,2.177,13.131,13.131,0,0,1,2.308,1.951,4.977,4.977,0,0,0,1.762,1.352,56.739,56.739,0,0,0,12.585,4.5,7.22,7.22,0,0,0,1.482.118c.91.017,1.822,0,2.857,0a33.8,33.8,0,0,0,3.236-5.307,11.353,11.353,0,0,1,1.494-2.33,11.549,11.549,0,0,0,2.541-4.618c1.433-4.583,3.3-9.037,4.143-13.8.338-1.908.868-3.783,1.214-5.691a13.5,13.5,0,0,1,1.552-3.711c.121-.235.513-.331.823-.517.435,2.027.414,2.631-.083,4.042-.362,1.034-.747,2.062-1.06,3.111-.1.337-.291.8.278,1.085,1.882-.889,3.557-2.447,6.12-2.255a7.976,7.976,0,0,1-2.947,2.233,6.429,6.429,0,0,0-2.816,2.069c-.066.1.005.292.006.307.266.517,1.131.14,1.042.973-.717.7-1.816.129-2.672.832a13.372,13.372,0,0,0-.883,3.917c2.48.447,4.924.15,7.346.217,2.362.065,4.725.086,7.087.046,2.44-.041,4.888.071,7.238-.172a10.534,10.534,0,0,0,1.985-2.772,19.424,19.424,0,0,0,1.807-8.087c.1-3.12.047-6.246.044-9.369a10.707,10.707,0,0,0-.161-1.287c-2.62-.577-5.163-1.125-7.7-1.7s-5.082-1.178-7.671-1.78c-1.367.467-2.8.952-4.231,1.447a12.748,12.748,0,0,1-4.719.736c-1.433-.057-2.87-.019-4.3,0a69.062,69.062,0,0,1-14.352-1.129A37.854,37.854,0,0,1,75.29,115.8m29.561-32.08a8.439,8.439,0,0,0-1.164-4.078,12.127,12.127,0,0,1-1.436-4.284,34.925,34.925,0,0,0-1.154-4.4c-.265-.977-.539-1.951-.783-2.932a1.59,1.59,0,0,1,0-.732c.027-.115.226-.2.362-.269a.22.22,0,0,1,.2.069,6.547,6.547,0,0,1,.562,1.108c.823,2.571,1.6,5.157,2.436,7.724a17.119,17.119,0,0,0,1.128,2.809c1.056,1.963,1.9,3.945,1.587,6.257a.813.813,0,0,0,.738.959,4.155,4.155,0,0,0,.631-.658c.54-.856,1.082-1.716,1.545-2.613.5-.973.882-2.011,1.384-2.985a10.922,10.922,0,0,0,.538-8.617,25.18,25.18,0,0,0-3.291-6.822,30.33,30.33,0,0,1-4.719-9.858c-1.338,0-2.6-.059-3.857.013a12.812,12.812,0,0,1-5.893-1.224c-.773-.334-1.509-.754-2.263-1.133a4.411,4.411,0,0,1-1.676-1.489c-.763-1.1-1.631-2.124-2.415-3.129a4.553,4.553,0,0,0-4.155,2.574c-.293.513-.617,1.008-.926,1.511-2.022,3.278-3,6.967-4.061,10.6a51.788,51.788,0,0,0-1.815,11.222,57.667,57.667,0,0,0,1.254,17.343,26.874,26.874,0,0,1,.505,7.8,17,17,0,0,1-1.376,5.879c-.9,2.086-1.578,4.273-2.274,6.442-.493,1.537-.336,1.93.949,2.761a23.863,23.863,0,0,0,7.521,3.534c1.562.36,3.1.832,4.666,1.157a17.875,17.875,0,0,0,3.5.448c4.221.024,8.444-.044,12.665-.071a13.265,13.265,0,0,0,5.886-1.764c-.585-.405-.976-.709-1.4-.962q-2.494-1.5-5.005-2.966a7.245,7.245,0,0,1-2.284-2.3,36.15,36.15,0,0,1-1.983-4.083c-1.438-2.772-2.832-5.567-4.228-8.36a12.435,12.435,0,0,1-1.239-2.764,29.123,29.123,0,0,0-1.993-4.886,9.707,9.707,0,0,0-.951-.458,2.752,2.752,0,0,1-1.807-2.524,5.531,5.531,0,0,1-.081-1.259,6.091,6.091,0,0,0-.59-2.944c-.7-1.721-1.355-3.458-2.064-5.174a21.866,21.866,0,0,1-1.183-4.908,5.637,5.637,0,0,1,.088-1.749c.027-.174.334-.3.705-.614A22.309,22.309,0,0,0,87.9,79.05c1.115,2.466,2.307,4.9,2.4,7.68a1.3,1.3,0,0,0,.054.246,1.418,1.418,0,0,0,.941,1.1,24.5,24.5,0,0,0,3.4.977,5.019,5.019,0,0,0,3.875-.685,19.017,19.017,0,0,1,3.758-2.062,3.973,3.973,0,0,0,2.532-2.595m45.816,102.74a5.775,5.775,0,0,1-.457-1.581c-.023-2.107-.04-4.222.118-6.321s.552-4.182.8-6.278a63.346,63.346,0,0,1,2.284-10.366,53.258,53.258,0,0,0,1.776-6.572,5.459,5.459,0,0,1,.267-.975c1.429-3.98,2.436-8.08,3.5-12.163a30.921,30.921,0,0,0,1.05-11.027,2.733,2.733,0,0,0-1.072-2.14,34.336,34.336,0,0,0-6.221-3.352,1.83,1.83,0,0,0-.488-.1c-3.99-.669-7.976-1.359-11.972-1.99a5.474,5.474,0,0,1-3.006-1.2,2.769,2.769,0,0,0-2.11-.622c-1.855.031-3.712.009-5.567.026-.143,0-.284.14-.585.3-.028.478-.086,1.049-.087,1.62-.005,2.45-.015,4.9.017,7.35a21.591,21.591,0,0,1-1.447,8.431c-.276.688-.433,1.424-.657,2.182a4.3,4.3,0,0,0,.832.238,39.643,39.643,0,0,0,9.815-.851c3.334-.694,6.721-.451,10.086-.6a.422.422,0,0,1,.247.046c.192.132.369.285.552.43-.146.164-.267.435-.441.475-1.064.246-2.139.437-3.189.643-.924,1.52-1.822,2.948-2.67,4.4a13.766,13.766,0,0,0-1.9,7.259c.037,2.535.018,5.069.009,7.6a21.477,21.477,0,0,0,.7,5.761,22.061,22.061,0,0,1,.5,3.25c.3,2.6.521,5.2.88,7.79a13.335,13.335,0,0,1,.023,3.528,3.811,3.811,0,0,0-.055,1.738,11.077,11.077,0,0,1,.343,4.005,2.249,2.249,0,0,1-.335,1.432c-.871.983-.722,2.221-1.032,3.338a2.748,2.748,0,0,0,.433,2.175,3.893,3.893,0,0,0,4.911,2.039,28.732,28.732,0,0,1,5.774-.648,5.812,5.812,0,0,1,2.68.546,12.592,12.592,0,0,0,4.821,1.4c1.944.029,3.889.094,5.829.016a12.365,12.365,0,0,0,3.217-.57,6.178,6.178,0,0,0,1.873-1.224.82.82,0,0,0,.028-1.153,1.379,1.379,0,0,0-1.5-.706,11.549,11.549,0,0,1-4.945-.006v-1.16c-1.22-.352-2.423-.73-3.644-1.047a18.309,18.309,0,0,1-8.056-4.023,20.062,20.062,0,0,0-1.936-1.355M5.3,201.647a35.757,35.757,0,0,1,3.823-.814,14.49,14.49,0,0,0,5.186-1.9,9.483,9.483,0,0,0,3.219-2.405,21.267,21.267,0,0,1,4.517-3.993,4.85,4.85,0,0,1,3.024-.975c2.529-.062,5.058-.186,7.585-.345,1.6-.1,3.186-.386,4.785-.456,3.122-.136,6.244-.176,9.367-.264a4.191,4.191,0,0,0,1.249-.128,8.986,8.986,0,0,1,3.259-.32,38.87,38.87,0,0,0,7.766-.888c1.735-.313,3.436-.839,5.178-1.073,2.062-.278,4.122-.9,6.247-.191a2.434,2.434,0,0,0,2.349-.672c1.178-1.065,2.483-2.035,3.031-3.656a8.715,8.715,0,0,1,.928-1.5,30.5,30.5,0,0,0,2.019-3.505,24.808,24.808,0,0,1,3.39-5.315c.615-.8,1.2-1.624,1.765-2.458.472-.7.862-1.454,1.349-2.141a15.039,15.039,0,0,0,2.047-4.138,10.522,10.522,0,0,0-4.279-1.349,15.765,15.765,0,0,1-4.935-1.022c-2.338-.966-4.642-2.014-6.969-3.012a4.694,4.694,0,0,1-2.377-1.793.87.87,0,0,0-1.125-.483c-.206,1.19-.406,2.432-.639,3.669a14.49,14.49,0,0,1-.433,1.71c-.281.878-.626,1.735-.906,2.613a56.09,56.09,0,0,1-2.528,7.416,10.533,10.533,0,0,0-.687,1.631,17.944,17.944,0,0,0-.343,1.889c-1.9.2-3.73.46-5.573.57a13.466,13.466,0,0,0-4.142,1.067c-3.691,1.446-7.377,2.91-11.081,4.321a19.891,19.891,0,0,1-6.405,1.368c-1.433.049-2.871-.03-4.306-.03a6.646,6.646,0,0,1-4.2-1.51c-.8-.647-1.732-1.045-2.5-1.674A5.676,5.676,0,0,0,19.9,178.8a4.591,4.591,0,0,0-4.52,3,15.785,15.785,0,0,0-1.284,6.15,2.878,2.878,0,0,1-1.011,2.467,5.18,5.18,0,0,0-1.489,2.319,19.426,19.426,0,0,0-1.434,4.041,1.15,1.15,0,0,1-.969,1.048c-1.78.173-2.677,1.633-3.882,2.628a.818.818,0,0,0-.012,1.191m101.241-182.4a32.026,32.026,0,0,1,3.207-1.355,15.759,15.759,0,0,0,3.625-1.779c1-.617,1.977-1.281,2.966-1.92a2.209,2.209,0,0,0,1.053-2.394,7.981,7.981,0,0,0-1.665-3.9,11.443,11.443,0,0,0-3.74-2.952,29.547,29.547,0,0,0-3.411-1.656,33.39,33.39,0,0,0-6.082-1.656c-2.513-.338-5.02.462-7.542.645a2.442,2.442,0,0,0-.478.164A26.833,26.833,0,0,0,87.4,6.326a8.31,8.31,0,0,0-1.613,1.6,17.2,17.2,0,0,0-3.479,7.206,31.976,31.976,0,0,0-.447,10.333,7.426,7.426,0,0,0,1.665,4.181A27.959,27.959,0,0,0,88.039,34.5l2.2-.156,1.426-3.783c-.2-.5-.345-.9-.527-1.274a7.257,7.257,0,0,1-.253-4.958,1.779,1.779,0,0,1,1.8-1.478,3.763,3.763,0,0,1,2.205.443c1.136.67,2.251,1.375,3.4,2.08a19.387,19.387,0,0,1,4.494-5.394c.92-.866,1.81-1.763,2.74-2.617,1.054-.967,2.137-1.9,3.21-2.846a2.262,2.262,0,0,1,.411-.285c.028-.016.117.083.174.125-.529,1.853-2.064,3.048-2.786,4.888M92.355,32.213c-.2.768-.4,1.4-.521,2.044a4.954,4.954,0,0,1-1.15,2.764,4.1,4.1,0,0,0-1.152,2.414,19.232,19.232,0,0,1-1.458,5.606,1.647,1.647,0,0,0,.062,1.7,12.514,12.514,0,0,0,3.61,3.845,14.461,14.461,0,0,0,8.889,2.405,1.287,1.287,0,0,0,1.227-.59,6.623,6.623,0,0,1,.4-4.012c.577-1.3.595-2.8,1.475-4.067a16.752,16.752,0,0,1,1.75-.08q2.65.141,5.3.362a2.127,2.127,0,0,0,2.159-1.037,8.248,8.248,0,0,0,1.338-4.673c-.164-.127-.228-.22-.3-.224-.836-.054-1.671-.122-2.508-.133a7.34,7.34,0,0,1-5.909-2.876c-.105-.133-.014-.425-.014-.687,4.8,2.452,5.3,2.564,8.986,1.988a10.649,10.649,0,0,1,3.915-3.715,8.349,8.349,0,0,0,.832-.571,1.183,1.183,0,0,0,.49-1.421c-.627-.521-1.345-1.1-2.047-1.7a4.3,4.3,0,0,1-1.634-3.541c.037-1.181.05-2.362.084-3.542.055-1.854.13-3.709.175-5.564a.823.823,0,0,0-1.083-.726,7.7,7.7,0,0,0-1.09.6,34.253,34.253,0,0,1-3.022,1.835c-2.36,1.116-4.765,2.139-7.162,3.171a7.739,7.739,0,0,0-2.818,2.086,13.045,13.045,0,0,0-2.062,3.164,1.888,1.888,0,0,1-1.771,1.284,6.242,6.242,0,0,1-.61-1.067c-.5-1.475-1.755-1.953-3.046-2.387a.9.9,0,0,0-1.142.7,4.3,4.3,0,0,0,.282,2.961c.978,2.08,2.09,4.055,4.232,5.189a3.685,3.685,0,0,1,.433.261c.136.1.309.19.37.327a1.015,1.015,0,0,1,.129.673.815.815,0,0,1-.541.439,3.053,3.053,0,0,1-2.3-.858c-.915-.7-1.771-1.481-2.8-2.351m56.021,84.047c-2.4-.345-4.641-.765-6.9-.959a24.777,24.777,0,0,0-5.042.083,4.422,4.422,0,0,1-2.893-.581c-3.059-1.778-6.1-3.6-9.159-5.369a17.9,17.9,0,0,0-2.726-1.329c-2.849-1.049-5.706-2.082-8.595-3.012a3.659,3.659,0,0,1-2.8-2.936,30.662,30.662,0,0,0-1.417-4.583q-1.451-4.452-2.931-8.894c-.183-.552-.419-1.087-.657-1.7a10.452,10.452,0,0,0-3.3,1.389c-2.189,1.306-4.408,2.493-7.118,2.03a1.347,1.347,0,0,0-1.419.468,2.016,2.016,0,0,0,.065.665c1.229,2.769,2.45,5.541,3.541,8.37a18.94,18.94,0,0,0,3.037,5.8,4.84,4.84,0,0,1,.764,1.309,10.673,10.673,0,0,0,4.644,5.494,42.3,42.3,0,0,0,5.48,3.118,76.335,76.335,0,0,0,8.5,2.434c1.631.412,3.316.623,4.979.9,3.161.529,6.284,1.3,9.526,1.279a3.841,3.841,0,0,0,2.615-.692c.394.482.692.877,1.022,1.243a3.93,3.93,0,0,0,2.645,1.327c1.511.15,3.009.5,4.521.549a14.226,14.226,0,0,1,5.631,1.414l2.559-.645a47.9,47.9,0,0,0-4.6-2.155,11.8,11.8,0,0,1-1.974-1.087.731.731,0,0,1-.15-.67.852.852,0,0,1,.549-.41,1.325,1.325,0,0,1,.74.044,21.335,21.335,0,0,1,2.833,1.084c1.7.893,3.619,1.475,4.867,3.1.071.094.288.076.44.109.292-.216.489-.46.2-.811a14.885,14.885,0,0,0-4.39-3.372c-1.025-.574-2.062-1.128-3.074-1.68ZM74.486,17.608c-2.992-.436-5.009,1.1-6.5,3.4a10.6,10.6,0,0,0-1.732,6.234,28.147,28.147,0,0,0,.3,4.283,34.519,34.519,0,0,1,.372,8.579,10.745,10.745,0,0,1-2.7,6.928c-.387.416-.7.9-1.182,1.541a5.1,5.1,0,0,0,1.18.084,11.838,11.838,0,0,0,6.67-3.33c.737-.811,1.447-1.647,2.184-2.458A10.151,10.151,0,0,0,75.1,39.4a28.677,28.677,0,0,0,1.851-9.639c.007-1.351.123-2.7.117-4.05a8.469,8.469,0,0,1,.664-3.705,5.135,5.135,0,0,0,.06-3.713,4.721,4.721,0,0,0-4.027,1.811c-1.059,1.183-1.9,2.561-2.841,3.849-.157.214-.207.66-.7.38a5.387,5.387,0,0,1,1.029-2.8c.964-1.348,1.541-3.031,3.233-3.924m74.636,99.046c1.3.765,2.162,1.259,3.009,1.774.93.566,1.845,1.153,2.768,1.728a3.9,3.9,0,0,0,.861.5c.193.059.447-.088.686-.146-1.2-2.5-3.62-3.458-7.324-3.852M79.679,19.222l.313-.02c.064-.566.153-1.13.18-1.7a1.312,1.312,0,0,0-.193-.663c-.091-.158-.455.316-.439.691.025.564.09,1.125.138,1.689" transform="translate(-0.658 0)" fill-rule="evenodd"/>
          <path id="Trazado_841837" data-name="Trazado 841837" d="M102.261,144.325a1.132,1.132,0,0,1,.648,1.41c-.016.07-.092.178-.147.182a.7.7,0,0,1-.447-.044,1.26,1.26,0,0,1-.435-1.313c.022-.1.25-.158.382-.235" transform="translate(-22.464 -31.834)" fill-rule="evenodd"/>
          <path id="Trazado_841838" data-name="Trazado 841838" d="M100.293,141.529a3.089,3.089,0,0,1-.53.645c-.249.159-.585-.195-.529-.608a1.869,1.869,0,0,1,.327-.585l.733.548" transform="translate(-21.887 -31.097)" fill-rule="evenodd"/>
          <path id="Trazado_841839" data-name="Trazado 841839" d="M186.228,244.106l1.932,1.585c-.941.345-1.044.353-1.494.009a1.158,1.158,0,0,1-.438-1.593" transform="translate(-41.042 -53.843)" fill-rule="evenodd"/>
          <path id="Trazado_841840" data-name="Trazado 841840" d="M25.242,238.136l2.373,1.822c-.155.716-.614.655-1.007.693a1.885,1.885,0,0,1-1.576-.6c-.48-.479-.473-.852.21-1.918" transform="translate(-5.447 -52.526)" fill-rule="evenodd"/>
          <path id="Trazado_841841" data-name="Trazado 841841" d="M126.512,11.016c-1.041,2.185-2.059,4.38-3.136,6.546a6.633,6.633,0,0,0-.825,2.613,15.605,15.605,0,0,1-.831,2.861c-.27-.219-.493-.316-.494-.414-.016-1.249,0-2.5.012-3.75a1.334,1.334,0,0,1,.112-.489c1.113-2.627,2.262-5.236,4.509-7.143.165-.14.464-.12.7-.174Z" transform="translate(-26.738 -2.43)" fill-rule="evenodd"/>
          <path id="Trazado_841842" data-name="Trazado 841842" d="M128.058,10.92a3.185,3.185,0,0,1,.348-.554c.044-.048.242.048.369.078-.036.072-.054.187-.11.211-.212.088-.436.146-.656.214Z" transform="translate(-28.236 -2.284)" fill-rule="evenodd"/>
          <path id="Trazado_841843" data-name="Trazado 841843" d="M141.678,34.344a7.048,7.048,0,0,1,.178-.786,1.183,1.183,0,0,1,1.214-.693,1.635,1.635,0,0,1,1.023.581,3.552,3.552,0,0,1,.4,2.415,1.112,1.112,0,0,1-1.364.766,2.1,2.1,0,0,1-1.45-2.283" transform="translate(-31.25 -7.245)" fill-rule="evenodd"/>
          <path id="Trazado_841844" data-name="Trazado 841844" d="M141.372,28.012a6.751,6.751,0,0,1,.91.224.506.506,0,0,1,.244.383.424.424,0,0,1-.259.329c-.736.123-1.478.221-2.221.288-.083.008-.247-.221-.268-.356a.637.637,0,0,1,.148-.435.8.8,0,0,1,.4-.272c.322-.08.655-.106,1.042-.162" transform="translate(-30.831 -6.179)" fill-rule="evenodd"/>
          <path id="Trazado_841845" data-name="Trazado 841845" d="M92.475,29.253a17.754,17.754,0,0,0-.4,8.719,20.114,20.114,0,0,1-1.821,11.773,4.722,4.722,0,0,1-.923,1.161.473.473,0,0,1-.446-.009.524.524,0,0,1-.189-.417,3.046,3.046,0,0,1,.211-.718c.258-.711.486-1.436.792-2.126a19.471,19.471,0,0,0,1.267-9.147,57.669,57.669,0,0,1-.006-5.793,10.729,10.729,0,0,1,.637-2.673,1,1,0,0,1,.931-.725Z" transform="translate(-19.563 -6.452)" fill-rule="evenodd"/>
          <path id="Trazado_841846" data-name="Trazado 841846" d="M88.851,37.565a10.017,10.017,0,0,1,.875,5.512,25.267,25.267,0,0,1-.875-5.512" transform="translate(-19.598 -8.286)" fill-rule="evenodd"/>
          <path id="Trazado_841847" data-name="Trazado 841847" d="M93.6,29.037c-.126-.478.136-.742.554-.972a.666.666,0,0,1-.606.925Z" transform="translate(-20.634 -6.19)" fill-rule="evenodd"/>
          <path id="Trazado_841848" data-name="Trazado 841848" d="M579.621,93.415c-1.07-11.093-4.464-22.267-7.507-32.961-2.638-9.264-6.249-18.288-11.727-26.253-10.446-15.188-28.614-24.684-46.655-27-18.716-2.4-34.424,6.844-43.5,22.926-4.515,8-7.534,16.81-11.288,25.174-4.948,11.026-9.288,22.226-13.414,33.58-3.938,10.839-8.4,21.476-10.115,32.957-1.707,11.416-.005,23.425,2.9,34.5,2.6,9.911,5.355,19.681,11.22,28.226,5.612,8.175,13.485,15.676,22.508,19.892a98.292,98.292,0,0,0,32.444,8.3c9.794.846,20.466,2.108,29.94-1.18,9.542-3.313,16.3-10.3,20.829-18.74a42.39,42.39,0,0,0,6.028-5.929c5.782-7.035,6.446-14.915,6.726-23.655.381-11.857,3.163-23.412,6.606-34.709,3.458-11.341,6.151-23.215,5-35.131" transform="translate(-95.891 -1.505)" fill="#fff"/>
          <path id="Trazado_841849" data-name="Trazado 841849" d="M553.212,169.111a5.588,5.588,0,0,1-1.006-1.037c-1.656-2.922-4.274-4.788-7.048-6.473a17.444,17.444,0,0,0-4.515-1.882,23.566,23.566,0,0,0-2.341,5.889,6.752,6.752,0,0,1-.661,2.066,12.592,12.592,0,0,0-1.319,4.392c-.276,1.669-.475,3.349-.719,5.1a26.783,26.783,0,0,0,2.783,1.852,17.968,17.968,0,0,1,1.769,1.611.455.455,0,0,1,0,.444c-.14.164-.405.4-.543.353a9.021,9.021,0,0,1-1.775-.72c-1.123-.635-2.207-1.338-3.37-2.051a9.981,9.981,0,0,1-1.283.633,7.8,7.8,0,0,1-1.387.178c.413.484.637.953,1,1.141a9.628,9.628,0,0,1,3.571,3.846,9.994,9.994,0,0,1,1.76,3.691,8.388,8.388,0,0,1,.012,1.332c-.849.309-1.189-.18-1.5-.649-.623-.942-1.2-1.91-1.82-2.857-.92-1.416-1.854-2.822-2.78-4.228H526.8c-.458,1.618-.261,3.46-1.778,4.609-.664-.53-.094-1.058-.1-1.559-.146-.025-.331-.118-.433-.062a16.3,16.3,0,0,1-6.387,2.133,12.271,12.271,0,0,1-7.915-1.691,3.428,3.428,0,0,0-2.588-.527c-.307,1.595,1.157,2.953.771,4.617-1.956-1.033-2.266-1.722-3.01-6.608a5.72,5.72,0,0,1-4.211-1.894,2.142,2.142,0,0,0-1.682,1.887,9.039,9.039,0,0,1-1.68,3.466c-.116.168-.38.235-.7.424-.315-2.456.882-4.476,1.418-6.8l-1.572-1.835a6.045,6.045,0,0,0-4.574.891,6.669,6.669,0,0,1-1.312.619,2.62,2.62,0,0,1-.657.089.933.933,0,0,1-.124-1.515,11.411,11.411,0,0,1,2.12-1.591,14.056,14.056,0,0,1,1.991-.822c.358-.732-.845-1.111-.36-2,.232-.426-.195-1.224-.352-1.846a3.209,3.209,0,0,0-.389-1.125,11.305,11.305,0,0,1-1.705-5.236c-.138-.864-.358-1.716-.535-2.549a1.779,1.779,0,0,0-1.715.912,5.331,5.331,0,0,1-2,1.7c-1.534.893-3.016,1.875-4.529,2.8a6.227,6.227,0,0,1-1.1.514c-2.046.756-4.107,1.474-6.143,2.253-.818.313-1.588.747-2.533,1.2a9.393,9.393,0,0,0,.2,1.316c1.056,3.65,1.954,7.36,3.263,10.918a79.093,79.093,0,0,1,2.165,7.687,39.588,39.588,0,0,0,2.131,5.928,93.7,93.7,0,0,1,4.149,10.6,2.708,2.708,0,0,1,.164,1.167,15.083,15.083,0,0,0,.6,5.752c.37,1.739.928,3.436,1.379,5.159a30.972,30.972,0,0,1,1.132,8.393c-.052,3.044-.033,6.094-.022,9.39a.7.7,0,0,1,.435.44c1.254,3.391,6.291,4.087,9.362,4.507,4.239.581,8.518.641,12.786.851,5.6.274,11.05,1.157,16.686.815a81.052,81.052,0,0,0,11.013-1.413c.914-.183,1.828-.4,2.74-.63-.012-1.178,0-2.356.046-3.532.063-1.451.27-2.9.3-4.346a18.554,18.554,0,0,1,.526-4.324c.525-2.027.616-4.15,1.369-6.139a4.244,4.244,0,0,0,.19-1.912,10.48,10.48,0,0,1,.586-4.3,30.691,30.691,0,0,0,1.514-9.289c-.032-4.841,1.308-9.457,2.85-13.972a49.882,49.882,0,0,1,4.03-9.348,19.338,19.338,0,0,0,1.561-3.815c.632-1.92,1.21-3.864,1.692-5.825a11.618,11.618,0,0,0,.239-2.882,3.437,3.437,0,0,0-1.153-2.584c-.6-.545-1.154-1.134-1.728-1.705m-20.495,69.671c-.524.038-.742-.184-.714-.546.1-1.285.347-1.664,1.8-2.62a9.313,9.313,0,0,1-1.085,3.166m2.2-21.306c-.774.228-1.569.383-2.352.582a6.983,6.983,0,0,0-1.846.542,14.532,14.532,0,0,1-4.355,1.4c-1.886.435-3.736,1.03-5.591,1.59-1.161.351-2.313.732-3.447,1.158a17.347,17.347,0,0,1-8.573,1.036c-1.195-.161-2.424-.051-3.634-.131a10.131,10.131,0,0,1-1.775-.546,13.491,13.491,0,0,1,1.838-.444c2.178-.133,4.362-.164,6.535-.354a19.735,19.735,0,0,0,3.552-.7c1.477-.412,2.932-.915,4.374-1.441,4.813-1.757,9.892-2.358,14.858-3.447.2-.044.448.1.774.179-.142.241-.214.535-.359.578m.608,20.316a.638.638,0,0,1-.191-.058,8.5,8.5,0,0,1,.147-.853c.009-.037.146-.043.224-.062.047.066.145.149.13.195a7.878,7.878,0,0,1-.311.779" transform="translate(-104.333 -35.23)" fill="#f56888" fill-rule="evenodd"/>
          <path id="Trazado_841850" data-name="Trazado 841850" d="M474.77,138.938a33.028,33.028,0,0,1-1.175-8.191c.018-5.1-.138-10.2-.18-15.3-.01-1.207.18-2.414.217-3.624.061-2.02.027-4.044.115-6.062.119-2.743.313-5.483.48-8.224a3.784,3.784,0,0,1,.126-.961c.979-2.9.8-5.91.847-8.9a107.118,107.118,0,0,1,2.15-20c.591-2.842.889-5.744,1.359-8.613a30.413,30.413,0,0,1,.719-3.318c.829-2.959,1.705-5.9,2.579-8.851a3.06,3.06,0,0,1,.494-1.091c1.62-1.936,2.056-4.359,2.77-6.662.788-2.543,1.5-5.11,2.29-7.656a6.374,6.374,0,0,1,.76-1.515c.957-1.5,1.948-2.973,2.956-4.5,1.659-.345,3.3-.765,4.973-1a9.564,9.564,0,0,1,2.631.159,10.5,10.5,0,0,0,4.271-.267,13.878,13.878,0,0,1,8.339.284,2.289,2.289,0,0,1,1.693,1.889,9.748,9.748,0,0,0,.29,1.186,2.809,2.809,0,0,1-3.058.617,11.785,11.785,0,0,1-3.364-1.2c-1.339-.817-2.651-.267-3.875.4-.194.106-.215.531-.369.956,1.394.283,2.655.5,3.892.812.435.108,1.036.346,1.175.684a2.141,2.141,0,0,0,1.581,1.328,2.539,2.539,0,0,1,1.083.517c1.536,1.49,3.485,1.525,5.421,1.606,1.051.044,2.107-.01,3.154.069a7.509,7.509,0,0,1,1.6.567c-.553.376-.834.729-1.135.747-2.494.147-4.978.483-7.486-.123a39.506,39.506,0,0,1-5.157-1.283,7.183,7.183,0,0,0-2.115-.358c-.724-.045-1.465.118-2.181.04a4.277,4.277,0,0,0-2.9.873c-.872.569-1.831,1.005-2.853,1.555a14.84,14.84,0,0,1-.155,2.038c-.146.707-.517,1.367-.673,2.074-.666,3-1.384,5.991-1.9,9.016-.645,3.745-1.171,7.513-1.631,11.285-.273,2.242-.351,4.51-.452,6.769a18.306,18.306,0,0,1-.4,3.6c-.306,1.248-.3,2.571-.566,3.831-.337,1.571-.775,3.125-1.251,4.661a6.864,6.864,0,0,0-.429,3.8,9.272,9.272,0,0,1,.072,1.93,10.724,10.724,0,0,0,.072,1.937c.714,3.319-.069,6.427-1.351,9.436a10.127,10.127,0,0,0-.939,4.21c.051,3.232.053,6.456.221,9.693.224,4.292.915,8.511,1.326,12.769a58.279,58.279,0,0,0,.842,6.978,2.464,2.464,0,0,1-1.332,2.835c-1.375.838-2.609,1.9-3.941,2.818a8.425,8.425,0,0,1-1.723.841c-1.806.7-3.624,1.367-5.441,2.037-.751.277-1.513.527-2.46.854" transform="translate(-104.422 -5.263)" fill="#ffdec7" fill-rule="evenodd"/>
          <path id="Trazado_841851" data-name="Trazado 841851" d="M552.521,127.54c.955-5.253,1.869-10.255,2.765-15.259a15.548,15.548,0,0,0,.147-1.687,11.261,11.261,0,0,1,.106-1.692c.716-3.183.626-6.431.843-9.654a7.249,7.249,0,0,0-.608-3.546,19.815,19.815,0,0,1-1.352-6.868,2.473,2.473,0,0,1,.02-.966c.722-2.014.4-4.168.862-6.209a4.753,4.753,0,0,0-.057-2.63,37.845,37.845,0,0,1-1.423-8.334,57.379,57.379,0,0,1-.135-9.193,40.267,40.267,0,0,0-.18-4.351c-.037-.645-.14-1.285-.182-1.93-.171-2.58-.294-5.164-.507-7.74a12.658,12.658,0,0,0-1.066-4.462,4.676,4.676,0,0,1-.535-2.089,3.3,3.3,0,0,0-1.295-2.495c-.891-.922-1.933-1.7-2.866-2.581a3.178,3.178,0,0,0-2.883-.885,49.064,49.064,0,0,1-8.946.492c-.384-.01-.769-.043-1.3-.073,1.119-.8,2.147-1.012,6.1-1.345.147-.535-.3-.643-.619-.772a6.528,6.528,0,0,0-1.612-.511c-2.561-.326-5.125-.649-7.7-.865a23.614,23.614,0,0,0-2.889.21,6.333,6.333,0,0,1-1.668-.138,4.384,4.384,0,0,1-1.053-.6c.878-.525.879-.51,3-.608.967-.045,1.929-.207,2.9-.239,1.048-.034,2.1.023,3.148.041.956.016,1.906.448,3.033-.023-.165-.263-.258-.606-.459-.691a9.755,9.755,0,0,0-1.841-.575,14.867,14.867,0,0,0-3.359-.193,15.391,15.391,0,0,0-3.108-.145,4.288,4.288,0,0,1-1.115-.038c-.409-.684-.094-.984.521-1.247.29.14.65.3,1,.483a3.338,3.338,0,0,0,3.042.125,11.089,11.089,0,0,1,6.413-.6c.624.083,1.256.121,1.885.179.148-.819-.207-1.231-.807-1.352a16.038,16.038,0,0,0-7.915.1,5.473,5.473,0,0,1-1.177.246,1,1,0,0,1-.934-1.352,4.827,4.827,0,0,1,5.747-2.85,41.616,41.616,0,0,0,10.393,2.2c1.906.195,3.507,1.175,5.306,1.606.428.1.769.565,1.15.862.763.595,1.529,1.185,2.288,1.786a5.151,5.151,0,0,1,.912.79c1.436,1.845,2.83,3.724,4.273,5.564.532.677.682,1.657,1.654,2.008.22.079.35.5.454.783.222.608.418,1.226.593,1.849,1.161,4.124,2.405,8.227,3.433,12.384a69.132,69.132,0,0,1,1.175,7.179c.7,5.047,1.341,10.1,2.007,15.152a2.952,2.952,0,0,0,.113.717c1.04,2.546.993,5.223.956,7.895-.042,2.994-.151,5.988-.163,8.981a33.62,33.62,0,0,0,.288,3.368c.086.885.27,1.767.272,2.651a100.2,100.2,0,0,1-.212,10.666,31.612,31.612,0,0,0-.019,3.384c0,.726.063,1.456.015,2.178-.415,6.055-.825,12.111-1.29,18.161a12.975,12.975,0,0,1-1.352,5.138,2.8,2.8,0,0,1-1.955-1.75,6.988,6.988,0,0,0-2.328-2.732c-1.1-.818-2.066-1.811-3.179-2.606a18.462,18.462,0,0,0-4.933-2.558c-.526-.174-1.025-.427-1.787-.75" transform="translate(-115.689 -4.943)" fill="#ffdec7" fill-rule="evenodd"/>
          <path id="Trazado_841852" data-name="Trazado 841852" d="M507.655,142.949a1.676,1.676,0,0,0,1.125-1.716,6.254,6.254,0,0,1,1.111-3.651c.661-1.2,1.414-2.355,2.135-3.525a2.078,2.078,0,0,1,2.239-1.1,4.361,4.361,0,0,0,1.2.038c.188-.024.348-.266.622-.493l-1.359-1.159a28.833,28.833,0,0,1,6.71-5.342c.957.472,1.814.88,2.656,1.316a4.361,4.361,0,0,1,.786.549c.8.675,1.611,1.343,2.38,2.055a3.382,3.382,0,0,1,1.04,1.256,1.237,1.237,0,0,0,1.2.978c.4.045.807.041,1.21.072a7.429,7.429,0,0,1,5.62,2.941c1.125,1.472,2.212,2.971,3.343,4.5-.182.885-.843,1.72-.235,2.57a1.087,1.087,0,0,0,.783.443c.209-.012.4-.383.588-.608.043-.051.005-.162.032-.236a1.982,1.982,0,0,1,2.92-.906,1,1,0,0,1,.341.615c.128,1.712.129,3.363-1.161,4.781a11.454,11.454,0,0,1-3.84,3.266,1.934,1.934,0,0,0-1.288,1.62,2.438,2.438,0,0,1-.438,1.111c-1.511,2.019-2.352,4.408-3.65,6.542a4.2,4.2,0,0,1-1.853,1.815,7.435,7.435,0,0,0-2,1.724,9.076,9.076,0,0,1-3.663,2.29,8.512,8.512,0,0,1-4.762.1c-3.337-.717-5.744-2.848-8.173-4.984a5.176,5.176,0,0,1-.868-1.154,33.019,33.019,0,0,0-4.818-6.354,18.123,18.123,0,0,0-2.46-1.919,21.449,21.449,0,0,1-2.867-2.2,7.729,7.729,0,0,1-2.1-6.691.92.92,0,0,1,.986-.882,8.088,8.088,0,0,1,4.175.987c.745.48,1.533.892,2.334,1.352m15.956,6.4c.966,0,1.934-.027,2.9.007a5.155,5.155,0,0,0,2.746-.8,4.587,4.587,0,0,0,1.108-1.214.452.452,0,0,0-.008-.44c-.163-.137-.467-.321-.592-.256a6.789,6.789,0,0,1-3.444.964c-2.645-.1-5.319.23-7.926-.505-.468-.132-.963-.2-1.271.332-.235.4.147,1.037.779,1.284.223.087.472.105.694.19,1.631.624,3.333.411,5.014.436m2.91-9.9a1.37,1.37,0,0,0,.426-1.8,10.745,10.745,0,0,0-1.125-1.846,2.232,2.232,0,0,0-3.316-.753,4.1,4.1,0,0,0-1.889,2.111.834.834,0,0,0,.6,1.263c.942-.614,1.172-2.038,2.7-2.086l2.609,3.111m-12.934-2.215a1.526,1.526,0,0,0,1.68,1.365,1.558,1.558,0,0,0,1.252-1.785c-.058-.974-.706-1.632-1.5-1.521a1.769,1.769,0,0,0-1.432,1.941m17.471-.81c.018.276.017.435.04.59a1.24,1.24,0,0,0,1.081,1.079,1.209,1.209,0,0,0,1.28-1.122,3.371,3.371,0,0,0-.443-1.532,1.016,1.016,0,0,0-1.74.19,5.273,5.273,0,0,0-.218.8m-6.193,16.739a1.486,1.486,0,0,0-1.893-.663c-.153.045-.233.334-.446.663Z" transform="translate(-110.308 -27.793)" fill="#ffdec7" fill-rule="evenodd"/>
          <path id="Trazado_841853" data-name="Trazado 841853" d="M542.186,131.116c-.974-4.039-2.086-7.765-5.44-10.569a2.551,2.551,0,0,0,.571,2.414,17.5,17.5,0,0,1,2.9,6.335,8.123,8.123,0,0,1,.016,4.437c-.7-.807-1.362-1.484-1.922-2.238a10.421,10.421,0,0,0-5.551-4.069,18.523,18.523,0,0,1-6.12-3.352c-1.014-.794-1.965-1.668-3.011-2.563q.862-1.019,1.638-1.942c-.105-.172-.129-.251-.181-.286s-.165-.078-.217-.051c-2.277,1.188-4.786,1.934-6.872,3.475-1.683,1.242-3.284,2.595-5.242,4.154a7.259,7.259,0,0,1,.3-1.133,35.1,35.1,0,0,1,3.128-5.447,1.059,1.059,0,0,0,.2-1.328c-.235-.334-.707-.108-1.406.486-2.107,1.79-3.141,4.291-4.359,6.64a62.128,62.128,0,0,0-2.645,6.249,13.959,13.959,0,0,0-.689,2.823c-.137.855-.126,1.734-.189,2.751-1.03-.486-1.921-.97-2.858-1.332-.974-.376-1.994-.636-2.88-.911a3.545,3.545,0,0,1-.726-3.289,8.189,8.189,0,0,0,.094-2.414,19.223,19.223,0,0,1,.752-5.246,15.643,15.643,0,0,1,4.846-7.683,23.143,23.143,0,0,1,5.613-3.775,10.3,10.3,0,0,1,2.977-.978c.793-.118,1.561-.4,2.344-.595a36.178,36.178,0,0,1,4.7-1.108c1.907-.209,3.9-.374,5.591.932,4.161,1.578,7.477,4.411,10.79,7.252a8.725,8.725,0,0,0,1.567,1.085,4,4,0,0,1,2.329,3.173c.211,2.087.3,4.187.365,6.284a8.059,8.059,0,0,1-.408,1.819" transform="translate(-110.393 -24.358)" fill="#f5a432" fill-rule="evenodd"/>
          <path id="Trazado_841854" data-name="Trazado 841854" d="M520.553,176.807c1.35.451,2.657.851,3.938,1.324a10.219,10.219,0,0,0,7.566-.15c.662-.263,1.307-.568,1.915-.835.2.221.376.332.373.435a36.445,36.445,0,0,0,.607,6.243,2.736,2.736,0,0,1-.828,2.4,6.973,6.973,0,0,1-2.965,2.028c-4.286,1.369-8.253,1.056-11.706-2.234.112-1.578.163-3.11.343-4.626.178-1.5.487-2.981.758-4.585" transform="translate(-114.577 -38.999)" fill="#ffdec7" fill-rule="evenodd"/>
          <path id="Trazado_841855" data-name="Trazado 841855" d="M541.967,181.843a27.284,27.284,0,0,1-.755-7.4,2.426,2.426,0,0,1,.595-1.775c.923-1.009,1.793-2.068,2.717-3.143.581-.1.7.508,1.013.818.743.73,1.411,1.539,2.168,2.255a3.3,3.3,0,0,1,1.207,2.779,23.809,23.809,0,0,1-.3,2.627,2.074,2.074,0,0,1-1.156,1.47,6.378,6.378,0,0,0-3.15,2.626c-.483,0-1.046.022-1.606-.011a3.126,3.126,0,0,1-.731-.243m3.53-8.885-.521.177,1.159,5.609a2.05,2.05,0,0,0,.851-2.2,5.85,5.85,0,0,0-1.489-3.588" transform="translate(-119.377 -37.39)" fill="#f5a432" fill-rule="evenodd"/>
          <path id="Trazado_841856" data-name="Trazado 841856" d="M602.372,79.514c-.574.475-.414.988-.414,1.439q0,14.44.027,28.879c0,.082,0,.162,0,.243.561,7.016.483,14.059.884,21.078.272,4.776.211,9.537.083,14.307a5.535,5.535,0,0,1-.74,3.076,3.1,3.1,0,0,1-.832-2.477c-.115-2.1-.209-4.2-.239-6.3a71.176,71.176,0,0,0-.461-8.715c-.217-1.592-.065-3.231-.145-4.846-.26-5.25-.553-10.5-.826-15.748-.034-.645-.032-1.294-.031-1.941q.007-12.741.015-25.482c0-.716-.05-1.431-.088-2.461-.439.384-.728.532-.853.766-.725,1.35-1.422,2.716-2.106,4.088-.215.432-.344.907-.546,1.348a.986.986,0,0,1-1.146.674,1.044,1.044,0,0,1-.825-1.065,5.721,5.721,0,0,1,.247-1.882,26.836,26.836,0,0,1,3.913-6.942c.624-.839,1.221-1.7,1.859-2.529.133-.172.4-.241.683-.4a8.653,8.653,0,0,1,2.464,1.86,48.312,48.312,0,0,1,5.224,7.272.883.883,0,0,1,.189.437,2.556,2.556,0,0,1-.207,1.122,1.008,1.008,0,0,1-1.308.286,3.683,3.683,0,0,1-1.641-1.716c-.768-1.233-1.551-2.458-2.368-3.66a4.074,4.074,0,0,0-.814-.707" transform="translate(-131.049 -16.459)" fill="#cf1d2c" fill-rule="evenodd"/>
          <path id="Trazado_841857" data-name="Trazado 841857" d="M543.952,192.113c.8,1.2.574,2.441.372,3.75C543.81,199.205,543,202.5,543,205.93c0,2.5-.311,5-.5,7.494a1.829,1.829,0,0,1-.276.912,1.318,1.318,0,0,1-.768.457.726.726,0,0,1-.567-.347,2.609,2.609,0,0,1-.385-1.122c-.029-1.454-.021-2.91.041-4.364s.27-2.9.3-4.346a18.641,18.641,0,0,1,.526-4.324c.525-2.027.616-4.15,1.369-6.139a4.243,4.243,0,0,0,.191-1.912,10.48,10.48,0,0,1,.585-4.3,30.64,30.64,0,0,0,1.514-9.289c-.032-4.841,1.309-9.457,2.85-13.972a49.808,49.808,0,0,1,4.03-9.348,19.415,19.415,0,0,0,1.561-3.815c.631-1.92,1.21-3.864,1.692-5.825a11.662,11.662,0,0,0,.239-2.882,3.438,3.438,0,0,0-1.154-2.584c-.6-.545-1.154-1.134-1.727-1.705a5.561,5.561,0,0,1-1.006-1.037c-1.656-2.922-4.274-4.788-7.049-6.473a17.459,17.459,0,0,0-4.515-1.882,23.564,23.564,0,0,0-2.341,5.889,6.745,6.745,0,0,1-.662,2.066,12.59,12.59,0,0,0-1.318,4.393c-.276,1.668-.475,3.348-.719,5.1a26.7,26.7,0,0,0,2.783,1.852,17.877,17.877,0,0,1,1.768,1.611.455.455,0,0,1,0,.445c-.14.163-.406.394-.543.352a9.02,9.02,0,0,1-1.775-.72c-1.123-.635-2.207-1.337-3.37-2.051a10.239,10.239,0,0,1-1.283.633,7.9,7.9,0,0,1-1.387.178c.413.485.637.953,1,1.141a9.649,9.649,0,0,1,3.571,3.846,10.017,10.017,0,0,1,1.76,3.691,8.386,8.386,0,0,1,.011,1.332c-.848.309-1.189-.18-1.5-.649-.623-.942-1.2-1.91-1.819-2.857-.921-1.416-1.855-2.822-2.78-4.228H526.1c-.458,1.618-.26,3.46-1.778,4.609-.664-.53-.094-1.058-.1-1.559-.146-.025-.331-.118-.433-.062a16.3,16.3,0,0,1-6.387,2.133,12.27,12.27,0,0,1-7.915-1.691,3.425,3.425,0,0,0-2.588-.526c-.308,1.594,1.157,2.953.771,4.616-1.956-1.033-2.267-1.722-3.01-6.608a5.722,5.722,0,0,1-4.212-1.894,2.142,2.142,0,0,0-1.682,1.887,9.021,9.021,0,0,1-1.68,3.466c-.116.168-.38.235-.7.424-.316-2.456.882-4.475,1.418-6.8l-1.573-1.835a6.043,6.043,0,0,0-4.574.892,6.668,6.668,0,0,1-1.312.618,2.609,2.609,0,0,1-.656.089.932.932,0,0,1-.124-1.514,11.381,11.381,0,0,1,2.12-1.592,14.231,14.231,0,0,1,1.991-.822c.359-.732-.844-1.111-.36-2,.233-.426-.194-1.224-.352-1.846a3.214,3.214,0,0,0-.388-1.125,11.3,11.3,0,0,1-1.705-5.235c-.138-.865-.358-1.716-.535-2.549a1.777,1.777,0,0,0-1.715.911,5.335,5.335,0,0,1-2,1.7c-1.534.893-3.016,1.876-4.53,2.8a6.278,6.278,0,0,1-1.1.515c-2.046.755-4.108,1.473-6.144,2.253-.818.313-1.588.748-2.532,1.2a9.277,9.277,0,0,0,.2,1.316c1.055,3.65,1.953,7.36,3.263,10.919a79.012,79.012,0,0,1,2.164,7.686,39.68,39.68,0,0,0,2.132,5.928,93.987,93.987,0,0,1,4.149,10.6,2.721,2.721,0,0,1,.164,1.168,15.094,15.094,0,0,0,.6,5.751c.37,1.739.929,3.437,1.379,5.159a30.943,30.943,0,0,1,1.132,8.394c-.066,3.884-.016,7.77-.016,12.177a23.638,23.638,0,0,1-1.411-6.41c-.383-2.887-.582-5.8-.977-8.684-.273-2-.73-3.975-1.127-5.957a44.7,44.7,0,0,1-1.339-9.1,2.7,2.7,0,0,0-.1-.956,97.684,97.684,0,0,0-4.75-11.659,22.071,22.071,0,0,1-2.383-7.073,29.07,29.07,0,0,0-1.487-5.613,65.789,65.789,0,0,1-1.938-7.009c-.425-1.724-.684-3.489-1.1-5.214-.124-.51-.594-.924-.8-1.425-.255-.613-.38-1.294.285-1.757,1.111-.773,1.182-1.758.874-2.986a24.573,24.573,0,0,1-.732-6.473c.1-5.1.1-10.2.159-15.3a16.109,16.109,0,0,1,.157-2.663,41.038,41.038,0,0,0,.475-6.532A46.352,46.352,0,0,1,472.6,95.33a4.951,4.951,0,0,0,.122-1.427c-.067-1.532-.268-3.065-.252-4.6A100.753,100.753,0,0,1,474.3,69.025c.681-3.157,1.02-6.388,1.5-9.589a53.428,53.428,0,0,1,3.271-11.9c.691-1.729,1.425-3.441,2.075-5.185.477-1.283.837-2.609,1.271-3.909.486-1.458.993-2.908,1.5-4.36a5.979,5.979,0,0,0,.613-1.823,7.27,7.27,0,0,1,1.331-3.842c.816-1.4,1.726-2.737,2.612-4.091a3.157,3.157,0,0,1,2.313-1.595c1.846-.221,3.686-.511,5.536-.7a3.614,3.614,0,0,1,1.888.2,5.3,5.3,0,0,0,3.779.257,24.13,24.13,0,0,1,7.224-.314,5.378,5.378,0,0,1,4.362,2.291,1.277,1.277,0,0,0,.375.3,1.489,1.489,0,0,0,.383.069c.412-.46.79-1.183,1.379-1.458a6.032,6.032,0,0,0,1.7-1.313,3.009,3.009,0,0,1,2.142-.957c1.611-.051,3.232-.355,4.726.544,2.186.07,4.274.8,6.441.97,1.52.118,3.03.3,4.567.339a8.107,8.107,0,0,1,5.007,2.186,6.637,6.637,0,0,0,.884.825c2.017,1.175,3.23,3.106,4.74,4.785a24.349,24.349,0,0,1,4.348,7.745c.355.9.667,1.826,1.053,2.716a50.02,50.02,0,0,1,3.805,15.734c.366,4.191.928,8.366,1.415,12.546a6.672,6.672,0,0,0,.322,1.661,34.526,34.526,0,0,1,2.217,10.617c.064,1.047.355,2.081.387,3.126a23.463,23.463,0,0,1-.511,6.507,10.463,10.463,0,0,0-.5,4.778,38.266,38.266,0,0,1,.661,9.656c-.115,2.754.028,5.5.066,8.247.044,3.154-.22,6.31-.363,9.466-.1,2.1-.274,4.2-.308,6.308a31.642,31.642,0,0,1-1.146,7.65,24.172,24.172,0,0,0-.538,2.845,2.794,2.794,0,0,0,.206.915,9.424,9.424,0,0,1-.406,5.943c-.346.82-.7,1.638-1.012,2.472a5.1,5.1,0,0,0-.447,1.621,10.878,10.878,0,0,1-1.094,3.942,139,139,0,0,0-5.361,14.057c-.553,1.942-1.172,3.866-1.727,5.808a8.82,8.82,0,0,0-.26,1.675,7.1,7.1,0,0,0,.008,1.455c.594,4.838-.782,9.284-2.776,13.868M536.9,115.327a2.621,2.621,0,0,0,.6.475,2.889,2.889,0,0,1,2.023,3.21c-.03.564.1,1.143.024,1.7a5.946,5.946,0,0,1-.568,2.315c-1.218,1.913-2.545,3.838-4.662,4.825a4.851,4.851,0,0,0-2.406,2.555c-.486,1.02-.935,2.058-1.411,3.083a1.79,1.79,0,0,0-.027,1.64,8.766,8.766,0,0,0,3.832,4.027c.133-.427.231-.712.309-1a26.721,26.721,0,0,1,3.086-7.858c.531-.81,1.091-1.636.528-2.684-.055-.1.037-.306.1-.442a16.018,16.018,0,0,0,1.735-6.205,2.648,2.648,0,0,1,.205-.7,16.6,16.6,0,0,0,.707-4.536,57.946,57.946,0,0,1,.557-7.259,77.511,77.511,0,0,0,.887-8.439c.171-2.53-.613-4.948-.878-7.426a2.239,2.239,0,0,0-.241-.684,8.922,8.922,0,0,1-.652-5.216c.188-1.277.427-2.548.652-3.82a7.781,7.781,0,0,0-.32-4.3,12.767,12.767,0,0,1-.715-2.808,102.1,102.1,0,0,1-.781-13.525c-.035-3.634-.181-7.269-.4-10.9-.093-1.528-.356-3.041-.33-4.588a11.267,11.267,0,0,0-.4-2.632c-.32-1.417-.705-2.818-1.024-4.074-.968-.927-1.855-1.754-2.718-2.6a4.989,4.989,0,0,0-4.889-1.352,13.177,13.177,0,0,1-2.635.322c-3.481.049-6.963.075-10.444.04a11.816,11.816,0,0,1-3.6-.39,20.519,20.519,0,0,0-5.963-.8c-.966-.034-1.925-.242-2.89-.322a28.782,28.782,0,0,0-3.383-.174,3,3,0,0,0-3.027,2.33c-.306,1.09-.722,2.157-.939,3.263-.949,4.841-1.8,9.7-2.776,14.536-.73,3.59-.568,7.239-.855,10.854-.14,1.766-.155,3.543-.446,5.3-.171,1.035-.224,2.093-.437,3.118a21.641,21.641,0,0,1-1.138,4.437,9.49,9.49,0,0,0-.608,5.445c.2,1.436.249,2.9.316,4.352a7.08,7.08,0,0,1-.792,3.511c-1.113,2.214-1.012,4.723-1.8,7.008.087,2.911.157,5.823.27,8.733.056,1.453.3,2.9.268,4.353a62.879,62.879,0,0,0,.7,11.357c.253,1.585.737,3.133,1.133,4.694a.8.8,0,0,0,.278.389,2.792,2.792,0,0,1,.765,1.722c.785,3.036,1.1,6.221,2.792,8.981a8.594,8.594,0,0,1,.425,1.377,39.469,39.469,0,0,0,1.4,3.806c1.335,2.6,3.972,3.631,6.2,5.145a1.756,1.756,0,0,0,.936.17c.564,0,1.129-.069,1.694-.094.622-.029.92.915,1.68.6.892-3.207.292-6.46.6-9.7-.717-.628-1.4-1.2-2.046-1.8a5.9,5.9,0,0,1-1.15-1.238c-1.38-2.369-2.705-4.768-4.109-7.261-.412-.146-.956-.306-1.475-.528a11.8,11.8,0,0,1-6.407-5.988,4.508,4.508,0,0,1-.512-1.841c.026-1.918-.168-3.883.891-5.674a2.92,2.92,0,0,1-.831-2.968,26.816,26.816,0,0,0,.374-4.093c.194-1.843.534-3.672.866-5.5a1.546,1.546,0,0,1,.594-1,4.635,4.635,0,0,0,1.743-2.264c2.34-4.494,6.232-7.193,10.774-8.941a42.065,42.065,0,0,1,7.971-2.027,13.911,13.911,0,0,1,10.462,1.975,22.776,22.776,0,0,0,2.252,1.433,25.656,25.656,0,0,1,7.394,6.213c1.846,2.1,3.751,4.187,3.777,7.332a17.9,17.9,0,0,1-.04,4.085c-.362,1.642-.713,3.287-1.07,4.936M473.985,138.31c.947-.327,1.708-.577,2.46-.854,1.818-.67,3.635-1.339,5.441-2.037a8.425,8.425,0,0,0,1.723-.841c1.332-.913,2.565-1.979,3.94-2.818a2.463,2.463,0,0,0,1.333-2.835,58.28,58.28,0,0,1-.843-6.978c-.41-4.258-1.1-8.476-1.325-12.769-.168-3.237-.171-6.461-.221-9.693a10.13,10.13,0,0,1,.939-4.21c1.282-3.009,2.065-6.116,1.351-9.436a10.719,10.719,0,0,1-.072-1.936,9.337,9.337,0,0,0-.072-1.931,6.872,6.872,0,0,1,.428-3.8c.477-1.536.915-3.09,1.252-4.661.27-1.26.26-2.583.566-3.831a18.356,18.356,0,0,0,.4-3.6c.1-2.26.178-4.527.452-6.769.459-3.772.987-7.54,1.631-11.285.52-3.026,1.238-6.018,1.9-9.016.157-.706.528-1.367.673-2.074A14.84,14.84,0,0,0,496.1,34.9c1.022-.549,1.98-.986,2.853-1.555a4.276,4.276,0,0,1,2.9-.872c.716.077,1.457-.086,2.18-.04a7.158,7.158,0,0,1,2.116.358,39.475,39.475,0,0,0,5.157,1.283c2.508.606,4.991.27,7.486.122.3-.018.581-.37,1.135-.746a7.51,7.51,0,0,0-1.6-.568c-1.047-.079-2.1-.024-3.154-.068-1.936-.082-3.885-.117-5.42-1.607a2.547,2.547,0,0,0-1.083-.516,2.144,2.144,0,0,1-1.581-1.329c-.14-.338-.74-.576-1.175-.684-1.238-.309-2.5-.528-3.893-.811.155-.426.175-.85.37-.956,1.224-.67,2.535-1.221,3.875-.4a11.775,11.775,0,0,0,3.364,1.2,2.81,2.81,0,0,0,3.058-.617,9.759,9.759,0,0,1-.29-1.187,2.287,2.287,0,0,0-1.694-1.888,13.878,13.878,0,0,0-8.339-.284,10.5,10.5,0,0,1-4.271.267,9.56,9.56,0,0,0-2.631-.16c-1.67.236-3.313.656-4.972,1-1.008,1.529-2,3.005-2.956,4.5a6.434,6.434,0,0,0-.76,1.515c-.786,2.545-1.5,5.111-2.29,7.656-.713,2.3-1.15,4.725-2.769,6.661a3.053,3.053,0,0,0-.495,1.091c-.874,2.946-1.749,5.892-2.579,8.851a30.666,30.666,0,0,0-.719,3.318c-.468,2.868-.767,5.771-1.359,8.613a107.172,107.172,0,0,0-2.15,20c-.052,2.988.132,6-.847,8.9a3.741,3.741,0,0,0-.126.961c-.168,2.74-.361,5.48-.48,8.223-.088,2.019-.055,4.043-.115,6.063-.036,1.209-.226,2.416-.217,3.624.043,5.1.2,10.2.18,15.3a33.029,33.029,0,0,0,1.175,8.19m66.485-11.078c.762.323,1.261.576,1.787.749a18.487,18.487,0,0,1,4.933,2.559c1.113.794,2.083,1.787,3.179,2.606a6.993,6.993,0,0,1,2.327,2.732,2.8,2.8,0,0,0,1.956,1.75,12.975,12.975,0,0,0,1.352-5.138c.465-6.051.875-12.107,1.289-18.161.049-.723-.013-1.452-.014-2.178a31.612,31.612,0,0,1,.019-3.384,100.2,100.2,0,0,0,.212-10.666c0-.884-.186-1.767-.272-2.651a33.62,33.62,0,0,1-.288-3.368c.012-2.994.121-5.988.162-8.981.037-2.672.084-5.349-.956-7.895a2.952,2.952,0,0,1-.113-.717c-.666-5.051-1.312-10.105-2.007-15.152a69.132,69.132,0,0,0-1.175-7.179c-1.028-4.157-2.273-8.26-3.433-12.384-.175-.623-.371-1.241-.593-1.849-.1-.286-.235-.7-.454-.783-.972-.351-1.122-1.33-1.654-2.008-1.443-1.839-2.836-3.719-4.273-5.564a5.151,5.151,0,0,0-.912-.79c-.758-.6-1.525-1.191-2.288-1.786-.381-.3-.722-.76-1.15-.862-1.8-.432-3.4-1.412-5.306-1.606a41.616,41.616,0,0,1-10.393-2.2,4.827,4.827,0,0,0-5.747,2.85,1,1,0,0,0,.934,1.352,5.483,5.483,0,0,0,1.177-.246,16.035,16.035,0,0,1,7.914-.1c.6.121.956.532.808,1.352-.63-.058-1.261-.1-1.885-.179a11.089,11.089,0,0,0-6.413.6,3.338,3.338,0,0,1-3.042-.125c-.351-.182-.711-.344-1-.483-.614.263-.93.564-.521,1.247a4.288,4.288,0,0,0,1.115.038,15.334,15.334,0,0,1,3.108.145,14.867,14.867,0,0,1,3.359.193,9.755,9.755,0,0,1,1.841.575c.2.085.294.429.459.691-1.127.472-2.077.04-3.033.023-1.049-.017-2.1-.074-3.148-.041-.967.031-1.929.193-2.9.239-2.116.1-2.117.083-3,.608a4.384,4.384,0,0,0,1.053.6,6.333,6.333,0,0,0,1.668.138,23.613,23.613,0,0,1,2.889-.21c2.572.216,5.136.539,7.7.865a6.528,6.528,0,0,1,1.612.511c.314.129.765.237.619.772-3.952.334-4.98.548-6.1,1.345.529.03.914.063,1.3.073a49.134,49.134,0,0,0,8.946-.492,3.178,3.178,0,0,1,2.883.885c.933.885,1.975,1.659,2.866,2.581a3.3,3.3,0,0,1,1.295,2.495,4.667,4.667,0,0,0,.535,2.089,12.658,12.658,0,0,1,1.066,4.462c.214,2.576.336,5.16.507,7.74.043.645.146,1.285.182,1.93a40.267,40.267,0,0,1,.18,4.351,57.379,57.379,0,0,0,.135,9.193,37.9,37.9,0,0,0,1.422,8.334,4.753,4.753,0,0,1,.058,2.63c-.461,2.041-.14,4.195-.862,6.209a2.473,2.473,0,0,0-.02.966,19.815,19.815,0,0,0,1.352,6.868,7.249,7.249,0,0,1,.608,3.546c-.217,3.223-.128,6.471-.843,9.654a11.261,11.261,0,0,0-.106,1.692,15.768,15.768,0,0,1-.147,1.687c-.9,5-1.811,10.005-2.765,15.259m-39.486-7.44c-.8-.461-1.588-.873-2.334-1.353a8.088,8.088,0,0,0-4.175-.987.92.92,0,0,0-.986.882,7.729,7.729,0,0,0,2.1,6.691,21.562,21.562,0,0,0,2.866,2.2,18.077,18.077,0,0,1,2.461,1.918,33.074,33.074,0,0,1,4.818,6.354,5.153,5.153,0,0,0,.868,1.154c2.429,2.136,4.836,4.267,8.173,4.984a8.512,8.512,0,0,0,4.762-.1,9.069,9.069,0,0,0,3.663-2.29,7.437,7.437,0,0,1,2-1.724,4.21,4.21,0,0,0,1.853-1.814c1.3-2.135,2.139-4.523,3.65-6.542a2.444,2.444,0,0,0,.438-1.112,1.932,1.932,0,0,1,1.288-1.62,11.472,11.472,0,0,0,3.84-3.266c1.291-1.419,1.289-3.069,1.161-4.782a1,1,0,0,0-.341-.615,1.982,1.982,0,0,0-2.92.906c-.026.074.011.185-.032.236-.185.225-.38.6-.588.608a1.087,1.087,0,0,1-.783-.443c-.608-.85.053-1.685.235-2.57-1.131-1.525-2.218-3.024-3.343-4.495a7.429,7.429,0,0,0-5.62-2.942c-.4-.03-.809-.027-1.21-.072a1.237,1.237,0,0,1-1.2-.978,3.382,3.382,0,0,0-1.04-1.256c-.768-.712-1.578-1.38-2.38-2.055a4.389,4.389,0,0,0-.786-.549c-.843-.436-1.7-.844-2.656-1.316a28.856,28.856,0,0,0-6.711,5.342l1.359,1.159c-.274.228-.434.469-.622.493a4.361,4.361,0,0,1-1.2-.038,2.078,2.078,0,0,0-2.239,1.1c-.722,1.169-1.474,2.322-2.135,3.525a6.254,6.254,0,0,0-1.111,3.651,1.676,1.676,0,0,1-1.125,1.716m34.447-8.4a8.108,8.108,0,0,0,.408-1.819c-.068-2.1-.154-4.2-.366-6.284a4,4,0,0,0-2.328-3.174,8.677,8.677,0,0,1-1.568-1.085c-3.313-2.841-6.628-5.673-10.79-7.251-1.694-1.306-3.684-1.141-5.591-.932a36.316,36.316,0,0,0-4.7,1.107c-.783.195-1.55.477-2.344.595a10.343,10.343,0,0,0-2.977.978,23.146,23.146,0,0,0-5.613,3.776,15.638,15.638,0,0,0-4.846,7.683,19.193,19.193,0,0,0-.752,5.246,8.19,8.19,0,0,1-.094,2.414,3.541,3.541,0,0,0,.726,3.288c.886.276,1.906.535,2.879.912.938.362,1.829.846,2.858,1.331.064-1.016.053-1.895.19-2.75a13.967,13.967,0,0,1,.688-2.824,62.49,62.49,0,0,1,2.645-6.248c1.218-2.349,2.253-4.85,4.359-6.64.7-.594,1.171-.819,1.405-.486a1.059,1.059,0,0,1-.2,1.329,35.164,35.164,0,0,0-3.127,5.447,7.24,7.24,0,0,0-.3,1.133c1.958-1.559,3.559-2.912,5.242-4.154,2.087-1.541,4.6-2.287,6.871-3.475a.274.274,0,0,1,.217.051c.053.035.076.114.182.286l-1.638,1.942c1.046.895,2,1.769,3.01,2.563A18.521,18.521,0,0,0,526,107.7a10.429,10.429,0,0,1,5.552,4.069c.56.754,1.223,1.431,1.921,2.238a8.111,8.111,0,0,0-.016-4.438,17.5,17.5,0,0,0-2.9-6.335,2.551,2.551,0,0,1-.572-2.413c3.355,2.8,4.466,6.53,5.44,10.569m-25.818,31.05c-.27,1.6-.579,3.087-.758,4.585-.18,1.516-.231,3.048-.343,4.627,3.453,3.289,7.42,3.6,11.707,2.233a6.976,6.976,0,0,0,2.964-2.028,2.733,2.733,0,0,0,.828-2.4,36.365,36.365,0,0,1-.606-6.243c0-.1-.177-.214-.373-.435-.608.267-1.253.571-1.915.835a10.219,10.219,0,0,1-7.566.15c-1.281-.473-2.588-.873-3.938-1.324m16.615,6.645a3.148,3.148,0,0,0,.731.243c.56.033,1.122.011,1.606.011a6.368,6.368,0,0,1,3.149-2.625,2.079,2.079,0,0,0,1.157-1.471,23.986,23.986,0,0,0,.3-2.627,3.3,3.3,0,0,0-1.207-2.779c-.756-.716-1.424-1.525-2.168-2.255-.314-.309-.431-.921-1.013-.818-.924,1.076-1.794,2.134-2.717,3.144a2.429,2.429,0,0,0-.595,1.774,27.284,27.284,0,0,0,.755,7.4" transform="translate(-103.638 -4.635)" fill-rule="evenodd"/>
          <path id="Trazado_841858" data-name="Trazado 841858" d="M511.936,239.234a13.491,13.491,0,0,1,1.838-.444c2.177-.133,4.362-.164,6.535-.354a19.727,19.727,0,0,0,3.551-.7c1.478-.412,2.933-.914,4.375-1.441,4.813-1.757,9.892-2.358,14.857-3.447.2-.044.449.1.775.18-.143.24-.214.535-.359.577-.774.228-1.568.383-2.351.582a6.983,6.983,0,0,0-1.846.542,14.553,14.553,0,0,1-4.355,1.4c-1.885.434-3.736,1.029-5.591,1.59-1.16.35-2.313.731-3.447,1.157a17.343,17.343,0,0,1-8.572,1.036c-1.2-.161-2.425-.051-3.634-.131a10.111,10.111,0,0,1-1.775-.546" transform="translate(-112.919 -51.358)" fill-rule="evenodd"/>
          <path id="Trazado_841859" data-name="Trazado 841859" d="M550.5,257.1a9.3,9.3,0,0,1-1.085,3.166c-.524.038-.741-.184-.714-.546.1-1.284.347-1.664,1.8-2.62" transform="translate(-121.027 -56.708)" fill-rule="evenodd"/>
          <path id="Trazado_841860" data-name="Trazado 841860" d="M553.349,258.639c.047.066.146.148.13.195a7.933,7.933,0,0,1-.311.779.66.66,0,0,1-.191-.058,8.48,8.48,0,0,1,.147-.853c.009-.036.146-.042.224-.062" transform="translate(-121.972 -57.049)" fill-rule="evenodd"/>
          <path id="Trazado_841861" data-name="Trazado 841861" d="M492.695,267.282c-.016-.281-.034-.564-.05-.846l.259-.017q.033.422.066.845l-.275.019" transform="translate(-108.664 -58.765)" fill-rule="evenodd"/>
          <path id="Trazado_841862" data-name="Trazado 841862" d="M528.409,155.182c-1.681-.026-3.383.188-5.014-.436-.223-.085-.472-.1-.695-.19-.633-.246-1.014-.88-.779-1.283.308-.528.8-.465,1.271-.333,2.607.736,5.281.4,7.926.505a6.78,6.78,0,0,0,3.444-.963c.125-.065.429.118.592.255a.453.453,0,0,1,.008.441,4.584,4.584,0,0,1-1.108,1.214,5.155,5.155,0,0,1-2.746.8c-.965-.034-1.932-.007-2.9-.007" transform="translate(-115.106 -33.63)" fill-rule="evenodd"/>
          <path id="Trazado_841863" data-name="Trazado 841863" d="M532.3,141.883l-2.609-3.111c-1.524.048-1.753,1.472-2.7,2.086a.834.834,0,0,1-.6-1.263,4.1,4.1,0,0,1,1.889-2.111,2.232,2.232,0,0,1,3.316.753,10.745,10.745,0,0,1,1.125,1.846,1.37,1.37,0,0,1-.426,1.8" transform="translate(-116.085 -30.23)" fill-rule="evenodd"/>
          <path id="Trazado_841864" data-name="Trazado 841864" d="M517.4,139.855a1.769,1.769,0,0,1,1.432-1.941c.793-.111,1.442.546,1.5,1.521a1.558,1.558,0,0,1-1.252,1.785,1.526,1.526,0,0,1-1.68-1.365" transform="translate(-114.124 -30.418)" fill-rule="evenodd"/>
          <path id="Trazado_841865" data-name="Trazado 841865" d="M539.819,138.974a5.179,5.179,0,0,1,.218-.8,1.016,1.016,0,0,1,1.74-.19,3.376,3.376,0,0,1,.443,1.533,1.208,1.208,0,0,1-1.281,1.122,1.24,1.24,0,0,1-1.081-1.079c-.022-.155-.021-.314-.039-.59" transform="translate(-119.069 -30.346)" fill-rule="evenodd"/>
          <path id="Trazado_841866" data-name="Trazado 841866" d="M531.212,160.625h-2.339c.213-.33.293-.618.446-.663a1.486,1.486,0,0,1,1.893.663" transform="translate(-116.655 -35.258)" fill-rule="evenodd"/>
          <path id="Trazado_841867" data-name="Trazado 841867" d="M546.563,173.934a5.85,5.85,0,0,1,1.489,3.588,2.05,2.05,0,0,1-.851,2.2l-1.159-5.609.521-.177" transform="translate(-120.442 -38.365)" fill-rule="evenodd"/>
          <path id="Trazado_841868" data-name="Trazado 841868" d="M458.464,136.055c-.046-2.344-.1-4.685-.112-7.029-.015-2.647.756-5.164.692-7.78a.43.43,0,0,0-.859,0c.041,2.573-.965,5.191-1.2,7.78-.292,3.239-.269,6.506-.405,9.753-.151,3.568-1.009,10.074,1.8,12.836a.7.7,0,0,0,1.161-.675,126.436,126.436,0,0,1-1.08-14.885" transform="translate(-100.657 -26.652)" fill="#cf1d2c" fill-rule="evenodd"/>
          <path id="Trazado_841869" data-name="Trazado 841869" d="M464.641,125.139a71.238,71.238,0,0,0,.072-8.871c-.033-.352-.6-.493-.663-.09-.846,5.294-2.493,11.9-1.035,17.138a.607.607,0,0,0,1.162,0c.731-2.617.379-5.471.464-8.177" transform="translate(-102.001 -25.572)" fill="#cf1d2c" fill-rule="evenodd"/>
          <path id="Trazado_841870" data-name="Trazado 841870" d="M596.664,165.183c-.2-4.327-.271-8.659-.344-12.991a.622.622,0,0,0-1.242,0c-.072,4.33-.146,8.66-.149,12.991,0,4.295-.256,9,.977,13.149a.6.6,0,0,0,1.166-.158c.494-4.235-.215-8.733-.408-12.991" transform="translate(-131.22 -33.437)" fill="#cf1d2c" fill-rule="evenodd"/>
          <path id="Trazado_841871" data-name="Trazado 841871" d="M610.2,130.541a.567.567,0,0,0-1.133,0c-.073,4.706-1.38,10.35.676,14.789.209.451.876.2.885-.239.105-4.813-.418-9.714-.429-14.55" transform="translate(-134.238 -28.673)" fill="#cf1d2c" fill-rule="evenodd"/>
          <path id="Trazado_841872" data-name="Trazado 841872" d="M330.443,140.879c9.216-3.571,16.317-11.931,23.288-18.521,3.494-3.3,5.212-7.791,7.214-12.052,2.438-5.187,4.635-10.452,5.569-16.138,1.914-11.655-1.164-22.606-2.45-34.182-1.085-9.773-4.2-18.987-10.38-26.734-6.275-7.87-15.8-11.511-25.276-13.872-20.216-5.036-41.225,1.668-56.829,14.963-9.157,7.8-15.7,18.463-20.119,29.538-5.387,13.49-6.228,27.543.708,40.574,12.587,23.639,47.247,43.868,74.682,37.533a26.23,26.23,0,0,0,3.592-1.109" transform="translate(-54.524 -3.905)" fill="#fff"/>
          <path id="Trazado_841873" data-name="Trazado 841873" d="M336.331,83.632a18.511,18.511,0,0,0-4.525,2.486,2.925,2.925,0,0,1-1.184.426,9.923,9.923,0,0,0-1.465.281A79.12,79.12,0,0,0,316.4,93.283c.705,3,1.365,6,2.132,8.97a14.048,14.048,0,0,0,1.227,3.628,2.862,2.862,0,0,0,.751-.017,51.476,51.476,0,0,1,9.309-1.748,73.832,73.832,0,0,1,9.9-.535c.786-.011,1.578-.072,2.065.813.123.224.617.253.945.354s.69.163,1.02.286a.418.418,0,0,1,.227.328c-.03.187-.125.472-.256.514a7.883,7.883,0,0,1-1.457.293,12.886,12.886,0,0,1-1.3.025c-.327.544.406.648.426,1.03.01.2.019.46-.093.573a.62.62,0,0,1-.572.122,29.6,29.6,0,0,1-2.751-1.684,4.309,4.309,0,0,0-2.177-.814,19.161,19.161,0,0,0-5.8.266,7.567,7.567,0,0,1-1.059.2,36.962,36.962,0,0,0-8.666,1.659,3.507,3.507,0,0,1-1.7.22c-1.722-.409-3.415.087-5.121.028-1.652-.058-3.308.023-4.866.041-1.4.963-1.9,2.46-2.783,3.66-.341.462-.534,1.093-.966,1.417-1.716,1.287-1.735,3.052-1.385,4.847a42.485,42.485,0,0,0,1.267,4.348c.34,1.1.783,2.168,1.055,3.281a5.542,5.542,0,0,0,1.577,2.993c.857.772.952,1.918,1.248,2.928a61.457,61.457,0,0,1,1.582,7.574c.376,2.34.916,4.653,1.388,6.977a38.075,38.075,0,0,1,.344,5.949c6.231,1.822,13.039.393,19.384-.188a81.068,81.068,0,0,0,10.3-1.4,26.755,26.755,0,0,0,4.355-1.274,12.972,12.972,0,0,0,1.7-.883q.545-5.32,1.11-10.638.549-5.149,1.128-10.294c.12-1.071.291-2.136.429-3.2.353-2.71.726-5.417,1.042-8.131.224-1.926.37-3.861.545-5.793a14.568,14.568,0,0,1,.921-4.626,9.339,9.339,0,0,0,.666-2.931,25.025,25.025,0,0,0-.68-8.779,13.087,13.087,0,0,0-7.307-8.865,24.632,24.632,0,0,0-4.375-1.766,7.147,7.147,0,0,0-4.8.6m-20.808,64.812a2.809,2.809,0,0,1-.247.821.593.593,0,0,1-.486.26.677.677,0,0,1-.383-.418,2.8,2.8,0,0,1-.1-.655c.048-.952.287-1.4.652-1.4.461.006.722.625.567,1.388m1.26,2.263a1.884,1.884,0,0,1,.042-1.51c.863.534.853.868-.042,1.51m15.2-18.595c-2.419.257-4.829.644-7.253.8-2.5.157-5.009.114-7.514.126a4.56,4.56,0,0,1-2.317-1.024,6.071,6.071,0,0,1,.97-.217c2.292-.032,4.588.03,6.875-.094,1.78-.094,3.545-.456,5.324-.616,1.494-.133,3-.183,4.5-.194a11.614,11.614,0,0,1,2.041.422,5.005,5.005,0,0,1-2.626.8M347.6,91.095l.159,0,.009.751h-.159ZM344.889,90a.4.4,0,0,1,.372-.046.822.822,0,0,1,.036,1.387.665.665,0,0,1-.194.053c-.068-.019-.154-.019-.2-.062A.987.987,0,0,1,344.889,90" transform="translate(-66.894 -18.275)" fill="#f56888" fill-rule="evenodd"/>
          <path id="Trazado_841874" data-name="Trazado 841874" d="M282.788,104.63c1.5-2.15,2.307-4.567,3.942-6.4a.688.688,0,0,1,.571.875,5.3,5.3,0,0,1-.383,1.441,29.471,29.471,0,0,1-1.638,3.5,5.313,5.313,0,0,0-.644,3.1c.045,1.146.031,2.295.068,3.441a11.062,11.062,0,0,1-.756,4.85,33.021,33.021,0,0,0-1.159,3.468,5.863,5.863,0,0,0,.142,3.4c.823,2.829,1.7,5.642,2.471,8.485a19.017,19.017,0,0,1,.926,5.288,1.259,1.259,0,0,0,.091.632c1.181,1.955,1.251,4.263,2.047,6.338.146.381.358.737.614,1.255.213-.292.392-.427.41-.581a11.41,11.41,0,0,0-.221-4.069c-.263-1.045-.458-2.11-.756-3.144a4.122,4.122,0,0,1-.02-2.313c.754-2.849,1.412-5.722,2.125-8.581.139-.551.359-1.082.6-1.78l4.465,2.026c.331.982.693,2.068,1.062,3.15a12.651,12.651,0,0,0,.875,2.427,6.79,6.79,0,0,1,.067,6.758c-1.037,2.211-2.123,4.4-3.3,6.541a13.739,13.739,0,0,0-1.839,3.609c-1.507,2.179-2.759,4.547-4.7,6.407a15.241,15.241,0,0,1-1.5,1.222,2.774,2.774,0,0,1-3.714.026c-.919-.687-1.818-1.405-2.772-2.041a8.671,8.671,0,0,1-3.525-4.986,30.776,30.776,0,0,1-1.3-8.709c-.009-5.251-.207-10.5-.308-15.753a26.072,26.072,0,0,0-1.054-6.353c-.225-.828-.485-1.648-.68-2.482-.451-1.928-1.628-3.512-2.484-5.245a6.16,6.16,0,0,1-.731-3.693,13.114,13.114,0,0,0-.589-6.807,2.175,2.175,0,0,1-.135-.628,3.486,3.486,0,0,1,.089-.637c.809-.549,1.741-1.185,3.022-2.057-.634,1.883-1.691,3.236-1.47,4.94.184,1.417.295,2.843.461,4.262.01.091.214.16.422.3a2.719,2.719,0,0,0,.307-.726c.111-1.217.217-2.437.262-3.658a5.725,5.725,0,0,1,3.3-4.943,1.849,1.849,0,0,1,1.812.1,9.2,9.2,0,0,1-1.373,1.392c-1.388.894-1.793,2.38-2.367,3.752a.971.971,0,0,0,.571,1.276,2.306,2.306,0,0,0,1.34-1.56c.706-1.675,2.111-2.694,3.367-3.853a22.1,22.1,0,0,1,1.885-1.415c.338.341-.03.505-.133.727-.539,1.168-1.169,2.3-1.591,3.514-.328.94-.129,1.212.8,2.073.238-.548.475-1.043.671-1.553a12.615,12.615,0,0,1,2.433-4.284c.869-.928.977-.953,2.412-.05a9.711,9.711,0,0,1-1.759,3.111,9.275,9.275,0,0,0-1.363,2.909,1.341,1.341,0,0,0,.637,1.7" transform="translate(-59.344 -21.23)" fill="#ffdec7" fill-rule="evenodd"/>
          <path id="Trazado_841875" data-name="Trazado 841875" d="M318.92,52.066C320.3,51.794,321,50.7,321.7,49.6c1.162-1.815,2.348-3.615,3.535-5.415.193-.292.434-.552.638-.808.684.033.86.568,1.153.933a16.855,16.855,0,0,0,4.072,3.813,20.058,20.058,0,0,0,5.388,2.138,18.788,18.788,0,0,1,6.74,3.7,13.464,13.464,0,0,1,2.074,2.458,1.733,1.733,0,0,1,.277,1,22.031,22.031,0,0,1-1.3,8.03c-.524,1.333-.906,2.722-1.406,4.065a13.269,13.269,0,0,1-.882,1.721,4,4,0,0,1-2.556,2.089,17.823,17.823,0,0,0-3.838,1.93,5.008,5.008,0,0,1-2.443.673,14.671,14.671,0,0,1-6.715-1.253,7.469,7.469,0,0,0-1.22-.421,7.809,7.809,0,0,1-4.839-3.713c-1.5-2.528-2.79-5.185-4.154-7.793a2.815,2.815,0,0,1-.178-2.694c1.339-2.491,1.877-5.265,2.872-7.987m15.146,15.112a7.2,7.2,0,0,1-5.7-1.053c-.746-.419-1.515-.8-2.3-1.152a.59.59,0,0,0-.534.217.6.6,0,0,0,.076.578,12.061,12.061,0,0,0,5.789,3.107,8.208,8.208,0,0,0,1.713.077,2.962,2.962,0,0,0,2.66-1.537c.47-.8,1.027-1.558,1.486-2.368a2.193,2.193,0,0,0,.211-1.023.589.589,0,0,0-.927-.435,4.058,4.058,0,0,0-.663.827c-.635.949-1.256,1.906-1.818,2.762m-2.023-3.938a11.9,11.9,0,0,0-1.508-1.569c-1.108-.761-1.55-1.615-.843-2.9a2.964,2.964,0,0,0,.089-2.5,1.189,1.189,0,0,0-.739-.631c-.382-.1-.645.235-.744.6-.273,1.032-.574,2.06-.771,3.107a2.7,2.7,0,0,0,.041,1.668,6.166,6.166,0,0,0,1.7,1.877,2.768,2.768,0,0,0,2.779.341M320.82,58.805a3.985,3.985,0,0,0,.062.587,1.318,1.318,0,0,0,2.623-.242,4.612,4.612,0,0,0-.648-1.753,1.162,1.162,0,0,0-1.457-.563c-.525.274-.569.773-.587,1.281-.005.141,0,.284.008.689m14.288-1.655a1.894,1.894,0,0,0,.166.818,2.014,2.014,0,0,0,.918.793,1.106,1.106,0,0,0,1.265-.563,1.99,1.99,0,0,0,.265-1.633,1.586,1.586,0,0,0-1.444-1.341c-.664-.011-1.138.591-1.175,1.5,0,.071,0,.143,0,.429m-14.8-2.9c.8-.2,1.6-.376,2.377-.626.2-.063.314-.369.468-.564-.155-.118-.313-.342-.461-.337a11.074,11.074,0,0,0-2.067.21c-.516.122-.567.533-.317,1.316m13.765-1.748,2.872-.535a.452.452,0,0,0,.03-.169.842.842,0,0,0-1.106-.712,7.435,7.435,0,0,0-1.731.74c-.09.048-.041.364-.065.677" transform="translate(-69.652 -9.568)" fill="#ffdec7" fill-rule="evenodd"/>
          <path id="Trazado_841876" data-name="Trazado 841876" d="M321.161,49.883c-.005-.023-.006-.044-.012-.065-.011.009-.023.018-.034.028Z" transform="translate(-70.829 -10.989)" fill="#f5a432"/>
          <path id="Trazado_841877" data-name="Trazado 841877" d="M350.081,35.249A11.4,11.4,0,0,0,348.8,31.4a22.128,22.128,0,0,0-3.483-4.891,11.5,11.5,0,0,0-4.272-3.184c-1.5-.507-2.976-1.064-4.483-1.539-1.025-.323-2.076-.571-3.126-.8-2.842-.632-5.73-.386-8.6-.355a4.453,4.453,0,0,0-2.629.764,19.431,19.431,0,0,1-3.222,1.652,12.738,12.738,0,0,0-1.37.6c-2.844,2.113-5.49,4.42-7.182,7.626-.335.635-.716,1.247-1.089,1.861a19.725,19.725,0,0,0-2.564,6.567,26.65,26.65,0,0,0-.4,3.2,8.8,8.8,0,0,0,1.267,5.988,13.6,13.6,0,0,1,1.221,2.74,4.65,4.65,0,0,0,1.207,1.854l1.376-.306a21.4,21.4,0,0,1-.783-5.6c1.112.643,1.114,1.588,1.321,2.429a5.4,5.4,0,0,0,1.108,2.717,18.669,18.669,0,0,0,.782-1.889c.776-2.694,1.469-5.411,2.283-8.094.458-1.507,1.071-2.97,1.652-4.437a3.16,3.16,0,0,1,1.661-1.846,29.877,29.877,0,0,1-1.1,4.259,4.989,4.989,0,0,0-.49,2.652,3.952,3.952,0,0,0,.724-.645q1.817-2.544,3.583-5.124c.4-.588.742-1.219,1.14-1.811.143-.212.352-.483.567-.522a2.818,2.818,0,0,0,1.532-1.121c.33-.357.612-.761.916-1.143a3.133,3.133,0,0,1-.279,2.087c-.355.606-.791,1.164-1.246,1.82a15.69,15.69,0,0,0,6.136,5.359,23.894,23.894,0,0,0,3.86,1.359,18,18,0,0,1,9.258,6.109l1.05-.09a6.033,6.033,0,0,0,.065-1.129,12.51,12.51,0,0,0-1.39-5.161c-.244-.384-.353-.815.336-1,2.217,1.974,2.025,4.9,2.746,7.472a2.182,2.182,0,0,0,.479-.23,2.361,2.361,0,0,0,.411-.495,15.871,15.871,0,0,0,2.705-9.136,42.372,42.372,0,0,0-.4-4.71" transform="translate(-67.568 -4.533)" fill="#f5a432"/>
          <path id="Trazado_841878" data-name="Trazado 841878" d="M377.03,71.853a5.691,5.691,0,0,1-1.27-1.146,11.5,11.5,0,0,1-2.492-6.968,51.026,51.026,0,0,1,.7-8.8,43.2,43.2,0,0,0,.845-10.07,3.776,3.776,0,0,0-.543-2.264,15.449,15.449,0,0,0-3.874-3.976,6.035,6.035,0,0,0-6-.631,6.017,6.017,0,0,0-.033.991c.422,3.418.9,6.833-.447,10.174-.08.2-.085.425-.161.625a3.948,3.948,0,0,0-.039,2.72,17.2,17.2,0,0,1,.755,5.085c.026,2.586.143,5.173.284,7.755.136,2.506,1.458,6.053,4.2,7.615a7.3,7.3,0,0,0,4.1,1.065c1.843-.094,3.757.163,5.424-1.237-.529-.341-1.012-.61-1.447-.943" transform="translate(-80.177 -8.267)" fill="#f5a432"/>
          <path id="Trazado_841879" data-name="Trazado 841879" d="M312.05,97.728c.91,1.157.613,2.555,1.037,3.755a34.882,34.882,0,0,1,.7,3.581c.295,1.246.7,2.467,1.026,3.6a1.685,1.685,0,0,1-1.566.825c-5.453.016-10.907.064-16.359.048a34.933,34.933,0,0,1-4.286-.318,1.743,1.743,0,0,1-1.69-2.068,5.194,5.194,0,0,1,1.012-3.222,9.546,9.546,0,0,0,1.652-2.491,3.121,3.121,0,0,1,2.9-2.109c1.561-.219,3.126-.422,4.676-.707,3.255-.6,6.574-.448,9.842-.881a9.049,9.049,0,0,1,1.051-.019" transform="translate(-64.168 -21.555)" fill="#ffdec7" fill-rule="evenodd"/>
          <path id="Trazado_841880" data-name="Trazado 841880" d="M293.8,94.172c-.521-.6-.978-1.137-1.521-1.771a19.541,19.541,0,0,1,3.008-3.491c2.7-2.362,5.472-4.64,8.224-6.942a7.167,7.167,0,0,1,1.235-.858,2.351,2.351,0,0,1,1.207-.378,29.277,29.277,0,0,1,4.239.655,4.358,4.358,0,0,1,2.755,1.931c.293.482.762.854,1.106,1.31a4.522,4.522,0,0,1,.369.969L312,84.962c-.182,1.061-.154,1.341.571,1.579a28.629,28.629,0,0,0,3.518.854c.554.106,1.157-.008,1.628.627a2.409,2.409,0,0,1-.506.562c-.989.576-2,1.115-3.127,1.734-.74-.3-1.549-.574-2.313-.942a1.567,1.567,0,0,0-1.82.132c-1.176,1.078-2.879,1.324-3.929,2.593a1.645,1.645,0,0,1-.97.375c-1.631.241-3.27.424-4.9.667-1.346.2-2.681.464-4.024.686-.769.128-1.541.228-2.328.344" transform="translate(-64.469 -17.806)" fill="#ffdec7" fill-rule="evenodd"/>
          <path id="Trazado_841881" data-name="Trazado 841881" d="M302.891,115.111a1.913,1.913,0,0,1-.4,1.856,19.7,19.7,0,0,0-1.786,3.64,7.867,7.867,0,0,0-.244,5.235c.109.4.2.811.284,1.168-.412.44-.744.157-1.024.014-1.014-.518-2.005-1.08-3-1.625a5.136,5.136,0,0,1,.511-2.754c1.048-2.478,1.527-5.2,3.138-7.5l2.526-.03" transform="translate(-65.44 -25.39)" fill="#f56888" fill-rule="evenodd"/>
          <path id="Trazado_841882" data-name="Trazado 841882" d="M356.2,62.4a2.671,2.671,0,0,1,2.159-.586,1.19,1.19,0,0,1,1.129,1.094,3.912,3.912,0,0,1-.207,1.659,4.7,4.7,0,0,1-3.924,3.083,3.988,3.988,0,0,1-.078-1.016c.277-1.4.6-2.781.92-4.233" transform="translate(-78.362 -13.628)" fill="#ffdec7" fill-rule="evenodd"/>
          <path id="Trazado_841883" data-name="Trazado 841883" d="M315.5,71.787a8.029,8.029,0,0,1-3.694-2.836.7.7,0,0,1-.195-.376c-.071-1.33-.43-2.684.332-4.128.312.271.627.434.769.693a21.666,21.666,0,0,1,1,2.128c.562,1.367,1.093,2.748,1.792,4.519" transform="translate(-68.701 -14.215)" fill="#ffdec7" fill-rule="evenodd"/>
          <path id="Trazado_841884" data-name="Trazado 841884" d="M316.839,93.907a3.764,3.764,0,0,1-2.384,1.285c.988-1.4.988-1.4,2.384-1.285" transform="translate(-69.36 -20.703)" fill="#f56888" fill-rule="evenodd"/>
          <path id="Trazado_841885" data-name="Trazado 841885" d="M321.053,49.854c-.023.12-.048.239-.07.359-.313-.236-.032-.254.117-.321Z" transform="translate(-70.769 -10.996)" fill="#ffdec7" fill-rule="evenodd"/>
          <path id="Trazado_841886" data-name="Trazado 841886" d="M314.29,73.681a30.287,30.287,0,0,0,4.085-1.638c-.241-.59-.652-.334-.938-.421-.411-.122-.837-.193-1.25-.308-.347-.1-.684-.224-1.023-.344a10.25,10.25,0,0,1-1.012-.371,17.119,17.119,0,0,1-3.263-1.634,16.846,16.846,0,0,1-2.577-2.861,23.638,23.638,0,0,1-1.346-2.081c-2.4-.182-4.117-1.662-5.727-3.347a3.426,3.426,0,0,1-1.05-2.511,11.771,11.771,0,0,0-.059-2.37c-.277-1.441-.366-2.9-1.454-4.156a18.623,18.623,0,0,1-1.8-3.418c-1.062-1.946-.892-4.038-.768-6.121a27.974,27.974,0,0,1,.362-2.78,19.159,19.159,0,0,1,2.851-7.369c.311-.483.627-.969.889-1.479a21.831,21.831,0,0,1,7.878-8.108,12.576,12.576,0,0,1,2.4-.935,26.688,26.688,0,0,0,2.59-1.048A9.22,9.22,0,0,1,317,19.365c1.87-.069,3.741-.142,5.612-.129a20.447,20.447,0,0,1,6.712,1.4,15.823,15.823,0,0,0,2.252.736,11.972,11.972,0,0,1,6.326,3.859,29.6,29.6,0,0,1,4.718,6.986c.641.394,1.351.1,2.028-.064a6.3,6.3,0,0,1,4.733.895,15.231,15.231,0,0,1,4.793,4.562,4.9,4.9,0,0,1,.914,2.825,56.935,56.935,0,0,1-.507,10.758c-.408,2.693-.446,5.444-.622,8.169a9.607,9.607,0,0,0,2.056,6.012,1.383,1.383,0,0,0,.432.475c1.955,1.037,3.876,2.268,6.246,1.232a6.179,6.179,0,0,1,.916-.257c.435.319.31.638.111.8a4.687,4.687,0,0,1-1.736,1.2,7.038,7.038,0,0,0-2.479,1.184,11.634,11.634,0,0,1-7.119,2.074c-1.655-.1-3.3.029-4.814-.86a10.393,10.393,0,0,1-4.873-5.256,15.5,15.5,0,0,1-1.145-6.308,29.922,29.922,0,0,0-.138-3c0-.039-.1-.073-.291-.2-.606.441-.751,1.333-1.368,1.774a12.53,12.53,0,0,1-2.189,1.349,14.279,14.279,0,0,1-2.267.6c-.414,1.189-.786,2.348-1.221,3.482-.407,1.061-.881,2.1-1.373,3.253.4.154.647.276.9.342a18.554,18.554,0,0,1,9.87,5.8,18.914,18.914,0,0,1,2.016,3.3,16.22,16.22,0,0,1,1.606,7.933,35.983,35.983,0,0,1-.674,6.851,42.021,42.021,0,0,0-.614,6.866c-.054,2.224-.318,4.447-.578,6.661-.352,3-.82,5.984-1.176,8.982-.2,1.642-.214,3.306-.4,4.949-.355,3.071-.783,6.133-1.164,9.2-.2,1.641-.361,3.289-.567,4.931-.089.708-.249,1.406-.361,2.016a2.06,2.06,0,0,1-1.851.667,2.8,2.8,0,0,1-.094-.656q.581-5.686,1.186-11.372.551-5.149,1.128-10.295c.121-1.071.291-2.135.43-3.2.352-2.709.726-5.416,1.041-8.13.224-1.926.37-3.862.545-5.794a14.6,14.6,0,0,1,.921-4.626,9.329,9.329,0,0,0,.666-2.93,25.024,25.024,0,0,0-.68-8.779,13.083,13.083,0,0,0-7.307-8.865A24.574,24.574,0,0,0,333.183,69a7.142,7.142,0,0,0-4.8.6,18.5,18.5,0,0,0-4.525,2.486,2.944,2.944,0,0,1-1.184.426,9.922,9.922,0,0,0-1.465.28,79.156,79.156,0,0,0-12.758,6.459c.705,3,1.366,6,2.132,8.97a14.076,14.076,0,0,0,1.227,3.628,2.931,2.931,0,0,0,.751-.017,51.49,51.49,0,0,1,9.309-1.749,74.105,74.105,0,0,1,9.9-.535c.786-.01,1.579-.072,2.065.814.123.224.617.253.945.353s.689.164,1.019.286a.419.419,0,0,1,.227.329c-.03.186-.125.472-.256.513a7.876,7.876,0,0,1-1.456.293,12.9,12.9,0,0,1-1.3.026c-.327.544.407.648.426,1.03.01.195.019.459-.093.573a.618.618,0,0,1-.571.121,29.227,29.227,0,0,1-2.751-1.684,4.322,4.322,0,0,0-2.178-.814,19.136,19.136,0,0,0-5.8.267,7.68,7.68,0,0,1-1.059.2,37.01,37.01,0,0,0-8.666,1.659,3.5,3.5,0,0,1-1.7.22c-1.722-.408-3.414.087-5.121.029-1.651-.058-3.308.022-4.865.041-1.4.963-1.9,2.459-2.783,3.66-.341.462-.533,1.092-.967,1.417-1.716,1.286-1.735,3.051-1.384,4.847a42.275,42.275,0,0,0,1.267,4.348c.34,1.1.783,2.168,1.056,3.281a5.538,5.538,0,0,0,1.576,2.994c.857.772.952,1.918,1.248,2.927a61.475,61.475,0,0,1,1.582,7.575c.376,2.339.916,4.652,1.388,6.977.447,2.2.207,4.428.392,6.762a4.348,4.348,0,0,1-.883.105.754.754,0,0,1-.652-.74,17.9,17.9,0,0,1-.264-2.348,29.267,29.267,0,0,0-.9-6.613c-.473-1.952-.719-3.96-1.058-5.945a4.7,4.7,0,0,0-1.055-2.589c-.345.911-.661,1.774-1,2.629a29.243,29.243,0,0,1-3.706,6.791,10.311,10.311,0,0,0-.78,1.286c-.78,1.458-1.61,2.893-2.3,4.393-1.1,2.4-3.1,3.93-5.1,5.455a4.664,4.664,0,0,1-4.709-.226c-1.645-1.281-3.288-2.578-4.816-3.993a7.91,7.91,0,0,1-2.5-4.2c-.176-.843-.443-1.668-.677-2.5a18.6,18.6,0,0,1-.652-5.119c0-5.542-.051-11.084-.1-16.627a37.914,37.914,0,0,0-1.08-7.871,17.054,17.054,0,0,0-3.429-7.341,3.263,3.263,0,0,1-.611-3.026,13.96,13.96,0,0,0-.112-5.776c-.146-.775-.313-1.549-.389-2.331a1.558,1.558,0,0,1,.844-1.62c1.382-.742,2.688-1.672,4.419-1.375a4.079,4.079,0,0,0,1.449-.278,8.682,8.682,0,0,1,1.868-.429c3.009.014,5.965-.869,8.889-.409a5.548,5.548,0,0,0,.583-.529c3.444-4.374,8.136-7.255,12.553-10.461a4.18,4.18,0,0,1,1.56-.7,10.393,10.393,0,0,1,7.858,1.391,2.942,2.942,0,0,1,.922.9,8.067,8.067,0,0,0,2.131,2.11c1.307.988,2.591,2.006,3.971,3.079M309.229,43.1a4.48,4.48,0,0,0,.759-.673q1.816-2.544,3.583-5.124c.4-.588.741-1.219,1.14-1.811.142-.212.352-.483.567-.523a2.819,2.819,0,0,0,1.533-1.12c.331-.358.612-.761.915-1.143a3.133,3.133,0,0,1-.278,2.087c-.355.606-.792,1.164-1.246,1.819a15.677,15.677,0,0,0,6.136,5.359,23.823,23.823,0,0,0,3.86,1.36,18,18,0,0,1,9.258,6.109l1.05-.09a6.032,6.032,0,0,0,.065-1.129,12.51,12.51,0,0,0-1.391-5.161c-.244-.384-.352-.815.337-1,2.216,1.974,2.025,4.9,2.746,7.472a2.22,2.22,0,0,0,.479-.23,2.406,2.406,0,0,0,.411-.495,15.867,15.867,0,0,0,2.7-9.136,42.355,42.355,0,0,0-.4-4.71,11.4,11.4,0,0,0-1.282-3.853,22.1,22.1,0,0,0-3.484-4.891,11.485,11.485,0,0,0-4.271-3.184c-1.5-.507-2.976-1.064-4.483-1.54-1.024-.323-2.076-.57-3.126-.8-2.841-.632-5.73-.386-8.6-.355a4.451,4.451,0,0,0-2.628.764,19.431,19.431,0,0,1-3.222,1.652,12.752,12.752,0,0,0-1.371.6c-2.843,2.113-5.49,4.42-7.182,7.626-.334.634-.716,1.247-1.089,1.861a19.751,19.751,0,0,0-2.564,6.567,26.954,26.954,0,0,0-.4,3.2,8.807,8.807,0,0,0,1.267,5.988,13.616,13.616,0,0,1,1.221,2.74,4.639,4.639,0,0,0,1.207,1.855l1.376-.307a21.322,21.322,0,0,1-.783-5.6c1.112.644,1.114,1.588,1.32,2.43a5.4,5.4,0,0,0,1.109,2.717,18.75,18.75,0,0,0,.782-1.889c.776-2.694,1.469-5.411,2.282-8.094.458-1.507,1.071-2.97,1.652-4.438a3.156,3.156,0,0,1,1.661-1.846,29.978,29.978,0,0,1-1.1,4.259,4.814,4.814,0,0,0-.477,2.717c-.15.066-.431.085-.117.321.023-.12.047-.239.07-.359M282.388,87.642a1.341,1.341,0,0,1-.637-1.7,9.266,9.266,0,0,1,1.363-2.909,9.723,9.723,0,0,0,1.759-3.112c-1.435-.9-1.542-.877-2.412.05a12.622,12.622,0,0,0-2.433,4.284c-.2.511-.433,1.006-.671,1.553-.933-.861-1.133-1.133-.8-2.073.422-1.209,1.051-2.345,1.592-3.514.1-.221.471-.387.132-.726a22.087,22.087,0,0,0-1.885,1.415c-1.256,1.159-2.661,2.179-3.367,3.853a2.306,2.306,0,0,1-1.34,1.559.97.97,0,0,1-.571-1.276c.574-1.373.979-2.857,2.367-3.751a9.246,9.246,0,0,0,1.373-1.393,1.849,1.849,0,0,0-1.812-.1,5.725,5.725,0,0,0-3.3,4.942c-.045,1.221-.15,2.441-.262,3.659a2.7,2.7,0,0,1-.307.725c-.207-.143-.411-.212-.422-.3-.166-1.419-.277-2.846-.461-4.263-.221-1.7.836-3.056,1.47-4.94l-3.022,2.058a3.489,3.489,0,0,0-.089.636,2.175,2.175,0,0,0,.135.629,13.111,13.111,0,0,1,.589,6.806,6.17,6.17,0,0,0,.731,3.693c.856,1.733,2.034,3.317,2.484,5.246.195.834.454,1.654.68,2.482a26.072,26.072,0,0,1,1.054,6.354c.1,5.251.3,10.5.308,15.753a30.767,30.767,0,0,0,1.3,8.708,8.67,8.67,0,0,0,3.525,4.987c.954.634,1.853,1.353,2.772,2.04a2.774,2.774,0,0,0,3.714-.025,15.355,15.355,0,0,0,1.5-1.222c1.938-1.86,3.19-4.228,4.7-6.408a13.751,13.751,0,0,1,1.839-3.609c1.18-2.136,2.267-4.329,3.3-6.541a6.79,6.79,0,0,0-.067-6.758,12.651,12.651,0,0,1-.875-2.427c-.369-1.082-.731-2.168-1.062-3.15l-4.465-2.026c-.237.7-.458,1.229-.6,1.781-.713,2.859-1.372,5.732-2.125,8.581a4.12,4.12,0,0,0,.02,2.312c.3,1.035.494,2.1.756,3.145a11.41,11.41,0,0,1,.221,4.069c-.018.154-.2.288-.41.581-.256-.518-.468-.874-.614-1.256-.8-2.074-.866-4.382-2.047-6.337a1.26,1.26,0,0,1-.091-.632,18.984,18.984,0,0,0-.926-5.288c-.769-2.843-1.648-5.656-2.471-8.486a5.862,5.862,0,0,1-.142-3.4,33.26,33.26,0,0,1,1.159-3.468,11.06,11.06,0,0,0,.756-4.85c-.037-1.146-.023-2.295-.068-3.44a5.322,5.322,0,0,1,.644-3.105,29.46,29.46,0,0,0,1.638-3.5,5.3,5.3,0,0,0,.383-1.441.688.688,0,0,0-.571-.875c-1.634,1.83-2.437,4.246-3.942,6.4m25.825-40.9c-1,2.722-1.533,5.5-2.872,7.987a2.812,2.812,0,0,0,.178,2.694c1.365,2.608,2.651,5.265,4.154,7.793a7.81,7.81,0,0,0,4.838,3.713,7.419,7.419,0,0,1,1.22.421,14.676,14.676,0,0,0,6.716,1.253,5.016,5.016,0,0,0,2.443-.673A17.823,17.823,0,0,1,328.727,68a4,4,0,0,0,2.555-2.089,13.17,13.17,0,0,0,.882-1.721c.5-1.343.883-2.732,1.407-4.065a22.014,22.014,0,0,0,1.3-8.03,1.727,1.727,0,0,0-.277-1,13.464,13.464,0,0,0-2.074-2.458,18.791,18.791,0,0,0-6.74-3.7,20.079,20.079,0,0,1-5.387-2.138,16.841,16.841,0,0,1-4.072-3.813c-.293-.365-.468-.9-1.153-.933-.2.256-.447.516-.639.808-1.185,1.8-2.373,3.6-3.534,5.415-.705,1.1-1.4,2.193-2.783,2.465m49.031,22.031c-.529-.341-1.012-.61-1.447-.943a5.69,5.69,0,0,1-1.27-1.146,11.5,11.5,0,0,1-2.492-6.967,51.038,51.038,0,0,1,.7-8.8,43.2,43.2,0,0,0,.845-10.07,3.776,3.776,0,0,0-.543-2.264,15.433,15.433,0,0,0-3.874-3.975,6.035,6.035,0,0,0-6-.631,6.017,6.017,0,0,0-.033.991c.422,3.418.9,6.834-.447,10.174-.08.2-.085.426-.161.625a3.949,3.949,0,0,0-.039,2.72,17.2,17.2,0,0,1,.754,5.085c.026,2.586.143,5.173.284,7.755.136,2.506,1.458,6.053,4.2,7.615a7.312,7.312,0,0,0,4.1,1.066c1.843-.1,3.756.163,5.423-1.238M306.826,80.416a8.716,8.716,0,0,0-1.051.019c-3.268.433-6.587.281-9.842.88-1.55.285-3.115.489-4.676.707a3.123,3.123,0,0,0-2.9,2.11,9.511,9.511,0,0,1-1.652,2.49,5.2,5.2,0,0,0-1.012,3.223,1.743,1.743,0,0,0,1.69,2.068,34.791,34.791,0,0,0,4.286.317c5.452.016,10.906-.031,16.359-.048a1.685,1.685,0,0,0,1.566-.826c-.328-1.136-.731-2.357-1.026-3.6a34.882,34.882,0,0,0-.7-3.581c-.423-1.2-.126-2.6-1.037-3.755m-18.551.193c.787-.115,1.56-.217,2.329-.344,1.342-.222,2.678-.486,4.024-.687,1.631-.243,3.27-.426,4.9-.666a1.64,1.64,0,0,0,.97-.376c1.05-1.268,2.754-1.514,3.929-2.592a1.567,1.567,0,0,1,1.82-.132c.765.369,1.573.645,2.313.942,1.126-.62,2.138-1.157,3.128-1.734a2.407,2.407,0,0,0,.506-.561c-.472-.634-1.074-.521-1.629-.627a28.579,28.579,0,0,1-3.517-.853c-.726-.239-.754-.518-.571-1.579l2.418.635a4.53,4.53,0,0,0-.369-.969c-.345-.456-.814-.828-1.107-1.31a4.362,4.362,0,0,0-2.755-1.931,29.368,29.368,0,0,0-4.239-.654,2.346,2.346,0,0,0-1.207.378,7.126,7.126,0,0,0-1.234.857c-2.752,2.3-5.525,4.58-8.225,6.942a19.573,19.573,0,0,0-3.008,3.492l1.521,1.771m3.362,13.565c-1.56-.293-3.085-.588-4.614-.862a9.609,9.609,0,0,0-1.09-.061c.009.789.046,1.424.016,2.055a9.665,9.665,0,0,1-.219,2.125c-.5,1.794-1.026,3.592-1.689,5.33a2.877,2.877,0,0,0,.071,2.473,26.276,26.276,0,0,1,1.612,4.9c.228.83.442,1.664.7,2.484a6.034,6.034,0,0,0,.549.978l2.246-7.369a4.447,4.447,0,0,0-.405-.5c-1.105-1.031-1.083-1.019-.6-2.33a86.489,86.489,0,0,1,3.371-8.595,1.753,1.753,0,0,0,.048-.625m4.758-.211-2.526.031c-1.611,2.3-2.09,5.027-3.138,7.5a5.146,5.146,0,0,0-.512,2.755c1,.545,1.991,1.106,3,1.625.281.143.613.425,1.025-.014-.087-.358-.175-.765-.284-1.168a7.857,7.857,0,0,1,.244-5.235,19.688,19.688,0,0,1,1.786-3.641,1.917,1.917,0,0,0,.4-1.856m40.39-40.949c-.32,1.452-.642,2.838-.92,4.234a3.982,3.982,0,0,0,.078,1.016,4.7,4.7,0,0,0,3.924-3.082,3.925,3.925,0,0,0,.206-1.659,1.191,1.191,0,0,0-1.129-1.1,2.671,2.671,0,0,0-2.159.586m-31.039,8.8c-.7-1.771-1.23-3.152-1.792-4.518a21.58,21.58,0,0,0-1-2.129c-.142-.258-.458-.421-.768-.693-.762,1.443-.4,2.8-.332,4.128a.692.692,0,0,0,.195.376,8.023,8.023,0,0,0,3.694,2.836m35.8-9.218a6.589,6.589,0,0,0-.438-3.452c-1.454,1.629-1.457,1.66-.179,2.984a5.939,5.939,0,0,0,.617.468M306.423,77.447c-1.4-.115-1.4-.115-2.383,1.285a3.763,3.763,0,0,0,2.383-1.285" transform="translate(-58.944 -4.243)" fill-rule="evenodd"/>
          <path id="Trazado_841887" data-name="Trazado 841887" d="M378.48,123.562c.566.489,1.006.848,1.42,1.237a.49.49,0,0,1-.211.713,4.184,4.184,0,0,1-2.738-.034q-1.751-.835-3.473-1.727a2.944,2.944,0,0,1-.843-.65,1.452,1.452,0,0,1,.285-2.249,24.018,24.018,0,0,0,4.9-3.093.76.76,0,0,1,.994.009.925.925,0,0,1,.33,1.149,4.571,4.571,0,0,1-.863,1.205c-.437.457-.948.846-1.577,1.4a2.567,2.567,0,0,0,1.727-.121,7.829,7.829,0,0,0,1.463-.354,29.518,29.518,0,0,0,5.765-2.878,8.347,8.347,0,0,0,3.39-3.793.607.607,0,0,1,.486-.327,1,1,0,0,1,.654.422,2.263,2.263,0,0,1-.112,2.268,8.961,8.961,0,0,1-1.318,1.69,14.224,14.224,0,0,1-4.418,3.025,10.568,10.568,0,0,0-1.365.641,8.275,8.275,0,0,1-3.657,1.176,4.024,4.024,0,0,0-.84.293" transform="translate(-82.105 -25.155)" fill="#cf1d2c" fill-rule="evenodd"/>
          <path id="Trazado_841888" data-name="Trazado 841888" d="M337.894,144.908a5,5,0,0,1-2.626.8c-2.419.258-4.829.644-7.253.8-2.5.157-5.009.114-7.514.126a4.563,4.563,0,0,1-2.318-1.024,6.073,6.073,0,0,1,.97-.217c2.292-.032,4.589.03,6.875-.093,1.78-.1,3.546-.457,5.324-.617,1.494-.133,3-.183,4.5-.193a11.51,11.51,0,0,1,2.041.421" transform="translate(-70.183 -31.87)" fill-rule="evenodd"/>
          <path id="Trazado_841889" data-name="Trazado 841889" d="M317.425,166.62c.047-.952.287-1.4.652-1.4.462.007.723.626.567,1.389a2.8,2.8,0,0,1-.246.82.589.589,0,0,1-.486.26.675.675,0,0,1-.383-.418,2.794,2.794,0,0,1-.1-.656" transform="translate(-70.015 -36.444)" fill-rule="evenodd"/>
          <path id="Trazado_841890" data-name="Trazado 841890" d="M356.807,93.4c-.068-.019-.154-.019-.2-.062A.987.987,0,0,1,356.594,92a.4.4,0,0,1,.372-.046A.822.822,0,0,1,357,93.343a.642.642,0,0,1-.194.053" transform="translate(-78.599 -20.278)" fill-rule="evenodd"/>
          <path id="Trazado_841891" data-name="Trazado 841891" d="M320.567,169.482a1.881,1.881,0,0,1,.041-1.51c.864.535.853.868-.041,1.51" transform="translate(-70.678 -37.05)" fill-rule="evenodd"/>
          <path id="Trazado_841892" data-name="Trazado 841892" d="M360.3,93.429c0,.251.005.5.009.752h-.159c0-.251-.006-.5-.009-.756.053,0,.106,0,.159,0" transform="translate(-79.437 -20.607)" fill-rule="evenodd"/>
          <path id="Trazado_841893" data-name="Trazado 841893" d="M343.361,38.3c.726.246,1.039.257,1.2.419,1.477,1.533,2.952,3.069,4.367,4.659.339.38.877.807.589,1.474-.169.39-.806.13-1.543-.641a30.323,30.323,0,0,1-3.991-4.7c-.145-.233-.252-.489-.618-1.214" transform="translate(-75.736 -8.448)" fill-rule="evenodd"/>
          <path id="Trazado_841894" data-name="Trazado 841894" d="M336.817,72.87c.561-.856,1.182-1.814,1.818-2.762a4.056,4.056,0,0,1,.663-.827.589.589,0,0,1,.927.436,2.2,2.2,0,0,1-.211,1.023c-.459.809-1.016,1.564-1.486,2.367a2.96,2.96,0,0,1-2.659,1.537,8.206,8.206,0,0,1-1.713-.077,12.061,12.061,0,0,1-5.789-3.107.6.6,0,0,1-.076-.577.589.589,0,0,1,.534-.217c.78.351,1.549.733,2.3,1.152a7.2,7.2,0,0,0,5.7,1.053" transform="translate(-72.402 -15.26)" fill-rule="evenodd"/>
          <path id="Trazado_841895" data-name="Trazado 841895" d="M335.337,66.705a2.768,2.768,0,0,1-2.779-.341,6.176,6.176,0,0,1-1.7-1.877,2.707,2.707,0,0,1-.041-1.668c.2-1.047.5-2.075.771-3.107.1-.37.362-.7.744-.6a1.193,1.193,0,0,1,.739.631,2.961,2.961,0,0,1-.09,2.5c-.707,1.281-.265,2.134.843,2.9a11.851,11.851,0,0,1,1.508,1.569" transform="translate(-72.946 -13.034)" fill-rule="evenodd"/>
          <path id="Trazado_841896" data-name="Trazado 841896" d="M322.244,62.587c-.005-.4-.013-.547-.008-.689.018-.508.062-1.007.587-1.281a1.163,1.163,0,0,1,1.458.563,4.648,4.648,0,0,1,.648,1.753,1.318,1.318,0,0,1-2.624.242,4.232,4.232,0,0,1-.062-.587" transform="translate(-71.076 -13.35)" fill-rule="evenodd"/>
          <path id="Trazado_841897" data-name="Trazado 841897" d="M340.576,60.5c0-.287-.007-.359,0-.429.037-.9.511-1.507,1.175-1.5a1.586,1.586,0,0,1,1.444,1.342,1.989,1.989,0,0,1-.265,1.632,1.105,1.105,0,0,1-1.264.563,2.02,2.02,0,0,1-.919-.793,1.918,1.918,0,0,1-.166-.818" transform="translate(-75.121 -12.921)" fill-rule="evenodd"/>
          <path id="Trazado_841898" data-name="Trazado 841898" d="M321.55,56.9c-.25-.782-.2-1.194.317-1.315a10.937,10.937,0,0,1,2.067-.21c.148-.006.306.218.461.337-.154.194-.273.5-.468.563-.778.25-1.58.423-2.376.626" transform="translate(-70.893 -12.214)" fill-rule="evenodd"/>
          <path id="Trazado_841899" data-name="Trazado 841899" d="M339.251,54.679c.024-.313-.026-.629.065-.677a7.435,7.435,0,0,1,1.731-.74.842.842,0,0,1,1.106.712.452.452,0,0,1-.03.169l-2.872.535" transform="translate(-74.83 -11.741)" fill-rule="evenodd"/>
          <path id="Trazado_841900" data-name="Trazado 841900" d="M371.572,62.5a4.015,4.015,0,0,1-.861-.518,5.632,5.632,0,0,1-1.147-3.636A43.342,43.342,0,0,1,370,48.661a5.737,5.737,0,0,0-.012-2.12,2.567,2.567,0,0,0-1.663-2.077,3.09,3.09,0,0,1-1.706-1.118.613.613,0,0,1,.846-.519c3.113.938,4.343,3.01,3.744,6.221a38.707,38.707,0,0,0-.32,9.675,18.311,18.311,0,0,0,.558,2.52c.069.33.072.673.127,1.253" transform="translate(-80.866 -9.437)" fill-rule="evenodd"/>
          <path id="Trazado_841901" data-name="Trazado 841901" d="M367.272,61.02a33.507,33.507,0,0,0,.64,4.237c.351,1.26,1.037,2.427,1.449,3.689-1.972-1.313-2.539-3.313-2.659-5.491-.107-1.942-.065-1.944.57-2.435" transform="translate(-80.875 -13.459)" fill-rule="evenodd"/>
          <path id="Trazado_841902" data-name="Trazado 841902" d="M393.6,104.574a.039.039,0,0,0,0,.078.039.039,0,0,0,0-.078" transform="translate(-86.809 -23.066)" fill="#cf1d2c" fill-rule="evenodd"/>
          <path id="Trazado_841903" data-name="Trazado 841903" d="M390.8,104.831a9.421,9.421,0,0,1-3.687,2.813c-1.236.629-2.786,1.05-3.749,2.087a.507.507,0,0,0,.355.857,9.8,9.8,0,0,0,4.5-1.906,8.736,8.736,0,0,0,3.227-3.473.375.375,0,0,0-.647-.378" transform="translate(-84.53 -23.084)" fill="#cf1d2c" fill-rule="evenodd"/>
          <path id="Trazado_841904" data-name="Trazado 841904" d="M382.208,133.669a21.506,21.506,0,0,1-8.148,3.657c0-.022,0-.044-.033-.044s-.037.033-.021.056c-.567.11-1.142.2-1.733.257a.31.31,0,0,0,0,.62,12.836,12.836,0,0,0,10.411-3.93c.284-.316-.093-.884-.476-.617" transform="translate(-82.047 -29.468)" fill="#cf1d2c" fill-rule="evenodd"/>
          <path id="Trazado_841905" data-name="Trazado 841905" d="M269.438,132.348c-.9-1.178-2.116-2.021-2.983-3.254a11.326,11.326,0,0,1-1.967-4.323c-.041-.217-.376-.161-.376.051-.009,2.917,1.495,7.513,4.727,8.306.405.1.9-.383.6-.779" transform="translate(-58.256 -27.491)" fill="#cf1d2c" fill-rule="evenodd"/>
          <path id="Trazado_841906" data-name="Trazado 841906" d="M267.876,139.654a2.1,2.1,0,0,0-1.028-1.083,10.026,10.026,0,0,1-1.858-1.564c-1.125-1.175-1.973-2.578-3.073-3.768a.137.137,0,0,0-.228.133,11.928,11.928,0,0,0,2.079,4.323c.771.988,2.355,3,3.815,2.475a.424.424,0,0,0,.294-.517" transform="translate(-57.72 -29.38)" fill="#cf1d2c" fill-rule="evenodd"/>
        </g>
      </g>
    </g>
  </g>
</svg>
