<svg xmlns="http://www.w3.org/2000/svg" xmlns:xlink="http://www.w3.org/1999/xlink" width="505" height="327" viewBox="0 0 505 327">
  <defs>
    <clipPath id="clip-path">
      <rect id="Rectángulo_374649" data-name="Rectángulo 374649" width="328.37" height="243.446" fill="none"/>
    </clipPath>
    <clipPath id="clip-path-9">
      <path id="Trazado_841627" data-name="Trazado 841627" d="M130.377,51.76a8.752,8.752,0,0,0-7.2,8.574h-.008l-.642,17.457,17.415.861.673-17.186a8.751,8.751,0,0,0-10.242-9.706" transform="translate(-122.531 -51.62)" fill="none"/>
    </clipPath>
    <clipPath id="clip-path-11">
      <path id="Trazado_841632" data-name="Trazado 841632" d="M167.977,50.046a8.754,8.754,0,1,0,1.113,17.441v.007l17.4-1.6-1.38-17.383Z" transform="translate(-159.252 -48.513)" fill="none"/>
    </clipPath>
    <clipPath id="clip-path-13">
      <path id="Trazado_841634" data-name="Trazado 841634" d="M149.336,46.869l-6.36-.094L129.35,52.6l2.6,50.2h34.944l2.6-50.2-13.626-5.823Z" transform="translate(-129.35 -46.775)" fill="none"/>
    </clipPath>
    <clipPath id="clip-path-15">
      <rect id="Rectángulo_374646" data-name="Rectángulo 374646" width="8.186" height="8.185" fill="none"/>
    </clipPath>
  </defs>
  <g id="Grupo_1079131" data-name="Grupo 1079131" transform="translate(14685 8103.666)">
    <g id="Grupo_1079130" data-name="Grupo 1079130" transform="translate(84.648 278)">
      <rect id="Rectángulo_374434" data-name="Rectángulo 374434" width="505" height="327" rx="28" transform="translate(-14769.648 -8381.666)" fill="#fff"/>
    </g>
    <path id="Rectángulo_374434_-_Contorno" data-name="Rectángulo 374434 - Contorno" d="M28,1A26.977,26.977,0,0,0,1,28V299a26.977,26.977,0,0,0,27,27H477a26.977,26.977,0,0,0,27-27V28A26.977,26.977,0,0,0,477,1H28m0-1H477a28,28,0,0,1,28,28V299a28,28,0,0,1-28,28H28A28,28,0,0,1,0,299V28A28,28,0,0,1,28,0Z" transform="translate(-14685 -8103.666)" fill="#707070"/>
    <g id="Grupo_1079129" data-name="Grupo 1079129" transform="translate(84.648 278)">
      <g id="Grupo_1078916" data-name="Grupo 1078916" transform="translate(-14684.648 -8332.131)">
        <g id="Grupo_1078915" data-name="Grupo 1078915" clip-path="url(#clip-path)">
          <g id="Grupo_1078884" data-name="Grupo 1078884">
            <g id="Grupo_1078883" data-name="Grupo 1078883" clip-path="url(#clip-path)">
              <path id="Línea_10542" data-name="Línea 10542" d="M50.713.5H0v-1H50.713Z" transform="translate(0 27.101)"/>
            </g>
          </g>
          <path id="Línea_10543" data-name="Línea 10543" d="M83.209.5H0v-1H83.209Z" transform="translate(118.951 12.833)"/>
          <path id="Línea_10544" data-name="Línea 10544" d="M53.272.5H0v-1H53.272Z" transform="translate(252.458 139.098)"/>
          <path id="Línea_10545" data-name="Línea 10545" d="M.5,67.886h-1V0h1Z" transform="translate(276.567 117.335)"/>
          <path id="Línea_10546" data-name="Línea 10546" d="M.5,57.185h-1V0h1Z" transform="translate(281.499 128.035)"/>
          <path id="Línea_10547" data-name="Línea 10547" d="M.5,57.185h-1V0h1Z" transform="translate(310.931 128.035)"/>
          <path id="Línea_10548" data-name="Línea 10548" d="M.5,70.36h-1V0h1Z" transform="translate(314.431 117.335)"/>
          <path id="Línea_10549" data-name="Línea 10549" d="M41.693.5H0v-1H41.693Z" transform="translate(264.037 159.703)"/>
          <g id="Grupo_1078886" data-name="Grupo 1078886">
            <g id="Grupo_1078885" data-name="Grupo 1078885" clip-path="url(#clip-path)">
              <path id="Línea_10550" data-name="Línea 10550" d="M64.334.5H0v-1H64.334Z" transform="translate(264.036 165.578)"/>
              <path id="Línea_10551" data-name="Línea 10551" d="M64.334.5H0v-1H64.334Z" transform="translate(264.036 200.438)"/>
              <path id="Línea_10552" data-name="Línea 10552" d="M56.754.5H0v-1H56.754Z" transform="translate(271.617 217.188)"/>
              <path id="Línea_10553" data-name="Línea 10553" d="M74.05.5H0v-1H74.05Z" transform="translate(254.32 241.609)"/>
            </g>
          </g>
          <path id="Línea_10554" data-name="Línea 10554" d="M83.209.5H0v-1H83.209Z" transform="translate(118.951 65.229)"/>
          <path id="Línea_10555" data-name="Línea 10555" d="M64.23.5H0v-1H64.23Z" transform="translate(118.951 127.202)"/>
          <path id="Línea_10556" data-name="Línea 10556" d="M64.23.5H0v-1H64.23Z" transform="translate(118.951 179.64)"/>
          <path id="Línea_10557" data-name="Línea 10557" d="M64.23.5H0v-1H64.23Z" transform="translate(118.951 231.975)"/>
          <g id="Grupo_1078888" data-name="Grupo 1078888">
            <g id="Grupo_1078887" data-name="Grupo 1078887" clip-path="url(#clip-path)">
              <path id="Línea_10558" data-name="Línea 10558" d="M64.23.5H0v-1H64.23Z" transform="translate(118.951 242.016)"/>
            </g>
          </g>
          <path id="Línea_10559" data-name="Línea 10559" d="M37.959.5H0v-1H37.959Z" transform="translate(164.201 44.422)"/>
          <path id="Línea_10560" data-name="Línea 10560" d="M25.181.5H0v-1H25.181Z" transform="translate(164.202 19.494)"/>
          <path id="Línea_10561" data-name="Línea 10561" d="M.5,19.578h-1V0h1Z" transform="translate(196.055 48.92)"/>
          <g id="Grupo_1078890" data-name="Grupo 1078890">
            <g id="Grupo_1078889" data-name="Grupo 1078889" clip-path="url(#clip-path)">
              <path id="Línea_10562" data-name="Línea 10562" d="M.5,34.006h-1V0h1Z" transform="translate(155.892 0.001)"/>
              <path id="Línea_10563" data-name="Línea 10563" d="M.5,34.006h-1V0h1Z" transform="translate(177.361 0.001)"/>
            </g>
          </g>
          <path id="Línea_10564" data-name="Línea 10564" d="M.5,19.578h-1V0h1Z" transform="translate(227.514 48.92)"/>
          <path id="Línea_10565" data-name="Línea 10565" d="M.5,19.578h-1V0h1Z" transform="translate(255.66 48.92)"/>
          <path id="Línea_10566" data-name="Línea 10566" d="M.5,19.578h-1V0h1Z" transform="translate(281.498 48.92)"/>
          <g id="Grupo_1078892" data-name="Grupo 1078892">
            <g id="Grupo_1078891" data-name="Grupo 1078891" clip-path="url(#clip-path)">
              <path id="Línea_10567" data-name="Línea 10567" d="M81.088.5H0v-1H81.088Z" transform="translate(0 75.429)"/>
              <path id="Línea_10568" data-name="Línea 10568" d="M81.088.5H0v-1H81.088Z" transform="translate(0 131.611)"/>
              <path id="Línea_10569" data-name="Línea 10569" d="M81.088.5H0v-1H81.088Z" transform="translate(0 185.029)"/>
              <path id="Línea_10570" data-name="Línea 10570" d="M81.088.5H0v-1H81.088Z" transform="translate(0 242.016)"/>
              <path id="Línea_10571" data-name="Línea 10571" d="M81.088.5H0v-1H81.088Z" transform="translate(0 233.304)"/>
            </g>
          </g>
          <path id="Línea_10572" data-name="Línea 10572" d="M60.135.5H0v-1H60.135Z" transform="translate(20.952 108.923)"/>
          <path id="Línea_10573" data-name="Línea 10573" d="M16.557.5H0v-1H16.557Z" transform="translate(64.53 154.265)"/>
          <path id="Línea_10574" data-name="Línea 10574" d="M7.186.5H0v-1H7.186Z" transform="translate(23.456 57.144)"/>
          <path id="Línea_10575" data-name="Línea 10575" d="M.5,1.131h-1V0h1Z" transform="translate(25.356 27.101)"/>
          <path id="Línea_10576" data-name="Línea 10576" d="M.5,24.57h-1V22.68h1Zm0-3.78h-1V18.9h1Zm0-3.78h-1V15.12h1Zm0-3.78h-1V11.34h1Zm0-3.78h-1V7.56h1Zm0-3.78h-1V3.78h1Zm0-3.78h-1V0h1Z" transform="translate(25.356 30.369)"/>
          <path id="Línea_10577" data-name="Línea 10577" d="M.5,1.131h-1V0h1Z" transform="translate(25.356 56.013)"/>
          <path id="Línea_10578" data-name="Línea 10578" d="M.5,1.131h-1V0h1Z" transform="translate(124.647 12.833)"/>
          <path id="Línea_10579" data-name="Línea 10579" d="M.5,221.8h-1v-.476h1Zm0-2.488h-1V217.3h1Zm0-4.024h-1v-2.012h1Zm0-4.024h-1v-2.012h1Zm0-4.024h-1v-2.012h1Zm0-4.024h-1V201.2h1Zm0-4.024h-1v-2.012h1Zm0-4.024h-1v-2.012h1Zm0-4.024h-1v-2.012h1Zm0-4.024h-1V185.1h1Zm0-4.024h-1V181.08h1Zm0-4.024h-1v-2.012h1Zm0-4.024h-1v-2.012h1Zm0-4.024h-1v-2.012h1ZM.5,167h-1v-2.012h1Zm0-4.024h-1V160.96h1Zm0-4.024h-1v-2.012h1Zm0-4.024h-1v-2.012h1Zm0-4.024h-1v-2.012h1Zm0-4.024h-1v-2.012h1Zm0-4.024h-1V140.84h1Zm0-4.024h-1v-2.012h1Zm0-4.024h-1v-2.012h1Zm0-4.024h-1v-2.012h1Zm0-4.024h-1v-2.012h1Zm0-4.024h-1V120.72h1Zm0-4.024h-1V116.7h1Zm0-4.024h-1v-2.012h1Zm0-4.024h-1v-2.012h1Zm0-4.024h-1v-2.012h1Zm0-4.024h-1V100.6h1Zm0-4.024h-1V96.576h1Zm0-4.024h-1V92.552h1Zm0-4.024h-1V88.528h1Zm0-4.024h-1V84.5h1Zm0-4.024h-1V80.48h1Zm0-4.024h-1V76.456h1Zm0-4.024h-1V72.432h1Zm0-4.024h-1V68.408h1ZM.5,66.4h-1V64.384h1Zm0-4.024h-1V60.36h1Zm0-4.024h-1V56.336h1Zm0-4.024h-1V52.312h1ZM.5,50.3h-1V48.288h1Zm0-4.024h-1V44.264h1Zm0-4.024h-1V40.24h1Zm0-4.024h-1V36.216h1ZM.5,34.2h-1V32.192h1Zm0-4.024h-1V28.168h1Zm0-4.024h-1V24.144h1Zm0-4.024h-1V20.12h1Zm0-4.024h-1V16.1h1Zm0-4.024h-1V12.072h1Zm0-4.024h-1V8.048h1Zm0-4.024h-1V4.024h1Zm0-4.024h-1V0h1Z" transform="translate(124.647 16.238)"/>
          <path id="Línea_10580" data-name="Línea 10580" d="M.5,1.131h-1V0h1Z" transform="translate(124.647 239.172)"/>
          <path id="Línea_10581" data-name="Línea 10581" d="M.5,1.131h-1V0h1Z" transform="translate(258.717 140.124)"/>
          <path id="Línea_10582" data-name="Línea 10582" d="M.5,95.13h-1V93.242h1Zm0-3.915h-1V89.188h1Zm0-4.054h-1V85.134h1Zm0-4.054h-1V81.08h1Zm0-4.054h-1V77.026h1ZM.5,75h-1V72.972h1Zm0-4.054h-1V68.918h1Zm0-4.054h-1V64.864h1Zm0-4.054h-1V60.81h1Zm0-4.054h-1V56.756h1Zm0-4.054h-1V52.7h1Zm0-4.054h-1V48.648h1Zm0-4.054h-1V44.594h1Zm0-4.054h-1V40.54h1Zm0-4.054h-1V36.486h1Zm0-4.054h-1V32.432h1Zm0-4.054h-1V28.378h1Zm0-4.054h-1V24.324h1ZM.5,22.3h-1V20.27h1Zm0-4.054h-1V16.216h1Zm0-4.054h-1V12.162h1Zm0-4.054h-1V8.108h1Zm0-4.054h-1V4.054h1Zm0-4.054h-1V0h1Z" transform="translate(258.717 143.547)"/>
          <path id="Línea_10583" data-name="Línea 10583" d="M.5,1.131h-1V0h1Z" transform="translate(258.717 239.824)"/>
          <path id="Línea_10584" data-name="Línea 10584" d="M.5,1.131h-1V0h1Z" transform="translate(267.113 140.124)"/>
          <path id="Línea_10585" data-name="Línea 10585" d="M.5,13.446h-1v-.474h1Zm0-2.636h-1V8.648h1Zm0-4.324h-1V4.324h1Zm0-4.324h-1V0h1Z" transform="translate(267.113 143.7)"/>
          <path id="Línea_10586" data-name="Línea 10586" d="M.5,1.131h-1V0h1Z" transform="translate(267.113 158.368)"/>
          <path id="Línea_10587" data-name="Línea 10587" d="M.5,1.131h-1V0h1Z" transform="translate(267.113 165.203)"/>
          <path id="Línea_10588" data-name="Línea 10588" d="M.5,68.915h-1V66.946h1Zm0-3.938h-1V63.008h1Zm0-3.938h-1V59.07h1ZM.5,57.1h-1V55.132h1Zm0-3.938h-1V51.194h1Zm0-3.938h-1V47.256h1Zm0-3.938h-1V43.318h1Zm0-3.938h-1V39.38h1Zm0-3.938h-1V35.442h1Zm0-3.938h-1V31.5h1Zm0-3.938h-1V27.566h1ZM.5,25.6h-1V23.628h1Zm0-3.938h-1V19.69h1Zm0-3.938h-1V15.752h1Zm0-3.938h-1V11.814h1Zm0-3.938h-1V7.876h1Zm0-3.938h-1V3.938h1Zm0-3.938h-1V0h1Z" transform="translate(267.113 168.561)"/>
          <path id="Línea_10589" data-name="Línea 10589" d="M.5,1.131h-1V0h1Z" transform="translate(267.113 239.824)"/>
          <path id="Línea_10590" data-name="Línea 10590" d="M.5,1.131h-1V0h1Z" transform="translate(276.567 216.516)"/>
          <path id="Línea_10591" data-name="Línea 10591" d="M.5,18.481h-1V17.432h1Zm0-3.228h-1V13.074h1Zm0-4.358h-1V8.716h1Zm0-4.358h-1V4.358h1Zm0-4.358h-1V0h1Z" transform="translate(276.567 220.111)"/>
          <path id="Línea_10592" data-name="Línea 10592" d="M.5,1.131h-1V0h1Z" transform="translate(276.567 239.824)"/>
          <path id="Línea_10593" data-name="Línea 10593" d="M.5,1.131h-1V0h1Z" transform="translate(317.983 201.079)"/>
          <path id="Línea_10594" data-name="Línea 10594" d="M.5,10.88h-1v-.386h1Zm0-2.135h-1V7h1Zm0-3.5h-1V3.5h1Zm0-3.5h-1V0h1Z" transform="translate(317.983 204.188)"/>
          <path id="Línea_10595" data-name="Línea 10595" d="M.5,1.131h-1V0h1Z" transform="translate(317.983 216.057)"/>
          <path id="Línea_10596" data-name="Línea 10596" d="M.5,1.131h-1V0h1Z" transform="translate(324.35 165.499)"/>
          <path id="Línea_10597" data-name="Línea 10597" d="M.5,28.89h-1V26.964h1Zm0-3.852h-1V23.112h1Zm0-3.852h-1V19.26h1Zm0-3.852h-1V15.408h1Zm0-3.852h-1V11.556h1ZM.5,9.63h-1V7.7h1Zm0-3.852h-1V3.852h1Zm0-3.852h-1V0h1Z" transform="translate(324.35 168.808)"/>
          <path id="Línea_10598" data-name="Línea 10598" d="M.5,1.131h-1V0h1Z" transform="translate(324.35 199.307)"/>
          <path id="Línea_10599" data-name="Línea 10599" d="M.5,1.131h-1V0h1Z" transform="translate(196.055 12.833)"/>
          <path id="Línea_10600" data-name="Línea 10600" d="M.5,26.195h-1V24.18h1Zm0-4.03h-1V20.15h1Zm0-4.03h-1V16.12h1Zm0-4.03h-1V12.09h1Zm0-4.03h-1V8.06h1Zm0-4.03h-1V4.03h1Zm0-4.03h-1V0h1Z" transform="translate(196.055 16.243)"/>
          <path id="Línea_10601" data-name="Línea 10601" d="M.5,1.131h-1V0h1Z" transform="translate(196.055 43.591)"/>
          <path id="Línea_10602" data-name="Línea 10602" d="M.5,1.131h-1V0h1Z" transform="translate(185.336 19.493)"/>
          <path id="Línea_10603" data-name="Línea 10603" d="M.5,19.835h-1V18.46h1Zm0-3.221h-1V14.768h1Zm0-3.692h-1V11.076h1ZM.5,9.23h-1V7.384h1Zm0-3.692h-1V3.692h1Zm0-3.692h-1V0h1Z" transform="translate(185.336 22.712)"/>
          <path id="Línea_10604" data-name="Línea 10604" d="M.5,1.131h-1V0h1Z" transform="translate(185.336 43.591)"/>
          <path id="Línea_10605" data-name="Línea 10605" d="M1.131.5H0v-1H1.131Z" transform="translate(156.348 4.08)"/>
          <path id="Línea_10606" data-name="Línea 10606" d="M15.626.5h-.89v-1h.89ZM12.894.5H11.052v-1h1.842ZM9.21.5H7.368v-1H9.21ZM5.526.5H3.684v-1H5.526ZM1.842.5H0v-1H1.842Z" transform="translate(159.562 4.08)"/>
          <path id="Línea_10607" data-name="Línea 10607" d="M1.131.5H0v-1H1.131Z" transform="translate(176.23 4.08)"/>
          <path id="Línea_10608" data-name="Línea 10608" d="M1.131.5H0v-1H1.131Z" transform="translate(196.055 52.364)"/>
          <path id="Línea_10609" data-name="Línea 10609" d="M79.81.5h-.29v-1h.29ZM77.532.5H75.544v-1h1.988ZM73.556.5H71.568v-1h1.988ZM69.58.5H67.592v-1H69.58ZM65.6.5H63.616v-1H65.6ZM61.628.5H59.64v-1h1.988ZM57.652.5H55.664v-1h1.988ZM53.676.5H51.688v-1h1.988ZM49.7.5H47.712v-1H49.7ZM45.724.5H43.736v-1h1.988ZM41.748.5H39.76v-1h1.988ZM37.772.5H35.784v-1h1.988ZM33.8.5H31.808v-1H33.8ZM29.82.5H27.832v-1H29.82ZM25.844.5H23.856v-1h1.988ZM21.868.5H19.88v-1h1.988ZM17.892.5H15.9v-1h1.988ZM13.916.5H11.928v-1h1.988ZM9.94.5H7.952v-1H9.94ZM5.964.5H3.976v-1H5.964ZM1.988.5H0v-1H1.988Z" transform="translate(199.434 52.364)"/>
          <path id="Línea_10610" data-name="Línea 10610" d="M1.131.5H0v-1H1.131Z" transform="translate(280.367 52.364)"/>
          <path id="Línea_10611" data-name="Línea 10611" d="M1.131.5H0v-1H1.131Z" transform="translate(277.387 122.544)"/>
          <path id="Línea_10612" data-name="Línea 10612" d="M30.03.5h-2v-1h2Zm-4,0h-2v-1h2Zm-4,0h-2v-1h2Zm-4,0h-2v-1h2Zm-4,0h-2v-1h2Zm-4,0h-2v-1h2Zm-4,0H4v-1h2ZM2,.5H0v-1H2Z" transform="translate(280.781 122.544)"/>
          <path id="Línea_10613" data-name="Línea 10613" d="M1.131.5H0v-1H1.131Z" transform="translate(312.478 122.544)"/>
          <path id="Línea_10614" data-name="Línea 10614" d="M1.131.5H0v-1H1.131Z" transform="translate(282.56 131.611)"/>
          <path id="Línea_10615" data-name="Línea 10615" d="M22.761.5H21.19v-1h1.571Zm-3.69,0H16.952v-1h2.119ZM14.833.5H12.714v-1h2.119ZM10.6.5H8.476v-1H10.6ZM6.357.5H4.238v-1H6.357ZM2.119.5H0v-1H2.119Z" transform="translate(286.087 131.611)"/>
          <path id="Línea_10616" data-name="Línea 10616" d="M1.131.5H0v-1H1.131Z" transform="translate(310.046 131.611)"/>
          <path id="Línea_10617" data-name="Línea 10617" d="M.5,1.131h-1V0h1Z" transform="translate(8.377 27.101)"/>
          <path id="Línea_10618" data-name="Línea 10618" d="M.5,207.8h-1v-1.979h1Zm0-3.958h-1v-1.979h1Zm0-3.958h-1V197.9h1Zm0-3.958h-1v-1.979h1Zm0-3.958h-1v-1.979h1Zm0-3.958h-1v-1.979h1Zm0-3.958h-1v-1.979h1Zm0-3.958h-1V178.11h1Zm0-3.958h-1v-1.979h1Zm0-3.958h-1v-1.979h1Zm0-3.958h-1v-1.979h1Zm0-3.958h-1v-1.979h1Zm0-3.958h-1V158.32h1Zm0-3.958h-1v-1.979h1Zm0-3.958h-1V150.4h1Zm0-3.958h-1v-1.979h1Zm0-3.958h-1v-1.979h1Zm0-3.958h-1V138.53h1Zm0-3.958h-1v-1.979h1Zm0-3.958h-1v-1.979h1Zm0-3.958h-1v-1.979h1Zm0-3.958h-1V122.7h1Zm0-3.958h-1V118.74h1Zm0-3.958h-1v-1.979h1Zm0-3.958h-1v-1.979h1Zm0-3.958h-1v-1.979h1Zm0-3.958h-1v-1.979h1Zm0-3.958h-1V98.95h1Zm0-3.958h-1V94.992h1Zm0-3.958h-1V91.034h1Zm0-3.958h-1V87.076h1ZM.5,85.1h-1V83.118h1Zm0-3.958h-1V79.16h1Zm0-3.958h-1V75.2h1Zm0-3.958h-1V71.244h1Zm0-3.958h-1V67.286h1Zm0-3.958h-1V63.328h1Zm0-3.958h-1V59.37h1Zm0-3.958h-1V55.412h1Zm0-3.958h-1V51.454h1Zm0-3.958h-1V47.5h1Zm0-3.958h-1V43.538h1Zm0-3.958h-1V39.58h1ZM.5,37.6h-1V35.622h1Zm0-3.958h-1V31.664h1Zm0-3.958h-1V27.706h1Zm0-3.958h-1V23.748h1Zm0-3.958h-1V19.79h1Zm0-3.958h-1V15.832h1Zm0-3.958h-1V11.874h1ZM.5,9.9h-1V7.916h1Zm0-3.958h-1V3.958h1Zm0-3.958h-1V0h1Z" transform="translate(8.377 30.471)"/>
          <g id="Grupo_1078894" data-name="Grupo 1078894">
            <g id="Grupo_1078893" data-name="Grupo 1078893" clip-path="url(#clip-path)">
              <path id="Línea_10619" data-name="Línea 10619" d="M.5,1.131h-1V0h1Z" transform="translate(8.377 240.885)"/>
            </g>
          </g>
          <path id="Línea_10620" data-name="Línea 10620" d="M.5,1.131h-1V0h1Z" transform="translate(77.509 75.429)"/>
          <path id="Línea_10621" data-name="Línea 10621" d="M.5,71.82h-1V69.768h1Zm0-4.1h-1V65.664h1Zm0-4.1h-1V61.56h1Zm0-4.1h-1V57.456h1Zm0-4.1h-1V53.352h1Zm0-4.1h-1V49.248h1Zm0-4.1h-1V45.144h1Zm0-4.1h-1V41.04h1Zm0-4.1h-1V36.936h1Zm0-4.1h-1V32.832h1Zm0-4.1h-1V28.728h1Zm0-4.1h-1V24.624h1Zm0-4.1h-1V20.52h1Zm0-4.1h-1V16.416h1Zm0-4.1h-1V12.312h1Zm0-4.1h-1V8.208h1Zm0-4.1h-1V4.1h1Zm0-4.1h-1V0h1Z" transform="translate(77.509 78.88)"/>
          <path id="Línea_10622" data-name="Línea 10622" d="M.5,1.131h-1V0h1Z" transform="translate(77.509 153.134)"/>
          <g id="Grupo_1078896" data-name="Grupo 1078896">
            <g id="Grupo_1078895" data-name="Grupo 1078895" clip-path="url(#clip-path)">
              <path id="Trazado_841559" data-name="Trazado 841559" d="M26.831,121.307a40.494,40.494,0,0,1,1.824-12.714c12-.788,30.858,0,30.858,0,.026.074.052.147.077.221a47.2,47.2,0,0,1,.8,12.494c-11.669,7.365-22.915,6.879-33.563,0" transform="translate(3.511 14.165)" fill="#1a1a1a"/>
              <path id="Trazado_841560" data-name="Trazado 841560" d="M58.19,119.795s2.8,40.3,2.5,49.242L63,215.975l-7.662-.464C54,191.3,49.5,180.324,50.916,169.346c-4.291-14.407-6.523-31.482-7.24-45.057,0,0,6.832-4.338,14.514-4.494" transform="translate(5.716 15.677)" fill="#1a1a1a"/>
              <path id="Trazado_841561" data-name="Trazado 841561" d="M54.228,204.576a4.348,4.348,0,0,1,5.681-4c2.7.753,3.023,5.341,3.023,5.341a14.5,14.5,0,0,1,4.015,8.273c.018.118.036.234.049.357a1.851,1.851,0,0,1-1.513,2.034,39.718,39.718,0,0,1-13.922.037,1.84,1.84,0,0,1-1.477-2.047c.007-.037.007-.074.012-.111.3-2.336.925-6.625,3.733-8.216Z" transform="translate(6.552 26.225)" fill="#fff"/>
              <path id="Trazado_841562" data-name="Trazado 841562" d="M54.72,207.392l-.242-.563c.166-.076,4.14-1.811,7.036.115l-.33.516c-2.626-1.747-6.427-.085-6.464-.068" transform="translate(7.129 26.964)" fill="#1a1a1a"/>
              <path id="Trazado_841563" data-name="Trazado 841563" d="M55.288,207.258a.681.681,0,0,1-.781.569.691.691,0,0,1-.559-.8.68.68,0,0,1,.781-.569.69.69,0,0,1,.559.8" transform="translate(7.059 27.018)" fill="#1a1a1a"/>
              <path id="Trazado_841564" data-name="Trazado 841564" d="M61.326,207.111a.68.68,0,0,1-.781.569.69.69,0,0,1-.559-.8.679.679,0,0,1,.781-.569.69.69,0,0,1,.559.8" transform="translate(7.849 26.999)" fill="#1a1a1a"/>
              <path id="Trazado_841565" data-name="Trazado 841565" d="M54.78,205.855l-.242-.563c.167-.076,4.141-1.811,7.036.115l-.33.516c-2.625-1.747-6.426-.085-6.464-.068" transform="translate(7.137 26.763)" fill="#1a1a1a"/>
              <path id="Trazado_841566" data-name="Trazado 841566" d="M55.349,205.721a.681.681,0,0,1-.781.569.691.691,0,0,1-.559-.8.68.68,0,0,1,.781-.569.69.69,0,0,1,.559.8" transform="translate(7.067 26.817)" fill="#1a1a1a"/>
              <path id="Trazado_841567" data-name="Trazado 841567" d="M61.387,205.574a.681.681,0,0,1-.781.569.69.69,0,0,1-.559-.8.679.679,0,0,1,.781-.569.69.69,0,0,1,.559.8" transform="translate(7.857 26.798)" fill="#1a1a1a"/>
              <path id="Trazado_841568" data-name="Trazado 841568" d="M54.72,208.924l-.242-.563c.166-.076,4.14-1.811,7.036.115l-.33.516c-2.626-1.747-6.427-.085-6.464-.068" transform="translate(7.129 27.164)" fill="#1a1a1a"/>
              <path id="Trazado_841569" data-name="Trazado 841569" d="M55.288,208.79a.681.681,0,0,1-.781.569.691.691,0,0,1-.559-.8.68.68,0,0,1,.781-.569.69.69,0,0,1,.559.8" transform="translate(7.059 27.218)" fill="#1a1a1a"/>
              <path id="Trazado_841570" data-name="Trazado 841570" d="M61.326,208.643a.681.681,0,0,1-.781.569.69.69,0,0,1-.559-.8.679.679,0,0,1,.781-.569.69.69,0,0,1,.559.8" transform="translate(7.849 27.199)" fill="#1a1a1a"/>
              <path id="Trazado_841571" data-name="Trazado 841571" d="M59.568,202.35a5.412,5.412,0,0,0-3.782.154,2.046,2.046,0,0,0,0,1.419,13.673,13.673,0,0,1,3.833-.09,2.2,2.2,0,0,0-.05-1.483" transform="translate(7.284 26.445)" fill="#1a1a1a"/>
              <path id="Trazado_841572" data-name="Trazado 841572" d="M65.483,214.99a39.718,39.718,0,0,1-13.922.037,1.84,1.84,0,0,1-1.477-2.047c.006-.037.006-.075.012-.111a29.823,29.823,0,0,0,16.851-.271c.018.116.036.234.049.357a1.852,1.852,0,0,1-1.513,2.034" transform="translate(6.552 27.822)" fill="#1a1a1a"/>
              <path id="Trazado_841573" data-name="Trazado 841573" d="M27.358,119.795s-2.54,40.3-2.238,49.242l-2.314,46.938,7.662-.464c.464-18.334,6.481-33.112,4.427-46.165,3.823-12.611,5.822-29.985,6.561-45.057a29.3,29.3,0,0,0-14.1-4.494" transform="translate(2.985 15.677)" fill="#1a1a1a"/>
              <path id="Trazado_841574" data-name="Trazado 841574" d="M31.306,204.576a4.348,4.348,0,0,0-5.681-4c-2.7.753-3.023,5.341-3.023,5.341a14.5,14.5,0,0,0-4.015,8.273c-.018.118-.036.234-.049.357a1.851,1.851,0,0,0,1.513,2.034,39.718,39.718,0,0,0,13.922.037,1.84,1.84,0,0,0,1.477-2.047c-.007-.037-.007-.074-.012-.111-.3-2.336-.925-6.625-3.733-8.216Z" transform="translate(2.425 26.225)" fill="#fff"/>
              <path id="Trazado_841575" data-name="Trazado 841575" d="M29.669,207.392l.242-.563c-.167-.076-4.141-1.811-7.036.115l.33.516c2.625-1.747,6.426-.085,6.464-.068" transform="translate(2.994 26.964)" fill="#1a1a1a"/>
              <path id="Trazado_841576" data-name="Trazado 841576" d="M28.444,207.258a.681.681,0,0,0,.781.569.691.691,0,0,0,.559-.8.68.68,0,0,0-.781-.569.69.69,0,0,0-.559.8" transform="translate(3.721 27.018)" fill="#1a1a1a"/>
              <path id="Trazado_841577" data-name="Trazado 841577" d="M22.405,207.111a.68.68,0,0,0,.781.569.69.69,0,0,0,.559-.8.679.679,0,0,0-.781-.569.69.69,0,0,0-.559.8" transform="translate(2.931 26.999)" fill="#1a1a1a"/>
              <path id="Trazado_841578" data-name="Trazado 841578" d="M29.608,205.855l.242-.563c-.167-.076-4.141-1.811-7.036.115l.33.516c2.625-1.747,6.426-.085,6.464-.068" transform="translate(2.986 26.763)" fill="#1a1a1a"/>
              <path id="Trazado_841579" data-name="Trazado 841579" d="M28.383,205.721a.681.681,0,0,0,.781.569.691.691,0,0,0,.559-.8.68.68,0,0,0-.781-.569.69.69,0,0,0-.559.8" transform="translate(3.713 26.817)" fill="#1a1a1a"/>
              <path id="Trazado_841580" data-name="Trazado 841580" d="M22.344,205.574a.681.681,0,0,0,.781.569.69.69,0,0,0,.559-.8.679.679,0,0,0-.781-.569.69.69,0,0,0-.559.8" transform="translate(2.923 26.798)" fill="#1a1a1a"/>
              <path id="Trazado_841581" data-name="Trazado 841581" d="M29.669,208.924l.242-.563c-.167-.076-4.141-1.811-7.036.115l.33.516c2.625-1.747,6.426-.085,6.464-.068" transform="translate(2.994 27.164)" fill="#1a1a1a"/>
              <path id="Trazado_841582" data-name="Trazado 841582" d="M28.444,208.79a.681.681,0,0,0,.781.569.691.691,0,0,0,.559-.8.68.68,0,0,0-.781-.569.69.69,0,0,0-.559.8" transform="translate(3.721 27.218)" fill="#1a1a1a"/>
              <path id="Trazado_841583" data-name="Trazado 841583" d="M22.405,208.643a.681.681,0,0,0,.781.569.69.69,0,0,0,.559-.8.679.679,0,0,0-.781-.569.69.69,0,0,0-.559.8" transform="translate(2.931 27.199)" fill="#1a1a1a"/>
              <path id="Trazado_841584" data-name="Trazado 841584" d="M24.477,202.35a5.412,5.412,0,0,1,3.782.154,2.046,2.046,0,0,1,0,1.419,13.673,13.673,0,0,0-3.833-.09,2.2,2.2,0,0,1,.05-1.483" transform="translate(3.182 26.445)" fill="#1a1a1a"/>
              <path id="Trazado_841585" data-name="Trazado 841585" d="M20.051,214.99a39.718,39.718,0,0,0,13.922.037,1.84,1.84,0,0,0,1.477-2.047c-.006-.037-.006-.075-.012-.111a29.823,29.823,0,0,1-16.851-.271c-.018.116-.036.234-.049.357a1.852,1.852,0,0,0,1.513,2.034" transform="translate(2.425 27.822)" fill="#1a1a1a"/>
              <path id="Trazado_841586" data-name="Trazado 841586" d="M56.141,92.036l3.771,23.558a40.035,40.035,0,0,1-16.391,3.961,31.607,31.607,0,0,1-15.61-3.961l3.771-23.558-.494-10.242c-3.039-2.319-2-8.624-2-8.624L27.917,63.7l9.313-4.038,2.632-1.139,7.683-.089,2.974,1.127,9.54,4.147L58.715,73.723s1.2,5.277-1.725,7.993Z" transform="translate(3.653 7.647)" fill="#f4f4f2"/>
              <path id="Trazado_841587" data-name="Trazado 841587" d="M49.44,59.558c-.309,1.826-1.314,8.224-6.28,8.224-5.1,0-6.665-6.421-7.009-8.123l2.632-1.139,7.683-.088Z" transform="translate(4.731 7.647)" fill="#ffaf82"/>
              <path id="Trazado_841588" data-name="Trazado 841588" d="M53.836,79.921S45.4,86,33.245,80.292c0,0,11.351,3.113,20.591-.371" transform="translate(4.351 10.459)" fill="#007054"/>
              <path id="Trazado_841589" data-name="Trazado 841589" d="M30.149,122.842a36.478,36.478,0,0,0,2.2,3.5c1.068,1.441.838,2.788,1.583,4.137s-.975,1.623-1.63.18-.671-2.194-.991-2.174S30.9,132.4,31,133.49s.888,3.7.587,4.2-1.563-.783-1.863-3.616-.505-2.725-.505-2.725-.025,1.131-.045,2.347a13,13,0,0,0,.5,3.4c.221.777-.485,1.346-.809.975a10.462,10.462,0,0,1-1.208-4.188c.083-1.146.066-3.078.066-3.078s-.5,2.708-.544,3.387.783,3.05.331,3.618c-.187.234-.965.152-1.591-3.35a20.076,20.076,0,0,1,.016-2.881A6.356,6.356,0,0,0,25.5,133.6a17.686,17.686,0,0,0,.161,2.941c.122.957-.7,1.011-1.062-.645a11.53,11.53,0,0,1-.211-4.529c.267-.984-.18-6.291.766-8.486Z" transform="translate(3.173 16.076)" fill="#ffaf82"/>
              <path id="Trazado_841590" data-name="Trazado 841590" d="M32.69,75.354s-.389,13.1-.949,23.5c0,0,.131,8.736-1.369,32.069,0,0-2.971,2.048-5.415-.045,0,0-1.018-24.638-.865-32.757,0,0-.711-28.852,4.075-34.64,0,0,5.618,4.52,4.523,11.876" transform="translate(3.148 8.307)" fill="#ffaf82"/>
              <path id="Trazado_841591" data-name="Trazado 841591" d="M56.068,121.962a36.59,36.59,0,0,1-2.117,3.548c-1.036,1.466-.777,2.808-1.493,4.174s1.011,1.6,1.634.141.621-2.21.942-2.2.5,3.907.42,5-.806,3.721-.493,4.216,1.545-.819,1.781-3.658.444-2.737.444-2.737.05,1.131.1,2.345a12.993,12.993,0,0,1-.426,3.412c-.2.781.513,1.334.829.956a10.447,10.447,0,0,0,1.114-4.214c-.107-1.144-.133-3.076-.133-3.076s.564,2.7.62,3.373-.715,3.067-.251,3.623c.191.231.967.13,1.516-3.385a20.133,20.133,0,0,0-.08-2.88,6.363,6.363,0,0,1,.478,2.013,17.741,17.741,0,0,1-.095,2.945c-.1.958.725,1,1.046-.669a11.5,11.5,0,0,0,.112-4.533c-.288-.978.04-6.294-.953-8.466Z" transform="translate(6.843 15.952)" fill="#ffaf82"/>
              <path id="Trazado_841592" data-name="Trazado 841592" d="M52.347,74.543s.679,13.089,1.469,23.468c0,0,.062,8.737,2.08,32.03,0,0,3.016,1.98,5.411-.17,0,0,.473-24.655.14-32.768,0,0,.072-28.861-4.841-34.537,0,0-5.516,4.648-4.259,11.977" transform="translate(6.826 8.188)" fill="#ffaf82"/>
              <path id="Trazado_841593" data-name="Trazado 841593" d="M57.052,36.852a66.08,66.08,0,0,1,2.319,15.807,7.61,7.61,0,0,1-5.5,7.592A65.553,65.553,0,0,1,43,61.975a31.742,31.742,0,0,1-10.689-1.288A7.68,7.68,0,0,1,27.1,52.9a70.289,70.289,0,0,1,2.428-16.044S32.14,25.093,43.7,25.093c10.8,0,13.348,11.759,13.348,11.759" transform="translate(3.545 3.284)" fill="#1a1a1a"/>
              <path id="Trazado_841594" data-name="Trazado 841594" d="M34,42.219s-2.151-2.144-3.869-.745c-2.029,1.653.094,7.6,3.693,6.972Z" transform="translate(3.84 5.366)" fill="#ffa378"/>
              <path id="Trazado_841595" data-name="Trazado 841595" d="M32.716,47.453A1.029,1.029,0,1,1,31.688,46.4a1.038,1.038,0,0,1,1.028,1.048" transform="translate(4.012 6.073)" fill="#fff"/>
              <path id="Trazado_841596" data-name="Trazado 841596" d="M33.319,46.252a5.65,5.65,0,0,0-3.153-3.558s2.179,2.094,2.345,3.714a.4.4,0,0,0,.4.37l.049,0a.4.4,0,0,0,.357-.524" transform="translate(3.948 5.587)" fill="#f88968"/>
              <path id="Trazado_841597" data-name="Trazado 841597" d="M49.518,42.219s2.151-2.144,3.869-.745c2.029,1.653-.094,7.6-3.693,6.972Z" transform="translate(6.48 5.366)" fill="#ffa378"/>
              <path id="Trazado_841598" data-name="Trazado 841598" d="M52.89,47.453A1.029,1.029,0,1,1,51.862,46.4a1.038,1.038,0,0,1,1.028,1.048" transform="translate(6.652 6.073)" fill="#fff"/>
              <path id="Trazado_841599" data-name="Trazado 841599" d="M50.029,46.252a5.65,5.65,0,0,1,3.153-3.558S51,44.788,50.837,46.408a.4.4,0,0,1-.4.37l-.049,0a.4.4,0,0,1-.357-.524" transform="translate(6.545 5.587)" fill="#f88968"/>
              <path id="Trazado_841600" data-name="Trazado 841600" d="M46.65,53.323,46.5,56.2l-.188,3.6s-.7,1.356-3.87,1.356-3.818-.927-3.818-.927l-.128-1.6-.426-5.308Z" transform="translate(4.982 6.978)" fill="#ffaf82"/>
              <path id="Trazado_841601" data-name="Trazado 841601" d="M46.65,53.323,46.5,56.2c-1.321,1.009-4.45,2.991-8,2.434l-.426-5.308Z" transform="translate(4.982 6.978)" fill="#f88968"/>
              <path id="Trazado_841602" data-name="Trazado 841602" d="M54.392,41.55c-.029.344-.064.7-.1,1.056C53.548,50,51.307,59.349,43.3,59.349c-7.817,0-10.9-8.82-11.9-16.031-.069-.528-.133-1.038-.185-1.543A11.642,11.642,0,0,1,42.483,28.8h.606a11.524,11.524,0,0,1,10.733,7.942,11.739,11.739,0,0,1,.431,1.678,11.9,11.9,0,0,1,.139,3.126" transform="translate(4.076 3.77)" fill="#ffaf82"/>
              <path id="Trazado_841603" data-name="Trazado 841603" d="M37.833,43.113a1.317,1.317,0,0,1-1.484-1.135,1.343,1.343,0,0,1,.1-.732c-1.073-.129-1.052-.793-1.052-.793.167.284,1.422.119,1.942.037h0l.155-.026H37.5a.374.374,0,0,1,.062-.006,1.317,1.317,0,0,1,1.38,1.146,1.332,1.332,0,0,1-1.114,1.51" transform="translate(4.633 5.294)" fill="#32324c"/>
              <path id="Trazado_841604" data-name="Trazado 841604" d="M42.062,53.108a4.823,4.823,0,0,1-1.757-.552.306.306,0,0,1-.11-.415.3.3,0,0,1,.407-.112,3.867,3.867,0,0,0,3.868-.067.3.3,0,0,1,.412.093.307.307,0,0,1-.09.42,4.056,4.056,0,0,1-2.729.633" transform="translate(5.255 6.794)" fill="#f88968"/>
              <path id="Trazado_841605" data-name="Trazado 841605" d="M42.873,47.059h-1.55a.325.325,0,0,1,0-.649h1.55a.07.07,0,0,0,.058-.029.076.076,0,0,0,.011-.064l-1.288-4.493a.325.325,0,0,1,.216-.4.318.318,0,0,1,.4.221l1.288,4.493a.728.728,0,0,1-.113.636.7.7,0,0,1-.568.29" transform="translate(5.366 5.419)" fill="#f88968"/>
              <path id="Trazado_841606" data-name="Trazado 841606" d="M39.688,37.606h0a.617.617,0,0,1-.587.7c-1.2.034-3.7.267-4.909,1.572,0,0,.4-2.258,4.813-2.811a.614.614,0,0,1,.683.544" transform="translate(4.475 4.85)" fill="#32324c"/>
              <path id="Trazado_841607" data-name="Trazado 841607" d="M44.562,37.488h0a.616.616,0,0,0,.606.677c1.2,0,3.7.157,4.952,1.425,0,0-.465-2.245-4.891-2.667a.616.616,0,0,0-.667.564" transform="translate(5.831 4.832)" fill="#32324c"/>
              <path id="Trazado_841608" data-name="Trazado 841608" d="M45.97,42.963a1.317,1.317,0,0,0,1.484-1.135,1.343,1.343,0,0,0-.1-.732c1.073-.129,1.052-.793,1.052-.793-.167.284-1.422.119-1.942.037h0l-.155-.026H46.3a.374.374,0,0,0-.062-.006,1.317,1.317,0,0,0-1.38,1.146,1.332,1.332,0,0,0,1.114,1.51" transform="translate(5.869 5.274)" fill="#32324c"/>
              <path id="Trazado_841609" data-name="Trazado 841609" d="M46.842,47.857a4.366,4.366,0,0,1-.057.763,4.267,4.267,0,0,1-1.016,2.14,4.126,4.126,0,0,1-6.143.083,4.262,4.262,0,0,1-1.07-2.112,4.319,4.319,0,0,1-.077-.761c0-.011,0-.023,0-.035l8.361-.112v.035" transform="translate(5.036 6.258)" fill="#920e08"/>
              <path id="Trazado_841610" data-name="Trazado 841610" d="M46.842,47.857a4.366,4.366,0,0,1-.057.763l-8.228.11a4.319,4.319,0,0,1-.077-.761c0-.011,0-.023,0-.035l8.361-.112v.035" transform="translate(5.036 6.258)" fill="#fff"/>
              <path id="Trazado_841611" data-name="Trazado 841611" d="M45.637,50.554a4.128,4.128,0,0,1-6.143.083,4.527,4.527,0,0,1,6.143-.083" transform="translate(5.168 6.464)" fill="#f85c66"/>
              <path id="Trazado_841612" data-name="Trazado 841612" d="M53.03,38.335c-3-.26-10.736-2.686-17.776-5.283,0,0,.617,7.33-3.562,11.026a2.416,2.416,0,0,0-.291-.759c-.07-.528-.135-1.038-.187-1.543A11.643,11.643,0,0,1,42.484,28.805h.605a11.52,11.52,0,0,1,10.733,7.941,11.643,11.643,0,0,1,.431,1.679s-.442-.018-1.222-.09" transform="translate(4.076 3.77)" fill="#1a1a1a"/>
              <path id="Trazado_841613" data-name="Trazado 841613" d="M51.863,40.631c-.029.344-.064.7-.1,1.056-.943-.552-1.2-2.835-1.263-4.271-.035-.706-.024-1.2-.024-1.2s.052-.25.815-.386a11.739,11.739,0,0,1,.431,1.678,11.9,11.9,0,0,1,.139,3.126" transform="translate(6.606 4.689)" fill="#32324c"/>
              <path id="Trazado_841614" data-name="Trazado 841614" d="M168.25,115.43H130.558l1.234-19.112h34.814Z" transform="translate(17.086 12.605)" fill="#1a1a1a"/>
              <path id="Trazado_841615" data-name="Trazado 841615" d="M130.688,113.992l-1.122,44.14a7.057,7.057,0,0,0,14.073.973l4.438-43.91a8.72,8.72,0,1,0-17.388-1.2" transform="translate(16.955 13.815)" fill="#1a1a1a"/>
              <path id="Trazado_841616" data-name="Trazado 841616" d="M129.584,211.32l.587-20.6,8.174.032-.572,20.573Z" transform="translate(16.958 24.959)" fill="#fff"/>
              <path id="Trazado_841617" data-name="Trazado 841617" d="M141.158,206.234l1.552,6.872H115.4v-.2a4.1,4.1,0,0,1,2.34-3.706l12.672-5.056a1.212,1.212,0,0,1,1.39.158c1.637,1.729,3.437,4.544,8.436,1.489a.627.627,0,0,1,.918.442" transform="translate(15.102 26.697)" fill="#1a1a1a"/>
              <rect id="Rectángulo_374641" data-name="Rectángulo 374641" width="27.308" height="1.804" transform="translate(130.503 239.802)" fill="#fff"/>
              <path id="Línea_10623" data-name="Línea 10623" d="M1.53,5.432-.859.408.859-.408,3.247,4.615Z" transform="translate(144.517 235.647)" fill="#fff"/>
              <path id="Línea_10624" data-name="Línea 10624" d="M.922,4.155-.859.408.859-.408,2.64,3.338Z" transform="translate(141.499 236.803)" fill="#fff"/>
              <path id="Trazado_841618" data-name="Trazado 841618" d="M143.892,154.032l-3.23,53.517H127.535l2.322-54.509a7.041,7.041,0,1,1,14.035.992" transform="translate(16.69 19.133)" fill="#1a1a1a"/>
              <path id="Trazado_841619" data-name="Trazado 841619" d="M165.85,113.992l1.122,44.14a7.057,7.057,0,0,1-14.073.973l-4.438-43.91a8.72,8.72,0,1,1,17.388-1.2" transform="translate(19.422 13.815)" fill="#1a1a1a"/>
              <path id="Trazado_841620" data-name="Trazado 841620" d="M165.6,211.32l-.586-20.6-8.175.032.572,20.573Z" transform="translate(20.525 24.959)" fill="#fff"/>
              <path id="Trazado_841621" data-name="Trazado 841621" d="M156.169,206.234l-1.552,6.872h27.308v-.2a4.1,4.1,0,0,0-2.34-3.706l-12.673-5.056a1.212,1.212,0,0,0-1.39.158c-1.637,1.729-3.436,4.544-8.436,1.489a.627.627,0,0,0-.918.442" transform="translate(20.234 26.697)" fill="#1a1a1a"/>
              <rect id="Rectángulo_374642" data-name="Rectángulo 374642" width="27.308" height="1.804" transform="translate(174.851 239.802)" fill="#fff"/>
              <path id="Línea_10625" data-name="Línea 10625" d="M.859,5.432-.859,4.615,1.53-.408,3.247.408Z" transform="translate(185.758 235.647)" fill="#fff"/>
              <path id="Línea_10626" data-name="Línea 10626" d="M.859,4.155-.859,3.338.922-.408,2.64.408Z" transform="translate(189.383 236.803)" fill="#fff"/>
              <path id="Trazado_841622" data-name="Trazado 841622" d="M152.4,154.032l3.23,53.517h12.332l-1.527-54.509a7.041,7.041,0,1,0-14.035.992" transform="translate(19.938 19.133)" fill="#1a1a1a"/>
              <path id="Trazado_841623" data-name="Trazado 841623" d="M131.46,128.686a4.347,4.347,0,0,0-1.756-1.744,2.513,2.513,0,0,0-2.532-2.629l-1.021.008a2.514,2.514,0,0,0-2.49,2.4l0,.077a22.292,22.292,0,0,0-.815,8.228c.525,5.937,3.534,8.459,5.363,8.157,1.728-.286,1.467-7.311,1.4-9.92l1.537,2.386a.824.824,0,0,0,1.515-.49l-.164-3.067a7.05,7.05,0,0,0-1.035-3.4" transform="translate(16.065 16.269)" fill="#f3a396"/>
              <path id="Trazado_841624" data-name="Trazado 841624" d="M129.6,131.421l4.319-35.488a5.2,5.2,0,1,0-10.35-.668l-.012,35.931Z" transform="translate(16.169 11.79)" fill="#f3a396"/>
              <path id="Trazado_841625" data-name="Trazado 841625" d="M124.592,58.3c-.182,9.574-.712,31.758-.949,41.537a5.166,5.166,0,0,0,10.306.64l4.188-41.791a6.775,6.775,0,1,0-13.544-.386" transform="translate(16.181 6.761)" fill="#f3a396"/>
              <path id="Trazado_841626" data-name="Trazado 841626" d="M140.547,58.824a8.753,8.753,0,0,0-17.367,1.511h-.007l-.643,17.458,17.416.859.673-17.186a8.743,8.743,0,0,0-.072-2.643" transform="translate(16.035 6.755)" fill="#f4f4f2"/>
            </g>
          </g>
          <g id="Grupo_1078898" data-name="Grupo 1078898" transform="translate(138.566 58.375)">
            <g id="Grupo_1078897" data-name="Grupo 1078897" clip-path="url(#clip-path-9)">
              <path id="Línea_10627" data-name="Línea 10627" d="M45.661,2.341-.029.966.029-.966,45.719.41Z" transform="translate(-14.189 20.015)" fill="#1a1a1a"/>
              <path id="Línea_10628" data-name="Línea 10628" d="M45.661,2.341-.029.966.029-.966,45.719.41Z" transform="translate(-13.99 13.413)" fill="#1a1a1a"/>
              <path id="Línea_10629" data-name="Línea 10629" d="M45.661,2.341-.029.966.029-.966,45.719.41Z" transform="translate(-13.791 6.812)" fill="#1a1a1a"/>
            </g>
          </g>
          <g id="Grupo_1078900" data-name="Grupo 1078900">
            <g id="Grupo_1078899" data-name="Grupo 1078899" clip-path="url(#clip-path)">
              <path id="Trazado_841628" data-name="Trazado 841628" d="M235.737,49.416a4.354,4.354,0,0,0-1.505,1.964h0a2.514,2.514,0,0,0-2.283,2.849l.14,1.011a2.513,2.513,0,0,0,2.695,2.162l.076-.006a22.339,22.339,0,0,0,8.265-.245c5.821-1.281,7.935-4.59,7.4-6.365-.5-1.677-7.439-.518-10.017-.119l2.169-1.831A.824.824,0,0,0,242,47.4l-3.021.556a7.05,7.05,0,0,0-3.241,1.462" transform="translate(30.351 6.201)" fill="#f3a396"/>
              <path id="Trazado_841629" data-name="Trazado 841629" d="M238.7,50.918l-35.748.265a5.2,5.2,0,1,0,.663,10.351l35.636-4.592Z" transform="translate(25.882 6.664)" fill="#f3a396"/>
              <path id="Trazado_841630" data-name="Trazado 841630" d="M166.869,65.856c9.519-1.047,31.589-3.363,41.316-4.382a5.167,5.167,0,0,0-.686-10.3l-41.983,1.2a6.775,6.775,0,1,0,1.354,13.482" transform="translate(20.854 6.696)" fill="#f3a396"/>
              <path id="Trazado_841631" data-name="Trazado 841631" d="M165.365,50.458a8.753,8.753,0,0,0,3.724,17.03v.007l17.4-1.6-1.38-17.383-17.129,1.535a8.759,8.759,0,0,0-2.612.411" transform="translate(20.841 6.349)" fill="#f4f4f2"/>
            </g>
          </g>
          <g id="Grupo_1078902" data-name="Grupo 1078902" transform="translate(180.093 54.862)">
            <g id="Grupo_1078901" data-name="Grupo 1078901" clip-path="url(#clip-path-11)">
              <path id="Línea_10630" data-name="Línea 10630" d="M3.529,45.585-.961.095.961-.095,5.452,45.4Z" transform="translate(18.455 -13.248)" fill="#1a1a1a"/>
              <path id="Línea_10631" data-name="Línea 10631" d="M3.529,45.585-.961.095.961-.095,5.452,45.4Z" transform="translate(11.882 -12.599)" fill="#1a1a1a"/>
              <path id="Línea_10632" data-name="Línea 10632" d="M3.529,45.585-.961.095.961-.095,5.452,45.4Z" transform="translate(5.31 -11.95)" fill="#1a1a1a"/>
            </g>
          </g>
          <g id="Grupo_1078904" data-name="Grupo 1078904">
            <g id="Grupo_1078903" data-name="Grupo 1078903" clip-path="url(#clip-path)">
              <path id="Trazado_841633" data-name="Trazado 841633" d="M155.868,46.775l-6.533.094-6.36-.094L129.35,52.6l2.6,50.2h34.944l2.6-50.2Z" transform="translate(16.928 6.121)" fill="#f4f4f2"/>
            </g>
          </g>
          <g id="Grupo_1078906" data-name="Grupo 1078906" transform="translate(146.278 52.896)">
            <g id="Grupo_1078905" data-name="Grupo 1078905" clip-path="url(#clip-path-13)">
              <path id="Línea_10633" data-name="Línea 10633" d="M45.711.966H0V-.966H45.711Z" transform="translate(-1.759 50.759)" fill="#1a1a1a"/>
              <path id="Línea_10634" data-name="Línea 10634" d="M45.711.966H0V-.966H45.711Z" transform="translate(-1.759 44.154)" fill="#1a1a1a"/>
              <path id="Línea_10635" data-name="Línea 10635" d="M45.711.966H0V-.966H45.711Z" transform="translate(-1.759 37.55)" fill="#1a1a1a"/>
              <path id="Línea_10636" data-name="Línea 10636" d="M45.711.966H0V-.966H45.711Z" transform="translate(-1.759 30.946)" fill="#1a1a1a"/>
              <path id="Línea_10637" data-name="Línea 10637" d="M45.711.966H0V-.966H45.711Z" transform="translate(-1.759 24.341)" fill="#1a1a1a"/>
              <path id="Línea_10638" data-name="Línea 10638" d="M45.711.966H0V-.966H45.711Z" transform="translate(-1.759 17.737)" fill="#1a1a1a"/>
              <path id="Línea_10639" data-name="Línea 10639" d="M45.711.966H0V-.966H45.711Z" transform="translate(-1.759 11.133)" fill="#1a1a1a"/>
              <path id="Línea_10640" data-name="Línea 10640" d="M45.711.966H0V-.966H45.711Z" transform="translate(-1.759 4.528)" fill="#1a1a1a"/>
            </g>
          </g>
          <g id="Grupo_1078914" data-name="Grupo 1078914">
            <g id="Grupo_1078913" data-name="Grupo 1078913" clip-path="url(#clip-path)">
              <path id="Trazado_841635" data-name="Trazado 841635" d="M159.475,48.747l-4.614-1.972-6.568.094-6.36-.094-4.615,1.972s.371,5.709,10.971,5.763v0h.172v0c10.6-.054,11.015-5.763,11.015-5.763" transform="translate(17.97 6.121)" fill="#f3a396"/>
              <path id="Trazado_841636" data-name="Trazado 841636" d="M148.017,55.534h0a7.133,7.133,0,0,1-7.132-7.132V33.223H155.15V48.4a7.133,7.133,0,0,1-7.132,7.132" transform="translate(18.437 4.348)" fill="#f3a396"/>
              <path id="Trazado_841637" data-name="Trazado 841637" d="M140.885,37.743s3.924,7.294,8.409,6.937c6.932-.551,5.783-9.143,5.783-9.143s-2.689,5.73-6.942,5.736a9.306,9.306,0,0,1-7.25-3.529" transform="translate(18.437 4.651)" fill="#1a1a1a"/>
              <path id="Trazado_841638" data-name="Trazado 841638" d="M137.881,30.22l-.711-7.214c-.916-4.612,2.682-7.05,5.828-7.05h10.9c3.337,0,7.312,2.42,5.619,7.619l-.973,7.861Z" transform="translate(17.932 2.088)" fill="#1a1a1a"/>
              <path id="Trazado_841639" data-name="Trazado 841639" d="M155.422,32.979c2.16,1.595,5.9-5.659,3.792-7.377s-3.5,1.432-3.5,1.432l-.052,2.667-.309,2.5-.12.77Z" transform="translate(20.315 3.283)" fill="#f3a396"/>
              <path id="Trazado_841640" data-name="Trazado 841640" d="M155.871,29.526a.261.261,0,0,1-.234-.374,3.249,3.249,0,0,1,1.916-1.893,1.922,1.922,0,0,1,1.078-.024.26.26,0,0,1-.164.495c-.064-.02-1.374-.4-2.361,1.649A.261.261,0,0,1,155.871,29.526Z" transform="translate(20.398 3.59)" fill="#d26665"/>
              <path id="Trazado_841641" data-name="Trazado 841641" d="M157.121,30.6a.261.261,0,0,1-.2-.426,1.117,1.117,0,0,0,.309-.926,1.736,1.736,0,0,0-.809-.96.261.261,0,0,1,.246-.459,2.222,2.222,0,0,1,1.074,1.318,1.608,1.608,0,0,1-.418,1.358A.26.26,0,0,1,157.121,30.6Z" transform="translate(20.486 3.671)" fill="#d26665"/>
              <path id="Trazado_841642" data-name="Trazado 841642" d="M139.232,32.979c-2.16,1.595-5.9-5.659-3.792-7.377s3.427,1.464,3.427,1.464l.122,2.634.309,2.5.12.77Z" transform="translate(17.643 3.284)" fill="#f3a396"/>
              <path id="Trazado_841643" data-name="Trazado 841643" d="M138.561,29.526a.26.26,0,0,1-.235-.147c-.99-2.054-2.3-1.666-2.36-1.649a.261.261,0,0,1-.163-.495,1.92,1.92,0,0,1,1.078.024,3.249,3.249,0,0,1,1.915,1.893.261.261,0,0,1-.234.374Z" transform="translate(17.783 3.59)" fill="#d26665"/>
              <path id="Trazado_841644" data-name="Trazado 841644" d="M137.113,30.6a.26.26,0,0,1-.2-.1,1.608,1.608,0,0,1-.418-1.358,2.222,2.222,0,0,1,1.074-1.318.261.261,0,0,1,.246.459h0a1.72,1.72,0,0,0-.81.962,1.118,1.118,0,0,0,.31.924.261.261,0,0,1-.2.426Z" transform="translate(17.893 3.671)" fill="#d26665"/>
              <path id="Trazado_841645" data-name="Trazado 841645" d="M158.368,25.076A53.055,53.055,0,0,1,157.175,36.2a10.516,10.516,0,0,1-4.548,6.561l-.423.276a7.577,7.577,0,0,1-8.123.1,10.5,10.5,0,0,1-4.817-6.974,77.528,77.528,0,0,1-1.094-11.08s-.939-11.341,9.955-11.121,10.243,11.121,10.243,11.121" transform="translate(18.079 1.826)" fill="#f3a396"/>
              <path id="Trazado_841646" data-name="Trazado 841646" d="M158.528,12.568c-3.462-2.448-10.3-.735-14.027.973.078-1.113-.607-.991-.607-.991-6.556,1.761-4.836,6.927-4.836,6.927l.063.032c-.684,1.486-1.574,4.654-.734,10.386,0,0,1.738-6.2,1.787-9.9,2.907,1.282,10.88,4.4,16.079,2.656a56.924,56.924,0,0,0,1.877,7.247,23.423,23.423,0,0,0-.053-8.158,6.047,6.047,0,0,0,.9-.763s4.456-4.935-.449-8.4" transform="translate(18.066 1.485)" fill="#1a1a1a"/>
              <path id="Trazado_841647" data-name="Trazado 841647" d="M147.165,32.441a1.154,1.154,0,0,1-1.084-.708,1.205,1.205,0,0,1-.085-.446V27.629a.26.26,0,1,1,.521,0v3.658a.685.685,0,0,0,.048.254.664.664,0,0,0,.791.354l.95-.252a.261.261,0,1,1,.134.5l-.95.252A1.263,1.263,0,0,1,147.165,32.441Z" transform="translate(19.14 3.616)" fill="#d26665"/>
              <path id="Trazado_841648" data-name="Trazado 841648" d="M144.1,26.836a.946.946,0,1,1-.945-.945.945.945,0,0,1,.945.945" transform="translate(18.611 3.388)" fill="#1a1a1a"/>
              <path id="Trazado_841649" data-name="Trazado 841649" d="M151.846,26.836a.946.946,0,1,1-.945-.945.945.945,0,0,1,.945.945" transform="translate(19.624 3.388)" fill="#1a1a1a"/>
              <path id="Línea_10641" data-name="Línea 10641" d="M0,1.748A.2.2,0,0,1-.163,1.66.2.2,0,0,1-.108,1.39L2.245-.163a.2.2,0,0,1,.271.055A.2.2,0,0,1,2.46.163L.108,1.716A.2.2,0,0,1,0,1.748Z" transform="translate(161.129 31.259)" fill="#d26665"/>
              <path id="Línea_10642" data-name="Línea 10642" d="M2.081,1.764a.2.2,0,0,1-.118-.039L-.118.156A.2.2,0,0,1-.156-.118.2.2,0,0,1,.118-.156L2.2,1.412a.2.2,0,0,1-.118.352Z" transform="translate(169.035 31.252)" fill="#d26665"/>
              <path id="Trazado_841650" data-name="Trazado 841650" d="M147.243,34.035a4.758,4.758,0,0,1-2.765-.606.26.26,0,0,1,.315-.415h0a4.456,4.456,0,0,0,2.45.5,6.42,6.42,0,0,0,2.672-.523.261.261,0,0,1,.238.463A6.8,6.8,0,0,1,147.243,34.035Z" transform="translate(18.928 4.348)" fill="#d26665"/>
              <path id="Línea_10643" data-name="Línea 10643" d="M0,1.219a.2.2,0,0,1-.2-.2V0A.2.2,0,0,1,0-.2.2.2,0,0,1,.2,0V1.023A.2.2,0,0,1,0,1.219Z" transform="translate(166.249 42.669)" fill="#d26665"/>
              <path id="Trazado_841651" data-name="Trazado 841651" d="M145.855,25.021l.035-1.844-3.42.062a1.886,1.886,0,0,0-1.178.441l-1.362,1.567,2.266-.337Z" transform="translate(18.312 3.033)" fill="#1a1a1a"/>
              <path id="Trazado_841652" data-name="Trazado 841652" d="M148.714,25.021l-.035-1.844,3.42.062a1.886,1.886,0,0,1,1.178.441l1.362,1.567-2.266-.337Z" transform="translate(19.457 3.033)" fill="#1a1a1a"/>
              <g id="Grupo_1078909" data-name="Grupo 1078909" transform="translate(167.277 27.101)" opacity="0.19">
                <g id="Grupo_1078908" data-name="Grupo 1078908">
                  <g id="Grupo_1078907" data-name="Grupo 1078907" clip-path="url(#clip-path-15)">
                    <path id="Trazado_841653" data-name="Trazado 841653" d="M156.105,28.058a4.093,4.093,0,1,1-4.093-4.093,4.092,4.092,0,0,1,4.093,4.093" transform="translate(-147.919 -23.965)" fill="#fff"/>
                  </g>
                </g>
              </g>
              <g id="Grupo_1078912" data-name="Grupo 1078912" transform="translate(157.222 27.101)" opacity="0.19">
                <g id="Grupo_1078911" data-name="Grupo 1078911">
                  <g id="Grupo_1078910" data-name="Grupo 1078910" clip-path="url(#clip-path-15)">
                    <path id="Trazado_841654" data-name="Trazado 841654" d="M147.214,28.058a4.093,4.093,0,1,1-4.093-4.093,4.092,4.092,0,0,1,4.093,4.093" transform="translate(-139.028 -23.965)" fill="#fff"/>
                  </g>
                </g>
              </g>
              <path id="Trazado_841655" data-name="Trazado 841655" d="M143.122,23.8a4.258,4.258,0,1,1-4.259,4.258A4.263,4.263,0,0,1,143.122,23.8Zm0,8.185a3.927,3.927,0,1,0-3.928-3.927A3.932,3.932,0,0,0,143.122,31.985Z" transform="translate(18.194 3.136)" fill="#1a1a1a"/>
              <path id="Elipse_5027" data-name="Elipse 5027" d="M4.093-.165A4.258,4.258,0,1,1-.165,4.093,4.263,4.263,0,0,1,4.093-.165Zm0,8.185A3.927,3.927,0,1,0,.166,4.093,3.932,3.932,0,0,0,4.093,8.02Z" transform="translate(167.278 27.101)" fill="#1a1a1a"/>
              <path id="Trazado_841656" data-name="Trazado 841656" d="M146.267,27.8a.166.166,0,0,1-.113-.286,1.468,1.468,0,0,1,2.1,0,.166.166,0,0,1-.235.233,1.158,1.158,0,0,0-1.639,0A.165.165,0,0,1,146.267,27.8Z" transform="translate(19.142 3.563)" fill="#1a1a1a"/>
              <path id="Línea_10644" data-name="Línea 10644" d="M.681.166H0V-.166H.681Z" transform="translate(156.542 31.194)" fill="#1a1a1a"/>
              <path id="Línea_10645" data-name="Línea 10645" d="M.681.166H0V-.166H.681Z" transform="translate(175.587 31.194)" fill="#1a1a1a"/>
              <path id="Trazado_841657" data-name="Trazado 841657" d="M252.715,194.659c.135,1.521.285,3.156.438,4.795.505,5.439,1.039,10.888,1.137,12.117,0,0-5.667,1.929-5.74,3.389s7.838,1.054,7.838,1.054,5.484,1.759,4.112-3.119c0,0,.565-5.407,1.222-11.78.178-1.728.363-3.527.545-5.309a40.444,40.444,0,0,1-9.551-1.147" transform="translate(32.527 25.475)" fill="#f9bb8b"/>
              <path id="Trazado_841658" data-name="Trazado 841658" d="M263.292,182.411c-1.917-.038-9.612,7.281-11.52,7.137.053,1.221.259,3.748.522,6.714a40.493,40.493,0,0,0,9.55,1.147c.783-7.658,1.515-15,1.448-15" transform="translate(32.949 23.872)" fill="#e9a077"/>
              <path id="Trazado_841659" data-name="Trazado 841659" d="M251.086,210.673a7.723,7.723,0,0,0-3.112,1.984s.1.342,3.276.872a4.557,4.557,0,0,0-.164-2.855" transform="translate(32.452 27.57)" fill="#1a1a1a"/>
              <path id="Trazado_841660" data-name="Trazado 841660" d="M260.41,210.461c-3.079,1.528-6.6-.88-6.6-.88a17.031,17.031,0,0,0-3.088,1.235,4.549,4.549,0,0,1,.163,2.855c.819.137,1.839.285,3.119.444,6.246.777,6.592-.909,6.592-.909a9.694,9.694,0,0,0-.19-2.746" transform="translate(32.812 27.427)" fill="#1a1a1a"/>
              <path id="Trazado_841661" data-name="Trazado 841661" d="M260.973,212.834c-.04.321-.1.659-.175,1.012,0,0-1.841.554-6.76.305-5.5-.278-6.166-1.045-6.166-1.045a1.881,1.881,0,0,1,.114-.68,29.24,29.24,0,0,0,12.987.407" transform="translate(32.438 27.8)" fill="#1a1a1a"/>
              <path id="Trazado_841662" data-name="Trazado 841662" d="M252.67,212.346h-.007a.077.077,0,0,1-.064-.088,2.017,2.017,0,0,0-.723-1.939.08.08,0,0,1-.02-.11.074.074,0,0,1,.1-.023,2.216,2.216,0,0,1,.788,2.093.076.076,0,0,1-.078.068" transform="translate(32.958 27.505)" fill="#253269"/>
              <path id="Trazado_841663" data-name="Trazado 841663" d="M253.644,212.057h0a.077.077,0,0,1-.071-.083,2.223,2.223,0,0,0-.7-1.944.081.081,0,0,1-.02-.11.073.073,0,0,1,.1-.021,2.326,2.326,0,0,1,.764,2.083.077.077,0,0,1-.079.075" transform="translate(33.089 27.467)" fill="#253269"/>
              <path id="Trazado_841664" data-name="Trazado 841664" d="M253.289,210.646a.074.074,0,0,1-.067-.051c-.044-.124-.425-1.227-.15-1.633a.35.35,0,0,1,.308-.154.335.335,0,0,1,.292.159c.242.41-.253,1.51-.31,1.634a.077.077,0,0,1-.072.044m.1-1.679h-.012a.194.194,0,0,0-.181.086c-.164.242-.011.909.107,1.3.161-.391.383-1.061.24-1.3a.169.169,0,0,0-.154-.084" transform="translate(33.106 27.326)" fill="#253269"/>
              <path id="Trazado_841665" data-name="Trazado 841665" d="M253.259,210.566a.074.074,0,0,1-.064-.046.082.082,0,0,1,.014-.086c.087-.1.857-.947,1.334-.876a.348.348,0,0,1,.267.217.355.355,0,0,1-.007.344c-.244.412-1.407.446-1.538.448h-.006m1.234-.856c-.284-.015-.767.41-1.042.69.4-.026,1.079-.121,1.224-.364a.2.2,0,0,0,0-.193.2.2,0,0,0-.155-.13l-.026,0" transform="translate(33.134 27.424)" fill="#253269"/>
              <path id="Trazado_841666" data-name="Trazado 841666" d="M265.258,199.3c1.8,5.734,4.142,13.046,4.142,13.046-.524,5.04,4.581,2.376,4.581,2.376s6.681,1.3,6.36-.13-4.785-2.86-4.785-2.86c-.127-1.373-.891-8.079-1.6-14.131-.167-1.441-.332-2.842-.484-4.128a33.475,33.475,0,0,1-9.323,2.285c.319,1.032.7,2.245,1.106,3.542" transform="translate(34.569 25.319)" fill="#f6ba8b"/>
              <path id="Trazado_841667" data-name="Trazado 841667" d="M263.324,193.2c-.035.007.347,1.289.936,3.194a33.513,33.513,0,0,0,9.323-2.284c-.288-2.437-.531-4.452-.664-5.494-1.856.465-7.714,4.222-9.6,4.585" transform="translate(34.46 24.684)" fill="#e9a077"/>
              <path id="Trazado_841668" data-name="Trazado 841668" d="M277.189,210.462a7.722,7.722,0,0,1,3.039,2.1s-.111.337-3.306.752a4.551,4.551,0,0,1,.267-2.848" transform="translate(36.225 27.543)" fill="#1a1a1a"/>
              <path id="Trazado_841669" data-name="Trazado 841669" d="M268.634,209.912c3.022,1.637,6.623-.641,6.623-.641a17.111,17.111,0,0,1,3.041,1.347,4.551,4.551,0,0,0-.267,2.848c-.823.106-1.848.218-3.132.331-6.27.551-6.555-1.147-6.555-1.147a9.678,9.678,0,0,1,.29-2.738" transform="translate(35.116 27.387)" fill="#1a1a1a"/>
              <path id="Trazado_841670" data-name="Trazado 841670" d="M268.342,212.259a9.84,9.84,0,0,0,.139,1.018s1.818.62,6.744.55c5.5-.078,6.2-.82,6.2-.82a1.867,1.867,0,0,0-.088-.684,29.246,29.246,0,0,1-12.994-.063" transform="translate(35.117 27.778)" fill="#1a1a1a"/>
              <path id="Trazado_841671" data-name="Trazado 841671" d="M275.256,212.064h.007a.078.078,0,0,0,.067-.087,2.02,2.02,0,0,1,.794-1.912.08.08,0,0,0,.024-.109.074.074,0,0,0-.1-.026,2.216,2.216,0,0,0-.864,2.064.076.076,0,0,0,.076.07" transform="translate(36.01 27.472)" fill="#253269"/>
              <path id="Trazado_841672" data-name="Trazado 841672" d="M274.29,211.74h0a.078.078,0,0,0,.075-.08,2.217,2.217,0,0,1,.768-1.917.082.082,0,0,0,.024-.109.074.074,0,0,0-.1-.026,2.333,2.333,0,0,0-.839,2.055.077.077,0,0,0,.077.077" transform="translate(35.886 27.429)" fill="#253269"/>
              <path id="Trazado_841673" data-name="Trazado 841673" d="M274.675,210.343a.076.076,0,0,1-.07-.048c-.053-.126-.509-1.242-.251-1.644a.337.337,0,0,1,.3-.148.347.347,0,0,1,.3.165c.26.415-.159,1.5-.208,1.626a.077.077,0,0,1-.069.049m-.2-1.6c-.153.237.046.915.192,1.311.133-.388.31-1.048.155-1.3a.194.194,0,0,0-.179-.093h-.011a.169.169,0,0,0-.157.078" transform="translate(35.894 27.286)" fill="#253269"/>
              <path id="Trazado_841674" data-name="Trazado 841674" d="M274.8,210.268c-.131-.007-1.291-.083-1.52-.5a.392.392,0,0,1,.28-.551c.478-.052,1.218.824,1.3.925a.079.079,0,0,1,.011.086.078.078,0,0,1-.067.044H274.8m-1.222-.9a.2.2,0,0,0-.158.124.192.192,0,0,0-.009.193c.136.248.805.366,1.21.408-.265-.289-.732-.732-1.017-.727h-.026" transform="translate(35.759 27.379)" fill="#253269"/>
              <path id="Trazado_841675" data-name="Trazado 841675" d="M255.875,164.262l-7.406-1.729s-.24,2.6-.512,6.163a21.018,21.018,0,0,0,6.523,1.619c.486-2.416.974-4.6,1.4-6.054" transform="translate(32.45 21.27)" fill="#e9a077"/>
              <path id="Trazado_841676" data-name="Trazado 841676" d="M248.213,167.983c-.383,5.006-.941,8.852-.88,13.117-.642,1.86-1.774,5.877-1.158,6.151s1.647-2.443,1.647-2.443-1,3.368-.384,3.591,1.5-3.325,1.5-3.325-.637,3.586-.071,3.829c.974.377,1.276-3.886,1.276-3.886s.163,3.447.921,3.512.45-4.4.45-4.4.738,1.877,1.308,1.146-.838-3.9-.838-3.9,1.428-5.211,2.749-11.772a21.018,21.018,0,0,1-6.523-1.619" transform="translate(32.193 21.984)" fill="#f9bb8b"/>
              <path id="Trazado_841677" data-name="Trazado 841677" d="M269.116,164.262l7.406-1.729s.24,2.6.512,6.163a21.018,21.018,0,0,1-6.523,1.619c-.486-2.416-.974-4.6-1.4-6.054" transform="translate(35.219 21.27)" fill="#e9a077"/>
              <path id="Trazado_841678" data-name="Trazado 841678" d="M276.873,167.983c.383,5.006.941,8.852.88,13.117.642,1.86,1.774,5.877,1.158,6.151s-1.647-2.443-1.647-2.443,1,3.368.384,3.591-1.5-3.325-1.5-3.325.637,3.586.071,3.829c-.974.377-1.276-3.886-1.276-3.886s-.163,3.447-.921,3.512-.45-4.4-.45-4.4-.738,1.877-1.308,1.146.838-3.9.838-3.9-1.428-5.211-2.749-11.772a21.018,21.018,0,0,0,6.523-1.619" transform="translate(35.38 21.984)" fill="#f9bb8b"/>
              <path id="Trazado_841679" data-name="Trazado 841679" d="M283.426,165.123a53.4,53.4,0,0,0-4.589-7.049c-2.541-3.2-7.646-4.153-7.646-4.153l-5.8-.355-.9.053-.9-.053-5.8.355a9.5,9.5,0,0,0-7.645,4.153c-2.413,3.294-4.589,7.049-4.589,7.049a16.709,16.709,0,0,0,8.933,5.164l-.409,8.6s3.688,1.8,10.409,1.8a26.91,26.91,0,0,0,10.408-1.8l-.409-8.6a16.709,16.709,0,0,0,8.933-5.164" transform="translate(32.136 20.097)" fill="#ccc"/>
              <path id="Trazado_841680" data-name="Trazado 841680" d="M271.186,169.067l-.355-.984a16.276,16.276,0,0,0,8.687-5.191s.382.6.6,1.011a12.7,12.7,0,0,1-8.933,5.164" transform="translate(35.443 21.317)" fill="#5b5a5a"/>
              <path id="Trazado_841681" data-name="Trazado 841681" d="M256.381,153.934a5.4,5.4,0,0,0,5.629,5.311c5.543.055,6.108-5.378,6.108-5.378a41.7,41.7,0,0,0-11.737.068" transform="translate(33.552 20.084)" fill="#5b5a5a"/>
              <path id="Trazado_841682" data-name="Trazado 841682" d="M254.5,169.067l.354-.984a16.276,16.276,0,0,1-8.687-5.191s-.382.6-.6,1.011a12.7,12.7,0,0,0,8.933,5.164" transform="translate(32.136 21.317)" fill="#5b5a5a"/>
              <path id="Trazado_841683" data-name="Trazado 841683" d="M263.489,199.077a51.366,51.366,0,0,0,13.768-2.125c-.492-5.41-3.114-26.636-3.114-26.636-1.229-2.541-2.868-7.048-2.868-7.048v-9.262l-1.721-.245c-.656,2.54-.573,9.179-.573,9.179-.7-.14-10.989-.13-11.638,0,0,0,.081-6.639-.574-9.179l-1.721.245v9.262s-1.639,4.507-2.868,7.048c0,0-2.622,21.226-3.114,26.636a51.366,51.366,0,0,0,13.768,2.125v.006c.11,0,.218,0,.328,0s.218,0,.328,0Z" transform="translate(32.595 20.122)" fill="#1a1a1a"/>
              <path id="Trazado_841684" data-name="Trazado 841684" d="M250,146.417s-7.714,2.057-6.169,5.608,4.753.232,4.753.232-2.474,2.37-.832,4.078,3.483-2.414,3.483-2.414-.136,3.767,2.217,3.808,2.288-6.765,2.288-6.765Z" transform="translate(31.883 19.161)" fill="#1a1a1a"/>
              <path id="Trazado_841685" data-name="Trazado 841685" d="M249.275,146.538s-.685.671,1.234,2.854a5.085,5.085,0,0,0,4.505,1.692l.628-.752L249.88,145.5Z" transform="translate(32.606 19.041)" fill="#1a1a1a"/>
              <path id="Trazado_841686" data-name="Trazado 841686" d="M278.115,129.966s2.808,2.056,2.222,9.735c-.655,8.606-5.556,15.132-14.345,15.608-8.261.448-16.844-2.328-19.419-12s1.073-17.374,11.587-19.522,17.81.179,19.955,6.179" transform="translate(32.165 16.097)" fill="#1a1a1a"/>
              <path id="Trazado_841687" data-name="Trazado 841687" d="M257.8,149.915l.211,2.524a17.344,17.344,0,0,0,7.987.219l.047-3.611Z" transform="translate(33.738 19.506)" fill="#eca278"/>
              <path id="Trazado_841688" data-name="Trazado 841688" d="M257.988,152.048l.321,3.836s.456,2.054,3.59,2.054c3.514,0,4.029-2.054,4.029-2.054l.046-3.617a17.36,17.36,0,0,1-7.987-.219" transform="translate(33.762 19.898)" fill="#f8bc8d"/>
              <path id="Trazado_841689" data-name="Trazado 841689" d="M274.259,130.406a38.567,38.567,0,0,1,1.954,12.583,12.285,12.285,0,0,1-11.767,11.992c-6.687.434-13.634-2.257-15.718-11.637s.868-16.845,9.378-18.93,14.415.173,16.152,5.991" transform="translate(32.466 16.182)" fill="#f8bc8d"/>
              <path id="Trazado_841690" data-name="Trazado 841690" d="M270.335,145.134l1.563-5.471s5.015-1.823,5.275,3.321-5.145,5.407-6.838,2.15" transform="translate(35.378 18.236)" fill="#f8bc8d"/>
              <path id="Trazado_841691" data-name="Trazado 841691" d="M271.944,145.246a.117.117,0,0,0,.043-.009.1.1,0,0,0,.051-.137c-.011-.025-1.112-2.5.614-3.649a2.285,2.285,0,0,1,1.779-.421,2.839,2.839,0,0,1,1.593,1.172.105.105,0,0,0,.142.033.1.1,0,0,0,.033-.141,3,3,0,0,0-1.723-1.264,2.48,2.48,0,0,0-1.938.451c-1.872,1.247-.7,3.879-.688,3.906a.1.1,0,0,0,.094.06" transform="translate(35.528 18.423)" fill="#763633"/>
              <path id="Trazado_841692" data-name="Trazado 841692" d="M274.483,143.032a.1.1,0,0,0,.061-.185c-.017-.014-1.747-1.276-3.031.009a.1.1,0,0,0,0,.146.1.1,0,0,0,.146,0c1.159-1.16,2.746,0,2.762.01a.108.108,0,0,0,.062.02" transform="translate(35.528 18.62)" fill="#763633"/>
              <path id="Trazado_841693" data-name="Trazado 841693" d="M261.975,145.416a1.632,1.632,0,0,1-1.76-1.323.1.1,0,0,1,.089-.115.1.1,0,0,1,.115.089c.007.052.189,1.288,1.841,1.129a.106.106,0,0,1,.113.093.1.1,0,0,1-.093.112,2.92,2.92,0,0,1-.306.016" transform="translate(34.054 18.842)" fill="#763633"/>
              <path id="Trazado_841694" data-name="Trazado 841694" d="M259.026,145.355c-.195.979-1.839,1.479-3.674,1.115s-3.164-1.452-2.97-2.431,1.839-1.479,3.673-1.116,3.165,1.453,2.971,2.433" transform="translate(33.026 18.688)" fill="#eca278"/>
              <path id="Trazado_841695" data-name="Trazado 841695" d="M252.134,145.134l-1.563-5.471s-5.015-1.823-5.275,3.321,5.145,5.407,6.838,2.15" transform="translate(32.1 18.236)" fill="#f8bc8d"/>
              <path id="Trazado_841696" data-name="Trazado 841696" d="M253.454,138.051s-1.026-.911,1.143-2.051,2.93-.889,3.282-.319c.321.519-.175,1.3-1.407,1.915-1.477.738-2.462.979-3.018.456" transform="translate(33.137 17.693)" fill="#1a1a1a"/>
              <path id="Trazado_841697" data-name="Trazado 841697" d="M257.343,140.944a1.063,1.063,0,1,1-1.042-1.27,1.174,1.174,0,0,1,1.042,1.27" transform="translate(33.405 18.279)" fill="#000100"/>
              <path id="Trazado_841698" data-name="Trazado 841698" d="M264.264,145.355c.194.979,1.838,1.479,3.673,1.115s3.165-1.452,2.971-2.431-1.84-1.479-3.674-1.116-3.165,1.453-2.97,2.433" transform="translate(34.581 18.688)" fill="#eca278"/>
              <path id="Trazado_841699" data-name="Trazado 841699" d="M269.614,138.051s1.026-.911-1.143-2.051-2.93-.889-3.282-.319c-.321.519.175,1.3,1.407,1.915,1.477.738,2.462.979,3.018.456" transform="translate(34.692 17.693)" fill="#1a1a1a"/>
              <path id="Trazado_841700" data-name="Trazado 841700" d="M265.01,140.944a1.063,1.063,0,1,0,1.043-1.27,1.174,1.174,0,0,0-1.043,1.27" transform="translate(34.681 18.279)" fill="#000100"/>
              <path id="Trazado_841701" data-name="Trazado 841701" d="M250.281,145.246a.117.117,0,0,1-.043-.009.1.1,0,0,1-.051-.137c.011-.025,1.112-2.5-.614-3.649a2.285,2.285,0,0,0-1.779-.421A2.839,2.839,0,0,0,246.2,142.2a.105.105,0,0,1-.142.033.1.1,0,0,1-.033-.141,3,3,0,0,1,1.723-1.264,2.48,2.48,0,0,1,1.938.451c1.872,1.247.7,3.879.688,3.906a.1.1,0,0,1-.094.06" transform="translate(32.195 18.423)" fill="#763633"/>
              <path id="Trazado_841702" data-name="Trazado 841702" d="M247.553,143.032a.1.1,0,0,1-.061-.185c.017-.014,1.747-1.276,3.031.009a.1.1,0,0,1,0,.146.1.1,0,0,1-.146,0c-1.159-1.16-2.746,0-2.762.01a.107.107,0,0,1-.062.02" transform="translate(32.383 18.62)" fill="#763633"/>
              <path id="Trazado_841703" data-name="Trazado 841703" d="M262.349,144.275a.1.1,0,0,1-.043-.2,2.791,2.791,0,0,0,1.2-1.124,1.758,1.758,0,0,0-.187-1.827.727.727,0,0,0-.908-.054l-.054.031c-1.269.736-1.841.406-2.1,0-.472-.749-.063-6.657-.016-7.328a.1.1,0,1,1,.206.015c-.129,1.8-.384,6.619-.016,7.2.3.482.916.459,1.821-.067l.062-.035a.929.929,0,0,1,1.148.09,1.956,1.956,0,0,1,.227,2.066,2.953,2.953,0,0,1-1.3,1.22.112.112,0,0,1-.043.009" transform="translate(34.03 17.494)" fill="#763633"/>
              <path id="Trazado_841704" data-name="Trazado 841704" d="M261.537,123.552s-19.52-3.3-15.1,18.685a7.507,7.507,0,0,1,3.872-.479c2.561.216,5.616-7.61,5.911-10.423,0,0,12.011,10.4,20.952,10.4a3.876,3.876,0,0,1,2.785,1.736c.292.446,3.922-10.2-1.35-15.777-6.476-6.847-13.126-5.591-17.067-4.138" transform="translate(32.165 16.019)" fill="#1a1a1a"/>
              <path id="Trazado_841705" data-name="Trazado 841705" d="M258.881,125.211a5.75,5.75,0,0,1-1.912-3.2.414.414,0,0,1,.615-.45,3.743,3.743,0,0,1,1.668,2.3l-.183-2.877c-.025-.391-.017-.854.3-1.081a.773.773,0,0,1,.9.086,1.868,1.868,0,0,1,.515.807,6.874,6.874,0,0,1,.268,4.061" transform="translate(33.628 15.677)" fill="#1a1a1a"/>
              <path id="Trazado_841706" data-name="Trazado 841706" d="M275,141.154c-2.521,0-4.694-.779-7.794-1.89l-.214-.077a29.789,29.789,0,0,1-13.072-10.062l.187-.129a29.994,29.994,0,0,0,12.961,9.978l.215.077c4.62,1.656,7.164,2.567,11.9,1.233l.062.217a15.425,15.425,0,0,1-4.245.654" transform="translate(33.23 16.881)" fill="#845846"/>
              <path id="Trazado_841707" data-name="Trazado 841707" d="M256.433,164.664l11.556-.081s.409,6.884-5.655,6.884-5.9-6.8-5.9-6.8" transform="translate(33.559 21.539)" fill="#f4f4f2"/>
              <path id="Trazado_841708" data-name="Trazado 841708" d="M256.729,162.482l-.042.006-1.994.2a.605.605,0,1,1-.118-1.2l1.993-.2a.605.605,0,0,1,.527.986.6.6,0,0,1-.366.213m-2.175-.871a.477.477,0,0,0,.127.944l1.993-.2a.478.478,0,0,0,.322-.172.476.476,0,0,0-.415-.777l-1.993.2-.034,0" transform="translate(33.244 21.106)" fill="#cb3521"/>
              <path id="Trazado_841709" data-name="Trazado 841709" d="M255.057,163.146a.589.589,0,1,0,.36-.751.588.588,0,0,0-.36.751" transform="translate(33.374 21.248)" fill="#cb3521"/>
              <path id="Trazado_841710" data-name="Trazado 841710" d="M266.338,162.269a.605.605,0,0,1,.527-.986l1.993.2a.6.6,0,0,1,.409.218.6.6,0,0,1-.085.852.6.6,0,0,1-.443.135l-1.993-.2-.043-.006a.593.593,0,0,1-.365-.213m2.507-.663-1.993-.2a.477.477,0,0,0-.094.949l1.994.2a.477.477,0,0,0,.127-.944l-.034,0" transform="translate(34.837 21.106)" fill="#cb3521"/>
              <path id="Trazado_841711" data-name="Trazado 841711" d="M268.142,163.146a.589.589,0,1,1-.36-.751.588.588,0,0,1,.36.751" transform="translate(34.941 21.248)" fill="#cb3521"/>
            </g>
          </g>
        </g>
      </g>
    </g>
  </g>
</svg>
