<svg xmlns="http://www.w3.org/2000/svg" width="244.333" height="95.335" viewBox="0 0 244.333 95.335">
  <g id="Grupo_1078513" data-name="Grupo 1078513" transform="translate(-1125.708 -744.107)">
    <path id="Trazado_841192" data-name="Trazado 841192" d="M7.453,0H236.88a7.453,7.453,0,0,1,7.453,7.453V87.882a7.453,7.453,0,0,1-7.453,7.453H7.453A7.453,7.453,0,0,1,0,87.882V7.453A7.453,7.453,0,0,1,7.453,0Z" transform="translate(1125.708 744.107)" fill="#f8f3ff"/>
    <path id="Trazado_841193" data-name="Trazado 841193" d="M2.319-11.912a.964.964,0,0,1-.7-.278.939.939,0,0,1-.288-.705.955.955,0,0,1,.288-.71.956.956,0,0,1,.7-.283.983.983,0,0,1,.71.283.947.947,0,0,1,.292.71.94.94,0,0,1-.292.7A.974.974,0,0,1,2.319-11.912ZM3.062,0H1.54V-9.5H3.062ZM14.027,0H12.506V-5.418q0-3.024-2.208-3.024a2.4,2.4,0,0,0-1.888.858,3.181,3.181,0,0,0-.747,2.166V0H6.142V-9.5H7.663v1.577H7.7a3.429,3.429,0,0,1,3.117-1.8A2.906,2.906,0,0,1,13.2-8.716a4.484,4.484,0,0,1,.826,2.908ZM23.37-.436a4.944,4.944,0,0,1-2.6.659A4.3,4.3,0,0,1,17.492-1.1a4.791,4.791,0,0,1-1.248-3.428A5.267,5.267,0,0,1,17.59-8.3a4.706,4.706,0,0,1,3.59-1.424,5,5,0,0,1,2.208.464V-7.7a3.868,3.868,0,0,0-2.264-.742A3.059,3.059,0,0,0,18.736-7.4,3.96,3.96,0,0,0,17.8-4.657a3.771,3.771,0,0,0,.877,2.635,3.022,3.022,0,0,0,2.352.965,3.813,3.813,0,0,0,2.338-.826ZM33.556,0H32.035V-5.474q0-2.969-2.208-2.969a2.407,2.407,0,0,0-1.874.858,3.2,3.2,0,0,0-.761,2.2V0H25.67V-14.064h1.521v6.142h.037a3.455,3.455,0,0,1,3.117-1.8q3.21,0,3.21,3.869Zm10.5-4.37H37.351A3.553,3.553,0,0,0,38.2-1.92a2.942,2.942,0,0,0,2.245.863A4.668,4.668,0,0,0,43.4-2.115V-.687a5.514,5.514,0,0,1-3.312.909,4.015,4.015,0,0,1-3.164-1.294,5.3,5.3,0,0,1-1.15-3.641,5.2,5.2,0,0,1,1.257-3.614,4.031,4.031,0,0,1,3.122-1.4,3.572,3.572,0,0,1,2.885,1.206,5.028,5.028,0,0,1,1.021,3.349ZM42.5-5.659a3.1,3.1,0,0,0-.635-2.05,2.165,2.165,0,0,0-1.74-.733,2.458,2.458,0,0,0-1.828.77,3.494,3.494,0,0,0-.928,2.013ZM45.784-.343V-1.976a4.5,4.5,0,0,0,2.737.918q2,0,2-1.336a1.159,1.159,0,0,0-.172-.645,1.711,1.711,0,0,0-.464-.469,3.571,3.571,0,0,0-.687-.366q-.394-.162-.849-.339a10.933,10.933,0,0,1-1.109-.506,3.349,3.349,0,0,1-.8-.575,2.14,2.14,0,0,1-.482-.728,2.577,2.577,0,0,1-.162-.956,2.27,2.27,0,0,1,.306-1.183,2.715,2.715,0,0,1,.816-.863,3.807,3.807,0,0,1,1.164-.524,5.165,5.165,0,0,1,1.35-.176,5.45,5.45,0,0,1,2.208.427v1.54a4.3,4.3,0,0,0-2.412-.687,2.819,2.819,0,0,0-.77.1,1.885,1.885,0,0,0-.589.274,1.264,1.264,0,0,0-.38.422,1.112,1.112,0,0,0-.135.543,1.3,1.3,0,0,0,.135.622,1.368,1.368,0,0,0,.394.445,3.014,3.014,0,0,0,.631.353q.371.158.844.343a11.75,11.75,0,0,1,1.132.5,3.882,3.882,0,0,1,.854.575,2.248,2.248,0,0,1,.543.738,2.379,2.379,0,0,1,.19.993,2.34,2.34,0,0,1-.311,1.225,2.664,2.664,0,0,1-.83.863,3.8,3.8,0,0,1-1.2.51,5.909,5.909,0,0,1-1.419.167A5.39,5.39,0,0,1,45.784-.343Z" transform="translate(1140.068 769.461)" fill="#ba68c8"/>
    <path id="Trazado_841194" data-name="Trazado 841194" d="M9.545,0H7.383V-16.334a5,5,0,0,1-.732.573,11.927,11.927,0,0,1-1.081.639q-.6.316-1.266.593a9.2,9.2,0,0,1-1.3.435v-2.188a12.569,12.569,0,0,0,1.51-.534q.8-.336,1.569-.751t1.457-.87a11.566,11.566,0,0,0,1.187-.89h.817Z" transform="translate(1238.091 777.586)" fill="#ba68c8"/>
    <path id="Trazado_841195" data-name="Trazado 841195" d="M10.178-13.948a3.909,3.909,0,0,0-.27-1.516,3,3,0,0,0-.738-1.074,3.025,3.025,0,0,0-1.1-.639A4.311,4.311,0,0,0,6.7-17.389a4.535,4.535,0,0,0-1.239.171,6.025,6.025,0,0,0-1.18.475,7.258,7.258,0,0,0-1.107.725,8,8,0,0,0-1,.936V-17.4a6.464,6.464,0,0,1,2.037-1.351,7.172,7.172,0,0,1,2.749-.468,6.636,6.636,0,0,1,2.149.336,4.927,4.927,0,0,1,1.714.982,4.54,4.54,0,0,1,1.14,1.6,5.38,5.38,0,0,1,.415,2.175,7.459,7.459,0,0,1-.257,2.03,6.279,6.279,0,0,1-.778,1.714,8.27,8.27,0,0,1-1.312,1.542,18.581,18.581,0,0,1-1.859,1.5q-1.332.949-2.2,1.622A9.7,9.7,0,0,0,4.608-4.463,3.654,3.654,0,0,0,3.9-3.289a4.1,4.1,0,0,0-.2,1.351H13.1V0H1.437V-.936A7.8,7.8,0,0,1,1.7-3.072a5.546,5.546,0,0,1,.87-1.753A9.731,9.731,0,0,1,4.159-6.486q.982-.831,2.406-1.872a15.211,15.211,0,0,0,1.72-1.411A7.334,7.334,0,0,0,9.4-11.114a4.829,4.829,0,0,0,.6-1.365A5.883,5.883,0,0,0,10.178-13.948Z" transform="translate(1321.752 777.586)" fill="#ba68c8"/>
    <g id="Grupo_15330" data-name="Grupo 15330" transform="translate(1172.809 757.935)">
      <rect id="Rectángulo_3638" data-name="Rectángulo 3638" width="1.57" height="20.814" transform="translate(120.355 47.36)" fill="#7b1fa2"/>
      <rect id="Rectángulo_3639" data-name="Rectángulo 3639" width="1.57" height="20.814" transform="translate(114.788 47.36)" fill="#7b1fa2"/>
      <rect id="Rectángulo_3640" data-name="Rectángulo 3640" width="1.57" height="20.814" transform="translate(109.359 47.36)" fill="#7b1fa2"/>
      <rect id="Rectángulo_3641" data-name="Rectángulo 3641" width="1.57" height="68.173" transform="translate(169.289)" fill="#7b1fa2"/>
      <rect id="Rectángulo_3642" data-name="Rectángulo 3642" width="1.57" height="29.173" transform="translate(147.606 39)" fill="#7b1fa2"/>
      <rect id="Rectángulo_3643" data-name="Rectángulo 3643" width="1.57" height="43.234" transform="translate(125.922 24.939)" fill="#7b1fa2"/>
      <g id="Grupo_15323" data-name="Grupo 15323" transform="translate(109.359 47.36)">
        <rect id="Rectángulo_3644" data-name="Rectángulo 3644" width="1.57" height="20.814" transform="translate(10.996)" fill="#7b1fa2"/>
        <rect id="Rectángulo_3645" data-name="Rectángulo 3645" width="1.57" height="20.814" transform="translate(5.429)" fill="#7b1fa2"/>
        <rect id="Rectángulo_3646" data-name="Rectángulo 3646" width="1.57" height="20.814" fill="#7b1fa2"/>
      </g>
      <g id="Grupo_15324" data-name="Grupo 15324" transform="translate(87.898 47.36)">
        <rect id="Rectángulo_3647" data-name="Rectángulo 3647" width="1.57" height="20.814" transform="translate(10.996)" fill="#7b1fa2"/>
        <rect id="Rectángulo_3648" data-name="Rectángulo 3648" width="1.57" height="20.814" transform="translate(5.429)" fill="#7b1fa2"/>
        <rect id="Rectángulo_3649" data-name="Rectángulo 3649" width="1.57" height="20.814" fill="#7b1fa2"/>
      </g>
      <g id="Grupo_15325" data-name="Grupo 15325" transform="translate(66.136 47.36)">
        <rect id="Rectángulo_3650" data-name="Rectángulo 3650" width="1.57" height="20.814" transform="translate(10.996)" fill="#7b1fa2"/>
        <rect id="Rectángulo_3651" data-name="Rectángulo 3651" width="1.57" height="20.814" transform="translate(5.429)" fill="#7b1fa2"/>
        <rect id="Rectángulo_3652" data-name="Rectángulo 3652" width="1.57" height="20.814" fill="#7b1fa2"/>
      </g>
      <g id="Grupo_15326" data-name="Grupo 15326" transform="translate(44.375 47.36)">
        <rect id="Rectángulo_3653" data-name="Rectángulo 3653" width="1.57" height="20.814" transform="translate(10.996)" fill="#7b1fa2"/>
        <rect id="Rectángulo_3654" data-name="Rectángulo 3654" width="1.57" height="20.814" transform="translate(5.429)" fill="#7b1fa2"/>
        <rect id="Rectángulo_3655" data-name="Rectángulo 3655" width="1.57" height="20.814" fill="#7b1fa2"/>
      </g>
      <g id="Grupo_15327" data-name="Grupo 15327" transform="translate(22.691 47.36)">
        <rect id="Rectángulo_3656" data-name="Rectángulo 3656" width="1.57" height="20.814" transform="translate(10.996)" fill="#7b1fa2"/>
        <rect id="Rectángulo_3657" data-name="Rectángulo 3657" width="1.57" height="20.814" transform="translate(5.429)" fill="#7b1fa2"/>
        <rect id="Rectángulo_3658" data-name="Rectángulo 3658" width="1.57" height="20.814" fill="#7b1fa2"/>
      </g>
      <g id="Grupo_15328" data-name="Grupo 15328" transform="translate(131.266 47.36)">
        <rect id="Rectángulo_3659" data-name="Rectángulo 3659" width="1.57" height="20.814" transform="translate(10.996)" fill="#7b1fa2"/>
        <rect id="Rectángulo_3660" data-name="Rectángulo 3660" width="1.57" height="20.814" transform="translate(5.429)" fill="#7b1fa2"/>
        <rect id="Rectángulo_3661" data-name="Rectángulo 3661" width="1.57" height="20.814" fill="#7b1fa2"/>
      </g>
      <g id="Grupo_15329" data-name="Grupo 15329" transform="translate(152.949 47.36)">
        <rect id="Rectángulo_3662" data-name="Rectángulo 3662" width="1.57" height="20.814" transform="translate(10.996)" fill="#7b1fa2"/>
        <rect id="Rectángulo_3663" data-name="Rectángulo 3663" width="1.57" height="20.814" transform="translate(5.429)" fill="#7b1fa2"/>
        <rect id="Rectángulo_3664" data-name="Rectángulo 3664" width="1.57" height="20.814" fill="#7b1fa2"/>
      </g>
      <rect id="Rectángulo_3665" data-name="Rectángulo 3665" width="1.57" height="29.173" transform="translate(104.238 39)" fill="#7b1fa2"/>
      <rect id="Rectángulo_3666" data-name="Rectángulo 3666" width="1.57" height="43.234" transform="translate(82.554 24.939)" fill="#7b1fa2"/>
      <rect id="Rectángulo_3667" data-name="Rectángulo 3667" width="170.859" height="1.57" transform="translate(0 67.388)" fill="#7b1fa2"/>
      <rect id="Rectángulo_3668" data-name="Rectángulo 3668" width="1.57" height="29.173" transform="translate(60.715 39)" fill="#7b1fa2"/>
      <rect id="Rectángulo_3669" data-name="Rectángulo 3669" width="1.57" height="43.234" transform="translate(39.031 24.939)" fill="#7b1fa2"/>
      <rect id="Rectángulo_3670" data-name="Rectángulo 3670" width="1.57" height="29.173" transform="translate(17.347 39)" fill="#7b1fa2"/>
      <rect id="Rectángulo_3671" data-name="Rectángulo 3671" width="1.57" height="20.814" transform="translate(11.643 47.36)" fill="#7b1fa2"/>
      <rect id="Rectángulo_3672" data-name="Rectángulo 3672" width="1.57" height="20.814" transform="translate(5.704 47.36)" fill="#7b1fa2"/>
      <rect id="Rectángulo_3673" data-name="Rectángulo 3673" width="1.57" height="43.234" transform="translate(0 24.939)" fill="#7b1fa2"/>
    </g>
  </g>
</svg>
