<svg xmlns="http://www.w3.org/2000/svg" width="315.001" height="356.895" viewBox="0 0 315.001 356.895">
  <g id="Grupo_1069666" data-name="Grupo 1069666" transform="translate(-599.999 -5613.186)">
    <g id="Grupo_1069665" data-name="Grupo 1069665">
      <g id="Grupo_1069664" data-name="Grupo 1069664">
        <g id="Grupo_1069663" data-name="Grupo 1069663">
          <g id="Grupo_1069662" data-name="Grupo 1069662">
            <g id="Grupo_1069661" data-name="Grupo 1069661">
              <g id="Grupo_1069660" data-name="Grupo 1069660">
                <g id="Grupo_1069659" data-name="Grupo 1069659">
                  <g id="Grupo_1069658" data-name="Grupo 1069658">
                    <g id="Grupo_1069657" data-name="Grupo 1069657">
                      <path id="Trazado_21927" data-name="Trazado 21927" d="M602.475,310.215c-19.9,6.547-37.915,22.05-43.041,41.72-8.149,31.259,15.73,63.731,1.122,94.125-5.01,10.422-15.457,16.11-22.744,24.966-5.2,6.319-9.119,13.818-9.706,21.8-1.655,22.414,21.305,46.832,41.374,56.321,28.883,13.657,68.009,12.36,98.128,3.349,15.8-4.725,30.136-14.039,46.839-15.96,14.168-1.631,27.042,3.332,40.515,6.4,26.47,6.033,61.021,5.109,77.918-18.337,7.183-9.97,9.987-22.287,10.133-34.345a142.385,142.385,0,0,0-10.9-55.561c-6.551-15.581-16.555-30.377-19.791-47.061-3.5-18.063.024-36.648.841-54.773.94-20.869-1.918-44.119-21.3-57.211-24.238-16.373-62.487-9.014-86.187,4-15.565,8.551-29.325,19.139-47.345,22.587-17.857,3.419-36.5,2.15-54.009,7.392C603.708,309.819,603.092,310.011,602.475,310.215Z" transform="translate(71.978 5376.326)" fill="#d2e1f1"/>
                      <path id="Trazado_21928" data-name="Trazado 21928" d="M664.386,278.762s-7.152,12.995,1.117,21.766,13.33,12.807,4.875,24.28-6.208,19.564.687,22.2,9.376,26.077-11.963,36.57-45.789-10.726-53.921-18.285-13.512-13.755-7.782-23.186,12.093-7.662,10.793-17.8-14.5-11.42-5.38-21.994,11.918-8.7,10.461-18.355,14.6-22.126,21.131-23.888S662.119,266.617,664.386,278.762Z" transform="translate(212.416 5366.741)" fill="#ffc94a"/>
                      <rect id="Rectángulo_3159" data-name="Rectángulo 3159" width="13.284" height="20.592" transform="translate(845.665 5667.946)" fill="#ed744d"/>
                      <path id="Trazado_21929" data-name="Trazado 21929" d="M610.116,277.748a10.283,10.283,0,0,0,6.907,9.819,4.9,4.9,0,0,0,1.269.275,3.291,3.291,0,0,0,1.3-.225,5.962,5.962,0,0,0,3.813-5.645v-6.04H610.118Z" transform="translate(235.054 5390.863)" fill="#bb5a38"/>
                      <ellipse id="Elipse_551" data-name="Elipse 551" cx="20.068" cy="20.068" rx="20.068" ry="20.068" transform="translate(826.786 5659.686) rotate(-67.5)" fill="#ffc94a"/>
                      <path id="Trazado_21930" data-name="Trazado 21930" d="M625.433,274.538c0,3.046-2.716,5.665-6.367,5.855l-.492-11.023C622.224,269.18,625.435,269.07,625.433,274.538Z" transform="translate(247.73 5380.934)" fill="#ed744d"/>
                      <path id="Trazado_21931" data-name="Trazado 21931" d="M620.536,270.979a.408.408,0,0,1,.735-.282,2.411,2.411,0,0,1,.377,2.347c-.495,1.422-1.572,2.836-2.129,2.284s.01-.442.76-2.284A4.317,4.317,0,0,0,620.536,270.979Z" transform="translate(248.813 5382.766)" fill="#bb5a38"/>
                      <path id="Trazado_21932" data-name="Trazado 21932" d="M618.136,275.547a.628.628,0,1,1,.63.63A.63.63,0,0,1,618.136,275.547Z" transform="translate(247.076 5389.348)" fill="#ff7454"/>
                      <ellipse id="Elipse_552" data-name="Elipse 552" cx="0.366" cy="0.366" rx="0.366" ry="0.366" transform="translate(866.762 5662.149)" fill="#ff7454"/>
                      <path id="Trazado_21933" data-name="Trazado 21933" d="M624.083,301.413h0c-7.082-.34-17.215-10.226-16.876-17.308,0,0-.67-10.891,1.487-14.142,3.746-5.648,17.943-5.523,23.533-4.251,8.564,1.944,6.208,17.86,6.208,17.86C638.434,296.808,627.181,301.563,624.083,301.413Z" transform="translate(230.546 5374.47)" fill="#ed744d"/>
                      <path id="Trazado_21934" data-name="Trazado 21934" d="M605.267,274.538c0,3.046,2.714,5.665,6.365,5.855l.492-11.023C608.473,269.18,605.262,269.07,605.267,274.538Z" transform="translate(227.785 5380.934)" fill="#ed744d"/>
                      <path id="Trazado_21935" data-name="Trazado 21935" d="M607.551,270.979a.408.408,0,0,0-.735-.282,2.409,2.409,0,0,0-.377,2.347c.495,1.422,1.572,2.836,2.129,2.284s-.007-.442-.757-2.284A4.317,4.317,0,0,1,607.551,270.979Z" transform="translate(229.315 5382.766)" fill="#bb5a38"/>
                      <path id="Trazado_21936" data-name="Trazado 21936" d="M613.548,273.315c0,.887-.522,1.607-1.167,1.607s-1.167-.72-1.167-1.607.525-1.607,1.167-1.607S613.548,272.428,613.548,273.315Z" transform="translate(236.7 5384.533)" fill="#28121e"/>
                      <path id="Trazado_21937" data-name="Trazado 21937" d="M618.72,273.315c0,.887-.522,1.607-1.167,1.607s-1.167-.72-1.167-1.607.522-1.607,1.167-1.607S618.72,272.428,618.72,273.315Z" transform="translate(244.452 5384.533)" fill="#28121e"/>
                      <path id="Trazado_21938" data-name="Trazado 21938" d="M610.033,271.186s4.091-2.279,7.882,0" transform="translate(234.93 5382.232)" fill="none" stroke="#bb5a38" stroke-miterlimit="10" stroke-width="0.707"/>
                      <path id="Trazado_21939" data-name="Trazado 21939" d="M612.876,276.751a4.046,4.046,0,0,0,5.008-.317" transform="translate(239.191 5391.617)" fill="none" stroke="#bb5a38" stroke-miterlimit="10" stroke-width="0.707"/>
                      <g id="Grupo_6485" data-name="Grupo 6485" transform="translate(841.979 5660.954)">
                        <path id="Trazado_21940" data-name="Trazado 21940" d="M610.829,274.109a.517.517,0,1,1-.517-.515A.518.518,0,0,1,610.829,274.109Z" transform="translate(-607.407 -273.594)" fill="#bb5a38"/>
                        <path id="Trazado_21941" data-name="Trazado 21941" d="M611.383,274.5a.221.221,0,1,1-.222-.222A.221.221,0,0,1,611.383,274.5Z" transform="translate(-605.688 -272.572)" fill="#bb5a38"/>
                        <path id="Trazado_21942" data-name="Trazado 21942" d="M610.545,275.191a.454.454,0,1,1-.452-.452A.454.454,0,0,1,610.545,275.191Z" transform="translate(-607.641 -271.878)" fill="#bb5a38"/>
                        <path id="Trazado_21943" data-name="Trazado 21943" d="M609.341,274.223a.251.251,0,1,1-.252-.252A.252.252,0,0,1,609.341,274.223Z" transform="translate(-608.839 -273.029)" fill="#bb5a38"/>
                        <ellipse id="Elipse_553" data-name="Elipse 553" cx="0.38" cy="0.38" rx="0.38" ry="0.38" transform="translate(4.816 4.191)" fill="#bb5a38"/>
                        <path id="Trazado_21944" data-name="Trazado 21944" d="M612.6,274.14a.34.34,0,1,1-.34-.34A.34.34,0,0,1,612.6,274.14Z" transform="translate(-604.221 -273.285)" fill="#bb5a38"/>
                        <path id="Trazado_21945" data-name="Trazado 21945" d="M611.92,275.22a.59.59,0,1,1,.59.59A.589.589,0,0,1,611.92,275.22Z" transform="translate(-604.221 -272.041)" fill="#bb5a38"/>
                      </g>
                      <g id="Grupo_6486" data-name="Grupo 6486" transform="translate(859.469 5661.067)">
                        <path id="Trazado_21946" data-name="Trazado 21946" d="M617.826,274.156a.516.516,0,1,1-.515-.517A.516.516,0,0,1,617.826,274.156Z" transform="translate(-614.405 -273.639)" fill="#bb5a38"/>
                        <path id="Trazado_21947" data-name="Trazado 21947" d="M618.385,274.544a.222.222,0,1,1-.222-.222A.223.223,0,0,1,618.385,274.544Z" transform="translate(-612.687 -272.615)" fill="#bb5a38"/>
                        <path id="Trazado_21948" data-name="Trazado 21948" d="M617.545,275.237a.454.454,0,1,1-.455-.452A.454.454,0,0,1,617.545,275.237Z" transform="translate(-614.639 -271.921)" fill="#bb5a38"/>
                        <path id="Trazado_21949" data-name="Trazado 21949" d="M616.343,274.269a.252.252,0,1,1-.252-.252A.253.253,0,0,1,616.343,274.269Z" transform="translate(-615.838 -273.072)" fill="#bb5a38"/>
                        <path id="Trazado_21950" data-name="Trazado 21950" d="M618.526,275.694a.38.38,0,1,1-.38-.377A.379.379,0,0,1,618.526,275.694Z" transform="translate(-612.948 -271.124)" fill="#bb5a38"/>
                        <path id="Trazado_21951" data-name="Trazado 21951" d="M619.6,274.186a.34.34,0,1,1-.34-.34A.34.34,0,0,1,619.6,274.186Z" transform="translate(-611.218 -273.329)" fill="#bb5a38"/>
                      </g>
                      <path id="Trazado_21952" data-name="Trazado 21952" d="M618.517,274.2a.451.451,0,1,1-.45-.452A.451.451,0,0,1,618.517,274.2Z" transform="translate(246.295 5387.583)" fill="#bb5a38"/>
                      <path id="Trazado_21953" data-name="Trazado 21953" d="M606.789,274.767l2.846,5.8s1.549-14.519,7.472-15.606C617.108,264.961,606.69,265.018,606.789,274.767Z" transform="translate(230.066 5374.419)" fill="#ffc94a"/>
                      <path id="Trazado_21954" data-name="Trazado 21954" d="M626.065,274.691l-1.427,6.985s-2.329-15.819-8.252-16.906C616.386,264.77,626.162,264.942,626.065,274.691Z" transform="translate(244.452 5374.133)" fill="#ffc94a"/>
                      <path id="Trazado_21955" data-name="Trazado 21955" d="M615.541,272.12l1.169,4.2s1.734,2.664-2.589,2.664Z" transform="translate(241.059 5385.151)" fill="#ed744d"/>
                      <path id="Trazado_21956" data-name="Trazado 21956" d="M624,271.185a7.114,7.114,0,0,0-3.676-1.012,5.279,5.279,0,0,0-5.3,7.05c1.115,3.121,2.174,4.083-.1,4.361" transform="translate(241.948 5382.232)" fill="none" stroke="#bb5a38" stroke-miterlimit="10" stroke-width="0.707"/>
                      <path id="Trazado_21957" data-name="Trazado 21957" d="M630.586,265.447s.437,7.43-4.671,9.231-15.341.392-16.978,8.8c0,0-1.049-8.347,0-13.08S622.411,262.526,630.586,265.447Z" transform="translate(232.587 5373.456)" fill="#ffc94a"/>
                      <path id="Trazado_21958" data-name="Trazado 21958" d="M621.135,380.14s-3.774,21.139-3.774,28.121,3.019,10.568,1.887,12.267-2.831,1.509-3.209,5.283-4.151,6.795-10.191,6.795-5.285-5.663-5.1-6.6,6.04-7.549,7.737-13.212-1.132-34.536-1.132-34.536S619.816,364.289,621.135,380.14Z" transform="translate(220.819 5535.724)" fill="#ed744d"/>
                      <path id="Trazado_21959" data-name="Trazado 21959" d="M635.282,311.463H613.638s-13.617,11.42-13.617,44.085c0,15.079,4.92,49.4,7.44,69.1-1.862,19.835,2.249,64.829,2.249,64.829l9.629.155c3.441-21.351,6.025-41.781,6.232-59.658l9.706-58.426,0,.03Z" transform="translate(219.922 5444.125)" fill="#ed744d"/>
                      <path id="Trazado_21960" data-name="Trazado 21960" d="M618.287,380.14s3.776,21.139,3.776,28.121-3.021,10.568-1.887,12.267,2.829,1.509,3.206,5.283,4.153,6.795,10.193,6.795,5.283-5.663,5.1-6.6-6.04-7.549-7.739-13.212,1.132-34.536,1.132-34.536S619.609,364.289,618.287,380.14Z" transform="translate(247.303 5535.724)" fill="#ed744d"/>
                      <path id="Trazado_21961" data-name="Trazado 21961" d="M612.985,312.229l21.934-1.277a94.054,94.054,0,0,1,14.167,55.765c-1.08,15.039-2.349,39.6-4.866,59.306,1.859,19.834-5.66,64.224-5.66,64.224l-9.628.155c-3.441-21.351-3.276-43.21-3.486-61.088l-12.453-57-.008.03Z" transform="translate(239.354 5443.359)" fill="#ed744d"/>
                      <path id="Trazado_21962" data-name="Trazado 21962" d="M632.131,358.417l.632-46.954H611.12s-5.418,4.553-9.419,16.111C621.675,339.114,631.984,358.551,632.131,358.417Z" transform="translate(222.44 5444.125)" fill="#7986cb"/>
                      <path id="Trazado_21963" data-name="Trazado 21963" d="M643.545,328.6a83.477,83.477,0,0,0-8.626-17.648l-21.934,1.277v35.488c.815.65,1.427,10.808,2.232,11.465C620.525,347.76,634.242,335.75,643.545,328.6Z" transform="translate(239.354 5443.359)" fill="#7986cb"/>
                      <path id="Trazado_21965" data-name="Trazado 21965" d="M666.027,288.382s-22.029-7.432-32.772-7.1c-13.032.4-33.856,8.959-33.856,8.959a115.784,115.784,0,0,0,3.054,26.029s10.576,38.6,12.518,42.783c8.389,18.063,29.463,19.34,38.714,1.594C656.886,354.5,666.027,288.382,666.027,288.382Z" transform="translate(218.987 5398.865)" fill="#ed744d"/>
                      <path id="Trazado_21966" data-name="Trazado 21966" d="M656.893,284.418c-1.417-.412-4.468-1.292-6.113-1.732-.852,10.581-2.187,23.223-9.691,30.168-5.188,4.8-14.419,4.438-18.47-.96-6.122-8.162-8.4-16.094-12.375-28.751-1.5.455-2.939.915-4.286,1.367.8,5.383,3.529,35.933-4.376,38.654.957,3.526,2.659,9.761,3.773,13.717a3.2,3.2,0,0,1,.367.187c8.424,5.38,18.722,4.048,28.2,3.391,7.252-.5,14.644-.972,21.539-3.116.979-5.465,1.932-11.468,2.809-17.378C652.51,310.11,655.539,294.776,656.893,284.418Z" transform="translate(222.264 5400.989)" fill="#7986cb"/>
                      <path id="Trazado_21967" data-name="Trazado 21967" d="M619.65,287.423s-1.742-3.664-3.121-3.159-7.664,1.692-7.664,1.692,6.435.045,7.567.865S620.1,288.161,619.65,287.423Z" transform="translate(233.178 5403.284)" fill="#bb5a38"/>
                      <path id="Trazado_21968" data-name="Trazado 21968" d="M614.552,287.315s1.235-3.469,2.676-3.189a61.988,61.988,0,0,0,6.507.272s-5.11.83-6.1,1.817S614.22,288.115,614.552,287.315Z" transform="translate(241.658 5403.125)" fill="#bb5a38"/>
                      <path id="Trazado_21969" data-name="Trazado 21969" d="M613.542,284.858s7.437,7.187,4.953,31.485c0,0-7.772,33.262-15.751,43.17-3.931,4.881-6.852,5.813-10.791,3.788C585.658,360.063,594.684,292.97,613.542,284.858Z" transform="translate(204.845 5404.245)" fill="#ed744d"/>
                      <path id="Trazado_21970" data-name="Trazado 21970" d="M616.695,310.791c-12.01,0-14.807-9.709-14.837-9.821a1.337,1.337,0,0,1,2.579-.7c.13.457,3.2,10.643,18.1,7.107a1.337,1.337,0,1,1,.62,2.6A27.964,27.964,0,0,1,616.695,310.791Z" transform="translate(222.605 5425.865)" fill="#6473b2"/>
                      <path id="Trazado_21971" data-name="Trazado 21971" d="M622.808,310.79a27.949,27.949,0,0,1-6.462-.817,1.337,1.337,0,0,1,.62-2.6c15.006,3.554,17.98-6.667,18.1-7.1a1.336,1.336,0,0,1,2.579.7C637.615,301.081,634.816,310.79,622.808,310.79Z" transform="translate(242.854 5425.867)" fill="#6473b2"/>
                      <path id="Trazado_21972" data-name="Trazado 21972" d="M618.534,302.895" transform="translate(247.673 5431.282)" fill="none" stroke="#dfc5b6" stroke-linecap="round" stroke-miterlimit="10" stroke-width="1.078"/>
                      <path id="Trazado_21973" data-name="Trazado 21973" d="M586.016,342.96l.982-1.747,6.51-12.3,7.325,3.169-.557,5.67s.68,10.788.327,11.176l-2.359,3.876a.779.779,0,0,1-1.35-.425,2.808,2.808,0,0,1,.315-2.367l.5-.837-.232-2.669-2.049,6.14-1.322,2.619a3.369,3.369,0,0,1-1.592,1.472,1.249,1.249,0,0,1-.59,0,.614.614,0,0,1-.312-.445,3.466,3.466,0,0,1,.365-2.179l1.185-2.334,1.414-4.111c.2-1.107-.3-.447-.395-.195l-1.824,4.748-1.879,3.479a3.383,3.383,0,0,1-1.594,1.474l-.045.02a.613.613,0,0,1-.854-.467l-.008-.05a3.372,3.372,0,0,1,.373-2.129l1.742-3.194,1.717-5.778c.157-1.062-.37-.627-.517-.17l-1.195,3.716-1.684,3.576a3.367,3.367,0,0,1-1.507,1.562l-.045.023a.612.612,0,0,1-.88-.42l-.01-.05a3.374,3.374,0,0,1,.252-2.144l1.562-3.286,1.272-4.678a.161.161,0,0,0-.275-.15l-.365.4-1.692,3.554-.482,2.794a1.7,1.7,0,0,1-1.632,1.347.52.52,0,0,1-.552-.645l.442-3.826Z" transform="translate(195.964 5470.28)" fill="#ed744d"/>
                      <path id="Trazado_21974" data-name="Trazado 21974" d="M594.952,366.253s13.06-36.615,14.312-43.87c2.534-14.7-5.905-16.676-12.545-6.612-4.516,6.845-9.076,43.507-9.076,43.507-.462,1.829-.86,5.4-.86,5.4S588.842,366.943,594.952,366.253Z" transform="translate(200.078 5441.2)" fill="#ed744d"/>
                      <g id="Grupo_6504" data-name="Grupo 6504" transform="translate(646.523 5613.186)">
                        <g id="Grupo_6495" data-name="Grupo 6495" transform="translate(0 46.44)">
                          <path id="Trazado_21977" data-name="Trazado 21977" d="M548.626,275.231a2.384,2.384,0,0,1,.415-.49l-.015-.312Z" transform="translate(-503.642 -271.014)" fill="#ed744d"/>
                          <path id="Trazado_21978" data-name="Trazado 21978" d="M651.771,381.507c-4.408,2.809-6.812-1.007-6.812-1.007a8.751,8.751,0,0,1-3.409.407c-2.606,0-8.816-.8-8.816-.8l-1.007,10.026s-6.81,2.2-23.85,4.6-46.9-2.4-46.9-2.4l1.4-6.81s-10.628,5.008-18.445-1.609-8.817-38.887-8.817-38.887a41.366,41.366,0,0,1-4.408-15.829c-.6-9.019,1.6-19.047,15.829-26.854A161.446,161.446,0,0,1,576.614,290.1l-.33-7.489-.262-5.823c4.311-4.088,28.646-3.721,28.646-3.721l1.01,9.244.8,7.392s32.872,6.21,38.277,10.221,10.423,20.847,13.235,40.891S656.189,378.7,651.771,381.507Z" transform="translate(-530.625 -273.063)" fill="#ed744d"/>
                        </g>
                        <path id="Trazado_21979" data-name="Trazado 21979" d="M542.479,336.245c-.39.7-1.6,18.173,0,30.465s4.543,31.535,4.543,31.535-5.88,16.838-5.078,24.053,8.287,46.5,8.287,46.5-3.209,11.493-2.139,14.7,10.7,7.654,22.049,9.754c10.823,2.007,14.3,3.051,18.492,1.7,2.879-.922,6.452-5.768,3.021-7.717a39.546,39.546,0,0,0-7.679-3.126l-16.106-15.046s4.008-40.889,4.543-53.448-.267-15.234-.267-15.234,1.069-1.07,3.206-8.552,5.078-48.373,5.345-53.184S547.557,327.159,542.479,336.245Z" transform="translate(-514.066 -138.667)" fill="#ed744d"/>
                        <path id="Trazado_21980" data-name="Trazado 21980" d="M559.106,338.9s6.147,29.131,9.086,42.493,4.811,17.1,4.811,17.1-5.613,15.234-6.148,27.794,8.552,48.64,8.287,50.245-3.743,13.095-1.07,16.568,42.226,2.4,45.164.8-.268-5.613-4.008-6.415a11.335,11.335,0,0,0-5.88,0s-14.7-11.223-16.034-14.164,5.343-70.287,6.413-76.432,1.672-42.36-2.872-58.127S560.175,327.94,559.106,338.9Z" transform="translate(-487.932 -143.192)" fill="#ed744d"/>
                        <path id="Trazado_21981" data-name="Trazado 21981" d="M622.38,337.029c-.8-14.547-2.276-29.426-6.34-43.462a104.1,104.1,0,0,0-4.148-11.7c-.387-.912-.94-.82-1.847-.982l-2.446-.44a.586.586,0,0,0-.712.712,13.985,13.985,0,0,1-2.362,13.247c-3.316,4.028-8.376,6.422-13.347,7.674a39.8,39.8,0,0,1-32.282-6.243,101.052,101.052,0,0,1-12.682-10.926.733.733,0,0,0-.862-.11q-3.141,1.6-6.285,3.2a.728.728,0,0,0,0,1.247,21.636,21.636,0,0,1,5.49,4.626,59.424,59.424,0,0,1,4.588,5.458,41.732,41.732,0,0,1,7.132,16.6c2.879,13.682.672,27.6-2.522,41.021-1.847,7.767-4,15.5-5.07,23.428a.685.685,0,0,0,.2.587.513.513,0,0,0,.307.582A45.059,45.059,0,0,0,559.67,384.1c4.988.755,10.024,1.235,15.059,1.514a160.44,160.44,0,0,0,32.759-1.19,62.817,62.817,0,0,0,7.322-1.5c1.829-.507,3.986-1.1,5.341-2.5a.543.543,0,0,0-.1-.865c2.032-6.083,2.139-12.68,2.452-19.025A225.6,225.6,0,0,0,622.38,337.029Z" transform="translate(-518.5 -215.577)" fill="#fadee1"/>
                        <path id="Trazado_21982" data-name="Trazado 21982" d="M578.446,282.315a36.39,36.39,0,0,1-7.422,3.081c-5.3,1.152-9.716.6-15.026-.3-1.762-.3-4.718-1.647-6.945-2.479l-.263-5.823c4.311-4.088,28.646-3.721,28.646-3.721Z" transform="translate(-503.394 -226.622)" fill="#c1b1b3" style="mix-blend-mode: multiply;isolation: isolate"/>
                        <path id="Trazado_21983" data-name="Trazado 21983" d="M567.225,254.627c-7.217.8-14.432,1.2-20.044,8.017-4.775,5.8-3.006,15.836-1.2,24.655s4.008,19.442,7.817,20.644,16.236,4.208,25.055,2,11.825-7.215,15.031-14.232c2.649-5.79-2.4-25.655-5.01-32.07S575.611,253.694,567.225,254.627Z" transform="translate(-510.415 -254.479)" fill="#ed744d"/>
                        <path id="Trazado_21984" data-name="Trazado 21984" d="M551.638,270.425s-4.511-4.008-7.317-2.1-1.3,9.219,2.506,9.721a6.993,6.993,0,0,0,5.913-1.8Z" transform="translate(-512.267 -234.499)" fill="#ed744d"/>
                        <path id="Trazado_21985" data-name="Trazado 21985" d="M546.737,309.98c.665-.53,24.52-5.813,40.354-6.612a256.365,256.365,0,0,1,31.8.667s-4.343,5.613-17.773,14.832-22.716,14.164-36.748,17.973a146.429,146.429,0,0,1-23.85,4.611S541.727,313.988,546.737,309.98Z" transform="translate(-515.785 -181.554)" fill="#ed744d"/>
                        <path id="Trazado_21986" data-name="Trazado 21986" d="M599.812,335.314s-7.749.127-21.246-2.139a61.456,61.456,0,0,1-14.869-4.381c-.37-.155-.717-.31-1.037-.465a31.208,31.208,0,0,1-4.681-2.634l-1.869-20.452s12.3-1.337,24.19-2a76.309,76.309,0,0,1,15.326.7c.145.02.29.038.427.058V304a48.154,48.154,0,0,1,4.96.98s6.14,2.671,6.945,11.75S599.812,335.314,599.812,335.314Z" transform="translate(-492.423 -181.563)" fill="#ed744d"/>
                        <path id="Trazado_21987" data-name="Trazado 21987" d="M545.026,319.986a224.772,224.772,0,0,0,40.688,2.606c20.644-.8,31.867-3.809,31.867-3.809a26.108,26.108,0,0,0-.2,5.41c.2,3.006,6.215,25.457,7.217,29.263a58.834,58.834,0,0,1,1.4,7.217,200.151,200.151,0,0,0-21.047,3.808c-10.938,2.551-16.436,5.21-16.436,5.21s-1.8-6.615-2.4-10.021-1-5.01-1-5.01l-2.806,14.632s-8.419.8-22.049-.8c-12.182-1.434-18.84-3.808-18.84-3.808s-.6-14.831.6-25.255S545.026,319.986,545.026,319.986Z" transform="translate(-514.673 -158.086)" fill="#ffd54f"/>
                        <g id="Grupo_6496" data-name="Grupo 6496" transform="translate(42.93 252.218)" style="mix-blend-mode: multiply;isolation: isolate">
                          <path id="Trazado_21988" data-name="Trazado 21988" d="M547.849,356.122c1.065,2.419.787,5.508,2.734,7.519a6.127,6.127,0,0,0,3.451,1.542,16.1,16.1,0,0,0,2.019.2,3.57,3.57,0,0,0,1.767-.235c.25-.117.132-.442-.07-.525a5.245,5.245,0,0,0-1.7-.245,13.654,13.654,0,0,1-1.8-.245,5.142,5.142,0,0,1-3.049-1.527,9.318,9.318,0,0,1-1.377-3.411,19.011,19.011,0,0,0-1.17-3.551c-.272-.55-1.049-.068-.81.472Z" transform="translate(-547.804 -355.407)" fill="#c1b1b3"/>
                        </g>
                        <g id="Grupo_6497" data-name="Grupo 6497" transform="translate(103.68 248.84)" style="mix-blend-mode: multiply;isolation: isolate">
                          <path id="Trazado_21989" data-name="Trazado 21989" d="M572.159,354.73c.46,1.012.77,2.084,1.19,3.111a8.331,8.331,0,0,0,.792,1.524,2.271,2.271,0,0,0,1.32,1.087.353.353,0,0,0,.427-.427,4.76,4.76,0,0,0-.747-1.339c-.3-.467-.54-.962-.787-1.454-.485-.977-.887-2-1.422-2.951-.287-.51-1-.062-.772.45Z" transform="translate(-572.114 -354.055)" fill="#c1b1b3"/>
                        </g>
                        <g id="Grupo_6498" data-name="Grupo 6498" transform="translate(71.422 349.293)" style="mix-blend-mode: multiply;isolation: isolate">
                          <path id="Trazado_21990" data-name="Trazado 21990" d="M559.512,395.076c2.064.382,3.506,1.814,5.133,3.014.32.237,1.034.8,1.414.4.415-.432-.425-.922-.7-1.13-.8-.6-1.6-1.215-2.422-1.772a7.969,7.969,0,0,0-3.2-1.334c-.53-.083-.765.717-.225.817Z" transform="translate(-559.205 -394.253)" fill="#c1b1b3"/>
                        </g>
                        <g id="Grupo_6499" data-name="Grupo 6499" transform="translate(71.725 352.397)" style="mix-blend-mode: multiply;isolation: isolate">
                          <path id="Trazado_21991" data-name="Trazado 21991" d="M559.58,396.465c.475.28.93.592,1.377.915.215.155.427.317.642.47a2.621,2.621,0,0,0,.352.187,1.217,1.217,0,0,0,.5.1.327.327,0,0,0,.315-.412,1.356,1.356,0,0,0-.222-.42,2.948,2.948,0,0,0-.28-.277c-.237-.2-.5-.37-.752-.55-.455-.325-.917-.637-1.4-.92a.522.522,0,0,0-.527.9Z" transform="translate(-559.327 -395.495)" fill="#c1b1b3"/>
                        </g>
                        <g id="Grupo_6500" data-name="Grupo 6500" transform="translate(69.75 355.029)" style="mix-blend-mode: multiply;isolation: isolate">
                          <path id="Trazado_21992" data-name="Trazado 21992" d="M558.893,397.516c.41.125.83.215,1.232.36.023.008.13.035.137.052-.005-.01-.1-.042-.03-.013l.075.035c.088.042.18.087.265.135.042.022.08.047.12.072l.062.043c.05.035,0,0-.02-.015a.7.7,0,0,0,.282.135c.043.01.085.023.125.035a.327.327,0,0,0,.413-.312.955.955,0,0,0-.1-.417,1.134,1.134,0,0,0-.277-.28,2.712,2.712,0,0,0-.72-.39c-.425-.165-.872-.257-1.307-.39a.5.5,0,0,0-.6.342.506.506,0,0,0,.342.607Z" transform="translate(-558.536 -396.548)" fill="#c1b1b3"/>
                        </g>
                        <g id="Grupo_6501" data-name="Grupo 6501" transform="translate(41.174 328.472)" style="mix-blend-mode: multiply;isolation: isolate">
                          <path id="Trazado_21993" data-name="Trazado 21993" d="M547.121,386.673c.22.937.28,1.9.555,2.831a4.344,4.344,0,0,0,.64,1.384c.342.455,1.037.947,1.6.585a.415.415,0,0,0,.187-.46.867.867,0,0,0-.19-.38c-.068-.072-.145-.137-.213-.212-.037-.042-.215-.262-.11-.112-.052-.075-.107-.147-.162-.217s-.075-.1-.015-.015a4.558,4.558,0,0,1-.332-.577c-.077-.157.047.13-.015-.037-.02-.05-.042-.1-.06-.152-.042-.115-.08-.23-.115-.345-.262-.857-.362-1.752-.6-2.614a.606.606,0,0,0-1.167.322Z" transform="translate(-547.101 -385.921)" fill="#c1b1b3"/>
                        </g>
                        <g id="Grupo_6502" data-name="Grupo 6502" transform="translate(93.673 329.85)" style="mix-blend-mode: multiply;isolation: isolate">
                          <path id="Trazado_21994" data-name="Trazado 21994" d="M568.111,386.889a4.685,4.685,0,0,0,.762,2.324,3.406,3.406,0,0,0,.89.865,2.327,2.327,0,0,0,.585.292.968.968,0,0,0,.715-.053.26.26,0,0,0,.093-.352,1.333,1.333,0,0,0-.463-.412c-.15-.085-.31-.152-.457-.245a2.115,2.115,0,0,1-.215-.145c.075.057-.025-.025-.033-.03l-.088-.077c-.062-.057-.12-.117-.177-.18-.03-.035-.058-.07-.088-.1-.06-.07.032.05-.028-.033a3.6,3.6,0,0,1-.257-.417c-.04-.077-.078-.155-.113-.237.032.08-.017-.042-.017-.048l-.043-.115a5.128,5.128,0,0,1-.15-.53,4.9,4.9,0,0,1-.085-.5.43.43,0,0,0-.417-.417.419.419,0,0,0-.415.417Z" transform="translate(-568.109 -386.472)" fill="#c1b1b3"/>
                        </g>
                        <g id="Grupo_6503" data-name="Grupo 6503" transform="translate(70.237 122.315)" style="mix-blend-mode: multiply;isolation: isolate">
                          <path id="Trazado_21995" data-name="Trazado 21995" d="M592.182,303.968c-.765,1.374-2.5,2.4-3.7,3.391-1.317,1.085-2.654,2.169-4,3.234-2.6,2.054-5.23,4.078-7.924,6.028-5.533,4.018-10.9,8.262-16.788,11.72-.37-.155-.717-.31-1.037-.465,5.735-3.624,11.693-8,17.118-12.023,2.839-2.1,5.648-4.233,8.4-6.442q2.005-1.612,3.981-3.254c1.067-.892,2.152-2.162,3.468-2.674a.338.338,0,0,1,.078-.04.308.308,0,0,1,.35.1v.01A.386.386,0,0,1,592.182,303.968Z" transform="translate(-558.731 -303.425)" fill="#c1b1b3"/>
                        </g>
                        <path id="Trazado_21996" data-name="Trazado 21996" d="M568.974,307.439c-4.678,1.4-8.739,8.769-11.005,8.234a1.315,1.315,0,0,1-1.155-1.347,4.221,4.221,0,0,1,.572-1.879c-.2.33-.66,1.077-1.25,1.889-1.172,1.619-2.859,3.536-4.051,3.139-1.229-.415-1.277-2.034-1.132-3.226v-.017a9.852,9.852,0,0,1,.26-1.3s-.347.66-.91,1.492l-.01.01c-.967,1.444-2.567,3.421-4.089,3.506-1.549.087-1.354-1.647-1.017-2.9v-.017c.175-.612.367-1.1.407-1.2a2.484,2.484,0,0,1-.62.512,2.625,2.625,0,0,1-2.916-.27c-1.7-1.1,8.052-13.147,12.158-12.43A39.066,39.066,0,0,1,568.974,307.439Z" transform="translate(-513.781 -183.836)" fill="#ed744d"/>
                        <path id="Trazado_21997" data-name="Trazado 21997" d="M569.021,307.45l-.132-.09-.03-.017-.022-.015-.085-.057a24.342,24.342,0,0,0-6.165,4.98,15.117,15.117,0,0,1-3.094,2.606c-.672.375-1.742.867-2.049-.16a3.758,3.758,0,0,1,.73-2.821,26.689,26.689,0,0,1,1.927-2.724c.34-.427.7-.852,1.077-1.249.31-.34.92-.727,1.007-1.2.02-.1-.04-.232-.165-.223-.505.058-.872.62-1.192.97-.408.445-.795.9-1.162,1.374-1.892,2.387-3.3,5.23-5.458,7.39-.867.867-2.629,1.957-2.9-.01a10.052,10.052,0,0,1,.43-3.3c.352-.665.714-1.327,1.114-1.972a25.722,25.722,0,0,1,2.179-3.031c.367-.455.755-.892,1.152-1.317.35-.39.912-.795,1.037-1.319a.188.188,0,0,0-.232-.232c-.5.127-.862.64-1.2,1.017-.435.485-.852.98-1.26,1.492a39.592,39.592,0,0,0-3.3,5.2,15.2,15.2,0,0,1-3.454,4.551,2.489,2.489,0,0,1-1.539.75c-.917-.09-1.037-1.155-.979-1.807a9.215,9.215,0,0,1,.757-2.721.318.318,0,0,0,.025-.132,23.674,23.674,0,0,1,3.166-4.9c.727-.842,1.444-1.7,2.219-2.509.357-.377.745-.755,1.132-1.1.252-.232.785-.512.855-.862a.1.1,0,0,0-.107-.135c-.35-.037-.717.4-.95.61-.427.377-.832.785-1.239,1.192-.835.835-1.647,1.667-2.4,2.567a23.7,23.7,0,0,0-1.924,2.686,16.048,16.048,0,0,1-1.472,2.459c-.537.6-1.447,1.389-2.307,1-1.132-.51-.372-2.042.05-2.814a25.73,25.73,0,0,1,3.181-4.6,32.2,32.2,0,0,1,2.706-2.584,14.432,14.432,0,0,1,3.921-2.526l.015-.28a17.237,17.237,0,0,0-2.489,1.142,18.055,18.055,0,0,0-2.516,2.1,26.74,26.74,0,0,0-4.511,5.2c-.75,1.127-2.287,3.226-1.145,4.568.782.92,1.924.5,2.809-.158-.515,1.759-.825,4.311,1.329,4.188,1.237-.07,2.249-1.275,2.979-2.147a22.033,22.033,0,0,0,1.574-2.184c-.287,1.814-.317,4.186,1.884,3.6,1.707-.452,2.959-2.311,4-3.933a1.882,1.882,0,0,0,.462,1.654c.835.737,2.049-.072,2.751-.587,3.189-2.329,5.473-5.783,9.121-7.492A.8.8,0,0,0,569.021,307.45Z" transform="translate(-513.861 -183.872)" fill="#c2b3b5" style="mix-blend-mode: multiply;isolation: isolate"/>
                      </g>
                      <g id="Grupo_6505" data-name="Grupo 6505" transform="translate(707.997 5730.292)" style="mix-blend-mode: multiply;isolation: isolate">
                        <path id="Trazado_21998" data-name="Trazado 21998" d="M555.668,305.2c4.941-1.824,10.286-2.3,15.511-2.5,2.617-.1,5.235-.115,7.852-.092a35.656,35.656,0,0,0,7.484-.287.3.3,0,0,0,0-.57,37.441,37.441,0,0,0-7.484-.407c-2.751-.01-5.508,0-8.257.152a47.238,47.238,0,0,0-15.3,2.989c-.432.177-.257.885.2.715Z" transform="translate(-555.225 -301.34)" fill="#d7cdce"/>
                      </g>
                      <g id="Grupo_6507" data-name="Grupo 6507" transform="translate(718.572 5636.967)">
                        <path id="Trazado_21999" data-name="Trazado 21999" d="M562.432,265.792a1.839,1.839,0,0,1-1.137,2.267c-.812.132-1.617-.667-1.8-1.784s.327-2.132,1.137-2.264S562.249,264.675,562.432,265.792Z" transform="translate(-559.456 -263.995)" fill="#28121e"/>
                      </g>
                      <g id="Grupo_6508" data-name="Grupo 6508" transform="translate(703.593 5638.461)">
                        <path id="Trazado_22000" data-name="Trazado 22000" d="M556.438,266.392c.185,1.117-.325,2.132-1.137,2.264s-1.617-.665-1.8-1.782.327-2.134,1.14-2.267S556.256,265.272,556.438,266.392Z" transform="translate(-553.462 -264.593)" fill="#28121e"/>
                      </g>
                      <g id="Grupo_6509" data-name="Grupo 6509" transform="translate(698.688 5633.343)">
                        <path id="Trazado_22001" data-name="Trazado 22001" d="M552.814,266.708c.042-.032,4.281-3.3,8.876-1.477l.782-1.967c-5.745-2.294-10.763,1.612-10.973,1.782Z" transform="translate(-551.499 -262.545)" fill="#bb5a38"/>
                      </g>
                      <g id="Grupo_6510" data-name="Grupo 6510" transform="translate(712.185 5630.915)">
                        <path id="Trazado_22002" data-name="Trazado 22002" d="M559.859,279.255a2.994,2.994,0,0,0,2.172-1.547c.4-1.045-.208-2.022-1.127-3.5-.347-.557-.755-1.215-1.187-1.994a6.307,6.307,0,0,1-.362-.787,5.37,5.37,0,0,1,.432-4.661,6.165,6.165,0,0,1,4.383-2.966,8,8,0,0,1,4.281.452l.782-1.967a10.108,10.108,0,0,0-5.393-.577,8.257,8.257,0,0,0-5.88,3.988,7.555,7.555,0,0,0-.592,6.467,8.326,8.326,0,0,0,.495,1.077c.453.817.88,1.5,1.245,2.087a10.155,10.155,0,0,1,.914,1.649c-.085-.027-.28.1-.757.242Z" transform="translate(-556.9 -261.573)" fill="#bb5a38"/>
                      </g>
                      <g id="Grupo_6511" data-name="Grupo 6511" transform="translate(710.892 5652.32)">
                        <path id="Trazado_22003" data-name="Trazado 22003" d="M559.552,273.85a6.129,6.129,0,0,0,4.336-2.379l-1.644-1.332a4.036,4.036,0,0,1-4.933,1.259l-.927,1.907A6.283,6.283,0,0,0,559.552,273.85Z" transform="translate(-556.383 -270.139)" fill="#bb5a38"/>
                      </g>
                      <g id="Grupo_6512" data-name="Grupo 6512" transform="translate(698.606 5646.441)">
                        <path id="Trazado_22004" data-name="Trazado 22004" d="M552.777,268.338a.66.66,0,1,1-.757-.542A.659.659,0,0,1,552.777,268.338Z" transform="translate(-551.467 -267.786)" fill="#bb5a38"/>
                      </g>
                      <g id="Grupo_6513" data-name="Grupo 6513" transform="translate(702.51 5648.063)">
                        <path id="Trazado_22005" data-name="Trazado 22005" d="M553.592,268.674a.283.283,0,1,1-.325-.235A.285.285,0,0,1,553.592,268.674Z" transform="translate(-553.029 -268.435)" fill="#bb5a38"/>
                      </g>
                      <g id="Grupo_6514" data-name="Grupo 6514" transform="translate(698.694 5650.141)">
                        <path id="Trazado_22006" data-name="Trazado 22006" d="M552.652,269.75a.579.579,0,1,1-.665-.475A.578.578,0,0,1,552.652,269.75Z" transform="translate(-551.502 -269.267)" fill="#bb5a38"/>
                      </g>
                      <g id="Grupo_6515" data-name="Grupo 6515" transform="translate(695.744 5648.183)">
                        <path id="Trazado_22007" data-name="Trazado 22007" d="M550.958,268.753a.32.32,0,1,1-.367-.265A.318.318,0,0,1,550.958,268.753Z" transform="translate(-550.321 -268.483)" fill="#bb5a38"/>
                      </g>
                      <g id="Grupo_6516" data-name="Grupo 6516" transform="translate(702.504 5651.249)">
                        <path id="Trazado_22008" data-name="Trazado 22008" d="M553.99,270.117a.485.485,0,1,1-.557-.4A.483.483,0,0,1,553.99,270.117Z" transform="translate(-553.026 -269.71)" fill="#bb5a38"/>
                      </g>
                      <g id="Grupo_6517" data-name="Grupo 6517" transform="translate(705.369 5646.034)">
                        <path id="Trazado_22009" data-name="Trazado 22009" d="M555.033,267.987a.433.433,0,1,1-.5-.357A.432.432,0,0,1,555.033,267.987Z" transform="translate(-554.173 -267.624)" fill="#bb5a38"/>
                      </g>
                      <g id="Grupo_6518" data-name="Grupo 6518" transform="translate(705.844 5648.589)">
                        <path id="Trazado_22010" data-name="Trazado 22010" d="M554.373,269.521a.752.752,0,1,1,.865.62A.751.751,0,0,1,554.373,269.521Z" transform="translate(-554.363 -268.646)" fill="#bb5a38"/>
                      </g>
                      <g id="Grupo_6519" data-name="Grupo 6519" transform="translate(719.996 5643.429)">
                        <path id="Trazado_22011" data-name="Trazado 22011" d="M561.171,267.064a.576.576,0,1,1-.66-.475A.575.575,0,0,1,561.171,267.064Z" transform="translate(-560.026 -266.581)" fill="#bb5a38"/>
                      </g>
                      <g id="Grupo_6520" data-name="Grupo 6520" transform="translate(722.279 5646.824)">
                        <path id="Trazado_22012" data-name="Trazado 22012" d="M560.951,268.87a.8.8,0,1,1,.92.662A.8.8,0,0,1,560.951,268.87Z" transform="translate(-560.94 -267.94)" fill="#bb5a38"/>
                      </g>
                      <g id="Grupo_6521" data-name="Grupo 6521" transform="translate(723.743 5643.895)">
                        <path id="Trazado_22013" data-name="Trazado 22013" d="M562.454,267.159a.47.47,0,0,1-.387.537.467.467,0,1,1,.387-.537Z" transform="translate(-561.525 -266.767)" fill="#bb5a38"/>
                      </g>
                    </g>
                  </g>
                </g>
              </g>
            </g>
          </g>
        </g>
      </g>
    </g>
  </g>
</svg>
