<svg xmlns="http://www.w3.org/2000/svg" width="292.857" height="356.895" viewBox="0 0 292.857 356.895">
  <g id="Grupo_1069671" data-name="Grupo 1069671" transform="translate(-1063.992 -5605.186)">
    <g id="Grupo_1069670" data-name="Grupo 1069670">
      <g id="Grupo_1069669" data-name="Grupo 1069669">
        <g id="Grupo_1069668" data-name="Grupo 1069668">
          <g id="Grupo_1069667" data-name="Grupo 1069667">
            <path id="Trazado_22014" data-name="Trazado 22014" d="M473.708,108.6c-18.5,6.414-35.249,21.6-40.018,40.871-7.576,30.62,14.626,62.433,1.046,92.208-4.658,10.209-14.371,15.779-21.145,24.458-4.833,6.187-8.478,13.537-9.026,21.354-1.536,21.958,19.81,45.879,38.465,55.174,26.855,13.379,63.231,12.108,91.232,3.28,14.685-4.631,28.018-13.753,43.543-15.635,13.174-1.6,25.143,3.264,37.667,6.273,24.612,5.91,56.734,5.005,72.443-17.966,6.677-9.764,9.284-21.831,9.421-33.643a146.089,146.089,0,0,0-10.13-54.43c-6.09-15.267-15.394-29.759-18.4-46.106-3.255-17.692.022-35.9.782-53.655.871-20.444-1.783-43.224-19.8-56.046-22.534-16.039-58.095-8.831-80.13,3.923-14.471,8.374-27.261,18.75-44.016,22.127-16.6,3.347-33.938,2.107-50.212,7.242C474.854,108.21,474.278,108.4,473.708,108.6Z" transform="translate(659.505 5563.301)" fill="#727997"/>
            <path id="Trazado_22022" data-name="Trazado 22022" d="M497.368,180.5s-3.59,20.113-3.59,26.76,2.873,10.057,1.8,11.674-2.693,1.437-3.054,5.027-3.952,6.466-9.7,6.466-5.027-5.388-4.849-6.286,5.747-7.183,7.364-12.571-1.078-32.867-1.078-32.867S496.112,165.418,497.368,180.5Z" transform="translate(799.029 5725.759)" fill="#962e09"/>
            <path id="Trazado_22023" data-name="Trazado 22023" d="M515.864,115.34H496.611s-25.035,5.195-22.487,51.654c.785,14.329,9.623,37.882,12.017,56.633-1.77,18.874,5.388,61.119,5.388,61.119l9.161.145c3.274-20.316,5.734-39.757,5.932-56.771l9.237-55.6,0,.028Z" transform="translate(793.143 5638.401)" fill="#962e09"/>
            <path id="Trazado_22024" data-name="Trazado 22024" d="M494.6,180.5s3.593,20.113,3.593,26.76-2.873,10.057-1.8,11.674,2.693,1.437,3.051,5.027,3.951,6.466,9.7,6.466,5.03-5.388,4.849-6.286-5.747-7.183-7.364-12.571,1.078-32.867,1.078-32.867S495.863,165.418,494.6,180.5Z" transform="translate(824.286 5725.759)" fill="#962e09"/>
            <path id="Trazado_22025" data-name="Trazado 22025" d="M489.575,115.34H508.83s25.02,3.879,21.873,53.236c-.913,14.321-9.008,36.3-11.405,55.051,1.77,18.874-5.386,61.119-5.386,61.119l-9.164.145c-3.274-20.316-5.734-39.757-5.932-56.771l-9.234-55.6-.007.028Z" transform="translate(816.706 5638.401)" fill="#962e09"/>
            <path id="Trazado_22026" data-name="Trazado 22026" d="M539.608,125.083c-6.185-8.625-13.366-9.743-13.366-9.743H490.459s-6.429,1.339-12.436,8.7A216.629,216.629,0,0,0,539.608,125.083Z" transform="translate(799.295 5638.401)" fill="#832307"/>
            <path id="Trazado_22027" data-name="Trazado 22027" d="M533.474,116.608a35.417,35.417,0,0,1-19.694,5.21c-9.172-.266-19.231-.815-27.316-5.569a29.655,29.655,0,0,0-9.214,9.039c14.733,7.271,25.393,19.268,33.63,33.08,3.244-12.067,24.471-29.924,32.226-30.919A29.112,29.112,0,0,0,533.474,116.608Z" transform="translate(798.128 5639.771)" fill="#ffd54f"/>
            <ellipse id="Elipse_554" data-name="Elipse 554" cx="4.679" cy="4.679" rx="4.679" ry="4.679" transform="translate(1292.849 5662.287)" fill="#431202"/>
            <path id="Trazado_22028" data-name="Trazado 22028" d="M491.35,81.973a4.68,4.68,0,1,1-4.678-4.679A4.681,4.681,0,0,1,491.35,81.973Z" transform="translate(805.275 5581.057)" fill="#431202"/>
            <ellipse id="Elipse_555" data-name="Elipse 555" cx="5.607" cy="5.607" rx="5.607" ry="5.607" transform="translate(1317.227 5636.961)" fill="#431202"/>
            <path id="Trazado_22029" data-name="Trazado 22029" d="M505.428,77.107a4.925,4.925,0,1,1-4.924-4.924A4.925,4.925,0,0,1,505.428,77.107Z" transform="translate(825.752 5573.354)" fill="#431202"/>
            <path id="Trazado_22030" data-name="Trazado 22030" d="M504.356,79.725a4.924,4.924,0,1,1-4.924-4.924A4.925,4.925,0,0,1,504.356,79.725Z" transform="translate(824.141 5577.299)" fill="#431202"/>
            <path id="Trazado_22031" data-name="Trazado 22031" d="M481.915,85.967c.842,10.658,9.495,18.666,19.328,17.889s17.332-10.062,16.282-20.7c-1.141-11.538-8.447-16.505-18.195-14.991C488.632,69.828,481.073,75.311,481.915,85.967Z" transform="translate(805.064 5566.898)" fill="#431202"/>
            <path id="Trazado_22033" data-name="Trazado 22033" d="M531.7,155.843a120.359,120.359,0,0,0,5.458-16.8s8.1-4.177,5.782-11.533a60.7,60.7,0,0,0-3.26-7.8,48.2,48.2,0,0,1-4.856-23.671c.048-.915.088-1.432.088-1.432s-15.78-8.206-26-7.89c-12.4.381-32.218,8.525-32.218,8.525A110.116,110.116,0,0,0,479.595,120s8.525,24.646,12.887,35.838Z" transform="translate(797.281 5595.237)" fill="#962e09"/>
            <path id="Trazado_22034" data-name="Trazado 22034" d="M542.937,124.559a60.7,60.7,0,0,0-3.26-7.8,48.2,48.2,0,0,1-4.856-23.671c.048-.915.088-1.432.088-1.432s-2.665-1.386-6.514-3c-1.609,9.36-6.549,19.484-16.3,20.136-16.006,1.073-27.286-19.516-27.286-19.516-4.786,1.642-8.118,3.011-8.118,3.011a110.116,110.116,0,0,0,2.906,24.769s6.441,18.626,10.992,30.846c14.4.459,28.816.722,43.172-.318,2.036-5.844,3.4-11.493,3.4-11.493S545.252,131.915,542.937,124.559Z" transform="translate(797.281 5598.185)" fill="#ffd54f"/>
            <path id="Trazado_22035" data-name="Trazado 22035" d="M495.931,92.3s-1.677-3.076-2.991-2.595a68.772,68.772,0,0,1-7.273,1.2s6.125.043,7.2.822S496.362,93.007,495.931,92.3Z" transform="translate(810.814 5599.693)" fill="#792304"/>
            <path id="Trazado_22036" data-name="Trazado 22036" d="M491.063,92.446s1.173-3.3,2.545-3.034a59.064,59.064,0,0,0,6.193.258s-4.864.79-5.8,1.727S490.744,93.206,491.063,92.446Z" transform="translate(818.903 5599.298)" fill="#792304"/>
            <g id="Grupo_6531" data-name="Grupo 6531" transform="translate(1298.861 5666.966)">
              <path id="Trazado_22037" data-name="Trazado 22037" d="M486.616,80.856l.58,21.433,14.047-1.109-1.47-20.449Z" transform="translate(-486.616 -80.73)" fill="#962e09"/>
            </g>
            <path id="Trazado_22038" data-name="Trazado 22038" d="M499.187,80.73,487,80.848a36.5,36.5,0,0,0,.624,4.816c3.994,8.866,8.244,10.681,12.709,11.047Z" transform="translate(812.831 5586.236)" fill="#792304"/>
            <path id="Trazado_22039" data-name="Trazado 22039" d="M503.859,106.591h0c-6.835.208-17.949-7.873-18.16-14.71,0,0-1.472-10.42.356-13.71,3.172-5.714,16.833-6.672,22.3-5.874,8.382,1.221,7.324,16.7,7.324,16.7C516.688,101.724,506.85,106.5,503.859,106.591Z" transform="translate(810.02 5573.157)" fill="#962e09"/>
            <path id="Trazado_22040" data-name="Trazado 22040" d="M483.488,82.215c.233,2.928,3.041,5.24,6.566,5.145l-.364-10.636C486.163,76.819,483.069,76.957,483.488,82.215Z" transform="translate(807.474 5580.198)" fill="#962e09"/>
            <path id="Trazado_22041" data-name="Trazado 22041" d="M485.553,78.379a.392.392,0,0,0-.727-.216,2.33,2.33,0,0,0-.186,2.284c.584,1.329,1.728,2.608,2.221,2.036s-.043-.426-.9-2.139A4.182,4.182,0,0,1,485.553,78.379Z" transform="translate(808.943 5582.083)" fill="#792304"/>
            <path id="Trazado_22042" data-name="Trazado 22042" d="M488.194,73.2c4.992-2,23.786-2.881,23.786-2.881A27.64,27.64,0,0,1,501.211,81.6a33.665,33.665,0,0,1-7.364,3.041,7.058,7.058,0,0,0-5.02,5.706h0l-.155-.667a3.923,3.923,0,0,0-4.33-2.986h0a30.3,30.3,0,0,1,.416-8.246C485.283,76.1,486.3,73.959,488.194,73.2Z" transform="translate(808.65 5570.544)" fill="#431202"/>
            <path id="Trazado_22043" data-name="Trazado 22043" d="M497.437,78.834c.068.852-.381,1.585-1,1.635s-1.176-.6-1.244-1.457" transform="translate(825.174 5583.378)" fill="none" stroke="#28121e" stroke-miterlimit="10" stroke-width="0.595"/>
            <path id="Trazado_22044" data-name="Trazado 22044" d="M493.041,79c.068.852-.381,1.585-1,1.635s-1.176-.6-1.244-1.457" transform="translate(818.548 5583.634)" fill="none" stroke="#28121e" stroke-miterlimit="10" stroke-width="0.595"/>
            <path id="Trazado_22045" data-name="Trazado 22045" d="M489.471,78.434s3.761-2.5,7.577-.6" transform="translate(816.549 5580.799)" fill="none" stroke="#792304" stroke-miterlimit="10" stroke-width="0.679"/>
            <path id="Trazado_22046" data-name="Trazado 22046" d="M502.2,77.479a6.886,6.886,0,0,0-3.61-.694,5.22,5.22,0,0,0-4.824,6.456,5.423,5.423,0,0,0,.263.727c1.311,2.916,2.4,3.758.233,4.2" transform="translate(822.745 5580.26)" fill="none" stroke="#792304" stroke-miterlimit="10" stroke-width="0.679"/>
            <path id="Trazado_22047" data-name="Trazado 22047" d="M484.516,89.966s9.354,20.7,6.99,43.819c-1.264,12.363-3.528,30.012-12.087,20.537C469.743,143.608,466.572,97.683,484.516,89.966Z" transform="translate(789.609 5600.156)" fill="#962e09"/>
            <path id="Trazado_22048" data-name="Trazado 22048" d="M495.507,114.9c-11.428,0-14.091-9.239-14.118-9.347a1.271,1.271,0,0,1,2.452-.669c.125.436,3.049,10.129,17.227,6.765a1.272,1.272,0,1,1,.587,2.475A26.609,26.609,0,0,1,495.507,114.9Z" transform="translate(804.3 5621.227)" fill="#e8bc42"/>
            <path id="Trazado_22049" data-name="Trazado 22049" d="M503.927,111.657a16.78,16.78,0,0,1-9.056-2.64,1.272,1.272,0,0,1,1.462-2.081,14.314,14.314,0,0,0,13.7.8,1.273,1.273,0,0,1,1.066,2.312A17.043,17.043,0,0,1,503.927,111.657Z" transform="translate(823.874 5625.389)" fill="#e8bc42"/>
            <path id="Trazado_22050" data-name="Trazado 22050" d="M495.243,70.541a3.9,3.9,0,1,1-3.9-3.9A3.9,3.9,0,0,1,495.243,70.541Z" transform="translate(813.485 5564.994)" fill="#431202"/>
            <path id="Trazado_22051" data-name="Trazado 22051" d="M494.189,71.6a4.711,4.711,0,1,1-4.711-4.711A4.712,4.712,0,0,1,494.189,71.6Z" transform="translate(809.459 5565.367)" fill="#431202"/>
            <ellipse id="Elipse_556" data-name="Elipse 556" cx="6.295" cy="6.295" rx="6.295" ry="6.295" transform="translate(1283.64 5628.568)" fill="#431202"/>
            <ellipse id="Elipse_557" data-name="Elipse 557" cx="6.556" cy="6.556" rx="6.556" ry="6.556" transform="translate(1279.368 5636.573)" fill="#431202"/>
            <path id="Trazado_22052" data-name="Trazado 22052" d="M491.665,78.286a6.61,6.61,0,1,1-6.612-6.609A6.613,6.613,0,0,1,491.665,78.286Z" transform="translate(799.931 5572.591)" fill="#431202"/>
            <path id="Trazado_22053" data-name="Trazado 22053" d="M491.182,80.183a5.6,5.6,0,1,1-5.6-5.6A5.6,5.6,0,0,1,491.182,80.183Z" transform="translate(802.252 5576.972)" fill="#431202"/>
            <path id="Trazado_22054" data-name="Trazado 22054" d="M495.433,69.772a5.745,5.745,0,1,1-5.746-5.747A5.745,5.745,0,0,1,495.433,69.772Z" transform="translate(808.216 5561.057)" fill="#431202"/>
            <ellipse id="Elipse_558" data-name="Elipse 558" cx="6.801" cy="6.801" rx="6.801" ry="6.801" transform="translate(1299.48 5624.364)" fill="#431202"/>
            <ellipse id="Elipse_559" data-name="Elipse 559" cx="7.822" cy="7.822" rx="7.822" ry="7.822" transform="translate(1307.599 5628.045)" fill="#431202"/>
            <path id="Trazado_22055" data-name="Trazado 22055" d="M499.145,73.881a3.182,3.182,0,1,1-3.182-3.184A3.181,3.181,0,0,1,499.145,73.881Z" transform="translate(821.54 5571.114)" fill="#431202"/>
            <path id="Trazado_22056" data-name="Trazado 22056" d="M498.824,75.853a4.353,4.353,0,1,1-4.353-4.353A4.353,4.353,0,0,1,498.824,75.853Z" transform="translate(817.525 5572.324)" fill="#431202"/>
            <path id="Trazado_22057" data-name="Trazado 22057" d="M496.5,76.668a4.353,4.353,0,1,1-4.353-4.353A4.353,4.353,0,0,1,496.5,76.668Z" transform="translate(814.026 5573.552)" fill="#431202"/>
            <path id="Trazado_22058" data-name="Trazado 22058" d="M491.4,82.573a3.469,3.469,0,0,0,6.938,0Z" transform="translate(819.454 5589.014)" fill="#fff"/>
            <path id="Trazado_22059" data-name="Trazado 22059" d="M507.855,125.594l-1.83-.534-12.8-3.4,1.366-7.469,5.375-.7s9.856-2.946,10.292-2.7l4.1,1.354a.741.741,0,0,1-.105,1.341,2.674,2.674,0,0,1-2.262.218l-.883-.283-2.424.79,6.133.582,2.71.664a3.2,3.2,0,0,1,1.71,1.158,1.185,1.185,0,0,1,.125.547.591.591,0,0,1-.346.386,3.312,3.312,0,0,1-2.1.128l-2.419-.6-4.112-.429c-1.073.05-.353.371-.1.409l4.794.669,3.628,1a3.186,3.186,0,0,1,1.707,1.161l.03.038a.583.583,0,0,1-.251.893l-.043.018a3.222,3.222,0,0,1-2.053.113l-3.337-.93-5.724-.351c-1.018.083-.5.479-.045.516l3.7.308,3.678.795a3.2,3.2,0,0,1,1.768,1.061l.033.038a.584.584,0,0,1-.2.905l-.043.02a3.206,3.206,0,0,1-2.043.226l-3.382-.742-4.611-.175a.154.154,0,0,0-.08.288l.454.251,3.656.807,2.7-.153a1.616,1.616,0,0,1,1.6,1.224.5.5,0,0,1-.481.649l-3.641.411Z" transform="translate(822.2 5631.523)" fill="#962e09"/>
            <path id="Trazado_22060" data-name="Trazado 22060" d="M528.637,115.686s-35.763-5.915-42.758-5.518c-14.171.8-15.51,13.426-4.756,17.42,7.316,2.718,11.746,1.081,11.746,1.081l30.869-4.709c1.8.038,5.193-.361,5.193-.361S530.585,121.2,528.637,115.686Z" transform="translate(793.252 5630.576)" fill="#962e09"/>
            <path id="Trazado_22061" data-name="Trazado 22061" d="M427.592,141.143s-.268,36.2,2.146,50.408,4.022,16.357,4.022,16.357.8,24.132,3.217,45.85,3.485,33.248,3.485,33.248-17.159,12.6-19.84,13.943-10.189,0-10.458,2.144-.8,6.973,9.921,6.436,25.471-1.073,31.371-1.61,9.653-.8,10.726-5.36-1.878-10.994-3.488-12.6,11.263-47.191,11.263-58.719-8.043-25.205-8.043-25.205,9.921-39.95,12.6-54.429-26.812-32.175-34.858-26.812S428.129,139.8,427.592,141.143Z" transform="translate(696.858 5651.162)" fill="#ff926d"/>
            <path id="Trazado_22062" data-name="Trazado 22062" d="M419.146,119.76s-1.81,14.68-1.81,21.918-.6,21.921-.6,21.921,6.356,2.312,21.317,4.222c18.9,2.412,26.747,2.211,26.747,2.211s4.623-39.614-4.225-44.04S419.146,119.76,419.146,119.76Z" transform="translate(706.914 5645.063)" fill="#ba68c8"/>
            <path id="Trazado_22063" data-name="Trazado 22063" d="M432.132,134.355s4.29,36.6,11.263,54.562,9.653,24.132,9.653,24.132,19.3,33.918,25.471,44.912a181.536,181.536,0,0,1,9.116,18.233s-7.775,20.111-8.848,20.915-10.726.268-10.726,2.68,1.61,6.436,8.58,5.9,9.921-1.61,9.921-1.61,11.262-8.043,14.748-11.26c3.084-2.848,12.6-7.777,10.458-14.479a16.75,16.75,0,0,0-7.241-9.385s-6.165-47.728-12.065-57.649-11.8-13.674-11.8-13.674,4.826-53.091,2.144-63.814S434.278,127.114,432.132,134.355Z" transform="translate(730.125 5656.343)" fill="#ff926d"/>
            <path id="Trazado_22064" data-name="Trazado 22064" d="M430.528,142.657s3.62,24.533,4.626,27.549,2.011,5.23,2.011,5.23a142.437,142.437,0,0,0,28.755-2.615c14.883-3.016,22.726-7.038,22.726-7.038s.4-20.715-2.214-31.774a85.238,85.238,0,0,0-6.837-18.9S445.408,144.267,430.528,142.657Z" transform="translate(727.707 5638.051)" fill="#ba68c8"/>
            <path id="Trazado_22065" data-name="Trazado 22065" d="M457,79.255c-.6,0-19.506,8.246-28.956,18.5s-11.664,24.736-12.067,36a127.221,127.221,0,0,0,.8,19.91s30.365-11.463,41.023-31.574S457,79.255,457,79.255Z" transform="translate(705.656 5584.013)" fill="#ff926d"/>
            <path id="Trazado_22066" data-name="Trazado 22066" d="M457.6,75.929s-.4,10.255-1.206,11.059-22.322,17.5-25.942,28.354-1.406,16.089-1.406,16.089-12.87,18.9-14.078,36.2,5.23,34.79,32.579,40.422,45.649-7.843,53.893-17.7,10.057-26.747,9.856-32.175,16.1-45.248,6.032-54.9c-9.753-9.352-34.59-15.284-34.59-15.284l-.6-13.07S465.044,81.761,457.6,75.929Z" transform="translate(704.051 5577.485)" fill="#ff926d"/>
            <path id="Trazado_22067" data-name="Trazado 22067" d="M436.284,83.153c4.716,1.344,9.979,2.134,14.843,1.163a22.274,22.274,0,0,0,5.792-2.078l.048-.025-.336-7.289s-17.094,6.837-24.536,1.005c0,0-.113,2.883-.338,5.711C433.25,82.192,434.752,82.716,436.284,83.153Z" transform="translate(729.559 5577.485)" fill="#c1b1b3" style="mix-blend-mode: multiply;isolation: isolate"/>
            <path id="Trazado_22068" data-name="Trazado 22068" d="M436.551,62.361S424.94,84.076,426.229,92.891s16.342,15.48,31.177,14.835,20.208-18.706,20.64-23.219-1.908-18.732-10.723-23.031S440.42,57.2,436.551,62.361Z" transform="translate(721.077 5552.522)" fill="#ff926d"/>
            <path id="Trazado_22069" data-name="Trazado 22069" d="M447.316,70.527s3.869-2.149,7.309.216,0,8.815-3.869,8.6a8.094,8.094,0,0,1-5.807-2.8Z" transform="translate(749.443 5569.511)" fill="#ff926d"/>
            <path id="Trazado_22070" data-name="Trazado 22070" d="M514.963,135.172c-6.541.592-13.171-3.6-19.353-14.615-7.968-14.206-2.359-32.724-.652-37.588-1.808-.624-3.523-1.173-5.062-1.645-1,3.377-1.391,9.134-7.557,13.827-5.684,4.325-19.238,11.328-30.1,3.485s-1.61-17.964-1.61-17.964l-3.425,1.7c-4.836,5.589-14.058,16.229-16.753,24.31-3.618,10.861-1.406,16.089-1.406,16.089s-12.87,18.9-14.078,36.2,5.23,34.79,32.579,40.422,45.649-7.843,53.893-17.7,11.13-23.194,10.927-28.623C512.3,151.271,513.977,145.291,514.963,135.172Z" transform="translate(704.051 5586.148)" fill="#fadee1"/>
            <path id="Trazado_22071" data-name="Trazado 22071" d="M489.665,190.424c-3.412,12.451-5.085,15.357-5.085,15.357a44.1,44.1,0,0,1-.251,11.079c-.933,5.686-1.74,6.464-3.287,7.943a7.184,7.184,0,0,1-2.031,1.5,1.814,1.814,0,0,1-.331.115,5.451,5.451,0,0,1-.622,1.176l-.02.03a1.567,1.567,0,0,1-.913.652c-.74.115-1.108-.078-1.3-.313a.97.97,0,0,1-.206-.582s-.068.1-.193.263l-.01.008c-.466.614-1.662,2-2.615,1.73a1.784,1.784,0,0,1-1.061-1.5,4.683,4.683,0,0,1-.1-.893v-.118a2.484,2.484,0,0,1-1.254.8,1.747,1.747,0,0,1-1.956-2.372c.486-2.186,1.868-6.93,2.5-10.39a24.319,24.319,0,0,0,.572-4.859,2.824,2.824,0,0,0-1.885,2.71c-.088,2.216-.883,6.484-2.021,3.929s-3.139-6.494-1.9-9.974a34.781,34.781,0,0,1,4.453-7.67l-.574-44.273s-18.3-36.137-21.57-49.27,8.778-30.227,23.648-14.452,21,58.153,21.131,60.971S493.077,177.973,489.665,190.424Z" transform="translate(753.252 5592.251)" fill="#ff926d"/>
            <path id="Trazado_22072" data-name="Trazado 22072" d="M421.756,98.193a91.42,91.42,0,0,0,10.53,2.2q2.633.391,5.288.644c1.67.163,3.814.672,5.423.1a.276.276,0,0,0,.022-.527c-1.467-.664-3.412-.434-5-.549q-2.651-.2-5.3-.527a98.086,98.086,0,0,1-10.771-1.963c-.406-.1-.609.511-.2.622Z" transform="translate(714.149 5611.604)" fill="#d7cdce"/>
            <path id="Trazado_22073" data-name="Trazado 22073" d="M432.566,99.687l1.64.048c.268.007.534.01.8,0l.386-.013a1.439,1.439,0,0,0,.459-.105.26.26,0,0,0,.02-.5,1.426,1.426,0,0,0-.416-.138c-.138-.018-.278-.03-.416-.048-.268-.03-.534-.048-.8-.063l-1.637-.083a.448.448,0,1,0-.035.9Z" transform="translate(730.13 5613.459)" fill="#d7cdce"/>
            <path id="Trazado_22074" data-name="Trazado 22074" d="M437.4,100.075c3.768.318,7.492,1.005,11.273,1.231a36.833,36.833,0,0,0,5.591-.04c1.349-.123,3.492-.163,4.413-1.291a.4.4,0,0,0-.213-.587,4.545,4.545,0,0,0-2.089.216,21.1,21.1,0,0,1-2.715.4,39.231,39.231,0,0,1-5.456.01c-3.6-.206-7.166-.617-10.776-.627a.343.343,0,0,0-.028.684Z" transform="translate(737.59 5614.263)" fill="#d7cdce"/>
            <path id="Trazado_22075" data-name="Trazado 22075" d="M474.614,68.522a3.48,3.48,0,0,0-3.3.3,17.9,17.9,0,0,0-11.784-11.634,22.464,22.464,0,0,0-5.426-1.035c-3.956-.233-8.394.133-11.919,2.161a28.679,28.679,0,0,0-10.2,9.818,35.216,35.216,0,0,0-5.019,13.341c4.719-4.17,13.376-8.635,16.33-9.683a68.144,68.144,0,0,1,12.724-3.144,36.829,36.829,0,0,1,7.758-.308c-5.08,2.665-6.822,4.207-8.66,8.527,1.87-.6,3.578-1.765,5.5-2.339a30.137,30.137,0,0,1,5.07-1.254c1.213-.135,2.447-.05,3.668-.078a34.708,34.708,0,0,0-.471,5.082A30.765,30.765,0,0,0,473.91,95.47s3.921-4.325,4.626-14.68C478.912,75.249,477.631,69.427,474.614,68.522Z" transform="translate(722.333 5549.097)" fill="#bb5a38"/>
            <path id="Trazado_22076" data-name="Trazado 22076" d="M461.546,138.1c-.213.8-.446,1.595-.689,2.392-.564,1.788-1.2,3.558-1.845,5.315-.574,1.527-1.168,3.054-1.8,4.558a4.681,4.681,0,0,1-.1-.893c.524-1.321,1.038-2.645,1.524-3.976.642-1.72,1.244-3.46,1.79-5.22.223-.737.446-1.477.632-2.224a8.462,8.462,0,0,1,.514-1.838.135.135,0,0,1,.243.03A4.819,4.819,0,0,1,461.546,138.1Z" transform="translate(767.781 5669.768)" fill="#c1b1b3"/>
            <path id="Trazado_22077" data-name="Trazado 22077" d="M463.3,136.467a13.389,13.389,0,0,1-.825,3.676c-.283,1.01-.574,2-.885,3-.476,1.547-.973,3.081-1.545,4.608-.311.825-.642,1.662-1.02,2.477a.97.97,0,0,1-.206-.582s-.068.1-.193.263c.338-.807.642-1.635.933-2.45.524-1.479.99-2.976,1.439-4.483.3-1.038.592-2.089.883-3.129a14.986,14.986,0,0,1,1.091-3.47A.176.176,0,0,1,463.3,136.467Z" transform="translate(770.055 5669.981)" fill="#c1b1b3"/>
            <path id="Trazado_22078" data-name="Trazado 22078" d="M463.427,140.76c-.351,1.214-.73,2.429-1.158,3.615-.494,1.359-1.038,2.7-1.642,4.024a1.814,1.814,0,0,1-.331.115,5.45,5.45,0,0,1-.622,1.176c.77-1.788,1.487-3.615,2.149-5.443.419-1.146.767-2.322,1.078-3.508a21.674,21.674,0,0,0,.486-2.236,14.027,14.027,0,0,1,.341-1.993.146.146,0,0,1,.281,0C464.408,137.8,463.776,139.514,463.427,140.76Z" transform="translate(771.638 5670.151)" fill="#c1b1b3"/>
            <path id="Trazado_22079" data-name="Trazado 22079" d="M421.109,158.46a9.277,9.277,0,0,0,5.007,1.281,7.851,7.851,0,0,0,4.709-1.853.33.33,0,0,0-.318-.547,16.266,16.266,0,0,1-4.39,1.289,8.627,8.627,0,0,1-4.538-.97c-.529-.266-1,.509-.469.8Z" transform="translate(713.162 5701.681)" fill="#c1b1b3"/>
            <path id="Trazado_22080" data-name="Trazado 22080" d="M441.387,157.9a11.615,11.615,0,0,0,6.26,3.006c2.179.276,4.806-.346,5.982-2.374a.3.3,0,0,0-.406-.406,10.925,10.925,0,0,1-2.756,1.4,6.9,6.9,0,0,1-2.9.17,14.036,14.036,0,0,1-5.629-2.51c-.429-.291-.933.369-.554.717Z" transform="translate(743.874 5701.358)" fill="#c1b1b3"/>
            <path id="Trazado_22081" data-name="Trazado 22081" d="M425.669,193.479a3.8,3.8,0,0,0,2.279-1.717,5.514,5.514,0,0,0,.619-1.334,6.462,6.462,0,0,0,.17-.657,3.139,3.139,0,0,0,.01-.8.4.4,0,0,0-.737-.2c-.1.193-.226.379-.313.577s-.16.436-.246.652c-.04.1.01-.022-.015.038l-.07.155c-.033.073-.063.148-.093.223-.053.135.028-.058-.025.063a6.1,6.1,0,0,1-.288.572,5.242,5.242,0,0,1-.328.5c-.013.015-.1.138-.065.09s-.048.058-.055.068c-.068.08-.14.158-.216.233s-.14.133-.216.193c-.03.025-.028.023.008,0l-.065.048c-.035.025-.073.05-.108.073a2.212,2.212,0,0,1-.512.256.515.515,0,0,0-.351.617.509.509,0,0,0,.617.348Z" transform="translate(719.426 5748.791)" fill="#c1b1b3"/>
            <path id="Trazado_22082" data-name="Trazado 22082" d="M458.975,190.979a4.924,4.924,0,0,0,1.1-3.124,14.161,14.161,0,0,0-.088-1.63,9.367,9.367,0,0,0-.316-1.727.283.283,0,0,0-.542,0,7.23,7.23,0,0,0-.208,1.577c-.03.511-.025,1.025-.06,1.537a5.806,5.806,0,0,1-.725,2.725c-.311.5.446,1.116.835.642Z" transform="translate(769.215 5742.335)" fill="#c1b1b3"/>
            <path id="Trazado_22083" data-name="Trazado 22083" d="M430.983,66.7a1.841,1.841,0,0,0,.506,2.49c.75.343,1.74-.218,2.211-1.251a1.843,1.843,0,0,0-.506-2.492C432.445,65.107,431.454,65.669,430.983,66.7Z" transform="translate(728.023 5563.054)" fill="#28121e"/>
            <path id="Trazado_22084" data-name="Trazado 22084" d="M436.61,68.85a1.843,1.843,0,0,0,.506,2.492c.75.341,1.74-.218,2.211-1.254a1.841,1.841,0,0,0-.507-2.49C438.072,67.255,437.081,67.817,436.61,68.85Z" transform="translate(736.503 5566.292)" fill="#28121e"/>
            <path id="Trazado_22085" data-name="Trazado 22085" d="M444.362,71.233c-.03-.043-3.274-4.32-8.2-3.761l-.241-2.111c6.165-.71,10,4.39,10.154,4.611Z" transform="translate(735.832 5562.969)" fill="#ff7454"/>
            <path id="Trazado_22086" data-name="Trazado 22086" d="M435.053,81.754a3,3,0,0,1-1.7-2.066c-.113-1.118.732-1.9,2.011-3.094.484-.449,1.051-.975,1.675-1.617a6.255,6.255,0,0,0,.557-.669,5.385,5.385,0,0,0,.807-4.623,6.178,6.178,0,0,0-3.465-4.024,8,8,0,0,0-4.262-.687l-.241-2.111a10.162,10.162,0,0,1,5.373.857,8.3,8.3,0,0,1,4.646,5.408,7.582,7.582,0,0,1-1.131,6.419,7.947,7.947,0,0,1-.76.91c-.652.672-1.246,1.226-1.752,1.695a9.981,9.981,0,0,0-1.319,1.356c.09-.005.243.173.667.434Z" transform="translate(727.57 5559.205)" fill="#ff7454"/>
            <path id="Trazado_22087" data-name="Trazado 22087" d="M434.064,75.928a6.158,6.158,0,0,1-3.573-3.442l1.943-.86a4.05,4.05,0,0,0,4.445,2.517l.394,2.089A6.3,6.3,0,0,1,434.064,75.928Z" transform="translate(727.652 5572.514)" fill="#ff7454"/>
          </g>
        </g>
      </g>
    </g>
  </g>
</svg>
