<svg xmlns="http://www.w3.org/2000/svg" xmlns:xlink="http://www.w3.org/1999/xlink" width="400" height="344.521" viewBox="0 0 400 344.521">
  <defs>
    <clipPath id="clip-path">
      <rect id="Rectángulo_374632" data-name="Rectángulo 374632" width="141.333" height="340.649" fill="none"/>
    </clipPath>
  </defs>
  <g id="Grupo_1079169" data-name="Grupo 1079169" transform="translate(-180 -4166.94)">
    <g id="Grupo_1078879" data-name="Grupo 1078879" transform="translate(313.667 4166.94)">
      <path id="Trazado_842307" data-name="Trazado 842307" d="M12,0H388a12,12,0,0,1,12,12V274a12,12,0,0,1-12,12H12A12,12,0,0,1,0,274V12A12,12,0,0,1,12,0Z" transform="translate(-133.667 58.521)" fill="#b8acd5"/>
      <path id="Trazado_841537" data-name="Trazado 841537" d="M142.666,7.766,1.333,61.521.667,344.2,142,260.854Z" fill="#673ab7"/>
      <g id="Grupo_1078878" data-name="Grupo 1078878" transform="translate(0 0)">
        <g id="Grupo_1078877" data-name="Grupo 1078877" clip-path="url(#clip-path)">
          <path id="Trazado_841538" data-name="Trazado 841538" d="M132.254,111.368s2.22-2.694,2.22-4.2,10.158,3.009,12.152,8.728.6,26.8.6,26.8-6.737,1.8-10.951-1.214-4.025-30.112-4.025-30.112" transform="translate(-42.389 -34.255)" fill="#191717"/>
          <path id="Trazado_841539" data-name="Trazado 841539" d="M131.279,129.563l10.99,12.868s1.173,12.641,4.2,17.457,3.628,2.471,4.229,14.177,1.505,29.944,2.709,32.111c.12.217.279.514.463.867-2.044,2.155-4.485,4-6.685,5.926-.12.106-.243.21-.364.315-.227-1.552-.446-3.128-.636-3.811a20.122,20.122,0,0,1-.378-3.985s-14.673-41.951-16.817-49.513,2.291-26.412,2.291-26.412" transform="translate(-41.155 -41.527)" fill="#e0754b"/>
          <path id="Trazado_841540" data-name="Trazado 841540" d="M159.353,240.336s4.7,1.723,6.221,5.984-1.469,9.269-1.469,9.269-4.1,2.814-9.957-1.272c-1.025-.715-.05-8.863-.049-11.246,0-3.735,5.254-2.735,5.254-2.735" transform="translate(-49.256 -76.992)" fill="#e0754b"/>
          <path id="Trazado_841541" data-name="Trazado 841541" d="M164.954,261.255l1.322-1.079-.764,7.78-2.363,3.923-4.294,3.009s-1.182-1.877.228-2.943,2.53-1.992,2.53-1.992l1.127-2.593-.728-5.464Z" transform="translate(-50.767 -83.39)" fill="#e0754b"/>
          <path id="Trazado_841542" data-name="Trazado 841542" d="M160.558,259.168l.359,7.3-2.708,4.172-4.774,3.109s-1.214-2.081.357-3.187,2.82-2.07,2.82-2.07l1.318-2.774-.59-5.96Z" transform="translate(-49.035 -83.067)" fill="#e0754b"/>
          <path id="Trazado_841543" data-name="Trazado 841543" d="M156.814,259.344l.76,5.984-1.965,3.606-3.73,2.863s-1.133-1.635.09-2.646,2.19-1.883,2.19-1.883l.908-2.367-.864-4.869Z" transform="translate(-48.526 -83.123)" fill="#e0754b"/>
          <path id="Trazado_841544" data-name="Trazado 841544" d="M155.067,260.129c.014.171.349,4.2.349,4.2l-1.481,2.458-2.691,1.886s-.741-1.175.143-1.844,1.587-1.25,1.587-1.25l.707-1.624-.9-5.116Z" transform="translate(-48.383 -82.962)" fill="#e0754b"/>
          <path id="Trazado_841545" data-name="Trazado 841545" d="M171.453,263.317s-.171-6.289-.054-8.047-1.805-6.924-4.147-8.955-6.349-.993-5.753,3.813c.372,3,6.549,7.293,6.549,7.293l-.263,3.135s.1,3.23,2.309,4.188,1.359-1.427,1.359-1.427" transform="translate(-51.743 -78.632)" fill="#e0754b"/>
          <path id="Trazado_841546" data-name="Trazado 841546" d="M122.263,419.625s13.845,12.706,17.156,14.663,9.272,4.317,11.379,8.379-3.553,4.863-11.53,4.863-17.612-7.6-21.676-8.8-3.446-.848-7.067-2.939,1.2-17.759,1.2-17.759Z" transform="translate(-34.993 -133.986)" fill="#94e4c1"/>
          <path id="Trazado_841547" data-name="Trazado 841547" d="M122.436,416.967s13.845,12.706,17.156,14.663,8.879,5.117,10.985,9.18-3.16,4.063-11.136,4.063-17.155-9.33-21.219-10.534-3.446-.847-7.067-2.938.747-16.025.747-16.025Z" transform="translate(-35.166 -133.134)" fill="#004951"/>
          <path id="Trazado_841548" data-name="Trazado 841548" d="M130.071,213.858s12.34,37.12,3.611,61.517S122.5,356.6,122.5,356.6s-.552,2.784-9.28,1.392-10.534-6.728-10.534-6.728-2.408-28.592,0-37.635,4.438-15.65,4.438-15.65L105.09,223.4Z" transform="translate(-32.568 -68.545)" fill="#0088a0"/>
          <path id="Trazado_841549" data-name="Trazado 841549" d="M79.256,443.664s5.117,11.889,8.277,15.651,17.307,9.933,12.34,16.554c-2.948,3.93-14.9,1.805-19.263-1.956s-10.368-10.9-12.625-12.231a7.786,7.786,0,0,1-3.778-7.031c0-3.311,2.407-11.589,2.407-11.589Z" transform="translate(-20.579 -142.007)" fill="#94e4c1"/>
          <path id="Trazado_841550" data-name="Trazado 841550" d="M79.256,440.342s5.117,11.889,8.277,15.651,16.1,13.393,12.34,16.554-14.9,1.805-19.263-1.957-8.578-11.932-10.835-13.264-5.568-2.687-5.568-6,2.407-11.589,2.407-11.589Z" transform="translate(-20.579 -140.943)" fill="#004951"/>
          <path id="Trazado_841551" data-name="Trazado 841551" d="M102.5,230.557s-3.162,50.131-9.708,71.228S79.022,359.741,81.129,369s-.373,9.261-.373,9.261-13.171,2.408-16.482-1.806-5.657-5.568-5.657-5.568-3.853-31.908,0-44.321,7.162-26.735,5.657-31.011-1.434-51.647.071-55.975,38.153-9.023,38.153-9.023" transform="translate(-18.239 -73.897)" fill="#0c99aa"/>
          <path id="Trazado_841552" data-name="Trazado 841552" d="M100.006,105.975s10.083-.15,11.136.9,13.092,27.54,12.942,32.656-2.558,23.433-2.558,25.336-.259,33.826-.259,33.826-8.019,15.117-35.407,16.685c-11.8.676-22.121-13.243-22.121-13.243s6.114-18.081,5.813-27.184-8.673-29.7-10.027-38.278,18.059-23.928,24.831-27.239,15.651-3.461,15.651-3.461" transform="translate(-19.057 -33.964)" fill="#0c0b0b"/>
          <path id="Trazado_841553" data-name="Trazado 841553" d="M111.447,100.578s-1.2,4.364,0,7.825,1.806,6.321,1.2,9.181-9.631,4.966-16.554.752-8.354-9.252-7.115-10.083,3.2-3.16,3.2-5.117-.752-9.782-.752-9.782Z" transform="translate(-28.392 -29.921)" fill="#e0754b"/>
          <path id="Trazado_841554" data-name="Trazado 841554" d="M109.885,60.144s-1.558,4.267-7.836,6.208-4.4,9.819-7,10.27S87.376,74.1,87.376,74.1l3.838,6.581s-2.257,2.483-3.838,1.354-5.3-9.367-5.3-9.367-8.916-16.027,4.741-23.7,24.154,4.4,27.765,5.643,3.16,3.95,2.032,5.53-6.724,0-6.724,0" transform="translate(-25.389 -14.883)" fill="#611f07"/>
          <path id="Trazado_841555" data-name="Trazado 841555" d="M115.138,66.294s1.9,3.055,1.452,4.748.451,2.483.677,3.273a41.967,41.967,0,0,1,.226,5.869V91.809c0,.991-1.467,3.047-3.95,3.161s-12.3.211-15.8-2.491a12.005,12.005,0,0,1-4.289-6.2s-.564,1.241-3.048,0-3.611-3.5-4.176-8.239,6.433.564,6.433.564,5.644,4.332,5.644,1.094,1.513-13.7,2.036-14.3c3.381-3.866,14.8.895,14.8.895" transform="translate(-27.627 -20.476)" fill="#ee8d5c"/>
          <path id="Trazado_841556" data-name="Trazado 841556" d="M69.7,153.887s1.167,18.059-.752,25.621A143.425,143.425,0,0,1,63.87,194.97s2.483,15.237,1.58,21.557,3.837,22.009,3.837,22.009,6.641,3.819,6.715,3.875,4.854,6.509,4.854,6.509v6.546c0,1.129-2.032,1.524-2.483,0a36.759,36.759,0,0,1-.79-4.684s-5.361-3.555-5.53-3.555-2.032,8.8-1.862,9.537,1.806,3.33,1.862,4.063,3.5,2.756,4.8,3.41,3.387-.193,3.725,1.557-3.611,1.75-4.289,1.75-5.531-2.6-5.812-2.54-3.612-.113-3.951-1.3-.908-.856-.908-.856a2.039,2.039,0,0,1-1.744-.724A4.232,4.232,0,0,0,62.757,261s-1.2.566-1.992-1.466-2.144-9.876-2.37-10.892,1.354-7.111,1.354-7.111-9.029-37.415-9.988-40.068,1.523-10.1.79-21.163.222-30.756,5.726-33.859,12.6,2.935,13.423,7.449" transform="translate(-15.878 -46.662)" fill="#ee8d5c"/>
          <path id="Trazado_841557" data-name="Trazado 841557" d="M63.918,145.283s8.492,1.981,8.267,10.559-2.37,29.12-2.935,29.571-4.853,7.562-11.513,5.418-12.189-7.9-12.189-7.9S48.6,150.875,51.3,147.376s11.124-2.954,12.614-2.094" transform="translate(-14.599 -46.359)" fill="#191717"/>
        </g>
      </g>
    </g>
  </g>
</svg>
