<svg xmlns="http://www.w3.org/2000/svg" width="259.509" height="95.335" viewBox="0 0 259.509 95.335">
  <g id="Grupo_1078512" data-name="Grupo 1078512" transform="translate(-810 -756.107)">
    <path id="Trazado_841134" data-name="Trazado 841134" d="M7.453,0h244.6a7.453,7.453,0,0,1,7.453,7.453V87.882a7.453,7.453,0,0,1-7.453,7.453H7.453A7.453,7.453,0,0,1,0,87.882V7.453A7.453,7.453,0,0,1,7.453,0Z" transform="translate(810 756.107)" fill="#f8f3ff"/>
    <path id="Trazado_841135" data-name="Trazado 841135" d="M9.545,0H7.383V-16.334a5,5,0,0,1-.732.573,11.927,11.927,0,0,1-1.081.639q-.6.316-1.266.593a9.2,9.2,0,0,1-1.3.435v-2.188a12.569,12.569,0,0,0,1.51-.534q.8-.336,1.569-.751t1.457-.87a11.566,11.566,0,0,0,1.187-.89h.817Z" transform="translate(868.766 835.051)" fill="#ba68c8"/>
    <path id="Trazado_841136" data-name="Trazado 841136" d="M10.125-.551A6.245,6.245,0,0,1,6.844.281,5.433,5.433,0,0,1,2.7-1.389a6.052,6.052,0,0,1-1.576-4.33,6.653,6.653,0,0,1,1.7-4.764,5.944,5.944,0,0,1,4.535-1.8,6.313,6.313,0,0,1,2.789.586v1.969a4.887,4.887,0,0,0-2.859-.937A3.864,3.864,0,0,0,4.271-9.346,5,5,0,0,0,3.094-5.883,4.763,4.763,0,0,0,4.2-2.555,3.817,3.817,0,0,0,7.172-1.336a4.817,4.817,0,0,0,2.953-1.043ZM30.07,0H28.148V-6.891a5.2,5.2,0,0,0-.615-2.883,2.333,2.333,0,0,0-2.068-.891,2.561,2.561,0,0,0-2.092,1.125,4.3,4.3,0,0,0-.861,2.7V0H20.59V-7.125q0-3.539-2.73-3.539A2.529,2.529,0,0,0,15.773-9.6a4.384,4.384,0,0,0-.82,2.76V0H13.031V-12h1.922v1.9H15a4.077,4.077,0,0,1,3.727-2.18,3.475,3.475,0,0,1,2.145.686,3.449,3.449,0,0,1,1.254,1.8,4.282,4.282,0,0,1,3.984-2.484q3.961,0,3.961,4.887Z" transform="translate(825.302 819.051)" fill="#ba68c8"/>
    <path id="Trazado_841137" data-name="Trazado 841137" d="M10.178-13.948a3.909,3.909,0,0,0-.27-1.516,3,3,0,0,0-.738-1.074,3.025,3.025,0,0,0-1.1-.639A4.311,4.311,0,0,0,6.7-17.389a4.535,4.535,0,0,0-1.239.171,6.025,6.025,0,0,0-1.18.475,7.258,7.258,0,0,0-1.107.725,8,8,0,0,0-1,.936V-17.4a6.464,6.464,0,0,1,2.037-1.351,7.172,7.172,0,0,1,2.749-.468,6.636,6.636,0,0,1,2.149.336,4.927,4.927,0,0,1,1.714.982,4.54,4.54,0,0,1,1.14,1.6,5.38,5.38,0,0,1,.415,2.175,7.459,7.459,0,0,1-.257,2.03,6.279,6.279,0,0,1-.778,1.714,8.27,8.27,0,0,1-1.312,1.542,18.581,18.581,0,0,1-1.859,1.5q-1.332.949-2.2,1.622A9.7,9.7,0,0,0,4.608-4.463,3.654,3.654,0,0,0,3.9-3.289a4.1,4.1,0,0,0-.2,1.351H13.1V0H1.437V-.936A7.8,7.8,0,0,1,1.7-3.072a5.546,5.546,0,0,1,.87-1.753A9.731,9.731,0,0,1,4.159-6.486q.982-.831,2.406-1.872a15.211,15.211,0,0,0,1.72-1.411A7.334,7.334,0,0,0,9.4-11.114a4.829,4.829,0,0,0,.6-1.365A5.883,5.883,0,0,0,10.178-13.948Z" transform="translate(905.502 835.05)" fill="#ba68c8"/>
    <path id="Trazado_841138" data-name="Trazado 841138" d="M12.564-5.353a5.511,5.511,0,0,1-.481,2.327,5.138,5.138,0,0,1-1.358,1.793,6.267,6.267,0,0,1-2.1,1.154,8.506,8.506,0,0,1-2.7.409A7.854,7.854,0,0,1,1.622-.7v-2.32A6.887,6.887,0,0,0,6-1.516a5.948,5.948,0,0,0,1.786-.25,4.005,4.005,0,0,0,1.371-.725,3.221,3.221,0,0,0,.883-1.147,3.582,3.582,0,0,0,.31-1.516q0-3.7-5.273-3.7H3.507v-1.833H5q4.667,0,4.667-3.48,0-3.217-3.56-3.217a6.061,6.061,0,0,0-3.757,1.345v-2.1a8.214,8.214,0,0,1,4.3-1.081,6.6,6.6,0,0,1,2.149.33,4.924,4.924,0,0,1,1.648.923A4.09,4.09,0,0,1,11.5-16.545a4.395,4.395,0,0,1,.376,1.833,4.615,4.615,0,0,1-3.771,4.8v.053a5.964,5.964,0,0,1,1.78.468,4.749,4.749,0,0,1,1.411.943,4.2,4.2,0,0,1,.929,1.365A4.356,4.356,0,0,1,12.564-5.353Z" transform="translate(945.379 835.05)" fill="#ba68c8"/>
    <path id="Trazado_841139" data-name="Trazado 841139" d="M11.206-18.905V-6.42h2.426v1.978H11.206V0H9.07V-4.443H.185V-6.315q1.239-1.4,2.5-2.986t2.419-3.223q1.154-1.635,2.136-3.263A29.82,29.82,0,0,0,8.9-18.905ZM2.624-6.42H9.07v-9.255Q8.082-13.948,7.2-12.59T5.517-10.125q-.8,1.107-1.523,2T2.624-6.42Z" transform="translate(985.073 835.05)" fill="#ba68c8"/>
    <path id="Trazado_841140" data-name="Trazado 841140" d="M12.775-5.774a6.363,6.363,0,0,1-.475,2.5,5.477,5.477,0,0,1-1.351,1.925A6.051,6.051,0,0,1,8.833-.105,8.275,8.275,0,0,1,6.078.33,7.612,7.612,0,0,1,2.162-.461V-2.755A7.2,7.2,0,0,0,6.1-1.516a5.335,5.335,0,0,0,1.852-.3,4.116,4.116,0,0,0,1.4-.844,3.613,3.613,0,0,0,.89-1.305,4.418,4.418,0,0,0,.31-1.674A3.587,3.587,0,0,0,9.321-8.536a5.435,5.435,0,0,0-3.6-1.048q-.382,0-.8.013t-.844.033q-.422.02-.824.046t-.732.066l.646-9.479H11.9v1.951H5.036L4.654-11.4q.422-.026.9-.046t.844-.02a8.485,8.485,0,0,1,2.689.4,5.7,5.7,0,0,1,2.01,1.127,4.726,4.726,0,0,1,1.252,1.793A6.306,6.306,0,0,1,12.775-5.774Z" transform="translate(1024.284 835.05)" fill="#ba68c8"/>
    <path id="Trazado_841141" data-name="Trazado 841141" d="M0,0H1.424V18.882H0Z" transform="translate(850.027 772.852)" fill="#7b1fa2"/>
    <path id="Trazado_841142" data-name="Trazado 841142" d="M0,0H1.424V18.882H0Z" transform="translate(853.962 772.852)" fill="#7b1fa2"/>
    <path id="Trazado_841143" data-name="Trazado 841143" d="M0,0H1.424V18.882H0Z" transform="translate(857.896 772.852)" fill="#7b1fa2"/>
    <path id="Trazado_841144" data-name="Trazado 841144" d="M0,0H1.424V18.882H0Z" transform="translate(861.83 772.852)" fill="#7b1fa2"/>
    <path id="Trazado_841145" data-name="Trazado 841145" d="M0,0H1.424V26.466H0Z" transform="translate(865.765 772.852)" fill="#7b1fa2"/>
    <path id="Trazado_841146" data-name="Trazado 841146" d="M0,0H1.424V18.882H0Z" transform="translate(869.699 772.852)" fill="#7b1fa2"/>
    <path id="Trazado_841147" data-name="Trazado 841147" d="M0,0H1.424V18.882H0Z" transform="translate(873.634 772.852)" fill="#7b1fa2"/>
    <path id="Trazado_841148" data-name="Trazado 841148" d="M0,0H1.424V18.882H0Z" transform="translate(877.568 772.852)" fill="#7b1fa2"/>
    <path id="Trazado_841149" data-name="Trazado 841149" d="M0,0H1.424V18.882H0Z" transform="translate(881.502 772.852)" fill="#7b1fa2"/>
    <path id="Trazado_841150" data-name="Trazado 841150" d="M0,0H1.424V61.848H0Z" transform="translate(885.437 772.852)" fill="#7b1fa2"/>
    <path id="Trazado_841151" data-name="Trazado 841151" d="M0,0H1.424V18.882H0Z" transform="translate(889.371 772.852)" fill="#7b1fa2"/>
    <path id="Trazado_841152" data-name="Trazado 841152" d="M0,0H1.424V18.882H0Z" transform="translate(893.305 772.852)" fill="#7b1fa2"/>
    <path id="Trazado_841153" data-name="Trazado 841153" d="M0,0H1.424V18.882H0Z" transform="translate(897.24 772.852)" fill="#7b1fa2"/>
    <path id="Trazado_841154" data-name="Trazado 841154" d="M0,0H1.424V18.882H0Z" transform="translate(901.174 772.852)" fill="#7b1fa2"/>
    <path id="Trazado_841155" data-name="Trazado 841155" d="M0,0H1.424V26.466H0Z" transform="translate(905.108 772.852)" fill="#7b1fa2"/>
    <path id="Trazado_841156" data-name="Trazado 841156" d="M0,0H1.424V18.882H0Z" transform="translate(909.043 772.852)" fill="#7b1fa2"/>
    <path id="Trazado_841157" data-name="Trazado 841157" d="M0,0H1.424V18.882H0Z" transform="translate(912.977 772.852)" fill="#7b1fa2"/>
    <path id="Trazado_841158" data-name="Trazado 841158" d="M0,0H1.424V18.882H0Z" transform="translate(916.911 772.852)" fill="#7b1fa2"/>
    <path id="Trazado_841159" data-name="Trazado 841159" d="M0,0H1.424V18.882H0Z" transform="translate(920.846 772.852)" fill="#7b1fa2"/>
    <path id="Trazado_841160" data-name="Trazado 841160" d="M0,0H1.424V61.848H0Z" transform="translate(924.78 772.852)" fill="#7b1fa2"/>
    <path id="Trazado_841161" data-name="Trazado 841161" d="M0,0H1.424V18.882H0Z" transform="translate(928.715 772.852)" fill="#7b1fa2"/>
    <path id="Trazado_841162" data-name="Trazado 841162" d="M0,0H1.424V18.882H0Z" transform="translate(932.649 772.852)" fill="#7b1fa2"/>
    <path id="Trazado_841163" data-name="Trazado 841163" d="M0,0H1.424V18.882H0Z" transform="translate(936.583 772.852)" fill="#7b1fa2"/>
    <path id="Trazado_841164" data-name="Trazado 841164" d="M0,0H1.424V18.882H0Z" transform="translate(940.518 772.852)" fill="#7b1fa2"/>
    <path id="Trazado_841165" data-name="Trazado 841165" d="M0,0H1.424V26.466H0Z" transform="translate(944.451 772.852)" fill="#7b1fa2"/>
    <path id="Trazado_841166" data-name="Trazado 841166" d="M0,0H1.424V18.882H0Z" transform="translate(948.386 772.852)" fill="#7b1fa2"/>
    <path id="Trazado_841167" data-name="Trazado 841167" d="M0,0H1.424V18.882H0Z" transform="translate(952.32 772.852)" fill="#7b1fa2"/>
    <path id="Trazado_841168" data-name="Trazado 841168" d="M0,0H1.424V18.882H0Z" transform="translate(956.255 772.852)" fill="#7b1fa2"/>
    <path id="Trazado_841169" data-name="Trazado 841169" d="M0,0H1.424V18.882H0Z" transform="translate(960.189 772.852)" fill="#7b1fa2"/>
    <path id="Trazado_841170" data-name="Trazado 841170" d="M0,0H1.424V61.848H0Z" transform="translate(964.124 772.852)" fill="#7b1fa2"/>
    <path id="Trazado_841171" data-name="Trazado 841171" d="M0,0H1.424V18.882H0Z" transform="translate(968.058 772.852)" fill="#7b1fa2"/>
    <path id="Trazado_841172" data-name="Trazado 841172" d="M0,0H1.424V18.882H0Z" transform="translate(971.992 772.852)" fill="#7b1fa2"/>
    <path id="Trazado_841173" data-name="Trazado 841173" d="M0,0H1.424V18.882H0Z" transform="translate(975.927 772.852)" fill="#7b1fa2"/>
    <path id="Trazado_841174" data-name="Trazado 841174" d="M0,0H1.424V18.882H0Z" transform="translate(979.861 772.852)" fill="#7b1fa2"/>
    <path id="Trazado_841175" data-name="Trazado 841175" d="M0,0H1.424V26.466H0Z" transform="translate(983.796 772.852)" fill="#7b1fa2"/>
    <path id="Trazado_841176" data-name="Trazado 841176" d="M0,0H1.424V18.882H0Z" transform="translate(987.73 772.852)" fill="#7b1fa2"/>
    <path id="Trazado_841177" data-name="Trazado 841177" d="M0,0H1.424V18.882H0Z" transform="translate(991.664 772.852)" fill="#7b1fa2"/>
    <path id="Trazado_841178" data-name="Trazado 841178" d="M0,0H1.424V18.882H0Z" transform="translate(995.599 772.852)" fill="#7b1fa2"/>
    <path id="Trazado_841179" data-name="Trazado 841179" d="M0,0H1.424V18.882H0Z" transform="translate(999.532 772.852)" fill="#7b1fa2"/>
    <path id="Trazado_841180" data-name="Trazado 841180" d="M0,0H1.424V61.848H0Z" transform="translate(1003.467 772.852)" fill="#7b1fa2"/>
    <path id="Trazado_841181" data-name="Trazado 841181" d="M0,0H1.424V18.882H0Z" transform="translate(1007.402 772.852)" fill="#7b1fa2"/>
    <path id="Trazado_841182" data-name="Trazado 841182" d="M0,0H1.424V18.882H0Z" transform="translate(1011.336 772.852)" fill="#7b1fa2"/>
    <path id="Trazado_841183" data-name="Trazado 841183" d="M0,0H1.424V18.882H0Z" transform="translate(1015.271 772.852)" fill="#7b1fa2"/>
    <path id="Trazado_841184" data-name="Trazado 841184" d="M0,0H1.424V18.882H0Z" transform="translate(1019.205 772.852)" fill="#7b1fa2"/>
    <path id="Trazado_841185" data-name="Trazado 841185" d="M0,0H1.424V26.466H0Z" transform="translate(1023.139 772.852)" fill="#7b1fa2"/>
    <path id="Trazado_841186" data-name="Trazado 841186" d="M0,0H1.424V18.882H0Z" transform="translate(1027.073 772.852)" fill="#7b1fa2"/>
    <path id="Trazado_841187" data-name="Trazado 841187" d="M0,0H1.424V18.882H0Z" transform="translate(1031.008 772.852)" fill="#7b1fa2"/>
    <path id="Trazado_841188" data-name="Trazado 841188" d="M0,0H1.424V18.882H0Z" transform="translate(1034.942 772.852)" fill="#7b1fa2"/>
    <path id="Trazado_841189" data-name="Trazado 841189" d="M0,0H1.424V18.882H0Z" transform="translate(1038.877 772.852)" fill="#7b1fa2"/>
    <path id="Trazado_841190" data-name="Trazado 841190" d="M0,0H1.424V61.848H0Z" transform="translate(1042.812 772.852)" fill="#7b1fa2"/>
    <path id="Trazado_841191" data-name="Trazado 841191" d="M0,0H194.208V1.57H0Z" transform="translate(850.027 772.066)" fill="#7b1fa2"/>
  </g>
</svg>
