<svg xmlns="http://www.w3.org/2000/svg" xmlns:xlink="http://www.w3.org/1999/xlink" width="391.479" height="523.333" viewBox="0 0 391.479 523.333">
  <defs>
    <clipPath id="clip-path">
      <rect id="Rectángulo_374786" data-name="Rectángulo 374786" width="391.479" height="523.333" fill="none"/>
    </clipPath>
    <clipPath id="clip-path-3">
      <rect id="Rectángulo_374762" data-name="Rectángulo 374762" width="252.889" height="17.348" transform="translate(62.315 202.318)" fill="none"/>
    </clipPath>
  </defs>
  <g id="Grupo_1079169" data-name="Grupo 1079169" transform="translate(-604 -3377.247)">
    <g id="Grupo_1079166" data-name="Grupo 1079166" transform="translate(604 3377.247)" clip-path="url(#clip-path)">
      <path id="Trazado_842250" data-name="Trazado 842250" d="M110.315,48.111l-48-36.889H315.2L264.982,48.111Z" fill="#e8dffc"/>
      <path id="Trazado_842251" data-name="Trazado 842251" d="M110.315,457.889l-48,55.556H315.2l-50.222-55.556Z" fill="#e8dffc"/>
      <path id="Trazado_842306" data-name="Trazado 842306" d="M0,0H192.889V444H0Z" transform="translate(91.649 34.333)" fill="#e8dffc"/>
      <path id="Trazado_842252" data-name="Trazado 842252" d="M265.31,49.11H109.975l-50.6-38.889H318.255Zm-154.655-2h154l47.5-34.889H65.258Z" fill="#161615"/>
      <path id="Trazado_842253" data-name="Trazado 842253" d="M317.456,514.444H60.13l49.728-57.556H265.427Zm-252.955-2H312.952l-48.414-53.556H110.773Z" fill="#161615"/>
      <rect id="Rectángulo_374760" data-name="Rectángulo 374760" width="131.334" height="2" transform="translate(190.093 23.11)" fill="#161615"/>
      <path id="Trazado_842254" data-name="Trazado 842254" d="M322.315,490.889H182.853l-9.163-7.33L174.94,482l8.614,6.893H322.315Z" fill="#803986"/>
      <rect id="Rectángulo_374761" data-name="Rectángulo 374761" width="36.706" height="2" transform="matrix(0.727, -0.687, 0.687, 0.727, 47.405, 502.827)" fill="#803986"/>
      <path id="Trazado_842255" data-name="Trazado 842255" d="M285.538,479.333H90.649v-446H285.538Zm-192.889-2H283.538v-442H92.649Z" fill="#161615"/>
      <g id="Grupo_1079151" data-name="Grupo 1079151">
        <g id="Grupo_1079150" data-name="Grupo 1079150" clip-path="url(#clip-path)">
          <path id="Trazado_842256" data-name="Trazado 842256" d="M292.351,287.29c-1.535-1.165-3.75-4.078-5.621-9.027s-9.879-7.283-12.092-11.068-3.918-15.438-4.087-27.963-3.068-26.934-5.623-33.2-5.11-13.1-4.257-20.967.509-15.727-.682-19.8-1.7-3.785.168-12.085-1.871-17.477-7.661-26.213-18.226-8.886-21.457-10.923-9.541-3.2-15.5-6.116-9.879-3.785-9.879-5.825-.171-7.425,2.216-11.793a20.3,20.3,0,0,0,2.38-8.74c2.557,1.165,2.727-.872,4.94-4.8s2.9-6.555,2.385-8.591a2.455,2.455,0,0,0-2.724-1.749s3.919-12.671-3.747-20.824c-6.122-6.51-15.384-7.73-18.869-7.957V39.59s-.256,0-.7.012c-.446-.014-.7-.012-.7-.012v.051c-3.489.227-12.751,1.447-18.871,7.957-7.665,8.153-3.749,20.824-3.749,20.824a2.458,2.458,0,0,0-2.726,1.749c-.51,2.036.172,4.658,2.387,8.591s2.384,5.968,4.941,4.8a20.281,20.281,0,0,0,2.382,8.74c2.385,4.368,2.214,9.757,2.214,11.793s-3.917,2.911-9.876,5.825-12.266,4.077-15.5,6.116-15.67,2.183-21.46,10.923-9.538,17.909-7.664,26.213,1.363,8.009.171,12.085-1.533,11.938-.683,19.8-1.7,14.707-4.257,20.967-5.45,20.68-5.622,33.2-1.874,24.176-4.088,27.963-10.22,6.112-12.091,11.068-4.088,7.862-5.622,9.027,3.238,3.347,5.449,0,3.747-5.1,5.113-4.51c1.361.576-.512,6.69-2.213,13.1s-3.409,10.628-.342,10.628,5.11-9.759,5.963-11.794.678,4.946-1.536,9.9-1.7,6.551,0,6.847,3.408-4.079,3.408-4.079,3.317,2.223,6.839-5.516c0,0,3.525,2.152,6.795-6.668s5.789-20.444,4.531-25.822,14.345-28.831,16.107-48.841,5.03-35.5,6.29-36.575,8.557,18.93,5.538,29.473a90.378,90.378,0,0,0-3.527,17.645c-.248,1.935-4.276,9.9-5.533,18.717s-5.788,18.288-1.765,48.842,10.572,40.664,11.329,46.9.752,22.59.5,25.82-1.511,7.744-1.763,11.187-6.292,15.5.5,39.372,8.3,37.651,8.3,40.237-1.51,3.013,0,6.459-4.019,10.721-8.138,13.664-5.673,5.233-6.227,6.76-.334,3.135,1.112,3.135a2.348,2.348,0,0,0,.447,2.564,2.286,2.286,0,0,0,2.447.859,1.886,1.886,0,0,0,1.669,1.906,3.736,3.736,0,0,0,2.559-.1,3.469,3.469,0,0,0,3,1.616,2.625,2.625,0,0,0,2.668-2.376c.223-.948.89-2.945,2-3.038s1.781.757,1.335,1.616-.668,1.422-1.335,2.756.89,3.142,5.117,2.471,2.447-4.087,5-6.463,3.671-4.282,3.563-7.7,4.337-2.76,3.672-8.753-2.115-7.7-.782-10.936-.89-7.039-1.112-8.555.107-15.885.863-19.978,3.526-18.073,3.021-23.672,3.271-9.895-.505-23.878,2.268-12.263,2.014-26.675,4.278-19.151,3.27-32.495,2.015-20.652,2.518-27.969c.353-5.129,1.45-6.979,2.071-7.625.86.6,2.119,2.275,2.443,6.979.5,7.319,2.767,15.274,1.762,28.615s2.013,18.078,1.762,32.495,5.787,12.691,2.013,26.675-1.511,18.292-2.013,23.878,3.773,19.587,4.532,23.672,1.082,18.449.86,19.978-2.448,5.321-1.114,8.555-.109,4.942-.776,10.936,3.781,5.325,3.67,8.753,1,5.325,3.562,7.7.778,5.8,5,6.463,5.783-1.142,5.118-2.471-.894-1.9-1.334-2.756.22-1.712,1.334-1.616,1.779,2.09,2,3.038a2.629,2.629,0,0,0,2.671,2.376,3.472,3.472,0,0,0,3-1.616,3.728,3.728,0,0,0,2.557.1A1.887,1.887,0,0,0,229.7,495.6a2.283,2.283,0,0,0,2.445-.859,2.351,2.351,0,0,0,.449-2.564c1.443,0,1.667-1.62,1.113-3.135s-2.117-3.808-6.232-6.76-9.647-10.226-8.136-13.664,0-3.875,0-6.459,1.51-16.352,8.305-40.237,2.264-35.929,2.014-39.372-1.513-7.959-1.762-11.187,1.254-19.583,2.012-25.82,7.3-16.352,11.324-46.9-3.524-40.021-4.782-48.842-2.263-16.782-2.514-18.717a90.846,90.846,0,0,0-3.522-17.645c-3.021-10.543,4.276-30.551,5.533-29.473s4.53,16.563,6.291,36.575S259.605,264,258.343,269.381s1.262,17,4.532,25.822,6.792,6.668,6.792,6.668c3.525,7.739,6.844,5.516,6.844,5.516s1.7,4.368,3.4,4.079,2.212-1.9,0-6.847-2.382-11.945-1.533-9.9,2.9,11.794,5.963,11.794,1.362-4.226-.34-10.628-3.577-12.528-2.218-13.1c1.364-.591,2.9,1.163,5.111,4.51s6.983,1.168,5.452,0" fill="#fff"/>
          <path id="Trazado_842257" data-name="Trazado 842257" d="M165.676,501.6c-1.888,0-3.332-.544-4.083-1.573a2.359,2.359,0,0,1-.226-2.492c.323-.645.541-1.11.732-1.516.2-.436.377-.807.609-1.252.011-.1-.124-.176-.361-.157a3.862,3.862,0,0,0-1.116,2.27,3.634,3.634,0,0,1-3.6,3.146,4.333,4.333,0,0,1-3.408-1.453,6.064,6.064,0,0,1-2.406-.082,2.954,2.954,0,0,1-2.268-1.8,3.423,3.423,0,0,1-2.409-1.3,3.52,3.52,0,0,1-.873-2.5,2.16,2.16,0,0,1-.713-.651,3.913,3.913,0,0,1-.143-3.53c.815-2.246,3.03-4.679,6.583-7.228,4.227-3.02,8.945-9.855,7.805-12.45a6.117,6.117,0,0,1-.41-4.978,6.1,6.1,0,0,0,.326-1.883c0-2.3-1.4-15.838-8.267-39.964-5.631-19.789-2.577-31.509-1.109-37.14a18.565,18.565,0,0,0,.571-2.577,54.32,54.32,0,0,1,.928-5.959,51.146,51.146,0,0,0,.835-5.235c.254-3.276.227-19.606-.5-25.62a40.669,40.669,0,0,0-2.146-7.4c-2.4-6.921-6.415-18.505-9.18-39.491-3.266-24.8-.938-35.793.761-43.823.393-1.857.765-3.612,1-5.291a71.977,71.977,0,0,1,4.371-15.306,25.259,25.259,0,0,0,1.16-3.4c.035-.259.068-.574.108-.952a91.358,91.358,0,0,1,3.451-16.842c2.452-8.564-2.337-23.722-4.334-27.538-1.307,3.744-4.009,17.634-5.538,35-1.042,11.84-6.914,24.984-11.2,34.582-2.764,6.187-5.375,12.031-4.927,13.944,1.327,5.672-1.293,17.574-4.567,26.4-1.535,4.139-3.378,6.606-5.48,7.335a3.691,3.691,0,0,1-1.715.185c-1.532,3.092-3.254,4.927-5.123,5.458a3.789,3.789,0,0,1-1.7.1c-.736,1.6-2.22,4.142-4.132,3.822a2.6,2.6,0,0,1-1.964-1.32c-.62-1.166-.4-2.959.711-5.73-.853,1.31-1.829,2.109-3.006,2.109a2.528,2.528,0,0,1-2.142-.935c-1.124-1.482-.361-4.208.8-8.332.231-.823.477-1.7.722-2.619.217-.816.436-1.63.652-2.428.955-3.535,2.249-8.32,1.979-9.527-.653.01-1.9,1.411-3.731,4.171A4.842,4.842,0,0,1,92.023,290a2.97,2.97,0,0,1-2.552-1.832,1.6,1.6,0,0,1,.647-1.671c1.385-1.052,3.5-3.858,5.293-8.586,1.159-3.07,4.222-5.087,7.183-7.036,2.12-1.395,4.122-2.713,4.98-4.183,2.122-3.628,3.784-15.182,3.952-27.471.172-12.514,3.09-27.166,5.7-33.565,2.667-6.537,4.994-13.021,4.188-20.482-.838-7.752-.549-15.867.718-20.192.143-.491.277-.918.4-1.307.833-2.67,1.006-3.226-.586-10.277-1.722-7.636.831-16.463,7.807-26.986,4.321-6.522,12.123-8.486,17.286-9.786a19.561,19.561,0,0,0,4.475-1.432,34.661,34.661,0,0,1,7.024-2.858,69.219,69.219,0,0,0,8.571-3.31c1.737-.848,3.277-1.515,4.635-2.1,2.512-1.088,4.681-2.026,4.681-2.822v-.392c.011-2.283.031-7.034-2.093-10.923a21.537,21.537,0,0,1-2.422-7.91c-1.888.22-2.762-1.487-3.729-3.408-.325-.645-.7-1.386-1.164-2.213-2.309-4.1-3.076-6.973-2.486-9.325a3.164,3.164,0,0,1,2.426-2.409c-.8-3.455-2.362-13.53,4.289-20.6,5.853-6.225,14.375-7.8,18.6-8.2v-.068l.992-.059s.267,0,.739.014c.4-.017.673-.014.674-.014l.991.009v.118c4.224.4,12.744,1.972,18.6,8.2,6.653,7.076,5.086,17.151,4.287,20.606a3.161,3.161,0,0,1,2.426,2.41c.589,2.351-.177,5.227-2.485,9.324-.464.825-.838,1.566-1.161,2.209-.968,1.923-1.824,3.63-3.732,3.412a21.542,21.542,0,0,1-2.42,7.909c-2.125,3.89-2.105,8.642-2.094,10.925v.391c0,.795,2.169,1.734,4.682,2.822,1.358.588,2.9,1.255,4.636,2.1a69.047,69.047,0,0,0,8.574,3.311,34.678,34.678,0,0,1,7.021,2.857,19.511,19.511,0,0,0,4.475,1.432c5.162,1.3,12.963,3.265,17.285,9.786,6.975,10.526,9.527,19.353,7.8,26.987-1.591,7.053-1.417,7.609-.582,10.28.121.387.255.813.4,1.3,1.266,4.331,1.554,12.445.717,20.192-.808,7.45,1.52,13.939,4.188,20.481,2.605,6.39,5.524,21.039,5.7,33.566.166,12.29,1.827,23.844,3.951,27.471.859,1.47,2.86,2.789,4.979,4.184,2.961,1.949,6.022,3.965,7.185,7.035,1.786,4.725,3.9,7.532,5.29,8.584l0,0a1.6,1.6,0,0,1,.646,1.671A2.966,2.966,0,0,1,291.055,290a4.839,4.839,0,0,1-4.99-2.155c-1.83-2.767-3.082-4.168-3.726-4.174-.273,1.208,1.03,6.02,1.991,9.573.213.784.429,1.582.643,2.386.246.927.493,1.809.724,2.638,1.152,4.115,1.912,6.833.789,8.313a2.524,2.524,0,0,1-2.139.934c-1.182,0-2.163-.806-3.017-2.126,1.12,2.781,1.339,4.579.717,5.747a2.6,2.6,0,0,1-1.96,1.319c-1.891.311-3.4-2.224-4.134-3.821a3.791,3.791,0,0,1-1.7-.1c-1.87-.531-3.592-2.366-5.125-5.458a3.666,3.666,0,0,1-1.715-.185c-2.1-.729-3.944-3.2-5.478-7.335-3.273-8.826-5.893-20.728-4.569-26.4.449-1.915-2.162-7.761-4.928-13.952-4.286-9.6-10.156-22.737-11.2-34.574-1.522-17.278-4.2-31.112-5.553-34.978-2,3.864-6.761,18.972-4.314,27.512a91.757,91.757,0,0,1,3.445,16.85c.04.375.073.687.106.942l.119.922c.385,2.993,1.286,10,2.394,17.784a44.745,44.745,0,0,0,1.812,6.908c2.54,8.052,6.019,19.08,2.972,42.205-2.765,20.982-6.779,32.565-9.177,39.486a40.639,40.639,0,0,0-2.146,7.409c-.825,6.785-2.244,22.588-2.007,25.621a50.2,50.2,0,0,0,.836,5.257,53.876,53.876,0,0,1,.925,5.936c.036.494.185,1.256.372,2.221,1,5.155,3.346,17.227-2.421,37.5-6.864,24.129-8.267,37.661-8.267,39.964a6.072,6.072,0,0,0,.327,1.883,6.112,6.112,0,0,1-.411,4.977c-1.14,2.6,3.578,9.43,7.8,12.45,3.548,2.547,5.764,4.979,6.588,7.23a3.919,3.919,0,0,1-.146,3.529,2.149,2.149,0,0,1-.713.651,3.516,3.516,0,0,1-.875,2.5,3.414,3.414,0,0,1-2.4,1.3,2.949,2.949,0,0,1-2.266,1.8,6.045,6.045,0,0,1-2.409.083,4.347,4.347,0,0,1-3.41,1.453,3.626,3.626,0,0,1-3.6-3.148,3.894,3.894,0,0,0-1.111-2.268.46.46,0,0,0-.392.085c.252.5.42.858.613,1.269s.418.9.759,1.572a2.361,2.361,0,0,1-.23,2.493c-.986,1.343-3.151,1.859-5.94,1.414-3.141-.492-3.7-2.449-4.148-4.022a5.3,5.3,0,0,0-1.379-2.7c-2.555-2.374-4.009-4.522-3.881-8.469.03-.952-.386-1.385-1.254-2.2-1.2-1.128-2.851-2.672-2.411-6.633a49.925,49.925,0,0,1,.851-5.071c.5-2.37.745-3.558-.005-5.373-1.13-2.74-.084-5.7.607-7.656a10.24,10.24,0,0,0,.442-1.425c.191-1.314-.1-15.53-.854-19.653-.2-1.089-.681-2.978-1.236-5.166-1.558-6.139-3.69-14.546-3.309-18.776a31,31,0,0,0-.058-4.823c-.261-4.133-.584-9.277,2.1-19.227,2.045-7.575,1.115-10.313-.061-13.779a32.41,32.41,0,0,1-1.986-12.652,96.489,96.489,0,0,0-1.041-15.61,74.254,74.254,0,0,1-.717-16.942,94.049,94.049,0,0,0-.98-21.637c-.325-2.388-.633-4.643-.783-6.836a12.048,12.048,0,0,0-1.309-5.42,17.812,17.812,0,0,0-1.209,6.066A69.163,69.163,0,0,1,188.8,311a72.484,72.484,0,0,0-1.422,20.27c.533,7.061-.445,11.716-1.481,16.645a64.483,64.483,0,0,0-1.786,15.907,32.426,32.426,0,0,1-1.985,12.654c-1.178,3.465-2.109,6.2-.064,13.777,2.6,9.613,1.706,14.73.992,18.843a19.726,19.726,0,0,0-.457,5.207c.476,5.27-1.824,17.506-2.806,22.729l-.227,1.214c-.761,4.121-1.05,18.337-.857,19.652a10.214,10.214,0,0,0,.441,1.426c.693,1.958,1.738,4.916.6,7.655-.747,1.813-.5,3,0,5.37a50.132,50.132,0,0,1,.853,5.073c.44,3.962-1.21,5.506-2.414,6.633-.868.813-1.284,1.246-1.253,2.2.126,3.953-1.328,6.1-3.881,8.47a5.3,5.3,0,0,0-1.38,2.7c-.448,1.572-1.005,3.529-4.151,4.022a11.88,11.88,0,0,1-1.855.156m-3.244-8.994a2.307,2.307,0,0,1,1.968.979,2.043,2.043,0,0,1,.082,2.105c-.218.419-.381.767-.573,1.176s-.42.9-.754,1.567a.357.357,0,0,0,.053.415c.306.417,1.493,1.017,4.012.621,1.883-.3,2.116-1.112,2.539-2.6a7.166,7.166,0,0,1,1.942-3.613c2.547-2.365,3.335-4.052,3.243-6.941a4.551,4.551,0,0,1,1.885-3.722c1.092-1.022,2.122-1.987,1.793-4.951a48.7,48.7,0,0,0-.822-4.884c-.526-2.505-.873-4.159.109-6.544.841-2.032-.016-4.456-.641-6.226a10.577,10.577,0,0,1-.535-1.8c-.257-1.765.121-16.261.869-20.3l.229-1.22c.966-5.142,3.229-17.186,2.779-22.181a21.228,21.228,0,0,1,.478-5.729c.68-3.917,1.528-8.793-.952-17.979-2.2-8.162-1.135-11.3.1-14.942a30.653,30.653,0,0,0,1.879-11.975,66.154,66.154,0,0,1,1.829-16.353,51.4,51.4,0,0,0,1.444-16.084,74.19,74.19,0,0,1,1.448-20.778,67.39,67.39,0,0,0,1.069-7.335c.356-5.169,1.473-7.339,2.348-8.249l.592-.617.7.489c1.628,1.135,2.594,3.735,2.869,7.73.145,2.127.448,4.35.768,6.7a95.725,95.725,0,0,1,.993,22.058,72.525,72.525,0,0,0,.707,16.535,98.494,98.494,0,0,1,1.057,15.9,30.711,30.711,0,0,0,1.879,11.974c1.236,3.638,2.3,6.78.1,14.943-2.6,9.632-2.288,14.593-2.037,18.581a32.976,32.976,0,0,1,.054,5.127c-.35,3.89,1.82,12.445,3.255,18.105.564,2.222,1.05,4.141,1.265,5.295.744,4.047,1.122,18.541.865,20.306a10.464,10.464,0,0,1-.534,1.8c-.626,1.77-1.482,4.195-.644,6.226.985,2.386.638,4.041.114,6.547a48.409,48.409,0,0,0-.821,4.882c-.33,2.965.7,3.93,1.79,4.952a4.545,4.545,0,0,1,1.885,3.722c-.093,2.885.7,4.571,3.244,6.94a7.179,7.179,0,0,1,1.942,3.612c.423,1.484.655,2.3,2.536,2.6,2.518.4,3.707-.2,4.015-.621a.36.36,0,0,0,.055-.414c-.35-.7-.581-1.189-.783-1.62-.182-.388-.339-.725-.546-1.125a2.041,2.041,0,0,1,.08-2.1,2.345,2.345,0,0,1,2.23-.97c1.843.154,2.633,2.715,2.886,3.809.238,1.022.573,1.551,1.741,1.6a2.47,2.47,0,0,0,2.1-1.129l.522-.855.858.515h0a3.466,3.466,0,0,0,1.828-.024c.778-.168.885-.621.879-.876l-.03-1.449,1.364.456a1.3,1.3,0,0,0,1.342-.556,1.364,1.364,0,0,0,.325-1.472l-.677-1.429,1.569-.024c.2,0,.242-.059.266-.094a2.215,2.215,0,0,0-.091-1.7c-.471-1.284-1.872-3.418-5.876-6.292-3.875-2.77-10.378-10.534-8.47-14.879a4.254,4.254,0,0,0,.324-3.61,7.966,7.966,0,0,1-.408-2.447c0-2.362,1.416-16.159,8.344-40.511,5.636-19.809,3.355-31.553,2.38-36.568a23.5,23.5,0,0,1-.4-2.457,52.923,52.923,0,0,0-.894-5.7,51.47,51.47,0,0,1-.868-5.482c-.269-3.452,1.306-20.168,2.016-26.016a41.538,41.538,0,0,1,2.242-7.822c2.373-6.85,6.346-18.313,9.084-39.094,2.989-22.684-.413-33.467-2.9-41.341a46.245,46.245,0,0,1-1.885-7.228c-1.11-7.795-2.013-14.814-2.4-17.81l-.118-.92c-.035-.268-.07-.6-.112-.989a89.921,89.921,0,0,0-3.379-16.51c-2.79-9.738,3.147-28.946,5.686-30.575a1.2,1.2,0,0,1,1.46.068c1.864,1.592,5.09,19.693,6.636,37.246,1.014,11.5,6.805,24.468,11.034,33.935,3.4,7.619,5.652,12.653,5.048,15.223-1.22,5.227,1.407,16.909,4.5,25.246,1.7,4.572,3.351,5.793,4.188,6.115a1.476,1.476,0,0,0,1.172.032l.935-.49.47.944c1.766,3.876,3.363,4.877,4.158,5.128a1.581,1.581,0,0,0,1.241-.043l1.011-.593.454,1.075c.725,1.854,1.876,3.45,2.311,3.457.414-.073.491-.218.528-.288.169-.316.382-1.454-1.278-5.166s-2.65-10.017-1.759-11.223l.347-.47.657.027a1.407,1.407,0,0,1,1.059.974c.207.495.456,1.328.77,2.383.649,2.175,2.624,8.794,4.27,8.794.164,0,.452-.019.546-.143.522-.688-.351-3.81-1.122-6.565-.234-.837-.483-1.727-.732-2.663-.213-.8-.428-1.6-.639-2.377-2.076-7.669-2.913-11.094-1-11.9,2.23-.962,4.191,1.637,6.335,4.879a2.823,2.823,0,0,0,2.386,1.334,3.128,3.128,0,0,0,1.284-.262c-1.98-1.694-4.053-5.081-5.608-9.193-.933-2.464-3.719-4.3-6.413-6.073-2.321-1.527-4.511-2.971-5.607-4.844-2.314-3.954-4.051-15.655-4.224-28.454-.17-12.293-3.012-26.616-5.548-32.837-2.769-6.789-5.183-13.539-4.325-21.452.811-7.511.55-15.313-.649-19.416-.139-.476-.269-.892-.386-1.268-.965-3.085-1.113-3.994.539-11.317,1.6-7.073-.861-15.394-7.519-25.44-3.894-5.877-10.952-7.655-16.1-8.952a19.571,19.571,0,0,1-5.052-1.679,33.626,33.626,0,0,0-6.59-2.653,70.763,70.763,0,0,1-8.819-3.411c-1.7-.828-3.212-1.485-4.552-2.065-3.671-1.589-5.887-2.548-5.887-4.657v-.382c-.011-2.26-.034-7.55,2.338-11.892a19.33,19.33,0,0,0,2.258-8.26V82.011l1.414.644c1.051.479,1.136.517,2.45-2.092.336-.667.723-1.435,1.205-2.291,2.009-3.568,2.736-6.064,2.286-7.858a1.427,1.427,0,0,0-1.632-1l-1.517.173.438-1.46c.038-.121,3.649-12.223-3.518-19.845-5.839-6.208-14.677-7.414-18.206-7.644L191.6,40.6h-.028l-.3-.007-.366.044c-3.53.23-12.371,1.435-18.208,7.644-7.165,7.622-3.558,19.724-3.52,19.845l.457,1.49-1.545-.2a1.424,1.424,0,0,0-1.624,1c-.449,1.793.277,4.289,2.288,7.857.483.858.871,1.628,1.208,2.294,1.313,2.609,1.4,2.566,2.446,2.09l1.41-.642.005,1.552a19.465,19.465,0,0,0,2.26,8.261c2.371,4.341,2.348,9.631,2.337,11.891v.382c0,2.109-2.216,3.068-5.886,4.657-1.339.58-2.856,1.237-4.551,2.065a70.883,70.883,0,0,1-8.817,3.41,33.581,33.581,0,0,0-6.591,2.654,19.594,19.594,0,0,1-5.053,1.679c-5.154,1.3-12.214,3.074-16.107,8.952-6.658,10.043-9.119,18.365-7.522,25.44,1.652,7.319,1.506,8.228.543,11.313-.118.378-.248.795-.387,1.272-1.2,4.1-1.462,11.9-.65,19.416.856,7.926-1.557,14.67-4.324,21.452-2.537,6.23-5.38,20.556-5.548,32.837-.175,12.8-1.913,24.5-4.225,28.454-1.1,1.873-3.286,3.316-5.607,4.844-2.695,1.773-5.482,3.608-6.412,6.073-1.559,4.114-3.633,7.5-5.61,9.193a2.965,2.965,0,0,0,1.286.262,2.818,2.818,0,0,0,2.381-1.333c2.146-3.241,4.1-5.846,6.345-4.877,1.9.806,1.071,4.218-.994,11.858-.215.8-.434,1.605-.65,2.421-.248.929-.5,1.812-.729,2.644-.774,2.762-1.651,5.893-1.127,6.583.094.125.384.144.548.144,1.644,0,3.619-6.619,4.268-8.794.314-1.055.563-1.888.771-2.386a1.4,1.4,0,0,1,1.058-.971l.578-.07.425.513c.891,1.206-.1,7.5-1.761,11.223s-1.447,4.849-1.278,5.166c.037.07.115.215.536.289.427-.006,1.58-1.6,2.306-3.459l.453-1.158,1.035.692a1.619,1.619,0,0,0,1.217.028c.8-.251,2.391-1.251,4.156-5.128l.467-1.028.964.589a1.527,1.527,0,0,0,1.147-.047c.837-.322,2.494-1.544,4.189-6.115,3.092-8.334,5.718-20.015,4.5-25.247-.6-2.569,1.646-7.6,5.048-15.215,4.23-9.468,10.023-22.436,11.036-33.942,1.545-17.552,4.77-35.653,6.636-37.248a1.206,1.206,0,0,1,1.459-.066c2.539,1.63,8.479,20.839,5.691,30.575a89.545,89.545,0,0,0-3.384,16.5c-.042.4-.078.728-.113,1a22.6,22.6,0,0,1-1.274,3.85,70.206,70.206,0,0,0-4.26,14.878c-.249,1.746-.627,3.532-1.028,5.423-1.67,7.889-3.956,18.692-.736,43.147,2.739,20.785,6.714,32.248,9.088,39.1a41.58,41.58,0,0,1,2.242,7.82c.755,6.253.772,22.6.507,26.016a52.356,52.356,0,0,1-.865,5.456,53.2,53.2,0,0,0-.9,5.728,18.847,18.847,0,0,1-.63,2.936c-1.424,5.46-4.384,16.823,1.1,36.088,6.927,24.349,8.343,38.149,8.343,40.511a7.966,7.966,0,0,1-.408,2.447,4.256,4.256,0,0,0,.324,3.611c1.909,4.345-4.6,12.109-8.473,14.879-4.007,2.876-5.4,5.007-5.869,6.289a2.228,2.228,0,0,0-.1,1.7c.026.035.067.094.269.094h1.675l-.795,1.474a1.368,1.368,0,0,0,.333,1.449,1.306,1.306,0,0,0,1.367.551l1.391-.417-.081,1.441c0,.231.1.684.884.853a3.159,3.159,0,0,0,1.865,0l.833-.4.512.776a2.442,2.442,0,0,0,2.094,1.121c1.164-.05,1.5-.581,1.741-1.606.257-1.093,1.053-3.651,2.894-3.8.086-.007.171-.011.254-.011M291.747,288.086l0,0,.6-.8Z" fill="#161615"/>
          <g id="Grupo_1079149" data-name="Grupo 1079149" opacity="0.64">
            <g id="Grupo_1079148" data-name="Grupo 1079148">
              <g id="Grupo_1079147" data-name="Grupo 1079147" clip-path="url(#clip-path-3)">
                <path id="Trazado_842258" data-name="Trazado 842258" d="M119.609,202.318H106.76L62.316,219.666H315.2l-47.556-17.348h-4.18l1.46,3.713s-2.965,11.4-23.678,4.961l-1.16-8.674H230.029s-3.269,12.566-33.935,12.29c0,0-36.977-.754-42.711-6.515l-.333-5.775H142.986l-1.347,8.674s-24.966,4.242-22.03-8.674" fill="#803986"/>
              </g>
            </g>
          </g>
          <rect id="Rectángulo_374763" data-name="Rectángulo 374763" width="49.334" height="2" transform="translate(272.093 73.777)" fill="#161615"/>
          <rect id="Rectángulo_374764" data-name="Rectángulo 374764" width="33.159" height="2" transform="matrix(0.925, -0.38, 0.38, 0.925, 43.047, 209.579)" fill="#803986"/>
          <rect id="Rectángulo_374765" data-name="Rectángulo 374765" width="54.214" height="2" transform="translate(58.76 278.222)" fill="#803986"/>
          <rect id="Rectángulo_374766" data-name="Rectángulo 374766" width="2" height="36.774" transform="translate(171.093 144.666)" fill="#803986"/>
          <rect id="Rectángulo_374767" data-name="Rectángulo 374767" width="2" height="50.111" transform="translate(213.315 328.666)" fill="#803986"/>
          <rect id="Rectángulo_374768" data-name="Rectángulo 374768" width="2" height="97.667" transform="translate(300.871 144.666)" fill="#803986"/>
          <rect id="Rectángulo_374769" data-name="Rectángulo 374769" width="2.001" height="36.774" transform="matrix(0.988, -0.154, 0.154, 0.988, 246.66, 196.594)" fill="#803986"/>
          <rect id="Rectángulo_374770" data-name="Rectángulo 374770" width="45.659" height="2" transform="translate(198.093 143.666)" fill="#803986"/>
          <rect id="Rectángulo_374771" data-name="Rectángulo 374771" width="4" height="521.333" transform="translate(188.093 1)" fill="#fff"/>
          <path id="Trazado_842259" data-name="Trazado 842259" d="M193.093,523.333h-6V0h6Zm-4-2h2V2h-2Z" fill="#161615"/>
          <rect id="Rectángulo_374772" data-name="Rectángulo 374772" width="54.214" height="2" transform="translate(265.542 269.094)" fill="#803986"/>
          <path id="Trazado_842260" data-name="Trazado 842260" d="M210.255,479.257l-.768-1.848,29.074-12.076h81.977v2H238.959Z" fill="#803986"/>
          <text id="Plano_sagital" data-name="Plano sagital" transform="translate(322.315 28.111)" fill="#161615" font-size="12" font-family="Roboto-Regular, Roboto"><tspan x="0" y="0">Plano sagital</tspan></text>
        </g>
      </g>
      <text id="Plano_frontal" data-name="Plano frontal" transform="translate(322.315 78.568)" fill="#161615" font-size="12" font-family="Roboto-Regular, Roboto"><tspan x="0" y="0">Plano f</tspan><tspan y="0" letter-spacing="-0.01em">r</tspan><tspan y="0">ontal</tspan></text>
      <text id="Craneal" transform="translate(292.651 138.16)" fill="#161615" font-size="12" font-family="Roboto-Regular, Roboto"><tspan x="0" y="0">C</tspan><tspan y="0" letter-spacing="-0.019em">r</tspan><tspan y="0">aneal</tspan></text>
      <g id="Grupo_1079153" data-name="Grupo 1079153">
        <g id="Grupo_1079152" data-name="Grupo 1079152" clip-path="url(#clip-path)">
          <path id="Trazado_842261" data-name="Trazado 842261" d="M196.083,128.634h3.13l2.112,5.272,2.112-5.272h3.136v10.531h-3.125v-2.519l-1.021,2.519h-1.054l-.048.119-.048-.119h-1.059l-1.01-2.491v2.491h-3.125Z" fill="#fff"/>
          <path id="Trazado_842262" data-name="Trazado 842262" d="M209.887,130.708a3.383,3.383,0,0,1,2.686,1.171,4.491,4.491,0,0,1,.921,2.976v1.451h-.42l.677.528-.5.77a3.665,3.665,0,0,1-3.229,1.68,3.747,3.747,0,0,1-2.82-1.156,4.123,4.123,0,0,1-1.086-2.956v-.2a4.821,4.821,0,0,1,.46-2.121,3.829,3.829,0,0,1,1.363-1.562A3.537,3.537,0,0,1,209.887,130.708Zm.65,5.6h-.857a.79.79,0,0,0,.4.092A.942.942,0,0,0,210.537,136.306Z" fill="#fff"/>
          <path id="Trazado_842263" data-name="Trazado 842263" d="M216.75,128.166h3.084v11h-2.911a3.753,3.753,0,0,1-.949.117,3.169,3.169,0,0,1-2.589-1.293,4.738,4.738,0,0,1-.9-2.965v-.082a4.7,4.7,0,0,1,.9-2.961,3.191,3.191,0,0,1,2.6-1.273,3.76,3.76,0,0,1,.764.076Zm0,5.656a.59.59,0,0,0-.495-.193.454.454,0,0,0-.432.2,2.134,2.134,0,0,0-.255,1.235,1.921,1.921,0,0,0,.253,1.1.448.448,0,0,0,.423.2.58.58,0,0,0,.506-.208Z" fill="#fff"/>
          <path id="Trazado_842264" data-name="Trazado 842264" d="M221.16,128.517a1.584,1.584,0,0,1,1.223.513,1.63,1.63,0,0,1,.421,1.114,1.667,1.667,0,0,1-.141.682h.03v8.34h-3.084v-8.34h.052a1.675,1.675,0,0,1-.14-.682,1.645,1.645,0,0,1,.412-1.107A1.58,1.58,0,0,1,221.16,128.517Z" fill="#fff"/>
          <path id="Trazado_842265" data-name="Trazado 842265" d="M225.384,139.283a3.226,3.226,0,0,1-2.2-.778l0,0a2.725,2.725,0,0,1-.936-2.093,2.837,2.837,0,0,1,.611-1.824h-.483v-1a2.482,2.482,0,0,1,.541-1.522,3.307,3.307,0,0,1,1.3-1.008,4.083,4.083,0,0,1,1.678-.345,3.48,3.48,0,0,1,2.378.8,2.981,2.981,0,0,1,.982,2.236v2.941a2.582,2.582,0,0,0,.141.992l.082.19v1.3h-2.757l-.061-.123A3.43,3.43,0,0,1,225.384,139.283Zm-.052-2.982a.437.437,0,0,0,.21.039.909.909,0,0,0,.466-.129.831.831,0,0,0,.162-.118,1.851,1.851,0,0,0-.84.155s0,.006,0,.009A.381.381,0,0,0,225.332,136.3Z" fill="#fff"/>
          <path id="Rectángulo_374774" data-name="Rectángulo 374774" d="M-1-1H2.084V10H-1Z" transform="translate(233.019 129.166)" fill="#fff"/>
          <path id="Trazado_842266" data-name="Trazado 842266" d="M237.794,139.283a3.226,3.226,0,0,1-2.2-.778l0,0a2.725,2.725,0,0,1-.936-2.093,2.837,2.837,0,0,1,.611-1.824h-.483v-1a2.482,2.482,0,0,1,.541-1.522,3.306,3.306,0,0,1,1.3-1.008,4.083,4.083,0,0,1,1.678-.345,3.48,3.48,0,0,1,2.378.8,2.981,2.981,0,0,1,.982,2.236v2.941a2.582,2.582,0,0,0,.141.992l.082.19v1.3h-2.757l-.061-.123A3.429,3.429,0,0,1,237.794,139.283Zm-.052-2.982a.437.437,0,0,0,.21.039.909.909,0,0,0,.466-.129.83.83,0,0,0,.162-.118,1.851,1.851,0,0,0-.84.155s0,.006,0,.009A.381.381,0,0,0,237.742,136.3Z" fill="#fff"/>
          <path id="Trazado_842267" data-name="Trazado 842267" d="M241.751,129.29h3.084v1.536h1.184v2.838h-1.184v2.652h0l1.21-.26v2.867l-.73.2a4.081,4.081,0,0,1-1.1.155,2.318,2.318,0,0,1-1.862-.8,2.855,2.855,0,0,1-.6-1.891v-2.932H240.6v-2.838h1.154Z" fill="#fff"/>
          <path id="Trazado_842268" data-name="Trazado 842268" d="M248.781,130.708a3.383,3.383,0,0,1,2.686,1.171,4.491,4.491,0,0,1,.921,2.976v1.451h-.42l.677.528-.5.77a3.665,3.665,0,0,1-3.229,1.68,3.747,3.747,0,0,1-2.82-1.156,4.123,4.123,0,0,1-1.086-2.956v-.2a4.821,4.821,0,0,1,.46-2.121,3.829,3.829,0,0,1,1.363-1.562A3.537,3.537,0,0,1,248.781,130.708Zm.65,5.6h-.857a.79.79,0,0,0,.4.092A.942.942,0,0,0,249.431,136.306Z" fill="#fff"/>
          <path id="Trazado_842269" data-name="Trazado 842269" d="M255.226,130.709a2.051,2.051,0,0,1,.924.185l.556.275v2.815l-1.168-.2a2.2,2.2,0,0,0-.365-.027c-.257,0-.375.058-.447.15v5.257h-3.084v-8.339h2.75A2.909,2.909,0,0,1,255.226,130.709Z" fill="#fff"/>
          <path id="Trazado_842270" data-name="Trazado 842270" d="M258.425,139.283a3.226,3.226,0,0,1-2.2-.778l0,0a2.725,2.725,0,0,1-.936-2.093,2.837,2.837,0,0,1,.611-1.824h-.483v-1a2.482,2.482,0,0,1,.541-1.522,3.306,3.306,0,0,1,1.3-1.008,4.084,4.084,0,0,1,1.678-.345,3.48,3.48,0,0,1,2.378.8,2.981,2.981,0,0,1,.982,2.236v2.941a2.582,2.582,0,0,0,.141.992l.082.19v1.3h-2.757l-.061-.123A3.43,3.43,0,0,1,258.425,139.283Zm-.052-2.982a.437.437,0,0,0,.21.039.909.909,0,0,0,.466-.129.831.831,0,0,0,.162-.118,1.851,1.851,0,0,0-.84.155s0,.006,0,.009A.381.381,0,0,0,258.373,136.3Z" fill="#fff"/>
          <path id="Rectángulo_374775" data-name="Rectángulo 374775" d="M-1-1H2.084V10H-1Z" transform="translate(263.089 129.166)" fill="#fff"/>
        </g>
      </g>
      <text id="Superior" transform="translate(134.321 138.166)" fill="#161615" font-size="12" font-family="Roboto-Regular, Roboto"><tspan x="0" y="0">Superior</tspan></text>
      <g id="Grupo_1079155" data-name="Grupo 1079155">
        <g id="Grupo_1079154" data-name="Grupo 1079154" clip-path="url(#clip-path)">
          <path id="Rectángulo_374777" data-name="Rectángulo 374777" d="M-1-1H2.125V9.531H-1Z" transform="translate(136.394 190.788)" fill="#fff"/>
          <path id="Trazado_842271" data-name="Trazado 842271" d="M142.364,191.862a2.884,2.884,0,0,1,2.257.9,3.471,3.471,0,0,1,.77,2.359v5.2h-3.084v-5.19a1.013,1.013,0,0,0-.042-.322.84.84,0,0,0-.229-.024.558.558,0,0,0-.349.1.871.871,0,0,0-.2.192v5.247H138.4v-8.34h2.981v.015A3.555,3.555,0,0,1,142.364,191.862Z" fill="#fff"/>
          <path id="Trazado_842272" data-name="Trazado 842272" d="M148.644,200.319H145.56l0-5.5h-1v-2.838h1.015a2.872,2.872,0,0,1,3.073-2.783,3.874,3.874,0,0,1,1,.133l.794.213-.191,2.827-.254-.05v2.5h-1.354Z" fill="#fff"/>
          <path id="Trazado_842273" data-name="Trazado 842273" d="M152.689,191.861a3.383,3.383,0,0,1,2.686,1.171,4.491,4.491,0,0,1,.921,2.976v1.451h-.42l.677.528-.5.77a3.665,3.665,0,0,1-3.229,1.68A3.747,3.747,0,0,1,150,199.28a4.123,4.123,0,0,1-1.086-2.956v-.2a4.821,4.821,0,0,1,.46-2.121,3.829,3.829,0,0,1,1.363-1.562A3.537,3.537,0,0,1,152.689,191.861Zm.65,5.6h-.857a.79.79,0,0,0,.4.092A.942.942,0,0,0,153.339,197.459Z" fill="#fff"/>
          <path id="Trazado_842274" data-name="Trazado 842274" d="M159.134,191.862a2.035,2.035,0,0,1,.93.189l.55.277v2.809l-1.168-.2a2.2,2.2,0,0,0-.365-.027c-.257,0-.375.058-.447.151v5.257H155.55v-8.34h2.75A2.909,2.909,0,0,1,159.134,191.862Z" fill="#fff"/>
          <path id="Trazado_842275" data-name="Trazado 842275" d="M161.255,189.67a1.584,1.584,0,0,1,1.223.513,1.63,1.63,0,0,1,.421,1.114,1.67,1.67,0,0,1-.14.682h.029v8.34H159.7v-8.34h.052a1.675,1.675,0,0,1-.14-.682,1.645,1.645,0,0,1,.412-1.107A1.58,1.58,0,0,1,161.255,189.67Z" fill="#fff"/>
          <path id="Trazado_842276" data-name="Trazado 842276" d="M166.112,191.862a3.648,3.648,0,0,1,2.841,1.231,4.428,4.428,0,0,1,1.053,3.051v.076a4.787,4.787,0,0,1-.453,2.095,3.68,3.68,0,0,1-1.388,1.561,3.794,3.794,0,0,1-2.041.561,3.686,3.686,0,0,1-2.836-1.232,4.414,4.414,0,0,1-1.053-3.038v-.076a4.753,4.753,0,0,1,.469-2.117,3.721,3.721,0,0,1,1.392-1.558A3.764,3.764,0,0,1,166.112,191.862Zm.012,5.69a.566.566,0,0,0,.512-.248,2.074,2.074,0,0,0,.286-1.213,1.764,1.764,0,0,0-.29-1.084.582.582,0,0,0-.52-.254.565.565,0,0,0-.5.249,2.06,2.06,0,0,0-.284,1.218,1.772,1.772,0,0,0,.283,1.085A.575.575,0,0,0,166.124,197.552Z" fill="#fff"/>
          <path id="Trazado_842277" data-name="Trazado 842277" d="M172.951,191.862a2.035,2.035,0,0,1,.93.189l.55.277v2.809l-1.168-.2a2.2,2.2,0,0,0-.365-.027c-.257,0-.375.058-.447.151v5.257h-3.084v-8.34h2.75A2.909,2.909,0,0,1,172.951,191.862Z" fill="#fff"/>
        </g>
      </g>
      <text id="Caudal" transform="translate(292.648 256.333)" fill="#161615" font-size="12" font-family="Roboto-Regular, Roboto"><tspan x="0" y="0">Caudal</tspan></text>
      <text id="Dorsal" transform="translate(327.305 273.098)" fill="#161615" font-size="12" font-family="Roboto-Regular, Roboto"><tspan x="0" y="0">Dorsal</tspan></text>
      <text id="Dorsal-2" data-name="Dorsal" transform="translate(328.301 472.334)" fill="#161615" font-size="12" font-family="Roboto-Regular, Roboto"><tspan x="0" y="0">Dorsal</tspan></text>
      <text id="Plantar" transform="translate(328.301 495.205)" fill="#161615" font-size="12" font-family="Roboto-Regular, Roboto"><tspan x="0" y="0">Plantar</tspan></text>
      <text id="Posterior" transform="translate(33.424 472.453)" fill="#161615" font-size="12" font-family="Roboto-Regular, Roboto"><tspan x="0" y="0" letter-spacing="-0.006em">P</tspan><tspan y="0">osterior</tspan></text>
      <g id="Grupo_1079157" data-name="Grupo 1079157">
        <g id="Grupo_1079156" data-name="Grupo 1079156" clip-path="url(#clip-path)">
          <text id="Anterior" transform="translate(0.162 518.028)" fill="#161615" font-size="12" font-family="Roboto-Regular, Roboto"><tspan x="0" y="0">Anterior</tspan></text>
        </g>
      </g>
      <text id="Dorsal-3" data-name="Dorsal" transform="translate(43.427 184.359)" fill="#161615" font-size="12" font-family="Roboto-Regular, Roboto"><tspan x="0" y="0">Dorsal</tspan></text>
      <g id="Grupo_1079159" data-name="Grupo 1079159">
        <g id="Grupo_1079158" data-name="Grupo 1079158" clip-path="url(#clip-path)">
          <text id="Ventral" transform="translate(0 219.667)" fill="#161615" font-size="12" font-family="Roboto-Regular, Roboto"><tspan x="0" y="0">Vent</tspan><tspan y="0" letter-spacing="-0.02em">r</tspan><tspan y="0">al</tspan></text>
        </g>
      </g>
      <text id="Palmar" transform="translate(13.53 282.401)" fill="#161615" font-size="12" font-family="Roboto-Regular, Roboto"><tspan x="0" y="0" letter-spacing="-0.005em">P</tspan><tspan y="0">almar</tspan></text>
      <g id="Grupo_1079161" data-name="Grupo 1079161">
        <g id="Grupo_1079160" data-name="Grupo 1079160" clip-path="url(#clip-path)">
          <path id="Trazado_842278" data-name="Trazado 842278" d="M248.815,233.983h3.141a4.452,4.452,0,0,1,2.247.57,3.97,3.97,0,0,1,1.566,1.656,5.076,5.076,0,0,1,.53,2.305V239a5.069,5.069,0,0,1-.524,2.336,3.918,3.918,0,0,1-1.581,1.655,4.676,4.676,0,0,1-2.269.57h-3.109Zm3.16,2.818h-.16v3.947h.052a1.278,1.278,0,0,0,1.054-.387,2.047,2.047,0,0,0,.389-1.381v-.443a2.091,2.091,0,0,0-.37-1.363A1.154,1.154,0,0,0,251.975,236.8Z" fill="#fff"/>
          <path id="Trazado_842279" data-name="Trazado 842279" d="M257.23,233.88a1.528,1.528,0,0,1,1.574,1.557,1.606,1.606,0,0,1-.1.567v7.562h-2.963v-7.623a1.632,1.632,0,0,1-.078-.506,1.57,1.57,0,0,1,.4-1.06A1.536,1.536,0,0,1,257.23,233.88Z" fill="#fff"/>
          <path id="Trazado_842280" data-name="Trazado 842280" d="M261.318,243.67a3.834,3.834,0,0,1-1.617-.332,2.956,2.956,0,0,1-1.22-1.01,2.6,2.6,0,0,1-.47-1.5v-1h.623l-.049-.069a2.234,2.234,0,0,1-.381-1.285,2.452,2.452,0,0,1,.954-1.945,3.262,3.262,0,0,1,2.129-.705,3.334,3.334,0,0,1,2.192.725,2.568,2.568,0,0,1,.958,2.035v1h-.4q.031.041.059.082a2.31,2.31,0,0,1,.391,1.334,2.433,2.433,0,0,1-1,2.009A3.522,3.522,0,0,1,261.318,243.67Z" fill="#fff"/>
          <path id="Trazado_842281" data-name="Trazado 842281" d="M264.088,234.567h2.964v1.364H268.1v2.744h-1.052v2.11l1.078-.227v2.776l-.741.2a3.873,3.873,0,0,1-1,.138,2.171,2.171,0,0,1-1.739-.747,2.646,2.646,0,0,1-.563-1.753v-2.495h-1.025v-2.744h1.025Z" fill="#fff"/>
          <path id="Trazado_842282" data-name="Trazado 842282" d="M269.967,243.669a2.963,2.963,0,0,1-2.029-.722,2.524,2.524,0,0,1-.871-1.944,2.671,2.671,0,0,1,.434-1.51h-.319v-1a2.309,2.309,0,0,1,.5-1.422,3.035,3.035,0,0,1,1.2-.928,3.733,3.733,0,0,1,1.535-.316,3.2,3.2,0,0,1,2.188.737,2.759,2.759,0,0,1,.911,2.066v2.618a2.193,2.193,0,0,0,.116.838l.082.19v1.29h-2.632l-.04-.081A3.173,3.173,0,0,1,269.967,243.669Z" fill="#fff"/>
          <path id="Rectángulo_374781" data-name="Rectángulo 374781" d="M-1-1H1.963V9H-1Z" transform="translate(274.112 234.567)" fill="#fff"/>
        </g>
      </g>
      <text id="Distal" transform="translate(200.844 392.791)" fill="#161615" font-size="10.664" font-family="Roboto-Regular, Roboto"><tspan x="0" y="0">Distal</tspan></text>
      <g id="Grupo_1079163" data-name="Grupo 1079163">
        <g id="Grupo_1079162" data-name="Grupo 1079162" clip-path="url(#clip-path)">
          <path id="Trazado_842283" data-name="Trazado 842283" d="M235.8,183.775h3.8a3.783,3.783,0,0,1,2.619.892,3.165,3.165,0,0,1,1.037,2.425,3.1,3.1,0,0,1-1.037,2.457,3.9,3.9,0,0,1-2.629.84H238.8v2.968h-3Zm3.842,2.818H238.8v.979h.8a.938.938,0,0,0,.567-.128.473.473,0,0,0,.089-.344c0-.25-.079-.325-.117-.362A.738.738,0,0,0,239.638,186.593Z" fill="#fff"/>
          <path id="Trazado_842284" data-name="Trazado 842284" d="M245.669,185.618a1.916,1.916,0,0,1,.878.18l.549.277v2.7l-1.169-.2a1.823,1.823,0,0,0-.305-.024.423.423,0,0,0-.286.067v4.74h-2.964v-7.634h2.539A2.7,2.7,0,0,1,245.669,185.618Z" fill="#fff"/>
          <path id="Trazado_842285" data-name="Trazado 842285" d="M249.179,185.618a3.4,3.4,0,0,1,2.607,1.13,4.047,4.047,0,0,1,.965,2.786v.068a4.358,4.358,0,0,1-.414,1.911,3.375,3.375,0,0,1-1.275,1.434,3.491,3.491,0,0,1-1.872.515,3.383,3.383,0,0,1-2.6-1.132,4.028,4.028,0,0,1-.964-2.774v-.067a4.335,4.335,0,0,1,.428-1.932,3.438,3.438,0,0,1,1.277-1.429A3.475,3.475,0,0,1,249.179,185.618Zm.01,5.056a.389.389,0,0,0,.366-.175,1.738,1.738,0,0,0,.233-1.011,1.456,1.456,0,0,0-.233-.893.41.41,0,0,0-.376-.186.389.389,0,0,0-.358.178,1.652,1.652,0,0,0-.23,1.015,1.47,1.47,0,0,0,.227.9A.4.4,0,0,0,249.189,190.674Z" fill="#fff"/>
          <path id="Trazado_842286" data-name="Trazado 842286" d="M250.531,185.723h3.541l.673,1.122.682-1.122h3.548l-2.5,3.783,2.568,3.851H255.5l-.744-1.206-.744,1.206h-3.546l2.568-3.851Z" fill="#fff"/>
          <path id="Trazado_842287" data-name="Trazado 842287" d="M258.708,183.671a1.519,1.519,0,0,1,1.168.489,1.563,1.563,0,0,1,.405,1.068,1.609,1.609,0,0,1-.1.564v7.565h-2.963v-7.622a1.642,1.642,0,0,1-.078-.507,1.57,1.57,0,0,1,.394-1.06l0,0A1.541,1.541,0,0,1,258.708,183.671Z" fill="#fff"/>
          <path id="Trazado_842288" data-name="Trazado 842288" d="M263.327,185.619a2.9,2.9,0,0,1,1.68.479q.086-.054.176-.1a3.157,3.157,0,0,1,1.55-.375,2.706,2.706,0,0,1,2.884,2.947v4.791h-2.962v-4.718a1.027,1.027,0,0,0-.015-.19,1.208,1.208,0,0,0-.189-.013c-.151,0-.2.041-.218.061a.269.269,0,0,0-.083.185v4.676h-2.969v-4.692a.839.839,0,0,0-.021-.212.78.78,0,0,0-.182-.017.433.433,0,0,0-.3.07v4.851h-2.964v-7.634h2.744A3.525,3.525,0,0,1,263.327,185.619Z" fill="#fff"/>
          <path id="Trazado_842289" data-name="Trazado 842289" d="M271.809,193.46a2.964,2.964,0,0,1-2.029-.722,2.524,2.524,0,0,1-.871-1.944,2.67,2.67,0,0,1,.434-1.51h-.319v-1a2.308,2.308,0,0,1,.5-1.422,3.034,3.034,0,0,1,1.2-.928,3.733,3.733,0,0,1,1.535-.316,3.2,3.2,0,0,1,2.188.737,2.759,2.759,0,0,1,.911,2.066v2.618a2.194,2.194,0,0,0,.116.838l.082.19v1.289h-2.632l-.04-.081A3.173,3.173,0,0,1,271.809,193.46Z" fill="#fff"/>
          <path id="Rectángulo_374783" data-name="Rectángulo 374783" d="M-1-1H1.963V9H-1Z" transform="translate(275.954 184.358)" fill="#fff"/>
        </g>
      </g>
      <text id="Proximal" transform="translate(198.094 320.178)" fill="#161615" font-size="10.664" font-family="Roboto-Regular, Roboto"><tspan x="0" y="0">P</tspan><tspan y="0" letter-spacing="-0.009em">r</tspan><tspan y="0" letter-spacing="-0.01em">o</tspan><tspan y="0">ximal</tspan></text>
      <text id="Plano_" data-name="Plano " transform="translate(311.204 188.372)" fill="#161615" font-size="12" font-family="Roboto-Regular, Roboto"><tspan x="0" y="0">Plano </tspan></text>
      <text id="transversal" transform="translate(311.204 202.771)" fill="#161615" font-size="12" font-family="Roboto-Regular, Roboto"><tspan x="0" y="0">t</tspan><tspan y="0" letter-spacing="-0.019em">r</tspan><tspan y="0">ansversal</tspan></text>
      <g id="Grupo_1079165" data-name="Grupo 1079165">
        <g id="Grupo_1079164" data-name="Grupo 1079164" clip-path="url(#clip-path)">
          <path id="Trazado_842290" data-name="Trazado 842290" d="M172.15,142.333l-3.638,6.3h7.276Z" fill="#803986"/>
          <path id="Trazado_842291" data-name="Trazado 842291" d="M301.871,142.333l-3.638,6.3h7.276Z" fill="#803986"/>
          <path id="Trazado_842292" data-name="Trazado 842292" d="M250.133,144.666l-6.3-3.638V148.3Z" fill="#803986"/>
          <path id="Trazado_842293" data-name="Trazado 842293" d="M253.955,235.327l1.926-7.016-7.039,1.84Z" fill="#803986"/>
          <path id="Trazado_842294" data-name="Trazado 842294" d="M247.389,193.071l-2.766,6.73,7.211-.97Z" fill="#803986"/>
          <path id="Trazado_842295" data-name="Trazado 842295" d="M194.083,144.666l6.3-3.638V148.3Z" fill="#803986"/>
          <path id="Trazado_842296" data-name="Trazado 842296" d="M172.15,186.691l3.638-6.3h-7.276Z" fill="#803986"/>
          <path id="Trazado_842297" data-name="Trazado 842297" d="M45.252,506.649l6.942-2.18-5.359-4.922Z" fill="#803986"/>
          <path id="Trazado_842298" data-name="Trazado 842298" d="M77.008,475.535l-6.942,2.18,5.359,4.922Z" fill="#803986"/>
          <path id="Trazado_842299" data-name="Trazado 842299" d="M78.2,195.139H70.922l3.638,6.3Z" fill="#803986"/>
          <path id="Trazado_842300" data-name="Trazado 842300" d="M38.482,212.769l7.227.838-2.888-6.678Z" fill="#803986"/>
          <path id="Trazado_842301" data-name="Trazado 842301" d="M214.315,383.372l3.638-6.3h-7.276Z" fill="#803986"/>
          <path id="Trazado_842302" data-name="Trazado 842302" d="M214.315,324.749l-3.638,6.3h7.276Z" fill="#803986"/>
          <path id="Trazado_842303" data-name="Trazado 842303" d="M301.871,245.484l3.638-6.3h-7.276Z" fill="#803986"/>
          <path id="Trazado_842304" data-name="Trazado 842304" d="M261.226,270.094l6.3,3.638v-7.276Z" fill="#803986"/>
          <path id="Trazado_842305" data-name="Trazado 842305" d="M324.072,270.094l-6.3-3.638v7.276Z" fill="#803986"/>
        </g>
      </g>
      <text id="Media_lateral" data-name="Media lateral" transform="translate(196.094 138.166)" fill="#161615" font-size="12" font-family="Roboto-Regular, Roboto"><tspan x="0" y="0">Media late</tspan><tspan y="0" letter-spacing="-0.021em">r</tspan><tspan y="0">al</tspan></text>
      <text id="Proximal-2" data-name="Proximal" transform="translate(235.916 192.356)" fill="#161615" font-size="10.664" font-family="Roboto-Regular, Roboto"><tspan x="0" y="0">P</tspan><tspan y="0" letter-spacing="-0.009em">r</tspan><tspan y="0" letter-spacing="-0.01em">o</tspan><tspan y="0">ximal</tspan></text>
      <text id="Distal-2" data-name="Distal" transform="translate(248.938 242.564)" fill="#161615" font-size="10.664" font-family="Roboto-Regular, Roboto"><tspan x="0" y="0">Distal</tspan></text>
      <text id="Inferior" transform="translate(135.321 199.319)" fill="#161615" font-size="12" font-family="Roboto-Regular, Roboto"><tspan x="0" y="0">Inferior</tspan></text>
    </g>
  </g>
</svg>
