<svg xmlns="http://www.w3.org/2000/svg" width="361.022" height="412.81" viewBox="0 0 361.022 412.81">
  <g id="Grupo_1069625" data-name="Grupo 1069625" transform="translate(-300.547 -6749.492)">
    <g id="Grupo_1069624" data-name="Grupo 1069624">
      <g id="Grupo_1069623" data-name="Grupo 1069623">
        <g id="Grupo_1054842" data-name="Grupo 1054842" transform="translate(16 45)">
          <g id="BACKGROUND" transform="translate(562.885 6698.587) rotate(73)" opacity="0.38">
            <g id="Grupo_32241" data-name="Grupo 32241">
              <path id="Trazado_61861" data-name="Trazado 61861" d="M116.836,123.358c17.242-.56,33.914,5.121,50.407,9.88s34.145,8.671,50.839,4.578c22.445-5.5,38.1-24.007,52.166-41.355s29.968-35.746,52.519-40.852c21.058-4.768,43.777,3.779,59.1,18.171s24.172,33.847,29.692,53.543c13.672,48.786,7.073,105.031-28.45,142.839-28.421,30.249-71.324,45.107-113.7,51.529-30.57,4.633-62.351,5.406-92.077-2.743-36.167-9.915-67.952-33.284-86.91-63.9C68.222,219.193,47.632,125.606,116.836,123.358Z" transform="translate(-69.318 -34.087)" fill="#e8e8e8"/>
              <path id="Trazado_61862" data-name="Trazado 61862" d="M193.686,105c17.936.332,37.25-6.27,50.665-15.634,7.437-5.191,14.086-11.805,18.055-19.96s5.019-17.976,1.559-26.36c-4.993-12.1-18.127-18.94-30.982-21.385a76.125,76.125,0,0,0-57.064,12.191c-11.521,8.034-23.6,19.468-26.588,33.775-3.222,15.414,10.052,27.241,23.117,33.018A55,55,0,0,0,193.686,105Z" transform="translate(-89.297 -20.373)" fill="#e8e8e8"/>
            </g>
          </g>
          <g id="Grupo_15686" data-name="Grupo 15686" transform="translate(403.547 6732.587)">
            <g id="Grupo_15673" data-name="Grupo 15673" transform="translate(18.702 0)">
              <g id="Grupo_15656" data-name="Grupo 15656" transform="translate(0 121.123)">
                <g id="Grupo_15655" data-name="Grupo 15655" transform="translate(0 35.523)">
                  <path id="Trazado_24696" data-name="Trazado 24696" d="M186.992-82.892l3.28,2.225h0a3.425,3.425,0,0,0-1.264-4.312l-2.932-1.879-.845-1.3-1.212,3.7Z" transform="translate(-180.124 123.455)" fill="#ffa181"/>
                  <g id="Grupo_15653" data-name="Grupo 15653" transform="translate(2.611 25.663)">
                    <path id="Trazado_24697" data-name="Trazado 24697" d="M183.544-87.606l6.066,3.869,6.153-.583s-.5-2.273-1.922-2.195a25.307,25.307,0,0,1-4.263-.445l-3.912-3.572Z" transform="translate(-183.544 93.748)" fill="#ff7e46"/>
                    <path id="Trazado_24698" data-name="Trazado 24698" d="M184.08-89.818l5.211,3.318,5.03-1.1s-.645-1.83-1.812-1.62a20.953,20.953,0,0,1-3.572.059l-3.6-2.559Z" transform="translate(-182.633 91.724)" fill="#ff7e46"/>
                    <path id="Trazado_24699" data-name="Trazado 24699" d="M183.731-89l6.253,3.982,6.037-1.323s-.775-2.2-2.173-1.947a25.094,25.094,0,0,1-4.287.073l-4.314-3.072Z" transform="translate(-183.226 92.462)" fill="#ff7e46"/>
                  </g>
                  <g id="Grupo_15654" data-name="Grupo 15654">
                    <path id="Trazado_24700" data-name="Trazado 24700" d="M194.915-76.1c-.329,1.625-1.536,4.214-1.431,5.869.186,2.956.3,7.06-1.264,7.211-2.146.2-2.065-6.866-2.114-7.165a1.536,1.536,0,0,0-1.693-1.282h0a.9.9,0,0,0-.78.729l-.221,3.134.273,1.677-1.212,3.7s-2.416-2.708-2.586-3.691c-.478-2.778-1.963-6.739-.98-8.758.448-.926,5.389-8.885,5.389-8.885l2.719-14.241a4.207,4.207,0,0,1,6.315-2.808h0l-1.69,13.939a8.735,8.735,0,0,0-.518,4.414A18.171,18.171,0,0,1,194.915-76.1Z" transform="translate(-182.577 101.229)" fill="#ffa181"/>
                    <path id="Trazado_24701" data-name="Trazado 24701" d="M187.226-87.152a1.536,1.536,0,0,0-1.693-1.282.9.9,0,0,0-.78.729l-.221,3.134s-1.183-7.9,1.493-6.515C187.072-90.543,187.275-86.852,187.226-87.152Z" transform="translate(-179.697 118.195)" fill="#ff7e46"/>
                  </g>
                </g>
                <path id="Trazado_24702" data-name="Trazado 24702" d="M192.238-61.827l10.043-45.187-7.67-7.373-3.979,3.95c-4.2,4.171-6,9.911-6.282,15.826-.543,11.255,1.118,33.41,1.118,33.41Z" transform="translate(-179.749 114.387)" fill="#ffa181"/>
              </g>
              <g id="Grupo_15657" data-name="Grupo 15657" transform="translate(65.203 288.509)">
                <path id="Trazado_24703" data-name="Trazado 24703" d="M206.728-44.63s3.869,21.66,3.869,28.815-3.1,10.832-1.936,12.57,2.9,1.547,3.288,5.416,4.255,6.963,10.443,6.963,5.934-4.881,5.221-6.768c-.348-.923-6.188-7.738-7.929-13.54s1.161-35.389,1.161-35.389S208.081-60.875,206.728-44.63Z" transform="translate(-206.728 52.387)" fill="#ffa181"/>
              </g>
              <g id="Grupo_15658" data-name="Grupo 15658" transform="translate(3.361 288.457)">
                <path id="Trazado_24704" data-name="Trazado 24704" d="M203.809-44.97s3.7,26.28,1.863,30.964c-3.286,8.4-15.286,12.246-15.286,12.246s-5.94.945-6.426,1.868.151,3.132,4.328,3.758c2.106.316,4.376.548,6.112.7a9.5,9.5,0,0,0,5.076-.983A29.571,29.571,0,0,1,213.337.417s4.339-.524,2.3-7.163S217.7-38.08,217.7-38.08,207.248-65.061,203.809-44.97Z" transform="translate(-183.822 52.407)" fill="#ffa181"/>
              </g>
              <path id="Trazado_24705" data-name="Trazado 24705" d="M253.3-106.541S222.4-72.826,216.777-74.7s-3.086-8.664.235-12.643c1.814-2.173,11.212-17.071,18.939-28.542S258.044-112.237,253.3-106.541Z" transform="translate(-130.073 225.844)" fill="#ff947a"/>
              <path id="Trazado_24706" data-name="Trazado 24706" d="M221.726-98.329l-.121-.13a1.625,1.625,0,0,1,.121-2.357h0l-.653-2.041h0a1.649,1.649,0,0,1-.116-2.149l.316-.413-4.587-3.677-3.186.659s-1.1,9.808,3.132,11.9S221.726-98.329,221.726-98.329Z" transform="translate(-130.232 244.504)" fill="#ffa181"/>
              <path id="Trazado_24707" data-name="Trazado 24707" d="M233.679-137.658c-.885,11.21-9.989,19.636-20.335,18.82s-18.234-10.589-17.128-21.779c1.2-12.138,8.888-17.365,19.142-15.772C226.613-154.64,234.564-148.87,233.679-137.658Z" transform="translate(-159.569 163.64)" fill="#ff5953"/>
              <path id="Trazado_24708" data-name="Trazado 24708" d="M198.763-119.443a15.234,15.234,0,0,0,2.846-12.94,26.211,26.211,0,0,1-.688-7.746c.988-17.206,8.88-19.725,17.857-19.017a14.126,14.126,0,0,1,8.993,4.368,8.781,8.781,0,0,0,4.39,2.414,14.838,14.838,0,0,1,11.391,16.334,10.294,10.294,0,0,0,2.651,8.453,21.483,21.483,0,0,1,5.937,13.618,10.74,10.74,0,0,0,4.762,8.186,21.538,21.538,0,0,1,8.974,22.233,21.551,21.551,0,0,1-20.413,17.1A21.509,21.509,0,0,1,225.9-77.658a13.539,13.539,0,0,0-11.1-7.195c-.186-.011-.373-.022-.559-.038C196.2-86.314,189.108-106.916,198.763-119.443Z" transform="translate(-162.418 159.251)" fill="#ff5953"/>
              <path id="Trazado_24709" data-name="Trazado 24709" d="M185.807-67.6c5.2-48.864,16.153-65.392,21.193-69.379,0,0,2.2,24.557,1.031,42.867-.694,10.859-7.225,28.861-12.16,27.554C186.12-69.138,185.807-67.6,185.807-67.6Z" transform="translate(-177.087 197.113)" fill="#ffa181"/>
              <path id="Trazado_24710" data-name="Trazado 24710" d="M202.58-37.8s-10.367-43.6-10.105-60.289c.1-6.388,3.2-34.409,3.2-34.409s14.139-7.43,24.892-7.1c13.048.4,30.732,7.738,30.732,7.738s3.013,9.5,1.779,18.788c-1.922,14.471-8.55,31.633-9.817,36.212C229.627-27.548,216.128-29.881,202.58-37.8Z" transform="translate(-165.761 192.638)" fill="#ffa181"/>
              <path id="Trazado_24711" data-name="Trazado 24711" d="M194.769-109.277c4.784-7.865,6.428-17.4,5.462-26.7,1.374-.624,3.17-1.393,5.205-2.16a83.628,83.628,0,0,0,2.149,15.648c1.1,4.347,2.662,10.186,7.578,11.552,5.486,1.523,11.8-3.075,14.649-7.063,4.468-6.266,10.248-20.392,10.248-20.392,2.8.815,5.367,1.663,7.454,2.4-2.387,4.411-5.918,18.718-4.965,28.577.537,5.572,2.838,10.988,6.93,14.409-2.02,6.517-3.936,11.812-4.56,14.061-.224.813-.448,1.606-.672,2.389-4.455-1.11-37.214-5.753-48.062-3.35a45.983,45.983,0,0,0-1.139-5.167s-2.476-2.362-2.908-3.747c-1.434-4.6-.038-5.651,0-8.118C192.169-98.685,194.415-105.3,194.769-109.277Z" transform="translate(-167.42 194.716)" fill="#7b1fa2"/>
              <path id="Trazado_24712" data-name="Trazado 24712" d="M205.828-110.346h40.343s23.054-.448,20.462,60.57c-.656,15.437-6.609,35.843-9.19,56.034,1.906,20.324-5.8,65.813-5.8,65.813l-9.865.157C238.25,50.351,235.6,29.415,235.388,11.1l-9.946-59.871L213.368,13.275c1.647,14.428-.251,35.084-3.958,58.912h-10.2L190.587,9.1C183.071-58.785,191.181-102.573,205.828-110.346Z" transform="translate(-173.811 242.379)" fill="#ffa181"/>
              <path id="Trazado_24713" data-name="Trazado 24713" d="M223.408-62.792C211.445-77.106,188.9-79.09,188.9-79.09c3.116-16.974,8.372-27.762,14.957-31.256,9.919,6.174,22.873,7.041,40.343,0,0,0,14.525-.278,19.22,30.13C250.179-82.049,226.658-70.44,223.408-62.792Z" transform="translate(-171.836 242.379)" fill="#7b1fa2"/>
              <path id="Trazado_24714" data-name="Trazado 24714" d="M202.694-133.937s1.766-3.234,3.148-2.73a72.068,72.068,0,0,0,7.651,1.264s-6.445.043-7.576.864S202.24-133.2,202.694-133.937Z" transform="translate(-148.474 197.549)" fill="#ff7454"/>
              <path id="Trazado_24715" data-name="Trazado 24715" d="M207.2-133.769s-1.237-3.472-2.681-3.191a61.837,61.837,0,0,1-6.515.273s5.116.832,6.1,1.82S207.528-132.967,207.2-133.769Z" transform="translate(-156.361 197.113)" fill="#ff7454"/>
              <g id="Grupo_15660" data-name="Grupo 15660" transform="translate(47.127 37.278)">
                <g id="Grupo_15659" data-name="Grupo 15659">
                  <path id="Trazado_24716" data-name="Trazado 24716" d="M215.421-145.311l-.61,22.548-14.779-1.167,1.547-21.513Z" transform="translate(-200.033 145.443)" fill="#ffa181"/>
                </g>
              </g>
              <path id="Trazado_24717" data-name="Trazado 24717" d="M207.761-117.587h0c7.19.221,18.885-8.28,19.1-15.473,0,0,1.55-10.964-.373-14.425-3.337-6.01-17.711-7.017-23.467-6.18-8.818,1.285-7.705,17.573-7.705,17.573C194.262-122.706,204.616-117.682,207.761-117.587Z" transform="translate(-161.044 168.31)" fill="#ff8f68"/>
              <path id="Trazado_24718" data-name="Trazado 24718" d="M201.345-145.443l13.718.13a6.162,6.162,0,0,1-2.2,4.3c-.362,6.911-7.478,11.9-12.692,11.9Z" transform="translate(-152.671 182.721)" fill="#ff7454"/>
              <path id="Trazado_24719" data-name="Trazado 24719" d="M207.761-117.587h0c7.19.221,18.885-8.28,19.1-15.473,0,0,1.55-10.964-.373-14.425-3.337-6.01-17.711-7.017-23.467-6.18-8.818,1.285-7.705,17.573-7.705,17.573C194.262-122.706,204.616-117.682,207.761-117.587Z" transform="translate(-161.044 168.31)" fill="#ffa181"/>
              <path id="Trazado_24720" data-name="Trazado 24720" d="M213.161-143.582c-.246,3.083-3.2,5.516-6.909,5.416l.383-11.191C210.345-149.257,213.6-149.111,213.161-143.582Z" transform="translate(-142.334 176.068)" fill="#ffa181"/>
              <path id="Trazado_24721" data-name="Trazado 24721" d="M208.425-147.712a.413.413,0,0,1,.764-.227,2.449,2.449,0,0,1,.194,2.405c-.613,1.4-1.814,2.743-2.335,2.141s.043-.448.95-2.252A4.412,4.412,0,0,0,208.425-147.712Z" transform="translate(-141.319 178.146)" fill="#ff7454"/>
              <path id="Trazado_24722" data-name="Trazado 24722" d="M222.272-152.583c-5.251-2.1-25.022-3.032-25.022-3.032a29.067,29.067,0,0,0,11.328,11.871,35.3,35.3,0,0,0,7.748,3.2,7.433,7.433,0,0,1,5.281,6h0l.162-.7a4.129,4.129,0,0,1,4.557-3.143h0S227.523-150.48,222.272-152.583Z" transform="translate(-157.636 165.431)" fill="#ff5953"/>
              <g id="Grupo_15661" data-name="Grupo 15661" transform="translate(49.755 30.922)">
                <path id="Trazado_24723" data-name="Trazado 24723" d="M205.061-145.156a2.837,2.837,0,0,0-.375-1.687,1.9,1.9,0,0,0-1.458-.948,1.842,1.842,0,0,0-1.334.456,2.713,2.713,0,0,0-.888,1.857l1.7.135a1.051,1.051,0,0,1,.3-.7l.235.084a1.117,1.117,0,0,1,.132.667Z" transform="translate(-201.006 147.797)" fill="#28121e"/>
              </g>
              <g id="Grupo_15662" data-name="Grupo 15662" transform="translate(37.523 30.742)">
                <path id="Trazado_24724" data-name="Trazado 24724" d="M196.482-146.33c-.07.9.4,1.669,1.05,1.72s1.239-.634,1.309-1.531-.4-1.668-1.05-1.72S196.553-147.227,196.482-146.33Z" transform="translate(-196.475 147.864)" fill="#28121e"/>
              </g>
              <g id="Grupo_15663" data-name="Grupo 15663" transform="translate(46.636 26.914)">
                <path id="Trazado_24725" data-name="Trazado 24725" d="M207.732-146.351l.934-1.4c-.178-.119-4.406-2.875-8.815-.683l.751,1.509C204.144-148.694,207.694-146.375,207.732-146.351Z" transform="translate(-199.851 149.282)" fill="#ff7454"/>
              </g>
              <g id="Grupo_15664" data-name="Grupo 15664" transform="translate(34.703 25.978)">
                <path id="Trazado_24726" data-name="Trazado 24726" d="M203.987-135.966l.335-1.65a1.734,1.734,0,0,1-.683-.221c.059-.068.391-.715.686-1.29.248-.486.54-1.061.845-1.736a6.228,6.228,0,0,0,.319-.886,6,6,0,0,0-.9-5.086,6.572,6.572,0,0,0-4.927-2.77,8.047,8.047,0,0,0-4.233.818l.751,1.507a6.417,6.417,0,0,1,3.361-.645,4.906,4.906,0,0,1,3.672,2.06,4.275,4.275,0,0,1,.651,3.666,4.456,4.456,0,0,1-.235.648c-.289.645-.57,1.191-.807,1.658-.632,1.234-1.048,2.046-.661,2.848A2.376,2.376,0,0,0,203.987-135.966Z" transform="translate(-195.431 149.628)" fill="#ff7454"/>
              </g>
              <g id="Grupo_15665" data-name="Grupo 15665" transform="translate(41.018 42.699)">
                <path id="Trazado_24727" data-name="Trazado 24727" d="M201.363-140.673a4.988,4.988,0,0,0,2.473-.643l-.861-1.45a3.207,3.207,0,0,1-3.99-.67l-1.215,1.166A4.87,4.87,0,0,0,201.363-140.673Z" transform="translate(-197.77 143.435)" fill="#ff7454"/>
              </g>
              <path id="Trazado_24728" data-name="Trazado 24728" d="M203.031-145.109a.523.523,0,0,0,.48.564.525.525,0,0,0,.564-.481.526.526,0,0,0-.481-.564A.524.524,0,0,0,203.031-145.109Z" transform="translate(-147.812 182.468)" fill="#ff7454"/>
              <path id="Trazado_24729" data-name="Trazado 24729" d="M202.135-144.82a.228.228,0,0,0,.208.243.228.228,0,0,0,.243-.208.226.226,0,0,0-.208-.243A.226.226,0,0,0,202.135-144.82Z" transform="translate(-149.333 183.426)" fill="#ff7454"/>
              <path id="Trazado_24730" data-name="Trazado 24730" d="M203.141-144.083a.46.46,0,0,0,.424.494.456.456,0,0,0,.494-.421.46.46,0,0,0-.421-.494A.46.46,0,0,0,203.141-144.083Z" transform="translate(-147.625 184.314)" fill="#ff7454"/>
              <path id="Trazado_24731" data-name="Trazado 24731" d="M204.1-144.924a.258.258,0,0,0,.235.275.254.254,0,0,0,.273-.235.253.253,0,0,0-.232-.275A.257.257,0,0,0,204.1-144.924Z" transform="translate(-145.988 183.203)" fill="#ff7454"/>
              <path id="Trazado_24732" data-name="Trazado 24732" d="M202.1-143.733a.386.386,0,0,0,.354.413.385.385,0,0,0,.416-.354.386.386,0,0,0-.354-.413A.383.383,0,0,0,202.1-143.733Z" transform="translate(-149.389 185.023)" fill="#ff7454"/>
              <path id="Trazado_24733" data-name="Trazado 24733" d="M201.163-145.231a.344.344,0,0,0,.316.37.345.345,0,0,0,.37-.316.345.345,0,0,0-.316-.373A.345.345,0,0,0,201.163-145.231Z" transform="translate(-150.987 182.538)" fill="#ff7454"/>
              <path id="Trazado_24734" data-name="Trazado 24734" d="M202.1-144.136a.6.6,0,0,0-.551-.643.6.6,0,0,0-.643.548.6.6,0,0,0,.548.645A.6.6,0,0,0,202.1-144.136Z" transform="translate(-151.423 183.847)" fill="#ff7454"/>
              <path id="Trazado_24735" data-name="Trazado 24735" d="M196.725-145.53a.461.461,0,0,0,.421.494.459.459,0,0,0,.491-.421.455.455,0,0,0-.419-.491A.457.457,0,0,0,196.725-145.53Z" transform="translate(-158.531 181.858)" fill="#ff7454"/>
              <path id="Trazado_24736" data-name="Trazado 24736" d="M197.284-144.205a.638.638,0,0,0-.586-.686.638.638,0,0,0-.686.586.64.64,0,0,0,.586.686A.638.638,0,0,0,197.284-144.205Z" transform="translate(-159.743 183.656)" fill="#ff7454"/>
              <path id="Trazado_24737" data-name="Trazado 24737" d="M195.7-145.383a.372.372,0,0,0,.343.4.37.37,0,0,0,.4-.34.372.372,0,0,0-.34-.4A.372.372,0,0,0,195.7-145.383Z" transform="translate(-160.276 182.243)" fill="#ff7454"/>
              <path id="Trazado_24738" data-name="Trazado 24738" d="M224.233-133.617s-13.812-6.312-29.458-4.106c0,0-2.692-12.627,5.494-17.813C205.561-158.89,228.977-156.689,224.233-133.617Z" transform="translate(-162.562 163.446)" fill="#ff5953"/>
              <path id="Trazado_24739" data-name="Trazado 24739" d="M218.751-136.646s5.721,1.957,18.164,23.361c14.39,24.757,21.385,26.731,20.343,32.724s-13.55,5.734-21.952-2.335c-5.451-5.238-20.732-18.072-23.075-26.758S215.355-136.473,218.751-136.646Z" transform="translate(-133.135 197.674)" fill="#ffa181"/>
              <g id="Grupo_15671" data-name="Grupo 15671" transform="translate(22.928 84.439)">
                <g id="Grupo_15666" data-name="Grupo 15666" transform="translate(49.859 13.122)">
                  <path id="Trazado_24740" data-name="Trazado 24740" d="M210.551-103.289a1.013,1.013,0,0,0,.98-.764l4.544-17.8a1.012,1.012,0,0,0-.732-1.231,1.015,1.015,0,0,0-1.234.729l-4.541,17.8a1.012,1.012,0,0,0,.729,1.231A1.039,1.039,0,0,0,210.551-103.289Z" transform="translate(-209.537 123.114)" fill="#621989"/>
                </g>
                <g id="Grupo_15667" data-name="Grupo 15667">
                  <path id="Trazado_24741" data-name="Trazado 24741" d="M196.195-101.291a1.009,1.009,0,0,0,.845-.454,1.015,1.015,0,0,0-.281-1.4,9.116,9.116,0,0,1-3.129-10.527,110.335,110.335,0,0,0,2.935-13.11,1.014,1.014,0,0,0-.823-1.174,1.015,1.015,0,0,0-1.172.823,108.932,108.932,0,0,1-2.873,12.854,11.284,11.284,0,0,0,3.944,12.824A1,1,0,0,0,196.195-101.291Z" transform="translate(-191.07 127.974)" fill="#621989"/>
                </g>
                <g id="Grupo_15668" data-name="Grupo 15668" transform="translate(25.389 21.315)">
                  <path id="Trazado_24742" data-name="Trazado 24742" d="M211.149-114.735a22.11,22.11,0,0,0,11.447-3.5,1.015,1.015,0,0,0,.243-1.412,1.016,1.016,0,0,0-1.412-.243c-.41.286-10.173,6.993-19.328.022a1.017,1.017,0,0,0-1.42.192,1.015,1.015,0,0,0,.194,1.42A16.615,16.615,0,0,0,211.149-114.735Z" transform="translate(-200.474 120.079)" fill="#621989"/>
                </g>
                <g id="Grupo_15669" data-name="Grupo 15669" transform="translate(24.435 57.628)">
                  <path id="Trazado_24743" data-name="Trazado 24743" d="M204.328-68.1a.936.936,0,0,0,.243-.03,1.012,1.012,0,0,0,.742-1.223,143.475,143.475,0,0,1-3.035-36.223,1.012,1.012,0,0,0-.969-1.056,1.043,1.043,0,0,0-1.056.967,145.748,145.748,0,0,0,3.091,36.793A1.013,1.013,0,0,0,204.328-68.1Z" transform="translate(-200.12 106.629)" fill="#621989"/>
                </g>
                <g id="Grupo_15670" data-name="Grupo 15670" transform="translate(3.407 50.543)">
                  <path id="Trazado_24744" data-name="Trazado 24744" d="M215.578-100.086c8.016,0,18.351-1.812,31.35-7.219a1.012,1.012,0,0,0,.548-1.323,1.017,1.017,0,0,0-1.326-.548c-37.171,15.464-51.92.4-52.066.246a1.016,1.016,0,0,0-1.431-.049,1.011,1.011,0,0,0-.051,1.428C193.015-107.106,199.8-100.086,215.578-100.086Z" transform="translate(-192.332 109.254)" fill="#621989"/>
                </g>
              </g>
              <g id="Grupo_15672" data-name="Grupo 15672" transform="translate(73.289 133.831)">
                <path id="Trazado_24745" data-name="Trazado 24745" d="M216.78-109.68l7.757.57a1.566,1.566,0,0,1,1.493,1.547c-.03.856-.5,1.9-1.366,1.841l-7.125-.419-3.826,1.234a3,3,0,0,1-3.99-1.417h0Z" transform="translate(-209.723 109.68)" fill="#ffa181"/>
                <path id="Trazado_24746" data-name="Trazado 24746" d="M216.532-106.513l9.123-2.19c.853-.3,1.663.778,1.828,1.712.13.734-.305,2.211-1.01,2.454l-7.26.94-5.251,2.991a3.911,3.911,0,0,1-4.239-1.007Z" transform="translate(-209.723 111.254)" fill="#ffa181"/>
                <path id="Trazado_24747" data-name="Trazado 24747" d="M217.292-105.911l7.295-1.169c.888-.073,2.173,1.347,2.082,2.292a1.578,1.578,0,0,1-1.5,1.347l-6.822.459-3.6,2.605a2.993,2.993,0,0,1-4.179-.67h0Z" transform="translate(-208.28 114.094)" fill="#ffa181"/>
                <path id="Trazado_24748" data-name="Trazado 24748" d="M217.718-104.806l4.881-.583a1.5,1.5,0,0,1,1.674,1.558,1.56,1.56,0,0,1-1.407,1.426l-4.252.5-2.594,1.35a2.994,2.994,0,0,1-4.036-1.274h0Z" transform="translate(-205.88 116.955)" fill="#ffa181"/>
              </g>
            </g>
            <g id="Grupo_15677" data-name="Grupo 15677" transform="translate(32.215 90.85)">
              <g id="Grupo_15674" data-name="Grupo 15674" transform="translate(6.887)">
                <path id="Trazado_24749" data-name="Trazado 24749" d="M262.755-110.605a2,2,0,0,1-1.169-.375c-.294-.208-29.838-20.643-68.637-4.141a2.021,2.021,0,0,1-2.654-1.072,2.022,2.022,0,0,1,1.069-2.654c40.956-17.422,72.255,4.347,72.568,4.568a2.021,2.021,0,0,1,.475,2.821A2.02,2.02,0,0,1,262.755-110.605Z" transform="translate(-190.133 125.6)" fill="#fff"/>
              </g>
              <g id="Grupo_15676" data-name="Grupo 15676" transform="translate(0 2.721)">
                <g id="Grupo_15675" data-name="Grupo 15675">
                  <path id="Trazado_24750" data-name="Trazado 24750" d="M198.524-119.47l4.268,2.832-.092.154-7.668.462q-3.726.842-7.451,1.679,3.029-2.325,6.058-4.652l5.259-5.6.167.005Z" transform="translate(-187.582 124.592)" fill="#fff"/>
                </g>
              </g>
            </g>
            <g id="Grupo_15681" data-name="Grupo 15681" transform="translate(30.19 148.308)">
              <g id="Grupo_15678" data-name="Grupo 15678">
                <path id="Trazado_24751" data-name="Trazado 24751" d="M228.044-89.327c-24.09,0-40.138-11.161-40.362-11.32a2.02,2.02,0,0,1-.475-2.819,2.03,2.03,0,0,1,2.824-.481c.292.208,29.83,20.648,68.632,4.141a2.027,2.027,0,0,1,2.657,1.072,2.024,2.024,0,0,1-1.072,2.657A81.719,81.719,0,0,1,228.044-89.327Z" transform="translate(-186.832 104.318)" fill="#fff"/>
              </g>
              <g id="Grupo_15680" data-name="Grupo 15680" transform="translate(66.326 2.024)">
                <g id="Grupo_15679" data-name="Grupo 15679">
                  <path id="Trazado_24752" data-name="Trazado 24752" d="M215.667-98.441l-4.268-2.835.092-.151,7.667-.462q3.726-.842,7.452-1.679-3.029,2.325-6.058,4.652l-5.259,5.6-.167-.005Z" transform="translate(-211.399 103.568)" fill="#fff"/>
                </g>
              </g>
            </g>
            <g id="Grupo_15685" data-name="Grupo 15685" transform="translate(0 70.656)">
              <g id="Grupo_15682" data-name="Grupo 15682" transform="translate(0 7.693)">
                <path id="Trazado_24753" data-name="Trazado 24753" d="M177.678-50.744a1.923,1.923,0,0,1-.391-.038,2.024,2.024,0,0,1-1.6-2.376l14.773-75.435a2.025,2.025,0,0,1,2.376-1.6,2.024,2.024,0,0,1,1.6,2.376L179.662-52.38A2.025,2.025,0,0,1,177.678-50.744Z" transform="translate(-175.65 130.23)" fill="#fff"/>
              </g>
              <g id="Grupo_15684" data-name="Grupo 15684" transform="translate(11.505)">
                <g id="Grupo_15683" data-name="Grupo 15683">
                  <path id="Trazado_24754" data-name="Trazado 24754" d="M184.787-121.22l-4.808,1.771-.068-.165,4.152-6.461,3.045-7.006q.089,3.819.178,7.638l1.409,7.549-.1.132Z" transform="translate(-179.911 133.08)" fill="#fff"/>
                </g>
              </g>
            </g>
          </g>
        </g>
      </g>
    </g>
  </g>
</svg>
