<svg xmlns="http://www.w3.org/2000/svg" width="349.968" height="317.217" viewBox="0 0 349.968 317.217">
  <g id="Grupo_1078857" data-name="Grupo 1078857" transform="translate(-400.032 -2893.995)">
    <text id="Tórax_máximo_Tórax_máximo_Pecho_Bajo_busto_Sep._de_busto_Cintura_Cadera_Cuello_Rodilla_Tobillo_Brazo_Muñeca_Ancho_Espalda" data-name="Tórax máximo
Tórax máximo	
Pecho
Bajo busto
Sep. de busto
Cintura
Cadera
Cuello
Rodilla
Tobillo
Brazo
Muñeca
Ancho Espalda" transform="translate(400.032 2893.995)" fill="#12263f" font-size="16" font-family="SegoeUI, Segoe UI"><tspan x="0" y="17">Tórax máximo</tspan><tspan x="0" y="41">Tórax máximo	</tspan><tspan x="0" y="65">Pecho</tspan><tspan x="0" y="89">Bajo busto</tspan><tspan x="0" y="113">Sep. de busto</tspan><tspan x="0" y="137">Cintura</tspan><tspan x="0" y="161">Cadera</tspan><tspan x="0" y="185">Cuello</tspan><tspan x="0" y="209">Rodilla</tspan><tspan x="0" y="233">Tobillo</tspan><tspan x="0" y="257">Brazo</tspan><tspan x="0" y="281">Muñeca</tspan><tspan x="0" y="305">Ancho Espalda</tspan></text>
    <text id="Busto_Talla_36_Tórax_máximo_-2_Busto_-6_2_5_busto_Busto_-10_Busto_4_1_2_busto_12_1_4_busto_24_1_8_busto_25.5_Busto_-12_1_4_busto_5_Busto_-8" data-name="BustoTalla +36Tórax máximo -2Busto -62/5 bustoBusto -10Busto +41/2 busto + 121/4 busto + 241/8 busto + 25.5Busto -121/4 busto + 5Busto -8" transform="translate(600 2894.212)" fill="#12263f" font-size="16" font-family="SegoeUI, Segoe UI"><tspan x="0" y="17">Busto</tspan><tspan x="0" y="41">Talla +36</tspan><tspan x="0" y="65">Tórax máximo -2</tspan><tspan x="0" y="89">Busto -6</tspan><tspan x="0" y="113">2/5 busto</tspan><tspan x="0" y="137">Busto -10</tspan><tspan x="0" y="161">Busto +4</tspan><tspan x="0" y="185">1/2 busto + 12</tspan><tspan x="0" y="209">1/4 busto + 24</tspan><tspan x="0" y="233">1/8 busto + 25.5</tspan><tspan x="0" y="257">Busto -12</tspan><tspan x="0" y="281">1/4 busto + 5</tspan><tspan x="0" y="305">Busto -8</tspan></text>
    <text id="_" data-name="========
=
=
=
=
=" transform="translate(558 2894.212)" fill="#12263f" font-size="16" font-family="SegoeUI, Segoe UI"><tspan x="-5.473" y="17">=</tspan><tspan x="-5.473" y="41">=</tspan><tspan x="-5.473" y="65">=</tspan><tspan x="-5.473" y="89">=</tspan><tspan x="-5.473" y="113">=</tspan><tspan x="-5.473" y="137">=</tspan><tspan x="-5.473" y="161">=</tspan><tspan x="-5.473" y="185">=</tspan><tspan x="-5.473" y="209">=</tspan><tspan x="-5.473" y="233">=</tspan><tspan x="-5.473" y="257">=</tspan><tspan x="-5.473" y="281">=</tspan><tspan x="-5.473" y="305">=</tspan></text>
  </g>
</svg>
