<svg xmlns="http://www.w3.org/2000/svg" width="400" height="389" viewBox="0 0 400 389">
  <g id="Grupo_1078509" data-name="Grupo 1078509" transform="translate(12016 6633.42)">
    <path id="Trazado_841101" data-name="Trazado 841101" d="M20,0H380c11.046,0,20,7.318,20,16.345V372.655c0,9.027-8.954,16.345-20,16.345H20c-11.046,0-20-7.318-20-16.345V16.345C0,7.318,8.954,0,20,0Z" transform="translate(-12016 -6633.42)" fill="#ffd54f"/>
    <path id="Trazado_841132" data-name="Trazado 841132" d="M62.047,5.938l3.809,11.871,3.8-11.871h5.414V23H70.941V19.016l.4-8.156L67.215,23H64.5L60.359,10.848l.4,8.168V23H56.645V5.938Zm21.586,17.3a6.518,6.518,0,0,1-4.723-1.74,6.009,6.009,0,0,1-1.8-4.529v-.328a7.787,7.787,0,0,1,.721-3.434,5.274,5.274,0,0,1,2.1-2.3,6.35,6.35,0,0,1,3.281-.814,5.489,5.489,0,0,1,4.219,1.658,6.516,6.516,0,0,1,1.547,4.623V17.9H81.125a2.846,2.846,0,0,0,.926,1.676,2.755,2.755,0,0,0,1.852.609,3.549,3.549,0,0,0,2.93-1.312l1.8,2.133a5.045,5.045,0,0,1-2.092,1.623A7.069,7.069,0,0,1,83.633,23.234Zm-.445-10.1q-1.734,0-2.062,2.3h3.984v-.3a1.956,1.956,0,0,0-.48-1.471A1.912,1.912,0,0,0,83.188,13.133Zm14.016,6.3a.912.912,0,0,0-.527-.809,8.021,8.021,0,0,0-2-.633,9.138,9.138,0,0,1-2.437-.861A4.083,4.083,0,0,1,90.77,15.84a3.092,3.092,0,0,1-.5-1.746,3.5,3.5,0,0,1,1.441-2.877,5.938,5.938,0,0,1,3.773-1.131,6.579,6.579,0,0,1,4.031,1.137,3.555,3.555,0,0,1,1.523,2.988H97.074q0-1.523-1.605-1.523a1.591,1.591,0,0,0-1.043.346,1.07,1.07,0,0,0-.422.861.982.982,0,0,0,.516.855,4.872,4.872,0,0,0,1.646.539,14.228,14.228,0,0,1,1.986.5q2.859.984,2.859,3.527a3.321,3.321,0,0,1-1.541,2.824,6.758,6.758,0,0,1-3.99,1.09,6.9,6.9,0,0,1-2.906-.586,4.86,4.86,0,0,1-1.992-1.594,3.609,3.609,0,0,1-.715-2.121h3.691a1.526,1.526,0,0,0,.586,1.283,2.41,2.41,0,0,0,1.441.4,1.9,1.9,0,0,0,1.213-.328A1.05,1.05,0,0,0,97.2,19.438Zm5.156-2.895a7.484,7.484,0,0,1,.738-3.381,5.28,5.28,0,0,1,2.121-2.279,6.388,6.388,0,0,1,3.246-.8,5.83,5.83,0,0,1,4.488,1.764,6.768,6.768,0,0,1,1.641,4.8v.141a6.566,6.566,0,0,1-1.646,4.705,5.846,5.846,0,0,1-4.459,1.74,5.912,5.912,0,0,1-4.348-1.623,6.348,6.348,0,0,1-1.77-4.4Zm3.949.246a4.718,4.718,0,0,0,.551,2.578,1.835,1.835,0,0,0,1.629.82q2.109,0,2.156-3.246v-.4q0-3.41-2.18-3.41-1.98,0-2.145,2.941Zm13.758-6.469.129,1.488a4.36,4.36,0,0,1,3.621-1.723A3.21,3.21,0,0,1,127.063,12a4.22,4.22,0,0,1,3.727-1.91q3.855,0,3.961,4.664V23h-3.961V15a2.417,2.417,0,0,0-.328-1.418,1.4,1.4,0,0,0-1.2-.445,1.871,1.871,0,0,0-1.746,1.043l.012.164V23H123.57V15.02a2.541,2.541,0,0,0-.316-1.441,1.393,1.393,0,0,0-1.207-.445,1.894,1.894,0,0,0-1.734,1.043V23h-3.949V10.32Zm16.441,6.223a7.484,7.484,0,0,1,.738-3.381,5.28,5.28,0,0,1,2.121-2.279,6.388,6.388,0,0,1,3.246-.8A5.83,5.83,0,0,1,147.1,11.85a6.768,6.768,0,0,1,1.641,4.8v.141a6.566,6.566,0,0,1-1.646,4.705,5.846,5.846,0,0,1-4.459,1.74,5.912,5.912,0,0,1-4.348-1.623,6.348,6.348,0,0,1-1.77-4.4Zm3.949.246a4.718,4.718,0,0,0,.551,2.578,1.835,1.835,0,0,0,1.629.82q2.109,0,2.156-3.246v-.4q0-3.41-2.18-3.41-1.98,0-2.145,2.941Zm17.7-2.895-1.3-.094a2.336,2.336,0,0,0-2.391,1.172V23h-3.949V10.32h3.7l.129,1.629a3.058,3.058,0,0,1,2.777-1.863,3.851,3.851,0,0,1,1.1.141ZM160.684,23V13.063h-1.84V10.32h1.84V9.313a4.381,4.381,0,0,1,1.277-3.363,5.047,5.047,0,0,1,3.586-1.2A7.853,7.853,0,0,1,167.4,5l.012,2.906a3.608,3.608,0,0,0-.973-.105q-1.793,0-1.793,1.547v.973h2.473v2.742h-2.473V23Zm7.324-6.457a7.484,7.484,0,0,1,.738-3.381,5.28,5.28,0,0,1,2.121-2.279,6.388,6.388,0,0,1,3.246-.8A5.83,5.83,0,0,1,178.6,11.85a6.768,6.768,0,0,1,1.641,4.8v.141a6.566,6.566,0,0,1-1.646,4.705,5.846,5.846,0,0,1-4.459,1.74,5.912,5.912,0,0,1-4.348-1.623,6.348,6.348,0,0,1-1.77-4.4Zm3.949.246a4.718,4.718,0,0,0,.551,2.578,1.835,1.835,0,0,0,1.629.82q2.109,0,2.156-3.246v-.4q0-3.41-2.18-3.41-1.98,0-2.145,2.941Zm23.719.375h-7.043V14.117h7.043ZM28.355,53.234a6.518,6.518,0,0,1-4.723-1.74,6.009,6.009,0,0,1-1.8-4.529v-.328a7.787,7.787,0,0,1,.721-3.434,5.274,5.274,0,0,1,2.1-2.3,6.35,6.35,0,0,1,3.281-.814,5.489,5.489,0,0,1,4.219,1.658A6.516,6.516,0,0,1,33.7,46.367V47.9H25.848a2.846,2.846,0,0,0,.926,1.676,2.755,2.755,0,0,0,1.852.609,3.549,3.549,0,0,0,2.93-1.312l1.8,2.133a5.045,5.045,0,0,1-2.092,1.623A7.069,7.069,0,0,1,28.355,53.234Zm-.445-10.1q-1.734,0-2.062,2.3h3.984v-.3a1.956,1.956,0,0,0-.48-1.471A1.912,1.912,0,0,0,27.91,43.133Zm14.016,6.3a.912.912,0,0,0-.527-.809,8.021,8.021,0,0,0-2-.633,9.138,9.138,0,0,1-2.437-.861,4.083,4.083,0,0,1-1.465-1.295,3.092,3.092,0,0,1-.5-1.746,3.5,3.5,0,0,1,1.441-2.877A5.938,5.938,0,0,1,40.2,40.086a6.579,6.579,0,0,1,4.031,1.137,3.555,3.555,0,0,1,1.523,2.988H41.8q0-1.523-1.605-1.523a1.591,1.591,0,0,0-1.043.346,1.07,1.07,0,0,0-.422.861.982.982,0,0,0,.516.855,4.872,4.872,0,0,0,1.646.539,14.228,14.228,0,0,1,1.986.5q2.859.984,2.859,3.527a3.321,3.321,0,0,1-1.541,2.824,6.758,6.758,0,0,1-3.99,1.09,6.9,6.9,0,0,1-2.906-.586A4.86,4.86,0,0,1,35.3,51.055a3.609,3.609,0,0,1-.715-2.121h3.691a1.526,1.526,0,0,0,.586,1.283,2.41,2.41,0,0,0,1.441.4,1.9,1.9,0,0,0,1.213-.328A1.05,1.05,0,0,0,41.926,49.438ZM52.18,37.168V40.32h2.086v2.742H52.18v5.8a1.481,1.481,0,0,0,.258,1,1.383,1.383,0,0,0,1.02.281,5.793,5.793,0,0,0,.984-.07v2.824a7.288,7.288,0,0,1-2.227.34,4.137,4.137,0,0,1-3.012-.961,3.939,3.939,0,0,1-.973-2.918V43.063H46.613V40.32H48.23V37.168Zm11.309,6.727-1.3-.094A2.336,2.336,0,0,0,59.8,44.973V53H55.848V40.32h3.7l.129,1.629a3.058,3.058,0,0,1,2.777-1.863,3.851,3.851,0,0,1,1.1.141Zm8.977,7.734a4.072,4.072,0,0,1-3.387,1.605,3.993,3.993,0,0,1-3.158-1.213,5.1,5.1,0,0,1-1.072-3.486V40.32H68.8v8.238a1.419,1.419,0,0,0,1.582,1.629,2.064,2.064,0,0,0,1.934-.973V40.32h3.973V53h-3.7Zm11.344-1.441a1.756,1.756,0,0,0,1.289-.451,1.654,1.654,0,0,0,.445-1.26h3.7A4.384,4.384,0,0,1,87.752,51.9a5.558,5.558,0,0,1-3.85,1.336A5.627,5.627,0,0,1,79.543,51.5a6.834,6.834,0,0,1-1.594-4.8v-.164a7.723,7.723,0,0,1,.709-3.393A5.162,5.162,0,0,1,80.7,40.877a6.1,6.1,0,0,1,3.164-.791,5.488,5.488,0,0,1,3.926,1.371,4.863,4.863,0,0,1,1.453,3.715h-3.7a2.168,2.168,0,0,0-.48-1.512,1.658,1.658,0,0,0-1.289-.527q-1.535,0-1.793,1.957A13.809,13.809,0,0,0,81.9,46.8a5.424,5.424,0,0,0,.457,2.648A1.582,1.582,0,0,0,83.809,50.188Zm11.707-13.02V40.32H97.6v2.742H95.516v5.8a1.481,1.481,0,0,0,.258,1,1.383,1.383,0,0,0,1.02.281,5.793,5.793,0,0,0,.984-.07v2.824a7.288,7.288,0,0,1-2.227.34,4.137,4.137,0,0,1-3.012-.961,3.939,3.939,0,0,1-.973-2.918V43.063H89.949V40.32h1.617V37.168Zm11.191,14.461a4.072,4.072,0,0,1-3.387,1.605,3.993,3.993,0,0,1-3.158-1.213,5.1,5.1,0,0,1-1.072-3.486V40.32h3.949v8.238a1.419,1.419,0,0,0,1.582,1.629,2.064,2.064,0,0,0,1.934-.973V40.32h3.973V53h-3.7Zm13.652-7.734-1.3-.094a2.336,2.336,0,0,0-2.391,1.172V53h-3.949V40.32h3.7l.129,1.629a3.058,3.058,0,0,1,2.777-1.863,3.851,3.851,0,0,1,1.1.141ZM128.574,53a4.459,4.459,0,0,1-.375-1.137,3.672,3.672,0,0,1-3.047,1.371,4.5,4.5,0,0,1-3.047-1.084,3.45,3.45,0,0,1-1.254-2.725,3.546,3.546,0,0,1,1.523-3.117,7.761,7.761,0,0,1,4.43-1.055h1.219v-.671q0-1.755-1.512-1.755a1.236,1.236,0,0,0-1.406,1.39h-3.949a3.54,3.54,0,0,1,1.564-2.985,6.575,6.575,0,0,1,3.99-1.147,5.764,5.764,0,0,1,3.832,1.184,4.115,4.115,0,0,1,1.441,3.246v5.613a5.748,5.748,0,0,0,.539,2.672V53ZM126.1,50.422a2.2,2.2,0,0,0,1.225-.316,1.983,1.983,0,0,0,.7-.715V47.363h-1.148q-2.062,0-2.062,1.852a1.131,1.131,0,0,0,.363.873A1.315,1.315,0,0,0,126.1,50.422Zm17.777-10.1.129,1.488a4.36,4.36,0,0,1,3.621-1.723A3.21,3.21,0,0,1,150.875,42a4.22,4.22,0,0,1,3.727-1.91q3.855,0,3.961,4.664V53H154.6V45a2.417,2.417,0,0,0-.328-1.418,1.4,1.4,0,0,0-1.2-.445,1.871,1.871,0,0,0-1.746,1.043l.012.164V53h-3.961V45.02a2.541,2.541,0,0,0-.316-1.441,1.393,1.393,0,0,0-1.207-.445,1.894,1.894,0,0,0-1.734,1.043V53h-3.949V40.32Zm23.074,12.914a6.518,6.518,0,0,1-4.723-1.74,6.009,6.009,0,0,1-1.8-4.529v-.328a7.787,7.787,0,0,1,.721-3.434,5.274,5.274,0,0,1,2.1-2.3,6.35,6.35,0,0,1,3.281-.814,5.489,5.489,0,0,1,4.219,1.658,6.516,6.516,0,0,1,1.547,4.623V47.9h-7.852a2.846,2.846,0,0,0,.926,1.676,2.755,2.755,0,0,0,1.852.609,3.549,3.549,0,0,0,2.93-1.312l1.8,2.133a5.045,5.045,0,0,1-2.092,1.623A7.069,7.069,0,0,1,166.953,53.234Zm-.445-10.1q-1.734,0-2.062,2.3h3.984v-.3a1.956,1.956,0,0,0-.48-1.471A1.912,1.912,0,0,0,166.508,43.133Zm6.879,3.434a7.746,7.746,0,0,1,1.3-4.746,4.282,4.282,0,0,1,3.633-1.734,3.641,3.641,0,0,1,2.859,1.336V35h3.961V53H181.59l-.2-1.359a3.739,3.739,0,0,1-3.094,1.594,4.274,4.274,0,0,1-3.586-1.734A7.991,7.991,0,0,1,173.387,46.566Zm3.949.246q0,3.375,1.969,3.375a1.944,1.944,0,0,0,1.875-1.1V44.258a1.892,1.892,0,0,0-1.852-1.125q-1.828,0-1.98,2.953ZM191.551,53H187.59V40.32h3.961Zm-4.2-15.961a1.778,1.778,0,0,1,.609-1.391,2.579,2.579,0,0,1,3.164,0,1.893,1.893,0,0,1,0,2.782,2.579,2.579,0,0,1-3.164,0A1.778,1.778,0,0,1,187.355,37.039ZM201.125,53a4.459,4.459,0,0,1-.375-1.137,3.672,3.672,0,0,1-3.047,1.371,4.5,4.5,0,0,1-3.047-1.084,3.45,3.45,0,0,1-1.254-2.725,3.546,3.546,0,0,1,1.523-3.117,7.761,7.761,0,0,1,4.43-1.055h1.219v-.671q0-1.755-1.512-1.755a1.236,1.236,0,0,0-1.406,1.39h-3.949a3.54,3.54,0,0,1,1.564-2.985,6.575,6.575,0,0,1,3.99-1.147,5.764,5.764,0,0,1,3.832,1.184,4.115,4.115,0,0,1,1.441,3.246v5.613a5.748,5.748,0,0,0,.539,2.672V53Zm-2.473-2.578a2.2,2.2,0,0,0,1.225-.316,1.983,1.983,0,0,0,.7-.715V47.363h-1.148q-2.062,0-2.062,1.852a1.131,1.131,0,0,0,.363.873A1.315,1.315,0,0,0,198.652,50.422Zm11.7-10.1.129,1.488a4.3,4.3,0,0,1,3.621-1.723,3.618,3.618,0,0,1,2.959,1.184,5.635,5.635,0,0,1,1.014,3.563V53h-3.961V45a2.14,2.14,0,0,0-.387-1.412,1.789,1.789,0,0,0-1.406-.451,1.883,1.883,0,0,0-1.723.914V53h-3.949V40.32ZM227.4,53a4.459,4.459,0,0,1-.375-1.137,3.672,3.672,0,0,1-3.047,1.371,4.5,4.5,0,0,1-3.047-1.084,3.45,3.45,0,0,1-1.254-2.725,3.546,3.546,0,0,1,1.523-3.117,7.761,7.761,0,0,1,4.43-1.055h1.219v-.671q0-1.755-1.512-1.755a1.236,1.236,0,0,0-1.406,1.39H219.98a3.54,3.54,0,0,1,1.564-2.985,6.575,6.575,0,0,1,3.99-1.147,5.764,5.764,0,0,1,3.832,1.184,4.115,4.115,0,0,1,1.441,3.246v5.613a5.748,5.748,0,0,0,.539,2.672V53Zm-2.473-2.578a2.2,2.2,0,0,0,1.225-.316,1.983,1.983,0,0,0,.7-.715V47.363H225.7q-2.062,0-2.062,1.852a1.131,1.131,0,0,0,.363.873A1.315,1.315,0,0,0,224.926,50.422Z" transform="translate(-11942 -6330)" fill="#12263f"/>
    <g id="Grupo_6524" data-name="Grupo 6524" transform="translate(-11901.982 -6595.49)">
      <path id="Trazado_21927" data-name="Trazado 21927" d="M581.675,297.928c-14.34,4.718-27.323,15.89-31.017,30.065-5.872,22.526,11.335,45.927.809,67.83-3.61,7.51-11.139,11.609-16.39,17.991-3.744,4.553-6.571,9.958-6.994,15.709-1.193,16.153,15.353,33.749,29.816,40.587,20.814,9.842,49.01,8.907,70.714,2.413,11.383-3.4,21.717-10.117,33.754-11.5,10.21-1.175,19.488,2.4,29.2,4.614,19.076,4.348,43.974,3.682,56.15-13.214,5.176-7.184,7.2-16.061,7.3-24.75a102.607,102.607,0,0,0-7.852-40.039c-4.721-11.229-11.93-21.891-14.262-33.914-2.523-13.017.017-26.41.606-39.471.677-15.039-1.382-31.794-15.349-41.229-17.467-11.8-45.031-6.5-62.109,2.886-11.217,6.162-21.133,13.792-34.118,16.277-12.869,2.464-26.307,1.55-38.921,5.327C582.564,297.642,582.12,297.781,581.675,297.928Z" transform="translate(-568.04 -245.066)" fill="#ffe38a"/>
      <g id="Grupo_6494" data-name="Grupo 6494" transform="translate(89.699 6.788)">
        <g id="Grupo_6487" data-name="Grupo 6487" transform="translate(19.766 0)">
          <path id="Trazado_21928" data-name="Trazado 21928" d="M645.006,273.475s-5.154,9.364.805,15.685,9.606,9.229,3.513,17.5-4.473,14.1.5,16,6.757,18.792-8.621,26.354-33-7.729-38.857-13.177-9.737-9.912-5.608-16.708,8.714-5.521,7.778-12.828-10.451-8.23-3.877-15.849,8.588-6.272,7.538-13.227S618.7,261.278,623.4,260.009,643.372,264.723,645.006,273.475Z" transform="translate(-595.014 -256.975)" fill="#ffc94a"/>
          <rect id="Rectángulo_3159" data-name="Rectángulo 3159" width="9.573" height="14.839" transform="translate(27.553 32.673)" fill="#ed744d"/>
          <path id="Trazado_21929" data-name="Trazado 21929" d="M610.116,277.24a7.411,7.411,0,0,0,4.978,7.076,3.534,3.534,0,0,0,.915.2,2.371,2.371,0,0,0,.935-.162,4.3,4.3,0,0,0,2.748-4.068v-4.353h-9.573Z" transform="translate(-582.92 -244.087)" fill="#bb5a38"/>
          <ellipse id="Elipse_551" data-name="Elipse 551" cx="14.461" cy="14.461" rx="14.461" ry="14.461" transform="translate(13.948 26.721) rotate(-67.5)" fill="#ffc94a"/>
          <path id="Trazado_21930" data-name="Trazado 21930" d="M623.516,273.076a4.537,4.537,0,0,1-4.589,4.219l-.355-7.944C621.2,269.215,623.518,269.136,623.516,273.076Z" transform="translate(-576.147 -249.392)" fill="#ed744d"/>
          <path id="Trazado_21931" data-name="Trazado 21931" d="M620.189,270.853a.294.294,0,0,1,.529-.2,1.737,1.737,0,0,1,.272,1.691c-.357,1.025-1.133,2.044-1.534,1.646s.007-.319.547-1.646A3.111,3.111,0,0,0,620.189,270.853Z" transform="translate(-575.569 -248.413)" fill="#bb5a38"/>
          <path id="Trazado_21932" data-name="Trazado 21932" d="M618.136,275.372a.453.453,0,1,1,.454.454A.454.454,0,0,1,618.136,275.372Z" transform="translate(-576.497 -244.897)" fill="#ff7454"/>
          <ellipse id="Elipse_552" data-name="Elipse 552" cx="0.264" cy="0.264" rx="0.264" ry="0.264" transform="translate(42.756 28.496)" fill="#ff7454"/>
          <path id="Trazado_21933" data-name="Trazado 21933" d="M619.341,291.239h0c-5.1-.245-12.406-7.369-12.161-12.473,0,0-.483-7.848,1.072-10.191,2.7-4.07,12.93-3.98,16.959-3.063,6.172,1.4,4.473,12.871,4.473,12.871C629.683,287.92,621.574,291.347,619.341,291.239Z" transform="translate(-585.328 -252.846)" fill="#ed744d"/>
          <path id="Trazado_21934" data-name="Trazado 21934" d="M605.267,273.076a4.535,4.535,0,0,0,4.587,4.219l.355-7.944C607.578,269.215,605.263,269.136,605.267,273.076Z" transform="translate(-586.803 -249.392)" fill="#ed744d"/>
          <path id="Trazado_21935" data-name="Trazado 21935" d="M607.2,270.853a.294.294,0,0,0-.529-.2,1.736,1.736,0,0,0-.272,1.691c.356,1.025,1.133,2.044,1.534,1.646s-.005-.319-.546-1.646A3.11,3.11,0,0,1,607.2,270.853Z" transform="translate(-585.986 -248.413)" fill="#bb5a38"/>
          <path id="Trazado_21936" data-name="Trazado 21936" d="M612.9,272.866c0,.639-.376,1.158-.841,1.158s-.841-.519-.841-1.158.378-1.158.841-1.158S612.9,272.227,612.9,272.866Z" transform="translate(-582.04 -247.469)" fill="#28121e"/>
          <path id="Trazado_21937" data-name="Trazado 21937" d="M618.068,272.866c0,.639-.376,1.158-.841,1.158s-.841-.519-.841-1.158.376-1.158.841-1.158S618.068,272.227,618.068,272.866Z" transform="translate(-577.898 -247.469)" fill="#28121e"/>
          <path id="Trazado_21938" data-name="Trazado 21938" d="M610.033,270.9a6.09,6.09,0,0,1,5.68,0" transform="translate(-582.986 -248.699)" fill="none" stroke="#bb5a38" stroke-miterlimit="10" stroke-width="0.707"/>
          <path id="Trazado_21939" data-name="Trazado 21939" d="M612.876,276.663a2.916,2.916,0,0,0,3.609-.229" transform="translate(-580.709 -243.684)" fill="none" stroke="#bb5a38" stroke-miterlimit="10" stroke-width="0.707"/>
          <g id="Grupo_6485" data-name="Grupo 6485" transform="translate(24.896 27.635)">
            <path id="Trazado_21940" data-name="Trazado 21940" d="M610.54,273.965a.373.373,0,1,1-.373-.371A.374.374,0,0,1,610.54,273.965Z" transform="translate(-608.074 -273.594)" fill="#bb5a38"/>
            <path id="Trazado_21941" data-name="Trazado 21941" d="M611.26,274.436a.159.159,0,1,1-.16-.16A.16.16,0,0,1,611.26,274.436Z" transform="translate(-607.156 -273.048)" fill="#bb5a38"/>
            <path id="Trazado_21942" data-name="Trazado 21942" d="M610.292,275.065a.327.327,0,1,1-.326-.326A.327.327,0,0,1,610.292,275.065Z" transform="translate(-608.199 -272.677)" fill="#bb5a38"/>
            <path id="Trazado_21943" data-name="Trazado 21943" d="M609.2,274.153a.181.181,0,1,1-.182-.182A.181.181,0,0,1,609.2,274.153Z" transform="translate(-608.839 -273.292)" fill="#bb5a38"/>
            <ellipse id="Elipse_553" data-name="Elipse 553" cx="0.274" cy="0.274" rx="0.274" ry="0.274" transform="translate(3.471 3.02)" fill="#bb5a38"/>
            <path id="Trazado_21944" data-name="Trazado 21944" d="M612.41,274.045a.245.245,0,1,1-.245-.245A.245.245,0,0,1,612.41,274.045Z" transform="translate(-606.371 -273.429)" fill="#bb5a38"/>
            <path id="Trazado_21945" data-name="Trazado 21945" d="M611.92,275.055a.425.425,0,1,1,.425.425A.425.425,0,0,1,611.92,275.055Z" transform="translate(-606.371 -272.764)" fill="#bb5a38"/>
          </g>
          <g id="Grupo_6486" data-name="Grupo 6486" transform="translate(37.501 27.716)">
            <path id="Trazado_21946" data-name="Trazado 21946" d="M617.538,274.012a.372.372,0,1,1-.371-.373A.372.372,0,0,1,617.538,274.012Z" transform="translate(-615.073 -273.639)" fill="#bb5a38"/>
            <path id="Trazado_21947" data-name="Trazado 21947" d="M618.261,274.482a.16.16,0,1,1-.16-.16A.161.161,0,0,1,618.261,274.482Z" transform="translate(-614.155 -273.092)" fill="#bb5a38"/>
            <path id="Trazado_21948" data-name="Trazado 21948" d="M617.292,275.111a.327.327,0,1,1-.328-.326A.327.327,0,0,1,617.292,275.111Z" transform="translate(-615.197 -272.721)" fill="#bb5a38"/>
            <path id="Trazado_21949" data-name="Trazado 21949" d="M616.2,274.2a.182.182,0,1,1-.182-.182A.182.182,0,0,1,616.2,274.2Z" transform="translate(-615.838 -273.336)" fill="#bb5a38"/>
            <path id="Trazado_21950" data-name="Trazado 21950" d="M618.313,275.589a.274.274,0,1,1-.274-.272A.274.274,0,0,1,618.313,275.589Z" transform="translate(-614.294 -272.295)" fill="#bb5a38"/>
            <path id="Trazado_21951" data-name="Trazado 21951" d="M619.41,274.091a.245.245,0,1,1-.245-.245A.245.245,0,0,1,619.41,274.091Z" transform="translate(-613.37 -273.473)" fill="#bb5a38"/>
          </g>
          <path id="Trazado_21952" data-name="Trazado 21952" d="M618.265,274.069a.325.325,0,1,1-.324-.326A.325.325,0,0,1,618.265,274.069Z" transform="translate(-576.914 -245.84)" fill="#bb5a38"/>
          <path id="Trazado_21953" data-name="Trazado 21953" d="M606.789,272.028l2.051,4.18s1.117-10.463,5.385-11.246C614.225,264.961,606.717,265,606.789,272.028Z" transform="translate(-585.584 -252.873)" fill="#ffc94a"/>
          <path id="Trazado_21954" data-name="Trazado 21954" d="M623.361,271.919l-1.028,5.033s-1.678-11.4-5.946-12.183C616.386,264.77,623.431,264.894,623.361,271.919Z" transform="translate(-577.898 -253.026)" fill="#ffc94a"/>
          <path id="Trazado_21955" data-name="Trazado 21955" d="M615.145,272.12l.843,3.025s1.25,1.92-1.866,1.92Z" transform="translate(-579.711 -247.139)" fill="#ed744d"/>
          <path id="Trazado_21956" data-name="Trazado 21956" d="M621.4,270.9a5.127,5.127,0,0,0-2.649-.729,3.8,3.8,0,0,0-3.818,5.08c.8,2.249,1.567,2.943-.074,3.143" transform="translate(-579.236 -248.699)" fill="none" stroke="#bb5a38" stroke-miterlimit="10" stroke-width="0.707"/>
          <path id="Trazado_21957" data-name="Trazado 21957" d="M624.407,265.132s.315,5.354-3.366,6.652-11.055.283-12.235,6.341c0,0-.756-6.015,0-9.426S618.517,263.027,624.407,265.132Z" transform="translate(-584.238 -253.387)" fill="#ffc94a"/>
        </g>
        <g id="Grupo_6488" data-name="Grupo 6488" transform="translate(29.86 205.877)">
          <path id="Trazado_21958" data-name="Trazado 21958" d="M615.4,378.025s-2.719,15.234-2.719,20.265,2.176,7.616,1.36,8.84-2.04,1.088-2.312,3.807-2.991,4.9-7.344,4.9-3.809-4.081-3.672-4.76,4.353-5.44,5.575-9.521-.816-24.888-.816-24.888S614.453,366.6,615.4,378.025Z" transform="translate(-600.62 -372.57)" fill="#ed744d"/>
        </g>
        <path id="Trazado_21959" data-name="Trazado 21959" d="M625.431,311.463h-15.6s-9.813,8.23-9.813,31.769c0,10.866,3.546,35.6,5.361,49.8C604.041,407.325,607,439.749,607,439.749l6.939.112c2.48-15.387,4.342-30.109,4.491-42.992l6.995-42.1,0,.022Z" transform="translate(-571.239 -215.631)" fill="#ed744d"/>
        <g id="Grupo_6489" data-name="Grupo 6489" transform="translate(61.677 205.877)">
          <path id="Trazado_21960" data-name="Trazado 21960" d="M618.287,378.025s2.721,15.234,2.721,20.265-2.177,7.616-1.359,8.84,2.038,1.088,2.31,3.807,2.993,4.9,7.346,4.9,3.807-4.081,3.672-4.76-4.353-5.44-5.577-9.521.816-24.888.816-24.888S619.24,366.6,618.287,378.025Z" transform="translate(-618.287 -372.57)" fill="#ed744d"/>
        </g>
        <path id="Trazado_21961" data-name="Trazado 21961" d="M612.985,311.872l15.806-.92A67.778,67.778,0,0,1,639,351.138c-.778,10.838-1.693,28.538-3.506,42.738,1.34,14.293-4.079,46.282-4.079,46.282l-6.939.112c-2.48-15.386-2.361-31.139-2.512-44.022l-8.974-41.074-.005.022Z" transform="translate(-560.857 -216.04)" fill="#ed744d"/>
        <path id="Trazado_21962" data-name="Trazado 21962" d="M623.63,345.3l.456-33.836h-15.6s-3.9,3.281-6.787,11.61C616.1,331.39,623.524,345.4,623.63,345.3Z" transform="translate(-569.894 -215.631)" fill="#7986cb"/>
        <path id="Trazado_21963" data-name="Trazado 21963" d="M635.008,323.67a60.153,60.153,0,0,0-6.216-12.718l-15.806.92v25.574c.587.468,1.028,7.789,1.608,8.262C618.418,337.477,628.3,328.822,635.008,323.67Z" transform="translate(-560.857 -216.04)" fill="#7986cb"/>
        <path id="Trazado_21964" data-name="Trazado 21964" d="M641.534,333.183c-1.046-7.16-2.426-45.429-13.2-49.068,0,0-7.922,18.057-4.045,30.683a88.424,88.424,0,0,0,9.436,20.991C640.87,334.487,641.534,333.183,641.534,333.183Z" transform="translate(-552.659 -237.533)" fill="#ed744d"/>
        <path id="Trazado_21965" data-name="Trazado 21965" d="M647.413,286.394s-15.875-5.356-23.617-5.118c-9.391.29-24.4,6.456-24.4,6.456a83.437,83.437,0,0,0,2.2,18.758s7.621,27.818,9.021,30.831c6.046,13.017,21.232,13.937,27.9,1.149C640.825,334.045,647.413,286.394,647.413,286.394Z" transform="translate(-571.738 -239.812)" fill="#ed744d"/>
        <path id="Trazado_21966" data-name="Trazado 21966" d="M641.442,283.934c-1.021-.3-3.22-.931-4.4-1.248-.614,7.625-1.576,16.735-6.984,21.74-3.739,3.458-10.391,3.2-13.31-.692-4.412-5.882-6.054-11.6-8.918-20.719-1.079.328-2.118.659-3.089.985.576,3.879,2.543,25.895-3.153,27.856.69,2.541,1.916,7.034,2.719,9.885a2.3,2.3,0,0,1,.265.135c6.071,3.877,13.492,2.917,20.325,2.444,5.226-.364,10.553-.7,15.522-2.246.706-3.938,1.392-8.264,2.024-12.523C638.283,302.449,640.465,291.4,641.442,283.934Z" transform="translate(-569.988 -238.677)" fill="#7986cb"/>
        <path id="Trazado_21967" data-name="Trazado 21967" d="M616.636,286.528s-1.255-2.64-2.249-2.276-5.523,1.219-5.523,1.219,4.637.032,5.453.623S616.964,287.059,616.636,286.528Z" transform="translate(-564.157 -237.451)" fill="#bb5a38"/>
        <path id="Trazado_21968" data-name="Trazado 21968" d="M614.544,286.42s.89-2.5,1.929-2.3a44.674,44.674,0,0,0,4.69.2s-3.683.6-4.394,1.309S614.3,287,614.544,286.42Z" transform="translate(-559.626 -237.537)" fill="#bb5a38"/>
        <path id="Trazado_21969" data-name="Trazado 21969" d="M606.955,284.858s5.359,5.179,3.569,22.689c0,0-5.6,23.969-11.351,31.11-2.833,3.517-4.938,4.189-7.776,2.73C586.86,339.053,593.365,290.7,606.955,284.858Z" transform="translate(-579.294 -236.938)" fill="#ed744d"/>
        <g id="Grupo_6490" data-name="Grupo 6490" transform="translate(32.006 73.894)">
          <path id="Trazado_21970" data-name="Trazado 21970" d="M612.537,307.576c-8.655,0-10.67-7-10.692-7.077a.963.963,0,0,1,1.858-.508c.094.33,2.307,7.67,13.044,5.122a.964.964,0,1,1,.447,1.875A20.152,20.152,0,0,1,612.537,307.576Z" transform="translate(-601.811 -299.281)" fill="#6473b2"/>
        </g>
        <g id="Grupo_6491" data-name="Grupo 6491" transform="translate(56.332 73.896)">
          <path id="Trazado_21971" data-name="Trazado 21971" d="M620.716,307.575a20.142,20.142,0,0,1-4.657-.589.964.964,0,0,1,.447-1.875c10.814,2.561,12.957-4.8,13.044-5.118a.963.963,0,0,1,1.858.5C631.386,300.579,629.369,307.575,620.716,307.575Z" transform="translate(-615.319 -299.282)" fill="#6473b2"/>
        </g>
        <path id="Trazado_21972" data-name="Trazado 21972" d="M618.534,302.895" transform="translate(-556.413 -222.493)" fill="none" stroke="#dfc5b6" stroke-linecap="round" stroke-miterlimit="10" stroke-width="1.078"/>
        <g id="Grupo_6492" data-name="Grupo 6492" transform="translate(0 127.253)">
          <path id="Trazado_21973" data-name="Trazado 21973" d="M585.464,339.035l.708-1.259,4.691-8.866,5.278,2.283-.4,4.086s.49,7.774.236,8.054l-1.7,2.793a.561.561,0,0,1-.973-.306,2.023,2.023,0,0,1,.227-1.705l.358-.6-.168-1.923-1.477,4.425-.953,1.887a2.428,2.428,0,0,1-1.147,1.061.9.9,0,0,1-.425,0,.442.442,0,0,1-.225-.32,2.5,2.5,0,0,1,.263-1.57l.854-1.682,1.019-2.962c.146-.8-.214-.322-.285-.14l-1.315,3.422-1.354,2.507a2.437,2.437,0,0,1-1.149,1.062l-.032.014a.442.442,0,0,1-.616-.337l-.006-.036a2.43,2.43,0,0,1,.268-1.534l1.255-2.3,1.237-4.164c.113-.765-.267-.452-.373-.122l-.861,2.678-1.214,2.577a2.426,2.426,0,0,1-1.086,1.125l-.032.016a.441.441,0,0,1-.634-.3l-.007-.036a2.431,2.431,0,0,1,.182-1.545l1.126-2.368.917-3.371a.116.116,0,0,0-.2-.108l-.263.29-1.219,2.561-.348,2.013a1.221,1.221,0,0,1-1.176.971.375.375,0,0,1-.4-.465l.319-2.757Z" transform="translate(-584.039 -328.911)" fill="#ed744d"/>
        </g>
        <path id="Trazado_21974" data-name="Trazado 21974" d="M592.67,350.4s9.411-26.386,10.314-31.614c1.826-10.593-4.255-12.017-9.04-4.765-3.254,4.933-6.541,31.353-6.541,31.353-.333,1.318-.619,3.892-.619,3.892S588.267,350.9,592.67,350.4Z" transform="translate(-581.841 -217.194)" fill="#ed744d"/>
        <g id="Grupo_6493" data-name="Grupo 6493" transform="translate(85.477 126.398)">
          <path id="Trazado_21975" data-name="Trazado 21975" d="M642.353,338.953l-.607-1.309-3.98-9.208-5.44,1.86.077,4.106s-1.1,7.711-.868,8.01l1.475,2.917A.562.562,0,0,0,634,345.1a2.028,2.028,0,0,0-.092-1.718l-.312-.629.319-1.905,1.126,4.527.8,1.956a2.421,2.421,0,0,0,1.059,1.149.9.9,0,0,0,.425.032.444.444,0,0,0,.248-.3,2.493,2.493,0,0,0-.139-1.585l-.719-1.745-.783-3.033c-.083-.807.24-.3.3-.117l1.041,3.515,1.153,2.6A2.434,2.434,0,0,0,639.488,349l.032.018a.443.443,0,0,0,.641-.286l.007-.036a2.44,2.44,0,0,0-.146-1.551l-1.072-2.393-.9-4.248c-.054-.771.3-.43.38-.092l.648,2.736,1.007,2.665a2.415,2.415,0,0,0,.994,1.207l.031.02a.442.442,0,0,0,.655-.25l.011-.036a2.424,2.424,0,0,0-.061-1.556l-.935-2.449-.648-3.432a.116.116,0,0,1,.205-.092l.239.31,1.016,2.647.187,2.035a1.222,1.222,0,0,0,1.1,1.061.373.373,0,0,0,.43-.432l-.1-2.773Z" transform="translate(-631.503 -328.436)" fill="#ed744d"/>
        </g>
        <path id="Trazado_21976" data-name="Trazado 21976" d="M635.892,349.968s-7.022-27.195-7.508-32.479c-.989-10.7,4.9-11.495,9.1-3.89,2.856,5.174,4.052,31.771,4.052,31.771.229,1.342.312,3.929.312,3.929S640.242,350.809,635.892,349.968Z" transform="translate(-548.612 -217.95)" fill="#ed744d"/>
      </g>
      <g id="Grupo_6523" data-name="Grupo 6523" transform="translate(-6.492 0)">
        <g id="Grupo_6506" data-name="Grupo 6506">
          <g id="Grupo_6504" data-name="Grupo 6504">
            <g id="Grupo_6495" data-name="Grupo 6495" transform="translate(0 33.467)">
              <path id="Trazado_21977" data-name="Trazado 21977" d="M548.626,275.007a1.719,1.719,0,0,1,.3-.353l-.011-.225Z" transform="translate(-516.209 -271.968)" fill="#ed744d"/>
              <path id="Trazado_21978" data-name="Trazado 21978" d="M617.927,351.212c-3.177,2.024-4.909-.726-4.909-.726a6.306,6.306,0,0,1-2.456.294c-1.878,0-6.353-.58-6.353-.58l-.726,7.225s-4.907,1.585-17.187,3.317-33.8-1.732-33.8-1.732l1.012-4.907s-7.659,3.609-13.292-1.16-6.354-28.023-6.354-28.023a29.81,29.81,0,0,1-3.177-11.407c-.432-6.5,1.153-13.726,11.407-19.352a116.345,116.345,0,0,1,21.672-8.817l-.238-5.4-.189-4.2c3.107-2.946,20.643-2.681,20.643-2.681l.728,6.661.578,5.327s23.688,4.475,27.584,7.365,7.511,15.023,9.537,29.467S621.111,349.188,617.927,351.212Z" transform="translate(-530.625 -273.063)" fill="#ed744d"/>
            </g>
            <path id="Trazado_21979" data-name="Trazado 21979" d="M542.254,334.986c-.281.5-1.154,13.1,0,21.954s3.274,22.725,3.274,22.725S541.29,391.8,541.868,397s5.972,33.51,5.972,33.51-2.312,8.282-1.542,10.593,7.713,5.516,15.889,7.029c7.8,1.446,10.3,2.2,13.326,1.228,2.075-.665,4.65-4.156,2.177-5.561a28.5,28.5,0,0,0-5.534-2.253L560.55,430.7s2.888-29.466,3.274-38.517-.193-10.978-.193-10.978.771-.771,2.31-6.163,3.659-34.859,3.852-38.326S545.913,328.438,542.254,334.986Z" transform="translate(-521.778 -192.605)" fill="#ed744d"/>
            <path id="Trazado_21980" data-name="Trazado 21980" d="M559.106,336.055s4.43,20.993,6.548,30.622S569.121,379,569.121,379s-4.045,10.978-4.43,20.029,6.163,35.052,5.972,36.208-2.7,9.436-.771,11.94,30.429,1.732,32.547.578-.193-4.045-2.889-4.623a8.168,8.168,0,0,0-4.237,0s-10.593-8.088-11.554-10.207,3.85-50.651,4.621-55.079,1.2-30.526-2.069-41.888S559.877,328.158,559.106,336.055Z" transform="translate(-507.816 -195.022)" fill="#ed744d"/>
            <path id="Trazado_21981" data-name="Trazado 21981" d="M599.007,321.217c-.574-10.483-1.64-21.205-4.569-31.321a75,75,0,0,0-2.989-8.433c-.279-.657-.677-.591-1.331-.708l-1.763-.317a.422.422,0,0,0-.513.513,10.078,10.078,0,0,1-1.7,9.546c-2.39,2.9-6.036,4.628-9.618,5.53a28.683,28.683,0,0,1-23.263-4.5,72.828,72.828,0,0,1-9.139-7.873.528.528,0,0,0-.621-.079q-2.264,1.151-4.529,2.3a.525.525,0,0,0,0,.9,15.59,15.59,0,0,1,3.957,3.333,42.818,42.818,0,0,1,3.306,3.933,30.072,30.072,0,0,1,5.14,11.965c2.075,9.86.484,19.887-1.817,29.561-1.331,5.6-2.885,11.173-3.654,16.883a.493.493,0,0,0,.144.423.37.37,0,0,0,.221.42,32.474,32.474,0,0,0,7.551,1.842c3.595.544,7.223.89,10.852,1.091a115.621,115.621,0,0,0,23.607-.857,45.264,45.264,0,0,0,5.277-1.081,8.409,8.409,0,0,0,3.849-1.8.392.392,0,0,0-.07-.623c1.464-4.383,1.542-9.138,1.767-13.71A162.565,162.565,0,0,0,599.007,321.217Z" transform="translate(-524.147 -233.695)" fill="#fadee1"/>
            <path id="Trazado_21982" data-name="Trazado 21982" d="M570.162,279.73a26.224,26.224,0,0,1-5.349,2.22c-3.818.83-7,.432-10.829-.218a37.756,37.756,0,0,1-5-1.786l-.189-4.2c3.107-2.946,20.643-2.681,20.643-2.681Z" transform="translate(-516.077 -239.596)" fill="#c1b1b3" style="mix-blend-mode: multiply;isolation: isolate"/>
            <path id="Trazado_21983" data-name="Trazado 21983" d="M560.766,254.585c-5.2.578-10.4.866-14.445,5.777-3.441,4.18-2.166,11.412-.866,17.767s2.889,14.011,5.633,14.877,11.7,3.033,18.055,1.444,8.522-5.2,10.832-10.256c1.909-4.173-1.733-18.488-3.611-23.11S566.81,253.914,560.766,254.585Z" transform="translate(-519.828 -254.479)" fill="#ed744d"/>
            <path id="Trazado_21984" data-name="Trazado 21984" d="M549.189,269.694s-3.251-2.889-5.273-1.516-.938,6.643,1.806,7.005a5.04,5.04,0,0,0,4.261-1.3Z" transform="translate(-520.817 -243.804)" fill="#ed744d"/>
            <path id="Trazado_21985" data-name="Trazado 21985" d="M545,308.066c.479-.382,17.67-4.189,29.08-4.765a184.746,184.746,0,0,1,22.92.481s-3.13,4.045-12.808,10.688-16.37,10.207-26.482,12.952a105.52,105.52,0,0,1-17.187,3.323S541.391,310.954,545,308.066Z" transform="translate(-522.697 -215.518)" fill="#ed744d"/>
            <path id="Trazado_21986" data-name="Trazado 21986" d="M587.6,326.32a93.581,93.581,0,0,1-15.311-1.542,44.288,44.288,0,0,1-10.715-3.157c-.267-.112-.517-.223-.747-.335a22.492,22.492,0,0,1-3.373-1.9l-1.347-14.738s8.86-.964,17.432-1.444a54.991,54.991,0,0,1,11.045.5c.1.014.209.027.308.041v.007a34.7,34.7,0,0,1,3.575.706s4.425,1.925,5,8.468S587.6,326.32,587.6,326.32Z" transform="translate(-510.215 -215.522)" fill="#ed744d"/>
            <path id="Trazado_21987" data-name="Trazado 21987" d="M543.976,319.65a161.979,161.979,0,0,0,29.322,1.878c14.877-.578,22.965-2.745,22.965-2.745a18.816,18.816,0,0,0-.144,3.9c.144,2.166,4.479,18.345,5.2,21.088a42.4,42.4,0,0,1,1.01,5.2,144.231,144.231,0,0,0-15.167,2.745,62.571,62.571,0,0,0-11.844,3.755s-1.3-4.767-1.732-7.221-.722-3.611-.722-3.611l-2.022,10.544a82.972,82.972,0,0,1-15.889-.578,68.229,68.229,0,0,1-13.577-2.745,145.325,145.325,0,0,1,.432-18.2C542.676,326.15,543.976,319.65,543.976,319.65Z" transform="translate(-522.103 -202.979)" fill="#ffd54f"/>
            <g id="Grupo_6496" data-name="Grupo 6496" transform="translate(30.937 181.757)" style="mix-blend-mode: multiply;isolation: isolate">
              <path id="Trazado_21988" data-name="Trazado 21988" d="M547.836,355.922c.767,1.743.567,3.969,1.97,5.419a4.415,4.415,0,0,0,2.487,1.111,11.6,11.6,0,0,0,1.455.148,2.573,2.573,0,0,0,1.273-.169c.18-.085.1-.319-.05-.378a3.779,3.779,0,0,0-1.223-.177,9.841,9.841,0,0,1-1.3-.176,3.705,3.705,0,0,1-2.2-1.1,6.715,6.715,0,0,1-.992-2.458,13.706,13.706,0,0,0-.843-2.559c-.2-.4-.756-.049-.583.34Z" transform="translate(-547.804 -355.407)" fill="#c1b1b3"/>
            </g>
            <g id="Grupo_6497" data-name="Grupo 6497" transform="translate(74.715 179.323)" style="mix-blend-mode: multiply;isolation: isolate">
              <path id="Trazado_21989" data-name="Trazado 21989" d="M572.147,354.541c.331.729.555,1.5.857,2.242a6,6,0,0,0,.571,1.1,1.636,1.636,0,0,0,.951.783.254.254,0,0,0,.308-.308,3.429,3.429,0,0,0-.538-.965c-.213-.337-.389-.693-.567-1.048-.349-.7-.639-1.439-1.025-2.127-.207-.367-.724-.045-.556.324Z" transform="translate(-572.114 -354.055)" fill="#c1b1b3"/>
            </g>
            <g id="Grupo_6498" data-name="Grupo 6498" transform="translate(51.469 251.713)" style="mix-blend-mode: multiply;isolation: isolate">
              <path id="Trazado_21990" data-name="Trazado 21990" d="M559.426,394.846c1.487.276,2.527,1.307,3.7,2.172.23.171.745.576,1.019.292.3-.312-.306-.665-.506-.814-.574-.432-1.151-.875-1.745-1.277a5.743,5.743,0,0,0-2.305-.962c-.382-.059-.551.517-.162.589Z" transform="translate(-559.205 -394.253)" fill="#c1b1b3"/>
            </g>
            <g id="Grupo_6499" data-name="Grupo 6499" transform="translate(51.688 253.95)" style="mix-blend-mode: multiply;isolation: isolate">
              <path id="Trazado_21991" data-name="Trazado 21991" d="M559.509,396.194c.342.2.67.427.992.659.155.112.308.229.463.339a1.883,1.883,0,0,0,.254.135.877.877,0,0,0,.358.076.236.236,0,0,0,.227-.3.979.979,0,0,0-.16-.3,2.129,2.129,0,0,0-.2-.2c-.171-.142-.36-.266-.542-.4-.328-.234-.661-.459-1.01-.663a.377.377,0,0,0-.38.65Z" transform="translate(-559.327 -395.495)" fill="#c1b1b3"/>
            </g>
            <g id="Grupo_6500" data-name="Grupo 6500" transform="translate(50.265 255.846)" style="mix-blend-mode: multiply;isolation: isolate">
              <path id="Trazado_21992" data-name="Trazado 21992" d="M558.793,397.245c.3.09.6.155.888.259.016.005.094.025.1.038,0-.007-.07-.031-.022-.009l.054.025c.063.031.13.063.191.1.031.016.057.034.086.052l.045.031c.036.025,0,0-.014-.011a.5.5,0,0,0,.2.1c.031.007.061.016.09.025a.236.236,0,0,0,.3-.225.688.688,0,0,0-.069-.3.816.816,0,0,0-.2-.2,1.955,1.955,0,0,0-.519-.281c-.306-.119-.629-.185-.942-.281a.359.359,0,0,0-.436.247.364.364,0,0,0,.247.438Z" transform="translate(-558.536 -396.548)" fill="#c1b1b3"/>
            </g>
            <g id="Grupo_6501" data-name="Grupo 6501" transform="translate(29.671 236.708)" style="mix-blend-mode: multiply;isolation: isolate">
              <path id="Trazado_21993" data-name="Trazado 21993" d="M547.115,386.463c.159.675.2,1.372.4,2.04a3.131,3.131,0,0,0,.461,1c.247.328.747.683,1.153.421a.3.3,0,0,0,.135-.331.624.624,0,0,0-.137-.274c-.049-.052-.1-.1-.153-.153-.027-.031-.155-.189-.079-.081-.038-.054-.077-.106-.117-.157s-.054-.074-.011-.011a3.286,3.286,0,0,1-.24-.416c-.056-.113.034.094-.011-.027-.014-.036-.031-.074-.043-.11-.031-.083-.058-.166-.083-.249-.189-.618-.261-1.262-.434-1.884a.436.436,0,0,0-.841.232Z" transform="translate(-547.101 -385.921)" fill="#c1b1b3"/>
            </g>
            <g id="Grupo_6502" data-name="Grupo 6502" transform="translate(67.504 237.701)" style="mix-blend-mode: multiply;isolation: isolate">
              <path id="Trazado_21994" data-name="Trazado 21994" d="M568.111,386.773a3.376,3.376,0,0,0,.549,1.675,2.455,2.455,0,0,0,.641.623,1.679,1.679,0,0,0,.421.211.7.7,0,0,0,.515-.038.187.187,0,0,0,.067-.254.961.961,0,0,0-.333-.3c-.108-.061-.223-.11-.329-.176a1.516,1.516,0,0,1-.155-.1c.054.041-.018-.018-.023-.022l-.063-.056c-.045-.041-.086-.085-.128-.13l-.063-.076c-.043-.05.023.036-.02-.023a2.6,2.6,0,0,1-.185-.3c-.029-.056-.056-.112-.081-.171.023.058-.013-.031-.013-.034l-.031-.083a3.707,3.707,0,0,1-.108-.382,3.54,3.54,0,0,1-.061-.362.31.31,0,0,0-.3-.3.3.3,0,0,0-.3.3Z" transform="translate(-568.109 -386.472)" fill="#c1b1b3"/>
            </g>
            <g id="Grupo_6503" data-name="Grupo 6503" transform="translate(50.615 88.144)" style="mix-blend-mode: multiply;isolation: isolate">
              <path id="Trazado_21995" data-name="Trazado 21995" d="M582.837,303.816a10.528,10.528,0,0,1-2.667,2.444c-.949.782-1.913,1.563-2.883,2.33-1.871,1.48-3.769,2.939-5.711,4.344-3.987,2.9-7.854,5.954-12.1,8.446-.267-.112-.517-.223-.747-.335,4.133-2.611,8.426-5.766,12.336-8.664,2.046-1.515,4.07-3.051,6.053-4.643q1.445-1.162,2.869-2.345a10.222,10.222,0,0,1,2.5-1.927.243.243,0,0,1,.056-.029.222.222,0,0,1,.252.07v.007A.279.279,0,0,1,582.837,303.816Z" transform="translate(-558.731 -303.425)" fill="#c1b1b3"/>
            </g>
            <path id="Trazado_21996" data-name="Trazado 21996" d="M561.4,305.809c-3.371,1.007-6.3,6.319-7.931,5.934a.948.948,0,0,1-.832-.971,3.041,3.041,0,0,1,.412-1.354c-.148.238-.475.776-.9,1.361-.845,1.167-2.06,2.548-2.919,2.262-.886-.3-.92-1.466-.816-2.325V310.7a7.1,7.1,0,0,1,.187-.937s-.25.475-.656,1.075l-.007.007c-.7,1.041-1.849,2.465-2.946,2.527-1.117.063-.976-1.187-.733-2.087v-.013c.126-.441.265-.8.294-.866a1.791,1.791,0,0,1-.447.369,1.892,1.892,0,0,1-2.1-.195c-1.228-.8,5.8-9.474,8.761-8.957A28.152,28.152,0,0,1,561.4,305.809Z" transform="translate(-521.626 -216.737)" fill="#ed744d"/>
            <path id="Trazado_21997" data-name="Trazado 21997" d="M561.419,305.81l-.1-.065-.022-.013-.016-.011-.061-.041a17.541,17.541,0,0,0-4.443,3.589,10.894,10.894,0,0,1-2.229,1.878c-.484.27-1.255.625-1.477-.115A2.709,2.709,0,0,1,553.6,309a19.235,19.235,0,0,1,1.388-1.963c.245-.308.5-.614.776-.9.223-.245.663-.524.726-.866.014-.07-.029-.168-.119-.16-.364.041-.628.447-.859.7-.294.32-.573.648-.838.99-1.363,1.72-2.375,3.769-3.933,5.325-.625.625-1.894,1.41-2.087-.007a7.244,7.244,0,0,1,.31-2.375c.254-.479.515-.956.8-1.421a18.535,18.535,0,0,1,1.57-2.184c.265-.328.544-.643.83-.949.252-.281.657-.573.747-.951a.135.135,0,0,0-.167-.168c-.364.092-.621.461-.866.733-.313.349-.614.706-.908,1.075a28.532,28.532,0,0,0-2.381,3.744,10.952,10.952,0,0,1-2.489,3.279,1.794,1.794,0,0,1-1.109.54c-.661-.065-.747-.832-.706-1.3a6.641,6.641,0,0,1,.546-1.961.23.23,0,0,0,.018-.1,17.065,17.065,0,0,1,2.282-3.528c.524-.607,1.041-1.228,1.6-1.808.257-.272.537-.544.816-.8.182-.167.565-.369.616-.621a.075.075,0,0,0-.077-.1c-.252-.027-.517.286-.684.439-.308.272-.6.565-.893.859-.6.6-1.187,1.2-1.733,1.85a17.08,17.08,0,0,0-1.387,1.936,11.568,11.568,0,0,1-1.061,1.772c-.387.432-1.043,1-1.662.72-.816-.367-.268-1.471.036-2.028A18.542,18.542,0,0,1,545,305.466a23.19,23.19,0,0,1,1.95-1.862,10.4,10.4,0,0,1,2.826-1.821l.011-.2a12.421,12.421,0,0,0-1.794.823,13.009,13.009,0,0,0-1.813,1.516,19.269,19.269,0,0,0-3.25,3.748c-.54.812-1.648,2.325-.825,3.292.564.663,1.387.36,2.024-.113-.371,1.268-.594,3.107.958,3.018.891-.05,1.621-.918,2.147-1.547a15.873,15.873,0,0,0,1.134-1.574c-.207,1.307-.229,3.016,1.358,2.595,1.23-.326,2.132-1.666,2.88-2.835a1.356,1.356,0,0,0,.333,1.192c.6.531,1.477-.052,1.983-.423,2.3-1.678,3.944-4.167,6.573-5.4A.573.573,0,0,0,561.419,305.81Z" transform="translate(-521.669 -216.756)" fill="#c2b3b5" style="mix-blend-mode: multiply;isolation: isolate"/>
          </g>
          <g id="Grupo_6505" data-name="Grupo 6505" transform="translate(44.3 84.391)" style="mix-blend-mode: multiply;isolation: isolate">
            <path id="Trazado_21998" data-name="Trazado 21998" d="M555.544,304.122a36.128,36.128,0,0,1,11.178-1.8c1.886-.072,3.773-.083,5.658-.067a25.694,25.694,0,0,0,5.394-.207.214.214,0,0,0,0-.411,26.986,26.986,0,0,0-5.394-.294c-1.983-.007-3.969,0-5.95.11a34.042,34.042,0,0,0-11.027,2.154c-.311.128-.185.638.141.515Z" transform="translate(-555.225 -301.34)" fill="#d7cdce"/>
          </g>
        </g>
        <g id="Grupo_6522" data-name="Grupo 6522" transform="translate(35.47 12.776)">
          <g id="Grupo_6507" data-name="Grupo 6507" transform="translate(16.45 4.361)">
            <path id="Trazado_21999" data-name="Trazado 21999" d="M561.6,265.29a1.325,1.325,0,0,1-.819,1.633c-.585.1-1.165-.481-1.3-1.286s.236-1.536.819-1.632S561.469,264.485,561.6,265.29Z" transform="translate(-559.456 -263.995)" fill="#28121e"/>
          </g>
          <g id="Grupo_6508" data-name="Grupo 6508" transform="translate(5.656 5.439)">
            <path id="Trazado_22000" data-name="Trazado 22000" d="M555.607,265.889c.133.805-.234,1.536-.819,1.632s-1.165-.479-1.3-1.284.236-1.538.821-1.633S555.475,265.083,555.607,265.889Z" transform="translate(-553.462 -264.593)" fill="#28121e"/>
          </g>
          <g id="Grupo_6509" data-name="Grupo 6509" transform="translate(2.121 1.75)">
            <path id="Trazado_22001" data-name="Trazado 22001" d="M552.446,265.545c.031-.023,3.085-2.379,6.4-1.064l.564-1.417c-4.14-1.653-7.756,1.162-7.908,1.284Z" transform="translate(-551.499 -262.545)" fill="#bb5a38"/>
          </g>
          <g id="Grupo_6510" data-name="Grupo 6510" transform="translate(11.847)">
            <path id="Trazado_22002" data-name="Trazado 22002" d="M559.032,274.316A2.158,2.158,0,0,0,560.6,273.2c.288-.753-.15-1.457-.812-2.523-.25-.4-.544-.875-.855-1.437a4.545,4.545,0,0,1-.261-.567,3.87,3.87,0,0,1,.311-3.359,4.443,4.443,0,0,1,3.159-2.138,5.766,5.766,0,0,1,3.085.326l.564-1.417a7.284,7.284,0,0,0-3.886-.416,5.95,5.95,0,0,0-4.237,2.874,5.444,5.444,0,0,0-.427,4.661,6,6,0,0,0,.357.776c.326.589.634,1.084.9,1.5a7.315,7.315,0,0,1,.659,1.189c-.061-.02-.2.074-.546.175Z" transform="translate(-556.9 -261.573)" fill="#bb5a38"/>
          </g>
          <g id="Grupo_6511" data-name="Grupo 6511" transform="translate(10.916 15.426)">
            <path id="Trazado_22003" data-name="Trazado 22003" d="M558.667,272.813a4.417,4.417,0,0,0,3.124-1.714l-1.185-.96a2.908,2.908,0,0,1-3.555.908l-.668,1.374A4.528,4.528,0,0,0,558.667,272.813Z" transform="translate(-556.383 -270.139)" fill="#bb5a38"/>
          </g>
          <g id="Grupo_6512" data-name="Grupo 6512" transform="translate(2.062 11.189)">
            <path id="Trazado_22004" data-name="Trazado 22004" d="M552.411,268.184a.475.475,0,1,1-.546-.391A.475.475,0,0,1,552.411,268.184Z" transform="translate(-551.467 -267.786)" fill="#bb5a38"/>
          </g>
          <g id="Grupo_6513" data-name="Grupo 6513" transform="translate(4.875 12.358)">
            <path id="Trazado_22005" data-name="Trazado 22005" d="M553.435,268.607a.2.2,0,1,1-.234-.169A.205.205,0,0,1,553.435,268.607Z" transform="translate(-553.029 -268.436)" fill="#bb5a38"/>
          </g>
          <g id="Grupo_6514" data-name="Grupo 6514" transform="translate(2.126 13.855)">
            <path id="Trazado_22006" data-name="Trazado 22006" d="M552.33,269.615a.417.417,0,1,1-.479-.342A.417.417,0,0,1,552.33,269.615Z" transform="translate(-551.502 -269.267)" fill="#bb5a38"/>
          </g>
          <g id="Grupo_6515" data-name="Grupo 6515" transform="translate(0 12.444)">
            <path id="Trazado_22007" data-name="Trazado 22007" d="M550.78,268.677a.231.231,0,1,1-.265-.191A.229.229,0,0,1,550.78,268.677Z" transform="translate(-550.321 -268.483)" fill="#bb5a38"/>
          </g>
          <g id="Grupo_6516" data-name="Grupo 6516" transform="translate(4.871 14.654)">
            <path id="Trazado_22008" data-name="Trazado 22008" d="M553.721,270a.349.349,0,1,1-.4-.288A.348.348,0,0,1,553.721,270Z" transform="translate(-553.026 -269.71)" fill="#bb5a38"/>
          </g>
          <g id="Grupo_6517" data-name="Grupo 6517" transform="translate(6.936 10.896)">
            <path id="Trazado_22009" data-name="Trazado 22009" d="M554.793,267.886a.312.312,0,1,1-.358-.258A.312.312,0,0,1,554.793,267.886Z" transform="translate(-554.173 -267.624)" fill="#bb5a38"/>
          </g>
          <g id="Grupo_6518" data-name="Grupo 6518" transform="translate(7.278 12.737)">
            <path id="Trazado_22010" data-name="Trazado 22010" d="M554.37,269.276a.542.542,0,1,1,.623.447A.541.541,0,0,1,554.37,269.276Z" transform="translate(-554.363 -268.646)" fill="#bb5a38"/>
          </g>
          <g id="Grupo_6519" data-name="Grupo 6519" transform="translate(17.477 9.018)">
            <path id="Trazado_22011" data-name="Trazado 22011" d="M560.851,266.929a.415.415,0,1,1-.476-.342A.415.415,0,0,1,560.851,266.929Z" transform="translate(-560.026 -266.581)" fill="#bb5a38"/>
          </g>
          <g id="Grupo_6520" data-name="Grupo 6520" transform="translate(19.122 11.465)">
            <path id="Trazado_22012" data-name="Trazado 22012" d="M560.948,268.61a.578.578,0,1,1,.663.477A.576.576,0,0,1,560.948,268.61Z" transform="translate(-560.94 -267.94)" fill="#bb5a38"/>
          </g>
          <g id="Grupo_6521" data-name="Grupo 6521" transform="translate(20.177 9.354)">
            <path id="Trazado_22013" data-name="Trazado 22013" d="M562.194,267.049a.339.339,0,0,1-.279.387.337.337,0,1,1,.279-.387Z" transform="translate(-561.525 -266.767)" fill="#bb5a38"/>
          </g>
        </g>
      </g>
    </g>
  </g>
</svg>
