<svg xmlns="http://www.w3.org/2000/svg" width="60" height="53.67" viewBox="0 0 60 53.67">
  <g id="www_2_" data-name="www (2)" transform="translate(0 -0.5)">
    <path id="Trazado_842019" data-name="Trazado 842019" d="M232.316,168.5a10.312,10.312,0,1,0,10.313,10.312A10.324,10.324,0,0,0,232.316,168.5Zm0,18.281a7.969,7.969,0,1,1,7.969-7.969A7.978,7.978,0,0,1,232.316,186.781Zm0,0" transform="translate(-195.988 -148.313)" fill="#ffd54f"/>
    <path id="Trazado_842020" data-name="Trazado 842020" d="M301.176,211.5a1.172,1.172,0,0,0,0,2.344,2.933,2.933,0,0,1,2.929,2.929,1.172,1.172,0,0,0,2.344,0A5.279,5.279,0,0,0,301.176,211.5Zm0,0" transform="translate(-264.848 -186.277)" fill="#ffd54f"/>
    <path id="Trazado_842021" data-name="Trazado 842021" d="M44.974,71.13a1.172,1.172,0,1,0-2.081,1.078L46.047,78.3a1.172,1.172,0,0,0,2.1-.032l1.91-3.976L52.128,78.3a1.173,1.173,0,0,0,1.041.633h.017a1.173,1.173,0,0,0,1.039-.665l2.926-6.094a1.172,1.172,0,1,0-2.113-1.014l-1.91,3.976L51.055,71.13a1.172,1.172,0,0,0-2.1.032l-1.909,3.976Zm0,0" transform="translate(-37.751 -61.794)" fill="#ffd54f"/>
    <path id="Trazado_842022" data-name="Trazado 842022" d="M117.16,2.844a1.172,1.172,0,0,0,.829-2A1.172,1.172,0,1,0,116.332,2.5,1.18,1.18,0,0,0,117.16,2.844Zm0,0" transform="translate(-102.396)" fill="#ffd54f"/>
    <path id="Trazado_842023" data-name="Trazado 842023" d="M60,20.656V5.187A4.693,4.693,0,0,0,55.312.5H19.686a1.172,1.172,0,0,0,0,2.344H55.312a2.347,2.347,0,0,1,2.344,2.344V20.656A2.347,2.347,0,0,1,55.312,23H49.687c-.034,0-.067,0-.1.005a15.316,15.316,0,0,0-8.237-6.888L43.087,12.5l2.075,4.007a1.171,1.171,0,0,0,1.04.633h.018a1.172,1.172,0,0,0,1.039-.665l2.926-6.094a1.172,1.172,0,0,0-2.113-1.014l-1.909,3.976L44.089,9.336a1.172,1.172,0,0,0-2.1.032l-1.91,3.976L38.008,9.336a1.172,1.172,0,0,0-2.082,1.078l2.594,5.01a15.258,15.258,0,0,0-6.348.418l2.623-5.46a1.172,1.172,0,0,0-2.113-1.014l-1.91,3.976L28.7,9.336a1.172,1.172,0,0,0-2.1.032L24.69,13.344,22.616,9.336a1.172,1.172,0,0,0-2.081,1.078l3.154,6.094a1.172,1.172,0,0,0,2.1-.032L27.7,12.5l2.074,4.007a1.144,1.144,0,0,0,.124.186A15.336,15.336,0,0,0,23.072,23H4.687a2.347,2.347,0,0,1-2.344-2.344V5.188A2.347,2.347,0,0,1,4.687,2.844h4.8A1.172,1.172,0,0,0,9.491.5h-4.8A4.693,4.693,0,0,0,0,5.188V20.656a4.693,4.693,0,0,0,4.687,4.687H21.993A15.231,15.231,0,0,0,43.915,43.707l9.3,9.3a3.974,3.974,0,1,0,5.62-5.62l-3.654-3.654a1.172,1.172,0,0,0-1.657,1.657l3.654,3.655a1.63,1.63,0,1,1-2.3,2.305l-8.993-8.993a15.22,15.22,0,0,0,4.783-17.014h4.649A4.693,4.693,0,0,0,60,20.656ZM36.328,43.391A12.891,12.891,0,1,1,49.219,30.5,12.905,12.905,0,0,1,36.328,43.391Zm0,0" transform="translate(0)" fill="#ffd54f"/>
    <path id="Trazado_842024" data-name="Trazado 842024" d="M430.434,343.125a1.172,1.172,0,1,0,.829-.343A1.18,1.18,0,0,0,430.434,343.125Zm0,0" transform="translate(-379.69 -302.17)" fill="#ffd54f"/>
  </g>
</svg>
