<svg xmlns="http://www.w3.org/2000/svg" width="154" height="70.899" viewBox="0 0 154 70.899">
  <g id="modista_5_" data-name="modista (5)" transform="translate(0 0)">
    <path id="Trazado_841118" data-name="Trazado 841118" d="M93.178,113.923H29.207a21.7,21.7,0,0,1-21.7-21.7V64.762H93.178Zm0,0" transform="translate(-5.252 -45.282)" fill="#f9a806"/>
    <path id="Trazado_841119" data-name="Trazado 841119" d="M93.178,24.731c0-9.51-19.177-17.22-42.833-17.22S7.512,15.222,7.512,24.731,26.689,41.952,50.345,41.952,93.178,34.242,93.178,24.731Zm0,0" transform="translate(-5.253 -5.252)" fill="#ffb509"/>
    <path id="Trazado_841120" data-name="Trazado 841120" d="M95.213,40.569c0,9.511-19.176,17.222-42.831,17.222-20.69,0-37.951-5.9-41.957-13.741,7.824,4.142,20.2,6.813,34.126,6.813,23.655,0,42.832-7.71,42.832-17.222a7.575,7.575,0,0,0-.876-3.478c5.463,2.888,8.706,6.493,8.706,10.405Zm0,0" transform="translate(-7.29 -21.091)" fill="#f9a806"/>
    <path id="Trazado_841121" data-name="Trazado 841121" d="M115.614,44.465c0-4.822-11.593-8.731-25.894-8.731s-25.9,3.909-25.9,8.731S75.419,53.2,89.72,53.2,115.614,49.288,115.614,44.465Zm0,0" transform="translate(-44.627 -24.986)" fill="#d3d3d8"/>
    <path id="Trazado_841122" data-name="Trazado 841122" d="M119.827,48.845c0,4.822-11.593,8.731-25.893,8.731-10.933,0-20.284-2.285-24.082-5.514a64.052,64.052,0,0,0,16.08,1.886c14.3,0,25.893-3.91,25.893-8.732A4.345,4.345,0,0,0,110.012,42c5.982,1.6,9.815,4.071,9.815,6.845Zm0,0" transform="translate(-48.842 -29.367)" fill="#babac0"/>
    <path id="Trazado_841123" data-name="Trazado 841123" d="M425.22,153.954H395.55V122.015H425.22a3.1,3.1,0,0,1,3.1,3.1v25.745a3.1,3.1,0,0,1-3.1,3.1Zm0,0" transform="translate(-276.576 -85.315)" fill="#d93131"/>
    <path id="Trazado_841124" data-name="Trazado 841124" d="M482.375,153.954h-5.083V122.015h5.083a3.1,3.1,0,0,1,3.1,3.1v25.745a3.1,3.1,0,0,1-3.1,3.1Zm0,0" transform="translate(-333.732 -85.315)" fill="#cb2c2c"/>
    <path id="Trazado_841125" data-name="Trazado 841125" d="M441.428,160.029a6.487,6.487,0,1,1-6.488-6.487A6.487,6.487,0,0,1,441.428,160.029Zm0,0" transform="translate(-299.583 -107.36)" fill="#d3d3d8"/>
    <path id="Trazado_841126" data-name="Trazado 841126" d="M441.428,160.029a6.487,6.487,0,1,1-6.488-6.487A6.487,6.487,0,0,1,441.428,160.029Zm0,0" transform="translate(-299.583 -107.36)" fill="#d3d3d8"/>
    <path id="Trazado_841127" data-name="Trazado 841127" d="M442.6,161.208a6.489,6.489,0,0,1-12.468,2.518,6.491,6.491,0,0,0,8.5-8.5,6.485,6.485,0,0,1,3.969,5.978Zm0,0" transform="translate(-300.757 -108.54)" fill="#babac0"/>
    <path id="Trazado_841128" data-name="Trazado 841128" d="M124.227,81.981V113.92H29.21a21.7,21.7,0,0,1-21.7-21.694V64.759c0,9.512,19.177,17.221,42.831,17.221h73.884Zm0,0" transform="translate(-5.253 -45.28)" fill="#ffb509"/>
    <path id="Trazado_841129" data-name="Trazado 841129" d="M367.52,122.016h8.432v31.94H367.52Zm0,0" transform="translate(-256.977 -85.316)" fill="#f9a806"/>
    <path id="Trazado_841130" data-name="Trazado 841130" d="M429.688,146.031a8.746,8.746,0,1,0,8.746,8.746A8.757,8.757,0,0,0,429.688,146.031Zm0,12.975a4.229,4.229,0,1,1,4.229-4.229A4.232,4.232,0,0,1,429.688,159.006Zm0,0" transform="translate(-294.331 -102.108)"/>
    <path id="Trazado_841131" data-name="Trazado 841131" d="M84.47,50.2c13.99,0,28.154-3.775,28.154-10.99S98.461,28.223,84.47,28.223,56.316,32,56.316,39.213,70.479,50.2,84.47,50.2ZM66.881,35.181A57.3,57.3,0,0,1,84.47,32.742a57.3,57.3,0,0,1,17.587,2.439c4.783,1.612,6.047,3.343,6.047,4.032s-1.264,2.422-6.047,4.034A57.3,57.3,0,0,1,84.47,45.686a57.312,57.312,0,0,1-17.59-2.439c-4.783-1.612-6.046-3.344-6.046-4.034S62.1,36.793,66.881,35.181Zm0,0" transform="translate(-39.378 -19.734)"/>
    <path id="Trazado_841132" data-name="Trazado 841132" d="M148.643,34.441H107.619a2.259,2.259,0,0,0,0,4.518h9.1V66.381h-5.346V54.958a2.259,2.259,0,1,0-4.518,0V66.381h-5.346V58.348a2.259,2.259,0,1,0-4.518,0v8.033H91.64V58.348a2.259,2.259,0,1,0-4.518,0v8.033H81.777V58.348a2.259,2.259,0,1,0-4.518,0v8.033H71.912V58.348a2.259,2.259,0,1,0-4.518,0v8.033H62.049V54.958a2.259,2.259,0,1,0-4.518,0V66.381H52.185V58.348a2.259,2.259,0,1,0-4.519,0v8.033H42.321V58.348a2.259,2.259,0,1,0-4.518,0v8.033H32.457V58.348a2.259,2.259,0,1,0-4.518,0v8.033H23.957c-.459,0-.913-.022-1.364-.053v-7.98a2.259,2.259,0,1,0-4.518,0v7.121A19.386,19.386,0,0,1,12.729,62.8V54.958a2.259,2.259,0,1,0-4.518,0v3.365A19.326,19.326,0,0,1,4.517,46.946V28.224l.009.007C9.589,32.7,16.35,34.968,22.751,36.5a96.276,96.276,0,0,0,22.339,2.46H93.565a2.259,2.259,0,0,0,0-4.518H90.184V19.479c0-5.584-4.958-10.653-13.962-14.272C67.871,1.849,56.814,0,45.092,0A95.754,95.754,0,0,0,20.883,2.93,2.259,2.259,0,0,0,22.046,7.3,91.147,91.147,0,0,1,45.092,4.518C69,4.518,85.666,12.4,85.666,19.479c0,3.968-4.378,6.753-7.438,8.38A54.574,54.574,0,0,1,63.7,32.812a79.157,79.157,0,0,1-11.323,1.5A115.024,115.024,0,0,1,29.8,33.286a52.54,52.54,0,0,1-18.47-5.8c-2.841-1.6-6.789-4.28-6.816-7.974,0-.011,0-.021,0-.032,0-1.8,1.062-4.594,6.119-7.63A2.259,2.259,0,0,0,8.31,7.976C1.443,12.1,0,16.507,0,19.478V46.946A23.988,23.988,0,0,0,19.8,70.531a2.229,2.229,0,0,0,.294.053,24,24,0,0,0,3.858.315H148.643A5.362,5.362,0,0,0,154,65.542V39.8a5.362,5.362,0,0,0-5.356-5.356Zm-72.421-.689a32.15,32.15,0,0,0,9.444-5.529v6.218H74.4c.618-.222,1.227-.451,1.819-.689Zm73.26,31.79a.839.839,0,0,1-.839.839H121.232V38.958h27.411a.839.839,0,0,1,.839.839Zm0,0"/>
  </g>
</svg>
