<svg xmlns="http://www.w3.org/2000/svg" width="505" height="304.65" viewBox="0 0 505 304.65">
  <g id="Grupo_1078839" data-name="Grupo 1078839" transform="translate(-284.598 -10606.587)">
    <g id="Grupo_1054902" data-name="Grupo 1054902" transform="translate(135.335 7536.477)">
      <path id="Trazado_772351" data-name="Trazado 772351" d="M999.522,4.243H985.144c-.248-2.817-.586-5.605-.574-8.47.043-8.947,1.851-17.9.154-26.832a46.822,46.822,0,0,1,.8-21.323A20.42,20.42,0,0,0,984.979-66c-1.509-3.636-1.607-7.6-1.465-11.506.331-9.009-1.516-17.876-1.653-26.852-.017-1.156.077-2.746-1.559-2.733-1.674.014-1.39,1.624-1.471,2.762-.327,4.626-.25,9.318-1.023,13.865-1.4,8.273.8,16.867-2.207,24.923a21.4,21.4,0,0,0-.51,12.769c1.253,5.4,2.694,10.83,1.57,16.411-2.721,13.517-.007,27.076-.5,40.605H960.883c.567-1.65-.023-3.67,1.515-5,4.52-3.908,4.251-8.912,3.219-14.065-.822-4.106-1.707-8.2-2.621-12.285-1.924-8.586-5.283-17.049-3.708-26.03,1.7-9.673.3-18.971-1.542-28.451a119.962,119.962,0,0,1,.637-50.8c2.854-12.1,1.818-23.779-1.009-35.668-2.064,6.837-4.865,13.769-4.775,20.662a107.75,107.75,0,0,1-3.215,27.932c-.51,2.029-.843,4.218.482,6.085a11.644,11.644,0,0,1,2.245,7.156c-.048,1.818,3.047,4.462-.148,5.231-2.571.619-1.873-3.135-3.018-4.7-.114-.155-.491-.118-.931-.208-1,3.168-.115,5.738,2.208,8.008.9.877,2.638,1.869,1.552,3.24-1.009,1.276-2.419-.281-3.579-.675-3.845-1.308-6.3-3.8-6.663-8.1-.134-1.586-.064-3.334-1.317-4.65v-3.593c2.886-6.889,1.664-13.779,0-20.668v-13.478a14.316,14.316,0,0,0,1.974-9.883c-1.572-10.231,1.419-19.822,3.146-29.623,1.155-6.553,4.677-10.738,11.075-12.67,3.7-1.119,7.351-2.469,10.937-3.926,4.207-1.711,6.834-6.008,5-8.494-1.963-2.659-2.057-6.159-4.628-8.576-1.244-1.169-1.922-3.773-.79-5.427,1.363-1.992,1.2-3.956.988-5.968-.683-6.415,1.693-11.166,7.345-14.277h8.985c3.491,1.767,7.15,3.5,8.067,7.775.978,4.569-.208,9.392,1.68,13.947a4.852,4.852,0,0,1-1.068,4.179c-1.65,1.734-2.171,3.833-3.081,5.854-2.735,6.079-1.3,9.389,5.078,11.558,3.82,1.3,7.587,2.751,11.372,4.15,3.534,1.306,6.737,3.464,7.581,7.118,2.21,9.556,5.991,18.921,4.94,28.989a43.289,43.289,0,0,0,.669,13.37,48.332,48.332,0,0,1,.388,15.629,101.265,101.265,0,0,0-.225,20.09c.722,9.2-.444,14.718-6.968,16.579-1.273.363-2.714,2.353-3.872.588-.836-1.273.917-2.313,1.849-3.206a6.472,6.472,0,0,0,1.67-7.8,17.747,17.747,0,0,0-1.952,4.026,1.573,1.573,0,0,1-2.244.841c-.747-.4-.725-1.21-.487-1.976a13.062,13.062,0,0,0,.627-2.151c.811-6.3,5.091-11.983,2.271-18.991-2.765-6.866-2.551-14.267-2.307-21.683.248-7.537-2.875-14.6-4.378-22.047-.754.347-.968.379-1,.474a9.538,9.538,0,0,0-.535,1.681,90.665,90.665,0,0,0,.472,35.432,120.365,120.365,0,0,1-.078,50.383c-1.57,7.658-3.1,15.241-1.64,23.1,1.451,7.818.447,15.447-1.686,23.058a138.651,138.651,0,0,0-4.761,22.365c-.394,3.62.088,6.851,2.809,9.493A6.588,6.588,0,0,1,999.522,4.243Z" transform="translate(-745.105 3368.467)" fill="#b0c0d2"/>
      <path id="Trazado_772352" data-name="Trazado 772352" d="M999.522,4.243H985.144c-.248-2.817-.586-5.605-.574-8.47.043-8.947,1.851-17.9.154-26.832a46.822,46.822,0,0,1,.8-21.323A20.42,20.42,0,0,0,984.979-66c-1.509-3.636-1.607-7.6-1.465-11.506.331-9.009-1.516-17.876-1.653-26.852-.017-1.156.077-2.746-1.559-2.733-1.674.014-1.39,1.624-1.471,2.762-.327,4.626-.25,9.318-1.023,13.865-1.4,8.273.8,16.867-2.207,24.923a21.4,21.4,0,0,0-.51,12.769c1.253,5.4,2.694,10.83,1.57,16.411-2.721,13.517-.007,27.076-.5,40.605H960.883c.567-1.65-.023-3.67,1.515-5,4.52-3.908,4.251-8.912,3.219-14.065-.822-4.106-1.707-8.2-2.621-12.285-1.924-8.586-5.283-17.049-3.708-26.03,1.7-9.673.3-18.971-1.542-28.451a119.962,119.962,0,0,1,.637-50.8c2.854-12.1,1.818-23.779-1.009-35.668-2.064,6.837-4.865,13.769-4.775,20.662a107.75,107.75,0,0,1-3.215,27.932c-.51,2.029-.843,4.218.482,6.085a11.644,11.644,0,0,1,2.245,7.156c-.048,1.818,3.047,4.462-.148,5.231-2.571.619-1.873-3.135-3.018-4.7-.114-.155-.491-.118-.931-.208-1,3.168-.115,5.738,2.208,8.008.9.877,2.638,1.869,1.552,3.24-1.009,1.276-2.419-.281-3.579-.675-3.845-1.308-6.3-3.8-6.663-8.1-.134-1.586-.064-3.334-1.317-4.65v-3.593c2.886-6.889,1.664-13.779,0-20.668v-13.478a14.316,14.316,0,0,0,1.974-9.883c-1.572-10.231,1.419-19.822,3.146-29.623,1.155-6.553,4.677-10.738,11.075-12.67,3.7-1.119,7.351-2.469,10.937-3.926,4.207-1.711,6.834-6.008,5-8.494-1.963-2.659-2.057-6.159-4.628-8.576-1.244-1.169-1.922-3.773-.79-5.427,1.363-1.992,1.2-3.956.988-5.968-.683-6.415,1.693-11.166,7.345-14.277h8.985c3.491,1.767,7.15,3.5,8.067,7.775.978,4.569-.208,9.392,1.68,13.947a4.852,4.852,0,0,1-1.068,4.179c-1.65,1.734-2.171,3.833-3.081,5.854-2.735,6.079-1.3,9.389,5.078,11.558,3.82,1.3,7.587,2.751,11.372,4.15,3.534,1.306,6.737,3.464,7.581,7.118,2.21,9.556,5.991,18.921,4.94,28.989a43.289,43.289,0,0,0,.669,13.37,48.332,48.332,0,0,1,.388,15.629,101.265,101.265,0,0,0-.225,20.09c.722,9.2-.444,14.718-6.968,16.579-1.273.363-2.714,2.353-3.872.588-.836-1.273.917-2.313,1.849-3.206a6.472,6.472,0,0,0,1.67-7.8,17.747,17.747,0,0,0-1.952,4.026,1.573,1.573,0,0,1-2.244.841c-.747-.4-.725-1.21-.487-1.976a13.062,13.062,0,0,0,.627-2.151c.811-6.3,5.091-11.983,2.271-18.991-2.765-6.866-2.551-14.267-2.307-21.683.248-7.537-2.875-14.6-4.378-22.047-.754.347-.968.379-1,.474a9.538,9.538,0,0,0-.535,1.681,90.665,90.665,0,0,0,.472,35.432,120.365,120.365,0,0,1-.078,50.383c-1.57,7.658-3.1,15.241-1.64,23.1,1.451,7.818.447,15.447-1.686,23.058a138.651,138.651,0,0,0-4.761,22.365c-.394,3.62.088,6.851,2.809,9.493A6.588,6.588,0,0,1,999.522,4.243Z" transform="translate(-449.808 3368.467)" fill="#b0c0d2"/>
      <path id="Trazado_772353" data-name="Trazado 772353" d="M1,129.928H-1V0H1Z" transform="translate(597.694 3248.032) rotate(90)" fill="#673ab7"/>
      <text id="Superior" transform="translate(565.039 3123.803)" fill="#12263f" font-size="16" font-family="SegoeUI, Segoe UI"><tspan x="0" y="17">Superior</tspan></text>
      <text id="Plano_Transversal" data-name="Plano Transversal" transform="translate(467.924 3070.364)" fill="#12263f" font-size="16" font-family="SegoeUI, Segoe UI"><tspan x="0" y="17">Plano Transversal</tspan></text>
      <text id="Plano_Frontal" data-name="Plano Frontal" transform="translate(184.665 3070.364)" fill="#12263f" font-size="16" font-family="SegoeUI, Segoe UI"><tspan x="0" y="17">Plano Frontal</tspan></text>
      <g id="Grupo_1054866" data-name="Grupo 1054866" transform="translate(-30.602 -8337.31)">
        <path id="Trazado_24927" data-name="Trazado 24927" d="M999.522,4.243H985.144c-.248-2.817-.586-5.605-.574-8.47.043-8.947,1.851-17.9.154-26.832a46.822,46.822,0,0,1,.8-21.323A20.42,20.42,0,0,0,984.979-66c-1.509-3.636-1.607-7.6-1.465-11.506.331-9.009-1.516-17.876-1.653-26.852-.017-1.156.077-2.746-1.559-2.733-1.674.014-1.39,1.624-1.471,2.762-.327,4.626-.25,9.318-1.023,13.865-1.4,8.273.8,16.867-2.207,24.923a21.4,21.4,0,0,0-.51,12.769c1.253,5.4,2.694,10.83,1.57,16.411-2.721,13.517-.007,27.076-.5,40.605H960.883c.567-1.65-.023-3.67,1.515-5,4.52-3.908,4.251-8.912,3.219-14.065-.822-4.106-1.707-8.2-2.621-12.285-1.924-8.586-5.283-17.049-3.708-26.03,1.7-9.673.3-18.971-1.542-28.451a119.962,119.962,0,0,1,.637-50.8c2.854-12.1,1.818-23.779-1.009-35.668-2.064,6.837-4.865,13.769-4.775,20.662a107.75,107.75,0,0,1-3.215,27.932c-.51,2.029-.843,4.218.482,6.085a11.644,11.644,0,0,1,2.245,7.156c-.048,1.818,3.047,4.462-.148,5.231-2.571.619-1.873-3.135-3.018-4.7-.114-.155-.491-.118-.931-.208-1,3.168-.115,5.738,2.208,8.008.9.877,2.638,1.869,1.552,3.24-1.009,1.276-2.419-.281-3.579-.675-3.845-1.308-6.3-3.8-6.663-8.1-.134-1.586-.064-3.334-1.317-4.65v-3.593c2.886-6.889,1.664-13.779,0-20.668v-13.478a14.316,14.316,0,0,0,1.974-9.883c-1.572-10.231,1.419-19.822,3.146-29.623,1.155-6.553,4.677-10.738,11.075-12.67,3.7-1.119,7.351-2.469,10.937-3.926,4.207-1.711,6.834-6.008,5-8.494-1.963-2.659-2.057-6.159-4.628-8.576-1.244-1.169-1.922-3.773-.79-5.427,1.363-1.992,1.2-3.956.988-5.968-.683-6.415,1.693-11.166,7.345-14.277h8.985c3.491,1.767,7.15,3.5,8.067,7.775.978,4.569-.208,9.392,1.68,13.947a4.852,4.852,0,0,1-1.068,4.179c-1.65,1.734-2.171,3.833-3.081,5.854-2.735,6.079-1.3,9.389,5.078,11.558,3.82,1.3,7.587,2.751,11.372,4.15,3.534,1.306,6.737,3.464,7.581,7.118,2.21,9.556,5.991,18.921,4.94,28.989a43.289,43.289,0,0,0,.669,13.37,48.332,48.332,0,0,1,.388,15.629,101.265,101.265,0,0,0-.225,20.09c.722,9.2-.444,14.718-6.968,16.579-1.273.363-2.714,2.353-3.872.588-.836-1.273.917-2.313,1.849-3.206a6.472,6.472,0,0,0,1.67-7.8,17.747,17.747,0,0,0-1.952,4.026,1.573,1.573,0,0,1-2.244.841c-.747-.4-.725-1.21-.487-1.976a13.062,13.062,0,0,0,.627-2.151c.811-6.3,5.091-11.983,2.271-18.991-2.765-6.866-2.551-14.267-2.307-21.683.248-7.537-2.875-14.6-4.378-22.047-.754.347-.968.379-1,.474a9.538,9.538,0,0,0-.535,1.681,90.665,90.665,0,0,0,.472,35.432,120.365,120.365,0,0,1-.078,50.383c-1.57,7.658-3.1,15.241-1.64,23.1,1.451,7.818.447,15.447-1.686,23.058a138.651,138.651,0,0,0-4.761,22.365c-.394,3.62.088,6.851,2.809,9.493A6.588,6.588,0,0,1,999.522,4.243Z" transform="translate(-575.705 11705.775)" fill="#b0c0d2"/>
        <path id="Trazado_24930" data-name="Trazado 24930" d="M3443.047,11666.418h-2V11396h2Z" transform="translate(-3037.484 45.653)" fill="#673ab7"/>
        <text id="Izq." transform="translate(441.406 11461.111)" fill="#00223d" font-size="16" font-family="SegoeUI, Segoe UI"><tspan x="0" y="17">Izq.</tspan></text>
        <text id="Plano_Sagital" data-name="Plano Sagital" transform="translate(356.339 11407.673)" fill="#12263f" font-size="16" font-family="SegoeUIBlack, Segoe UI"><tspan x="0" y="17">Plano </tspan></text>
        <text id="Der." transform="translate(336.798 11459.999)" fill="#00223d" font-size="16" font-family="SegoeUI, Segoe UI"><tspan x="0" y="17">Der.</tspan></text>
      </g>
      <text id="Inferior" transform="translate(565.039 3353.696)" fill="#12263f" font-size="16" font-family="SegoeUI, Segoe UI"><tspan x="0" y="17">Inferior</tspan></text>
    </g>
    <path id="Trazado_841535" data-name="Trazado 841535" d="M0,0H12V304H0Z" transform="translate(284.598 10606.587)" fill="#d1bcff" opacity="0.18"/>
    <path id="Trazado_841536" data-name="Trazado 841536" d="M0,0H12V304H0Z" transform="translate(777.598 10606.587)" fill="#d1bcff" opacity="0.18"/>
  </g>
</svg>
