<svg xmlns="http://www.w3.org/2000/svg" xmlns:xlink="http://www.w3.org/1999/xlink" width="271.462" height="177.09" viewBox="0 0 271.462 177.09">
  <defs>
    <clipPath id="clip-path">
      <rect id="Rectángulo_374740" data-name="Rectángulo 374740" width="271.462" height="177.089" fill="none"/>
    </clipPath>
  </defs>
  <g id="Grupo_1079131" data-name="Grupo 1079131" transform="translate(-1019.326 -13896.441)">
    <g id="Grupo_1060933" data-name="Grupo 1060933" transform="translate(-1346.443 18053.475)">
      <g id="Grupo_1060922" data-name="Grupo 1060922" transform="translate(2338 -4337)">
        <g id="Grupo_1079111" data-name="Grupo 1079111" transform="translate(27.769 179.967)">
          <g id="Grupo_1079130" data-name="Grupo 1079130">
            <g id="Grupo_1079105" data-name="Grupo 1079105" clip-path="url(#clip-path)">
              <path id="Trazado_842150" data-name="Trazado 842150" d="M19,5.941s4.262-7.564,9.282-2.411c0,0,4.758-4.7,10.244.307,0,0,5.511-5.595,9.6-.1,0,0,5.966-7.208,9.6-.1,0,0,6.575-6.08,8,2.31,0,0,6.083-8.494,12.8-1.452,0,0,.961,8.962-15.685,7.683L19,10.57Z" transform="translate(8.366 0.22)" fill="#db5223"/>
              <path id="Trazado_842151" data-name="Trazado 842151" d="M66.19,13.237q-1.506,0-3.176-.128l-43.823-1.6a.719.719,0,0,1-.694-.719V6.161a.73.73,0,0,1,.092-.354c.1-.166,2.346-4.1,5.69-4.534a5.254,5.254,0,0,1,4.256,1.514,7.811,7.811,0,0,1,10.2.308A8.713,8.713,0,0,1,44.469.833a5.722,5.722,0,0,1,3.908,2.027c1.07-1.079,3.46-3.111,5.985-2.833a5.167,5.167,0,0,1,3.793,2.725C59.278,1.906,61.565.5,63.593,1.188c1.273.434,2.191,1.579,2.737,3.414a10.23,10.23,0,0,1,6.332-3.389c2.335-.16,4.556.846,6.613,3a.722.722,0,0,1,.194.421,6.817,6.817,0,0,1-2.021,5.139c-2.237,2.3-6.017,3.466-11.258,3.466M19.937,10.1l43.157,1.574c6.377.49,10.964-.506,13.294-2.876a5.519,5.519,0,0,0,1.656-3.781A6.777,6.777,0,0,0,72.77,2.649c-3.542.246-6.208,3.895-6.234,3.932a.722.722,0,0,1-1.3-.3c-.36-2.12-1.07-3.373-2.109-3.729C61.513,2,59.193,3.683,58.437,4.38a.723.723,0,0,1-1.131-.2c-.856-1.674-1.9-2.588-3.1-2.721-2.581-.284-5.282,2.924-5.308,2.957a.721.721,0,0,1-1.132-.03A4.66,4.66,0,0,0,44.375,2.27c-2.663-.171-5.1,2.269-5.121,2.293a.722.722,0,0,1-1,.024c-4.9-4.472-9.076-.5-9.252-.326a.777.777,0,0,1-.513.206.719.719,0,0,1-.508-.216A4.182,4.182,0,0,0,24.469,2.7c-2.3.3-4.111,2.983-4.532,3.662Z" transform="translate(8.146 0)" fill="#2b1f38"/>
              <path id="Trazado_842152" data-name="Trazado 842152" d="M12.774,28.368,21.736,17.6V4.277s5.762,6.254,9.6,0c0,0,5.121,6.254,10.243,0,0,0,3.842,6.14,10.243.585,0,0,.641,6.2,7.682,0,0,0,1.281,7.247,8.323,2.766,0,0,9.6,4.071,13.445-2.766,0,0-2.561,9.76-19.846,7.863,0,0-16.645,6.731-14.4,19.062H30.059s.64-6.57-10.243,0Z" transform="translate(5.626 1.884)" fill="#f2f04e"/>
              <path id="Trazado_842153" data-name="Trazado 842153" d="M47.244,32.727H30.279a.721.721,0,0,1-.717-.789,2.122,2.122,0,0,0-.784-1.835c-.772-.481-2.884-.791-8.369,2.521a.723.723,0,0,1-.687.032l-7.042-3.42a.72.72,0,0,1-.239-1.109l8.8-10.57V4.5a.72.72,0,0,1,1.249-.488c.024.027,2.6,2.774,5.221,2.531a4.434,4.434,0,0,0,3.238-2.418.72.72,0,0,1,1.17-.081c.022.026,2.107,2.516,4.756,2.516h.007c1.533,0,3-.85,4.366-2.516a.722.722,0,0,1,1.167.073A6.048,6.048,0,0,0,46.187,6.64c1.685.246,3.494-.461,5.387-2.1A.72.72,0,0,1,52.761,5c0,.017.19,1.6,1.247,2.006,1.092.428,2.953-.452,5.245-2.47a.721.721,0,0,1,1.184.415c0,.024.49,2.594,2.315,3.392,1.249.546,2.9.173,4.912-1.108a.719.719,0,0,1,.668-.055c.367.154,9.059,3.732,12.534-2.456a.72.72,0,0,1,1.324.536c-.109.422-2.9,10.269-20.432,8.418-1.681.73-15.8,7.222-13.8,18.2a.721.721,0,0,1-.709.848m-16.272-1.44H46.407c-1.461-12.213,14.285-18.731,14.97-19.009a.73.73,0,0,1,.35-.048c8.4.926,13.175-.931,15.844-3-3.813,1.268-8.184-.118-9.446-.578-2.315,1.4-4.317,1.737-5.959,1.015a5.658,5.658,0,0,1-2.823-3.319c-2.427,1.943-4.35,2.6-5.865,2.006a3.372,3.372,0,0,1-1.847-2.015,7.589,7.589,0,0,1-5.671,1.726,7.094,7.094,0,0,1-4.2-2.433A6.722,6.722,0,0,1,36.872,8a7.96,7.96,0,0,1-5.217-2.359,5.4,5.4,0,0,1-3.811,2.336,7.7,7.7,0,0,1-5.165-1.865V17.818a.719.719,0,0,1-.167.461L14.136,28.341,20,31.189c4.579-2.712,7.7-3.466,9.554-2.3a3.221,3.221,0,0,1,1.417,2.4" transform="translate(5.406 1.664)" fill="#222221"/>
              <path id="Trazado_842154" data-name="Trazado 842154" d="M44.93,24.569,36.607,29.2s-2.881-12.637,14.4-19.061c0,0-7.042,8.026-6.081,14.427" transform="translate(16.043 4.467)" fill="#935811"/>
              <path id="Trazado_842155" data-name="Trazado 842155" d="M36.82,30.145a.7.7,0,0,1-.292-.063.714.714,0,0,1-.409-.5c-.03-.133-2.816-13.328,14.855-19.9a.72.72,0,0,1,.792,1.149c-.068.078-6.809,7.852-5.91,13.845a.721.721,0,0,1-.363.737l-8.321,4.634a.726.726,0,0,1-.351.091M48.974,12.076C37.685,17.295,37.2,25.468,37.4,28.278L44.37,24.4c-.409-4.506,2.594-9.52,4.6-12.32" transform="translate(15.829 4.247)" fill="#222221"/>
              <path id="Trazado_842156" data-name="Trazado 842156" d="M197.669,3.152s-6.956-2.881-10.8,0c0,0-3.254-4.46-9.923,0,0,0-3.2-2.881-7.842,0,0,0-6.328-4.161-9.806,0,0,0-3.8-4.161-9.56,0,0,0-4.818-5.507-8.323,0,0,0-4.684-5.675-7.721,0,0,0-8.284-3.819-11.165,2.732v4.949h75.136Z" transform="translate(53.964 0.277)" fill="#cecece"/>
              <path id="Trazado_842157" data-name="Trazado 842157" d="M197.889,11.775H122.753a.72.72,0,0,1-.72-.72V6.1a.739.739,0,0,1,.061-.29,6.718,6.718,0,0,1,3.82-3.768c2.953-1.116,6.336-.089,7.7.422A4.447,4.447,0,0,1,136.9.148c1.949-.2,3.745,1.211,4.663,2.094A4.863,4.863,0,0,1,145.022.217c2.215-.16,4.174,1.406,5.028,2.218,4.627-3.032,8.1-1.083,9.422-.06,2.954-2.777,7.481-1.269,9.865.154a7.314,7.314,0,0,1,7.855-.029c5.452-3.425,8.824-1.171,10.005-.065,4.169-2.493,10.681.153,10.967.272a.719.719,0,0,1,.445.665v7.682a.72.72,0,0,1-.72.72m-74.416-1.44h73.7V3.871c-1.54-.546-6.705-2.127-9.645.076a.713.713,0,0,1-.539.137.724.724,0,0,1-.475-.288c-.115-.154-2.963-3.823-8.939.174a.723.723,0,0,1-.883-.063c-.112-.1-2.887-2.463-6.98.076a.721.721,0,0,1-.775-.01c-.059-.036-5.835-3.757-8.859-.14a.724.724,0,0,1-.537.259.711.711,0,0,1-.547-.236c-.137-.147-3.461-3.617-8.606.1a.722.722,0,0,1-.964-.109c-.022-.023-2.087-2.378-4.294-2.192a3.909,3.909,0,0,0-2.879,2.1.719.719,0,0,1-.562.331.691.691,0,0,1-.6-.259c-.022-.024-2.063-2.459-4.048-2.25a3.449,3.449,0,0,0-2.486,2.13.719.719,0,0,1-.935.315c-.039-.019-4.05-1.829-7.2-.632a5.287,5.287,0,0,0-2.946,2.864Z" transform="translate(53.744 0.057)" fill="#222221"/>
              <path id="Trazado_842158" data-name="Trazado 842158" d="M123.022,4.277l-1.6,8.448s16.324-1.257,15.685,16.027h24.647s.285-13.769,11.131-15.8a14.675,14.675,0,0,1,1.992-.229c12.8-.616,16.324,0,16.324,0s9.283.366,6.4-8.448c0,0-3.842,7.167-9.923.457,0,0-4.161,6.116-9.923-.457,0,0-1.281,6.894-9.282,0,0,0-4.483,7.533-9.923,0,0,0-3.2,7.807-9.283.457,0,0-2.561,5.476-7.362-.457,0,0-2.637,6.253-7.721,0,0,0-6.043,8.814-11.165,0" transform="translate(53.475 1.884)" fill="#518e2d"/>
              <path id="Trazado_842159" data-name="Trazado 842159" d="M161.973,29.693H137.327a.721.721,0,0,1-.72-.748c.187-5.041-1.095-8.925-3.811-11.541-4.36-4.194-11.032-3.745-11.1-3.741a.722.722,0,0,1-.762-.853l1.6-8.448a.72.72,0,0,1,1.331-.228c1.334,2.3,2.82,3.494,4.415,3.556,2.917.145,5.507-3.566,5.533-3.6a.724.724,0,0,1,.565-.313.782.782,0,0,1,.588.265c1.456,1.793,2.852,2.65,3.986,2.495,1.6-.223,2.5-2.3,2.514-2.32a.722.722,0,0,1,.563-.432.713.713,0,0,1,.66.259c1.422,1.757,2.777,2.609,3.895,2.48,1.427-.17,2.248-1.86,2.256-1.877a.723.723,0,0,1,1.207-.153c1.75,2.117,3.372,3.07,4.784,2.862,2.067-.315,3.265-3.106,3.277-3.133a.724.724,0,0,1,.582-.442.716.716,0,0,1,.668.294c1.505,2.086,3,3.13,4.543,3.046,2.417-.1,4.16-2.966,4.177-2.995a.721.721,0,0,1,.5-.34.711.711,0,0,1,.585.164c2.678,2.308,4.863,3.257,6.306,2.76a3.325,3.325,0,0,0,1.8-2.348.723.723,0,0,1,.519-.56.714.714,0,0,1,.73.219c1.707,1.95,3.388,2.874,5.03,2.793a5.583,5.583,0,0,0,3.757-2.267.718.718,0,0,1,.544-.311.736.736,0,0,1,.583.233c1.741,1.922,3.428,2.8,4.972,2.607,2.348-.288,3.77-2.894,3.784-2.921a.721.721,0,0,1,1.319.118c.925,2.833.762,5.108-.487,6.76-2.1,2.774-6.439,2.64-6.629,2.632-.128-.017-3.767-.6-16.262,0a13.942,13.942,0,0,0-1.894.218c-10.135,1.9-10.541,14.973-10.544,15.106a.721.721,0,0,1-.72.7m-23.909-1.44H161.3c.251-2.915,1.844-13.947,11.674-15.785a15.171,15.171,0,0,1,2.09-.241c12.73-.615,16.33-.016,16.484.009-.039-.007,3.695.1,5.331-2.074a4.913,4.913,0,0,0,.641-3.988,6.349,6.349,0,0,1-3.937,2.333c-1.865.23-3.757-.6-5.642-2.467a6.57,6.57,0,0,1-4.292,2.214,7.115,7.115,0,0,1-5.378-2.4,4.143,4.143,0,0,1-2.31,2.217c-1.858.65-4.252-.19-7.12-2.512-.794,1.043-2.528,2.9-4.871,3.006-1.763.069-3.469-.843-5.075-2.741a5.884,5.884,0,0,1-3.847,2.961c-1.75.271-3.588-.615-5.459-2.626a4.287,4.287,0,0,1-2.822,1.8c-1.453.167-2.967-.565-4.507-2.21a4.7,4.7,0,0,1-3.1,2.218c-1.524.218-3.107-.565-4.723-2.326-1.036,1.24-3.34,3.587-6.207,3.5a6.16,6.16,0,0,1-4.608-2.767L122.516,12.2c2.123.014,7.409.449,11.267,4.157,2.892,2.779,4.331,6.777,4.281,11.893" transform="translate(53.255 1.663)" fill="#222221"/>
              <path id="Trazado_842160" data-name="Trazado 842160" d="M165.107,10.193a17.988,17.988,0,0,0-12.163,16.027h-3.522S151.663,8.1,165.107,10.193" transform="translate(65.807 4.415)" fill="#004412"/>
              <path id="Trazado_842161" data-name="Trazado 842161" d="M153.163,27.161h-3.522a.727.727,0,0,1-.54-.243.717.717,0,0,1-.174-.566c.049-.4,1.295-9.97,7.314-14.515a11.724,11.724,0,0,1,9.2-2.135.721.721,0,0,1,.088,1.4A17.117,17.117,0,0,0,153.882,26.5a.72.72,0,0,1-.719.665m-2.676-1.44H152.5a18.559,18.559,0,0,1,9.718-14.708,9.8,9.8,0,0,0-5.113,1.973c-4.573,3.453-6.191,10.375-6.623,12.735" transform="translate(65.586 4.195)" fill="#222221"/>
              <text id="ALIMENTACIÓN_PRINCIPAL" data-name="ALIMENTACIÓN PRINCIPAL" transform="translate(0 49.434)" font-size="9" font-family="SegoeUI, Segoe UI"><tspan x="0" y="0">ALIMEN</tspan><tspan y="0" letter-spacing="-0.075em">T</tspan><tspan y="0" letter-spacing="-0.014em">A</tspan><tspan y="0">CIÓN PRINCI</tspan><tspan y="0" letter-spacing="-0.083em">P</tspan><tspan y="0">AL</tspan></text>
            </g>
          </g>
          <text id="_10_R_.P.P." data-name="10 R .P.P." transform="translate(38.117 106.687)" font-size="9" font-family="SegoeUI, Segoe UI"><tspan x="0" y="0">10 </tspan><tspan y="0" letter-spacing="-0.139em">R </tspan><tspan y="0">.</tspan><tspan y="0" letter-spacing="-0.139em">P</tspan><tspan y="0">.</tspan><tspan y="0" letter-spacing="-0.14em">P</tspan><tspan y="0">.</tspan></text>
          <g id="Grupo_1079108" data-name="Grupo 1079108">
            <g id="Grupo_1079107" data-name="Grupo 1079107" clip-path="url(#clip-path)">
              <text id="_6_R.P.P." data-name="6 R.P.P." transform="translate(38.117 174.492)" font-size="9" font-family="SegoeUI, Segoe UI"><tspan x="0" y="0">6 R.P.P.</tspan></text>
              <text id="_6_R.P.P.-2" data-name="6 R.P.P." transform="translate(200.117 104.492)" font-size="9" font-family="SegoeUI, Segoe UI"><tspan x="0" y="0">6 R.P.P.</tspan></text>
            </g>
          </g>
          <text id="_10_R.P.P." data-name="10 R.P.P." transform="translate(196.863 171.597)" font-size="9" font-family="SegoeUI, Segoe UI"><tspan x="0" y="0">10 R.</tspan><tspan y="0" letter-spacing="-0.14em">P</tspan><tspan y="0">.</tspan><tspan y="0" letter-spacing="-0.14em">P</tspan><tspan y="0">.</tspan></text>
          <text id="ESTIRADO" transform="translate(110.435 145.518)" font-size="9" font-family="SegoeUI, Segoe UI"><tspan x="0" y="0">ESTI</tspan><tspan y="0" letter-spacing="0.005em">R</tspan><tspan y="0">ADO</tspan></text>
          <text id="FRUNCION" transform="translate(110.435 78.3)" font-size="9" font-family="SegoeUI, Segoe UI"><tspan x="0" y="0">FRUNCION</tspan></text>
          <g id="Grupo_1079110" data-name="Grupo 1079110">
            <g id="Grupo_1079109" data-name="Grupo 1079109" clip-path="url(#clip-path)">
              <text id="ALIMENTACIÓN_DIFERENCIAL" data-name="ALIMENTACIÓN DIFERENCIAL" transform="translate(155.069 49.434)" font-size="9" font-family="SegoeUI, Segoe UI"><tspan x="0" y="0">ALIMEN</tspan><tspan y="0" letter-spacing="-0.074em">T</tspan><tspan y="0" letter-spacing="-0.014em">A</tspan><tspan y="0">CIÓN DIFERENCIAL</tspan></text>
              <path id="Trazado_842162" data-name="Trazado 842162" d="M10.367,100.82a24.532,24.532,0,0,1-.572-6.083l.035-1.4H17v2.881H12.679a20.908,20.908,0,0,0,.5,3.967Z" transform="translate(4.31 41.105)"/>
              <path id="Trazado_842163" data-name="Trazado 842163" d="M62.531,96.215H49.607V93.334H62.531Zm-25.845,0H23.762V93.334H36.685Z" transform="translate(10.465 41.105)"/>
              <path id="Trazado_842164" data-name="Trazado 842164" d="M66.89,100.775l-2.822-.576a12.168,12.168,0,0,0,.161-3.984H59.648V93.334h6.816l.318,1a13.777,13.777,0,0,1,.108,6.437" transform="translate(26.269 41.105)"/>
              <path id="Trazado_842165" data-name="Trazado 842165" d="M42.391,117.437a69.719,69.719,0,0,1-10.266-1.721l.694-2.8a66.735,66.735,0,0,0,9.842,1.648Zm10.5-.389-.429-2.849a93.517,93.517,0,0,0,9.824-1.986L63.023,115a96.291,96.291,0,0,1-10.129,2.051m-30.643-4.88a28.884,28.884,0,0,1-8.589-6.3l2.135-1.934a26.058,26.058,0,0,0,7.741,5.662Zm50.6-.634-1.216-2.61a29.444,29.444,0,0,0,8.068-5.314l2,2.073a32.2,32.2,0,0,1-8.853,5.851" transform="translate(6.017 45.631)"/>
              <path id="Trazado_842166" data-name="Trazado 842166" d="M57.648,95.191,62.5,98V92.387Z" transform="translate(25.389 40.688)"/>
              <path id="Trazado_842167" data-name="Trazado 842167" d="M38.922,95.191,43.779,98V92.387Z" transform="translate(17.141 40.688)"/>
              <path id="Trazado_842168" data-name="Trazado 842168" d="M20.789,95.191,25.646,98V92.387Z" transform="translate(9.156 40.688)"/>
              <path id="Trazado_842169" data-name="Trazado 842169" d="M13.23,102.954l1.384-5.435-5.4,1.518Z" transform="translate(4.058 42.948)"/>
              <path id="Trazado_842170" data-name="Trazado 842170" d="M24.327,111.829l-2.375-5.08-3.212,4.6Z" transform="translate(8.253 47.013)"/>
              <path id="Trazado_842171" data-name="Trazado 842171" d="M38.291,113.516,33.9,110.025l-.83,5.547Z" transform="translate(14.565 48.456)"/>
              <path id="Trazado_842172" data-name="Trazado 842172" d="M52.185,110.51l-5.263-1.939.952,5.527Z" transform="translate(20.665 47.815)"/>
              <path id="Trazado_842173" data-name="Trazado 842173" d="M63.433,102.3l-5.417,1.452,3.965,3.965Z" transform="translate(25.55 45.053)"/>
              <path id="Trazado_842174" data-name="Trazado 842174" d="M121.87,52.183A24.518,24.518,0,0,1,121.3,46.1l.035-1.4H128.5v2.881h-4.317a20.878,20.878,0,0,0,.5,3.967Z" transform="translate(53.416 19.685)"/>
              <path id="Trazado_842175" data-name="Trazado 842175" d="M174.034,47.578H161.11V44.7h12.923Zm-25.845,0H135.265V44.7h12.923Z" transform="translate(59.572 19.685)"/>
              <path id="Trazado_842176" data-name="Trazado 842176" d="M178.393,52.138l-2.822-.576a12.167,12.167,0,0,0,.161-3.984h-4.581V44.7h6.816l.318,1a13.814,13.814,0,0,1,.107,6.437" transform="translate(75.377 19.685)"/>
              <path id="Trazado_842177" data-name="Trazado 842177" d="M153.894,68.8a69.737,69.737,0,0,1-10.267-1.721l.694-2.8a66.737,66.737,0,0,0,9.842,1.648Zm10.5-.389-.428-2.849a93.485,93.485,0,0,0,9.822-1.986l.735,2.784A96.212,96.212,0,0,1,164.4,68.412m-30.643-4.88a28.866,28.866,0,0,1-8.589-6.3l2.136-1.934a26.033,26.033,0,0,0,7.739,5.662ZM184.36,62.9l-1.216-2.61a29.477,29.477,0,0,0,8.068-5.314l2,2.073A32.266,32.266,0,0,1,184.36,62.9" transform="translate(55.124 24.211)"/>
              <path id="Trazado_842178" data-name="Trazado 842178" d="M169.151,46.554l4.857,2.8V43.75Z" transform="translate(74.495 19.268)"/>
              <path id="Trazado_842179" data-name="Trazado 842179" d="M150.425,46.554l4.857,2.8V43.75Z" transform="translate(66.248 19.268)"/>
              <path id="Trazado_842180" data-name="Trazado 842180" d="M132.292,46.554l4.857,2.8V43.75Z" transform="translate(58.262 19.268)"/>
              <path id="Trazado_842181" data-name="Trazado 842181" d="M124.733,54.317l1.384-5.435-5.4,1.518Z" transform="translate(53.165 21.528)"/>
              <path id="Trazado_842182" data-name="Trazado 842182" d="M135.83,63.192l-2.375-5.08-3.212,4.6Z" transform="translate(57.36 25.593)"/>
              <path id="Trazado_842183" data-name="Trazado 842183" d="M149.794,64.879,145.4,61.388l-.83,5.547Z" transform="translate(63.672 27.036)"/>
              <path id="Trazado_842184" data-name="Trazado 842184" d="M163.688,61.873l-5.263-1.939.952,5.527Z" transform="translate(69.772 26.395)"/>
              <path id="Trazado_842185" data-name="Trazado 842185" d="M174.936,53.661l-5.417,1.452,3.965,3.965Z" transform="translate(74.657 23.633)"/>
              <path id="Trazado_842186" data-name="Trazado 842186" d="M19.963,52.545a37.659,37.659,0,0,1-.36-5.979l.023-1.417H26.8V48.03H22.486a33.215,33.215,0,0,0,.327,4.1Z" transform="translate(8.631 19.884)"/>
              <rect id="Rectángulo_374742" data-name="Rectángulo 374742" width="12.305" height="2.881" transform="translate(47.741 65.033)"/>
              <path id="Trazado_842187" data-name="Trazado 842187" d="M57.462,52.514l-2.856-.375a20.029,20.029,0,0,0,.115-4.109H50.23V45.149h6.941L57.4,46.3a20.568,20.568,0,0,1,.059,6.211" transform="translate(22.122 19.884)"/>
              <path id="Trazado_842188" data-name="Trazado 842188" d="M44.253,69.356h-.124a27.443,27.443,0,0,1-5.23-.614l.585-2.822a25.294,25.294,0,0,0,4.529.553c1.543-.269,3.031-.595,4.423-.972l.75,2.783c-1.517.409-3.136.762-4.812,1.05Zm-14.868-4.39a22.358,22.358,0,0,1-7.216-7.386l2.47-1.479a19.511,19.511,0,0,0,6.3,6.439Zm29.162-.536-1.481-2.47a21.363,21.363,0,0,0,6.7-6.125l2.371,1.638a24.214,24.214,0,0,1-7.585,6.957" transform="translate(9.763 24.59)"/>
              <path id="Trazado_842189" data-name="Trazado 842189" d="M47.035,47.006l4.857,2.8V44.2Z" transform="translate(20.714 19.467)"/>
              <path id="Trazado_842190" data-name="Trazado 842190" d="M29.813,47.006l4.857,2.8V44.2Z" transform="translate(13.13 19.467)"/>
              <path id="Trazado_842191" data-name="Trazado 842191" d="M22.738,54.526l1.384-5.435-5.4,1.518Z" transform="translate(8.246 21.62)"/>
              <path id="Trazado_842192" data-name="Trazado 842192" d="M31.62,64.346l-2.63-4.954-2.974,4.755Z" transform="translate(11.457 26.157)"/>
              <path id="Trazado_842193" data-name="Trazado 842193" d="M45.227,62.9,39.762,61.64,41.4,67Z" transform="translate(17.511 27.147)"/>
              <path id="Trazado_842194" data-name="Trazado 842194" d="M55.273,53.66l-5,2.538,4.7,3.062Z" transform="translate(22.14 23.632)"/>
              <path id="Trazado_842195" data-name="Trazado 842195" d="M131.467,99a37.536,37.536,0,0,1-.362-5.979l.024-1.417h7.178v2.881h-4.318a33.35,33.35,0,0,0,.328,4.1Z" transform="translate(57.738 40.341)"/>
              <rect id="Rectángulo_374743" data-name="Rectángulo 374743" width="12.305" height="2.881" transform="translate(208.351 131.941)"/>
              <path id="Trazado_842196" data-name="Trazado 842196" d="M168.964,98.966l-2.855-.374a20.029,20.029,0,0,0,.115-4.109h-4.491V91.6h6.941l.233,1.154a20.632,20.632,0,0,1,.056,6.211" transform="translate(71.228 40.342)"/>
              <path id="Trazado_842197" data-name="Trazado 842197" d="M155.756,115.81h-.124a27.444,27.444,0,0,1-5.23-.614l.586-2.822a25.234,25.234,0,0,0,4.526.553c1.548-.271,3.038-.6,4.426-.974l.75,2.783c-1.512.408-3.131.762-4.814,1.052Zm-14.868-4.389a22.354,22.354,0,0,1-7.216-7.385l2.47-1.479a19.493,19.493,0,0,0,6.3,6.436Zm29.165-.539-1.482-2.47a21.4,21.4,0,0,0,6.7-6.125l2.369,1.638a24.236,24.236,0,0,1-7.582,6.957" transform="translate(58.87 45.048)"/>
              <path id="Trazado_842198" data-name="Trazado 842198" d="M158.538,93.458l4.857,2.8V90.654Z" transform="translate(69.821 39.924)"/>
              <path id="Trazado_842199" data-name="Trazado 842199" d="M141.316,93.458l4.857,2.8V90.654Z" transform="translate(62.236 39.924)"/>
              <path id="Trazado_842200" data-name="Trazado 842200" d="M134.241,100.977l1.384-5.435-5.4,1.518Z" transform="translate(57.353 42.078)"/>
              <path id="Trazado_842201" data-name="Trazado 842201" d="M143.123,110.8l-2.63-4.954-2.974,4.755Z" transform="translate(60.564 46.615)"/>
              <path id="Trazado_842202" data-name="Trazado 842202" d="M156.73,109.353l-5.465-1.262,1.639,5.364Z" transform="translate(66.618 47.604)"/>
              <path id="Trazado_842203" data-name="Trazado 842203" d="M166.777,100.111l-5,2.538,4.7,3.062Z" transform="translate(71.247 44.09)"/>
            </g>
          </g>
        </g>
      </g>
    </g>
  </g>
</svg>
