<svg xmlns="http://www.w3.org/2000/svg" width="137" height="137" viewBox="0 0 137 137">
  <g id="Grupo_1069596" data-name="Grupo 1069596" transform="translate(-361.42 -427.587)">
    <circle id="Elipse_4802" data-name="Elipse 4802" cx="68.5" cy="68.5" r="68.5" transform="translate(361.42 427.587)" fill="#673ab7"/>
    <g id="Grupo_1060724" data-name="Grupo 1060724" transform="translate(406.42 465.587)">
      <path id="Trazado_780935" data-name="Trazado 780935" d="M121.113,4.394a.609.609,0,0,1-.609-.609V.774a.609.609,0,1,1,1.219,0v3.01A.609.609,0,0,1,121.113,4.394Z" transform="translate(-97.63 -0.165)" fill="none" stroke="#fff" stroke-miterlimit="10" stroke-width="2"/>
      <path id="Trazado_780936" data-name="Trazado 780936" d="M195.009,38.758a.609.609,0,0,1-.431-1.04l2.128-2.128a.609.609,0,0,1,.862.862L195.44,38.58A.608.608,0,0,1,195.009,38.758Z" transform="translate(-157.479 -28.711)" fill="none" stroke="#fff" stroke-miterlimit="10" stroke-width="2"/>
      <path id="Trazado_780937" data-name="Trazado 780937" d="M36.021,197.745a.609.609,0,0,1-.431-1.04l2.128-2.128a.609.609,0,1,1,.862.862l-2.128,2.128A.607.607,0,0,1,36.021,197.745Z" transform="translate(-28.712 -157.478)" fill="none" stroke="#fff" stroke-miterlimit="10" stroke-width="2"/>
      <path id="Trazado_780938" data-name="Trazado 780938" d="M228.627,121.722h-3.01a.609.609,0,0,1,0-1.219h3.01a.609.609,0,0,1,0,1.219Z" transform="translate(-182.269 -97.629)" fill="none" stroke="#fff" stroke-miterlimit="10" stroke-width="2"/>
      <path id="Trazado_780939" data-name="Trazado 780939" d="M3.784,121.722H.774a.609.609,0,0,1,0-1.219h3.01a.609.609,0,0,1,0,1.219Z" transform="translate(-0.165 -97.629)" fill="none" stroke="#fff" stroke-miterlimit="10" stroke-width="2"/>
      <path id="Trazado_780940" data-name="Trazado 780940" d="M197.137,197.745a.607.607,0,0,1-.431-.179l-2.128-2.128a.609.609,0,0,1,.862-.862l2.128,2.128a.609.609,0,0,1-.431,1.04Z" transform="translate(-157.479 -157.478)" fill="none" stroke="#fff" stroke-miterlimit="10" stroke-width="2"/>
      <path id="Trazado_780941" data-name="Trazado 780941" d="M38.149,38.758a.608.608,0,0,1-.431-.178L35.59,36.452a.609.609,0,1,1,.862-.862l2.128,2.128a.609.609,0,0,1-.431,1.04Z" transform="translate(-28.712 -28.711)" fill="none" stroke="#fff" stroke-miterlimit="10" stroke-width="2"/>
      <path id="Trazado_780942" data-name="Trazado 780942" d="M161.471,13.5a.61.61,0,0,1-.562-.845l1.162-2.776a.609.609,0,0,1,1.125.47l-1.162,2.776A.61.61,0,0,1,161.471,13.5Z" transform="translate(-130.316 -7.727)" fill="none" stroke="#fff" stroke-miterlimit="10" stroke-width="2"/>
      <path id="Trazado_780943" data-name="Trazado 780943" d="M217.812,77.234a.61.61,0,0,1-.231-1.174l2.785-1.141a.609.609,0,1,1,.462,1.128l-2.785,1.141A.608.608,0,0,1,217.812,77.234Z" transform="translate(-175.947 -60.672)" fill="none" stroke="#fff" stroke-miterlimit="10" stroke-width="2"/>
      <path id="Trazado_780944" data-name="Trazado 780944" d="M9.759,162.486a.61.61,0,0,1-.231-1.174l2.785-1.141a.61.61,0,0,1,.462,1.128L9.99,162.441A.608.608,0,0,1,9.759,162.486Z" transform="translate(-7.442 -129.72)" fill="none" stroke="#fff" stroke-miterlimit="10" stroke-width="2"/>
      <path id="Trazado_780945" data-name="Trazado 780945" d="M220.285,163.243a.609.609,0,0,1-.235-.047l-2.776-1.163a.61.61,0,1,1,.471-1.125l2.776,1.163a.61.61,0,0,1-.236,1.172Z" transform="translate(-175.702 -130.316)" fill="none" stroke="#fff" stroke-miterlimit="10" stroke-width="2"/>
      <path id="Trazado_780946" data-name="Trazado 780946" d="M12.886,76.411a.605.605,0,0,1-.235-.048L9.875,75.2a.61.61,0,1,1,.471-1.125l2.776,1.163a.61.61,0,0,1-.236,1.172Z" transform="translate(-7.726 -59.989)" fill="none" stroke="#fff" stroke-miterlimit="10" stroke-width="2"/>
      <path id="Trazado_780947" data-name="Trazado 780947" d="M76.625,13.154a.61.61,0,0,1-.564-.378L74.92,9.99a.61.61,0,1,1,1.128-.462l1.141,2.785a.61.61,0,0,1-.564.841Z" transform="translate(-60.673 -7.442)" fill="none" stroke="#fff" stroke-miterlimit="10" stroke-width="2"/>
      <path id="Trazado_780948" data-name="Trazado 780948" d="M103.451,267.306h-10.3a1.052,1.052,0,1,1,0-2.1h10.3a1.052,1.052,0,1,1,0,2.1Z" transform="translate(-74.628 -214.823)" fill="none" stroke="#fff" stroke-miterlimit="10" stroke-width="2"/>
      <path id="Trazado_780949" data-name="Trazado 780949" d="M103.451,284.685h-10.3a1.052,1.052,0,1,1,0-2.1h10.3a1.052,1.052,0,1,1,0,2.1Z" transform="translate(-74.628 -228.899)" fill="none" stroke="#fff" stroke-miterlimit="10" stroke-width="2"/>
      <path id="Trazado_780950" data-name="Trazado 780950" d="M109.837,300.194a.408.408,0,0,0-.4.482,2.92,2.92,0,0,0,5.739,0,.408.408,0,0,0-.4-.482Z" transform="translate(-88.66 -243.164)" fill="none" stroke="#fff" stroke-miterlimit="10" stroke-width="2"/>
      <path id="Trazado_780951" data-name="Trazado 780951" d="M61.945,81.283H53.679a2.766,2.766,0,0,1-2.745-2.549c-.35-4.66-2.252-7.613-4.265-10.74-2.2-3.409-4.466-6.935-4.466-12.636A15.533,15.533,0,0,1,55.3,39.955a15.937,15.937,0,0,1,5.407.065A15.6,15.6,0,0,1,73.423,55.359c0,5.7-2.271,9.227-4.467,12.636-2.014,3.126-3.916,6.079-4.266,10.74A2.766,2.766,0,0,1,61.945,81.283Z" transform="translate(-34.212 -32.23)" fill="none" stroke="#fff" stroke-miterlimit="10" stroke-width="2"/>
      <path id="Trazado_780952" data-name="Trazado 780952" d="M68.475,104.092a1.014,1.014,0,0,1-.822-.418,14.264,14.264,0,0,1-1.3-15.322A1.016,1.016,0,0,1,68.1,89.38a12.251,12.251,0,0,0,1.192,13.1,1.016,1.016,0,0,1-.82,1.614Z" transform="translate(-52.439 -71.184)" fill="none" stroke="#fff" stroke-miterlimit="10" stroke-width="2"/>
    </g>
  </g>
</svg>
