<svg xmlns="http://www.w3.org/2000/svg" width="882.5" height="286.332" viewBox="0 0 882.5 286.332">
  <g id="Grupo_1054878" data-name="Grupo 1054878" transform="translate(-347.5 -429.1)">
    <text id="Figura_3D" data-name="Figura 3D" transform="translate(483 653.988)" fill="#12263f" font-size="14" font-family="Roboto-Bold, Roboto" font-weight="700"><tspan x="0" y="15">Figura 3D</tspan></text>
    <text id="Plano_2D" data-name="Plano 2D" transform="translate(967.667 626.988)" fill="#12263f" font-size="14" font-family="Roboto-Bold, Roboto" font-weight="700"><tspan x="0" y="15">Plano 2D</tspan></text>
    <g id="Grupo_1054858" data-name="Grupo 1054858" transform="translate(849.438 429.1)">
      <path id="Trazado_24695" data-name="Trazado 24695" d="M1486.191-494.551h-94.23V-590.08H1296.38v95.529h-.759l-16.792-16.718h-63.213l-14.393,16.718h-.585l-16.66-16.718h-62.718l-14.281,16.718h-1.351v95.581H1296.38v95.222h95.581v-93.69l16.025,15.954H1471.2l14.692-17.063-.441-.422h.742Zm-2.111,2.111v91.359h-92.119V-492.44Zm-94.23,91.359h-91.359V-492.44h91.359Zm-91.359-186.888h91.359v93.418h-91.359Zm-81.99,78.811h61.534l14.673,14.607h-88.783Zm-94.363,0h61.052l14.559,14.607h-88.088Zm-14.4,16.718h92.131v91.359H1107.74Zm94.242,91.359V-492.44h94.4v91.359Zm96.51,95.222V-398.97h91.359v93.111ZM1470.315-383.6H1408.78l-15.444-15.375h90.215Z" transform="translate(-1105.629 590.08)" fill="#7b1fa2"/>
    </g>
    <g id="Grupo_1054857" data-name="Grupo 1054857" transform="translate(347.5 432.766)">
      <g id="Grupo_15644" data-name="Grupo 15644" transform="translate(303.278 108.826)">
        <g id="Grupo_15639" data-name="Grupo 15639">
          <path id="Trazado_24682" data-name="Trazado 24682" d="M815.179-352.972h-86.97a1.082,1.082,0,0,1-.638-.208l-28.86-21.06a1.085,1.085,0,0,1-.445-.875v-83.547a1.084,1.084,0,0,1,1.083-1.083h85.8a1.079,1.079,0,0,1,.624.2L815.8-438.4a1.082,1.082,0,0,1,.459.885v83.46A1.083,1.083,0,0,1,815.179-352.972Zm-86.616-2.167H814.1v-81.814l-29.289-20.626H700.433v81.913Z" transform="translate(-698.266 459.745)" fill="#ba68c8"/>
        </g>
        <g id="Grupo_15640" data-name="Grupo 15640" transform="translate(85.8)">
          <path id="Trazado_24683" data-name="Trazado 24683" d="M806.088-354.751a1.075,1.075,0,0,1-.628-.2l-3.526-2.518a1.084,1.084,0,0,1-.251-1.511,1.082,1.082,0,0,1,1.511-.252l3.525,2.518a1.083,1.083,0,0,1,.252,1.511A1.081,1.081,0,0,1,806.088-354.751Zm-7.051-5.037a1.071,1.071,0,0,1-.628-.2l-3.526-2.519a1.083,1.083,0,0,1-.252-1.511,1.082,1.082,0,0,1,1.511-.251l3.526,2.519a1.082,1.082,0,0,1,.251,1.51A1.079,1.079,0,0,1,799.036-359.788Zm-7.052-5.036a1.078,1.078,0,0,1-.628-.2l-3.526-2.519a1.082,1.082,0,0,1-.251-1.511,1.08,1.08,0,0,1,1.51-.251l3.526,2.519a1.082,1.082,0,0,1,.251,1.511A1.08,1.08,0,0,1,791.984-364.824Zm-7.052-5.038a1.077,1.077,0,0,1-.628-.2l-3.526-2.519a1.082,1.082,0,0,1-.251-1.511,1.082,1.082,0,0,1,1.51-.251l3.526,2.519a1.083,1.083,0,0,1,.252,1.511A1.083,1.083,0,0,1,784.931-369.862Zm-6.382-5.383a1.083,1.083,0,0,1-1.083-1.083v-4.333a1.084,1.084,0,0,1,1.083-1.083,1.083,1.083,0,0,1,1.083,1.083v4.333A1.082,1.082,0,0,1,778.549-375.245Zm0-8.667A1.083,1.083,0,0,1,777.466-385v-4.333a1.084,1.084,0,0,1,1.083-1.083,1.083,1.083,0,0,1,1.083,1.083V-385A1.082,1.082,0,0,1,778.549-383.912Zm0-8.667a1.083,1.083,0,0,1-1.083-1.083V-398a1.084,1.084,0,0,1,1.083-1.083A1.083,1.083,0,0,1,779.633-398v4.333A1.082,1.082,0,0,1,778.549-392.578Zm0-8.667a1.083,1.083,0,0,1-1.083-1.083v-4.333a1.084,1.084,0,0,1,1.083-1.083,1.083,1.083,0,0,1,1.083,1.083v4.333A1.082,1.082,0,0,1,778.549-401.245Zm0-8.667A1.083,1.083,0,0,1,777.466-411v-4.333a1.084,1.084,0,0,1,1.083-1.083,1.083,1.083,0,0,1,1.083,1.083V-411A1.082,1.082,0,0,1,778.549-409.912Zm0-8.667a1.083,1.083,0,0,1-1.083-1.083v-4.333a1.084,1.084,0,0,1,1.083-1.083,1.083,1.083,0,0,1,1.083,1.083v4.333A1.082,1.082,0,0,1,778.549-418.578Zm0-8.667a1.083,1.083,0,0,1-1.083-1.083v-4.333a1.084,1.084,0,0,1,1.083-1.083,1.083,1.083,0,0,1,1.083,1.083v4.333A1.082,1.082,0,0,1,778.549-427.245Zm0-8.667a1.083,1.083,0,0,1-1.083-1.083v-4.333a1.084,1.084,0,0,1,1.083-1.083,1.083,1.083,0,0,1,1.083,1.083v4.333A1.082,1.082,0,0,1,778.549-435.912Zm0-8.667a1.083,1.083,0,0,1-1.083-1.083v-4.333a1.084,1.084,0,0,1,1.083-1.083,1.083,1.083,0,0,1,1.083,1.083v4.333A1.082,1.082,0,0,1,778.549-444.578Zm0-8.667a1.083,1.083,0,0,1-1.083-1.083v-4.333a1.084,1.084,0,0,1,1.083-1.083,1.083,1.083,0,0,1,1.083,1.083v4.333A1.082,1.082,0,0,1,778.549-453.245Z" transform="translate(-777.466 459.745)" fill="#ba68c8"/>
        </g>
        <g id="Grupo_15641" data-name="Grupo 15641" transform="translate(3.467 83.157)">
          <path id="Trazado_24684" data-name="Trazado 24684" d="M784.883-380.818h-4.333a1.084,1.084,0,0,1-1.083-1.083,1.084,1.084,0,0,1,1.083-1.083h4.333a1.083,1.083,0,0,1,1.083,1.083A1.083,1.083,0,0,1,784.883-380.818Zm-8.667,0h-4.333A1.084,1.084,0,0,1,770.8-381.9a1.084,1.084,0,0,1,1.083-1.083h4.333A1.083,1.083,0,0,1,777.3-381.9,1.083,1.083,0,0,1,776.216-380.818Zm-8.667,0h-4.333a1.084,1.084,0,0,1-1.083-1.083,1.084,1.084,0,0,1,1.083-1.083h4.333a1.083,1.083,0,0,1,1.083,1.083A1.083,1.083,0,0,1,767.549-380.818Zm-8.667,0h-4.333a1.084,1.084,0,0,1-1.083-1.083,1.084,1.084,0,0,1,1.083-1.083h4.333a1.083,1.083,0,0,1,1.083,1.083A1.083,1.083,0,0,1,758.883-380.818Zm-8.667,0h-4.333A1.084,1.084,0,0,1,744.8-381.9a1.084,1.084,0,0,1,1.083-1.083h4.333A1.083,1.083,0,0,1,751.3-381.9,1.083,1.083,0,0,1,750.216-380.818Zm-8.667,0h-4.333a1.084,1.084,0,0,1-1.083-1.083,1.084,1.084,0,0,1,1.083-1.083h4.333a1.083,1.083,0,0,1,1.083,1.083A1.083,1.083,0,0,1,741.549-380.818Zm-8.667,0h-4.333a1.084,1.084,0,0,1-1.083-1.083,1.084,1.084,0,0,1,1.083-1.083h4.333a1.083,1.083,0,0,1,1.083,1.083A1.083,1.083,0,0,1,732.883-380.818Zm-8.667,0h-4.333A1.084,1.084,0,0,1,718.8-381.9a1.084,1.084,0,0,1,1.083-1.083h4.333A1.083,1.083,0,0,1,725.3-381.9,1.083,1.083,0,0,1,724.216-380.818Zm-8.667,0h-4.333a1.084,1.084,0,0,1-1.083-1.083,1.084,1.084,0,0,1,1.083-1.083h4.333a1.083,1.083,0,0,1,1.083,1.083A1.083,1.083,0,0,1,715.549-380.818Zm-8.667,0h-4.333a1.084,1.084,0,0,1-1.083-1.083,1.084,1.084,0,0,1,1.083-1.083h4.333a1.083,1.083,0,0,1,1.083,1.083A1.083,1.083,0,0,1,706.883-380.818Z" transform="translate(-701.466 382.985)" fill="#ba68c8"/>
        </g>
        <g id="Grupo_15642" data-name="Grupo 15642" transform="translate(0 0)">
          <path id="Trazado_24685" data-name="Trazado 24685" d="M815.179-436.822h-86.97a1.089,1.089,0,0,1-.633-.2l-28.86-20.757a1.084,1.084,0,0,1-.247-1.512,1.086,1.086,0,0,1,1.512-.247l28.577,20.553h86.62a1.084,1.084,0,0,1,1.083,1.083A1.084,1.084,0,0,1,815.179-436.822Z" transform="translate(-698.266 459.745)" fill="#ba68c8"/>
        </g>
        <g id="Grupo_15643" data-name="Grupo 15643" transform="translate(28.86 20.757)">
          <path id="Trazado_24686" data-name="Trazado 24686" d="M725.989-354.568a1.083,1.083,0,0,1-1.083-1.083V-439.5a1.084,1.084,0,0,1,1.083-1.083,1.083,1.083,0,0,1,1.083,1.083v83.85A1.082,1.082,0,0,1,725.989-354.568Z" transform="translate(-724.906 440.585)" fill="#ba68c8"/>
        </g>
      </g>
      <g id="Grupo_15645" data-name="Grupo 15645" transform="translate(83.292 108.826)">
        <path id="Trazado_24687" data-name="Trazado 24687" d="M612.115-352.972h-86.97a1.083,1.083,0,0,1-.639-.208l-28.86-21.06a1.083,1.083,0,0,1-.444-.875v-83.547a1.083,1.083,0,0,1,1.083-1.083h85.8a1.084,1.084,0,0,1,.624.2L612.738-438.4a1.083,1.083,0,0,1,.46.885v83.46A1.083,1.083,0,0,1,612.115-352.972ZM525.5-355.138h85.533v-81.814l-29.29-20.626H497.369v81.913Z" transform="translate(-495.202 459.745)" fill="#ba68c8"/>
      </g>
      <path id="Trazado_24688" data-name="Trazado 24688" d="M683.452-300.637l-93.876-67.055V-559.117a1.084,1.084,0,0,0-1.083-1.083,1.084,1.084,0,0,0-1.083,1.083v190.9H419.4a1.084,1.084,0,0,0-1.083,1.083,1.084,1.084,0,0,0,1.083,1.083H588.145l94.048,67.177a1.078,1.078,0,0,0,.628.2,1.085,1.085,0,0,0,.883-.454A1.085,1.085,0,0,0,683.452-300.637Z" transform="translate(-418.317 560.2)" fill="#7b1fa2"/>
      <g id="Grupo_15646" data-name="Grupo 15646" transform="translate(83.291 108.827)">
        <path id="Trazado_24689" data-name="Trazado 24689" d="M612.115-436.822h-86.97a1.085,1.085,0,0,1-.633-.2l-28.86-20.757a1.082,1.082,0,0,1-.247-1.512,1.085,1.085,0,0,1,1.512-.247l28.576,20.553h86.621a1.084,1.084,0,0,1,1.083,1.083A1.084,1.084,0,0,1,612.115-436.822Z" transform="translate(-495.201 459.745)" fill="#ba68c8"/>
      </g>
      <g id="Grupo_15647" data-name="Grupo 15647" transform="translate(112.152 129.583)">
        <path id="Trazado_24690" data-name="Trazado 24690" d="M522.925-354.568a1.083,1.083,0,0,1-1.083-1.083V-439.5a1.084,1.084,0,0,1,1.083-1.083,1.084,1.084,0,0,1,1.083,1.083v83.85A1.083,1.083,0,0,1,522.925-354.568Z" transform="translate(-521.842 440.585)" fill="#ba68c8"/>
      </g>
      <g id="Grupo_15648" data-name="Grupo 15648" transform="translate(156.604 2.28)">
        <path id="Trazado_24691" data-name="Trazado 24691" d="M562.875-551.709l2.538-3.2-2.538-3.187h1.815l1.613,2.228,1.619-2.228h1.8l-2.552,3.194,2.552,3.193h-1.809l-1.607-2.209-1.618,2.209Z" transform="translate(-562.875 558.095)" fill="#ba68c8"/>
      </g>
      <g id="Grupo_15649" data-name="Grupo 15649" transform="translate(0.108 197.866)">
        <path id="Trazado_24692" data-name="Trazado 24692" d="M423.4-377.554h1.518l-3.822,9.388H419.6l1.372-3.212-2.558-6.176h1.605l1.656,4.57Z" transform="translate(-418.417 377.554)" fill="#ba68c8"/>
      </g>
      <g id="Grupo_15650" data-name="Grupo 15650" transform="translate(252.541 261.7)">
        <path id="Trazado_24693" data-name="Trazado 24693" d="M656.649-318.631l-3.091,5.237H656.6v1.149h-5.173l3.072-5.23h-2.863v-1.156Z" transform="translate(-651.432 318.631)" fill="#ba68c8"/>
      </g>
    </g>
  </g>
</svg>
