<svg xmlns="http://www.w3.org/2000/svg" xmlns:xlink="http://www.w3.org/1999/xlink" width="398.652" height="382.68" viewBox="0 0 398.652 382.68">
  <defs>
    <clipPath id="clip-path">
      <circle id="Elipse_861" data-name="Elipse 861" cx="140.538" cy="140.538" r="140.538" fill="none"/>
    </clipPath>
  </defs>
  <g id="Grupo_1054620" data-name="Grupo 1054620" transform="translate(10238.372 8597.68)">
    <g id="BACKGROUND" transform="translate(-10244.28 -8547.599) rotate(-13)" opacity="0.49">
      <g id="Grupo_32241" data-name="Grupo 32241">
        <path id="Trazado_61861" data-name="Trazado 61861" d="M45.82,80.353c16.626-.651,32.7,5.958,48.606,11.494s32.925,10.087,49.022,5.325c21.643-6.4,36.742-27.927,50.3-48.107s28.9-41.582,50.643-47.522C264.7-4,286.606,5.94,301.385,22.681s23.308,39.373,28.631,62.285c13.184,56.751,6.82,122.18-27.434,166.161-27.405,35.188-68.775,52.472-109.638,59.942-29.477,5.389-60.123,6.289-88.787-3.191-34.875-11.534-65.524-38.719-83.8-74.332C-1.057,191.835-20.911,82.969,45.82,80.353Z" transform="translate(0 26.264)" fill="#673ab7"/>
        <path id="Trazado_61862" data-name="Trazado 61862" d="M58.318,110.052c23.325.432,48.442-8.154,65.889-20.332,9.672-6.751,18.318-15.353,23.48-25.958s6.528-23.377,2.028-34.28c-6.493-15.73-23.574-24.631-40.292-27.811a99,99,0,0,0-74.21,15.854C20.231,27.973,4.525,42.843.636,61.449-3.554,81.5,13.708,96.875,30.7,104.388A71.528,71.528,0,0,0,58.318,110.052Z" transform="translate(47.288 0)" fill="#673ab7"/>
      </g>
    </g>
    <g id="Grupo_15634" data-name="Grupo 15634" transform="translate(-10571.378 -9518.178)">
      <g id="Grupo_15574" data-name="Grupo 15574" transform="translate(374.507 990.772)">
        <g id="Grupo_15573" data-name="Grupo 15573" clip-path="url(#clip-path)">
          <path id="Trazado_24588" data-name="Trazado 24588" d="M438.191,1039.262c-11.549-2.076-21.3,5.175-24.25,16.536a212.715,212.715,0,0,0-6.235,42.217c-2.21,41.493-1.109,77.477.434,96.182a18.631,18.631,0,0,0,18.094,17.086h0a18.65,18.65,0,0,0,19.023-16.576l11.656-130.858a22.388,22.388,0,0,0-18.323-24.514Z" transform="translate(-313.928 -851.056)" fill="#7b1fa2"/>
          <path id="Trazado_24589" data-name="Trazado 24589" d="M443.7,1039.138c11.6-1.772,18.612,5.731,21.262,17.164a212.766,212.766,0,0,1,5.126,42.367c1.124,41.533-.918,77.478-2.948,96.136a18.635,18.635,0,0,1-18.54,16.608h0a18.651,18.651,0,0,1-18.58-17.069l-5.676-131.118A22.392,22.392,0,0,1,443.3,1039.2Z" transform="translate(-280.177 -851.109)" fill="#7b1fa2"/>
          <g id="Grupo_15549" data-name="Grupo 15549" transform="translate(100.644 166.582)">
            <path id="Trazado_24590" data-name="Trazado 24590" d="M476.084,1031.563H428.3s-12.209,8.775-19.038,36.08l36.092,20.573a13.194,13.194,0,0,0,13.622,0L492.6,1067.5C485.264,1041,476.084,1031.563,476.084,1031.563Z" transform="translate(-409.261 -1031.563)" fill="#7b1fa2"/>
            <g id="Grupo_15546" data-name="Grupo 15546" transform="translate(40.114 58.028)">
              <line id="Línea_10443" data-name="Línea 10443" x1="16.61" transform="translate(0.519 0.519)" fill="#65198e"/>
              <path id="Trazado_24591" data-name="Trazado 24591" d="M440.242,1052.638H423.631a.518.518,0,0,1,0-1.037h16.611a.518.518,0,0,1,0,1.037Z" transform="translate(-423.113 -1051.601)" fill="#65198e"/>
            </g>
            <g id="Grupo_15547" data-name="Grupo 15547" transform="translate(10.106 8.507)">
              <path id="Trazado_24592" data-name="Trazado 24592" d="M427.859,1034.68s-.944,16.179-14.928,20.248" transform="translate(-412.411 -1034.16)" fill="#65198e"/>
              <path id="Trazado_24593" data-name="Trazado 24593" d="M413.27,1055.786a.52.52,0,0,1-.145-1.019c13.46-3.913,14.546-19.62,14.555-19.776a.506.506,0,0,1,.55-.487.517.517,0,0,1,.486.548c-.009.165-1.129,16.594-15.3,20.714A.515.515,0,0,1,413.27,1055.786Z" transform="translate(-412.751 -1034.501)" fill="#65198e"/>
            </g>
            <g id="Grupo_15548" data-name="Grupo 15548" transform="translate(65.656 8.848)">
              <path id="Trazado_24594" data-name="Trazado 24594" d="M432.112,1034.8s1.926,13.075,13.087,20.245" transform="translate(-431.593 -1034.277)" fill="#65198e"/>
              <path id="Trazado_24595" data-name="Trazado 24595" d="M445.538,1055.9a.515.515,0,0,1-.278-.081c-11.23-7.217-13.3-20.474-13.321-20.607a.518.518,0,1,1,1.025-.151c.017.127,2.033,12.93,12.855,19.886a.517.517,0,0,1-.281.953Z" transform="translate(-431.933 -1034.618)" fill="#65198e"/>
            </g>
          </g>
          <g id="Grupo_15560" data-name="Grupo 15560" transform="translate(68.312 63.644)">
            <g id="Grupo_15553" data-name="Grupo 15553" transform="translate(85.11 12.234)">
              <g id="Grupo_15551" data-name="Grupo 15551" transform="translate(25.314 80.162)">
                <g id="Grupo_15550" data-name="Grupo 15550">
                  <path id="Trazado_24596" data-name="Trazado 24596" d="M436.427,1038.963l21.088,75.242,8.578-.878s-5.977-48.254-11.054-78.021c-.805-4.723-7.089-8.34-11.731-7.156h0C438.958,1029.259,435.323,1034.613,436.427,1038.963Z" transform="translate(-436.227 -1027.923)" fill="#dc927b"/>
                </g>
                <path id="Trazado_24597" data-name="Trazado 24597" d="M445.39,1057.54a23.043,23.043,0,0,0-1.176,18.108l-1.894,9.962a3.315,3.315,0,0,0,1.906,3.687h0a2.823,2.823,0,0,0,3.733-1.746l2.071-5.67.333,2.123a15.946,15.946,0,0,1-1.523,9.754l-4.315,8.386a3.237,3.237,0,0,0,.093,3.078h0a2.7,2.7,0,0,0,4.633.272l6.97-10.179a18.062,18.062,0,0,0,2.644-13.863l-5.488-26.141Z" transform="translate(-424.789 -975.999)" fill="#dc927b"/>
              </g>
              <g id="Grupo_15552" data-name="Grupo 15552">
                <path id="Trazado_24598" data-name="Trazado 24598" d="M463.743,1067.089l-10.55-55.48-21.493,6.4,13.637,53.184a9.435,9.435,0,0,0,11.39,6.817h0A9.434,9.434,0,0,0,463.743,1067.089Z" transform="translate(-419.496 -978.69)" fill="#dc927b"/>
                <path id="Trazado_24599" data-name="Trazado 24599" d="M436.076,1062.186l35.808-7.353-8.213-39.99a18.279,18.279,0,0,0-21.58-14.225h0a18.277,18.277,0,0,0-14.228,21.58Z" transform="translate(-427.486 -1000.242)" fill="#ffd54f"/>
              </g>
            </g>
            <g id="Grupo_15554" data-name="Grupo 15554" transform="translate(29.894)">
              <path id="Trazado_24600" data-name="Trazado 24600" d="M452.44,996.017l-40.4,16.344a5.792,5.792,0,0,0-3.385,7l21.583,72.291H477.95s10.538-56.418,14.96-75.027a5.88,5.88,0,0,0-3.643-7Z" transform="translate(-408.419 -996.017)" fill="#ffd54f"/>
              <path id="Trazado_24601" data-name="Trazado 24601" d="M413.969,1007.323l27.948-11.306,24.476,8.922s7.04,13.761-14.645,15.548C424.571,1022.723,413.969,1007.323,413.969,1007.323Z" transform="translate(-397.897 -996.017)" fill="#dc927b"/>
              <rect id="Rectángulo_3734" data-name="Rectángulo 3734" width="47.785" height="7.307" transform="translate(21.477 95.632)" fill="#ffd54f"/>
              <line id="Línea_10444" data-name="Línea 10444" y1="28.096" x2="5.515" transform="translate(74.018 43.913)" fill="#ffd54f"/>
            </g>
            <g id="Grupo_15559" data-name="Grupo 15559" transform="translate(0 14.916)">
              <g id="Grupo_15556" data-name="Grupo 15556" transform="translate(0 80.162)">
                <g id="Grupo_15555" data-name="Grupo 15555" transform="translate(4.607)">
                  <path id="Trazado_24602" data-name="Trazado 24602" d="M429.353,1039.892l-21.085,75.239-8.581-.877s5.977-48.255,11.054-78.022c.808-4.723,7.089-8.34,11.731-7.156h0C426.822,1030.185,430.456,1035.539,429.353,1039.892Z" transform="translate(-399.687 -1028.849)" fill="#dc927b"/>
                </g>
                <path id="Trazado_24603" data-name="Trazado 24603" d="M411.967,1058.466a23.036,23.036,0,0,1,1.179,18.108l1.894,9.965a3.315,3.315,0,0,1-1.906,3.684h0a2.824,2.824,0,0,1-3.736-1.746l-2.068-5.67-.336,2.123a15.964,15.964,0,0,0,1.526,9.753l4.315,8.387a3.236,3.236,0,0,1-.1,3.078h0a2.7,2.7,0,0,1-4.634.272l-6.968-10.179a18.05,18.05,0,0,1-2.644-13.863l5.488-26.141Z" transform="translate(-398.096 -976.925)" fill="#dc927b"/>
              </g>
              <g id="Grupo_15558" data-name="Grupo 15558" transform="translate(15.374)">
                <path id="Trazado_24604" data-name="Trazado 24604" d="M403.573,1068.015l10.55-55.48,21.491,6.4-13.637,53.183a9.432,9.432,0,0,1-11.387,6.817h0A9.431,9.431,0,0,1,403.573,1068.015Z" transform="translate(-403.405 -979.617)" fill="#dc927b"/>
                <g id="Grupo_15557" data-name="Grupo 15557" transform="translate(0.017)">
                  <path id="Trazado_24605" data-name="Trazado 24605" d="M439.216,1063.112l-35.805-7.353,8.213-39.987a18.276,18.276,0,0,1,21.58-14.228h0a18.275,18.275,0,0,1,14.225,21.58Z" transform="translate(-403.411 -1001.168)" fill="#ffd54f"/>
                  <path id="Trazado_24606" data-name="Trazado 24606" d="M424.277,1013.563l-5.55,26.084-4.825-1.154" transform="translate(-383.52 -977.668)" fill="#ffd54f"/>
                </g>
              </g>
            </g>
          </g>
          <g id="Grupo_15572" data-name="Grupo 15572" transform="translate(88.998 -25.557)">
            <path id="Trazado_24607" data-name="Trazado 24607" d="M434.3,969.336s9.777-4.271,18,3.461,2.415,12.89,9.667,16.718,1.955,14.419,10.414,19.238,2.879,16.712-5.824,18.4c0,0-4.176,11.022-13.344,9.959,0,0-8.485,9.429-25.009,3.44l-6.084-2.493Z" transform="translate(-373.247 -959.634)" fill="#004061"/>
            <path id="Trazado_24608" data-name="Trazado 24608" d="M432.824,971.548s-11,1.419-13.127,11.184-1.355,7.457-7.39,12.429,1.6,10.591-3.2,15.563c-2.447,2.54-3.6,4.616-3.831,7.008a8.794,8.794,0,0,0,6.577,9.131c2.78.791,5.048,3.42,6.7,7,3.281,7.1,15.012,4.017,15.012,4.017s11.086,6.458,17.874,1.665S448,968.707,448,968.707Z" transform="translate(-405.24 -958.595)" fill="#004061"/>
            <path id="Trazado_24609" data-name="Trazado 24609" d="M456.789,975.458s-4.448-10.243-20.477-10.243-20.992,15.713-20.992,15.713l23.321,12.7Z" transform="translate(-386.13 -965.215)" fill="#004061"/>
            <g id="Grupo_15564" data-name="Grupo 15564" transform="translate(71.564 42.297)">
              <g id="Grupo_15563" data-name="Grupo 15563">
                <g id="Grupo_15562" data-name="Grupo 15562">
                  <g id="Grupo_15561" data-name="Grupo 15561">
                    <path id="Trazado_24610" data-name="Trazado 24610" d="M430.879,984.162c-1.5,3.348-1.37,8.754,1.807,9.947s6.97-3.119,8.468-6.467.585-6.258-2.592-7.454S432.376,980.814,430.879,984.162Z" transform="translate(-429.952 -979.821)" fill="#ad523f"/>
                  </g>
                </g>
              </g>
              <path id="Trazado_24611" data-name="Trazado 24611" d="M430.252,995.455a7.136,7.136,0,1,0,6.244-11.662" transform="translate(-429.383 -972.29)" fill="none" stroke="#fcb807" stroke-miterlimit="10" stroke-width="0.75"/>
            </g>
            <g id="Grupo_15567" data-name="Grupo 15567" transform="translate(24.514 42.297)">
              <g id="Grupo_15566" data-name="Grupo 15566">
                <g id="Grupo_15565" data-name="Grupo 15565">
                  <path id="Trazado_24612" data-name="Trazado 24612" d="M424.681,984.162c1.5,3.348,2.777,8.314-1.8,9.947-3.2,1.141-6.973-3.119-8.471-6.467s-.582-6.258,2.595-7.454S423.184,980.814,424.681,984.162Z" transform="translate(-413.705 -979.821)" fill="#dc927b"/>
                </g>
              </g>
              <path id="Trazado_24613" data-name="Trazado 24613" d="M414.809,981.392s3.886-1.034,5.34,4.245" transform="translate(-411.611 -976.998)" fill="none" stroke="#ad523f" stroke-linecap="round" stroke-linejoin="round" stroke-width="0.484"/>
              <path id="Trazado_24614" data-name="Trazado 24614" d="M428.283,993.335a7.137,7.137,0,1,1-7.463-9.548" transform="translate(-412.306 -972.301)" fill="none" stroke="#fcb807" stroke-miterlimit="10" stroke-width="0.75"/>
            </g>
            <path id="Trazado_24615" data-name="Trazado 24615" d="M469.67,993.693c0,14.2-11.853,25.707-26.477,25.707s-28.027-12.088-28.027-26.286,13.405-25.128,28.027-25.128S469.67,979.494,469.67,993.693Z" transform="translate(-386.42 -959.961)" fill="#004061"/>
            <g id="Grupo_15568" data-name="Grupo 15568" transform="translate(43.474 64.702)">
              <path id="Trazado_24616" data-name="Trazado 24616" d="M423.621,987.888l-3.369,32.083h19.955l-3.446-32.414Z" transform="translate(-420.252 -987.557)" fill="#dc927b"/>
              <path id="Trazado_24617" data-name="Trazado 24617" d="M421.26,990.616l15.5,13.727L435.071,988.2Z" transform="translate(-418.341 -986.331)" fill="#ad523f"/>
            </g>
            <g id="Grupo_15569" data-name="Grupo 15569" transform="translate(33.788 11.03)">
              <path id="Trazado_24618" data-name="Trazado 24618" d="M440.222,969.024h0c-12.38,0-23.315,9.577-23.315,21.392l.712,14.178s.255,20.1,19.336,26.217a10.76,10.76,0,0,0,6.536,0c19.081-6.116,19.336-26.217,19.336-26.217l.712-14.178C463.54,978.6,452.605,969.024,440.222,969.024Z" transform="translate(-416.907 -969.024)" fill="#dc927b"/>
            </g>
            <g id="Grupo_15571" data-name="Grupo 15571" transform="translate(40.721 30.749)">
              <path id="Trazado_24619" data-name="Trazado 24619" d="M424.376,985.23s.223,2.957,4.257,2.957,4.257-2.957,4.257-2.957Z" transform="translate(-409.68 -958.017)" fill="#fd5a62"/>
              <g id="Grupo_15570" data-name="Grupo 15570" transform="translate(19.337 19.007)">
                <path id="Trazado_24620" data-name="Trazado 24620" d="M427.854,982.4l.542,3.292-2.418.027" transform="translate(-425.978 -982.396)" fill="none" stroke="#ad523f" stroke-linecap="round" stroke-linejoin="round" stroke-width="0.484"/>
              </g>
              <path id="Trazado_24621" data-name="Trazado 24621" d="M426.031,976.128s-3.962.507-5.885,1.706c-1.184.739-1.152,2.1.278,2.574,1.309.437,4.132.154,5.812-.038,4.106-.466,6.831-2,6.568-3.264C432.463,975.471,428.191,975.738,426.031,976.128Z" transform="translate(-419.301 -975.833)" fill="#004061"/>
              <path id="Trazado_24622" data-name="Trazado 24622" d="M434.073,976.128s3.742.507,5.554,1.706a1.365,1.365,0,0,1-.261,2.574c-1.236.437-3.9.154-5.485-.038-3.878-.466-6.452-2-6.2-3.264C428,975.471,432.035,975.738,434.073,976.128Z" transform="translate(-403.444 -975.833)" fill="#004061"/>
              <path id="Trazado_24623" data-name="Trazado 24623" d="M432.89,985.857a9.907,9.907,0,0,0-8.514,0S429.044,987.852,432.89,985.857Z" transform="translate(-409.68 -958.644)" fill="#fd5a62"/>
              <path id="Trazado_24624" data-name="Trazado 24624" d="M424.038,985.1a11.589,11.589,0,0,0,10.335,0" transform="translate(-410.321 -958.258)" fill="none" stroke="#ad523f" stroke-linecap="round" stroke-linejoin="round" stroke-width="0.484"/>
            </g>
            <path id="Trazado_24625" data-name="Trazado 24625" d="M456.925,972.479s-1.089,11.207-13.724,12.985c-12.884,1.81-10.092,9.336-25.739,7.532,0,0-5.656-8.19,2.731-16.643,5.549-5.595,16.394-10.26,24.161-9.481C446.969,967.135,453.169,971.723,456.925,972.479Z" transform="translate(-385.603 -962.236)" fill="#004061"/>
            <path id="Trazado_24626" data-name="Trazado 24626" d="M430.224,969.024s-8.022,8.074,14.21,22.7a15.381,15.381,0,0,0-1.433-9.3C440.594,977.715,430.224,969.024,430.224,969.024Z" transform="translate(-360.544 -957.993)" fill="#004061"/>
          </g>
          <circle id="Elipse_859" data-name="Elipse 859" cx="1.739" cy="1.739" r="1.739" transform="translate(135.789 15.431)" fill="#004061"/>
          <circle id="Elipse_860" data-name="Elipse 860" cx="1.739" cy="1.739" r="1.739" transform="translate(155.53 15.431)" fill="#004061"/>
        </g>
      </g>
      <g id="Grupo_15598" data-name="Grupo 15598" transform="translate(442.819 1054.415)">
        <g id="Grupo_15582" data-name="Grupo 15582" transform="translate(85.11 12.234)">
          <g id="Grupo_15578" data-name="Grupo 15578" transform="translate(25.314 80.162)">
            <g id="Grupo_15576" data-name="Grupo 15576">
              <g id="Grupo_15575" data-name="Grupo 15575">
                <path id="Trazado_24627" data-name="Trazado 24627" d="M436.427,1038.963l21.088,75.242,8.578-.878s-5.977-48.254-11.054-78.021c-.805-4.723-7.089-8.34-11.731-7.156h0C438.958,1029.259,435.323,1034.613,436.427,1038.963Z" transform="translate(-436.227 -1027.923)" fill="#dc927b"/>
              </g>
            </g>
            <g id="Grupo_15577" data-name="Grupo 15577" transform="translate(17.471 79.311)">
              <path id="Trazado_24628" data-name="Trazado 24628" d="M445.39,1057.54a23.043,23.043,0,0,0-1.176,18.108l-1.894,9.962a3.315,3.315,0,0,0,1.906,3.687h0a2.823,2.823,0,0,0,3.733-1.746l2.071-5.67.333,2.123a15.946,15.946,0,0,1-1.523,9.754l-4.315,8.386a3.237,3.237,0,0,0,.093,3.078h0a2.7,2.7,0,0,0,4.633.272l6.97-10.179a18.062,18.062,0,0,0,2.644-13.863l-5.488-26.141Z" transform="translate(-442.26 -1055.31)" fill="#dc927b"/>
            </g>
          </g>
          <g id="Grupo_15581" data-name="Grupo 15581">
            <g id="Grupo_15579" data-name="Grupo 15579" transform="translate(12.204 32.919)">
              <path id="Trazado_24629" data-name="Trazado 24629" d="M463.743,1067.089l-10.55-55.48-21.493,6.4,13.637,53.184a9.435,9.435,0,0,0,11.39,6.817h0A9.434,9.434,0,0,0,463.743,1067.089Z" transform="translate(-431.7 -1011.609)" fill="#dc927b"/>
            </g>
            <g id="Grupo_15580" data-name="Grupo 15580">
              <path id="Trazado_24630" data-name="Trazado 24630" d="M436.076,1062.186l35.808-7.353-8.213-39.99a18.279,18.279,0,0,0-21.58-14.225h0a18.277,18.277,0,0,0-14.228,21.58Z" transform="translate(-427.486 -1000.242)" fill="#ffd54f"/>
            </g>
          </g>
        </g>
        <g id="Grupo_15587" data-name="Grupo 15587" transform="translate(29.894)">
          <g id="Grupo_15583" data-name="Grupo 15583">
            <path id="Trazado_24631" data-name="Trazado 24631" d="M452.44,996.017l-40.4,16.344a5.792,5.792,0,0,0-3.385,7l21.583,72.291H477.95s10.538-56.418,14.96-75.027a5.88,5.88,0,0,0-3.643-7Z" transform="translate(-408.419 -996.017)" fill="#ffd54f"/>
          </g>
          <g id="Grupo_15584" data-name="Grupo 15584" transform="translate(16.072)">
            <path id="Trazado_24632" data-name="Trazado 24632" d="M413.969,1007.323l27.948-11.306,24.476,8.922s7.04,13.761-14.645,15.548C424.571,1022.723,413.969,1007.323,413.969,1007.323Z" transform="translate(-413.969 -996.017)" fill="#dc927b"/>
          </g>
          <g id="Grupo_15585" data-name="Grupo 15585" transform="translate(21.477 95.632)">
            <rect id="Rectángulo_3735" data-name="Rectángulo 3735" width="47.785" height="7.307" fill="#ffd54f"/>
          </g>
          <g id="Grupo_15586" data-name="Grupo 15586" transform="translate(74.018 43.913)">
            <line id="Línea_10445" data-name="Línea 10445" y1="28.096" x2="5.515" fill="#ffd54f"/>
          </g>
        </g>
        <g id="Grupo_15597" data-name="Grupo 15597" transform="translate(0 14.916)">
          <g id="Grupo_15591" data-name="Grupo 15591" transform="translate(0 80.162)">
            <g id="Grupo_15589" data-name="Grupo 15589" transform="translate(4.607)">
              <g id="Grupo_15588" data-name="Grupo 15588">
                <path id="Trazado_24633" data-name="Trazado 24633" d="M429.353,1039.892l-21.085,75.239-8.581-.877s5.977-48.255,11.054-78.022c.808-4.723,7.089-8.34,11.731-7.156h0C426.822,1030.185,430.456,1035.539,429.353,1039.892Z" transform="translate(-399.687 -1028.849)" fill="#dc927b"/>
              </g>
            </g>
            <g id="Grupo_15590" data-name="Grupo 15590" transform="translate(0 79.311)">
              <path id="Trazado_24634" data-name="Trazado 24634" d="M411.967,1058.466a23.036,23.036,0,0,1,1.179,18.108l1.894,9.965a3.315,3.315,0,0,1-1.906,3.684h0a2.824,2.824,0,0,1-3.736-1.746l-2.068-5.67-.336,2.123a15.964,15.964,0,0,0,1.526,9.753l4.315,8.387a3.236,3.236,0,0,1-.1,3.078h0a2.7,2.7,0,0,1-4.634.272l-6.968-10.179a18.05,18.05,0,0,1-2.644-13.863l5.488-26.141Z" transform="translate(-398.096 -1056.236)" fill="#dc927b"/>
            </g>
          </g>
          <g id="Grupo_15596" data-name="Grupo 15596" transform="translate(15.374)">
            <g id="Grupo_15592" data-name="Grupo 15592" transform="translate(0 32.919)">
              <path id="Trazado_24635" data-name="Trazado 24635" d="M403.573,1068.015l10.55-55.48,21.491,6.4-13.637,53.183a9.432,9.432,0,0,1-11.387,6.817h0A9.431,9.431,0,0,1,403.573,1068.015Z" transform="translate(-403.405 -1012.535)" fill="#dc927b"/>
            </g>
            <g id="Grupo_15595" data-name="Grupo 15595" transform="translate(0.017)">
              <g id="Grupo_15593" data-name="Grupo 15593">
                <path id="Trazado_24636" data-name="Trazado 24636" d="M439.216,1063.112l-35.805-7.353,8.213-39.987a18.276,18.276,0,0,1,21.58-14.228h0a18.275,18.275,0,0,1,14.225,21.58Z" transform="translate(-403.411 -1001.168)" fill="#ffd54f"/>
              </g>
              <g id="Grupo_15594" data-name="Grupo 15594" transform="translate(30.382 35.894)">
                <path id="Trazado_24637" data-name="Trazado 24637" d="M424.277,1013.563l-5.55,26.084-4.825-1.154" transform="translate(-413.902 -1013.563)" fill="#ffd54f"/>
              </g>
            </g>
          </g>
        </g>
      </g>
      <g id="Grupo_15629" data-name="Grupo 15629" transform="translate(463.506 965.215)">
        <g id="Grupo_15599" data-name="Grupo 15599" transform="translate(48.867 8.524)">
          <path id="Trazado_24638" data-name="Trazado 24638" d="M434.3,969.336s9.777-4.271,18,3.461,2.415,12.89,9.667,16.718,1.955,14.419,10.414,19.238,2.879,16.712-5.824,18.4c0,0-4.176,11.022-13.344,9.959,0,0-8.485,9.429-25.009,3.44l-6.084-2.493Z" transform="translate(-422.114 -968.159)" fill="#12263f"/>
        </g>
        <g id="Grupo_15600" data-name="Grupo 15600" transform="translate(0 10.112)">
          <path id="Trazado_24639" data-name="Trazado 24639" d="M432.824,971.548s-11,1.419-13.127,11.184-1.355,7.457-7.39,12.429,1.6,10.591-3.2,15.563c-2.447,2.54-3.6,4.616-3.831,7.008a8.794,8.794,0,0,0,6.577,9.131c2.78.791,5.048,3.42,6.7,7,3.281,7.1,15.012,4.017,15.012,4.017s11.086,6.458,17.874,1.665S448,968.707,448,968.707Z" transform="translate(-405.24 -968.707)" fill="#12263f"/>
        </g>
        <g id="Grupo_15601" data-name="Grupo 15601" transform="translate(29.189)">
          <path id="Trazado_24640" data-name="Trazado 24640" d="M456.789,975.458s-4.448-10.243-20.477-10.243-20.992,15.713-20.992,15.713l23.321,12.7Z" transform="translate(-415.319 -965.215)" fill="#12263f"/>
        </g>
        <g id="Grupo_15607" data-name="Grupo 15607" transform="translate(71.564 42.297)">
          <g id="Grupo_15605" data-name="Grupo 15605">
            <g id="Grupo_15604" data-name="Grupo 15604">
              <g id="Grupo_15603" data-name="Grupo 15603">
                <g id="Grupo_15602" data-name="Grupo 15602">
                  <path id="Trazado_24641" data-name="Trazado 24641" d="M430.879,984.162c-1.5,3.348-1.37,8.754,1.807,9.947s6.97-3.119,8.468-6.467.585-6.258-2.592-7.454S432.376,980.814,430.879,984.162Z" transform="translate(-429.952 -979.821)" fill="#ad523f"/>
                </g>
              </g>
            </g>
          </g>
          <g id="Grupo_15606" data-name="Grupo 15606" transform="translate(0.035 10.423)">
            <path id="Trazado_24642" data-name="Trazado 24642" d="M436.3,999.82a8.394,8.394,0,0,1-.895-.049,8.16,8.16,0,0,1-5.441-2.91l1.668-1.393a6,6,0,0,0,4,2.143,5.913,5.913,0,0,0,4.445-1.3,6.052,6.052,0,0,0-3.154-10.726l.232-2.16a8.223,8.223,0,0,1-.857,16.4Z" transform="translate(-429.964 -983.42)" fill="#fcb807"/>
          </g>
        </g>
        <g id="Grupo_15613" data-name="Grupo 15613" transform="translate(24.514 42.297)">
          <g id="Grupo_15610" data-name="Grupo 15610">
            <g id="Grupo_15609" data-name="Grupo 15609">
              <g id="Grupo_15608" data-name="Grupo 15608">
                <path id="Trazado_24643" data-name="Trazado 24643" d="M424.681,984.162c1.5,3.348,2.777,8.314-1.8,9.947-3.2,1.141-6.973-3.119-8.471-6.467s-.582-6.258,2.595-7.454S423.184,980.814,424.681,984.162Z" transform="translate(-413.705 -979.821)" fill="#dc927b"/>
              </g>
            </g>
          </g>
          <g id="Grupo_15611" data-name="Grupo 15611" transform="translate(2.497 3.619)">
            <path id="Trazado_24644" data-name="Trazado 24644" d="M420.608,986.795a.7.7,0,0,1-.675-.516c-1.257-4.561-4.356-3.791-4.486-3.759a.7.7,0,1,1-.359-1.353c.043-.017,4.576-1.144,6.2,4.738a.706.706,0,0,1-.489.863A.721.721,0,0,1,420.608,986.795Z" transform="translate(-414.567 -981.07)" fill="#ad523f"/>
          </g>
          <g id="Grupo_15612" data-name="Grupo 15612" transform="translate(1.05 10.405)">
            <path id="Trazado_24645" data-name="Trazado 24645" d="M422.288,999.811a8.222,8.222,0,0,1-.872-16.4l.232,2.16a6.049,6.049,0,1,0,6.328,8.094l2.039.747a8.183,8.183,0,0,1-6.846,5.351C422.873,999.8,422.577,999.811,422.288,999.811Z" transform="translate(-414.068 -983.414)" fill="#fcb807"/>
          </g>
        </g>
        <g id="Grupo_15614" data-name="Grupo 15614" transform="translate(28.746 8.025)">
          <path id="Trazado_24646" data-name="Trazado 24646" d="M469.67,993.693c0,14.2-11.853,25.707-26.477,25.707s-28.027-12.088-28.027-26.286,13.405-25.128,28.027-25.128S469.67,979.494,469.67,993.693Z" transform="translate(-415.166 -967.986)" fill="#12263f"/>
        </g>
        <g id="Grupo_15617" data-name="Grupo 15617" transform="translate(43.474 64.702)">
          <g id="Grupo_15615" data-name="Grupo 15615">
            <path id="Trazado_24647" data-name="Trazado 24647" d="M423.621,987.888l-3.369,32.083h19.955l-3.446-32.414Z" transform="translate(-420.252 -987.557)" fill="#dc927b"/>
          </g>
          <g id="Grupo_15616" data-name="Grupo 15616" transform="translate(2.919 1.874)">
            <path id="Trazado_24648" data-name="Trazado 24648" d="M421.26,990.616l15.5,13.727L435.071,988.2Z" transform="translate(-421.26 -988.204)" fill="#ad523f"/>
          </g>
        </g>
        <g id="Grupo_15618" data-name="Grupo 15618" transform="translate(33.788 11.03)">
          <path id="Trazado_24649" data-name="Trazado 24649" d="M440.222,969.024h0c-12.38,0-23.315,9.577-23.315,21.392l.712,14.178s.255,20.1,19.336,26.217a10.76,10.76,0,0,0,6.536,0c19.081-6.116,19.336-26.217,19.336-26.217l.712-14.178C463.54,978.6,452.605,969.024,440.222,969.024Z" transform="translate(-416.907 -969.024)" fill="#dc927b"/>
        </g>
        <g id="Grupo_15626" data-name="Grupo 15626" transform="translate(40.721 30.749)">
          <g id="Grupo_15619" data-name="Grupo 15619" transform="translate(14.696 27.213)">
            <path id="Trazado_24650" data-name="Trazado 24650" d="M424.376,985.23s.223,2.957,4.257,2.957,4.257-2.957,4.257-2.957Z" transform="translate(-424.376 -985.23)" fill="#fd5a62"/>
          </g>
          <g id="Grupo_15621" data-name="Grupo 15621" transform="translate(18.638 18.305)">
            <g id="Grupo_15620" data-name="Grupo 15620">
              <path id="Trazado_24651" data-name="Trazado 24651" d="M426.438,986.875a.7.7,0,0,1-.009-1.4l1.6-.017-.411-2.485a.7.7,0,0,1,.576-.8.687.687,0,0,1,.808.576l.542,3.293a.7.7,0,0,1-.683.814l-2.418.026Z" transform="translate(-425.737 -982.154)" fill="#ad523f"/>
            </g>
          </g>
          <g id="Grupo_15622" data-name="Grupo 15622">
            <path id="Trazado_24652" data-name="Trazado 24652" d="M426.031,976.128s-3.962.507-5.885,1.706c-1.184.739-1.152,2.1.278,2.574,1.309.437,4.132.154,5.812-.038,4.106-.466,6.831-2,6.568-3.264C432.463,975.471,428.191,975.738,426.031,976.128Z" transform="translate(-419.301 -975.833)" fill="#004061"/>
          </g>
          <g id="Grupo_15623" data-name="Grupo 15623" transform="translate(24.221)">
            <path id="Trazado_24653" data-name="Trazado 24653" d="M434.073,976.128s3.742.507,5.554,1.706a1.365,1.365,0,0,1-.261,2.574c-1.236.437-3.9.154-5.485-.038-3.878-.466-6.452-2-6.2-3.264C428,975.471,432.035,975.738,434.073,976.128Z" transform="translate(-427.665 -975.833)" fill="#004061"/>
          </g>
          <g id="Grupo_15624" data-name="Grupo 15624" transform="translate(14.696 26.256)">
            <path id="Trazado_24654" data-name="Trazado 24654" d="M432.89,985.857a9.907,9.907,0,0,0-8.514,0S429.044,987.852,432.89,985.857Z" transform="translate(-424.376 -984.899)" fill="#fd5a62"/>
          </g>
          <g id="Grupo_15625" data-name="Grupo 15625" transform="translate(13.017 26.144)">
            <path id="Trazado_24655" data-name="Trazado 24655" d="M429.637,987.482a11.712,11.712,0,0,1-5.491-1.315.7.7,0,0,1,.7-1.213,10.792,10.792,0,0,0,9.678-.023.7.7,0,1,1,.611,1.26A12.5,12.5,0,0,1,429.637,987.482Z" transform="translate(-423.796 -984.861)" fill="#ad523f"/>
          </g>
        </g>
        <g id="Grupo_15627" data-name="Grupo 15627" transform="translate(29.994 4.551)">
          <path id="Trazado_24656" data-name="Trazado 24656" d="M456.925,972.479s-1.089,11.207-13.724,12.985c-12.884,1.81-10.092,9.336-25.739,7.532,0,0-5.656-8.19,2.731-16.643,5.549-5.595,16.394-10.26,24.161-9.481C446.969,967.135,453.169,971.723,456.925,972.479Z" transform="translate(-415.597 -966.787)" fill="#12263f"/>
        </g>
        <g id="Grupo_15628" data-name="Grupo 15628" transform="translate(68.27 11.03)">
          <path id="Trazado_24657" data-name="Trazado 24657" d="M430.224,969.024s-8.022,8.074,14.21,22.7a15.381,15.381,0,0,0-1.433-9.3C440.594,977.715,430.224,969.024,430.224,969.024Z" transform="translate(-428.814 -969.024)" fill="#12263f"/>
        </g>
      </g>
      <g id="Grupo_15630" data-name="Grupo 15630" transform="translate(510.296 1006.203)">
        <circle id="Elipse_862" data-name="Elipse 862" cx="1.739" cy="1.739" r="1.739" fill="#004061"/>
      </g>
      <g id="Grupo_15631" data-name="Grupo 15631" transform="translate(530.037 1006.203)">
        <circle id="Elipse_863" data-name="Elipse 863" cx="1.739" cy="1.739" r="1.739" fill="#004061"/>
      </g>
      <g id="Grupo_15632" data-name="Grupo 15632" transform="translate(467.477 1078.66)">
        <path id="Trazado_24658" data-name="Trazado 24658" d="M502.744,1007.285H499.28v-2.9h3.464Zm-9.255,0H487.7v-2.9h5.792Zm-11.584,0h-5.792v-2.9H481.9Zm-11.584,0h-5.792v-2.9h5.792Zm-11.584,0h-5.792v-2.9h5.792Zm-11.584,0h-5.792v-2.9h5.792Zm-11.584,0h-5.792v-2.9h5.792Zm-11.584,0h-5.792v-2.9h5.792Zm-11.584,0h-5.792v-2.9H412.4Z" transform="translate(-406.611 -1004.389)" fill="#ff5953" stroke="#ff5953" stroke-width="2"/>
      </g>
      <g id="Grupo_15633" data-name="Grupo 15633" transform="translate(475.151 1191.186)">
        <path id="Trazado_24659" data-name="Trazado 24659" d="M492.6,1046.142h-2.256v-2.9H492.6Zm-8.048,0h-5.792v-2.9h5.792Zm-11.584,0h-5.792v-2.9h5.792Zm-11.584,0H455.6v-2.9h5.792Zm-11.584,0h-5.792v-2.9H449.8Zm-11.584,0h-5.792v-2.9h5.792Zm-11.584,0h-5.792v-2.9h5.792Zm-11.584,0h-5.792v-2.9h5.792Z" transform="translate(-409.261 -1043.246)" fill="#ff5953" stroke="#ff5953" stroke-width="2"/>
      </g>
    </g>
  </g>
</svg>
