<svg xmlns="http://www.w3.org/2000/svg" xmlns:xlink="http://www.w3.org/1999/xlink" width="398.652" height="382.68" viewBox="0 0 398.652 382.68">
  <defs>
    <clipPath id="clip-path">
      <circle id="Elipse_849" data-name="Elipse 849" cx="130.426" cy="130.426" r="130.426" fill="none"/>
    </clipPath>
  </defs>
  <g id="Grupo_1054606" data-name="Grupo 1054606" transform="translate(-127.041 -2867.163)">
    <g id="BACKGROUND" transform="translate(121.133 2917.245) rotate(-13)" opacity="0.49">
      <g id="Grupo_32241" data-name="Grupo 32241">
        <path id="Trazado_61861" data-name="Trazado 61861" d="M45.82,80.353c16.626-.651,32.7,5.958,48.606,11.494s32.925,10.087,49.022,5.325c21.643-6.4,36.742-27.927,50.3-48.107s28.9-41.582,50.643-47.522C264.7-4,286.606,5.94,301.385,22.681s23.308,39.373,28.631,62.285c13.184,56.751,6.82,122.18-27.434,166.161-27.405,35.188-68.775,52.472-109.638,59.942-29.477,5.389-60.123,6.289-88.787-3.191-34.875-11.534-65.524-38.719-83.8-74.332C-1.057,191.835-20.911,82.969,45.82,80.353Z" transform="translate(0 26.264)" fill="#673ab7"/>
        <path id="Trazado_61862" data-name="Trazado 61862" d="M58.318,110.052c23.325.432,48.442-8.154,65.889-20.332,9.672-6.751,18.318-15.353,23.48-25.958s6.528-23.377,2.028-34.28c-6.493-15.73-23.574-24.631-40.292-27.811a99,99,0,0,0-74.21,15.854C20.231,27.973,4.525,42.843.636,61.449-3.554,81.5,13.708,96.875,30.7,104.388A71.528,71.528,0,0,0,58.318,110.052Z" transform="translate(47.288 0)" fill="#673ab7"/>
      </g>
    </g>
    <g id="Grupo_1054523" data-name="Grupo 1054523" transform="translate(182.651 2934.411)">
      <g id="Grupo_15383" data-name="Grupo 15383" transform="translate(0 23.72)">
        <g id="Grupo_15382" data-name="Grupo 15382" clip-path="url(#clip-path)">
          <path id="Trazado_24442" data-name="Trazado 24442" d="M460.85,906.961c-10.721-1.927-19.77,4.8-22.508,15.346a197.569,197.569,0,0,0-5.784,39.179c-2.051,38.508-1.032,71.9.4,89.259a17.291,17.291,0,0,0,16.795,15.859h0a17.306,17.306,0,0,0,17.652-15.384l10.817-121.446a20.772,20.772,0,0,0-17-22.748Z" transform="translate(-345.526 -732.296)" fill="#7b1fa2"/>
          <path id="Trazado_24443" data-name="Trazado 24443" d="M467.242,906.845c10.766-1.647,17.27,5.319,19.732,15.929a197.473,197.473,0,0,1,4.757,39.319c1.04,38.545-.852,71.9-2.739,89.219a17.29,17.29,0,0,1-17.2,15.411h0a17.3,17.3,0,0,1-17.243-15.838L449.279,929.2a20.772,20.772,0,0,1,17.59-22.3Z" transform="translate(-315.483 -732.344)" fill="#7b1fa2"/>
          <g id="Grupo_15358" data-name="Grupo 15358" transform="translate(93.401 154.597)">
            <path id="Trazado_24444" data-name="Trazado 24444" d="M496.219,899.288H451.872s-11.333,8.143-17.671,33.485l33.5,19.09a12.238,12.238,0,0,0,12.645,0l31.205-19.227C504.736,908.047,496.219,899.288,496.219,899.288Z" transform="translate(-434.201 -899.288)" fill="#7b1fa2"/>
            <g id="Grupo_15355" data-name="Grupo 15355" transform="translate(37.231 53.853)">
              <line id="Línea_10437" data-name="Línea 10437" x1="15.415" transform="translate(0.481 0.481)" fill="#65198e"/>
              <path id="Trazado_24445" data-name="Trazado 24445" d="M463.948,920.288H448.535a.481.481,0,1,1,0-.962h15.413a.481.481,0,1,1,0,.962Z" transform="translate(-448.054 -919.326)" fill="#65198e"/>
            </g>
            <g id="Grupo_15356" data-name="Grupo 15356" transform="translate(9.38 7.893)">
              <path id="Trazado_24446" data-name="Trazado 24446" d="M451.727,902.405s-.879,15.015-13.857,18.789" transform="translate(-437.389 -901.921)" fill="#65198e"/>
              <path id="Trazado_24447" data-name="Trazado 24447" d="M438.172,921.979a.479.479,0,0,1-.462-.344.485.485,0,0,1,.328-.6c12.494-3.631,13.5-18.208,13.51-18.356a.47.47,0,0,1,.508-.452.485.485,0,0,1,.454.508c-.011.156-1.051,15.4-14.2,19.227A.561.561,0,0,1,438.172,921.979Z" transform="translate(-437.691 -902.225)" fill="#65198e"/>
            </g>
            <g id="Grupo_15357" data-name="Grupo 15357" transform="translate(60.933 8.211)">
              <path id="Trazado_24448" data-name="Trazado 24448" d="M457.052,902.522s1.79,12.137,12.148,18.791" transform="translate(-456.571 -902.041)" fill="#65198e"/>
              <path id="Trazado_24449" data-name="Trazado 24449" d="M469.5,922.1a.488.488,0,0,1-.261-.075c-10.42-6.7-12.344-19-12.363-19.125a.481.481,0,1,1,.951-.143c.019.118,1.887,12,11.933,18.456a.481.481,0,0,1-.261.887Z" transform="translate(-456.873 -902.343)" fill="#65198e"/>
            </g>
          </g>
          <g id="Grupo_15369" data-name="Grupo 15369" transform="translate(63.397 59.063)">
            <g id="Grupo_15362" data-name="Grupo 15362" transform="translate(78.987 11.356)">
              <g id="Grupo_15360" data-name="Grupo 15360" transform="translate(23.494 74.395)">
                <g id="Grupo_15359" data-name="Grupo 15359">
                  <path id="Trazado_24450" data-name="Trazado 24450" d="M461.353,905.893l19.568,69.828,7.963-.814s-5.547-44.783-10.258-72.408c-.75-4.383-6.579-7.74-10.887-6.641h0C463.7,896.884,460.329,901.857,461.353,905.893Z" transform="translate(-461.168 -895.648)" fill="#dc927b"/>
                </g>
                <path id="Trazado_24451" data-name="Trazado 24451" d="M470.107,925.1a21.37,21.37,0,0,0-1.094,16.8l-1.758,9.248a3.081,3.081,0,0,0,1.768,3.421h0a2.624,2.624,0,0,0,3.467-1.62l1.922-5.265.309,1.97a14.827,14.827,0,0,1-1.416,9.054l-4,7.783a3,3,0,0,0,.089,2.857h0a2.506,2.506,0,0,0,4.3.253l6.466-9.45A16.742,16.742,0,0,0,482.61,947.3l-5.093-24.261Z" transform="translate(-450.988 -849.43)" fill="#dc927b"/>
              </g>
              <g id="Grupo_15361" data-name="Grupo 15361">
                <path id="Trazado_24452" data-name="Trazado 24452" d="M486.376,930.822l-9.791-51.488-19.944,5.942L469.3,934.633a8.753,8.753,0,0,0,10.568,6.326h0A8.756,8.756,0,0,0,486.376,930.822Z" transform="translate(-445.314 -848.783)" fill="#dc927b"/>
                <path id="Trazado_24453" data-name="Trazado 24453" d="M460.4,925.455l33.229-6.824-7.622-37.113a16.959,16.959,0,0,0-20.028-13.2h0a16.959,16.959,0,0,0-13.2,20.028Z" transform="translate(-452.426 -867.966)" fill="#ffd54f"/>
              </g>
            </g>
            <g id="Grupo_15363" data-name="Grupo 15363" transform="translate(27.744)">
              <path id="Trazado_24454" data-name="Trazado 24454" d="M474.214,863.741,436.72,878.91a5.377,5.377,0,0,0-3.142,6.5l20.03,67.089h44.278s9.783-52.362,13.887-69.629a5.457,5.457,0,0,0-3.384-6.5Z" transform="translate(-433.36 -863.741)" fill="#ffd54f"/>
              <path id="Trazado_24455" data-name="Trazado 24455" d="M438.91,874.236l25.938-10.495,22.713,8.283s6.536,12.771-13.591,14.43C448.749,888.528,438.91,874.236,438.91,874.236Z" transform="translate(-423.994 -863.741)" fill="#dc927b"/>
              <rect id="Rectángulo_3730" data-name="Rectángulo 3730" width="44.347" height="6.781" transform="translate(19.931 88.754)" fill="#ffd54f"/>
              <line id="Línea_10438" data-name="Línea 10438" y1="26.074" x2="5.118" transform="translate(68.692 40.756)" fill="#ffd54f"/>
            </g>
            <g id="Grupo_15368" data-name="Grupo 15368" transform="translate(0 13.846)">
              <g id="Grupo_15365" data-name="Grupo 15365" transform="translate(0 74.394)">
                <g id="Grupo_15364" data-name="Grupo 15364" transform="translate(4.277)">
                  <path id="Trazado_24456" data-name="Trazado 24456" d="M452.159,906.819l-19.571,69.828-7.961-.814s5.547-44.783,10.258-72.408c.747-4.384,6.579-7.74,10.887-6.641h0C449.81,897.813,453.183,902.783,452.159,906.819Z" transform="translate(-424.628 -896.574)" fill="#dc927b"/>
                </g>
                <path id="Trazado_24457" data-name="Trazado 24457" d="M435.911,926.03a21.379,21.379,0,0,1,1.091,16.8l1.758,9.248a3.078,3.078,0,0,1-1.768,3.421h0a2.62,2.62,0,0,1-3.464-1.621l-1.922-5.263-.309,1.97a14.82,14.82,0,0,0,1.414,9.052l4,7.783a3,3,0,0,1-.086,2.857h0a2.505,2.505,0,0,1-4.3.253l-6.469-9.447a16.762,16.762,0,0,1-2.454-12.866l5.093-24.261Z" transform="translate(-423.037 -850.356)" fill="#dc927b"/>
              </g>
              <g id="Grupo_15367" data-name="Grupo 15367" transform="translate(14.267)">
                <path id="Trazado_24458" data-name="Trazado 24458" d="M428.5,931.748l9.791-51.489,19.947,5.942-12.656,49.357a8.756,8.756,0,0,1-10.57,6.327h0A8.758,8.758,0,0,1,428.5,931.748Z" transform="translate(-428.345 -849.71)" fill="#dc927b"/>
                <g id="Grupo_15366" data-name="Grupo 15366" transform="translate(0.015)">
                  <path id="Trazado_24459" data-name="Trazado 24459" d="M461.583,926.381l-33.232-6.824,7.622-37.113A16.964,16.964,0,0,1,456,869.243h0a16.961,16.961,0,0,1,13.2,20.028Z" transform="translate(-428.351 -868.893)" fill="#ffd54f"/>
                  <path id="Trazado_24460" data-name="Trazado 24460" d="M448.471,881.287l-5.15,24.207-4.478-1.071" transform="translate(-410.645 -847.976)" fill="#ffd54f"/>
                </g>
              </g>
            </g>
          </g>
          <g id="Grupo_15381" data-name="Grupo 15381" transform="translate(82.594 -23.72)">
            <path id="Trazado_24461" data-name="Trazado 24461" d="M458.364,836.976s9.073-3.964,16.7,3.212,2.244,11.962,8.971,15.513,1.817,13.381,9.667,17.856,2.669,15.51-5.4,17.077c0,0-3.878,10.226-12.387,9.242,0,0-7.872,8.751-23.207,3.193l-5.647-2.317Z" transform="translate(-401.702 -827.97)" fill="#004061"/>
            <path id="Trazado_24462" data-name="Trazado 24462" d="M455.782,839.069s-10.2,1.317-12.183,10.379-1.258,6.92-6.861,11.532,1.484,9.831-2.964,14.446c-2.271,2.357-3.341,4.284-3.558,6.5a8.169,8.169,0,0,0,6.1,8.474c2.58.734,4.687,3.174,6.222,6.5,3.042,6.59,13.932,3.728,13.932,3.728s10.285,5.993,16.588,1.543-3.2-65.738-3.2-65.738Z" transform="translate(-430.18 -827.044)" fill="#004061"/>
            <path id="Trazado_24463" data-name="Trazado 24463" d="M478.746,842.445s-4.131-9.506-19-9.506-19.482,14.585-19.482,14.585l21.64,11.788Z" transform="translate(-413.169 -832.939)" fill="#004061"/>
            <g id="Grupo_15373" data-name="Grupo 15373" transform="translate(66.416 39.257)">
              <g id="Grupo_15372" data-name="Grupo 15372">
                <g id="Grupo_15371" data-name="Grupo 15371">
                  <g id="Grupo_15370" data-name="Grupo 15370">
                    <path id="Trazado_24464" data-name="Trazado 24464" d="M455.752,851.575c-1.389,3.107-1.271,8.122,1.677,9.232s6.469-2.895,7.861-6,.54-5.81-2.408-6.918S457.144,848.468,455.752,851.575Z" transform="translate(-454.892 -847.546)" fill="#ad523f"/>
                  </g>
                </g>
              </g>
              <path id="Trazado_24465" data-name="Trazado 24465" d="M455.192,862.341a6.624,6.624,0,1,0,5.8-10.823" transform="translate(-454.386 -840.843)" fill="none" stroke="#fcb807" stroke-miterlimit="10" stroke-width="0.75"/>
            </g>
            <g id="Grupo_15376" data-name="Grupo 15376" transform="translate(22.751 39.257)">
              <g id="Grupo_15375" data-name="Grupo 15375">
                <g id="Grupo_15374" data-name="Grupo 15374">
                  <path id="Trazado_24466" data-name="Trazado 24466" d="M448.833,851.575c1.392,3.107,2.577,7.716-1.677,9.232-2.967,1.059-6.469-2.895-7.858-6s-.543-5.81,2.405-6.918S447.444,848.468,448.833,851.575Z" transform="translate(-438.645 -847.546)" fill="#dc927b"/>
                </g>
              </g>
              <path id="Trazado_24467" data-name="Trazado 24467" d="M439.749,849.111s3.609-.96,4.959,3.94" transform="translate(-436.782 -845.033)" fill="none" stroke="#ad523f" stroke-linecap="round" stroke-linejoin="round" stroke-width="0.484"/>
              <path id="Trazado_24468" data-name="Trazado 24468" d="M452.228,860.373a6.624,6.624,0,1,1-6.929-8.861" transform="translate(-437.399 -840.853)" fill="none" stroke="#fcb807" stroke-miterlimit="10" stroke-width="0.75"/>
            </g>
            <path id="Trazado_24469" data-name="Trazado 24469" d="M490.687,859.568c0,13.177-11,23.858-24.57,23.858s-26.01-11.221-26.01-24.4,12.441-23.32,26.01-23.32S490.687,846.391,490.687,859.568Z" transform="translate(-413.427 -828.261)" fill="#004061"/>
            <g id="Grupo_15377" data-name="Grupo 15377" transform="translate(40.347 60.049)">
              <path id="Trazado_24470" data-name="Trazado 24470" d="M448.319,855.589l-3.126,29.775h18.519l-3.2-30.082Z" transform="translate(-445.192 -855.282)" fill="#dc927b"/>
              <path id="Trazado_24471" data-name="Trazado 24471" d="M446.2,858.167l14.389,12.74-1.572-14.977Z" transform="translate(-443.491 -854.19)" fill="#ad523f"/>
            </g>
            <g id="Grupo_15378" data-name="Grupo 15378" transform="translate(31.356 10.24)">
              <path id="Trazado_24472" data-name="Trazado 24472" d="M463.487,836.749h0c-11.492,0-21.64,8.888-21.64,19.853l.661,13.158s.239,18.655,17.945,24.331a9.991,9.991,0,0,0,6.066,0c17.708-5.676,17.945-24.331,17.945-24.331l.664-13.158C485.128,845.637,474.979,836.749,463.487,836.749Z" transform="translate(-441.847 -836.749)" fill="#dc927b"/>
            </g>
            <g id="Grupo_15380" data-name="Grupo 15380" transform="translate(37.793 28.539)">
              <path id="Trazado_24473" data-name="Trazado 24473" d="M449.316,852.955s.21,2.741,3.953,2.741,3.951-2.741,3.951-2.741Z" transform="translate(-435.679 -827.699)" fill="#fd5a62"/>
              <g id="Grupo_15379" data-name="Grupo 15379" transform="translate(17.945 17.64)">
                <path id="Trazado_24474" data-name="Trazado 24474" d="M452.66,850.121l.5,3.055-2.244.025" transform="translate(-450.919 -850.121)" fill="none" stroke="#ad523f" stroke-linecap="round" stroke-linejoin="round" stroke-width="0.484"/>
              </g>
              <path id="Trazado_24475" data-name="Trazado 24475" d="M450.488,843.83s-3.679.473-5.461,1.586a1.247,1.247,0,0,0,.255,2.389c1.217.406,3.838.14,5.394-.035,3.814-.435,6.343-1.852,6.1-3.029C456.457,843.223,452.493,843.47,450.488,843.83Z" transform="translate(-444.242 -843.558)" fill="#004061"/>
              <path id="Trazado_24476" data-name="Trazado 24476" d="M458.555,843.83a15.935,15.935,0,0,1,5.155,1.586,1.266,1.266,0,0,1-.242,2.389c-1.15.406-3.623.14-5.09-.035-3.6-.435-5.988-1.852-5.757-3.029C452.919,843.223,456.663,843.47,458.555,843.83Z" transform="translate(-430.129 -843.558)" fill="#004061"/>
              <path id="Trazado_24477" data-name="Trazado 24477" d="M457.22,853.513a9.2,9.2,0,0,0-7.9,0S453.648,855.362,457.22,853.513Z" transform="translate(-435.679 -828.257)" fill="#fd5a62"/>
              <path id="Trazado_24478" data-name="Trazado 24478" d="M448.979,852.828a10.751,10.751,0,0,0,9.589,0" transform="translate(-436.248 -827.914)" fill="none" stroke="#ad523f" stroke-linecap="round" stroke-linejoin="round" stroke-width="0.484"/>
            </g>
            <path id="Trazado_24479" data-name="Trazado 24479" d="M478.893,839.791s-1.01,10.4-12.736,12.051c-11.957,1.682-9.366,8.667-23.887,6.993,0,0-5.249-7.6,2.532-15.446,5.152-5.192,15.217-9.522,22.422-8.8C469.65,834.835,475.4,839.092,478.893,839.791Z" transform="translate(-412.7 -830.285)" fill="#004061"/>
            <path id="Trazado_24480" data-name="Trazado 24480" d="M455.062,836.749s-7.442,7.493,13.19,21.068a14.3,14.3,0,0,0-1.333-8.635C464.689,844.814,455.062,836.749,455.062,836.749Z" transform="translate(-390.396 -826.509)" fill="#004061"/>
          </g>
          <circle id="Elipse_847" data-name="Elipse 847" cx="1.613" cy="1.613" r="1.613" transform="translate(126.019 14.321)" fill="#004061"/>
          <circle id="Elipse_848" data-name="Elipse 848" cx="1.613" cy="1.613" r="1.613" transform="translate(144.34 14.321)" fill="#004061"/>
        </g>
      </g>
      <g id="Grupo_15394" data-name="Grupo 15394" transform="translate(63.397 82.782)">
        <g id="Grupo_15387" data-name="Grupo 15387" transform="translate(78.987 11.356)">
          <g id="Grupo_15385" data-name="Grupo 15385" transform="translate(23.494 74.395)">
            <g id="Grupo_15384" data-name="Grupo 15384">
              <path id="Trazado_24481" data-name="Trazado 24481" d="M461.353,905.893l19.568,69.828,7.963-.814s-5.547-44.783-10.258-72.408c-.75-4.383-6.579-7.74-10.887-6.641h0C463.7,896.884,460.329,901.857,461.353,905.893Z" transform="translate(-461.168 -895.648)" fill="#dc927b"/>
            </g>
            <path id="Trazado_24482" data-name="Trazado 24482" d="M470.107,925.1a21.37,21.37,0,0,0-1.094,16.8l-1.758,9.248a3.081,3.081,0,0,0,1.768,3.421h0a2.624,2.624,0,0,0,3.467-1.62l1.922-5.265.309,1.97a14.827,14.827,0,0,1-1.416,9.054l-4,7.783a3,3,0,0,0,.089,2.857h0a2.506,2.506,0,0,0,4.3.253l6.466-9.45A16.742,16.742,0,0,0,482.61,947.3l-5.093-24.261Z" transform="translate(-450.988 -849.43)" fill="#dc927b"/>
          </g>
          <g id="Grupo_15386" data-name="Grupo 15386">
            <path id="Trazado_24483" data-name="Trazado 24483" d="M486.376,930.822l-9.791-51.488-19.944,5.942L469.3,934.633a8.753,8.753,0,0,0,10.568,6.326h0A8.756,8.756,0,0,0,486.376,930.822Z" transform="translate(-445.314 -848.783)" fill="#dc927b"/>
            <path id="Trazado_24484" data-name="Trazado 24484" d="M460.4,925.455l33.229-6.824-7.622-37.113a16.959,16.959,0,0,0-20.028-13.2h0a16.959,16.959,0,0,0-13.2,20.028Z" transform="translate(-452.426 -867.966)" fill="#ffd54f"/>
          </g>
        </g>
        <g id="Grupo_15388" data-name="Grupo 15388" transform="translate(27.744)">
          <path id="Trazado_24485" data-name="Trazado 24485" d="M474.214,863.741,436.72,878.91a5.377,5.377,0,0,0-3.142,6.5l20.03,67.089h44.278s9.783-52.362,13.887-69.629a5.457,5.457,0,0,0-3.384-6.5Z" transform="translate(-433.36 -863.741)" fill="#ffd54f"/>
          <path id="Trazado_24486" data-name="Trazado 24486" d="M438.91,874.236l25.938-10.495,22.713,8.283s6.536,12.771-13.591,14.43C448.749,888.528,438.91,874.236,438.91,874.236Z" transform="translate(-423.994 -863.741)" fill="#dc927b"/>
          <rect id="Rectángulo_3731" data-name="Rectángulo 3731" width="44.347" height="6.781" transform="translate(19.931 88.754)" fill="#ffd54f"/>
          <line id="Línea_10439" data-name="Línea 10439" y1="26.074" x2="5.118" transform="translate(68.692 40.756)" fill="#ffd54f"/>
        </g>
        <g id="Grupo_15393" data-name="Grupo 15393" transform="translate(0 13.846)">
          <g id="Grupo_15390" data-name="Grupo 15390" transform="translate(0 74.394)">
            <g id="Grupo_15389" data-name="Grupo 15389" transform="translate(4.277)">
              <path id="Trazado_24487" data-name="Trazado 24487" d="M452.159,906.819l-19.571,69.828-7.961-.814s5.547-44.783,10.258-72.408c.747-4.384,6.579-7.74,10.887-6.641h0C449.81,897.813,453.183,902.783,452.159,906.819Z" transform="translate(-424.628 -896.574)" fill="#dc927b"/>
            </g>
            <path id="Trazado_24488" data-name="Trazado 24488" d="M435.911,926.03a21.379,21.379,0,0,1,1.091,16.8l1.758,9.248a3.078,3.078,0,0,1-1.768,3.421h0a2.62,2.62,0,0,1-3.464-1.621l-1.922-5.263-.309,1.97a14.82,14.82,0,0,0,1.414,9.052l4,7.783a3,3,0,0,1-.086,2.857h0a2.505,2.505,0,0,1-4.3.253l-6.469-9.447a16.762,16.762,0,0,1-2.454-12.866l5.093-24.261Z" transform="translate(-423.037 -850.356)" fill="#dc927b"/>
          </g>
          <g id="Grupo_15392" data-name="Grupo 15392" transform="translate(14.267)">
            <path id="Trazado_24489" data-name="Trazado 24489" d="M428.5,931.748l9.791-51.489,19.947,5.942-12.656,49.357a8.756,8.756,0,0,1-10.57,6.327h0A8.758,8.758,0,0,1,428.5,931.748Z" transform="translate(-428.345 -849.71)" fill="#dc927b"/>
            <g id="Grupo_15391" data-name="Grupo 15391" transform="translate(0.015)">
              <path id="Trazado_24490" data-name="Trazado 24490" d="M461.583,926.381l-33.232-6.824,7.622-37.113A16.964,16.964,0,0,1,456,869.243h0a16.961,16.961,0,0,1,13.2,20.028Z" transform="translate(-428.351 -868.893)" fill="#ffd54f"/>
              <path id="Trazado_24491" data-name="Trazado 24491" d="M448.471,881.287l-5.15,24.207-4.478-1.071" transform="translate(-410.645 -847.976)" fill="#ffd54f"/>
            </g>
          </g>
        </g>
      </g>
      <g id="Grupo_15406" data-name="Grupo 15406" transform="translate(82.594 0)">
        <path id="Trazado_24492" data-name="Trazado 24492" d="M458.364,836.976s9.073-3.964,16.7,3.212,2.244,11.962,8.971,15.513,1.817,13.381,9.667,17.856,2.669,15.51-5.4,17.077c0,0-3.878,10.226-12.387,9.242,0,0-7.872,8.751-23.207,3.193l-5.647-2.317Z" transform="translate(-401.702 -827.97)" fill="#12263f"/>
        <path id="Trazado_24493" data-name="Trazado 24493" d="M455.782,839.069s-10.2,1.317-12.183,10.379-1.258,6.92-6.861,11.532,1.484,9.831-2.964,14.446c-2.271,2.357-3.341,4.284-3.558,6.5a8.169,8.169,0,0,0,6.1,8.474c2.58.734,4.687,3.174,6.222,6.5,3.042,6.59,13.932,3.728,13.932,3.728s10.285,5.993,16.588,1.543-3.2-65.738-3.2-65.738Z" transform="translate(-430.18 -827.044)" fill="#12263f"/>
        <path id="Trazado_24494" data-name="Trazado 24494" d="M478.746,842.445s-4.131-9.506-19-9.506-19.482,14.585-19.482,14.585l21.64,11.788Z" transform="translate(-413.169 -832.939)" fill="#12263f"/>
        <g id="Grupo_15398" data-name="Grupo 15398" transform="translate(66.416 39.257)">
          <g id="Grupo_15397" data-name="Grupo 15397">
            <g id="Grupo_15396" data-name="Grupo 15396">
              <g id="Grupo_15395" data-name="Grupo 15395">
                <path id="Trazado_24495" data-name="Trazado 24495" d="M455.752,851.575c-1.389,3.107-1.271,8.122,1.677,9.232s6.469-2.895,7.861-6,.54-5.81-2.408-6.918S457.144,848.468,455.752,851.575Z" transform="translate(-454.892 -847.546)" fill="#ad523f"/>
              </g>
            </g>
          </g>
          <path id="Trazado_24496" data-name="Trazado 24496" d="M455.192,862.341a6.624,6.624,0,1,0,5.8-10.823" transform="translate(-454.386 -840.843)" fill="none" stroke="#fcb807" stroke-miterlimit="10" stroke-width="0.75"/>
        </g>
        <g id="Grupo_15401" data-name="Grupo 15401" transform="translate(22.751 39.257)">
          <g id="Grupo_15400" data-name="Grupo 15400">
            <g id="Grupo_15399" data-name="Grupo 15399">
              <path id="Trazado_24497" data-name="Trazado 24497" d="M448.833,851.575c1.392,3.107,2.577,7.716-1.677,9.232-2.967,1.059-6.469-2.895-7.858-6s-.543-5.81,2.405-6.918S447.444,848.468,448.833,851.575Z" transform="translate(-438.645 -847.546)" fill="#dc927b"/>
            </g>
          </g>
          <path id="Trazado_24498" data-name="Trazado 24498" d="M439.749,849.111s3.609-.96,4.959,3.94" transform="translate(-436.782 -845.033)" fill="none" stroke="#ad523f" stroke-linecap="round" stroke-linejoin="round" stroke-width="0.484"/>
          <path id="Trazado_24499" data-name="Trazado 24499" d="M452.228,860.373a6.624,6.624,0,1,1-6.929-8.861" transform="translate(-437.399 -840.853)" fill="none" stroke="#fcb807" stroke-miterlimit="10" stroke-width="0.75"/>
        </g>
        <path id="Trazado_24500" data-name="Trazado 24500" d="M490.687,859.568c0,13.177-11,23.858-24.57,23.858s-26.01-11.221-26.01-24.4,12.441-23.32,26.01-23.32S490.687,846.391,490.687,859.568Z" transform="translate(-413.427 -828.261)" fill="#12263f"/>
        <g id="Grupo_15402" data-name="Grupo 15402" transform="translate(40.347 60.049)">
          <path id="Trazado_24501" data-name="Trazado 24501" d="M448.319,855.589l-3.126,29.775h18.519l-3.2-30.082Z" transform="translate(-445.192 -855.282)" fill="#dc927b"/>
          <path id="Trazado_24502" data-name="Trazado 24502" d="M446.2,858.167l14.389,12.74-1.572-14.977Z" transform="translate(-443.491 -854.19)" fill="#ad523f"/>
        </g>
        <g id="Grupo_15403" data-name="Grupo 15403" transform="translate(31.356 10.24)">
          <path id="Trazado_24503" data-name="Trazado 24503" d="M463.487,836.749h0c-11.492,0-21.64,8.888-21.64,19.853l.661,13.158s.239,18.655,17.945,24.331a9.991,9.991,0,0,0,6.066,0c17.708-5.676,17.945-24.331,17.945-24.331l.664-13.158C485.128,845.637,474.979,836.749,463.487,836.749Z" transform="translate(-441.847 -836.749)" fill="#dc927b"/>
        </g>
        <g id="Grupo_15405" data-name="Grupo 15405" transform="translate(37.793 28.539)">
          <path id="Trazado_24504" data-name="Trazado 24504" d="M449.316,852.955s.21,2.741,3.953,2.741,3.951-2.741,3.951-2.741Z" transform="translate(-435.679 -827.699)" fill="#fd5a62"/>
          <g id="Grupo_15404" data-name="Grupo 15404" transform="translate(17.945 17.64)">
            <path id="Trazado_24505" data-name="Trazado 24505" d="M452.66,850.121l.5,3.055-2.244.025" transform="translate(-450.919 -850.121)" fill="none" stroke="#ad523f" stroke-linecap="round" stroke-linejoin="round" stroke-width="0.484"/>
          </g>
          <path id="Trazado_24506" data-name="Trazado 24506" d="M450.488,843.83s-3.679.473-5.461,1.586a1.247,1.247,0,0,0,.255,2.389c1.217.406,3.838.14,5.394-.035,3.814-.435,6.343-1.852,6.1-3.029C456.457,843.223,452.493,843.47,450.488,843.83Z" transform="translate(-444.242 -843.558)" fill="#004061"/>
          <path id="Trazado_24507" data-name="Trazado 24507" d="M458.555,843.83a15.935,15.935,0,0,1,5.155,1.586,1.266,1.266,0,0,1-.242,2.389c-1.15.406-3.623.14-5.09-.035-3.6-.435-5.988-1.852-5.757-3.029C452.919,843.223,456.663,843.47,458.555,843.83Z" transform="translate(-430.129 -843.558)" fill="#004061"/>
          <path id="Trazado_24508" data-name="Trazado 24508" d="M457.22,853.513a9.2,9.2,0,0,0-7.9,0S453.648,855.362,457.22,853.513Z" transform="translate(-435.679 -828.257)" fill="#fd5a62"/>
          <path id="Trazado_24509" data-name="Trazado 24509" d="M448.979,852.828a10.751,10.751,0,0,0,9.589,0" transform="translate(-436.248 -827.914)" fill="none" stroke="#ad523f" stroke-linecap="round" stroke-linejoin="round" stroke-width="0.484"/>
        </g>
        <path id="Trazado_24510" data-name="Trazado 24510" d="M478.893,839.791s-1.01,10.4-12.736,12.051c-11.957,1.682-9.366,8.667-23.887,6.993,0,0-5.249-7.6,2.532-15.446,5.152-5.192,15.217-9.522,22.422-8.8C469.65,834.835,475.4,839.092,478.893,839.791Z" transform="translate(-412.7 -830.285)" fill="#12263f"/>
        <path id="Trazado_24511" data-name="Trazado 24511" d="M455.062,836.749s-7.442,7.493,13.19,21.068a14.3,14.3,0,0,0-1.333-8.635C464.689,844.814,455.062,836.749,455.062,836.749Z" transform="translate(-390.396 -826.509)" fill="#12263f"/>
      </g>
      <circle id="Elipse_850" data-name="Elipse 850" cx="1.613" cy="1.613" r="1.613" transform="translate(126.019 38.041)" fill="#004061"/>
      <circle id="Elipse_851" data-name="Elipse 851" cx="1.613" cy="1.613" r="1.613" transform="translate(144.34 38.041)" fill="#004061"/>
      <g id="Grupo_15407" data-name="Grupo 15407" transform="translate(114.343 77.453)">
        <path id="Trazado_24512" data-name="Trazado 24512" d="M459.852,878.461c-.777,0-1.543-.024-2.292-.073l.142-2.2a34.027,34.027,0,0,0,4.348,0l.145,2.2Q461.047,878.46,459.852,878.461Zm-6.9-.707a24.489,24.489,0,0,1-4.488-1.4l.865-2.027a22.346,22.346,0,0,0,4.085,1.269Zm13.857-.011-.473-2.153a22.575,22.575,0,0,0,4.082-1.279l.871,2.024A24.642,24.642,0,0,1,466.807,877.744Zm-22.465-3.94a6.506,6.506,0,0,1-2.349-4.674l2.2-.027a4.343,4.343,0,0,0,1.637,3.08Zm31.06-.035-1.5-1.615a4.274,4.274,0,0,0,1.607-3.088l2.2-.132v.169A6.446,6.446,0,0,1,475.4,873.769Zm-29.63-7.759-1.51-1.6a14.155,14.155,0,0,1,4.107-2.585l.879,2.021A12.1,12.1,0,0,0,445.772,866.01Zm28.066-.089a12.434,12.434,0,0,0-3.5-2.134l.86-2.029a14.647,14.647,0,0,1,4.128,2.532Z" transform="translate(-441.993 -861.758)" fill="#ff5953" stroke="#ff5953" stroke-width="2"/>
      </g>
      <g id="Grupo_15408" data-name="Grupo 15408" transform="translate(169.849 225.726)">
        <path id="Trazado_24513" data-name="Trazado 24513" d="M478.073,931.352c-.672,0-1.333-.019-1.981-.062l.124-1.9a29.124,29.124,0,0,0,3.754-.005l.126,1.9Q479.1,931.353,478.073,931.352Zm-5.964-.61a21.412,21.412,0,0,1-3.875-1.207l.75-1.749a19.4,19.4,0,0,0,3.526,1.094Zm11.968-.008-.406-1.86a19.419,19.419,0,0,0,3.523-1.107l.755,1.749A21.27,21.27,0,0,1,484.077,930.734Zm-19.4-3.4a5.627,5.627,0,0,1-2.032-4.039l1.906-.021a3.736,3.736,0,0,0,1.414,2.658ZM491.5,927.3l-1.3-1.395a3.688,3.688,0,0,0,1.387-2.666l1.9-.116v.148A5.55,5.55,0,0,1,491.5,927.3Zm-25.588-6.7-1.3-1.387a12.274,12.274,0,0,1,3.545-2.233l.758,1.747A10.4,10.4,0,0,0,465.911,920.6Zm24.239-.075a10.753,10.753,0,0,0-3.029-1.846l.744-1.749a12.513,12.513,0,0,1,3.564,2.185Z" transform="translate(-462.646 -916.928)" fill="#ff5953" stroke="#ff5953" stroke-width="2"/>
      </g>
      <g id="Grupo_15409" data-name="Grupo 15409" transform="translate(100.929 167.505)">
        <path id="Trazado_24514" data-name="Trazado 24514" d="M468.57,919.783q-1.088,0-2.161-.037l.075-2.215c1.4.051,2.849.051,4.246,0l.081,2.212Q469.7,919.784,468.57,919.783Zm-6.555-.347c-1.47-.156-2.94-.368-4.367-.634l.4-2.177c1.373.255,2.784.462,4.2.61Zm13.191,0-.234-2.2c1.411-.15,2.822-.357,4.193-.615l.408,2.177C478.146,919.058,476.676,919.276,475.206,919.434Zm-21.869-1.626a42.119,42.119,0,0,1-4.214-1.408l.82-2.059a39.613,39.613,0,0,0,3.991,1.336Zm30.542-.021-.6-2.131a39.156,39.156,0,0,0,3.988-1.344l.82,2.059A41.99,41.99,0,0,1,483.878,917.787Zm-38.795-3.3a22.7,22.7,0,0,1-3.728-2.6l1.454-1.669a20.625,20.625,0,0,0,3.362,2.336Zm47.046-.04-1.094-1.924a20.441,20.441,0,0,0,3.352-2.352l1.459,1.666A22.793,22.793,0,0,1,492.129,914.443Zm-53.8-6.112a9.377,9.377,0,0,1-1.33-4.647l2.214-.021a7.169,7.169,0,0,0,1.032,3.556Zm60.519-.073-1.924-1.1a7.133,7.133,0,0,0,1-3.561l2.212-.169,0,.083A9.365,9.365,0,0,1,498.851,908.259ZM440.184,900.1l-1.932-1.086a14.064,14.064,0,0,1,2.986-3.593l1.465,1.661A11.835,11.835,0,0,0,440.184,900.1Zm56.681-.169a12.27,12.27,0,0,0-2.583-2.986l1.449-1.677a14.452,14.452,0,0,1,3.037,3.537Z" transform="translate(-437.002 -895.265)" fill="#f47a75" stroke="#f47a75" stroke-width="2"/>
      </g>
    </g>
  </g>
</svg>
