<svg xmlns="http://www.w3.org/2000/svg" width="137" height="137" viewBox="0 0 137 137">
  <g id="Grupo_1069668" data-name="Grupo 1069668" transform="translate(-368.155 -6653.426)">
    <g id="Grupo_1069667" data-name="Grupo 1069667">
      <g id="Grupo_1069666" data-name="Grupo 1069666">
        <g id="Grupo_1069665" data-name="Grupo 1069665">
          <g id="Grupo_1069664" data-name="Grupo 1069664">
            <g id="Grupo_1069663" data-name="Grupo 1069663">
              <g id="Grupo_1060927" data-name="Grupo 1060927" transform="translate(-54 -560.161)">
                <g id="Grupo_1069662" data-name="Grupo 1069662">
                  <g id="Grupo_1069661" data-name="Grupo 1069661">
                    <g id="Grupo_1060918" data-name="Grupo 1060918" transform="translate(-980.846 17923.586)">
                      <circle id="Elipse_4802" data-name="Elipse 4802" cx="68.5" cy="68.5" r="68.5" transform="translate(1403 -10710)" fill="#673ab7"/>
                    </g>
                  </g>
                </g>
                <path id="Trazado_816237" data-name="Trazado 816237" d="M15.514,12.865a7.546,7.546,0,0,1-.694,3.313A5.132,5.132,0,0,1,12.847,18.4a5.494,5.494,0,0,1-2.914.778,5.572,5.572,0,0,1-2.9-.751A5.123,5.123,0,0,1,5.06,16.275a7.329,7.329,0,0,1-.743-3.208v-.721a7.58,7.58,0,0,1,.69-3.318A5.119,5.119,0,0,1,6.984,6.81a5.533,5.533,0,0,1,2.931-.782,5.479,5.479,0,0,1,2.9.773A5.211,5.211,0,0,1,14.8,9a7.362,7.362,0,0,1,.716,3.274Zm-3.138-.536a5.381,5.381,0,0,0-.637-2.9,2.044,2.044,0,0,0-1.824-.989q-2.32,0-2.452,3.48l-.009.94a5.535,5.535,0,0,0,.624,2.892,2.041,2.041,0,0,0,1.854,1.011,2.016,2.016,0,0,0,1.8-.993,5.383,5.383,0,0,0,.642-2.856Zm9.571,4a.684.684,0,0,0-.4-.606,6.016,6.016,0,0,0-1.5-.475,6.853,6.853,0,0,1-1.828-.646,3.062,3.062,0,0,1-1.1-.971,2.319,2.319,0,0,1-.378-1.31,2.628,2.628,0,0,1,1.081-2.158,4.453,4.453,0,0,1,2.83-.848,4.934,4.934,0,0,1,3.023.853,2.666,2.666,0,0,1,1.143,2.241H21.851q0-1.143-1.2-1.143a1.194,1.194,0,0,0-.782.259.8.8,0,0,0-.316.646.737.737,0,0,0,.387.642,3.654,3.654,0,0,0,1.235.4,10.671,10.671,0,0,1,1.49.378A2.706,2.706,0,0,1,24.8,16.24a2.491,2.491,0,0,1-1.156,2.118,5.068,5.068,0,0,1-2.993.817,5.172,5.172,0,0,1-2.18-.439,3.645,3.645,0,0,1-1.494-1.2,2.707,2.707,0,0,1-.536-1.591h2.769a1.145,1.145,0,0,0,.439.962,1.808,1.808,0,0,0,1.081.3,1.422,1.422,0,0,0,.91-.246A.787.787,0,0,0,21.948,16.328Zm8.262.563a1.317,1.317,0,0,0,.967-.338,1.241,1.241,0,0,0,.334-.945h2.777a3.288,3.288,0,0,1-1.121,2.566,4.168,4.168,0,0,1-2.887,1,4.22,4.22,0,0,1-3.27-1.3,5.125,5.125,0,0,1-1.2-3.6v-.123a5.792,5.792,0,0,1,.532-2.544,3.872,3.872,0,0,1,1.534-1.7,4.573,4.573,0,0,1,2.373-.593A4.116,4.116,0,0,1,33.2,10.343a3.647,3.647,0,0,1,1.09,2.786H31.51A1.626,1.626,0,0,0,31.15,12a1.244,1.244,0,0,0-.967-.4q-1.151,0-1.345,1.468a10.357,10.357,0,0,0-.062,1.283,4.068,4.068,0,0,0,.343,1.986A1.187,1.187,0,0,0,30.209,16.891ZM38.665,19H35.694V9.49h2.971ZM35.518,7.038A1.322,1.322,0,0,1,35.975,6a1.943,1.943,0,0,1,2.373,0,1.322,1.322,0,0,1,.457,1.037,1.322,1.322,0,0,1-.457,1.037,1.943,1.943,0,0,1-2.373,0A1.322,1.322,0,0,1,35.518,7.038ZM43.613,19H40.642V5.5h2.971Zm7.181,0a3.344,3.344,0,0,1-.281-.853,2.754,2.754,0,0,1-2.285,1.028,3.374,3.374,0,0,1-2.285-.813A2.588,2.588,0,0,1,45,16.319a2.66,2.66,0,0,1,1.143-2.338,5.821,5.821,0,0,1,3.322-.791h.914v-.5q0-1.31-1.134-1.31a.925.925,0,0,0-1.055,1.037H45.23A2.659,2.659,0,0,1,46.4,10.176,4.927,4.927,0,0,1,49.4,9.314a4.323,4.323,0,0,1,2.874.888,3.086,3.086,0,0,1,1.081,2.435v4.21a4.311,4.311,0,0,0,.4,2V19Zm-1.854-1.934a1.652,1.652,0,0,0,.918-.237,1.487,1.487,0,0,0,.523-.536V14.772h-.861q-1.547,0-1.547,1.389a.848.848,0,0,0,.272.655A.986.986,0,0,0,48.939,17.066ZM57.71,9.49l.1,1.116a3.225,3.225,0,0,1,2.716-1.292,2.713,2.713,0,0,1,2.219.888,4.226,4.226,0,0,1,.76,2.672V19H60.532V13a1.6,1.6,0,0,0-.29-1.059,1.342,1.342,0,0,0-1.055-.338,1.413,1.413,0,0,0-1.292.686V19H54.933V9.49ZM68.591,7.126V9.49h1.564v2.057H68.591V15.9a1.111,1.111,0,0,0,.193.747,1.037,1.037,0,0,0,.765.211,4.345,4.345,0,0,0,.738-.053v2.118a5.466,5.466,0,0,1-1.67.255,3.1,3.1,0,0,1-2.259-.721,2.954,2.954,0,0,1-.729-2.188v-4.72H64.417V9.49h1.213V7.126Zm7.33,12.05a4.889,4.889,0,0,1-3.542-1.305,4.507,4.507,0,0,1-1.354-3.4v-.246a5.84,5.84,0,0,1,.541-2.575,3.955,3.955,0,0,1,1.578-1.727A4.763,4.763,0,0,1,75.6,9.314a4.117,4.117,0,0,1,3.164,1.244,4.887,4.887,0,0,1,1.16,3.467v1.151H74.041a2.135,2.135,0,0,0,.694,1.257,2.066,2.066,0,0,0,1.389.457,2.662,2.662,0,0,0,2.2-.984l1.354,1.6a3.784,3.784,0,0,1-1.569,1.217A5.3,5.3,0,0,1,75.921,19.176ZM75.587,11.6q-1.3,0-1.547,1.723h2.988v-.229a1.467,1.467,0,0,0-.36-1.1A1.434,1.434,0,0,0,75.587,11.6ZM16.072,41.328a.684.684,0,0,0-.4-.606,6.016,6.016,0,0,0-1.5-.475,6.853,6.853,0,0,1-1.828-.646,3.062,3.062,0,0,1-1.1-.971,2.319,2.319,0,0,1-.378-1.31,2.628,2.628,0,0,1,1.081-2.158,4.453,4.453,0,0,1,2.83-.848,4.934,4.934,0,0,1,3.023.853,2.666,2.666,0,0,1,1.143,2.241H15.976q0-1.143-1.2-1.143a1.194,1.194,0,0,0-.782.259.8.8,0,0,0-.316.646.737.737,0,0,0,.387.642,3.654,3.654,0,0,0,1.235.4,10.671,10.671,0,0,1,1.49.378,2.706,2.706,0,0,1,2.145,2.646,2.491,2.491,0,0,1-1.156,2.118,5.068,5.068,0,0,1-2.993.817,5.172,5.172,0,0,1-2.18-.439,3.645,3.645,0,0,1-1.494-1.2,2.707,2.707,0,0,1-.536-1.591h2.769a1.145,1.145,0,0,0,.439.962,1.808,1.808,0,0,0,1.081.3,1.422,1.422,0,0,0,.91-.246A.787.787,0,0,0,16.072,41.328Zm8.842,2.848a4.889,4.889,0,0,1-3.542-1.305,4.507,4.507,0,0,1-1.354-3.4v-.246a5.84,5.84,0,0,1,.541-2.575,3.955,3.955,0,0,1,1.578-1.727,4.763,4.763,0,0,1,2.461-.611,4.117,4.117,0,0,1,3.164,1.244,4.887,4.887,0,0,1,1.16,3.467v1.151H23.033a2.135,2.135,0,0,0,.694,1.257,2.066,2.066,0,0,0,1.389.457,2.662,2.662,0,0,0,2.2-.984l1.354,1.6A3.784,3.784,0,0,1,27.1,43.723,5.3,5.3,0,0,1,24.914,44.176ZM24.58,36.6q-1.3,0-1.547,1.723h2.988v-.229a1.467,1.467,0,0,0-.36-1.1A1.434,1.434,0,0,0,24.58,36.6Zm8.253-2.109.1,1.116a3.225,3.225,0,0,1,2.716-1.292,2.713,2.713,0,0,1,2.219.888,4.226,4.226,0,0,1,.76,2.672V44H35.654V38a1.6,1.6,0,0,0-.29-1.059A1.342,1.342,0,0,0,34.31,36.6a1.413,1.413,0,0,0-1.292.686V44H30.056V34.49Zm11.452,7.4a1.317,1.317,0,0,0,.967-.338,1.241,1.241,0,0,0,.334-.945h2.777a3.288,3.288,0,0,1-1.121,2.566,4.168,4.168,0,0,1-2.887,1,4.22,4.22,0,0,1-3.27-1.3,5.125,5.125,0,0,1-1.2-3.6v-.123a5.792,5.792,0,0,1,.532-2.544,3.872,3.872,0,0,1,1.534-1.7,4.573,4.573,0,0,1,2.373-.593,4.116,4.116,0,0,1,2.944,1.028,3.647,3.647,0,0,1,1.09,2.786H45.586A1.626,1.626,0,0,0,45.226,37a1.244,1.244,0,0,0-.967-.4q-1.151,0-1.345,1.468a10.357,10.357,0,0,0-.062,1.283,4.068,4.068,0,0,0,.343,1.986A1.187,1.187,0,0,0,44.285,41.891ZM52.74,44H49.77V34.49H52.74ZM49.594,32.038A1.322,1.322,0,0,1,50.051,31a1.943,1.943,0,0,1,2.373,0,1.405,1.405,0,0,1,0,2.074,1.943,1.943,0,0,1-2.373,0A1.322,1.322,0,0,1,49.594,32.038ZM57.688,44H54.718V30.5h2.971Zm4.948,0H59.666V30.5h2.971Zm1.45-4.843a5.613,5.613,0,0,1,.554-2.536,3.96,3.96,0,0,1,1.591-1.709,4.791,4.791,0,0,1,2.435-.6,4.373,4.373,0,0,1,3.366,1.323,5.076,5.076,0,0,1,1.23,3.6v.105a4.925,4.925,0,0,1-1.235,3.529,4.384,4.384,0,0,1-3.344,1.305,4.434,4.434,0,0,1-3.261-1.217,4.761,4.761,0,0,1-1.327-3.3Zm2.962.185a3.538,3.538,0,0,0,.413,1.934,1.376,1.376,0,0,0,1.222.615q1.582,0,1.617-2.435v-.3q0-2.558-1.635-2.558-1.485,0-1.608,2.206Z" transform="translate(449.155 7258.587)" fill="#fff"/>
              </g>
            </g>
          </g>
        </g>
      </g>
    </g>
  </g>
</svg>
