<svg xmlns="http://www.w3.org/2000/svg" width="137" height="137" viewBox="0 0 137 137">
  <g id="Grupo_1069676" data-name="Grupo 1069676" transform="translate(-1831.328 4879.161)">
    <g id="Grupo_1069675" data-name="Grupo 1069675">
      <g id="Grupo_1069674" data-name="Grupo 1069674">
        <g id="Grupo_1069673" data-name="Grupo 1069673">
          <g id="Grupo_1060919" data-name="Grupo 1060919" transform="translate(1831.328 -4879.161)">
            <g id="Grupo_1060917" data-name="Grupo 1060917">
              <circle id="Elipse_4802" data-name="Elipse 4802" cx="68.5" cy="68.5" r="68.5" fill="#673ab7"/>
            </g>
            <path id="Trazado_816240" data-name="Trazado 816240" d="M15.284,16.609H11.056L10.318,19h-3.3L11.715,6.2h2.9L19.344,19H16.031Zm-3.489-2.382h2.751l-1.38-4.438ZM23.264,19H20.293V5.5h2.971Zm4.948,0H25.242V9.49h2.971ZM25.066,7.038A1.322,1.322,0,0,1,25.523,6,1.943,1.943,0,0,1,27.9,6a1.322,1.322,0,0,1,.457,1.037A1.322,1.322,0,0,1,27.9,8.075a1.943,1.943,0,0,1-2.373,0A1.322,1.322,0,0,1,25.066,7.038Zm7.77,2.452.1,1.116a3.27,3.27,0,0,1,2.716-1.292,2.407,2.407,0,0,1,2.435,1.433,3.165,3.165,0,0,1,2.795-1.433q2.892,0,2.971,3.5V19H40.877V13a1.813,1.813,0,0,0-.246-1.063,1.048,1.048,0,0,0-.9-.334,1.4,1.4,0,0,0-1.31.782l.009.123V19H35.463V13.015a1.906,1.906,0,0,0-.237-1.081,1.045,1.045,0,0,0-.905-.334,1.42,1.42,0,0,0-1.3.782V19H30.058V9.49Zm17.306,9.686A4.889,4.889,0,0,1,46.6,17.871a4.507,4.507,0,0,1-1.354-3.4v-.246a5.84,5.84,0,0,1,.541-2.575,3.955,3.955,0,0,1,1.578-1.727,4.763,4.763,0,0,1,2.461-.611,4.117,4.117,0,0,1,3.164,1.244,4.887,4.887,0,0,1,1.16,3.467v1.151H48.26a2.135,2.135,0,0,0,.694,1.257,2.066,2.066,0,0,0,1.389.457,2.662,2.662,0,0,0,2.2-.984l1.354,1.6a3.784,3.784,0,0,1-1.569,1.217A5.3,5.3,0,0,1,50.141,19.176ZM49.807,11.6q-1.3,0-1.547,1.723h2.988v-.229a1.467,1.467,0,0,0-.36-1.1A1.434,1.434,0,0,0,49.807,11.6ZM58.06,9.49l.1,1.116a3.225,3.225,0,0,1,2.716-1.292,2.713,2.713,0,0,1,2.219.888,4.226,4.226,0,0,1,.76,2.672V19H60.881V13a1.6,1.6,0,0,0-.29-1.059,1.342,1.342,0,0,0-1.055-.338,1.413,1.413,0,0,0-1.292.686V19H55.283V9.49ZM68.941,7.126V9.49h1.564v2.057H68.941V15.9a1.111,1.111,0,0,0,.193.747,1.037,1.037,0,0,0,.765.211,4.345,4.345,0,0,0,.738-.053v2.118a5.466,5.466,0,0,1-1.67.255,3.1,3.1,0,0,1-2.259-.721,2.954,2.954,0,0,1-.729-2.188v-4.72H64.766V9.49h1.213V7.126ZM77.027,19a3.344,3.344,0,0,1-.281-.853,2.754,2.754,0,0,1-2.285,1.028,3.374,3.374,0,0,1-2.285-.813,2.588,2.588,0,0,1-.94-2.043,2.66,2.66,0,0,1,1.143-2.338A5.821,5.821,0,0,1,75.7,13.19h.914v-.5q0-1.31-1.134-1.31a.925.925,0,0,0-1.055,1.037H71.463a2.659,2.659,0,0,1,1.173-2.241,4.927,4.927,0,0,1,2.993-.861A4.323,4.323,0,0,1,78.5,10.2a3.086,3.086,0,0,1,1.081,2.435v4.21a4.311,4.311,0,0,0,.4,2V19Zm-1.854-1.934a1.652,1.652,0,0,0,.918-.237,1.487,1.487,0,0,0,.523-.536V14.772h-.861q-1.547,0-1.547,1.389a.848.848,0,0,0,.272.655A.986.986,0,0,0,75.172,17.066Zm10.072-.176a1.317,1.317,0,0,0,.967-.338,1.241,1.241,0,0,0,.334-.945h2.777A3.288,3.288,0,0,1,88.2,18.174a4.168,4.168,0,0,1-2.887,1,4.22,4.22,0,0,1-3.27-1.3,5.125,5.125,0,0,1-1.2-3.6v-.123a5.792,5.792,0,0,1,.532-2.544,3.872,3.872,0,0,1,1.534-1.7,4.573,4.573,0,0,1,2.373-.593,4.116,4.116,0,0,1,2.944,1.028,3.647,3.647,0,0,1,1.09,2.786H86.545A1.626,1.626,0,0,0,86.185,12a1.244,1.244,0,0,0-.967-.4q-1.151,0-1.345,1.468a10.357,10.357,0,0,0-.062,1.283,4.068,4.068,0,0,0,.343,1.986A1.187,1.187,0,0,0,85.245,16.891ZM93.7,19H90.729V9.49H93.7ZM90.553,7.038A1.322,1.322,0,0,1,91.01,6a1.943,1.943,0,0,1,2.373,0,1.322,1.322,0,0,1,.457,1.037,1.322,1.322,0,0,1-.457,1.037,1.943,1.943,0,0,1-2.373,0A1.322,1.322,0,0,1,90.553,7.038Zm4.6,7.119a5.613,5.613,0,0,1,.554-2.536,3.96,3.96,0,0,1,1.591-1.709,4.791,4.791,0,0,1,2.435-.6,4.373,4.373,0,0,1,3.366,1.323,5.076,5.076,0,0,1,1.23,3.6v.105a4.925,4.925,0,0,1-1.235,3.529,4.384,4.384,0,0,1-3.344,1.305,4.434,4.434,0,0,1-3.261-1.217,4.761,4.761,0,0,1-1.327-3.3Zm2.962.185a3.538,3.538,0,0,0,.413,1.934,1.376,1.376,0,0,0,1.222.615q1.582,0,1.617-2.435v-.3q0-2.558-1.635-2.558-1.485,0-1.608,2.206ZM100.133,5.5h3.129l-2.443,2.76H98.4Zm8.218,3.99.1,1.116a3.225,3.225,0,0,1,2.716-1.292,2.713,2.713,0,0,1,2.219.888,4.226,4.226,0,0,1,.76,2.672V19h-2.971V13a1.6,1.6,0,0,0-.29-1.059,1.342,1.342,0,0,0-1.055-.338,1.413,1.413,0,0,0-1.292.686V19h-2.962V9.49ZM11.4,39.315a5.735,5.735,0,0,1-1,3.538,3.2,3.2,0,0,1-2.694,1.323,2.742,2.742,0,0,1-2.153-.958v4.438H2.6V34.49H5.365l.088.879a2.742,2.742,0,0,1,2.241-1.055,3.224,3.224,0,0,1,2.733,1.3,5.805,5.805,0,0,1,.976,3.564Zm-2.962-.185q0-2.531-1.477-2.531a1.394,1.394,0,0,0-1.406.756V41.1a1.439,1.439,0,0,0,1.424.791q1.415,0,1.459-2.443Zm3.894.026a5.613,5.613,0,0,1,.554-2.536,3.96,3.96,0,0,1,1.591-1.709,4.791,4.791,0,0,1,2.435-.6,4.373,4.373,0,0,1,3.366,1.323,5.076,5.076,0,0,1,1.23,3.6v.105a4.925,4.925,0,0,1-1.235,3.529,4.384,4.384,0,0,1-3.344,1.305,4.434,4.434,0,0,1-3.261-1.217,4.761,4.761,0,0,1-1.327-3.3Zm2.962.185a3.538,3.538,0,0,0,.413,1.934,1.376,1.376,0,0,0,1.222.615q1.582,0,1.617-2.435v-.3q0-2.558-1.635-2.558-1.485,0-1.608,2.206Zm13.271-2.171-.976-.07a1.752,1.752,0,0,0-1.793.879V44H22.838V34.49h2.777l.1,1.222a2.294,2.294,0,0,1,2.083-1.4,2.888,2.888,0,0,1,.826.105Zm5.177,2a5.809,5.809,0,0,1,.976-3.56,3.211,3.211,0,0,1,2.725-1.3,2.731,2.731,0,0,1,2.145,1V30.5h2.971V44H39.9l-.149-1.02a2.8,2.8,0,0,1-2.32,1.2,3.205,3.205,0,0,1-2.689-1.3A5.993,5.993,0,0,1,33.745,39.175Zm2.962.185q0,2.531,1.477,2.531a1.458,1.458,0,0,0,1.406-.826V37.443A1.419,1.419,0,0,0,38.2,36.6q-1.371,0-1.485,2.215ZM47.368,44H44.4V34.49h2.971ZM44.222,32.038A1.322,1.322,0,0,1,44.679,31a1.943,1.943,0,0,1,2.373,0,1.405,1.405,0,0,1,0,2.074,1.943,1.943,0,0,1-2.373,0A1.322,1.322,0,0,1,44.222,32.038ZM49.847,44V36.547h-1.38V34.49h1.38v-.756a3.286,3.286,0,0,1,.958-2.522,3.785,3.785,0,0,1,2.689-.9,5.889,5.889,0,0,1,1.389.185l.009,2.18a2.706,2.706,0,0,0-.729-.079q-1.345,0-1.345,1.16v.729h1.854v2.057H52.817V44Zm10.468.176a4.889,4.889,0,0,1-3.542-1.305,4.507,4.507,0,0,1-1.354-3.4v-.246a5.84,5.84,0,0,1,.541-2.575,3.955,3.955,0,0,1,1.578-1.727A4.763,4.763,0,0,1,60,34.314a4.117,4.117,0,0,1,3.164,1.244,4.887,4.887,0,0,1,1.16,3.467v1.151H58.434a2.135,2.135,0,0,0,.694,1.257,2.066,2.066,0,0,0,1.389.457,2.662,2.662,0,0,0,2.2-.984l1.354,1.6A3.784,3.784,0,0,1,62.5,43.723,5.3,5.3,0,0,1,60.314,44.176ZM59.98,36.6q-1.3,0-1.547,1.723h2.988v-.229a1.467,1.467,0,0,0-.36-1.1A1.434,1.434,0,0,0,59.98,36.6Zm11.285.571-.976-.07a1.752,1.752,0,0,0-1.793.879V44H65.535V34.49h2.777l.1,1.222a2.294,2.294,0,0,1,2.083-1.4,2.888,2.888,0,0,1,.826.105Zm5.669,7a4.889,4.889,0,0,1-3.542-1.305,4.507,4.507,0,0,1-1.354-3.4v-.246a5.84,5.84,0,0,1,.541-2.575,3.955,3.955,0,0,1,1.578-1.727,4.763,4.763,0,0,1,2.461-.611,4.117,4.117,0,0,1,3.164,1.244,4.887,4.887,0,0,1,1.16,3.467v1.151H75.054a2.135,2.135,0,0,0,.694,1.257,2.066,2.066,0,0,0,1.389.457,2.662,2.662,0,0,0,2.2-.984l1.354,1.6a3.784,3.784,0,0,1-1.569,1.217A5.3,5.3,0,0,1,76.935,44.176ZM76.6,36.6q-1.3,0-1.547,1.723h2.988v-.229a1.467,1.467,0,0,0-.36-1.1A1.434,1.434,0,0,0,76.6,36.6Zm8.253-2.109.1,1.116a3.225,3.225,0,0,1,2.716-1.292,2.713,2.713,0,0,1,2.219.888,4.226,4.226,0,0,1,.76,2.672V44H87.675V38a1.6,1.6,0,0,0-.29-1.059A1.342,1.342,0,0,0,86.33,36.6a1.413,1.413,0,0,0-1.292.686V44H82.076V34.49Zm11.452,7.4a1.317,1.317,0,0,0,.967-.338,1.241,1.241,0,0,0,.334-.945h2.777a3.288,3.288,0,0,1-1.121,2.566,4.168,4.168,0,0,1-2.887,1,4.22,4.22,0,0,1-3.27-1.3,5.125,5.125,0,0,1-1.2-3.6v-.123a5.792,5.792,0,0,1,.532-2.544,3.872,3.872,0,0,1,1.534-1.7,4.573,4.573,0,0,1,2.373-.593,4.116,4.116,0,0,1,2.944,1.028,3.647,3.647,0,0,1,1.09,2.786H97.606A1.626,1.626,0,0,0,97.246,37a1.244,1.244,0,0,0-.967-.4q-1.151,0-1.345,1.468a10.357,10.357,0,0,0-.062,1.283,4.068,4.068,0,0,0,.343,1.986A1.187,1.187,0,0,0,96.306,41.891ZM104.761,44H101.79V34.49h2.971Zm-3.146-11.962A1.322,1.322,0,0,1,102.071,31a1.943,1.943,0,0,1,2.373,0,1.405,1.405,0,0,1,0,2.074,1.943,1.943,0,0,1-2.373,0A1.322,1.322,0,0,1,101.614,32.038ZM111.941,44a3.344,3.344,0,0,1-.281-.853,2.754,2.754,0,0,1-2.285,1.028,3.374,3.374,0,0,1-2.285-.813,2.588,2.588,0,0,1-.94-2.043,2.66,2.66,0,0,1,1.143-2.338,5.821,5.821,0,0,1,3.322-.791h.914v-.5q0-1.31-1.134-1.31a.925.925,0,0,0-1.055,1.037h-2.962a2.659,2.659,0,0,1,1.173-2.241,4.927,4.927,0,0,1,2.993-.861,4.323,4.323,0,0,1,2.874.888,3.086,3.086,0,0,1,1.081,2.435v4.21a4.311,4.311,0,0,0,.4,2V44Zm-1.854-1.934a1.652,1.652,0,0,0,.918-.237,1.487,1.487,0,0,0,.523-.536V39.772h-.861q-1.547,0-1.547,1.389a.848.848,0,0,0,.272.655A.986.986,0,0,0,110.087,42.066ZM119.263,44h-2.971V30.5h2.971Z" transform="translate(8 45)" fill="#fff"/>
          </g>
        </g>
      </g>
    </g>
  </g>
</svg>
