<svg xmlns="http://www.w3.org/2000/svg" xmlns:xlink="http://www.w3.org/1999/xlink" width="571.58" height="265" viewBox="0 0 571.58 265">
  <defs>
    <clipPath id="clip-path">
      <rect id="Rectángulo_362080" data-name="Rectángulo 362080" width="571.58" height="216.017" fill="rgba(0,0,0,0)"/>
    </clipPath>
  </defs>
  <g id="Grupo_1078836" data-name="Grupo 1078836" transform="translate(-195.687 -8847.75)">
    <g id="Grupo_1054880" data-name="Grupo 1054880" transform="translate(195.687 8847.75)">
      <g id="Grupo_1054879" data-name="Grupo 1054879" transform="translate(0 0)" clip-path="url(#clip-path)">
        <path id="Trazado_772354" data-name="Trazado 772354" d="M105.792,216.018a30.367,30.367,0,0,1-3.076-2.228c-2.035-1.885-1.887-4.365.349-6.05,2.115-1.593,2.243-3.922,2.593-6.231,1.043-6.9-.565-13.545-2.542-19.963-2.792-9.062-4.8-18.172-4.985-27.663a3.593,3.593,0,0,0-.281-1.548c-2.5-4.792-3.771-10.1-6.109-14.91-2.132-4.384-4.132-8.8-5.852-13.343-1.729-4.561-2.462-9.385-3.3-14.768-1.244,2.248-1.037,4.278-1.331,6.132-1.642,10.367-1.812,20.844-2.165,31.308-.118,3.541,1.929,6.441,2.554,9.771,1.557,8.269-1.284,15.917-3.267,23.635-1.3,5.084-2.683,10.158-1.48,15.294a37,37,0,0,1,.944,8.751c-.024,4.641-.653,5.347-5.218,5.564a9.561,9.561,0,0,0-6.1,2.278c-4.311,3.725-9.169,3.256-14.075,1.52-2.587-.916-2.177-3.411-2.335-5.42-.142-1.79,1.522-1.741,2.728-1.953,2.959-.516,4.8-2.419,6.973-4.412,5.918-5.421,7.072-11.875,6.7-19.44-.36-7.265-.358-14.568-.62-21.852a28.048,28.048,0,0,1,.252-3.79,17.723,17.723,0,0,0-.384-7.543c-.69-2.05-1.6-3.932-.334-6.309.785-1.472.384-3.689-.5-5.239-3-5.248-3.011-11.2-3.35-16.8-.441-7.329-1.312-14.881.45-22.125,1.826-7.51,2.238-15.354,6.1-22.455,1.9-3.491.987-8.068,1.126-12.169a1.117,1.117,0,0,0-.712-.844,1.3,1.3,0,0,0-.914.693,5.893,5.893,0,0,0-.825,2.365c.045,6.028-3.341,10.547-6.514,15.171a4.519,4.519,0,0,1-.407.488c-3.357,3.639-4.921,7.519-2.579,12.473,1.849,3.911,1.225,8.125.047,12.116-.356,1.206.292,2.344-.254,3.354-.838,1.552-.933,3.522-3.507,3.922-3.228.5-5.166-1.143-6.636-3.312a12.158,12.158,0,0,1-1.769-8.745c1.425-11.07,5.15-21.543,7.885-32.269.593-2.328,2.165-4.106,3.562-5.948a16.09,16.09,0,0,0,3.545-8.643,41.262,41.262,0,0,1,1.8-8.035c.942-3.227,2-6.175.857-9.812-1.326-4.207,2.617-8.414,7.119-8.427,1.053,0,2.108.163,3.161.252,3.234.273,3.456-.339,3.105-3.425-.582-5.135-2.792-10.042-2.115-15.336.521-4.082,1.937-7.578,6.115-9.234C87.8-2.153,94.774,3.112,93.691,11.207c-.6,4.514.8,8.808.9,13.227.007.382.238.99.518,1.1,3.823,1.479,6.433,5.282,10.879,5.578a8.88,8.88,0,0,1,7.9,10.358,14.191,14.191,0,0,0,1.093,7.672c1.583,3.924,2.155,8.148,3.072,12.275a95.219,95.219,0,0,1,1.9,22.358c-.122,7.574-.233,15.149-2.579,22.535-.85,2.676-1.708,5.39-2.408,8.12-.738,2.881-2.391,4.179-5.229,3.891-2.631-.268-3.55.916-3.1,3.321,1.451,7.712,1.613,15.562,2.61,23.319a27.408,27.408,0,0,0,2.954,8.688c3.453,6.864,3.974,13.995,3.576,21.581a56.6,56.6,0,0,0,1.432,15.336c1.484,6.6,4.294,13.308,2.28,20.344a10.45,10.45,0,0,1-3.533,5.11ZM105.778,183c-1.668-9.336-3.807-18.58-5.241-27.962-.584,9.774,1.6,19.008,5.26,27.948.754,3.407,1.91,6.785,2.174,10.233.421,5.522-.586,10.877-4.141,15.406-.65.829-1.237,1.517-.546,2.49a6.779,6.779,0,0,0,7.607,2.66c2.65-.66,5.765-.525,6.709-4.572,1.361-5.845-1.1-10.97-1.951-16.4-.73-4.667-1.835-9.209-1.289-14.12.659-5.934.928-11.988-1.642-17.805-2.184-4.942-4.544-9.864-5.147-15.39-.752-6.895-3.2-13.6-2.04-20.716a12.678,12.678,0,0,0-.818-6.554,27.4,27.4,0,0,1-2.247-10.017,15.842,15.842,0,0,0-1.279-6.172c-1.143-2.74-1.672-5.677-2.556-8.487-1.9-6.049-2.283-12.431-4.528-18.424-1.348-3.6-1.3-8.165.813-11.053,2.954-4.04,4.325-8.622,6.527-12.89.9-1.738.344-3.1-1.138-4.46-1.652-1.512-2.627-.643-4.033.3C91.8,50,86.9,49.859,83.658,46.617c1.6.264,2.926.526,4.264.7a8.01,8.01,0,0,0,7.267-2.29c1.241-1.329,2.264-3.069,4.431-2.014,2.5,1.216,4.627,3.359,4.532,6.014-.235,6.487,1.983,11.882,5.468,17.15.911,1.376,5.249,3.418.69,5.854-.2.106-.195.584-.285.888a22.857,22.857,0,0,0-.733,10.047c.6,3.974.838,8.042,1.877,11.9,1.027,3.812,0,5.712-3.59,7.251-3.7,1.588-4.45,4.692-2.414,8.426-.46-2.947,3.434-2.169,3.5-4.791-.191,3.508,3.025,7.361-1.376,10.2,3,1.3,4.921.914,5.656-1.253,1.729-5.1,3.437-10.182,3.753-15.668a68.114,68.114,0,0,1,1.75-10.632c.648-2.949.415-5.88.5-8.834.231-7.7-2.615-14.891-3.432-22.422-.7-6.474-4.089-12.351-4.4-19.03a5.754,5.754,0,0,0-6.026-5.5c-4.579-.03-7.27-3.4-10.685-5.482-1.131-.69-1.34-2.056-1.475-3.373a87.234,87.234,0,0,1-.6-13.91c.332-5.778-2.787-8.631-8.537-8.417s-7.4,4.017-7.673,9.284c-.038.735.024,1.609,1.023,1.673s1.161-.77,1.242-1.519c.188-1.706.005-3.487,1.065-5.255.664,2.365-1.536,4.888.431,6.572,1.812,1.55,4.5.136,6.7,1.041a18.2,18.2,0,0,1-4.049.162c-2.686-.24-3.649,1.013-3.427,3.559.226,2.6.361,5.211.539,7.816-1.564-2.624-1.032-5.487-1.239-8.266-.085-1.14.361-3.043-1.6-2.7-1.694.29-1.162,1.937-.874,3.173.48,2.061,1,4.113,1.453,6.179.81,3.7,2.387,4.46,5.545,2.454,2.917-1.854,6.063-3.533,7.01-7.411.389,2.949-1.032,4.62-2.938,6.4-2,1.864-6.339,2.281-4.5,7.015-1.732-.912-1.418-3.672-2.921-3.062a20.412,20.412,0,0,1-10.478,1.017c-.427-.052-.994.37-1.374.707-2.49,2.219-4.144,4.815-3.42,8.346a12.125,12.125,0,0,1-.705,6.82,62.859,62.859,0,0,0-3.348,19.411c-2.212-1.112-2.236-1.128-3.684,1.105a15.6,15.6,0,0,0-2.214,3.825c-3.354,11.56-6.8,23.11-7.385,35.251-.186,3.852,1.8,6.718,5.053,7.173-3.635-2.236-4.2-5.343-3.119-9.095.49-1.7,1.67-3.366.288-5.456,5.44.619,5.373,4.893,6.664,8.339.3-4.257,2.233-8.514-.365-12.535-2.518-3.9-1.484-7.175,1.26-10.337a11.505,11.505,0,0,0,1.192-1.482c3.178-5.216,8.3-9.623,6.954-16.747-.1-.52.356-1.208.686-1.734a11.312,11.312,0,0,0,1.621-9.083,10.437,10.437,0,0,1,.061-5.03c.975-3.484.525-6.916.266-10.384-.092-1.227-.765-2.434-.01-4.155,2.587,4.016.632,10.184,6.742,11.753-1.2,1.053-2.061.8-2.74.313-2.62-1.884-2.895.106-2.841,1.856.083,2.629.608,5.241.787,7.871.158,2.33,1.434.871,2.513.525-1.7,6.645.346,13.006-.292,19.409l-.391-3.1c-.452,2.931-2.41,5.07-3.362,7.593-.841,2.235-.957,4.732-1.633,7.136-3.032,10.766-3.355,21.915-2.292,33.008.73,7.611,4.37,14.865,2.9,22.78a1.47,1.47,0,0,0,.17.921c1.689,2.921,1.371,5.965,1.357,9.246-.042,11.095-.815,22.215.384,33.3a10.631,10.631,0,0,1-.308,4.66c-1.534,4.612-4.923,7.845-7.717,11.585a9.139,9.139,0,0,1-6.66,3.906c-1.255.175-2.77.217-2.74,1.972.028,1.727.391,3.421,2.577,3.8,3.607.622,7.1.792,10.41-1.329,2.3-1.472,4.62-3.037,7.465-3.348,3.312-.365,5.171-3.96,3.9-7.2a21.5,21.5,0,0,1-1.244-13.025c1.538-6.485,2.968-13,4.719-19.427,1.885-6.917.879-13.31-2.207-19.687-.725-1.5-1.884-.049-2.283-1.055.733-1.435,2.32-2.436,2.2-4.169-.242-3.628.506-7.173.864-10.738.825-8.2,1.239-16.424,1.8-24.639.12-1.776-.226-3.083-1.849-3.988a6.513,6.513,0,0,1-3.093-3.406C72.3,95.1,71.813,88.66,69.354,82.787a1.994,1.994,0,0,1,.182-1.319c1.058,1.752,2-1.263,2.99-.042.9,1.11,1.873,2.5,1.239,3.739-2.278,4.471.591,8.424.983,12.6A6.762,6.762,0,0,0,77.379,102c1.168,1.034,2.454,2.591,4.026,2.156,1.507-.415.666-2.434,1.14-3.673a5.523,5.523,0,0,0,.328-2.186C82.48,90.1,87.962,84.828,92.612,79.11c-1.858,3.946-3.156,8.1-4.719,12.127C81.778,107,85.036,121.572,93.224,135.49a10.71,10.71,0,0,1,1.673,4.163c.29,2.115.481,4.391,2.775,6.016.452-1.743-.639-3.291.62-4.838-.664,5.282,3.821,7.183,6.36,9.908-.514,1.5-1.984-.838-2.1,1.1-.17,2.916-.711,5.75,0,8.759,1.5,6.381,2.645,12.851,3.738,19.319.148.879,1.6,2.422-.514,3.088m-2.742-80.782c7.553-4.262,7.02-3.889,5.873-10.485-1.239-7.136-2.565-14.389-.415-21.649a5.237,5.237,0,0,0-.4-3.724c-1.847-3.778-4.792-6.982-5.487-11.394a54.753,54.753,0,0,0-4.516,7.679c-2.221,4.867-4.818,9.783-1.041,15.119.262.372.129,1.022.188,1.541.893,7.9,3.526,15.34,5.8,22.912" transform="translate(33.212 0)" fill="#161615"/>
        <path id="Trazado_772355" data-name="Trazado 772355" d="M62.528,24.2l-1.934-1.338a19.433,19.433,0,0,0,2.648-.738c2.455-1.173,5.128-.085,5.206,2.572.078,2.58.822,5.23-.238,7.819a15.052,15.052,0,0,0-.243,10.247c1.336,4.565,2.46,9.192,3.774,13.765a12.138,12.138,0,0,1,.335,6.832c-.977,3.529-3.255,4.507-6.382,2.412a26.233,26.233,0,0,1-6.636-6.314c-1.3-1.774-2.292-1.964-3.248.316a11.945,11.945,0,0,1-1.993,3.216c-4.137,4.725-5.011,10.558-5.8,16.452-1.215,9.1,1.632,17.213,5.7,25.149a74.859,74.859,0,0,1,7.314,20.559,35.341,35.341,0,0,0,3.084,9.96c1.614,3.129,1.2,6.094-.268,9.089C57.414,157.3,53.585,171.246,50.54,185.449a6.489,6.489,0,0,0,.554,5.135c.827,1.387.94,3.218,1.284,4.871.639,3.07,1.437,5.887,4.778,7.317,1.927.825,2.142,3.487.341,4.3-3.279,1.477-6.685,3.03-10.5,2.125,1.347-.488,2.839-.349,4.424-1.2-1.4-.454-2.547-.919-3.736-1.192-2.424-.556-4.134-1.579-3.781-4.493.158-1.3-.923-2.054-1.673-2.931a28.829,28.829,0,0,1-5.06-7.227,5.11,5.11,0,0,1,.888-5.882c4.671-5.091,4.865-11.359,4.368-17.566-.8-9.977.174-19.411,6.16-27.809a5.435,5.435,0,0,0,.417-6.25c-1.3-2.3-2.412-4.8-4.134-6.749-5.416-6.118-8.464-13.55-12.488-21.534.921,7.847-.146,14.765-.839,21.71a19.2,19.2,0,0,0,.636,5.972,17.2,17.2,0,0,1-.209,9.079c-.8,2.492-.148,5.083.412,7.5,2.219,9.578,2.281,19.248,2.016,29a59.547,59.547,0,0,0,3.225,22.391,5.651,5.651,0,0,0,.938,2c2.561,2.634,1.878,5.109-.2,7.581H31.374c-5.545-2.233-6.415-6.942-6.33-12.094.125-7.633-.181-15.133-3.036-22.427-4.075-10.4-5.741-21.164-3.67-32.351,1.3-7.017-1.291-13.576-2.829-20.254-1.781-7.729-5.894-14.765-6.685-22.78-.7-7.051-.506-13.965,3.14-20.33a4.165,4.165,0,0,0-.073-4.891C9.329,72.322,6.445,68.41,3.682,64.41A21.466,21.466,0,0,1,.666,58.146c-1.552-5.39-.469-8.89,4.08-12.177,4.613-3.333,9.352-6.325,12.862-11.114,2.292-3.124,6.389-3.083,9.969-1.67,2.2.869,2.632.1,2.566-1.845-.137-3.991.118-7.93-1.449-11.856-1.981-4.957-.431-9.515,3.272-11.793,4.579-2.813,9.256-1.946,13.4,1.265,5.07,3.929,2.556,9.006,2.938,13.656a8.924,8.924,0,0,1-.646,2.766c-.73,2.758-2.674,5.425,2.37,6.784,2.791.751,4.544,4.254,6.467,6.784a16.125,16.125,0,0,0,3.392,3.691c.947-1.077.255-1.79-.3-2.3-1.487-1.383-1.639-3.081-1.543-4.944.083-1.592,1.022-3.239-1.818-4.09-1.557-.466-.236-3.084.229-4.568.481-1.541,1.31-3.265,3.531-2.978.836.108,1.658.33,2.487.5-.035.493,1.588,1.183-.085,1.439-.9.137-1.785-1.069-2.829-.372.129.978,1.461.655,1.409,1.64-.987.772-2.17-1.211-3.265.434,2.745,1.3,2.221,3.809,2.242,6.16.016,1.652-.827,3.418.325,4.935,1.508,1.984,1.684,4.24,1.776,6.591.129,3.267.248,6.546.65,9.783.436,3.524.542,7.274,3.778,9.732,2.014,1.531,3.434,1.022,4.314-1.317,1.237-3.284-.288-6.195-1.015-9.244C67.97,46.459,64.2,39.137,67.1,30.946c.478-1.354.016-3.117.309-4.683.078-.415.278-.848-.681-.916a20.719,20.719,0,0,1-4.2-1.152m-28.592.679c-.507-.111-1.312-.41-1.449.1-.883,3.272-.313,6.662-.58,9.993-.024.3.952.7,1.48,1.025.634.4,1.692.181,1.932,1.51-3.6-.384-6.808-1.758-10.125-2.676-2.016-.556-4.061-.848-5.5,1.1-3.785,5.1-9.1,8.414-14.1,12.064C1.4,51.048.818,52.254,1.9,57.29c1.394,6.485,6.454,10.789,9.55,16.255.41.725,1.859-.645,1.592,1.182-.353,2.4.944,1.87,2.151.811a3.831,3.831,0,0,1,2.193-1.162c.556,1.133,1.11,2.268,2.523,2.554-.321,1.018-1.166,1.527-1.922.865-2.092-1.831-2.516-.141-3.307,1.274C10.612,86.356,10,94.136,11.5,102.144c2.318,12.4,5.341,24.6,11.095,35.95a15.37,15.37,0,0,1,1.974,8.129l-3.807-2.838c-.356,12.469-1.371,24.66,4.271,36.068A13.364,13.364,0,0,1,26,182.8c1.043,5.336,2.763,10.62.554,16.127a3.3,3.3,0,0,0,.518,3.811c1.2,1.187,3.567,2.009,2.139,4.54-.078.141.387.836.685.9,2.433.553,4.818,1.805,7.4.6,1.291-.6,2.109-1.524.608-2.5-2.7-1.752-2.94-4.532-3.381-7.2-1.013-6.151-2.024-12.309-2.766-18.5-1.359-11.331-2.747-22.672-2.968-34.1-.063-3.215,1.618-6.262,1.26-9.654-.759-7.171-.144-14.323.422-21.508.759-9.618-.426-19.022-5.731-27.479-.664-1.056-2.353-2.492-.8-3.467,1.371-.86,1.741,1.284,2.433,2.219.427.58.685,1.5,1.588,1.279.871-.215.86-1.121.871-1.858a23.856,23.856,0,0,1,1.036-6.332c.481,3.831-.209,7.067-.271,10.318-.042,2.259.071,5.248,2.254,6.193,2.386,1.032,3.211-2.092,4.7-3.418a6.31,6.31,0,0,0,.933-1.281c1.089-1.646,2.169-3.3,3.527-5.367.469,2.019-.9,2.775-.784,3.96.688.136,1.128-.97,2.283-.176-3.013,2.94-5.044,6.6-9.164,7.837-1.437.431-1.4,1.161-1.277,2.323a14.455,14.455,0,0,0,1.143,3.943c3.929,9.8,8.985,19.027,15.986,26.891,4.874,5.479,4.415,8.763.56,14.1-3.918,5.421-4.685,11.136-5.2,17.5-.721,8.831.921,18.424-6.028,25.89a1.611,1.611,0,0,0,.266,2.5,31.046,31.046,0,0,1,7.54,11.26c1.585,3.911,4.408,4.744,8.1,4.358,1.036-.109,2.318.05,2.586-1.295s-1-1.752-1.92-2.169c-1.656-.756-3.161-1.458-3.906-3.4C49.022,194,48.175,188.337,49.56,182.3a236.088,236.088,0,0,1,9.95-32.763c1.96-5.049,4.195-10.342,2.177-15.986-4.937-13.818-8.212-28.273-15.785-41.082a8.266,8.266,0,0,1-.215-8.207c.754-1.562.518-3.27.652-4.949.54-6.792,1.232-13.632,6.118-19.023,1.974-2.179,2.587-4.071-.3-5.917-.335-.215-.643-.551-.3-1.3,1.778.387,3.7,1.63,5.55.024,1.819-1.583,3.277-3.307,3.01-5.953-.261-2.584-2.238-3.394-4.226-4.2-2.436-.987-5.105-1.59-6.6-4.08-.424-.7-1.251-1.611-.52-2.254,1.051-.923,1.265.554,1.812,1.036.455.4.707,1.081,1.531,1.018.273-1.067-.509-1.767-.947-2.54-2.32-4.1-2.686-4.123-5.659-.711a7.161,7.161,0,0,1-1.9,1.652c-1.449.777-2.905.631-3.089-1.258-.212-2.174-1.685-3.215-2.982-4.61-1.7-1.828-4.57-3.062-3.932-6.368,1.406,2.919,4.41,3.769,6.909,5.218,1.423.827,2.5.16,2.568-1.548.083-2.215.019-4.436.054-6.655.03-1.864-.888-2.7-2.714-2.678-1.964.021-3.929,0-5.894,0a2.421,2.421,0,0,1,1.908-.622c6.938-.05,7.053-.193,5.743-7.164-.1-.52-.222-1.034-.3-1.555A2.622,2.622,0,0,0,40.189,7.6a7.625,7.625,0,0,0-7.47,1.359c-2.182,1.807-2.7,4.344-2.617,7.159.049,1.618,2.441,1.065,2,2.306-.952,2.7,1.175,4.325,1.83,6.447" transform="translate(0 4.422)" fill="#161615"/>
        <path id="Trazado_772356" data-name="Trazado 772356" d="M13.885,58.57a3.8,3.8,0,0,1,1.844-2.954c-4.243.264-5.42-2.429-6.351-5.18-1.623-4.8-3.072-9.651-4.627-14.582,3.727.365,5.877-2.374,8.523-4.043,1.423-.9,2.584-2.229,4.035-3.065,2-1.149,4.085-2.269,6.306-.059.436.436,1.852-.043.806,1.275-1.387,1.752-.911,3.586-.349,5.437,1.015,3.341,1.955,6.709,3.1,10.005.836,2.407.459,4.228-1.585,5.863-1.52,1.218-3.378,2.473-2.113,4.956-1.072.134-1.2-1.427-2.043-.792-.66.5-.118,1.2.3,1.644.733.778,1.635,1.26.012,2.257-1.227.752-2.1,1.328-3.326.212-.693-.631-.608-1.847-1.805-2.217-.686,1.07.214,1.729.648,2.44.678,1.107.014,1.275-.855,1.359-1.414-.287-1.969-1.421-2.523-2.554M24.726,46.277A50.831,50.831,0,0,0,20.269,31.47a1.845,1.845,0,0,0-3.348-.309c-1.619,3.486-4.789,4.487-7.866,5.7a2.162,2.162,0,0,0-1.592,2.881,48.026,48.026,0,0,0,4.782,13.056c.829,1.566,1.68,1.493,3.032.728,1.541-.871,2.86-2.339,4.773-2.344,3.522-.009,4.636-.961,4.676-4.9" transform="translate(3.504 20.225)" fill="#161615"/>
        <path id="Trazado_772357" data-name="Trazado 772357" d="M18.485,32.63c2.754,5.237,7.15,7.618,10.98,6.389,2.916-.937,3.7-3.7,2.613-9.162a6.024,6.024,0,0,1,1.811,7.354c-1.03,2.474-5.461,5.183-7.958,4.865-3.758-.48-6.811-4.089-7.446-9.446" transform="translate(13.635 22.023)" fill="#161615"/>
        <rect id="Rectángulo_362058" data-name="Rectángulo 362058" width="44.068" height="50.575" transform="translate(173.809 23.977)" fill="rgba(0,0,0,0)"/>
        <path id="Rectángulo_362058_-_Contorno" data-name="Rectángulo 362058 - Contorno" d="M-.22-.22H44.288V50.8H-.22ZM43.848.22H.22V50.355H43.848Z" transform="translate(173.809 23.977)" fill="#161615"/>
        <rect id="Rectángulo_362059" data-name="Rectángulo 362059" width="25.731" height="10.943" transform="translate(218.172 23.976)" fill="rgba(0,0,0,0)"/>
        <path id="Rectángulo_362059_-_Contorno" data-name="Rectángulo 362059 - Contorno" d="M-.22-.22H25.951V11.163H-.22ZM25.511.22H.22v10.5H25.511Z" transform="translate(218.172 23.976)" fill="#161615"/>
        <rect id="Rectángulo_362060" data-name="Rectángulo 362060" width="25.731" height="39.927" transform="translate(218.172 34.625)" fill="rgba(0,0,0,0)"/>
        <path id="Rectángulo_362060_-_Contorno" data-name="Rectángulo 362060 - Contorno" d="M-.22-.22H25.951V40.147H-.22ZM25.511.22H.22V39.707H25.511Z" transform="translate(218.172 34.625)" fill="#161615"/>
        <rect id="Rectángulo_362061" data-name="Rectángulo 362061" width="41.998" height="50.575" transform="translate(243.902 23.977)" fill="rgba(0,0,0,0)"/>
        <path id="Rectángulo_362061_-_Contorno" data-name="Rectángulo 362061 - Contorno" d="M-.22-.22H42.218V50.8H-.22Zm42,.44H.22V50.355H41.778Z" transform="translate(243.902 23.977)" fill="#161615"/>
        <rect id="Rectángulo_362062" data-name="Rectángulo 362062" width="32.238" height="5.324" transform="translate(253.662 23.976)" fill="rgba(0,0,0,0)"/>
        <path id="Rectángulo_362062_-_Contorno" data-name="Rectángulo 362062 - Contorno" d="M-.22-.22H32.458V5.544H-.22ZM32.018.22H.22V5.1h31.8Z" transform="translate(253.662 23.976)" fill="#161615"/>
        <rect id="Rectángulo_362063" data-name="Rectángulo 362063" width="58.116" height="45.993" transform="translate(173.809 74.844)" fill="rgba(0,0,0,0)"/>
        <path id="Rectángulo_362063_-_Contorno" data-name="Rectángulo 362063 - Contorno" d="M-.22-.22H58.336V46.213H-.22ZM57.9.22H.22V45.773H57.9Z" transform="translate(173.809 74.844)" fill="#161615"/>
        <rect id="Rectángulo_362064" data-name="Rectángulo 362064" width="54.568" height="45.993" transform="translate(231.925 74.7)" fill="rgba(0,0,0,0)"/>
        <path id="Rectángulo_362064_-_Contorno" data-name="Rectángulo 362064 - Contorno" d="M-.22-.22H54.788V46.213H-.22ZM54.348.22H.22V45.773H54.348Z" transform="translate(231.925 74.7)" fill="#161615"/>
        <rect id="Rectángulo_362065" data-name="Rectángulo 362065" width="58.116" height="35.823" transform="translate(173.956 120.95)" fill="rgba(0,0,0,0)"/>
        <path id="Rectángulo_362065_-_Contorno" data-name="Rectángulo 362065 - Contorno" d="M-.22-.22H58.336V36.043H-.22ZM57.9.22H.22V35.6H57.9Z" transform="translate(173.956 120.95)" fill="#161615"/>
        <rect id="Rectángulo_362066" data-name="Rectángulo 362066" width="54.568" height="35.823" transform="translate(232.073 120.837)" fill="rgba(0,0,0,0)"/>
        <path id="Rectángulo_362066_-_Contorno" data-name="Rectángulo 362066 - Contorno" d="M-.22-.22H54.788V36.043H-.22ZM54.348.22H.22V35.6H54.348Z" transform="translate(232.073 120.837)" fill="#161615"/>
        <rect id="Rectángulo_362067" data-name="Rectángulo 362067" width="44.068" height="52.228" transform="translate(316.561 26.737)" fill="rgba(0,0,0,0)"/>
        <path id="Rectángulo_362067_-_Contorno" data-name="Rectángulo 362067 - Contorno" d="M-.112-.111H44.179V52.339H-.112ZM43.956.111H.111v52H43.956Z" transform="translate(316.561 26.737)" fill="#161615"/>
        <rect id="Rectángulo_362068" data-name="Rectángulo 362068" width="25.731" height="11.3" transform="translate(360.925 26.738)" fill="rgba(0,0,0,0)"/>
        <path id="Rectángulo_362068_-_Contorno" data-name="Rectángulo 362068 - Contorno" d="M-.112-.112H25.842V11.411H-.112ZM25.619.111H.111V11.188H25.619Z" transform="translate(360.925 26.738)" fill="#161615"/>
        <rect id="Rectángulo_362069" data-name="Rectángulo 362069" width="25.731" height="41.232" transform="translate(360.925 37.732)" fill="rgba(0,0,0,0)"/>
        <path id="Rectángulo_362069_-_Contorno" data-name="Rectángulo 362069 - Contorno" d="M-.112-.111H25.842V41.343H-.112ZM25.619.111H.111V41.12H25.619Z" transform="translate(360.925 37.732)" fill="#161615"/>
        <rect id="Rectángulo_362070" data-name="Rectángulo 362070" width="41.998" height="52.228" transform="translate(386.656 26.737)" fill="rgba(0,0,0,0)"/>
        <path id="Rectángulo_362070_-_Contorno" data-name="Rectángulo 362070 - Contorno" d="M-.111-.111h42.22v52.45H-.111Zm42,.222H.111V52.117H41.887Z" transform="translate(386.656 26.737)" fill="#161615"/>
        <rect id="Rectángulo_362071" data-name="Rectángulo 362071" width="32.238" height="5.498" transform="translate(396.416 26.737)" fill="rgba(0,0,0,0)"/>
        <path id="Rectángulo_362071_-_Contorno" data-name="Rectángulo 362071 - Contorno" d="M-.112-.112H32.349V5.609H-.112ZM32.126.111H.111V5.386H32.126Z" transform="translate(396.416 26.737)" fill="#161615"/>
        <rect id="Rectángulo_362072" data-name="Rectángulo 362072" width="58.116" height="47.496" transform="translate(316.561 79.267)" fill="rgba(0,0,0,0)"/>
        <path id="Rectángulo_362072_-_Contorno" data-name="Rectángulo 362072 - Contorno" d="M-.111-.11H58.227V47.606H-.111ZM58.006.111H.111V47.385h57.9Z" transform="translate(316.561 79.267)" fill="#161615"/>
        <rect id="Rectángulo_362073" data-name="Rectángulo 362073" width="54.568" height="47.496" transform="translate(374.677 79.117)" fill="rgba(0,0,0,0)"/>
        <path id="Rectángulo_362073_-_Contorno" data-name="Rectángulo 362073 - Contorno" d="M-.111-.11H54.679V47.606H-.111ZM54.458.111H.111V47.385H54.458Z" transform="translate(374.677 79.117)" fill="#161615"/>
        <rect id="Rectángulo_362074" data-name="Rectángulo 362074" width="58.116" height="34.043" transform="translate(316.71 126.87)" fill="rgba(0,0,0,0)"/>
        <path id="Rectángulo_362074_-_Contorno" data-name="Rectángulo 362074 - Contorno" d="M-.107-.107h58.33V34.15H-.107ZM58.009.107H.107V33.936h57.9Z" transform="translate(316.71 126.87)" fill="#161615"/>
        <rect id="Rectángulo_362075" data-name="Rectángulo 362075" width="54.568" height="34.043" transform="translate(374.825 126.763)" fill="rgba(0,0,0,0)"/>
        <path id="Rectángulo_362075_-_Contorno" data-name="Rectángulo 362075 - Contorno" d="M-.107-.107H54.675V34.15H-.107ZM54.461.107H.107V33.936H54.461Z" transform="translate(374.825 126.763)" fill="#161615"/>
        <path id="Línea_10491" data-name="Línea 10491" d="M6.776,42.777-.433.073.433-.073l7.209,42.7Z" transform="translate(516.284 83.803)" fill="#161615"/>
        <path id="Trazado_772358" data-name="Trazado 772358" d="M299.921,49.435l-.48-2.843-6.113,44.561" transform="translate(216.363 34.367)" fill="rgba(0,0,0,0)"/>
        <path id="Trazado_772358_-_Contorno" data-name="Trazado 772358 - Contorno" d="M293.763,91.213l-.871-.119,6.113-44.561.869-.013.48,2.843-.867.146V49.5Z" transform="translate(216.363 34.367)" fill="#161615"/>
        <path id="Trazado_772359" data-name="Trazado 772359" d="M328.808,116.914s-5.077,26.519-4.683,34.407l52.005-1.084V22.666s-10.056,1.578-17.943-5.324l-27.8,13.407s6.9,24.155-3.944,37.661c-2.933,3.654-16.61,2.064-18.139-4.733a55.734,55.734,0,0,1,3.548-35.1l-9.463-7.887L286.021,66.833l6.113-49.687L281.881,13s-.985,18.139-17.943,18.533V150.631l54.815.789s-.985-25.435-3.746-35.491" transform="translate(194.685 9.593)" fill="rgba(0,0,0,0)"/>
        <path id="Trazado_772359_-_Contorno" data-name="Trazado 772359 - Contorno" d="M318.746,151.859l-54.815-.789-.433-.439V31.538l.429-.439c6.86-.16,11.889-3.247,14.95-9.177a24.877,24.877,0,0,0,2.564-8.941l.6-.384L292.3,16.738l.272.461-5.624,45.71,15.027-42.362.7-.191,9.463,7.887.109.54a46.755,46.755,0,0,0-3.406,10.08,56.439,56.439,0,0,0-.1,24.718c.6,2.683,3.461,4.863,7.644,5.832a17.13,17.13,0,0,0,5.9.355,5.884,5.884,0,0,0,3.819-1.632c5.516-6.87,6.276-16.625,5.943-23.6a67.5,67.5,0,0,0-2.078-13.666l.232-.517L358,16.946l.48.065a22.222,22.222,0,0,0,11.7,5.145,22.786,22.786,0,0,0,5.887.075l.508.434V150.237l-.43.439-52.005,1.084-.448-.417c-.165-3.3.575-10.115,2.2-20.252,1.207-7.535,2.479-14.192,2.492-14.259l.863.165c-.05.26-4.888,25.639-4.691,33.875l51.142-1.066V23.162a24.827,24.827,0,0,1-5.632-.134,24.658,24.658,0,0,1-5.9-1.534,21.8,21.8,0,0,1-6.036-3.63L330.905,30.987a69.773,69.773,0,0,1,2.014,13.507,49.164,49.164,0,0,1-.856,12.425,27.679,27.679,0,0,1-5.279,11.767,6.609,6.609,0,0,1-4.392,1.954,18.03,18.03,0,0,1-6.216-.37A14.893,14.893,0,0,1,310.895,68a7.156,7.156,0,0,1-3.021-4.229,55.89,55.89,0,0,1-1.328-13.911,58.25,58.25,0,0,1,1.438-11.225A48.9,48.9,0,0,1,311.3,28.7l-8.712-7.261L286.436,66.98l-.85-.2,6.072-49.352-9.39-3.792a25.791,25.791,0,0,1-2.608,8.691,17.892,17.892,0,0,1-5.509,6.509,17.85,17.85,0,0,1-9.772,3.129V150.2l53.917.776c-.151-3.5-1.2-25.78-3.712-34.928l.848-.233c1.152,4.2,2.136,11.464,2.923,21.6.585,7.537.836,13.928.839,13.992Z" transform="translate(194.685 9.593)" fill="#161615"/>
        <path id="Trazado_772360" data-name="Trazado 772360" d="M310.236,94.637l5.52,30.561,5.324-32.335-5.915-47.519Z" transform="translate(228.835 33.447)" fill="rgba(0,0,0,0)"/>
        <path id="Trazado_772360_-_Contorno" data-name="Trazado 772360 - Contorno" d="M315.324,125.277,309.8,94.715l0-.122,4.93-49.293.873-.011,5.915,47.519,0,.126L316.19,125.27ZM310.679,94.62l5.057,28,4.9-29.761-5.423-43.569Z" transform="translate(228.835 33.447)" fill="#161615"/>
        <path id="Trazado_772361" data-name="Trazado 772361" d="M284.428,93l-5.915-41.418-4.93,42.964,5.52,26.638Z" transform="translate(201.8 38.05)" fill="rgba(0,0,0,0)"/>
        <path id="Trazado_772361_-_Contorno" data-name="Trazado 772361 - Contorno" d="M278.674,121.276l-5.52-26.638-.006-.139,4.93-42.964.872-.012,5.915,41.418,0,.144-5.324,28.184Zm-4.645-26.747,5.056,24.4,4.9-25.932-5.422-37.966Z" transform="translate(201.8 38.05)" fill="#161615"/>
        <path id="Línea_10492" data-name="Línea 10492" d="M.434,41.787l-.868-.137L6.158-.069l.868.137Z" transform="translate(509.692 83.802)" fill="#161615"/>
        <path id="Trazado_772362" data-name="Trazado 772362" d="M304.332,90.968l-7.2-42.787-.012.083" transform="translate(219.162 35.539)" fill="rgba(0,0,0,0)"/>
        <path id="Trazado_772362_-_Contorno" data-name="Trazado 772362 - Contorno" d="M303.9,91.041l-7.2-42.787.162-.027-.176-.026.012-.083.868-.01,7.2,42.787Z" transform="translate(219.162 35.539)" fill="#161615"/>
        <path id="Línea_10493" data-name="Línea 10493" d="M6.777,42.565-.432.073.432-.073,7.642,42.418Z" transform="translate(374.616 83.595)" fill="#161615"/>
        <path id="Trazado_772363" data-name="Trazado 772363" d="M218.39,49.31l-.48-2.829L211.8,90.82" transform="translate(156.225 34.285)" fill="rgba(0,0,0,0)"/>
        <path id="Trazado_772363_-_Contorno" data-name="Trazado 772363 - Contorno" d="M212.232,90.88l-.869-.12,6.113-44.339.867-.013.48,2.829-.865.147,0-.015Z" transform="translate(156.225 34.285)" fill="#161615"/>
        <path id="Trazado_772364" data-name="Trazado 772364" d="M247.278,116.453S242.2,142.84,242.6,150.687l52.005-1.079V22.673s-10.057,1.569-17.943-5.3l-27.8,13.34s6.9,24.035-3.944,37.473c-2.933,3.635-16.61,2.056-18.139-4.709a55.214,55.214,0,0,1,3.548-34.923l-9.463-7.847L204.491,66.62,210.6,17.181l-10.254-4.12S199.365,31.11,182.408,31.5V150l54.815.785s-.985-25.308-3.746-35.315" transform="translate(134.547 9.634)" fill="rgba(0,0,0,0)"/>
        <path id="Trazado_772364_-_Contorno" data-name="Trazado 772364 - Contorno" d="M237.217,151.225l-54.815-.785-.432-.438V31.5l.428-.438c6.86-.159,11.891-3.231,14.951-9.131a24.653,24.653,0,0,0,2.564-8.9l.6-.383,10.254,4.12.272.461-5.624,45.488,15.03-42.159.693-.19,9.463,7.847.109.54A46.371,46.371,0,0,0,227.3,38.791a55.885,55.885,0,0,0-.1,24.594c.6,2.661,3.446,4.827,7.61,5.794a17.24,17.24,0,0,0,5.925.363,5.914,5.914,0,0,0,3.836-1.626c5.515-6.835,6.276-16.541,5.942-23.48a66.854,66.854,0,0,0-2.078-13.6l.232-.516,27.8-13.34.478.065a22.28,22.28,0,0,0,11.7,5.119,22.918,22.918,0,0,0,5.889.075l.506.433V149.608l-.429.438L242.6,151.126l-.447-.416c-.165-3.285.575-10.065,2.2-20.152,1.207-7.5,2.479-14.122,2.492-14.188l.861.166c-.05.259-4.888,25.509-4.691,33.7l51.144-1.061V23.168a24.958,24.958,0,0,1-5.634-.134,24.76,24.76,0,0,1-5.9-1.526A21.809,21.809,0,0,1,276.59,17.9L249.375,30.954a69.116,69.116,0,0,1,2.014,13.439,48.684,48.684,0,0,1-.857,12.364,27.477,27.477,0,0,1-5.279,11.709,6.635,6.635,0,0,1-4.407,1.945,18.137,18.137,0,0,1-6.235-.378,14.888,14.888,0,0,1-5.26-2.256,7.115,7.115,0,0,1-3.007-4.2,55.35,55.35,0,0,1-1.328-13.843,57.69,57.69,0,0,1,1.439-11.17,48.5,48.5,0,0,1,3.318-9.89l-8.713-7.225L204.9,66.767l-.848-.2,6.072-49.1-9.392-3.774a25.568,25.568,0,0,1-2.608,8.648,17.828,17.828,0,0,1-5.509,6.477,17.91,17.91,0,0,1-9.772,3.113V149.568l53.919.773c-.151-3.484-1.2-25.651-3.711-34.754l.845-.233c1.152,4.177,2.136,11.408,2.923,21.493.585,7.5.836,13.859.839,13.922Z" transform="translate(134.547 9.634)" fill="#161615"/>
        <path id="Trazado_772365" data-name="Trazado 772365" d="M228.705,94.287l5.52,30.41,5.324-32.175L233.635,45.24Z" transform="translate(168.697 33.369)" fill="rgba(0,0,0,0)"/>
        <path id="Trazado_772365_-_Contorno" data-name="Trazado 772365 - Contorno" d="M233.794,124.776l-5.52-30.41,0-.122L233.2,45.2l.871-.011,5.915,47.282,0,.126-5.324,32.175ZM229.148,94.27l5.058,27.862,4.9-29.619-5.424-43.361Z" transform="translate(168.697 33.369)" fill="#161615"/>
        <path id="Trazado_772366" data-name="Trazado 772366" d="M202.9,92.661,196.983,51.45,192.053,94.2l5.52,26.5Z" transform="translate(141.662 37.95)" fill="rgba(0,0,0,0)"/>
        <path id="Trazado_772366_-_Contorno" data-name="Trazado 772366 - Contorno" d="M197.144,120.793l-5.52-26.5-.006-.14,4.93-42.751.87-.012L203.332,92.6l0,.144L198,120.786ZM192.5,94.18l5.057,24.278,4.9-25.807L197.03,54.866Z" transform="translate(141.662 37.95)" fill="#161615"/>
        <path id="Línea_10494" data-name="Línea 10494" d="M.433,41.579l-.866-.138L6.159-.069l.866.138Z" transform="translate(368.023 83.596)" fill="#161615"/>
        <path id="Trazado_772367" data-name="Trazado 772367" d="M222.8,90.636l-7.2-42.573-.012.082" transform="translate(159.024 35.452)" fill="rgba(0,0,0,0)"/>
        <path id="Trazado_772367_-_Contorno" data-name="Trazado 772367 - Contorno" d="M222.369,90.709l-7.2-42.573.169-.029-.183-.027L215.17,48l.866-.009,7.2,42.573Z" transform="translate(159.024 35.452)" fill="#161615"/>
        <rect id="Rectángulo_362076" data-name="Rectángulo 362076" width="14.591" height="1.677" transform="translate(294.182 87.515)" fill="#161615"/>
        <path id="Trazado_772368" data-name="Trazado 772368" d="M169.3,48.1l.1,2.07s3.129,2.514,9.734-.738c.933-.459,2.268-.765,4.683.024l-.024-2.341a10.345,10.345,0,0,0-6.259,1.084c-1.607.971-5.374,2.069-8.233-.1" transform="translate(124.88 34.682)" fill="#161615"/>
        <rect id="Rectángulo_362077" data-name="Rectángulo 362077" width="14.591" height="1.677" transform="translate(436.541 87.515)" fill="#161615"/>
        <path id="Trazado_772369" data-name="Trazado 772369" d="M251.23,48.1l.1,2.07s3.129,2.514,9.734-.738c.933-.459,2.268-.765,4.683.024l-.024-2.341a10.345,10.345,0,0,0-6.259,1.084c-1.607.971-5.374,2.069-8.233-.1" transform="translate(185.311 34.682)" fill="#161615"/>
        <rect id="Rectángulo_362078" data-name="Rectángulo 362078" width="14.591" height="1.677" transform="translate(156.358 87.515)" fill="#161615"/>
        <path id="Trazado_772370" data-name="Trazado 772370" d="M89.984,48.1l.1,2.07s3.129,2.514,9.734-.738c.933-.459,2.268-.765,4.683.024l-.024-2.341A10.345,10.345,0,0,0,98.217,48.2c-1.607.971-5.374,2.069-8.233-.1" transform="translate(66.374 34.682)" fill="#161615"/>
        <rect id="Rectángulo_362079" data-name="Rectángulo 362079" width="14.591" height="1.677" transform="translate(61.32 87.515)" fill="#161615"/>
        <path id="Trazado_772371" data-name="Trazado 772371" d="M35.29,48.1l.1,2.07s3.129,2.514,9.734-.738c.933-.459,2.268-.765,4.683.024l-.024-2.341A10.345,10.345,0,0,0,43.523,48.2c-1.607.971-5.374,2.069-8.233-.1" transform="translate(26.03 34.682)" fill="#161615"/>
      </g>
    </g>
    <g id="Grupo_1060512" data-name="Grupo 1060512" transform="translate(0.813 8004.163)">
      <text id="Estructura" transform="translate(208.874 1087.587)" fill="#12263f" font-size="14" font-family="SegoeUI-Bold, Segoe UI" font-weight="700"><tspan x="0" y="15">Estructura</tspan></text>
      <text id="_Plano" data-name=" Plano" transform="translate(420.399 1087.587)" fill="#12263f" font-size="14" font-family="SegoeUI-Bold, Segoe UI" font-weight="700"><tspan x="0" y="15" xml:space="preserve"> Plano</tspan></text>
      <text id="Molde" transform="translate(627.4 1087.587)" fill="#12263f" font-size="14" font-family="SegoeUI-Bold, Segoe UI" font-weight="700"><tspan x="0" y="15">Molde</tspan></text>
      <text id="_" data-name="=" transform="translate(367.338 1103.587)" fill="#12263f" font-size="21" font-family="SegoeUI-Bold, Segoe UI" font-weight="700"><tspan x="0" y="0">=</tspan></text>
      <text id="_2" data-name="=" transform="translate(563.277 1103.587)" fill="#12263f" font-size="21" font-family="SegoeUI-Bold, Segoe UI" font-weight="700"><tspan x="0" y="0">=</tspan></text>
    </g>
  </g>
</svg>
