<svg xmlns="http://www.w3.org/2000/svg" width="347.23" height="192.495" viewBox="0 0 347.23 192.495">
  <g id="Grupo_15637" data-name="Grupo 15637" transform="translate(-1192.815 217.92)">
    <path id="Trazado_10495" data-name="Trazado 10495" d="M1430.371-106.09c-.948,9.292-2.761,18.469-1.392,27.941,1.163,8.053.208,16.189-.722,24.228a85.261,85.261,0,0,0,.034,21.421c.3,2.211,1.626,5.459-.765,6.561-2.365,1.087-5.424-.288-8-1.329-1.581-.638-1.62-1.976-.831-3.319,1.677-2.861,1.2-5.709.532-8.8-1.645-7.665-4.7-14.923-6.165-22.638a47.938,47.938,0,0,1-.222-16.244,22.611,22.611,0,0,0-1.87-13.137c-3.481-7.76-6.884-15.549-8.177-24.041-.353-2.325-2.994-2.9-3.128-6.222a6.951,6.951,0,0,0,.184,6.37c.362.835,1.041,1.866.095,2.535-1.142.811-1.97-.277-2.653-1.037-1.992-2.22-3.838-4.835-3.729-7.751.277-7.363-2.189-14.5-1.757-21.757a88.053,88.053,0,0,1,9.609-34.55c2.2-4.355,6.3-6.738,11.062-7.8,1.787-.4,4.868-.278,5-1.593.381-3.693,4.2-6.251,2.715-10.6a20.451,20.451,0,0,1-.685-10.573c1.388-7.023,4.743-9.735,12.328-9.416,5.2.219,9.016,4.39,9.372,10.475a40.021,40.021,0,0,1-.262,6.747c-.44,3.9-.8,7.249,1.654,11.239a7.144,7.144,0,0,0,5.531,3.764c5.812,1.182,9.625,4.569,12.208,9.826a62.521,62.521,0,0,1,5.4,16.6c.548,3.053,2.045,5.712,2.654,8.724,1.16,5.738.56,11.333-.609,16.945-.874,4.181.239,8.484-.9,12.677a13.753,13.753,0,0,1-3.406,6.622c-.715.7-1.4,2.08-2.535,1.474-1.243-.669-.231-1.856.021-2.816.429-1.638,1.406-3.205.5-5.39-1.745,2.407-3.627,4.2-4.105,7.328-1.087,7.123-3.844,13.785-6.974,20.243a28.317,28.317,0,0,0-2.353,17.812c1.334,7.541-.468,14.756-2.637,21.913-1.385,4.57-2.661,9.172-4,13.756-.874,2.988-1.3,5.918.227,8.88,1.243,2.42-.06,3.735-2.295,4.45a14.128,14.128,0,0,1-1.551.345c-6.283,1.243-6.712.788-5.554-5.527,1.548-8.453.922-16.9-.12-25.349-1.008-8.168-1.625-16.333-.024-24.512,1.015-5.188-.453-10.307-.765-15.446A49,49,0,0,0,1430.371-106.09Zm-28.751-18.517c.025-11,4.883-21.111,4.741-32.17-6.215,7.641-4.956,17.291-7.294,25.877C1398.382-128.377,1400.91-126.755,1401.62-124.607Zm52.649-32.147c.317,10.923,4.3,21.24,5.42,32.034,2.2-11.343.206-21.989-5.42-32.035Z" transform="translate(71.026 0.018)" fill="#727997"/>
    <path id="Trazado_10497" data-name="Trazado 10497" d="M1347.93-160.743c-5.415,14.585-10.86,29.165-5.94,45.326-2.372-.278-1.4-2.008-2.51-2.595-.984,2.6.486,5.074.455,7.814-2.648-.444-3.251-2.563-3.772-4.245a53.432,53.432,0,0,1-2.4-10.436c-1.033-10.174-1.282-20.3,1.685-30.339,1.262-4.262,1.23-8.893,1.934-13.338,1.417-8.924,5.759-15.3,15.227-17.111,1.314-.251,3.424-.2,1.531-2.527-.491-.605-.282-1.125.388-1.635,3.085-2.346,2.513-5.729,1.971-8.785a42.8,42.8,0,0,1-.536-8.319c.1-5.8,3.76-10.37,8.553-10.859,7.43-.76,11.1,1.809,12.692,8.833a23.064,23.064,0,0,1,.111,8.3c-.529,3.893-1.941,7.922,1.964,11.026.179.141.391.527.32.651-2.486,4.513,1.76,3.61,3.527,4.017a14.844,14.844,0,0,1,11.793,12.213c2.282,12.055,5.6,24.037,5.577,36.392a68.411,68.411,0,0,1-2.384,19.262c-.76,2.574-1.39,5.3-4.112,7.3-1.079-3.091,1.307-5.573.066-8.2-1.065.339-.528,2.192-1.95,2.486-.224-2.1-.5-4.142.341-5.96,2.266-4.9,1.416-9.792.212-14.7-2.072-8.43-2.677-17.282-7.229-25.073-2,1.084-1.313,2.813-.776,4.3,2.265,6.257,3.25,12.831,4.665,19.278,2.5,11.387.279,22.433-3.811,33.112-2.018,5.272-3.748,10.54-3.229,16.237,1.529,16.807-1.806,33.019-5.923,49.129-.753,2.949-1.03,5.691.509,8.424.718,1.277,1,2.63-.529,3.451-2.23,1.2-4.659,2.185-7.2,1.463-1.626-.463-1.352-2.287-1.073-3.473,3.084-13.122.278-26.111-.779-39.135a32.267,32.267,0,0,1,.661-9.106c1.906-9.29-1.038-18.376-1.113-27.6-1.3,7.708-2.688,15.523-1.786,23.25,1.185,10.145.555,20.156-.533,30.165a68.477,68.477,0,0,0,.7,20.959c.333,1.666,1.089,3.92-.631,4.759-2.526,1.238-5.2-.033-7.5-1.348-1.99-1.139-.737-2.84-.2-4.235a10.836,10.836,0,0,0,.37-7.029c-4.686-16.586-7.352-33.392-6.074-50.71.346-4.679-1.019-9.117-2.677-13.54-4.781-12.74-7.3-25.641-3.353-39.3,1.305-4.523,1.931-9.3,3.418-13.844A4.637,4.637,0,0,0,1347.93-160.743Z" transform="translate(50.071 0)" fill="#727997"/>
    <path id="Trazado_10499" data-name="Trazado 10499" d="M1293.679-159.373c-2.416,14.727-10.295,28.745-4.839,44.895-2.269-.67-1.327-2.6-2.879-2.789-1.209,2.759,1.243,5.508.191,8.5a6.7,6.7,0,0,1-3.512-5.146c-2.173-12.388-4.417-24.7.039-37.24,1.5-4.212.965-9.18,1.182-13.8a35.255,35.255,0,0,1,2.956-13.1c1.762-3.9,4.466-6.537,8.694-7.484,1.729-.387,3.3-.459,2.329-3.243-.532-1.517,2.295-2.672,2.179-4.819-.149-2.779.095-5.567-.535-8.329a17.16,17.16,0,0,1,1.338-10.889c1.732-3.956,4.914-5.442,10.693-4.979,4.016.322,6.525,2.515,7.6,6.443a27.51,27.51,0,0,1,.383,11.43c-.5,3.475-1.52,7.172,1.751,10.041.095.085.3.2.286.252-1.74,5.21,3.1,3.926,5.222,5.164,5.558,3.243,7.142,8.723,8.157,14.386a46.472,46.472,0,0,1,.917,10.687c-.2,3.859.669,7.513,1.651,11.29,3.108,11.953,2.025,23.931-1.371,35.714a4.94,4.94,0,0,1-3.238,3.561c-.519-2.855,1.411-5.47.349-8.224-1.254.259-.137,2.333-1.878,2.411,0-2.023-.6-4.3.121-6.035,1.7-4.087,1.459-8.047.383-12.083-2.365-8.827-3.105-18.015-6.271-26.719a19.294,19.294,0,0,0,.87,10.232,70.409,70.409,0,0,1-.246,46.841c-1.582,4.847-2.7,9.794-2.3,14.851,1.312,16.526-1.5,32.529-5.724,48.373-.815,3.06-1.165,5.967.392,8.894.654,1.228,1.014,2.84-.459,3.527-1.868.868-3.972,1.774-6.107.878-1.756-.737-1.4-2.19-1.013-3.729,2.217-8.9,1.531-17.821.438-26.834-1.031-8.538-1.8-17.213-.031-25.748.844-4.071-.258-7.93-.474-11.858q-.393-7.126-1.045-14.288c-.847,10.208-2.88,20.289-1.4,30.678,1.125,7.906.069,15.908-.861,23.823-.948,8.054-1.565,16.065.784,24,.417,1.406.893,3.194-.781,3.9-2.318.973-4.754.095-6.8-1.016-1.547-.841-.547-2.439.083-3.538,2.532-4.413.178-8.576-.735-12.7-2.664-12.044-6.284-24.019-4.907-36.495,1.167-10.574-1.485-20.346-4.234-30.288-3.443-12.463-2.535-24.937,1.208-37.219A29.194,29.194,0,0,0,1293.679-159.373Z" transform="translate(31.167 0.014)" fill="#727997"/>
    <path id="Trazado_10503" data-name="Trazado 10503" d="M1243.005-116.225c-1.158.478-1.162-.915-2.06-1.035-1.164,2.688,1.923,4.774,1.075,7.937a13.286,13.286,0,0,1-5.268-9.123,106.052,106.052,0,0,1,.995-33.264c1.084-5.4.509-10.866.652-16.3a54.545,54.545,0,0,1,1.366-10.615c.861-3.819,2.519-6.719,7.036-6.757a8.862,8.862,0,0,0,2.414-.809c-1.065-1.74-1.3-3.044.117-4.946,2.1-2.82,1.092-6.407.547-9.646a20.722,20.722,0,0,1,1.354-12.451c1.6-3.469,4.535-4.494,8.122-4.633,3.862-.149,7.119.645,9.059,4.362,2.2,4.22,2.11,8.671,1.46,13.217-.518,3.629-1.626,7.363,1.68,10.442,1.5,1.4-.71,2.213-.765,3.4.136.191.266.54.414.547,9.262.467,10.034,7.837,9.833,14.048-.478,14.949,3.672,29.537,2.7,44.454-.258,3.96-.324,7.948-1.427,11.8a9.866,9.866,0,0,1-4.655,6.112c-.963-2.942,2.3-4.968,1.173-7.689-1.153-.066-.523,2.014-1.9,1.763a2.95,2.95,0,0,1,.241-2.965c3.443-6.639,1.521-13.266.383-20.034-1.445-8.612-2.255-17.331-3.366-26-.109-.852.307-1.874-1.1-2.84-.689,1.759-1.825,3.38-1.89,5.045-.286,7.389-.965,14.735,2.13,21.961,3.394,7.924,2.28,16.379,1.295,24.7-1.182,9.988-5.42,19.661-4.3,29.818,1.654,15.02-1.395,29.574-3.09,44.283-.478,4.154.543,8.191.917,12.274.125,1.379.142,2.406-1.285,2.855-1.74.547-3.538,1.529-5.32.24-1.233-.894-.6-2.1-.316-3.276,2.056-8.636,1.683-17.274.63-26.046a105.445,105.445,0,0,1-.722-22.593,177.22,177.22,0,0,0-.22-30.243c-.247-3.175-.184-6.375-.321-9.563-.053-1.217.306-2.549-.471-3.679-1.127.365-.967,1.118-.982,1.713-.332,12.346-1.611,24.767-.7,37.018.978,13.121-.733,25.914-1.555,38.848a43.439,43.439,0,0,0,1.655,14.158c.361,1.312.915,2.667-.381,3.664-1.443,1.111-3.021.41-4.571.018-1.7-.43-2.032-1.626-1.8-3.045,2.213-13.794-1.74-27.134-2.96-40.673-.326-3.607.229-7.152.574-10.71,1-10.221-1.594-20.024-3.382-29.937-2.089-11.6-2.507-23.019,1.752-34.489,2.678-7.213,2.018-14.9-1.8-22.106-.649,4.766-1.626,9.514-1.874,14.3-.445,8.384-2.422,16.518-3.634,24.773a11.726,11.726,0,0,0,.9,6.1C1242.048-120.026,1243.069-118.254,1243.005-116.225Z" transform="translate(15.379 0.013)" fill="#727997"/>
    <path id="Trazado_10504" data-name="Trazado 10504" d="M1215.853-122.035c-1.772,7.823-1.287,14.986-1.356,22.124-.172,18,.164,36.016-1.451,53.985a52.09,52.09,0,0,0,1.394,15.794c.327,1.5.915,3.326-.942,4.276-1.707.874-3.437.029-4.934-.748-1.8-.938-.8-2.509-.474-3.882,2.1-8.724.669-17.418-.307-26.107-.885-7.872-2.041-15.613-1.517-23.7.6-9.294-.695-18.614-2.812-27.907-2.538-11.145-4.36-22.679,1.508-33.734,2.995-5.648,1.276-11.749.535-17.612-.37-2.938-.631-6.061-2.445-9.1a51.734,51.734,0,0,0-2.534,14.458c-.431,8.669-2.672,17.014-3.685,25.562a7.348,7.348,0,0,0,1,5.188,13.179,13.179,0,0,1,1.785,7.514c-1.474-.2-.669-2.133-2.3-2.28-.16,1.865.7,3.437,1.311,5.075.334.9,1.535,2.06.171,2.73-1.125.554-1.783-.847-2.36-1.681a19.58,19.58,0,0,1-3.371-10.041c-.911-12.8.76-25.4,2.74-37.985.647-4.112.315-8.224.357-12.335a24.913,24.913,0,0,1,1.365-8.6c.5-1.339,1.359-3.58,2.135-3.615,4.251-.191,4.469-3.649,5.8-6.283,1.759-3.467.9-6.962.407-10.52a34.38,34.38,0,0,1-.057-6.367c.286-5.795,3.768-9.7,8.787-9.993,6.714-.388,9.8,2.156,11.289,8.51.988,4.208.057,8.182-.559,12.2-.348,2.269-.14,4.471,1.2,6.047,1.46,1.722,1.424,3.075.068,4.686,6.474,1.424,7.815,2.786,8.65,9.155a83.417,83.417,0,0,1,.736,9.9,119.522,119.522,0,0,0,2.037,20.917c1.689,8.988.86,18.3.269,27.438a11.553,11.553,0,0,1-5.632,9.18c-.273-3.251,2.185-5.431,1.817-8.215-1.4-.2-.939,1.833-2.189,1.7a5.618,5.618,0,0,1,.669-4.6c3.287-5.009,1.626-10.1.826-15.287-1.464-9.551-2.71-19.134-4.026-28.707a6.171,6.171,0,0,0-1.4-3.93c-2.1,9.235-5.089,18.361-1.34,26.911,4,9.112,4.208,18.054,2.409,27.221a218.809,218.809,0,0,0-4.245,29.857,69.2,69.2,0,0,0,.533,7.913c.613,10.152-2.075,20.015-2.668,30.072-.321,5.45-1.052,10.817.766,16.141.514,1.51.992,3.323-.9,4.2-1.508.7-3.287,1.609-4.937.539-1.7-1.1-.957-2.8-.585-4.345,2.042-8.532,1.292-17.171.881-25.782-.342-7.127-1.318-14.208-.691-21.394a70.566,70.566,0,0,0-.288-12.7c-.478-5.094.288-10.3.414-15.461A67.377,67.377,0,0,0,1215.853-122.035Z" transform="translate(0 0.021)" fill="#727997"/>
  </g>
</svg>
