<svg xmlns="http://www.w3.org/2000/svg" width="257.405" height="212" viewBox="0 0 257.405 212">
  <g id="Grupo_15636" data-name="Grupo 15636" transform="translate(-940.215 244.664)">
    <path id="Trazado_24672" data-name="Trazado 24672" d="M990.728-32.664H978.482c-.211-2.4-.5-4.774-.489-7.214.036-7.62,1.576-15.25.131-22.854a39.878,39.878,0,0,1,.68-18.161,17.392,17.392,0,0,0-.463-11.6c-1.285-3.1-1.369-6.477-1.248-9.8.281-7.673-1.291-15.225-1.408-22.871-.014-.985.066-2.339-1.328-2.328-1.426.012-1.184,1.384-1.253,2.352-.279,3.94-.213,7.936-.872,11.81-1.2,7.046.684,14.366-1.88,21.228a18.226,18.226,0,0,0-.434,10.876c1.067,4.6,2.294,9.224,1.338,13.978-2.317,11.512-.006,23.061-.428,34.585H957.818c.483-1.405-.019-3.126,1.29-4.259,3.85-3.329,3.621-7.591,2.742-11.979-.7-3.5-1.454-6.983-2.232-10.464-1.638-7.313-4.5-14.521-3.158-22.17,1.445-8.238.26-16.158-1.313-24.233a102.173,102.173,0,0,1,.542-43.269c2.431-10.3,1.549-20.253-.86-30.379-1.758,5.823-4.143,11.727-4.067,17.6a91.775,91.775,0,0,1-2.738,23.79c-.434,1.728-.718,3.593.411,5.183a9.917,9.917,0,0,1,1.912,6.095c-.041,1.548,2.595,3.8-.126,4.455-2.19.527-1.6-2.67-2.571-4-.1-.132-.418-.1-.793-.177a6.244,6.244,0,0,0,1.881,6.821c.764.747,2.247,1.592,1.322,2.76-.86,1.086-2.06-.239-3.048-.575-3.275-1.114-5.366-3.24-5.675-6.9-.114-1.351-.055-2.84-1.122-3.96v-3.061c2.458-5.868,1.417-11.736,0-17.6v-11.48a12.193,12.193,0,0,0,1.682-8.418c-1.339-8.714,1.209-16.883,2.68-25.231.983-5.582,3.984-9.145,9.433-10.791,3.155-.953,6.261-2.1,9.315-3.344,3.583-1.458,5.821-5.117,4.258-7.234-1.672-2.265-1.752-5.246-3.942-7.3a3.913,3.913,0,0,1-.673-4.622c1.161-1.7,1.023-3.37.842-5.083-.582-5.464,1.442-9.51,6.256-12.16h7.653c2.973,1.5,6.09,2.978,6.871,6.622.833,3.891-.177,8,1.431,11.879a4.133,4.133,0,0,1-.909,3.559c-1.405,1.477-1.849,3.264-2.624,4.986-2.329,5.178-1.106,8,4.325,9.844,3.253,1.106,6.462,2.343,9.686,3.535,3.01,1.112,5.738,2.95,6.457,6.063,1.882,8.139,5.1,16.115,4.208,24.691a36.872,36.872,0,0,0,.57,11.388,41.168,41.168,0,0,1,.331,13.312,86.249,86.249,0,0,0-.192,17.111c.615,7.833-.378,12.536-5.934,14.121-1.084.309-2.311,2-3.3.5-.712-1.084.781-1.97,1.575-2.731a5.512,5.512,0,0,0,1.422-6.647A15.114,15.114,0,0,0,999.973-123a1.34,1.34,0,0,1-1.911.717c-.637-.34-.617-1.031-.415-1.683a11.139,11.139,0,0,0,.534-1.832c.691-5.368,4.336-10.206,1.934-16.175-2.355-5.848-2.173-12.151-1.965-18.468.211-6.419-2.448-12.438-3.729-18.778-.643.3-.825.323-.855.4a8.132,8.132,0,0,0-.456,1.432,77.223,77.223,0,0,0,.4,30.178,102.519,102.519,0,0,1-.067,42.913c-1.337,6.523-2.64,12.981-1.4,19.678,1.236,6.658.381,13.157-1.436,19.639a118.086,118.086,0,0,0-4.055,19.049c-.336,3.084.075,5.835,2.393,8.086A5.611,5.611,0,0,1,990.728-32.664Z" transform="translate(0 0)" fill="#727997"/>
    <path id="Trazado_24673" data-name="Trazado 24673" d="M1087.958-33.037c.4-1.056.151-2.351,1.063-3.212,3.932-3.707,3.936-8.253,3.014-13.112-1.21-6.386-2.142-12.826-3.375-19.206a52.429,52.429,0,0,1,.006-21.262c1.853-8.589-1.249-16.643-2.829-24.851-.7-3.627-1.817-7.179-2.411-10.818-1.5-9.194.694-17.638,5.2-25.711,5.391-9.649,3.246-19.309-.078-28.864l-1.084-.07c-.36,3.183-1.153,6.388-.993,9.544.406,8-1.868,15.371-4.567,22.694-2.223,6.031-4.322,11.9-.83,18.378,1.35,2.5-.24,5.554-1.144,8.423-1.928-1.072-.411-2.853-1.559-4.067-2.214,3.4.453,5.641,1.995,8.334-3.645.273-5.2-1.77-6.133-4.388a19.869,19.869,0,0,1-.885-8.316c1.375-17.4,2.678-34.815,5.86-52.017a71.2,71.2,0,0,0,.729-11.44c.108-4.957,2.18-7.621,7.011-8.623a40.988,40.988,0,0,0,8.979-3.176c3.319-1.545,4.17-4.9,1.974-7.774-1.777-2.328-2.91-5.036-4.731-7.373-1.066-1.368-2.066-3.668-.17-5.582.9-.913.659-2.144.851-3.252.627-3.607,1.686-7,5.144-8.937,1.165-.651,1.307-1.773,1.836-2.76,1.369-2.55,4.605-3.371,5.906-1.147,1.527,2.609,3.96,4.2,5.636,6.519,2.51,3.467,2.278,7.918,3.9,11.754.507,1.205-.385,2.907-1.35,4.223-1.8,2.453-3.5,4.989-5.075,7.587-1.3,2.135-.029,5.356,2.645,6.663a40.232,40.232,0,0,0,8.975,3.2c5.082,1.129,7.165,3.763,7.1,8.9-.1,7.193,1.091,14.241,2.309,21.268a312.9,312.9,0,0,1,3.623,34.962c.08,1.341-.112,2.842.911,4.011v9.184c-1.592,2.777-2.186,6.627-7.13,6.48,1.532-2.793,4.182-5.14,1.714-8.392-1.242,1.21.648,3.173-1.444,4.2-.721-3-2.462-6.024-1.05-8.656,3-5.59,1.9-10.788-.141-16.188-3.068-8.129-5.73-16.324-5.3-25.24.144-3-.645-6.045-1.009-9.07l-1.056.109c-3.692,10.411-5.135,20.727.923,31.062,5.1,8.7,5.739,18.062,3.421,27.75-1.306,5.453-2.571,10.918-3.734,16.4-1.194,5.635-1.809,11.246-.429,17.03a41.553,41.553,0,0,1,.135,16.724c-1.4,8.164-2.785,16.331-4.108,24.508-.481,2.973-.327,5.943,1.8,8.318a15.225,15.225,0,0,1,2.871,5.268h-11.481c0-2.285-.359-4.642.073-6.843,1.742-8.865.263-17.491-1.527-26.117a32.114,32.114,0,0,1,.325-15.13,31.3,31.3,0,0,0,.381-14.019c-1.869-10.075-5.6-19.973-2.748-30.485.4-1.484-.775-1.689-1.85-1.648-1.022.039-1.721.517-1.4,1.713,2.523,9.552-.186,18.678-2.232,27.864a34.838,34.838,0,0,0-.007,17.024,27.179,27.179,0,0,1,.228,14.371c-2.976,11.035-2.143,22.134-1.187,33.269Z" transform="translate(62.21 0.373)" fill="#727997"/>
    <path id="Trazado_24674" data-name="Trazado 24674" d="M1009.872-32.664a13.257,13.257,0,0,1-.125-7.39c1.09-4.824.253-9.624-1.011-14.362-1.981-7.415-3.707-14.885-2.622-22.648.685-4.9,2.381-9.6,2.865-14.577a18.8,18.8,0,0,0-.1-6.384c-1.666-6.929-2.068-13.864.07-20.786a10.611,10.611,0,0,0-1.088-8.481c-3.7-6.851-3.8-13.641.5-20.284a10.96,10.96,0,0,0,1.569-6.192,64.434,64.434,0,0,0-5.027-24.579,43.842,43.842,0,0,1-3.206-10.586c-.77-5.731-.389-11.184,3.465-15.947a30.586,30.586,0,0,0,3.3-5.144c1.728-3.331,2.287-6.867.149-10.191-7.286-11.326-5.972-17.86,5.082-24.45h7.654c6.942,3.763,9.128,9.816,8.343,17.3-.039.376-.188.906,0,1.116,3.8,4.331-.594,8.42-.406,12.66.111,2.505-2.127,1.837-3.742,1.831-1.192,0-2.959-1.756-3.464.441-.4,1.743-1.815,3.957.672,5.532a22.992,22.992,0,0,1,2,1.772c10.246,8.329,12.515,19.329,10.825,31.762-.906,6.66-1.284,13.426-2.061,20.048-1.917,16.322-.614,33.128-6.685,48.909-1.79,4.652-1.967,9.794-2.959,14.552-2.1,10.086-1.746,20.463-4.484,30.39a21.522,21.522,0,0,0-.492,4.934c-.32,9.061,5.481,16.018,14.517,16.961,2.748.287,4,.936,3.251,3.788Z" transform="translate(26.47 0)" fill="#727997"/>
    <path id="Trazado_24675" data-name="Trazado 24675" d="M1040.641-33.015c-.717-2.118-.6-3.612,2.2-3.912a31.061,31.061,0,0,0,5.537-1.433c4.337-1.31,6.752-4.034,7.226-8.759,1.091-10.888-.574-21.641-1.215-32.444a9.477,9.477,0,0,0-1.118-2.789c-.444-1.049-1.428-2.189-1.261-3.125,1.631-9.128-3.579-17-4.557-25.656-.8-7.032-.011-13.946.113-20.92.212-12.016,4.43-23.962.868-36.052a7.047,7.047,0,0,1-.155-2.66c.262-2.464-.489-3.477-3.232-3.863-4.931-.7-6.218-4.555-3.2-8.612,4.247-5.713,7.261-12.265,12.417-17.391,2.316-2.3,1.283-5.517.247-8.343-.9-2.451-2.993-2.008-4.858-1.882-2.275.154-3.137-.4-3.558-3.028-.326-2.03.1-4.659-1.882-6.36a1.075,1.075,0,0,1-.031-1.048c3.054-2.816,2.385-6.805,3.24-10.289,1.734-7.063,6.219-8.006,13.607-7.985,1.96.006,3.49.386,4.784-1.764,1.2-2,3.461-2.2,5.349-.706,2.016,1.595,2.185,3.7.606,5.73-.794,1.02-1.639,1.669-.979,3.273,2.337,5.669-.112,10.2-3.968,14.138-4.209,4.3-4.588,6.361-1.82,11.733,1.4,2.716,3.627,4.926,4.6,7.91,2.084,6.38,2.407,12.7.077,19.118a58.115,58.115,0,0,0-3.323,13.314c-.9,7.893.27,15.155,4.491,22,4.157,6.744,3.457,13.386-1.465,19.535a7.609,7.609,0,0,0-1.551,5.705c.666,9.228.183,18.347-2.825,27.206-.882,2.593.03,5.251,1,7.411,3.719,8.3,2.326,16.609.245,24.754-1.976,7.734-4.53,15.229-.622,23.042.862,1.724-.7,2.806-1.264,4.15Z" transform="translate(42.504 0.351)" fill="#727997"/>
  </g>
</svg>
