<svg xmlns="http://www.w3.org/2000/svg" width="1163.635" height="130.057" viewBox="0 0 1163.635 130.057">
  <g id="Grupo_1061049" data-name="Grupo 1061049" transform="translate(0 0.677)">
    <path id="Trazado_18" data-name="Trazado 18" d="M197.761,3103.235H398.5" transform="translate(-195.583 -3080.171)" fill="none" stroke="#000" stroke-width="7"/>
    <path id="Trazado_30" data-name="Trazado 30" d="M0,0H125.675" transform="translate(434.081 128.105) rotate(-90)" fill="none" stroke="#000" stroke-width="7"/>
    <path id="Trazado_51" data-name="Trazado 51" d="M0,0H125.675" transform="translate(227.43 128.105) rotate(-90)" fill="none" stroke="#000" stroke-width="8"/>
    <path id="Trazado_52" data-name="Trazado 52" d="M0,0H125.675" transform="translate(202.916 128.105) rotate(-90)" fill="none" stroke="#000" stroke-width="8"/>
    <path id="Trazado_53" data-name="Trazado 53" d="M0,0H125.675" transform="translate(415.598 128.105) rotate(-90)" fill="none" stroke="#000" stroke-width="8"/>
    <path id="Trazado_54" data-name="Trazado 54" d="M0,0H125.675" transform="translate(674.862 128.105) rotate(-90)" fill="none" stroke="#000" stroke-width="8"/>
    <path id="Trazado_55" data-name="Trazado 55" d="M0,0H125.675" transform="translate(917.07 128.105) rotate(-90)" fill="none" stroke="#000" stroke-width="7"/>
    <path id="Trazado_56" data-name="Trazado 56" d="M0,0H125.675" transform="translate(931.473 128.105) rotate(-90)" fill="none" stroke="#000" stroke-width="8"/>
    <path id="Trazado_35" data-name="Trazado 35" d="M0,0H125.675" transform="translate(510.979 128.105) rotate(-90)" fill="none" stroke="#000" stroke-width="7"/>
    <path id="Trazado_40" data-name="Trazado 40" d="M0,0H125.675" transform="translate(592.272 128.105) rotate(-90)" fill="none" stroke="#000" stroke-width="7"/>
    <path id="Trazado_23" data-name="Trazado 23" d="M0,0H221.94" transform="matrix(0.839, 0.545, -0.545, 0.839, 229.379, 3.9)" fill="none" stroke="#000" stroke-width="7"/>
    <path id="Trazado_24" data-name="Trazado 24" d="M0,0H182.441" transform="matrix(0.839, 0.545, -0.545, 0.839, 227.786, 25.989)" fill="none" stroke="#000" stroke-width="7"/>
    <path id="Trazado_27" data-name="Trazado 27" d="M0,0H163.49" transform="matrix(0.839, 0.545, -0.545, 0.839, 278.348, 3.9)" fill="none" stroke="#000" stroke-width="7"/>
    <path id="Trazado_28" data-name="Trazado 28" d="M0,0H111.134" transform="matrix(0.839, 0.545, -0.545, 0.839, 322.551, 4.346)" fill="none" stroke="#000" stroke-width="7"/>
    <path id="Trazado_29" data-name="Trazado 29" d="M0,0H59.1" transform="matrix(0.839, 0.545, -0.545, 0.839, 365.984, 4.346)" fill="none" stroke="#000" stroke-width="7"/>
    <path id="Trazado_25" data-name="Trazado 25" d="M0,0H140.413" transform="matrix(0.839, 0.545, -0.545, 0.839, 227.774, 48.867)" fill="none" stroke="#000" stroke-width="7"/>
    <path id="Trazado_26" data-name="Trazado 26" d="M0,0H82.164" transform="matrix(0.839, 0.545, -0.545, 0.839, 229.339, 80.423)" fill="none" stroke="#000" stroke-width="7"/>
    <path id="Trazado_19" data-name="Trazado 19" d="M197.761,3103.235H398.5" transform="translate(-195.583 -3058.871)" fill="none" stroke="#000" stroke-width="7"/>
    <path id="Trazado_31" data-name="Trazado 31" d="M0,0H125.675" transform="translate(449.93 128.105) rotate(-90)" fill="none" stroke="#000" stroke-width="7"/>
    <path id="Trazado_36" data-name="Trazado 36" d="M0,0H125.675" transform="translate(526.828 128.105) rotate(-90)" fill="none" stroke="#000" stroke-width="7"/>
    <path id="Trazado_41" data-name="Trazado 41" d="M0,0H125.675" transform="translate(608.121 128.105) rotate(-90)" fill="none" stroke="#000" stroke-width="7"/>
    <path id="Trazado_20" data-name="Trazado 20" d="M197.761,3103.235H398.5" transform="translate(-195.583 -3037.571)" fill="none" stroke="#000" stroke-width="7"/>
    <path id="Trazado_32" data-name="Trazado 32" d="M0,0H125.675" transform="translate(465.779 128.105) rotate(-90)" fill="none" stroke="#000" stroke-width="7"/>
    <path id="Trazado_37" data-name="Trazado 37" d="M0,0H125.675" transform="translate(542.677 128.105) rotate(-90)" fill="none" stroke="#000" stroke-width="7"/>
    <path id="Trazado_42" data-name="Trazado 42" d="M0,0H125.675" transform="translate(623.97 128.105) rotate(-90)" fill="none" stroke="#000" stroke-width="7"/>
    <path id="Trazado_21" data-name="Trazado 21" d="M197.761,3103.235H398.5" transform="translate(-195.583 -3014.692)" fill="none" stroke="#000" stroke-width="7"/>
    <path id="Trazado_33" data-name="Trazado 33" d="M0,0H125.675" transform="translate(482.803 128.105) rotate(-90)" fill="none" stroke="#000" stroke-width="7"/>
    <path id="Trazado_38" data-name="Trazado 38" d="M0,0H125.675" transform="translate(559.701 128.105) rotate(-90)" fill="none" stroke="#000" stroke-width="7"/>
    <path id="Trazado_43" data-name="Trazado 43" d="M0,0H125.675" transform="translate(640.993 128.105) rotate(-90)" fill="none" stroke="#000" stroke-width="7"/>
    <path id="Trazado_22" data-name="Trazado 22" d="M197.761,3103.235H398.5" transform="translate(-195.583 -2995.759)" fill="none" stroke="#000" stroke-width="7"/>
    <path id="Trazado_34" data-name="Trazado 34" d="M0,0H125.675" transform="translate(496.891 128.105) rotate(-90)" fill="none" stroke="#000" stroke-width="7"/>
    <path id="Trazado_39" data-name="Trazado 39" d="M0,0H125.675" transform="translate(573.789 128.105) rotate(-90)" fill="none" stroke="#000" stroke-width="7"/>
    <path id="Trazado_44" data-name="Trazado 44" d="M0,0H125.675" transform="translate(655.082 128.105) rotate(-90)" fill="none" stroke="#000" stroke-width="7"/>
    <path id="Trazado_45" data-name="Trazado 45" d="M1073.237,3077.079s102.737,53.594,205.981,0" transform="translate(-379.248 -3074.65)" fill="none" stroke="#000" stroke-width="7"/>
    <path id="Trazado_46" data-name="Trazado 46" d="M1073.237,3077.079s120.953,53.594,242.5,0" transform="translate(-398.134 -3050.83)" fill="none" stroke="#000" stroke-width="7"/>
    <path id="Trazado_47" data-name="Trazado 47" d="M1073.237,3077.079s120.953,53.594,242.5,0" transform="translate(-398.134 -3031.108)" fill="none" stroke="#000" stroke-width="7"/>
    <path id="Trazado_48" data-name="Trazado 48" d="M1073.237,3077.079s120.953,53.594,242.5,0" transform="translate(-398.134 -3011.023)" fill="none" stroke="#000" stroke-width="7"/>
    <path id="Trazado_49" data-name="Trazado 49" d="M1073.237,3077.079s120.953,53.594,242.5,0" transform="translate(-398.134 -2987.993)" fill="none" stroke="#000" stroke-width="7"/>
    <path id="Trazado_50" data-name="Trazado 50" d="M1373.494,3102.659h209.73v77.419H1390.812v-63.441h176.561v48.318H1408.452V3132.4H1549.64v17.738H1421.1" transform="translate(-442.196 -3080.05)" fill="none" stroke="#000" stroke-width="7"/>
    <g id="Rectángulo_22" data-name="Rectángulo 22" transform="translate(0 0)" fill="none" stroke="#000" stroke-width="8">
      <rect width="1163.635" height="129.38" stroke="none"/>
      <rect x="4" y="4" width="1155.635" height="121.38" fill="none"/>
    </g>
  </g>
</svg>
