<svg xmlns="http://www.w3.org/2000/svg" width="361.022" height="412.81" viewBox="0 0 361.022 412.81">
  <g id="Grupo_1069629" data-name="Grupo 1069629" transform="translate(-983.861 -6751.492)">
    <g id="Grupo_1069628" data-name="Grupo 1069628">
      <g id="Grupo_1069627" data-name="Grupo 1069627">
        <g id="Grupo_1069626" data-name="Grupo 1069626">
          <g id="Grupo_1054843" data-name="Grupo 1054843">
            <g id="BACKGROUND" transform="translate(1344.883 6830.684) rotate(107)" opacity="0.38">
              <g id="Grupo_32241" data-name="Grupo 32241" transform="translate(0 0)">
                <path id="Trazado_61861" data-name="Trazado 61861" d="M47.518,201.785c17.242.56,33.914-5.121,50.407-9.88s34.145-8.671,50.839-4.578c22.445,5.5,38.1,24.007,52.166,41.355s29.968,35.746,52.519,40.852c21.058,4.768,43.777-3.779,59.1-18.171s24.172-33.847,29.692-53.543c13.672-48.786,7.073-105.031-28.45-142.84C285.375,24.73,242.473,9.872,200.095,3.45c-30.57-4.633-62.351-5.406-92.077,2.743-36.167,9.915-67.952,33.285-86.91,63.9C-1.1,105.95-21.686,199.536,47.518,201.785Z" transform="translate(0 0)" fill="#fff"/>
                <path id="Trazado_61862" data-name="Trazado 61862" d="M44.844.012C62.78-.32,82.093,6.282,95.509,15.646c7.437,5.191,14.086,11.805,18.055,19.96s5.019,17.976,1.559,26.36C110.131,74.062,97,80.906,84.141,83.351A76.125,76.125,0,0,1,27.077,71.16C15.557,63.127,3.479,51.692.489,37.386-2.733,21.971,10.541,10.145,23.606,4.368A55,55,0,0,1,44.844.012Z" transform="translate(59.546 206.419)" fill="#fff"/>
              </g>
            </g>
            <g id="Grupo_15721" data-name="Grupo 15721" transform="translate(1083.871 6776.587)">
              <g id="Grupo_15708" data-name="Grupo 15708" transform="translate(0 0)">
                <g id="Grupo_15707" data-name="Grupo 15707" transform="translate(3.677)">
                  <path id="Trazado_24755" data-name="Trazado 24755" d="M284.57-144.747s-.138,19.556-1.248,20.249-19.276,9.986-22.051,13.731,4.715,41.05,8.876,55.474,5.41,19.416,5.41,19.416,14.7,5.27,29.4,4.993,16.919-1.663,16.919-1.663,6.24-47.433,6.38-51.453-9.848-32.592-10.541-33.98-11.651-5.27-11.926-7.35-.418-12.066-.418-12.066l-21.219-7.21" transform="translate(-234.885 185.974)" fill="#ff926d"/>
                  <path id="Trazado_24756" data-name="Trazado 24756" d="M298.614-120.478c-5.831,7.631-13.876,15.816-18.169,28.012s-11.231,37.725-11.231,37.725.13,8.6.692,18.581,2.212,20.8,2.212,20.8,6.938,7.35,7.078,10.266a20.279,20.279,0,0,1-.975,7.21c-.412.835-1.1,1.388-1.8-1.248a27.325,27.325,0,0,0-2.915-6.1,79.491,79.491,0,0,0,2.775,10.678c1.67,4.586,2.765,5.691,1.94,7.008a1.423,1.423,0,0,1-1.318.814,1.1,1.1,0,0,1-.412-.091,2.755,2.755,0,0,1-.189.734,1.9,1.9,0,0,1-.293.552,3.573,3.573,0,0,1-1.727.786h-.01l-.213.049a1.249,1.249,0,0,1-.179.776,1.847,1.847,0,0,1-.646.612c-.7.4-2.14-.444-2.874-.934l-.01-.01c-.272-.182-.444-.314-.444-.314s.06.342-.511.4a3.68,3.68,0,0,1-1.157-.122c-1.8-.412-5.128-4.575-6.938-10.818s-1.248-14.841-1.248-14.841-9.983-37.162-9.291-44.373,6.243-52.849,8.326-60.469,4.293-7.633,12.618-12.761,28.847-9.713,28.847-9.713S304.437-128.1,298.614-120.478Z" transform="translate(-250.729 197.903)" fill="#ff926d"/>
                  <path id="Trazado_24757" data-name="Trazado 24757" d="M327.2,1.254a11.022,11.022,0,0,1-1.621,3.369,7.375,7.375,0,0,1-.895,1.115,1.326,1.326,0,0,1-.4.3c-.392.132-1.035.342-1.447.482-.252.091-.423.143-.423.143a3.783,3.783,0,0,1-.311.27c-.6.493-1.919,1.307-2.394-.27-.622-2.083-1.668-8.951-3.125-13.313a52.294,52.294,0,0,0-1.87-5.2s-2.282,9.773-3.54,9.15-2.283-3.953-2.07-7.906a35.33,35.33,0,0,1,2.282-9.148S294.12-59.487,292.452-65.52,277.479-137.5,277.479-137.5s32.87,13.736,33.907,17.476,3.328,9.983,3.115,29.127-1.035,22.251-1.035,22.251,8.326,48.063,8.948,48.686,3.328,3.74,4.788,9.773A22.158,22.158,0,0,1,327.2,1.254Z" transform="translate(-208.097 197.52)" fill="#ff926d"/>
                  <path id="Trazado_24758" data-name="Trazado 24758" d="M273.357-78.58s1.873,58.456,1.455,59.5-7.558,21.359-7.765,27.807,4.023,50.828,4.438,52.493-10.608,19.139-10.608,21.844,7.7,3.953,12.273,3.953,6.448-.21,6.866-1.25,1.455-24.132,1.455-26S288.128,14.2,290,4.008a53.737,53.737,0,0,0-.418-19.764S297.7-64.226,298.736-79,283.968-93.143,279.6-89.605,273.357-78.58,273.357-78.58Z" transform="translate(-234.557 270.492)" fill="#ff926d"/>
                  <path id="Trazado_24759" data-name="Trazado 24759" d="M276.115-84.347s8.528,69.482,8.321,70.522-3.953,24.132-3.745,27.877,11.236,47.361,10.818,49.233-3.328,15.881-1.248,18.376,39.733,3.538,41.605,2.08-.833-6.448-5.823-7.488-4.578-.418-4.578-.418S304.407,63.91,303.782,61s-3.605-72.117-3.605-72.117,2.913-27.6,2.5-50.483-3.053-32.1-3.053-32.1Z" transform="translate(-210.271 267.314)" fill="#ff926d"/>
                  <g id="Grupo_15687" data-name="Grupo 15687" transform="translate(49.27 41.227)">
                    <path id="Trazado_24760" data-name="Trazado 24760" d="M291.323-125.5c-.278-2.08-.418-12.066-.418-12.066l-20.807-7.07c-.01,1.385-.083,7.8-.35,13a15.468,15.468,0,0,0,8.813,6.137,41.805,41.805,0,0,0,13.124.654A1.308,1.308,0,0,1,291.323-125.5Z" transform="translate(-269.687 144.919)" fill="#c1b1b3" style="mix-blend-mode: multiply;isolation: isolate"/>
                    <path id="Trazado_24761" data-name="Trazado 24761" d="M269.725-144.607l.412.14,0-.28Z" transform="translate(-269.725 144.747)" fill="#c1b1b3" style="mix-blend-mode: multiply;isolation: isolate"/>
                  </g>
                  <path id="Trazado_24762" data-name="Trazado 24762" d="M267.708-151.407c-1.663,1.943-1.385,19,.833,23.3s9.986,18.444,14.286,19.971,15.949,1.525,17.474-.7,5.688-21.911,6.38-29.124-.555-17.614-4.715-19.276S269.373-153.347,267.708-151.407Z" transform="translate(-225.373 165.59)" fill="#ff926d"/>
                  <path id="Trazado_24763" data-name="Trazado 24763" d="M273.307-124.338a8.774,8.774,0,0,0,4.715-6.31,31.222,31.222,0,0,0-.555-12.066s11.293,3.616,20.941,2.5c9.571-1.11,11.2-3.26,11.2-3.26s.521,2.809,1.04,6.762a82.66,82.66,0,0,1,.207,10.922s2.184-11.129,2.6-14.146a15.323,15.323,0,0,0,.1-4.578,8.834,8.834,0,0,0,2.288-4.993c.508-4.972-1.144-9.674-7.592-10.714s-20.7,4.163-20.7,4.163,2.054-4.72-1.248-4.578c-4.785.208-14.042,11.547-14.042,11.547s-4.889-3.434-7.594-1.458-.617,6.829,1.458,9.778c1.976,2.809,2.913,4.056,2.913,4.056A3.036,3.036,0,0,0,265.4-133.8c-.415,3.535,2.288,7.8,3.431,9.257S273.307-124.338,273.307-124.338Z" transform="translate(-230.554 160.642)" fill="#bb5a38"/>
                  <path id="Trazado_24764" data-name="Trazado 24764" d="M273.678-144.67s-4.853-5.13-7.628-4.3-.739,12.514,1.805,12.621c3.328.137,5.408-2.775,6.24-4.44S273.678-144.67,273.678-144.67Z" transform="translate(-228.431 179.102)" fill="#ff926d"/>
                  <path id="Trazado_24765" data-name="Trazado 24765" d="M321.06-133.006l-3.758-1.548c-1.777,7.672-6.754,18.952-20.651,18.677-16.88-.335-24.49-14.493-26.832-20.049l-8.811,3.061c6.03,5.929,8.131,16.055,8.323,24.155.127,5.5-.887,13.651-5.421,17.248l.01.062c.833,4.023,8.715,36.638,11.1,42.163,5.958,2.848,12.826,3.852,19.323,4.451,11.882,1.1,25.61.078,26.72-1.956l.555.418c0-3.411,5.289-46.707,5.908-53.559C325.133-111.811,324.113-119.831,321.06-133.006Z" transform="translate(-234.345 200.03)" fill="#fadee1"/>
                  <g id="Grupo_15688" data-name="Grupo 15688" transform="translate(63.244 105.095)">
                    <path id="Trazado_24766" data-name="Trazado 24766" d="M275.508-116.835a78.08,78.08,0,0,1,11.669-1.626c2.513-.259,5.029-.5,7.548-.69a58.936,58.936,0,0,0,6.129-.514c.228-.042.143-.348-.049-.371a33.185,33.185,0,0,0-6.393.254q-3.867.311-7.729.726a76.894,76.894,0,0,0-11.342,1.605.319.319,0,0,0,.169.615Z" transform="translate(-275.113 120.122)" fill="#d7cdce"/>
                  </g>
                  <g id="Grupo_15689" data-name="Grupo 15689" transform="translate(45.975 109.712)">
                    <path id="Trazado_24767" data-name="Trazado 24767" d="M268.767-117.574c.584.005,1.167.054,1.751.049a5.114,5.114,0,0,0,.869-.06,2.1,2.1,0,0,0,.83-.319c.179-.119.13-.456-.119-.438-.132.008-.265,0-.4.016s-.27.042-.407.054c-.278.026-.555.052-.835.06-.563.013-1.126-.018-1.691-.01a.324.324,0,0,0,0,.648Z" transform="translate(-268.455 118.342)" fill="#d7cdce"/>
                  </g>
                  <g id="Grupo_15690" data-name="Grupo 15690" transform="translate(44.594 257.299)" style="mix-blend-mode: multiply;isolation: isolate">
                    <path id="Trazado_24768" data-name="Trazado 24768" d="M268.3-60.227a10.367,10.367,0,0,0,2.659-.029,5.629,5.629,0,0,0,2.461-.687c.163-.106.171-.423-.06-.459a7.284,7.284,0,0,0-2.474.27,9.937,9.937,0,0,1-2.586.15.381.381,0,0,0-.376.376.387.387,0,0,0,.376.379Z" transform="translate(-267.922 61.44)" fill="#c1b1b3"/>
                  </g>
                  <g id="Grupo_15691" data-name="Grupo 15691" transform="translate(48.746 259.137)" style="mix-blend-mode: multiply;isolation: isolate">
                    <path id="Trazado_24769" data-name="Trazado 24769" d="M269.91-59.96c.236,0,.469,0,.706-.021l.353-.039a.858.858,0,0,0,.215-.044l.174-.062a.231.231,0,0,0,0-.441l-.174-.062a.991.991,0,0,0-.215-.044c-.117-.013-.233-.026-.353-.036a6.408,6.408,0,0,0-.706-.021.39.39,0,0,0-.386.384.393.393,0,0,0,.386.386Z" transform="translate(-269.523 60.731)" fill="#c1b1b3"/>
                  </g>
                  <g id="Grupo_15692" data-name="Grupo 15692" transform="translate(85.068 255.084)" style="mix-blend-mode: multiply;isolation: isolate">
                    <path id="Trazado_24770" data-name="Trazado 24770" d="M283.926-61.34a15.308,15.308,0,0,0,1.655.026,3.711,3.711,0,0,0,.845-.117,2.338,2.338,0,0,0,.392-.137,1.985,1.985,0,0,0,.348-.259.27.27,0,0,0-.189-.456c-.117,0-.236-.016-.353-.008s-.241.036-.361.049c-.277.026-.49.067-.763.088-.524.036-1.05.023-1.574.016a.4.4,0,0,0-.4.4.4.4,0,0,0,.4.4Z" transform="translate(-283.527 62.294)" fill="#c1b1b3"/>
                  </g>
                  <g id="Grupo_15693" data-name="Grupo 15693" transform="translate(38.566 350.159)" style="mix-blend-mode: multiply;isolation: isolate">
                    <path id="Trazado_24771" data-name="Trazado 24771" d="M266.425-19.331c.083-1,.132-2.02.278-3.016s.459-1.958.641-2.944a.277.277,0,0,0-.459-.267,4.681,4.681,0,0,0-1.185,2.972,16.86,16.86,0,0,0-.044,3.255.385.385,0,0,0,.77,0Z" transform="translate(-265.598 25.637)" fill="#c1b1b3"/>
                  </g>
                  <g id="Grupo_15694" data-name="Grupo 15694" transform="translate(33.507 351.48)" style="mix-blend-mode: multiply;isolation: isolate">
                    <path id="Trazado_24772" data-name="Trazado 24772" d="M264.245-20.56a8.44,8.44,0,0,1,.3-2.246c.093-.358.207-.713.337-1.063q.1-.257.2-.514a1.314,1.314,0,0,0,.112-.545.208.208,0,0,0-.35-.145,2.319,2.319,0,0,0-.54,1c-.137.376-.257.755-.358,1.141a9.01,9.01,0,0,0-.3,2.368.3.3,0,0,0,.6,0Z" transform="translate(-263.648 25.128)" fill="#c1b1b3"/>
                  </g>
                  <g id="Grupo_15695" data-name="Grupo 15695" transform="translate(29.785 350.969)" style="mix-blend-mode: multiply;isolation: isolate">
                    <path id="Trazado_24773" data-name="Trazado 24773" d="M263.161-22.407c.08-.223.161-.446.246-.669.041-.109.083-.218.127-.327l.031-.078c.049-.122-.023.052.008-.018l.075-.171c.093-.207.21-.4.306-.61.049-.106.109-.2.161-.309a2.6,2.6,0,0,0,.119-.363.294.294,0,0,0-.109-.314.309.309,0,0,0-.329-.023,1.187,1.187,0,0,0-.34.192,2.36,2.36,0,0,0-.223.259,3.511,3.511,0,0,0-.412.708c-.22.48-.4.975-.586,1.468a.482.482,0,0,0,.335.589.494.494,0,0,0,.591-.335Z" transform="translate(-262.212 25.325)" fill="#c1b1b3"/>
                  </g>
                  <g id="Grupo_15696" data-name="Grupo 15696" transform="translate(86.079 325.974)" style="mix-blend-mode: multiply;isolation: isolate">
                    <path id="Trazado_24774" data-name="Trazado 24774" d="M283.951-34.428A14.169,14.169,0,0,0,284-31.837a5.4,5.4,0,0,0,.314,1.323c.187.469.436,1,1,1.04a.376.376,0,0,0,.327-.187,1.608,1.608,0,0,0-.119-1.266c-.122-.376-.228-.765-.316-1.152a9.911,9.911,0,0,1-.189-2.35.538.538,0,0,0-.532-.534.542.542,0,0,0-.534.534Z" transform="translate(-283.917 34.962)" fill="#c1b1b3"/>
                  </g>
                  <g id="Grupo_15697" data-name="Grupo 15697" transform="translate(113.086 188.881)" style="mix-blend-mode: multiply;isolation: isolate">
                    <path id="Trazado_24775" data-name="Trazado 24775" d="M296.133-75.521a27.844,27.844,0,0,1-.15,2.863c-.252.091-.423.143-.423.143a3.783,3.783,0,0,1-.311.27c.031-.462.091-.923.13-1.377.062-.783.091-1.559.122-2.342a30.5,30.5,0,0,0,.031-3.338,78.834,78.834,0,0,0-1.2-8.235c-.049-.283.363-.4.433-.122a45.333,45.333,0,0,1,1.427,8.357A31.751,31.751,0,0,1,296.133-75.521Z" transform="translate(-294.329 87.819)" fill="#c1b1b3"/>
                  </g>
                  <g id="Grupo_15698" data-name="Grupo 15698" transform="translate(116.37 187.913)" style="mix-blend-mode: multiply;isolation: isolate">
                    <path id="Trazado_24776" data-name="Trazado 24776" d="M297.192-78.344a39.018,39.018,0,0,1-.431,4.041c-.021.112-.031.22-.052.342a7.375,7.375,0,0,1-.895,1.115c.143-.532.252-1.076.342-1.618a38.221,38.221,0,0,0,.444-3.981,27.157,27.157,0,0,0-1-9.514c-.07-.241.29-.329.371-.1A23.554,23.554,0,0,1,297.192-78.344Z" transform="translate(-295.595 88.192)" fill="#c1b1b3"/>
                  </g>
                  <g id="Grupo_15699" data-name="Grupo 15699" transform="translate(12.657 198.326)" style="mix-blend-mode: multiply;isolation: isolate">
                    <path id="Trazado_24777" data-name="Trazado 24777" d="M262.13-69.17s.06.342-.511.4c-.293-.373-.573-.744-.846-1.139a28.206,28.206,0,0,1-2.464-4.663,45.077,45.077,0,0,1-2.695-9.231c-.07-.381.493-.542.573-.161a56.212,56.212,0,0,0,2.845,9.15C259.739-73.19,262.13-69.17,262.13-69.17Z" transform="translate(-255.609 84.177)" fill="#c1b1b3"/>
                  </g>
                  <g id="Grupo_15700" data-name="Grupo 15700" transform="translate(15.986 197.142)" style="mix-blend-mode: multiply;isolation: isolate">
                    <path id="Trazado_24778" data-name="Trazado 24778" d="M264.237-68.572a1.249,1.249,0,0,1-.179.776c-.143-.171-.262-.342-.384-.493a21.63,21.63,0,0,1-1.356-1.971,37.555,37.555,0,0,1-2.485-4.816,37.407,37.407,0,0,1-2.936-9.109c-.07-.444.584-.643.685-.192a47.34,47.34,0,0,0,2.895,8.927C261.2-73.84,264.237-68.572,264.237-68.572Z" transform="translate(-256.892 84.633)" fill="#c1b1b3"/>
                  </g>
                  <g id="Grupo_15701" data-name="Grupo 15701" transform="translate(19.442 196.06)" style="mix-blend-mode: multiply;isolation: isolate">
                    <path id="Trazado_24779" data-name="Trazado 24779" d="M264.547-70.029a2.755,2.755,0,0,1-.189.734c-.171-.252-.332-.521-.482-.765-.4-.622-.776-1.266-1.126-1.919-.615-1.167-1.167-2.373-1.74-3.559a37.909,37.909,0,0,1-2.775-9.1c-.091-.412.532-.591.633-.171a44.453,44.453,0,0,0,2.887,8.969C262.337-74.654,264.547-70.029,264.547-70.029Z" transform="translate(-258.224 85.051)" fill="#c1b1b3"/>
                  </g>
                  <path id="Trazado_24780" data-name="Trazado 24780" d="M269.353-102.879A99.332,99.332,0,0,0,296.4-98.994c14.146-.14,20.386-1.665,20.386-1.665s2.22,14.838,3.19,24.547S321.5-56.974,321.5-56.974s-3.605,1.665-12.9,2.913a47.477,47.477,0,0,1-12.066.278l-1.525-15.256-1.525,14.286a62.087,62.087,0,0,1-13.731.833,64.956,64.956,0,0,1-12.621-1.8s-3.05-16.366-2.913-23.579C264.37-87.065,269.353-102.879,269.353-102.879Z" transform="translate(-229.235 252.698)" fill="#7986cb"/>
                  <g id="Grupo_15702" data-name="Grupo 15702" transform="translate(72.492 34.224)">
                    <path id="Trazado_24781" data-name="Trazado 24781" d="M280.929-144.576a2.5,2.5,0,0,1-2.251-2.526l1.681-.132c.049.63.376.962.586.973a.311.311,0,0,0,.184-.122,1.292,1.292,0,0,0,.239-.931l1.681-.132a2.973,2.973,0,0,1-.638,2.158,1.95,1.95,0,0,1-1.333.708C281.028-144.578,280.976-144.576,280.929-144.576Z" transform="translate(-278.678 147.447)" fill="#28121e"/>
                  </g>
                  <g id="Grupo_15703" data-name="Grupo 15703" transform="translate(59.277 34.735)">
                    <path id="Trazado_24782" data-name="Trazado 24782" d="M275.832-144.379a2.5,2.5,0,0,1-2.249-2.526l1.678-.132c.049.63.389.944.589.973a.312.312,0,0,0,.184-.122,1.3,1.3,0,0,0,.239-.931l1.681-.132a2.984,2.984,0,0,1-.635,2.158,1.967,1.967,0,0,1-1.338.708C275.93-144.381,275.881-144.379,275.832-144.379Z" transform="translate(-273.583 147.25)" fill="#28121e"/>
                  </g>
                  <g id="Grupo_15704" data-name="Grupo 15704" transform="translate(55.599 28.184)" style="mix-blend-mode: multiply;isolation: isolate">
                    <path id="Trazado_24783" data-name="Trazado 24783" d="M273.228-146.441l-1.063-1.6c.2-.135,5.037-3.273,10.045-.775l-.856,1.717C277.319-149.109,273.27-146.469,273.228-146.441Z" transform="translate(-272.165 149.776)" fill="#c1b1b3"/>
                  </g>
                  <g id="Grupo_15705" data-name="Grupo 15705" transform="translate(67.532 27.113)" style="mix-blend-mode: multiply;isolation: isolate">
                    <path id="Trazado_24784" data-name="Trazado 24784" d="M278.725-134.62l-.381-1.878a1.972,1.972,0,0,0,.781-.254c-.067-.075-.446-.817-.781-1.468-.283-.555-.617-1.209-.962-1.982a7.03,7.03,0,0,1-.366-1.006,6.841,6.841,0,0,1,1.022-5.8,7.493,7.493,0,0,1,5.615-3.159,9.24,9.24,0,0,1,4.824.931l-.856,1.72a7.1,7.1,0,0,0-3.831-.731,5.569,5.569,0,0,0-4.184,2.345,4.864,4.864,0,0,0-.742,4.176,4.917,4.917,0,0,0,.267.734c.332.742.651,1.367.923,1.9.716,1.4,1.191,2.332.752,3.245A2.708,2.708,0,0,1,278.725-134.62Z" transform="translate(-276.766 150.189)" fill="#c1b1b3"/>
                  </g>
                  <g id="Grupo_15706" data-name="Grupo 15706" transform="translate(61.925 45.53)">
                    <path id="Trazado_24785" data-name="Trazado 24785" d="M274.6-143.088a4.159,4.159,0,0,0,4.158,4.158,4.157,4.157,0,0,0,4.158-4.158Z" transform="translate(-274.604 143.088)" fill="#fff"/>
                  </g>
                </g>
              </g>
              <g id="Grupo_15712" data-name="Grupo 15712" transform="translate(29.139 90.888)">
                <g id="Grupo_15709" data-name="Grupo 15709" transform="translate(6.616)">
                  <path id="Trazado_24786" data-name="Trazado 24786" d="M332.865-111.195a1.928,1.928,0,0,1-1.123-.361c-.283-.2-28.665-19.831-65.939-3.979a1.942,1.942,0,0,1-2.55-1.03,1.942,1.942,0,0,1,1.027-2.55c39.346-16.737,69.415,4.176,69.716,4.389a1.942,1.942,0,0,1,.456,2.71A1.941,1.941,0,0,1,332.865-111.195Z" transform="translate(-263.097 125.6)" fill="#12263f"/>
                </g>
                <g id="Grupo_15711" data-name="Grupo 15711" transform="translate(0 2.614)">
                  <g id="Grupo_15710" data-name="Grupo 15710">
                    <path id="Trazado_24787" data-name="Trazado 24787" d="M271.058-119.672l4.1,2.721-.088.148-7.366.443q-3.579.809-7.159,1.613,2.91-2.233,5.82-4.469l5.052-5.377.161.005Z" transform="translate(-260.546 124.592)" fill="#12263f"/>
                  </g>
                </g>
              </g>
              <g id="Grupo_15716" data-name="Grupo 15716" transform="translate(27.196 146.088)">
                <g id="Grupo_15713" data-name="Grupo 15713">
                  <path id="Trazado_24788" data-name="Trazado 24788" d="M299.388-89.916c-23.143,0-38.56-10.722-38.776-10.875a1.943,1.943,0,0,1-.456-2.708,1.95,1.95,0,0,1,2.713-.462c.28.2,28.658,19.836,65.937,3.979a1.945,1.945,0,0,1,2.549,1.03,1.945,1.945,0,0,1-1.027,2.552A78.528,78.528,0,0,1,299.388-89.916Z" transform="translate(-259.797 104.318)" fill="#12263f"/>
                </g>
                <g id="Grupo_15715" data-name="Grupo 15715" transform="translate(63.718 1.944)">
                  <g id="Grupo_15714" data-name="Grupo 15714">
                    <path id="Trazado_24789" data-name="Trazado 24789" d="M288.464-98.643l-4.1-2.723.091-.145,7.363-.444q3.579-.809,7.159-1.613-2.91,2.233-5.82,4.469L288.1-93.722l-.161-.005Z" transform="translate(-284.363 103.568)" fill="#12263f"/>
                  </g>
                </g>
              </g>
              <g id="Grupo_15720" data-name="Grupo 15720" transform="translate(117.999 71.487)">
                <g id="Grupo_15717" data-name="Grupo 15717" transform="translate(1.41 7.391)">
                  <path id="Trazado_24790" data-name="Trazado 24790" d="M311.486-53.869a1.884,1.884,0,0,0,.376-.036,1.945,1.945,0,0,0,1.533-2.282L299.2-128.657a1.945,1.945,0,0,0-2.282-1.535,1.945,1.945,0,0,0-1.533,2.282l14.193,72.47A1.946,1.946,0,0,0,311.486-53.869Z" transform="translate(-295.35 130.231)" fill="#12263f"/>
                </g>
                <g id="Grupo_15719" data-name="Grupo 15719">
                  <g id="Grupo_15718" data-name="Grupo 15718">
                    <path id="Trazado_24791" data-name="Trazado 24791" d="M298.564-121.686l4.617,1.7.067-.158-3.992-6.207-2.926-6.731q-.082,3.669-.169,7.337l-1.357,7.252.1.127Z" transform="translate(-294.806 133.08)" fill="#12263f"/>
                  </g>
                </g>
              </g>
            </g>
          </g>
        </g>
      </g>
    </g>
  </g>
</svg>
