<svg xmlns="http://www.w3.org/2000/svg" xmlns:xlink="http://www.w3.org/1999/xlink" width="504" height="255" viewBox="0 0 504 255">
  <defs>
    <clipPath id="clip-path">
      <rect id="Rectángulo_374657" data-name="Rectángulo 374657" width="418" height="192.767" fill="none"/>
    </clipPath>
  </defs>
  <g id="Grupo_1079132" data-name="Grupo 1079132" transform="translate(15254 7718)">
    <g id="Grupo_1078471" data-name="Grupo 1078471" transform="translate(-484.352 663.667)">
      <rect id="Rectángulo_374434" data-name="Rectángulo 374434" width="504" height="255" rx="28" transform="translate(-14769.648 -8381.667)" fill="#fff"/>
      <path id="Rectángulo_374434_-_Contorno" data-name="Rectángulo 374434 - Contorno" d="M28,1A26.977,26.977,0,0,0,1,28V227a26.977,26.977,0,0,0,27,27H476a26.977,26.977,0,0,0,27-27V28A26.977,26.977,0,0,0,476,1H28m0-1H476a28,28,0,0,1,28,28V227a28,28,0,0,1-28,28H28A28,28,0,0,1,0,227V28A28,28,0,0,1,28,0Z" transform="translate(-14769.648 -8381.667)" fill="#707070"/>
    </g>
    <g id="Grupo_1078472" data-name="Grupo 1078472" transform="translate(-15504 -12102.428)">
      <text id="Inclinación_Lateral" data-name="Inclinación Lateral" transform="translate(322 4622.428)" fill="#12263f" font-size="12" font-family="Roboto-Bold, Roboto" font-weight="700"><tspan x="-49.608" y="0">Inclinación Lateral</tspan></text>
      <text id="Rotación" transform="translate(416 4622.428)" fill="#12263f" font-size="12" font-family="Roboto-Bold, Roboto" font-weight="700"><tspan x="-23.938" y="0">Rotación</tspan></text>
      <text id="Flexión_" data-name="Flexión              " transform="translate(605 4622.428)" fill="#12263f" font-size="12" font-family="Roboto-Bold, Roboto" font-weight="700"><tspan x="-40.436" y="0" xml:space="preserve">Flexión              </tspan></text>
      <text id="Hiperextensión" transform="translate(672 4622.428)" fill="#12263f" font-size="12" font-family="Roboto-Bold, Roboto" font-weight="700"><tspan x="-40.939" y="0">Hiperextensión</tspan></text>
    </g>
    <g id="Grupo_1078919" data-name="Grupo 1078919" transform="translate(-15211 -7691.931)">
      <rect id="Rectángulo_374650" data-name="Rectángulo 374650" width="0.6" height="95.027" transform="translate(7.367 9.14)" fill="#1a2e35"/>
      <rect id="Rectángulo_374651" data-name="Rectángulo 374651" width="0.601" height="95.027" transform="translate(296.838 9.14)" fill="#1a2e35"/>
      <rect id="Rectángulo_374652" data-name="Rectángulo 374652" width="95.027" height="0.6" transform="matrix(0.608, -0.794, 0.794, 0.608, 359.714, 98.222)" fill="#1a2e35"/>
      <rect id="Rectángulo_374653" data-name="Rectángulo 374653" width="95.027" height="0.6" transform="matrix(0.047, -0.999, 0.999, 0.047, 352.706, 100.057)" fill="#1a2e35"/>
      <rect id="Rectángulo_374654" data-name="Rectángulo 374654" width="95.027" height="0.6" transform="matrix(0.687, -0.727, 0.727, 0.687, 35.038, 104.528)" fill="#1a2e35"/>
      <rect id="Rectángulo_374655" data-name="Rectángulo 374655" width="0.6" height="109.866" transform="matrix(0.935, -0.355, 0.355, 0.935, 115.847, 26.367)" fill="#1a2e35"/>
      <rect id="Rectángulo_374656" data-name="Rectángulo 374656" width="109.866" height="0.6" transform="translate(114.112 130.089) rotate(-69.305)" fill="#1a2e35"/>
      <g id="Grupo_1078918" data-name="Grupo 1078918">
        <g id="Grupo_1078917" data-name="Grupo 1078917" clip-path="url(#clip-path)">
          <path id="Trazado_841712" data-name="Trazado 841712" d="M15.714,13.268l-.193-.568s.2-.068.581-.183l.173.575c-.367.11-.558.175-.561.176" transform="translate(-4.767 -3.844)" fill="#1a2e35"/>
          <path id="Trazado_841713" data-name="Trazado 841713" d="M100.871,33.986q-.424-.427-.849-.845l.421-.428q.428.421.854.85Zm-1.708-1.679q-.435-.416-.871-.823l.41-.439q.438.409.875.828Zm-1.752-1.634q-.445-.405-.891-.8l.4-.449q.449.4.9.805ZM95.62,29.084q-.455-.393-.912-.776l.386-.459q.459.386.917.782Zm-1.833-1.54q-.466-.38-.933-.752l.373-.469q.47.373.939.757Zm-1.874-1.49q-.476-.367-.953-.726l.361-.479q.479.361.958.731ZM90,24.615q-.486-.354-.972-.7l.347-.489q.49.346.978.7ZM88.044,23.23q-.495-.34-.991-.671l.333-.5q.5.333,1,.676ZM86.053,21.9q-.505-.327-1.01-.643l.319-.509q.509.319,1.017.648Zm-2.029-1.272q-.514-.312-1.028-.613l.3-.518q.518.3,1.035.618Zm-2.065-1.213q-.523-.3-1.045-.583l.288-.526q.527.289,1.053.588Zm-2.1-1.152q-.531-.282-1.062-.553l.274-.534q.534.273,1.07.557Zm-2.132-1.091q-.538-.265-1.077-.521l.258-.543q.543.258,1.086.526Zm-2.162-1.027q-.546-.249-1.092-.489l.241-.549q.55.242,1.1.493Zm-2.192-.962q-.554-.234-1.107-.457l.225-.556q.556.226,1.114.46Zm-2.219-.9q-.561-.217-1.12-.425l.209-.562q.563.208,1.128.427Zm-2.245-.833q-.566-.2-1.131-.391l.192-.568q.568.192,1.14.394Zm-2.268-.766q-.573-.184-1.143-.358l.175-.574q.575.176,1.151.36Zm-2.29-.7q-.578-.167-1.152-.325l.159-.579q.579.159,1.161.327Zm-46.159-.6-.157-.579c.342-.093.733-.2,1.169-.3l.146.582c-.432.108-.818.21-1.158.3m43.85-.03q-.582-.15-1.161-.291l.142-.583q.583.142,1.17.294ZM20.514,10.8l-.135-.585q.555-.129,1.178-.263l.125.587q-.617.132-1.168.261m39.2-.014q-.587-.134-1.17-.258l.125-.587q.587.126,1.178.261ZM22.856,10.3l-.117-.588q.571-.113,1.185-.226l.108.59q-.61.111-1.176.224m34.519-.011q-.59-.117-1.176-.225l.108-.59q.59.109,1.185.227Zm-32.163-.42-.1-.592q.579-.1,1.191-.192l.091.593q-.607.094-1.183.191m29.808-.014q-.593-.1-1.183-.192l.093-.593q.592.092,1.19.193ZM27.579,9.5,27.5,8.909q.585-.082,1.2-.159l.076.6q-.607.076-1.188.158m25.073-.015q-.6-.084-1.187-.159l.076-.6q.594.076,1.2.16ZM29.955,9.2l-.067-.6q.589-.065,1.2-.127l.06.6q-.606.061-1.192.127m20.32-.017q-.6-.068-1.19-.126l.059-.6q.6.058,1.2.127ZM32.34,8.965l-.051-.6q.592-.052,1.2-.1l.044.6q-.606.045-1.195.1m15.553-.016q-.6-.051-1.194-.094l.043-.6q.6.043,1.2.094ZM34.729,8.79l-.037-.6q.6-.035,1.2-.064l.028.6q-.6.029-1.2.064M45.5,8.776q-.6-.033-1.2-.061l.027-.6q.6.027,1.2.062Zm-8.382-.1-.02-.6q.6-.021,1.2-.033l.012.6q-.6.012-1.2.033m5.988-.008q-.6-.019-1.2-.03l.011-.6q.6.011,1.2.03Zm-3.593-.042,0-.6q.359,0,.721,0h.484l0,.6h-.481c-.24,0-.479,0-.717,0" transform="translate(-5.539 -2.464)" fill="#1a2e35"/>
          <path id="Trazado_841714" data-name="Trazado 841714" d="M139.226,46.986c-.139-.144-.277-.289-.416-.432l.431-.418.418.434Z" transform="translate(-42.633 -14.17)" fill="#1a2e35"/>
          <path id="Trazado_841715" data-name="Trazado 841715" d="M321.226,88.617l-.562-.211s.073-.2.225-.565l.555.228c-.146.355-.218.545-.218.547" transform="translate(-98.486 -26.979)" fill="#1a2e35"/>
          <path id="Trazado_841716" data-name="Trazado 841716" d="M322.225,64.241,321.676,64c.145-.325.312-.694.5-1.1l.543.255q-.285.607-.5,1.091m1.017-2.173L322.7,61.8q.25-.512.541-1.081l.534.273q-.288.564-.537,1.072m1.091-2.135-.53-.281q.273-.514.574-1.063l.526.29q-.3.544-.57,1.055m1.156-2.1-.522-.3q.291-.511.6-1.046l.518.3q-.312.53-.6,1.038m1.213-2.068-.513-.31q.307-.506.632-1.028l.509.317q-.324.519-.628,1.021m1.269-2.034-.505-.324q.321-.5.659-1.011l.5.331q-.337.508-.655,1m1.322-2-.5-.338q.335-.492.685-.992l.492.344q-.348.5-.681.987m1.375-1.964-.487-.35q.348-.484.711-.975l.482.357q-.361.487-.706.968m1.425-1.927-.478-.362q.362-.476.736-.956l.473.369q-.372.477-.731.949m1.474-1.888-.468-.376q.374-.467.761-.936l.464.382q-.385.467-.756.93m1.524-1.85-.458-.387q.387-.456.785-.915l.453.394q-.4.455-.78.909m1.572-1.808-.448-.4q.4-.447.809-.894l.442.406q-.409.444-.8.888m1.619-1.765-.437-.412q.411-.435.833-.872l.431.417q-.419.433-.827.866m1.667-1.72-.425-.423q.422-.425.856-.849l.42.43q-.43.421-.85.843m1.712-1.675-.414-.435q.434-.413.879-.825l.407.44q-.442.409-.873.82m1.758-1.627-.4-.446q.446-.4.9-.8l.4.452q-.453.4-.9.8m1.8-1.577-.389-.457q.457-.389.924-.775l.382.463q-.464.384-.917.769m1.846-1.526-.376-.467q.468-.376.945-.749l.369.473q-.474.37-.939.743m1.889-1.472-.362-.478q.478-.363.967-.721l.355.484q-.484.356-.96.716m1.93-1.418-.349-.489q.488-.348.987-.693l.342.493q-.495.343-.98.689m1.97-1.361-.335-.5q.5-.335,1.007-.664l.327.5q-.5.327-1,.659m2.008-1.3-.319-.508q.508-.319,1.025-.635l.313.513q-.515.313-1.019.63m2.045-1.244-.3-.518q.518-.3,1.043-.6l.3.521q-.523.3-1.037.6m2.081-1.183-.289-.527q.526-.289,1.061-.572l.281.529q-.531.283-1.053.57m2.115-1.122-.273-.534q.534-.273,1.077-.541l.265.538q-.538.266-1.07.538m2.147-1.059-.258-.542q.543-.258,1.093-.509l.25.545q-.547.25-1.085.506m2.177-.995-.242-.549q.55-.242,1.108-.477l.233.554q-.553.233-1.1.473m2.205-.932-.225-.556q.556-.226,1.12-.445l.218.559q-.56.218-1.113.441m2.232-.866-.209-.563q.563-.209,1.133-.412l.2.565c-.378.134-.753.271-1.125.409m2.255-.8-.193-.569q.569-.192,1.145-.379l.185.571q-.573.185-1.137.377m2.278-.737-.176-.574q.574-.177,1.155-.346l.168.576q-.577.168-1.147.344m2.3-.671-.159-.579q.578-.16,1.163-.314l.152.581q-.582.153-1.156.312m2.316-.607-.144-.583q.583-.144,1.172-.281l.136.584q-.585.136-1.164.28m2.332-.543-.128-.586q.586-.128,1.179-.249l.121.588q-.589.121-1.172.247m2.345-.479-.112-.59q.589-.112,1.185-.218l.1.59q-.592.106-1.178.217m2.359-.417-.1-.592q.592-.1,1.191-.186l.089.594q-.6.089-1.183.185m2.369-.354-.081-.6q.595-.081,1.195-.155l.074.6q-.6.075-1.188.155m2.377-.294-.067-.6q.6-.065,1.2-.125l.059.6q-.6.059-1.191.125" transform="translate(-98.797 -4.245)" fill="#1a2e35"/>
          <path id="Trazado_841717" data-name="Trazado 841717" d="M424.842,14.239l-.052-.6.6-.05.048.6-.6.049" transform="translate(-130.467 -4.174)" fill="#1a2e35"/>
          <path id="Trazado_841718" data-name="Trazado 841718" d="M167.681,33.238l-.274-.534s.191-.1.55-.265l.253.545c-.342.158-.525.252-.529.254" transform="translate(-51.416 -9.963)" fill="#1a2e35"/>
          <path id="Trazado_841719" data-name="Trazado 841719" d="M200.732,32.473c-.312-.245-.635-.482-.956-.708l.344-.491c.33.231.66.476.981.727Zm-1.947-1.366c-.337-.21-.681-.414-1.025-.6l.29-.525c.353.2.707.4,1.052.62Zm-28.747-.3-.233-.553c.332-.139.709-.293,1.127-.455l.216.559c-.412.159-.784.311-1.111.448m26.666-.849c-.352-.172-.716-.338-1.082-.493l.234-.553c.376.159.75.329,1.112.506Zm-24.433-.016-.2-.565q.544-.194,1.149-.391l.186.57c-.4.13-.777.259-1.134.387m2.278-.742-.17-.576c.376-.112.766-.222,1.168-.33l.155.58q-.594.159-1.153.326m19.964-.17c-.369-.134-.748-.261-1.128-.378l.176-.574c.389.12.779.25,1.157.388Zm-17.65-.449-.139-.584q.58-.138,1.185-.265l.123.587q-.6.125-1.168.262m15.375-.25c-.38-.1-.771-.186-1.161-.266l.12-.588c.4.082.8.173,1.188.272Zm-13.031-.239L179.1,27.5c.394-.07.794-.136,1.2-.195l.087.593q-.6.088-1.181.193m10.7-.238c-.386-.06-.784-.114-1.181-.158l.067-.6c.407.046.813.1,1.208.161Zm-8.331-.11-.069-.6c.41-.047.818-.087,1.21-.118l.048.6c-.386.03-.786.069-1.189.116m5.962-.155c-.387-.027-.788-.047-1.191-.058l.017-.6c.412.012.82.033,1.216.06Zm-3.579-.037-.028-.6c.405-.019.815-.03,1.216-.034l.006.6c-.394,0-.8.015-1.194.033" transform="translate(-52.153 -8.266)" fill="#1a2e35"/>
          <path id="Trazado_841720" data-name="Trazado 841720" d="M216.218,36.23q-.22-.2-.443-.394l.394-.453q.229.2.454.4Z" transform="translate(-66.272 -10.867)" fill="#1a2e35"/>
          <path id="Trazado_841721" data-name="Trazado 841721" d="M520.036,4.421l-.219-.558s.2-.078.576-.207l.194.567c-.358.123-.547.2-.551.2" transform="translate(-159.653 -1.123)" fill="#1a2e35"/>
          <path id="Trazado_841722" data-name="Trazado 841722" d="M574.826,18.593q-.382-.46-.767-.906l.453-.392q.39.449.776.914ZM573.273,16.8q-.4-.444-.8-.873l.437-.411q.407.433.812.883Zm-1.625-1.729q-.419-.427-.84-.838l.419-.43q.426.416.849.847Zm-1.7-1.656q-.437-.408-.876-.8l.4-.448q.444.4.886.808Zm-1.77-1.578q-.454-.387-.912-.757l.378-.466q.462.375.923.767Zm-1.841-1.493q-.472-.365-.946-.713l.355-.484q.48.352.959.722Zm-1.911-1.4q-.49-.341-.98-.665l.331-.5q.5.328.993.674Zm-1.977-1.306q-.506-.316-1.013-.615l.306-.517q.512.3,1.025.622Zm-2.04-1.2q-.522-.29-1.043-.563l.277-.532q.529.276,1.057.57Zm-2.1-1.1q-.535-.262-1.07-.507l.25-.545q.541.248,1.085.514Zm-2.153-.987q-.549-.235-1.1-.451l.222-.558q.554.219,1.11.457Zm-2.2-.873q-.561-.206-1.118-.394l.192-.569q.565.191,1.133.4Zm-31.481-.734-.174-.574c.339-.1.725-.214,1.156-.331l.157.579c-.424.115-.8.225-1.139.326m29.235-.024q-.57-.177-1.136-.335l.162-.578q.574.161,1.152.34Zm-26.948-.6-.143-.583q.552-.135,1.17-.272l.129.586c-.406.089-.792.179-1.155.269m24.666-.041q-.579-.147-1.152-.276l.132-.585q.581.132,1.167.28ZM527.077,1.6l-.116-.589Q527.53.9,528.141.8l.1.591q-.6.1-1.167.216m20.037-.055q-.585-.117-1.165-.218l.1-.591q.586.1,1.179.22Zm-17.7-.35-.089-.594q.579-.087,1.188-.166l.077.6q-.6.078-1.175.164m15.364-.058q-.591-.088-1.175-.16l.074-.6q.591.074,1.189.163ZM531.768.9l-.063-.6Q532.29.239,532.9.188l.05.6q-.6.05-1.181.112M542.426.849q-.6-.059-1.181-.1l.045-.6q.593.045,1.2.1ZM534.133.7,534.1.1q.59-.036,1.2-.06l.023.6q-.6.023-1.185.06m5.928-.03c-.4-.021-.794-.037-1.185-.048l.017-.6q.593.018,1.2.049ZM536.5.608l-.01-.6c.292,0,.583-.006.884-.008h.316l0,.6h-.312c-.3,0-.586,0-.874.008" transform="translate(-160.415)" fill="#1a2e35"/>
          <path id="Trazado_841723" data-name="Trazado 841723" d="M599.576,28.481q-.185-.236-.371-.468l.469-.375.374.473Z" transform="translate(-184.035 -8.489)" fill="#1a2e35"/>
          <path id="Trazado_841724" data-name="Trazado 841724" d="M167.957,190.688c-.359-.167-.55-.266-.55-.266l.274-.534s.187.1.529.255Z" transform="translate(-51.416 -58.321)" fill="#1a2e35"/>
          <path id="Trazado_841725" data-name="Trazado 841725" d="M185.147,194.1c-.4,0-.811-.015-1.217-.034l.028-.6c.4.019.8.03,1.195.033Zm1.217-.012-.017-.6c.4-.012.8-.031,1.191-.059l.042.6c-.4.027-.8.047-1.216.06m-3.647-.1c-.393-.031-.8-.071-1.21-.118l.069-.6c.4.046.8.085,1.19.116Zm6.075-.07-.067-.6c.4-.044.8-.1,1.181-.158l.093.593c-.394.062-.8.116-1.207.161m-8.49-.206q-.609-.089-1.2-.2l.105-.59q.581.1,1.181.192Zm10.9-.172-.12-.588c.389-.08.78-.169,1.161-.266l.148.582c-.389.1-.789.19-1.188.272m-13.289-.254q-.606-.127-1.185-.265l.139-.584c.38.091.77.179,1.168.261Zm15.652-.346-.176-.574c.38-.117.759-.244,1.128-.378l.206.564c-.378.137-.768.268-1.158.388m-18.015-.217c-.4-.107-.792-.218-1.168-.33l.17-.575q.558.165,1.153.326Zm20.309-.618-.234-.553c.366-.155.73-.321,1.082-.493l.263.539c-.362.177-.736.347-1.111.506m-22.636-.072q-.6-.2-1.149-.391l.2-.565c.358.127.737.256,1.134.386Zm-2.288-.814c-.418-.162-.8-.315-1.127-.455l.233-.554c.327.138.7.289,1.111.448Zm27.119-.182-.291-.525c.344-.191.689-.394,1.025-.6l.318.509c-.345.216-.7.425-1.052.621m2.07-1.3-.344-.491c.322-.226.643-.464.955-.708l.37.473c-.321.251-.651.5-.981.727" transform="translate(-52.153 -57.908)" fill="#1a2e35"/>
          <path id="Trazado_841726" data-name="Trazado 841726" d="M216.169,187.721l-.394-.453q.222-.193.443-.394l.4.443q-.226.206-.454.4" transform="translate(-66.272 -57.395)" fill="#1a2e35"/>
          <path id="Trazado_841727" data-name="Trazado 841727" d="M41.772,210.594s3.32,5.634,4.207,7.745c.567,1.346,3.032,7.506,3.8,9.726s5.984,15.444,5.984,15.444l6.5-.668s-3.857-17.724-4.725-21.584a83.307,83.307,0,0,0-3.8-10.663Z" transform="translate(-12.83 -64.68)" fill="#ffc19d"/>
          <path id="Trazado_841728" data-name="Trazado 841728" d="M3.062,206.819a54.952,54.952,0,0,0-1.156,12.222c.33,4.955,2.726,22.381,2.726,22.381h5.12s1.238-13.709,1.817-17.3.082-9.952,0-10.942a33.644,33.644,0,0,1,.276-3.964Z" transform="translate(-0.57 -63.521)" fill="#ffc19d"/>
          <path id="Trazado_841729" data-name="Trazado 841729" d="M9.947,146.415S3.595,156.453,2.2,172.208s-1.675,17.8-1.675,17.8l14.8,1.443,3.9-18.915,2.792,18.859,20.147-.676s-4.519-18.89-5.282-23.338a64.668,64.668,0,0,0-2.922-10.063l-.254-2.643-12.9-.889Z" transform="translate(-0.16 -44.969)" fill="#1a2e35"/>
          <path id="Trazado_841730" data-name="Trazado 841730" d="M75.962,260.838a15.857,15.857,0,0,1-4.843.992,58.432,58.432,0,0,1-6.941-.689c-1.253-.175-4.793.556-5.151-.676s1.113-6.011,1.113-6.011a3.231,3.231,0,0,0,2.361,1.138,23.67,23.67,0,0,0,3.6-1.006s.91-1.716,1.621-1.839.643,1.927.643,1.927,1.951,2.293,3.194,2.719,1.319.789,2.72.707a3.742,3.742,0,0,1,2.113.375s.738,1.089.445,1.528a3.811,3.811,0,0,1-.876.835" transform="translate(-18.112 -77.625)" fill="#1a2e35"/>
          <path id="Trazado_841731" data-name="Trazado 841731" d="M76.843,262.851a2.826,2.826,0,0,1-.887.879,15.859,15.859,0,0,1-4.843.991,58.294,58.294,0,0,1-6.941-.689c-1.252-.175-4.793.556-5.151-.675a2.1,2.1,0,0,1-.033-1.059,28.234,28.234,0,0,0,5.453.5c1.747-.177,5.58.737,7.555.556a24.4,24.4,0,0,0,4.161-.85l.62-.4c.1.281.216.473.065.756" transform="translate(-18.101 -80.498)" fill="#375a64"/>
          <path id="Trazado_841732" data-name="Trazado 841732" d="M76.212,259.013a4.8,4.8,0,0,1-.187.668,4.976,4.976,0,0,1-.378.582,1.173,1.173,0,0,0,.565-1.25" transform="translate(-23.233 -79.551)" fill="#fff"/>
          <path id="Trazado_841733" data-name="Trazado 841733" d="M74.339,257.692a2.488,2.488,0,0,1-.8,1.427,1.442,1.442,0,0,0,.8-1.427" transform="translate(-22.585 -79.146)" fill="#fff"/>
          <path id="Trazado_841734" data-name="Trazado 841734" d="M73.027,256.4c-.031-.014-.174.263-.409.56s-.467.5-.446.531a1.779,1.779,0,0,0,.855-1.092" transform="translate(-22.166 -78.748)" fill="#fff"/>
          <path id="Trazado_841735" data-name="Trazado 841735" d="M63.841,260.952a1.815,1.815,0,0,0,.475.054c.294.015.7.021,1.153,0s.856-.057,1.148-.1a1.761,1.761,0,0,0,.47-.092c0-.033-.728.037-1.623.073s-1.622.026-1.623.06" transform="translate(-19.608 -80.103)" fill="#fff"/>
          <path id="Trazado_841736" data-name="Trazado 841736" d="M9.315,254.03a9.426,9.426,0,0,1,1.528,4.8,3.642,3.642,0,0,1-.437,2.24c-.351.5-.935.814-1.176,1.377-.271.633-.025,1.373-.118,2.059-.123.9-1.269,1.786-2.072,2.149a6.493,6.493,0,0,1-2.4.385,4.638,4.638,0,0,1-3.408-.679A3.359,3.359,0,0,1,0,263.752a4.954,4.954,0,0,1,.9-2.807,14.159,14.159,0,0,0,1.429-2.1,20.31,20.31,0,0,0,.966-3.878s.385-.543,2.135-.593,2.524,1.855,3.105,1.354a3.457,3.457,0,0,0,.784-1.7" transform="translate(0 -78.021)" fill="#1a2e35"/>
          <path id="Trazado_841737" data-name="Trazado 841737" d="M.058,266.633a6.185,6.185,0,0,0,2.5,1.153,7.728,7.728,0,0,0,2.773.024,4,4,0,0,0,1.79-.764,3.126,3.126,0,0,0,1.087-1.461c.182-.576.033-1.226.23-1.8.22-.635.816-1.032,1.249-1.535a4.071,4.071,0,0,0,1.061-2.609,2.884,2.884,0,0,1,.184,2.943c-.407.7-1.163,1.138-1.506,1.872-.3.64.016,1.3-.18,1.984a3.931,3.931,0,0,1-2.194,2.166,6.3,6.3,0,0,1-2.837.386,6.176,6.176,0,0,1-2.322-.516,3.239,3.239,0,0,1-1.659-1.7" transform="translate(-0.018 -79.745)" fill="#375a64"/>
          <path id="Trazado_841738" data-name="Trazado 841738" d="M6.339,264.211c-.03.058-.634-.245-1.442-.357s-1.472,0-1.485-.066a2.486,2.486,0,0,1,1.516-.15,2.487,2.487,0,0,1,1.411.572" transform="translate(-1.048 -80.96)" fill="#fff"/>
          <path id="Trazado_841739" data-name="Trazado 841739" d="M6.825,262.5c-.03.058-.634-.245-1.442-.357s-1.472,0-1.485-.066a2.486,2.486,0,0,1,1.516-.15,2.487,2.487,0,0,1,1.411.572" transform="translate(-1.197 -80.434)" fill="#fff"/>
          <path id="Trazado_841740" data-name="Trazado 841740" d="M7.855,260.849c-.03.058-.634-.245-1.442-.357s-1.472,0-1.485-.066a2.486,2.486,0,0,1,1.516-.15,2.482,2.482,0,0,1,1.411.572" transform="translate(-1.514 -79.928)" fill="#fff"/>
          <path id="Trazado_841741" data-name="Trazado 841741" d="M6.014,258.244a1.454,1.454,0,0,1,.146-.388,5.572,5.572,0,0,1,.558-.989,1.726,1.726,0,0,1,.585-.562.475.475,0,0,1,.5.042.581.581,0,0,1,.2.492,1.716,1.716,0,0,1-.47.924,2.613,2.613,0,0,1-.89.64,1.284,1.284,0,0,1-1.112-.014,2.064,2.064,0,0,1-.751-.7c-.091-.132-.173-.265-.249-.394a.732.732,0,0,1-.1-.229.235.235,0,0,1,.026-.17.217.217,0,0,1,.148-.1.461.461,0,0,1,.245.044,1.88,1.88,0,0,1,.189.082,2.188,2.188,0,0,1,1.032,1.1.9.9,0,0,1,.1.407c-.017,0-.055-.139-.174-.371a2.259,2.259,0,0,0-.716-.811,2.072,2.072,0,0,0-.311-.177.845.845,0,0,0-.33-.1c-.027.011-.029.008-.024.053a.585.585,0,0,0,.085.165c.079.125.16.253.249.377a1.876,1.876,0,0,0,.681.623,1.07,1.07,0,0,0,.933,0,2.094,2.094,0,0,0,1.244-1.377.389.389,0,0,0-.122-.33.29.29,0,0,0-.311-.026,1.647,1.647,0,0,0-.536.491,7.445,7.445,0,0,0-.6.933,1.6,1.6,0,0,1-.222.35" transform="translate(-1.36 -78.704)" fill="#fff"/>
          <path id="Trazado_841742" data-name="Trazado 841742" d="M13.086,259.287c.058,0,.061.4-.145.82s-.51.668-.549.626.168-.33.353-.721.279-.734.341-.725" transform="translate(-3.804 -79.635)" fill="#fff"/>
          <path id="Trazado_841743" data-name="Trazado 841743" d="M78.786,79.668c-1.84,0-12.506,5.759-15.459,8.422-2.017,1.819-9.57,8.423-9.57,8.423l5.016,4.07,5.395.473.313-1.786,4.926-4.278s6.983-3.873,9.334-7l15.993,3.785,2.555-3.88s-13.11-8.233-18.5-8.233" transform="translate(-16.511 -24.469)" fill="#ffc19d"/>
          <path id="Trazado_841744" data-name="Trazado 841744" d="M113.079,95.938s.315,2.975.586,4.147,1.217,2.119,1.217,2.885a3.309,3.309,0,0,0,.226,1.262s.946.09,1.037-1.037,0-3.109,0-3.109,1.533,2.3,2.614,2.794,3.561.586,3.606.135.361-.484-.451-.828a14.146,14.146,0,0,0-1.668-.57l-1.488-1.262a12.309,12.309,0,0,0,2.119.811c.721.135,2.84.5,2.975.18a1.008,1.008,0,0,0-.36-1.261s.766-.182.766-.677-.316-.947-.586-.9a12.584,12.584,0,0,1-2.029-.36c-.135-.045-1.623-1.217-1.623-1.217l.09-.27s.991,1.082,1.533,1.037,1.488-.045,1.488-.315.09-.946-.586-.946a1.206,1.206,0,0,1-.991-.5l-1.352-.721a28.717,28.717,0,0,0-2.073-2.659,8.225,8.225,0,0,0-2.909-1.219l-2.365,3.836Z" transform="translate(-34.661 -28.053)" fill="#ffc19d"/>
          <path id="Trazado_841745" data-name="Trazado 841745" d="M118.533,96.2a1.939,1.939,0,0,1,.374.764,4.348,4.348,0,0,1-.678,3.94,1.943,1.943,0,0,1-.609.6c-.025-.025.2-.256.483-.685A4.773,4.773,0,0,0,118.759,97c-.121-.5-.258-.791-.226-.806" transform="translate(-36.124 -29.545)" fill="#ff9c6a"/>
          <path id="Trazado_841746" data-name="Trazado 841746" d="M71.715,117.744l16.549-6.3c4.168-1.434,6.807-5.054,5.259-9.18l-.166-.373a7.879,7.879,0,0,0-9.806-4.245c-3.606,1.263-7.573,2.7-9.431,3.555-3.845,1.762-2.731,5.9-2.731,5.9s-2.381.968-3.537,1.422l-1,3.065Z" transform="translate(-20.534 -29.853)" fill="#ffc19d"/>
          <path id="Trazado_841747" data-name="Trazado 841747" d="M72.918,111.48a10.215,10.215,0,0,0,3.72,4.374,5.251,5.251,0,0,1-4.806-3.935Z" transform="translate(-22.062 -34.239)" fill="#ff9c6a"/>
          <path id="Trazado_841748" data-name="Trazado 841748" d="M91.676,118.853c.057.053,1.937,2.276-.707,3.349a2.145,2.145,0,0,1-3.1-1.838c.074-.035,3.809-1.51,3.809-1.51" transform="translate(-26.985 -36.504)" fill="#ffc19d"/>
          <path id="Trazado_841749" data-name="Trazado 841749" d="M89.743,121.669c.013.008-.014.06-.018.154a.5.5,0,0,0,.134.352,1.249,1.249,0,0,0,1.253.114,1.67,1.67,0,0,0,.616-.4.584.584,0,0,0,.216-.5.257.257,0,0,0-.24-.224c-.089,0-.136.033-.146.021s.021-.076.141-.1a.318.318,0,0,1,.211.037.378.378,0,0,1,.173.23.708.708,0,0,1-.218.657,1.719,1.719,0,0,1-.681.465,1.309,1.309,0,0,1-1.434-.212.542.542,0,0,1-.1-.456c.033-.109.087-.148.1-.141" transform="translate(-27.529 -37.189)" fill="#ff9c6a"/>
          <path id="Trazado_841750" data-name="Trazado 841750" d="M90.921,87.984a.686.686,0,0,1,.492.147,2.1,2.1,0,0,1,.572.935,6.089,6.089,0,0,0,1.616,2.2,3.018,3.018,0,0,1,.211-.927,1.818,1.818,0,0,1,1.474-1.166.4.4,0,0,1,.342.106c.124.152.015.374-.071.551a1.562,1.562,0,0,0-.021,1.6,2.559,2.559,0,0,0,.716.9l.051.019c.2.08.393.16.581.24h0a9.565,9.565,0,0,1,3.18,1.93,9.825,9.825,0,0,1,2.364,4.7,3.969,3.969,0,0,1-1.727,3.944,3.057,3.057,0,0,1,1.427,2.735l.019.019a3.841,3.841,0,0,1-1.734,2.961c-.051.041-.1.079-.156.118a4.441,4.441,0,0,0-.793,1.952c-.017.124-.042.268-.152.328a.364.364,0,0,1-.349-.065,2.241,2.241,0,0,1-.691-.7,5.067,5.067,0,0,0-.589.641c-.15.2-.331.434-.579.416a.473.473,0,0,1-.386-.376,1.389,1.389,0,0,1,.021-.572l-.689.686a2.657,2.657,0,0,1-.385-1.158c-1.079.183-2.978.765-3.753.784-.3-.706-.3-.91-.561-1.22-.343-.4-1.092.111-1.105-.588-.006-.356.965-1.3,1.237-1.533a16.508,16.508,0,0,1,6.2-3.3,5.3,5.3,0,0,0,.476-1.965l-.023.063c-.067-1.25-.2-2.641-1.136-3.471a7.8,7.8,0,0,0-2.671-1.107,6.054,6.054,0,0,1-3.7-3.316c-1.245.329-3.2,1.073-4.324,1.465l1.824-1.844-.01,0c.1-.129.2-.245.309-.359l.031-.037.006,0a7.383,7.383,0,0,0,.5-.567l-.014-.006a.745.745,0,0,1,.511-1.384,1.674,1.674,0,0,1,.471.2,1.18,1.18,0,0,1-.694-.929.925.925,0,0,1,.6-.951.787.787,0,0,1,.761.2,2.653,2.653,0,0,1-.262-1.524c.044-.34.193-.717.579-.765" transform="translate(-26.508 -27.021)" fill="#1a2e35"/>
          <path id="Trazado_841751" data-name="Trazado 841751" d="M103.075,108.371a3.644,3.644,0,0,1-.2.54,3.041,3.041,0,0,1-1.057,1.133,5.293,5.293,0,0,1-.955.506c-.36.149-.759.278-1.178.416a11.24,11.24,0,0,0-1.3.495,5,5,0,0,0-.642.365,1.526,1.526,0,0,0-.545.545.639.639,0,0,0,.039.629.954.954,0,0,0,.484.383,2.2,2.2,0,0,0,1.151-.029l-.044-.078a3.527,3.527,0,0,0-.626.812,1.256,1.256,0,0,0-.1.932.806.806,0,0,0,.236.376.707.707,0,0,0,.382.164.719.719,0,0,0,.381-.059.524.524,0,0,0,.254-.25l-.054-.026a2.728,2.728,0,0,0-.288,1.1,2.615,2.615,0,0,0,0,.3.466.466,0,0,0,.015.1.565.565,0,0,0,0-.1c0-.068,0-.169.01-.3a2.819,2.819,0,0,1,.309-1.074l-.054-.027a.542.542,0,0,1-.572.264.633.633,0,0,1-.341-.15A.744.744,0,0,1,98.18,115a1.185,1.185,0,0,1,.106-.869,3.494,3.494,0,0,1,.617-.787l.1-.107-.146.029a2.122,2.122,0,0,1-1.1.029.856.856,0,0,1-.433-.343.537.537,0,0,1-.034-.534,1.437,1.437,0,0,1,.511-.506,4.787,4.787,0,0,1,.628-.359,11.422,11.422,0,0,1,1.285-.5c.418-.141.817-.273,1.181-.427a5.336,5.336,0,0,0,.963-.525,3,3,0,0,0,1.051-1.174,1.71,1.71,0,0,0,.164-.556" transform="translate(-29.834 -33.284)" fill="#375a64"/>
          <path id="Trazado_841752" data-name="Trazado 841752" d="M93.009,93.116a.159.159,0,0,0-.014.042l-.031.127a1.249,1.249,0,0,0-.039.209,2.3,2.3,0,0,0-.028.29,3.755,3.755,0,0,0,.382,1.8,4.8,4.8,0,0,0,1.839,2.009,8.31,8.31,0,0,0,3.172,1.077c.591.091,1.172.125,1.727.2a5.6,5.6,0,0,1,1.551.389,2.9,2.9,0,0,1,1.147.85,2.067,2.067,0,0,1,.311.567,2.267,2.267,0,0,1,.118.588,2.457,2.457,0,0,1-.552,1.695,2.947,2.947,0,0,1-.505.442.17.17,0,0,0,.039-.02l.112-.067a2.152,2.152,0,0,0,.382-.33,2.4,2.4,0,0,0,.416-.682,2.475,2.475,0,0,0,.177-1.042,2.341,2.341,0,0,0-.116-.609,2.125,2.125,0,0,0-.319-.592,2.954,2.954,0,0,0-1.174-.883,5.642,5.642,0,0,0-1.575-.4c-.558-.074-1.139-.109-1.725-.2a8.3,8.3,0,0,1-3.138-1.057,4.769,4.769,0,0,1-1.824-1.962,3.812,3.812,0,0,1-.407-1.769,5.806,5.806,0,0,1,.073-.67" transform="translate(-28.53 -28.599)" fill="#375a64"/>
          <path id="Trazado_841753" data-name="Trazado 841753" d="M95.3,91.586a.668.668,0,0,0-.041.18,3.326,3.326,0,0,0-.041.5,4.333,4.333,0,0,0,.052.748,4.6,4.6,0,0,0,.636,1.713,4.363,4.363,0,0,0,.448.6,3.368,3.368,0,0,0,.36.354.648.648,0,0,0,.148.11c.012-.014-.187-.185-.455-.509a5,5,0,0,1-.423-.6,5.364,5.364,0,0,1-.389-.812A5.464,5.464,0,0,1,95.36,93a5.04,5.04,0,0,1-.073-.733c-.009-.42.031-.68.012-.682" transform="translate(-29.244 -28.129)" fill="#375a64"/>
          <path id="Trazado_841754" data-name="Trazado 841754" d="M36.085,104.862c3.451-3.139,9.375-7.986,9.375-7.986a26.883,26.883,0,0,0,3.618,3.624,23.685,23.685,0,0,0,5.209,3.409L52.1,107.085a1.079,1.079,0,0,1-.46,1.174c-1.009.847-1.082,2.944-.525,4.614.77,2.31,6.173,4.122,6.173,4.122s1.8,3.382,2.223,4.572,1.594,4.959,1.594,4.959l-8.648,5.706-6.419,1.236-5.429,2.684v1.738l-1.522.879-1.054,4.952s-10.8,2.61-16.327-.99a66.2,66.2,0,0,1-10.642-8.811s7.645-11.071,9.2-13.007c0,0,12.564-13.091,15.82-16.052" transform="translate(-3.398 -29.754)" fill="#ff735d"/>
          <path id="Trazado_841755" data-name="Trazado 841755" d="M65.928,111.98a3.906,3.906,0,0,1,3.03-.585c-.006.064-.7.03-1.534.195s-1.467.448-1.5.39" transform="translate(-20.248 -34.182)" fill="#1a2e35"/>
          <path id="Trazado_841756" data-name="Trazado 841756" d="M48.9,146.6c.053-.035.715.92,1.634,2.015s1.737,1.919,1.693,1.965A13.225,13.225,0,0,1,48.9,146.6" transform="translate(-15.019 -45.026)" fill="#1a2e35"/>
          <path id="Trazado_841757" data-name="Trazado 841757" d="M43.866,153.6a18.409,18.409,0,0,1,2.665.941,18.36,18.36,0,0,1,2.584,1.144,18.459,18.459,0,0,1-2.665-.942,18.325,18.325,0,0,1-2.584-1.143" transform="translate(-13.473 -47.175)" fill="#1a2e35"/>
          <path id="Trazado_841758" data-name="Trazado 841758" d="M51.509,161.26c.21,0,13.9-3.122,13.9-3.122l-.261-9.28-.27-3.838,8.648-3.338s-.25-.869,0,4.224l.238,3.195s-.711,10.091-1.131,12.051-1.325,3.532-3.834,3.82c-2.227.255-17.291,1.12-17.291,1.12Z" transform="translate(-15.82 -43.498)" fill="#ffc19d"/>
          <path id="Trazado_841759" data-name="Trazado 841759" d="M48.681,167.479s-.058-2.9-.8-3.586-3.992-2.5-4.612-1.9-.336.626.4.935,3.045,1.251,2.659,1.251-3.831-2.005-4.012-1.116.841,1.174.841,1.174-.4.625.739,1.763a6.015,6.015,0,0,0,2.432,1.481s-2.489-.849-2.659,0,.511,1.02,1.421,1.361a18.762,18.762,0,0,1,1.876.853s.734,3.216,1.249,3.171a9.788,9.788,0,0,0,1.765-.556Z" transform="translate(-12.992 -49.717)" fill="#ffc19d"/>
          <path id="Trazado_841760" data-name="Trazado 841760" d="M70.806,143.744v4.878l9.426-1.414a38.057,38.057,0,0,0-1.256-9.734Z" transform="translate(-21.747 -42.223)" fill="#ff735d"/>
          <path id="Trazado_841761" data-name="Trazado 841761" d="M78.406,140.085c0,.039-.468.04-1.2.168a8.847,8.847,0,0,0-5.014,2.754c-.5.553-.755.948-.788.926-.013-.008.04-.112.148-.3a5.56,5.56,0,0,1,.524-.732,8,8,0,0,1,5.107-2.805,5.565,5.565,0,0,1,.9-.049.957.957,0,0,1,.329.033" transform="translate(-21.928 -43.013)" fill="#1a2e35"/>
          <path id="Trazado_841762" data-name="Trazado 841762" d="M391.662,140.286a11.633,11.633,0,0,0,3.542-7.024,15.236,15.236,0,0,0-3.955-10.879,9.037,9.037,0,0,0-3.33-2.288c-1.4-.527-7.52-1.331-11.681-1.826-15.535-1.847-23.95-9.078-26.105-9.708a29.494,29.494,0,0,0-5.645-1.271c-2-.017-5.468,1.336-5.99,1.18s-2.907-1.011-3.215-1.74a18.254,18.254,0,0,0-1.44-4.547,7.132,7.132,0,0,0-4.127-3.546,13.282,13.282,0,0,0-4.225-.8c-2.119.024-3.554.944-5.544,2.375a6.1,6.1,0,0,0-2.255,3.033,7.461,7.461,0,0,0-.218,3.742A9.66,9.66,0,0,0,319.421,111a5.054,5.054,0,0,0,3.151,2.094c.574.051.842,1.5,1.2,2.634.416,1.328,1.167.843,1.72.5,1.31-.819.364,1.11,1.709.513.572-.254.172,1.014,1.224.394.77-.455.946.068,1.127.466a.938.938,0,0,0,1.357.308,5.537,5.537,0,0,0,1.754-2.573c.263-.647.852-2.592,3.369,1.242a37.6,37.6,0,0,1,2.59,4.789c1.1,2.4,1.813,4.393,1.919,4.592.133.249.919,4.092,4.374,5.032a8.5,8.5,0,0,0,3.994.012,18.657,18.657,0,0,1,3.162-.585h0c1.487-.086,3.148.466,5.433.975a17.045,17.045,0,0,0,4.929.394c1.94-.125,4.214-.1,6.352-.259,3.662-.274,6.969-.93,7.234-.532.172.258,13.852,11.139,15.646,9.294" transform="translate(-97.464 -30.047)" fill="#fecda0" fill-rule="evenodd"/>
          <path id="Trazado_841763" data-name="Trazado 841763" d="M433.785,237c-.075-.351-7.378-1.641-6.3.788a17.489,17.489,0,0,1,1.762,5.753c.031,2.968.1,3.95-2.007,8.539a19.737,19.737,0,0,1-2.643,4.678c-1.208,1.115-2.305,1.784-1.7,2.546.561.708,2.019-.414,3.464-1.65a40.882,40.882,0,0,0,3.583-2.905,23.662,23.662,0,0,1,4.719-4.131c1.176-.622,3.846-1.753,4.4-3.03s-.862-3.139-2.257-4.255a8.154,8.154,0,0,1-1.758-2.8A24.4,24.4,0,0,1,433.785,237" transform="translate(-129.831 -72.588)" fill="#fecda0" fill-rule="evenodd"/>
          <path id="Trazado_841764" data-name="Trazado 841764" d="M427.614,238.282c.012.033.025.065.04.1a17.485,17.485,0,0,1,1.761,5.753c.031,2.968.1,3.95-2.007,8.539a19.723,19.723,0,0,1-2.643,4.678c-.579.535-1.134.967-1.486,1.357,1.284.222,2.911-1.693,3.358-3.052s2.23-6.2,4.556-8.454-.071-1.606-.268-2.32a26.472,26.472,0,0,1-.389-2.8c-.529-2.078-1.423-3.492-2.923-3.8" transform="translate(-130.003 -73.184)" fill="#efb88b" fill-rule="evenodd"/>
          <path id="Trazado_841765" data-name="Trazado 841765" d="M405.7,132.2c.77,5.352-6.206,9.027-5.251,15.377v0a38.3,38.3,0,0,0,.676,9.681c.875,4.318,5.595,15.546,7.137,18.179a100.446,100.446,0,0,1,5.663,11.3c.639,2.007.947,3.825,1.318,5.4.328,1.4,6.71,17.23,6.774,17.36,2.654.468,5.005-1.912,5.476-2.671-1.005-3.051-3.2-15.7-3.659-18.023-.051-.255-.1-.487-.152-.694-1.269-5.163-2.739-6.568-3.741-9.182s-1.291-13.033-1.778-16.833c-.539-4.2-2.053-9.981-1.286-11.948.563-1.444,2.359-4.235,3.047-7.395s-1.655-8.542-1.656-8.546C417.308,131.9,405.7,132.2,405.7,132.2" transform="translate(-122.963 -40.599)" fill="#5c5e64" fill-rule="evenodd"/>
          <path id="Trazado_841766" data-name="Trazado 841766" d="M423.471,213.548c-.345-2.02-4.78-9.946-6.937-14.971-2.232-5.2.331-8.214-.834-7.5s-.217,2.248-7.6-14.11c-6.29-13.931-6.66-14.973-6.638-17.339.023-2.434.617-3.978,3.331-3.205,4.631,1.319,10.742-2.612,10.742-2.612s-8.07,4.381-12.443-.5c-2.342-2.615-.519-7.285-1-7.765-.844-.849-2.283,2.037-1.673,6.092v0a38.332,38.332,0,0,0,.676,9.682c.874,4.317,5.594,15.546,7.137,18.179a100.151,100.151,0,0,1,5.663,11.3c.639,2.006.947,3.825,1.318,5.4.328,1.4,6.71,17.23,6.774,17.36a4.02,4.02,0,0,0,1.48-.013" transform="translate(-122.938 -44.655)" fill="#2a2f36" fill-rule="evenodd"/>
          <path id="Trazado_841767" data-name="Trazado 841767" d="M341.087,131.229,339,125.107l-4.865-10.978s-8.289-.282-7.985,0c.226.211.441.4.638.567.179.149.382.3.6.459.355.252.755.509,1.167.761.492.3,1,.589,1.489.854.556.3,1.077.574,1.491.784.554.28.917.452.917.452s-.215.471-.5,1.005a8.629,8.629,0,0,1-.679,1.107c-.255.334-.486.513-.617.316-.505-.755-.75-1.206-1.1-1.39a1.325,1.325,0,0,0-.95-.024c-.2.047-.428.116-.7.205a4.693,4.693,0,0,1-1.489.293,1.473,1.473,0,0,1-1.1-.446,2.922,2.922,0,0,1-.632-1.26,6.429,6.429,0,0,1-.144-1.88,7.365,7.365,0,0,0-.109-1.925c-.144-.585-6.212-.856-5.908-.225a10.559,10.559,0,0,0,1.061,1.747,8.658,8.658,0,0,0,.962,1.087,5.689,5.689,0,0,0,1.134.85,3.184,3.184,0,0,0,1.256.413c.329.029.558.52.76,1.146.151.465.286,1.005.438,1.488.206.657.493.87.8.876a1.873,1.873,0,0,0,.922-.378c1.31-.819.364,1.11,1.709.512.572-.254.171,1.015,1.224.394.77-.454.944.068,1.127.467a.938.938,0,0,0,1.357.308,3.225,3.225,0,0,0,1.068-1.161,10.144,10.144,0,0,0,.687-1.413c.141-.35.38-1.082.968-1.069.354.008.833.283,1.493,1.07a12.9,12.9,0,0,1,.908,1.242c.245.373.484.759.714,1.152.3.509.585,1.031.857,1.553.368.707.711,1.413,1.021,2.088.257.558.493,1.094.7,1.591.283.665.523,1.26.714,1.741.278.7.451,1.166.5,1.256C340.928,130.794,340.985,130.971,341.087,131.229Z" transform="translate(-97.825 -34.836)" fill="#efb88b" fill-rule="evenodd"/>
          <path id="Trazado_841768" data-name="Trazado 841768" d="M326.112,93.556a2.786,2.786,0,0,1-.443-2.124c.362-.914.042-1.842.329-1.957s-.209-1.136.76-1.439,4.706.7,4.342,1.317.051.951.61,1.61.85,2.533.113,2.814-5.711-.22-5.711-.22" transform="translate(-99.995 -27.022)" fill="#210f0a" fill-rule="evenodd"/>
          <path id="Trazado_841769" data-name="Trazado 841769" d="M326.641,90.809a1.089,1.089,0,0,0-.08.372c.014.1.123.236.1.328s-.141.175-.157.263c-.007.04,0,.085-.009.125s-.069.109-.072.161.025.114,0,.179a.785.785,0,0,0-.092.392,2.539,2.539,0,0,0,.186.42c.036.081.035.225.1.287.114.111.407.074.544.061a7.428,7.428,0,0,1,1.249-.078c.347.026.707.033,1.056.036.083,0,.165,0,.244,0a.306.306,0,0,0,.076-.006c.008-.021-.051-.107-.062-.123a1.112,1.112,0,0,0-.389-.265,6.808,6.808,0,0,0-.7-.324,3.091,3.091,0,0,1-.574-.2c-.121-.076-.326-.2-.317-.376,0-.085.111-.149.179-.179.141-.062.374-.115.464-.248a.209.209,0,0,0-.05-.258c-.011-.012-.1-.1-.085-.127.036-.065.163-.088.167-.174s-.059-.17-.033-.237c.02-.051.134-.069.177-.071.188-.006.371-.071.558-.067.407.008.771.243,1.178.247.042,0,.389.037.358-.065-.081-.27-.33-.394-.563-.511a3.129,3.129,0,0,0-.633-.28,1.122,1.122,0,0,0-.513-.075c-.142.032-.078.154-.147.237a.29.29,0,0,1-.289.092,3.15,3.15,0,0,0-.658-.191c-.074,0-.15.075-.227.057s-.15-.115-.221-.16a.675.675,0,0,0-.477-.105c-.215.037-.042.275-.093.407-.037.095-.162.315-.2.455" transform="translate(-100.226 -27.623)" fill="#492116" fill-rule="evenodd"/>
          <path id="Trazado_841770" data-name="Trazado 841770" d="M317.519,106.727a8.04,8.04,0,0,1,.024-4.865,10.2,10.2,0,0,1,3.552-5.163c2.274-1.712,5.892-1.1,6.772-1.188a8.776,8.776,0,0,1,6.052,2.927c2.472,3.313,2.632,7.84,1.03,8.186-.73.158-1.5-1.1-3.29-1.27-.906-.084-.981-1.048-2.168-1.253-3.295-.572-4.02,3.728-4.971,4.023-.35.109-.6-1.126-1.048-1.921-.425-.754-1.239-1.614-1.947-1.668-2.058-.157-4.005,2.194-4.005,2.194" transform="translate(-97.403 -29.322)" fill-rule="evenodd"/>
          <path id="Trazado_841771" data-name="Trazado 841771" d="M335.841,97.289a11.419,11.419,0,0,1,3.643,4.159c.143.353.3.7.434,1.054.031.079.045.166.078.245,0,.012.042.081.035.085-.073.039-.161-.141-.183-.177-.13-.211-.247-.438-.388-.641a9.865,9.865,0,0,0-1.955-2.2c-.171-.136-.343-.286-.5-.43a1,1,0,0,0-.171-.114s.077.123.08.13a2.577,2.577,0,0,0,.265.351,4.385,4.385,0,0,1,.734,1.225c.008.024.146.435.065.448-.172.028-.347-.2-.433-.318a9.837,9.837,0,0,0-.992-1.176c-.053-.051-.417-.441-.5-.4s.026.232.04.278c.073.25.195.48.262.733,0,.019.053.224.02.242-.048.026-.129-.1-.141-.119a3.413,3.413,0,0,0-.362-.471s-.078-.119-.1-.107c-.057.03.062.358,0,.368-.131.021-.409-.272-.5-.222-.074.04-.023.312-.1.351-.148.08-.315-.445-.351-.511-.347-.647-.694-1.277-1.084-1.9-.178-.283-.388-.533-.591-.8-.067-.087-.133-.175-.2-.258a1.525,1.525,0,0,1-.1-.151c.208.013.436.278.581.409a9.27,9.27,0,0,1,1.233,1.3,4.593,4.593,0,0,1,.374.534c.01.019.185.272.187.267a.834.834,0,0,0-.088-.367,6.728,6.728,0,0,0-.435-1c-.01-.019-.177-.372-.128-.38.355-.058.8.555,1.016.773.041.042.319.356.389.318.161-.087-.185-.509-.22-.572a1.508,1.508,0,0,1-.1-.2c.222-.036.56.425.734.534.029.018.134.146.184.118s-.025-.093-.05-.134c-.089-.146-.188-.3-.287-.432-.006-.008-.116-.156-.1-.165.079-.043.265.147.309.189.25.243.5.482.737.74.093.1.183.21.276.31.035.038.142.143.118.1a4.626,4.626,0,0,0-.616-.76,10.144,10.144,0,0,0-1.11-1.273" transform="translate(-102.225 -29.784)" fill="#492116" fill-rule="evenodd"/>
          <path id="Trazado_841772" data-name="Trazado 841772" d="M330.988,97.678a21.415,21.415,0,0,1,1.377,3.526,8.356,8.356,0,0,1,.079.955,2.562,2.562,0,0,1-.016.379c0,.032,0,.063-.006.094s0,.085,0,.064a1.923,1.923,0,0,0-.132-.775,8.9,8.9,0,0,0-.477-1.46c-.094-.2-.193-.391-.29-.588,0,0-.062-.147-.08-.135-.062.042.106.411.125.465a4.147,4.147,0,0,1,.222,1.434c0,.038.017.42-.025.43s-.1-.177-.109-.205c-.1-.258-.17-.526-.266-.784-.006-.018-.118-.263-.119-.261-.048.064-.018.222,0,.288a3.748,3.748,0,0,1,.048.894c0,.054.051.3-.008.339-.014.01-.071-.168-.073-.176-.04-.164-.06-.342-.086-.509a7.59,7.59,0,0,0-.256-1.473c-.261-.7-.551-1.4-.787-2.115q-.081-.247-.161-.495a.632.632,0,0,1-.044-.105c.077-.052.252.288.274.328a13.71,13.71,0,0,1,.589,1.24c.045.109.109.2.152.312.019.046.049.08.072.123.01.017.024.067.033.05.046-.1-.006-.2-.028-.3a5.832,5.832,0,0,0-.175-.656.851.851,0,0,1-.076-.273c.008-.042.171.184.174.188a6.472,6.472,0,0,1,.337.619c.016.03.1.142.147.108s-.09-.364-.1-.417a4.186,4.186,0,0,0-.254-.792c-.042-.094-.082-.351-.059-.311" transform="translate(-101.324 -29.933)" fill="#492116" fill-rule="evenodd"/>
          <path id="Trazado_841773" data-name="Trazado 841773" d="M389.641,144.4c-1.361.127-3.447.433-5.663.6-2.138.16-4.412.133-6.352.258a17.072,17.072,0,0,1-4.929-.394c-2.284-.509-3.946-1.061-5.432-.976h0c-.148.008-.3.021-.44.037-.024-.933-.008-1.913-.008-1.913s7.2,3.85,11.982,2.1a29.546,29.546,0,0,1,8.525-1.653,12.2,12.2,0,0,0,2.7-.74c.478-.185-.017,1.586-.382,2.681" transform="translate(-112.66 -43.523)" fill="#efb88b" fill-rule="evenodd"/>
          <path id="Trazado_841774" data-name="Trazado 841774" d="M354.78,127.763a4.753,4.753,0,0,0,2.554.579,12.09,12.09,0,0,0,2.219-.646,8.229,8.229,0,0,0,2.042-1.078l-6.3,6.7-4.8-1.284-4.99-8.773s1.1.59.983.518c.3.144,8.037,3.893,8.287,3.988" transform="translate(-106.117 -37.856)" fill="#efb88b" fill-rule="evenodd"/>
          <path id="Trazado_841775" data-name="Trazado 841775" d="M406.8,242.1c.139-.33-5.108-5.571-5.618-2.965a17.482,17.482,0,0,1-1.851,5.724c-1.674,2.451-2.184,3.293-6.536,5.85a19.763,19.763,0,0,1-4.846,2.32c-1.628.222-2.911.141-2.853,1.112.054.9,1.892.817,3.785.631a40.971,40.971,0,0,0,4.6-.328,23.662,23.662,0,0,1,6.234-.682c1.321.164,4.157.766,5.342.036s1.092-3.066.588-4.78a8.161,8.161,0,0,1,.161-3.3,24.33,24.33,0,0,1,.994-3.617" transform="translate(-118.273 -73.224)" fill="#fecda0" fill-rule="evenodd"/>
          <path id="Trazado_841776" data-name="Trazado 841776" d="M400.978,240.861a14.959,14.959,0,0,1-1.651,4.752c-1.674,2.45-2.184,3.293-6.536,5.849a19.709,19.709,0,0,1-4.846,2.32c-1.628.222-2.911.142-2.853,1.113.054.9,1.892.817,3.785.631a40.643,40.643,0,0,0,4.6-.328,23.692,23.692,0,0,1,6.234-.682c1.321.164,4.157.766,5.342.037a1.737,1.737,0,0,0,.673-.84c-.534.278-2.494,1.2-4,.625-1.764-.673-1.741-2.245-4.174-.7a12.794,12.794,0,0,1-7.917,1.314c-1.256-.449-1.705-.183-.9-.763a55.731,55.731,0,0,1,7.015-3.908,20.551,20.551,0,0,0,5.226-2.951c.9-.848,1.213-4.926,1.213-4.926a4.084,4.084,0,0,0-1.206-1.538" transform="translate(-118.273 -73.976)" fill="#efb88b" fill-rule="evenodd"/>
          <path id="Trazado_841777" data-name="Trazado 841777" d="M357.342,112.912l.062.017c.3.085.61.174.916.263,1.243.364,4.57,2.925,10.146,5.381-.888,3.351-3.214,12.074-4.3,17.088a12.041,12.041,0,0,0-3.911-.615h0a18.643,18.643,0,0,0-3.162.586,8.5,8.5,0,0,1-3.994-.012c-3.455-.94-4.241-4.782-4.374-5.032-.105-.2-.876-2.306-1.851-4.647-.375-.9-1.452-3.4-1.453-3.4l-.1-.22-.087-.2-.071-.162-.1-.219-.073-.164c-.027-.06-.053-.119-.08-.176s-.051-.113-.076-.166l-.073-.161-.075-.162-.091-.2c-.011-.024-.022-.047-.033-.071l-.042-.089-.054-.115-.049-.1c-.019-.04-.038-.079-.055-.116s-.026-.052-.037-.078l-.033-.067L344.26,120l-.048-.1-.046-.091c-.029-.058-.054-.107-.076-.15-.07-.135-.1-.191-.1-.191l2.043,1.136.085.127.08.121.155.231.157.231.1.146.122.178.1.145.1.152.064.093.075.107c.031.045.062.091.095.136l.084.121.087.123.116.165.087.123.1.141.125.175.128.177.121.168.14.191.1.139.1.14.085.116.122.164.1.132.1.131.082.108.093.122.158.205.15.191.149.188c.071.088.14.175.21.26s.147.179.219.266.155.182.23.269.141.161.209.236l.114.125.087.093c.059.062.116.121.173.177s.139.136.206.2.114.1.169.147.1.082.15.116c.067.047.134.091.2.132s.137.079.207.115c.094.047.19.09.287.127a3.208,3.208,0,0,0,.314.105c.085.024.17.045.257.063s.2.037.294.05.221.024.331.03l.146.006c.063,0,.125,0,.188,0s.111,0,.166,0l.125-.008c.076,0,.152-.012.229-.02l.146-.018c.076-.01.15-.021.225-.035l.157-.028.154-.032c.064-.015.128-.029.191-.045.089-.022.177-.046.264-.07.1-.03.206-.062.3-.095.084-.028.165-.056.245-.085l.154-.058.166-.068.14-.06.15-.068q.144-.069.268-.134c.073-.039.14-.076.2-.112.078-.046.144-.089.2-.128s.13-.085.215-.136l.253-.151.164-.1c.06-.037.123-.077.187-.118l.163-.108.134-.094.156-.114c.053-.039.105-.081.159-.123l.128-.1c.045-.038.091-.078.136-.119s.1-.094.156-.144.1-.1.156-.155c.034-.035.068-.071.1-.107s.091-.1.136-.152.106-.126.158-.192.091-.118.135-.179.083-.118.124-.179.072-.109.107-.166.065-.107.1-.164.07-.125.1-.19.076-.15.112-.227.063-.139.093-.21c.023-.055.046-.112.068-.17.03-.079.06-.161.087-.244s.058-.179.084-.272q.022-.076.042-.154c.017-.067.034-.135.049-.2s.033-.15.047-.228.03-.166.044-.251.021-.149.03-.225.018-.154.025-.232c.009-.095.016-.191.022-.289s.009-.2.012-.3,0-.2,0-.308c0-.089,0-.178-.007-.269s-.01-.211-.017-.318c0-.065-.009-.13-.015-.2,0-.049-.009-.1-.014-.149-.008-.076-.016-.152-.026-.23-.006-.053-.013-.107-.021-.161-.012-.093-.026-.184-.04-.276s-.03-.181-.046-.27-.03-.16-.046-.239-.03-.144-.046-.215-.038-.168-.059-.252c-.016-.064-.033-.129-.049-.192s-.042-.155-.064-.23-.044-.151-.067-.225-.039-.123-.058-.184c-.032-.1-.065-.191-.1-.285s-.073-.2-.111-.294c-.024-.063-.049-.125-.075-.186s-.06-.145-.091-.215c-.044-.1-.089-.2-.135-.3-.016-.035-.033-.07-.05-.1-.027-.055-.054-.111-.082-.166l-.065-.126-.033-.061-.046-.087-.052-.1-.053-.093-.053-.092-.055-.093-.049-.081-.066-.109-.046-.072c-.015-.024-.03-.047-.045-.071l-.074-.112-.049-.075-.04-.059-.038-.055-.04-.058-.017-.024-.027-.038-.014-.02-.019-.026-.027-.037c-.01-.015-.02-.028-.03-.042l-.031-.042-.03-.04-.042-.056-.042-.055-.03-.04-.02-.025-.035-.045-.035-.044-.041-.051-.024-.029c-.008-.01-.015-.019-.024-.028l-.041-.051-.051-.061-.047-.056-.039-.046-.028-.032-.028-.032-.042-.048-.023-.026-.023-.026-.021-.023-.018-.021-.024-.026-.026-.028-.037-.041-.029-.031-.035-.037-.035-.037-.039-.041-.042-.043-.034-.035-.042-.043" transform="translate(-105.65 -34.679)" fill="#ff856a" fill-rule="evenodd"/>
          <path id="Trazado_841778" data-name="Trazado 841778" d="M345.422,125.442l-.1-.22c-.03-.067-.058-.133-.087-.2l-.071-.162-.1-.219L345,124.48l-.08-.177-.075-.166c-.026-.055-.05-.108-.073-.16l-.075-.162c-.031-.069-.062-.134-.091-.2l-.033-.07-.042-.09-.054-.114-.049-.1c-.019-.04-.037-.079-.055-.116l-.037-.078c-.012-.023-.022-.046-.033-.068l-.038-.078c-.017-.034-.033-.067-.048-.1l-.046-.091-.076-.149c-.07-.136-.1-.192-.1-.192l2.043,1.136.084.126c.022.034.049.075.08.121l.156.231.157.231.1.146.122.179.1.145.1.151.064.093.075.107.095.136.084.121c.029.04.058.082.087.123l.116.165.087.123c.033.047.067.094.1.141l.125.175.128.178.121.168.14.192.1.139.1.139c.028.039.057.078.086.116l.121.164.1.132c.033.044.066.088.1.132l.082.108.093.121.158.205.15.192.149.188.21.26q.11.136.22.265t.229.27c.071.082.141.16.209.236l.114.125.087.093q.088.092.173.177c.071.071.139.137.206.2s.114.1.169.148.1.082.15.116c.066.047.133.091.2.132s.137.08.208.115c.094.048.189.09.286.128s.208.076.314.105c.085.024.17.045.257.063s.2.037.294.05.22.024.331.03l.146.006c.063,0,.125,0,.188,0s.111,0,.166-.006l.125-.007q.114-.008.229-.021l.146-.017c.076-.01.151-.022.225-.035l.157-.029c.052-.01.1-.021.155-.032l.191-.044c.089-.022.177-.046.263-.071.1-.03.206-.062.306-.094.083-.028.165-.056.244-.085l.154-.059.166-.067.14-.06.15-.069c.1-.045.186-.09.269-.134s.139-.076.2-.112c.078-.046.144-.089.2-.127s.13-.085.215-.137l.254-.151.163-.1c.06-.037.123-.077.187-.119s.107-.07.163-.108.089-.062.135-.094.1-.074.155-.114l.159-.124.127-.1c.046-.039.091-.078.137-.119s.1-.094.155-.144.1-.1.156-.155c.034-.035.068-.071.1-.107s.091-.1.136-.153.105-.125.157-.191.091-.118.136-.18.083-.117.123-.178.064-.1.1-.149c-.454,1.044-3.947,4.211-2.19,6.449,1.057,1.344,2.674,2.715,6.917,4.22a3.648,3.648,0,0,1-.188.68,20.731,20.731,0,0,0-3.91-.616h0a18.741,18.741,0,0,0-3.162.585,8.487,8.487,0,0,1-3.994-.012c-3.455-.94-4.241-4.782-4.373-5.032-.014-.025-.037-.08-.071-.163a.29.29,0,0,0-.006-.032c-.02-.052-.041-.1-.061-.155s-.051-.127-.076-.191l-.06-.152-.071-.179-.089-.226-.073-.182c-.335-.867-.809-2.082-1.345-3.367-.173-.414-.493-1.166-.79-1.858-.012-.031-.026-.062-.039-.092-.024-.055-.046-.111-.07-.166l-.066-.155-.081-.19-.1-.229-.087-.2-.074-.173c-.026-.058-.05-.114-.074-.17l-.074-.17" transform="translate(-105.65 -37.584)" fill="#f66c52" fill-rule="evenodd"/>
          <path id="Trazado_841779" data-name="Trazado 841779" d="M390.967,125.448c6.886-.655,11.841.8,15.183.834a4.824,4.824,0,0,1,.747.07q.306.072.609.159c.148.042.3.087.443.134q.245.079.49.167c.162.058.324.12.485.184.179.071.357.146.533.224q.238.1.472.217c.137.067.274.134.41.2.109.056.218.114.325.173s.222.122.331.185q.2.112.387.229c.143.087.283.176.421.266q.148.1.292.195c.1.069.2.139.3.209q.239.172.468.349c.121.094.241.19.358.287s.209.174.31.263q.225.2.435.4.189.18.368.363c.1.1.194.2.287.3q.165.182.32.367c.1.123.2.247.3.371.107.141.209.283.3.425.073.108.144.218.212.327s.125.206.185.31.106.191.157.287.11.214.162.322c.06.125.118.252.173.379s.106.255.155.383c.07.183.134.367.193.552q.069.215.127.432c.033.125.065.249.094.375s.06.266.086.4.046.246.066.369q.041.249.071.5.035.3.058.6.017.232.026.464c0,.114.008.229.01.343s0,.243,0,.363c0,.165-.006.33-.012.493s-.015.327-.026.49c-.012.188-.029.376-.047.562q-.024.235-.053.468t-.065.475c-.021.148-.045.294-.069.441s-.047.269-.071.4c-.031.166-.063.33-.1.493q-.057.276-.118.545c-.039.174-.08.346-.121.514q-.043.176-.087.347t-.089.339q-.062.235-.125.461c-.077.279-.154.547-.229.8-.046.161-.092.317-.137.468-.055.186-.107.365-.157.536-.057.193-.107.4-.153.623s-.089.47-.128.723q-.039.262-.073.54c-.033.272-.061.556-.087.849q-.021.233-.038.473c-.009.118-.017.239-.026.36q-.014.214-.026.433c-.009.146-.017.294-.025.443s-.014.289-.021.435-.014.294-.02.443-.012.315-.019.474-.013.34-.019.512c-.008.195-.015.391-.022.589-.006.146-.01.293-.016.441,0,.129-.01.258-.015.387-.006.147-.011.294-.017.441s-.012.29-.018.434q-.011.27-.024.542l-.023.453c-.011.2-.022.407-.035.61-.01.167-.021.334-.032.5s-.025.353-.038.529q-.017.214-.035.427c-.019.229-.041.457-.064.682q-.04.38-.085.752-.035.275-.073.544-.033.224-.069.444-.028.17-.058.339c-.024.131-.049.26-.074.388s-.055.27-.085.4l-.142.635q-.089.4-.182.822l-.107.485c-.048.22-.1.442-.146.667s-.093.428-.14.645q-.044.2-.088.409l-.1.468-.077.36-.116.551-.1.494q-.054.256-.107.511c-.02.095-.039.19-.06.285l-.089.433-.085.416c-.028.139-.057.277-.085.414l-.1.478c-.029.143-.057.283-.085.424l-.088.441q-.06.306-.118.6c-.029.149-.058.3-.086.442l-.07.364c-.027.139-.053.277-.078.412-.018.1-.036.191-.053.285-.029.155-.057.308-.085.457l-.059.326c-.023.13-.046.256-.067.38-.042.237-.08.463-.114.675-.028.173-.055.337-.078.491-.027.175-.051.339-.071.488-.03.228-.053.425-.068.588a2.912,2.912,0,0,0-.015.4c.007.1.015.232.024.38s.021.337.034.538q.012.2.028.43c.008.113.015.23.024.351.017.237.035.489.055.755.021.281.044.578.07.885.012.135.024.273.035.412q.021.238.044.482.026.283.054.573.032.329.068.667c.022.209.045.421.069.633s.053.45.08.677c.017.137.034.274.052.411.025.194.051.389.078.582.017.122.034.244.052.365q.048.332.1.66a5.8,5.8,0,0,1,.062.623c.014.279.014.581,0,.9,0,.117-.01.237-.018.36-.011.173-.025.351-.042.532s-.035.356-.057.54q-.044.363-.1.741c-.021.149-.044.3-.069.452-.032.2-.066.4-.1.607q-.044.251-.091.506-.057.3-.118.606-.041.2-.083.405-.059.287-.123.574c-.008.037-.016.076-.024.113-.786,3.5-3.957,14.9-4.066,15.646a9.743,9.743,0,0,1-5.988-1.652c.062-.285.095-.453.095-.453a153.806,153.806,0,0,0,1.077-15.38,34.9,34.9,0,0,1,.116-5.1c.261-2.694.729-4.286.517-5.238-.513-2.3-1.52-5.287-1.946-8.159-.441-2.983-.777-5.708-1.031-8.187-.212-2.078-.366-3.983-.475-5.723-.146-2.343-.211-4.384-.226-6.143-.015-1.642.015-3.038.061-4.2.119-3.023.633-6.425-.692-6.615-2.181-.312-9.893-1.286-11.014-.806-1.791-7.809,6.051-5.578,1.518-11.5Z" transform="translate(-119.103 -38.477)" fill="#8c8e94" fill-rule="evenodd"/>
          <path id="Trazado_841780" data-name="Trazado 841780" d="M324.639,105.1c-.272-.017-.632-.051-1.061-.1-.355-.037-.758-.082-1.2-.131s-.925-.1-1.433-.15c-.6-.06-1.244-.118-1.9-.166-.5-.037-1-.068-1.513-.091-.409-.019-.82-.032-1.228-.037-.5-.007-1,0-1.487.013-.359.012-.924-.009-1.611-.055-.476-.032-1.011-.076-1.575-.126-.676-.061-1.395-.132-2.106-.209-.785-.085-1.562-.175-2.263-.261-1.152-.143-2.1-.276-2.549-.363a19.5,19.5,0,0,1-2.369-.8c-.652-.239-1.4-.5-2.246-.759-.693-.209-1.45-.409-2.273-.583-.782-.165-1.623-.3-2.521-.4-.416-.045-.844-.082-1.285-.107-.658-.038-1.332-.094-2.01-.163-.971-.1-1.951-.226-2.9-.37-.618-.094-1.224-.195-1.808-.3s-1.129-.211-1.652-.32c-.811-.169-1.548-.341-2.176-.505a8.276,8.276,0,0,1-2.108-.737c-.325-.247-1.251-1.048-2.32-1.98-.878-.766-1.852-1.619-2.668-2.328-.625-.544-.772-.615-1.1-.881a18.548,18.548,0,0,1-1.652-1.384c-1.385-1.421-1.867-2.251-2.571-2.18-.483.049-.094.695.427,1.4.337.459.731.945.978,1.312.6.89,2.186,3.168,2.693,3.809.573.723,1.066,1.36,1.492,1.92.529.7.958,1.271,1.314,1.745a9.718,9.718,0,0,0,1.5,1.763,2.634,2.634,0,0,0,1.526.446,6.175,6.175,0,0,1,1.949.473c.42.174,1.055.488,1.824.872.524.261,1.111.556,1.735.86.5.242,1.015.491,1.545.734.513.237,1.036.469,1.557.687a23.415,23.415,0,0,0,2.817,1,9.024,9.024,0,0,0,1.571.3,18.458,18.458,0,0,1,2.187.382c.475.1.99.227,1.533.364.517.129,1.059.27,1.616.42.757.2,1.544.421,2.334.646.508.144,1.018.291,1.522.439.7.2,1.386.408,2.047.606.558.168,1.1.331,1.607.486l1.725.529c1.045.322,1.821.565,2.165.667.251.075.793.2,1.541.363.685.148,1.542.328,2.508.527l1.754.36,1.484.3,1,.2,1.934.4,1.783.369,1.456.3c.624.132,1.223.261,1.783.382.721.157,1.379.3,1.946.438.7.166,1.269.308,1.637.42a8.849,8.849,0,0,0,1.113.262,7.812,7.812,0,0,0,1.6.1,6.806,6.806,0,0,0,2.261-.475,5.943,5.943,0,0,0,1.593-.944,4.936,4.936,0,0,0,.811-.856,3.672,3.672,0,0,0,.54-1.025,2.345,2.345,0,0,0,.1-1.159,13.206,13.206,0,0,0-.488-1.875,9.262,9.262,0,0,0-.637-1.45,6.828,6.828,0,0,0-1.012-1.4,5.832,5.832,0,0,0-1.592-1.2,6.685,6.685,0,0,0-1.468-.541,8.826,8.826,0,0,0-1.338-.217,12.679,12.679,0,0,0-1.394-.042c-.632.012-1.254.063-1.846.122-.635.064-1.237.139-1.781.189A9.273,9.273,0,0,1,324.639,105.1Z" transform="translate(-83.183 -27.526)" fill="#fecda0" fill-rule="evenodd"/>
          <path id="Trazado_841781" data-name="Trazado 841781" d="M322.942,114.535h0c-.391-.245-3.568-1.2-4.482-1.564-.685-.273-1.4-.552-2.133-.828-.635-.241-1.277-.48-1.907-.711-.733-.269-1.449-.527-2.12-.764-.592-.209-1.149-.4-1.648-.574-1.072-.367-1.883-.628-2.23-.721-.261-.07-.68-.2-1.206-.359s-1.141-.36-1.821-.578l-1.692-.544-1.667-.536c-.872-.279-1.725-.55-2.48-.784-1.1-.34-1.779-.976-2.239-1.077-.4-.089-1.019-.164-1.775-.25s-1.623-.179-2.55-.306a32.053,32.053,0,0,1-3.259-.594,15.62,15.62,0,0,1-1.812-.553,8.552,8.552,0,0,1-1.32-.622,15.989,15.989,0,0,0-1.454-.766,12.483,12.483,0,0,0-1.683-.636,11.558,11.558,0,0,0-1.467-.331c-.643-.1-1.174-.14-1.612-.206a2.378,2.378,0,0,1-1.014-.582,12,12,0,0,1-1.233-1.241c-.5-.566-.991-1.194-1.422-1.774s-.788-1.1-1.027-1.48c-.148-.231-.389-.561-.69-.948s-.267-.435-.646-.9c-.247-.3-2.817-2.977-2.817-2.977.3.4.62.8.832,1.117q.375.558.736,1.07c.469.669,1.862,2.645,2.265,3.154q.353.446.667.849.342.44.641.83c.394.514.734.966,1.032,1.364.421.561.756,1.012,1.036,1.37a5.606,5.606,0,0,0,.93,1.014,3.011,3.011,0,0,0,1.723.466,6.186,6.186,0,0,1,.838.147,6.5,6.5,0,0,1,.914.306c.447.185,1.137.529,1.973.946.529.264,1.115.557,1.736.858.576.28,1.181.567,1.8.845.55.248,1.108.488,1.659.709s1.1.421,1.619.588a10.7,10.7,0,0,0,2.267.506,20.161,20.161,0,0,1,2.508.454c.734.168,1.552.373,2.414.6.768.2,1.572.424,2.383.653.845.238,1.7.486,2.531.732s1.668.5,2.435.728c.995.3,1.9.58,2.638.809.874.27,1.522.471,1.826.562.281.084.928.231,1.822.423.463.1.992.211,1.571.33.524.109,1.091.226,1.686.348l3.044.621,1.843.377c.687.141,1.371.282,2.039.421" transform="translate(-83.398 -28.052)" fill="#efb88b" fill-rule="evenodd"/>
          <path id="Trazado_841782" data-name="Trazado 841782" d="M558.058,255.632c-1.9,1.675-2.494,2.584-2.72,3.218s-3.808,2.857-6.8,2.688-4.012-.919-4.012-1.735a1.367,1.367,0,0,1,.144-.615,1.556,1.556,0,0,1,.536-.609l.827-.65a1.91,1.91,0,0,0,1.189-.939l6.485-5.108,3.67-1.531,0,0s2.3,1.183,2.492,1.8l0,.006c.179.62.089,1.8-1.815,3.476" transform="translate(-167.241 -76.89)" fill="#dfbda3"/>
          <path id="Trazado_841783" data-name="Trazado 841783" d="M557.68,248.63l0,0c-.114.087-3.811,2.864-4.11,3.906-.308,1.058-2.688,5.07-4.251,5.546s-3.741-.34-3.809-1.224a1.564,1.564,0,0,1,.816-.647l.011,0a1.908,1.908,0,0,0,1.188-.939,3.877,3.877,0,0,0,.433-1.54c.2-1.937-.068-6.7,1.088-6.868a24.264,24.264,0,0,0,4.524-2.108,7.1,7.1,0,0,1,2.277,1.5,22.9,22.9,0,0,1,1.836,2.377" transform="translate(-167.543 -75.173)" fill="#2d2b29"/>
          <path id="Trazado_841784" data-name="Trazado 841784" d="M516.077,259.181c-.952,2.652-7.48,1.36-9.113,1.428a22.464,22.464,0,0,1-6.46-.748c-2.04-.612-1.632-1.5-1.632-2.244s1.836-.476,3.264-1.156,4.353-3.808,4.964-4.353,1.973,0,1.973,0,3.432,0,4.806-.046.906,1.61.906,2.189a5.253,5.253,0,0,0,.612,2.114,10.082,10.082,0,0,1,.558,2.1c.079.416.123.718.123.718" transform="translate(-153.209 -77.356)" fill="#2d2b29"/>
          <path id="Trazado_841785" data-name="Trazado 841785" d="M504.882,139.7s-.34,9.045-.884,12.717a47.215,47.215,0,0,0,.884,21.762c2.924,11.289,3.7,37.13,5.055,40.939l2.629,1.224,2.629-1.587s.54-8.007,1.179-11.56c1.451-8.07-.725-13.783-1.179-17.228s1.378-13.691,1.378-13.691,3.7,10.245,5.785,11.969,11.38,24.006,13.125,26.42l2.533.691,1.683-2.29s-1.55-10.376-1.683-11.674a31.416,31.416,0,0,0-5.774-12.966c-3.809-4.715-4.08-7.98-4.534-11.335s4.784-22.441-8.273-33.39l-7.141-4.284Z" transform="translate(-154.528 -41.591)" fill="#2d2b29"/>
          <path id="Trazado_841786" data-name="Trazado 841786" d="M536.567,107.234a9.421,9.421,0,0,1-3.084,4.9c-2.539,2.124-9,7.6-10.155,9.4l-8.569,2.788s-2.516-4.829-2.72-5.576-.883-4.9-.883-4.9,1.972-2.516,1.768-2.925-3.4-7.709,6.869-8.547L528.9,99.3l5.848,2.312Z" transform="translate(-156.992 -30.498)" fill="#5c2d01"/>
          <path id="Trazado_841787" data-name="Trazado 841787" d="M568.726,95.543a1.177,1.177,0,0,1-.2,1.01.781.781,0,0,1-.835.759s0,.538-.691.34-7.434-6.286-7.755-7.881-.933-1.9-.933-1.9c-.193-.218-.451-.466-.677-.672a2.426,2.426,0,0,1-.653-.582c-.751-1.05-7.888-7.553-7.888-7.553l-2.019,3.981-5.3,8.161-1.956,6.71c-.454,1.948-1.746,1.535-1.746,1.535-2.108-.732-2.291-3.757-2.606-4.8a23.661,23.661,0,0,0-1.224-2.821l-.544.917c2.993,6.708-3.264,12.42-8.887,10.07s-1.768-9.755-1.768-9.755a29.4,29.4,0,0,0,4.671-4.668C535.7,74.7,543.948,71.3,545.762,69.943s2.538-.316,2.538-.316,1.724-1,2.176-.544c.391.389,8.541,11.375,10.766,14.376.182.25.326.443.424.571.035.071.076.144.12.22a13.02,13.02,0,0,0,1.156,1.847,4.376,4.376,0,0,0,1.268,1.2c1.028.781,4.233,5.707,4.592,6.548a2.19,2.19,0,0,1-.076,1.7" transform="translate(-160.249 -21.181)" fill="#f18440"/>
          <path id="Trazado_841788" data-name="Trazado 841788" d="M554.765,88.333a.3.3,0,0,1-.078-.01,14.264,14.264,0,0,0-5.616-.263.3.3,0,0,1-.124-.587,14.563,14.563,0,0,1,5.895.271.3.3,0,0,1-.078.59" transform="translate(-168.527 -26.803)" fill="#ce6328"/>
          <path id="Trazado_841789" data-name="Trazado 841789" d="M546.045,104.138s-2,.082-2.682-1.278a25.684,25.684,0,0,1-1.088-2.494l-2.492.038s.98-1.529,2.3-3.531c.585,1.267,3.087,6.631,3.963,7.265" transform="translate(-165.785 -29.753)" fill="#ce6328"/>
          <path id="Trazado_841790" data-name="Trazado 841790" d="M539.65,95.531a.294.294,0,0,1-.161-.048.3.3,0,0,1-.091-.414c.01-.016,1-1.553,2.3-3.534,2.521-3.821,5.72-8.524,6.656-9.228a5.512,5.512,0,0,0,.818-.847,3.057,3.057,0,0,1,2.17-1.427h.019c.954,0,2.023.709,3.361,2.231l.134.152L553,86.088a.3.3,0,1,1-.535-.271l1.675-3.308c-1.136-1.261-2.046-1.875-2.776-1.875h-.012c-.7.006-1.193.593-1.718,1.214a5.954,5.954,0,0,1-.917.939c-.676.509-2.99,3.732-6.514,9.079-1.3,1.977-2.287,3.511-2.3,3.527a.3.3,0,0,1-.253.139" transform="translate(-165.652 -24.581)" fill="#ce6328"/>
          <path id="Trazado_841791" data-name="Trazado 841791" d="M553.128,88.372s-4.443.952-6.982,2.9c0,0,.635,2.086,0,2.629s-2.765.589-2.765.589.635,6.257,3.536,6.982,7.526-.362,7.526-.362-4.67,6.392-5.531,11.651-.771,17.681,9.929,16.321c0,0-4.715-1.269-2.63-9.068s6.257-10.608,1.723-20.038l-.227-.941s2.322-1.821.362-6.449c-1.79-4.228-4.942-4.216-4.942-4.216" transform="translate(-166.89 -27.142)" fill="#2d2b29"/>
          <path id="Trazado_841792" data-name="Trazado 841792" d="M509.464,120.3s5.644,8.433,12.173,7.685c0,0-3.06,3.468-1.428,7.072,0,0-9.317-1.768-14.553,0,0,0-.34-9.044,3.808-14.757" transform="translate(-155.301 -36.949)" fill="#f18440"/>
          <path id="Trazado_841793" data-name="Trazado 841793" d="M518.214,249.925v1.542s-2.041,1.451-2.267,2.04-1.179.68-1.632.59-1.36-1.5-1.36-1.5v-2.313a28.337,28.337,0,0,0,5.259-.362" transform="translate(-157.545 -76.76)" fill="#f18440"/>
          <path id="Trazado_841794" data-name="Trazado 841794" d="M549.826,243.311a9.426,9.426,0,0,1,.544,2.618,4.626,4.626,0,0,1,1.19,1.19.981.981,0,0,0,1.428.408,2.39,2.39,0,0,0,.884-1.836c0-.748.51-1.836,1.02-1.87l-.85-2.108a11.7,11.7,0,0,1-4.216,1.6" transform="translate(-168.869 -74.238)" fill="#f18440"/>
          <path id="Trazado_841795" data-name="Trazado 841795" d="M515.113,263.816c-1.4.544-6.708.5-8.569.226s-4.624.15-6.664-.628-2.674-2.862-1.314-3.248c.3,1.7,1.9,1.532,3.977,2.008a13.921,13.921,0,0,0,5.77-.275c1.657-.3,3.106.308,4.806.275a3.484,3.484,0,0,0,1.752-.5,2.894,2.894,0,0,0,.777-.667c.079.416.123.719.123.719s.748,1.542-.658,2.086" transform="translate(-152.905 -79.905)" fill="#dfbda3"/>
          <path id="Trazado_841796" data-name="Trazado 841796" d="M558.058,256.236c-1.9,1.675-2.494,2.584-2.72,3.218s-3.808,2.857-6.8,2.688-4.012-.919-4.012-1.735a1.367,1.367,0,0,1,.144-.615c.12.925,1.42,1.983,3.733,1.75s5.214-3.6,5.394-4.195,3.582-3.96,4.551-4.725a.962.962,0,0,1,1.524.134l0,.006c.179.62.089,1.8-1.815,3.476" transform="translate(-167.241 -77.493)" fill="#2d2b29"/>
          <path id="Trazado_841797" data-name="Trazado 841797" d="M522.525,175.92A54.279,54.279,0,0,1,523,165.865a4.987,4.987,0,0,1,.592-1.122,14.332,14.332,0,0,0,1.74-3.15c1.289-3.439.758-7.222-.021-10.73-.272-1.2-.615-2.388-.946-3.584,2.013,4.482,3.551,9.8,1.81,14.631a22.454,22.454,0,0,1-2.331,4.037,13.6,13.6,0,0,0-.479,2.6c-.3,2.445-.535,4.91-.84,7.371" transform="translate(-160.478 -45.234)" fill="#191716"/>
          <path id="Trazado_841798" data-name="Trazado 841798" d="M574.574,86.559a.3.3,0,0,1-.213-.089c-2.2-2.228-14.531-16.342-14.656-16.484a.3.3,0,0,1,.452-.395c.125.143,12.44,14.243,14.631,16.457a.3.3,0,0,1-.213.511" transform="translate(-171.881 -21.342)" fill="#ce6328"/>
          <path id="Trazado_841799" data-name="Trazado 841799" d="M588.261,106.247a.3.3,0,0,1-.22-.1l-2.6-2.806a.3.3,0,0,1,.441-.407l2.6,2.806a.3.3,0,0,1-.22.5" transform="translate(-179.785 -31.586)" fill="#ce6328"/>
          <path id="Trazado_841800" data-name="Trazado 841800" d="M587.776,107.392a.3.3,0,0,1-.227-.1l-3.044-3.509a.3.3,0,1,1,.453-.393L588,106.895a.3.3,0,0,1-.227.5" transform="translate(-179.498 -31.721)" fill="#ce6328"/>
          <path id="Trazado_841801" data-name="Trazado 841801" d="M586.534,108.15a.3.3,0,0,1-.243-.123l-3.127-4.268a.3.3,0,0,1,.484-.355l3.127,4.268a.3.3,0,0,1-.065.419.3.3,0,0,1-.177.058" transform="translate(-179.091 -31.721)" fill="#ce6328"/>
          <path id="Trazado_841802" data-name="Trazado 841802" d="M189.421,117.938l-.961-.285-2.446-3.034-3.385,1.79-3.692.088-1.921,9.829,3.145,3.188a24.189,24.189,0,0,1,2.1,9s9.217,3.756,9.347,3.712,2.359-3.712,2.359-3.712a11.536,11.536,0,0,1,.436-2.839,8.3,8.3,0,0,0,3.1-7.251c-.328-4.871-2.254-6.665-2.254-6.665l.026-3.055Z" transform="translate(-54.367 -35.203)" fill="#5c2d01"/>
          <path id="Trazado_841803" data-name="Trazado 841803" d="M194.672,149.1s-.376,6.453,0,7.644c0,0-10.025,7.338-15.349-.337,0,0,3.642-5.123,3.642-7.307,0,0,8.212,1.136,11.707,0" transform="translate(-55.076 -45.794)" fill="#f18440"/>
          <path id="Trazado_841804" data-name="Trazado 841804" d="M185.117,110c1.813-1.31,5.831,1.245,5.831,1.245a3.339,3.339,0,0,1,.165-1.085,19.434,19.434,0,0,1,1.363-3.174,8.475,8.475,0,0,0,3.845,1.617c1.835.087,3.32-4.152,3.32-4.152a6.436,6.436,0,0,0,1.7-.218c.173-.175-.7-2.272-.931-2.927s.186-1.483.362-2.752a6.321,6.321,0,0,0-.362-2.676s-9.249-2.128-9.773-2.128-2.9,9.763-2.9,9.763Z" transform="translate(-56.855 -28.794)" fill="#f18440"/>
          <path id="Trazado_841805" data-name="Trazado 841805" d="M159.58,271.8s.655.969.437,1.337-.262,1.5-3.9.946-5.013-2.326-5.373-3.047-.033-1.9-1.278-2.392-1.157-1.5-.677-2.7,5.458-.513,5.377-.382,5.412,6.236,5.412,6.236" transform="translate(-45.598 -81.468)" fill="#dfbda3"/>
          <path id="Trazado_841806" data-name="Trazado 841806" d="M151.28,259.346a8.254,8.254,0,0,0-1.092,1.66c-.568,1.092-1.267,2.927-1.267,2.927s-.35,1.223,1.179,1.4,1.747,2.97,2.1,3.276,4.5,2.8,5.5,2.49,1.442-1.4,2.009-1.311a5.384,5.384,0,0,0-1.136-2.009c-.611-.436-2.577-5.512-2.293-6.36s.072-1.91-.328-1.954-2.4-.772-2.4-.772Z" transform="translate(-45.728 -79.452)" fill="#2d2b29"/>
          <path id="Trazado_841807" data-name="Trazado 841807" d="M157.337,257.351l-.328,1.318s-2.686-.531-3.669,1.827c0,0-.48.459-.655-.371a11.488,11.488,0,0,0-.35-1.572,19.394,19.394,0,0,1,.35-2.447h3.669Z" transform="translate(-46.783 -78.658)" fill="#f18440"/>
          <path id="Trazado_841808" data-name="Trazado 841808" d="M203.351,267.2s-1.616,2.446,1.573,2.883,4.542-.437,5.5-.393,6.706.735,8.212.515c1.524-.222,2.769-2.756.457-3.243-3.37-.71-10.285-1.467-10.59-1.467s-5.154,1.7-5.154,1.7" transform="translate(-62.33 -81.543)" fill="#dfbda3"/>
          <path id="Trazado_841809" data-name="Trazado 841809" d="M204.974,260.081s-.437,0-.655,1-.786,4.368-.786,4.368a16.584,16.584,0,0,0,5.285.83c2.053-.218,2.577-.786,4.237-.48s6.552.786,6.421-.394c0,0-.044-.306-.874-.306s-2.97-1.179-4.238-2.4-2.685-2.778-3.756-2.883a6.519,6.519,0,0,0-2.316.393c-.131,0-3.32-.131-3.32-.131" transform="translate(-62.512 -79.795)" fill="#2d2b29"/>
          <path id="Trazado_841810" data-name="Trazado 841810" d="M209.582,254.825l.371,3.254s-1,1.7-1.354,1.835a2.37,2.37,0,0,1-1.966-.437c-.35-.48-.961-1.616-1.311-1.616s-.655-2.447-.655-2.447l2.053-2.839Z" transform="translate(-62.86 -77.574)" fill="#f18440"/>
          <path id="Trazado_841811" data-name="Trazado 841811" d="M186.54,159.986s-8.141,3.2-15.349-.337a45.055,45.055,0,0,0-5.765,17.429c-.786,9.3-3.408,20.967-4.98,23.456s-6.814,8.911-7.6,25.946a7.271,7.271,0,0,0,4.652,1.245s4.521-15.79,6.749-18.412a57.632,57.632,0,0,0,6.421-10.352c1.7-3.408,8.386-20.049,8.386-20.049s3.669,20.311,4.718,22.67-.655,11.008,4.98,25.292c0,0,3.669.459,4.914-.59,0,0-1.856-16.97-1.594-19.591s2.534-22.016-.611-31.8-4.919-14.908-4.919-14.908" transform="translate(-46.944 -49.033)" fill="#2d2b29"/>
          <path id="Trazado_841812" data-name="Trazado 841812" d="M191.669,121.489s-2.359-2.555-4.718-2.49-4.324,3.8-4.39,5.438.852,9.828,7.6,5.242c0,0,15.987,2.489,19.329,2.293s17.32-.24,18.368.414,5.9,5.023,7.382,3.713c0,0,1.529,0,1.136-1.179,0,0,1.136.262,1-.917a.981.981,0,0,0,.765-.044.82.82,0,0,0,.2-1.092c-.175-.131-1.267-1.092-1.267-1.092s1.378.131,1.393-.2-.181-.753-.574-.753-2.064-2.359-2.883-2.424-6.191.2-8.648,0-27.945-4.1-34.694-6.913" transform="translate(-56.07 -36.548)" fill="#f18440"/>
          <path id="Trazado_841813" data-name="Trazado 841813" d="M194.92,118.206a91.33,91.33,0,0,1,12.6.764c5.438.852,13.3.721,15.2,1.179a45.16,45.16,0,0,0,9.5.459c.721-.262,2.228-2.228,2.752-2.882s1.747-2.185,2.228-2.228-.087,1.72-1.048,2.607c0,0-.131.473.263.407s3.178-3.146,4.062-3.015-1.638,2.523-2.719,3.375a.678.678,0,0,0-.328.426c-.065.3-.164.426.426,0s3.08-2,3.8-1.9.033.95-.819,1.376-2.916,1.42-2.916,1.939a10.336,10.336,0,0,0,2.053-.192c1.113-.218,1.871-.328,1.984.022s-.062.786-1.831.982a6.217,6.217,0,0,0-3.123,1.289c-.24.175-.371.59.218.459s2.119-.044,2.381.524-1.048.873-2.009.873-8.85-.205-11.728,0c-15.594,1.114-25.121-2.645-25.121-2.645s-3.884-3.273-5.827-3.819" transform="translate(-59.866 -35.472)" fill="#f18440"/>
          <path id="Trazado_841814" data-name="Trazado 841814" d="M196.8,93.987a5.088,5.088,0,0,0,.328-1.9c-.164-.459-7.786-9.009-14.426-1.278,0,0-1.267-.263-1.922-.437s-5.832.437-6.291,8.3-.524,9.37-.982,11.335-.349,10.025,5.526,11.2c0,0-2.25-8.256,2.468-13.1,0,0-.262-3.735-.655-6.225s-1.245-9.763,1.048-9.37c0,0-1.572,4.39,2.228,9.108,0,0,2.686-1.54,2.785-2.293s-.394-3.571,1.146-3.374.623,3.112,1.049,3.374,1.507-.557,2.424-1.376.852-1.441,2.064-1.638,3.211-2.326,3.211-2.326" transform="translate(-53.239 -26.901)" fill="#2d2b29"/>
          <path id="Trazado_841815" data-name="Trazado 841815" d="M215.186,127.575h-.023c-3.583-.269-11.7-2.4-12.043-2.5a.3.3,0,0,1,.153-.581c.084.022,8.406,2.213,11.935,2.478a.3.3,0,0,1-.022.6" transform="translate(-62.316 -38.234)" fill="#ce6328"/>
          <path id="Trazado_841816" data-name="Trazado 841816" d="M191.816,107.746s.215,4.972,1.355,6.712a19.414,19.414,0,0,1,1.363-3.173s-2.53-1.9-2.717-3.538" transform="translate(-58.913 -33.092)" fill="#ce6328"/>
          <path id="Trazado_841817" data-name="Trazado 841817" d="M194.59,101.444s-.437-.48-.568.349-.437,1.616.284,1.616.284-1.966.284-1.966" transform="translate(-59.536 -31.114)" fill="#ce6328"/>
          <path id="Trazado_841818" data-name="Trazado 841818" d="M191.338,134.232h-.013a18.078,18.078,0,0,1-4.754-.809.3.3,0,0,1,.231-.554,17.861,17.861,0,0,0,4.549.763.3.3,0,0,1-.012.6" transform="translate(-57.245 -40.801)" fill="#ce6328"/>
          <path id="Trazado_841819" data-name="Trazado 841819" d="M193.984,122.305a.307.307,0,0,1-.082-.011l-3.588-1.027a.3.3,0,0,1,.165-.577l3.588,1.026a.3.3,0,0,1-.082.589" transform="translate(-58.385 -37.065)" fill="#ce6328"/>
          <path id="Trazado_841820" data-name="Trazado 841820" d="M190.472,186.225a.439.439,0,0,1-.2-.049.45.45,0,0,1-.2-.6l1.7-3.332a.45.45,0,0,1,.8.408l-1.7,3.332a.449.449,0,0,1-.4.246" transform="translate(-58.362 -55.896)" fill="#191716"/>
          <path id="Trazado_841821" data-name="Trazado 841821" d="M260.8,140.212a.3.3,0,0,1-.19-.068l-1.682-1.376a.3.3,0,1,1,.38-.464l1.682,1.376a.3.3,0,0,1-.19.532" transform="translate(-79.493 -42.457)" fill="#ce6328"/>
          <path id="Trazado_841822" data-name="Trazado 841822" d="M259.364,141.434a.3.3,0,0,1-.209-.085l-1.66-1.605a.3.3,0,1,1,.417-.431l1.66,1.605a.3.3,0,0,1-.209.515" transform="translate(-79.057 -42.762)" fill="#ce6328"/>
          <path id="Trazado_841823" data-name="Trazado 841823" d="M257.706,142.969a.3.3,0,0,1-.228-.1l-1.7-1.982a.3.3,0,1,1,.454-.391l1.7,1.982a.3.3,0,0,1-.227.5" transform="translate(-78.534 -43.118)" fill="#ce6328"/>
          <path id="Trazado_841824" data-name="Trazado 841824" d="M260.2,136.91a.3.3,0,0,1-.182-.062l-2.053-1.573a.3.3,0,0,1,.365-.476l2.053,1.572a.3.3,0,0,1-.183.538" transform="translate(-79.193 -41.382)" fill="#ce6328"/>
        </g>
      </g>
    </g>
  </g>
</svg>
