<svg id="Grupo_1061076" data-name="Grupo 1061076" xmlns="http://www.w3.org/2000/svg" width="1163.635" height="127.962" viewBox="0 0 1163.635 127.962">
  <path id="Trazado_1" data-name="Trazado 1" d="M197.8,2564.888H322.67V2549.8" transform="translate(-195.592 -2549.798)" fill="none" stroke="#000" stroke-width="7"/>
  <path id="Trazado_2" data-name="Trazado 2" d="M197.8,2578.3H339.167v-28.5" transform="translate(-195.592 -2549.798)" fill="none" stroke="#000" stroke-width="7"/>
  <path id="Trazado_3" data-name="Trazado 3" d="M197.8,2597.793H357.91v-48" transform="translate(-195.592 -2549.798)" fill="none" stroke="#000" stroke-width="7"/>
  <path id="Trazado_4" data-name="Trazado 4" d="M197.8,2616.456H375.978V2549.8" transform="translate(-195.592 -2549.798)" fill="none" stroke="#000" stroke-width="7"/>
  <path id="Trazado_5" data-name="Trazado 5" d="M197.8,2628.921H390.809V2549.8" transform="translate(-195.592 -2549.798)" fill="none" stroke="#000" stroke-width="7"/>
  <path id="Trazado_6" data-name="Trazado 6" d="M197.8,2644.09H405.477V2549.8" transform="translate(-195.592 -2549.798)" fill="none" stroke="#000" stroke-width="7"/>
  <path id="Trazado_7" data-name="Trazado 7" d="M197.8,2660.465h220V2549.8" transform="translate(-195.592 -2549.798)" fill="none" stroke="#000" stroke-width="7"/>
  <path id="Trazado_8" data-name="Trazado 8" d="M241.208,2549.8v77.719H197.8v50.036" transform="translate(210.578 -2549.797)" fill="none" stroke="#000" stroke-width="7"/>
  <path id="Trazado_11" data-name="Trazado 11" d="M197.8,2549.8v77.719h43.4v50.036" transform="translate(83.564 -2549.797)" fill="none" stroke="#000" stroke-width="7"/>
  <path id="Trazado_9" data-name="Trazado 9" d="M249.154,2549.8v59.6H197.8v68.273" transform="translate(175.077 -2549.798)" fill="none" stroke="#000" stroke-width="7"/>
  <path id="Trazado_10" data-name="Trazado 10" d="M197.8,2549.8v59.6h51.351v68.273" transform="translate(111.119 -2549.798)" fill="none" stroke="#000" stroke-width="7"/>
  <g id="Rectángulo_3" data-name="Rectángulo 3" transform="translate(332.129 0.159)" fill="none" stroke="#000" stroke-width="7">
    <rect width="74.157" height="46.545" stroke="none"/>
    <rect x="3.5" y="3.5" width="67.157" height="39.545" fill="none"/>
  </g>
  <g id="Rectángulo_4" data-name="Rectángulo 4" transform="translate(586.156 0.159)" fill="none" stroke="#000" stroke-width="7">
    <rect width="39.445" height="61.535" stroke="none"/>
    <rect x="3.5" y="3.5" width="32.445" height="54.535" fill="none"/>
  </g>
  <g id="Rectángulo_9" data-name="Rectángulo 9" transform="translate(831.506 0.159)" fill="none" stroke="#000" stroke-width="7">
    <rect width="85.202" height="16.567" stroke="none"/>
    <rect x="3.5" y="3.5" width="78.202" height="9.567" fill="none"/>
  </g>
  <g id="Rectángulo_17" data-name="Rectángulo 17" transform="translate(1009.009 53.805)" fill="none" stroke="#000" stroke-width="7">
    <rect width="80.468" height="18.934" stroke="none"/>
    <rect x="3.5" y="3.5" width="73.468" height="11.934" fill="none"/>
  </g>
  <g id="Rectángulo_5" data-name="Rectángulo 5" transform="translate(567.223 0.159)" fill="none" stroke="#000" stroke-width="7">
    <rect width="74.157" height="74.157" stroke="none"/>
    <rect x="3.5" y="3.5" width="67.157" height="67.157" fill="none"/>
  </g>
  <g id="Rectángulo_6" data-name="Rectángulo 6" transform="translate(551.445 0.159)" fill="none" stroke="#000" stroke-width="7">
    <rect width="104.924" height="88.357" stroke="none"/>
    <rect x="3.5" y="3.5" width="97.924" height="81.357" fill="none"/>
  </g>
  <g id="Rectángulo_7" data-name="Rectángulo 7" transform="translate(535.666 0.159)" fill="none" stroke="#000" stroke-width="7">
    <rect width="134.903" height="102.558" stroke="none"/>
    <rect x="3.5" y="3.5" width="127.903" height="95.558" fill="none"/>
  </g>
  <g id="Rectángulo_8" data-name="Rectángulo 8" transform="translate(518.311 0.159)" fill="none" stroke="#000" stroke-width="7">
    <rect width="166.459" height="116.758" stroke="none"/>
    <rect x="3.5" y="3.5" width="159.459" height="109.758" fill="none"/>
  </g>
  <g id="Rectángulo_10" data-name="Rectángulo 10" transform="translate(811.783 0.159)" fill="none" stroke="#000" stroke-width="7">
    <rect width="104.924" height="29.978" stroke="none"/>
    <rect x="3.5" y="3.5" width="97.924" height="22.978" fill="none"/>
  </g>
  <g id="Rectángulo_11" data-name="Rectángulo 11" transform="translate(796.005 0.159)" fill="none" stroke="#000" stroke-width="7">
    <rect width="120.702" height="44.179" stroke="none"/>
    <rect x="3.5" y="3.5" width="113.702" height="37.179" fill="none"/>
  </g>
  <g id="Rectángulo_12" data-name="Rectángulo 12" transform="translate(778.649 0.159)" fill="none" stroke="#000" stroke-width="7">
    <rect width="138.058" height="58.379" stroke="none"/>
    <rect x="3.5" y="3.5" width="131.058" height="51.379" fill="none"/>
  </g>
  <g id="Rectángulo_13" data-name="Rectángulo 13" transform="translate(763.66 0.159)" fill="none" stroke="#000" stroke-width="7">
    <rect width="153.048" height="72.579" stroke="none"/>
    <rect x="3.5" y="3.5" width="146.048" height="65.579" fill="none"/>
  </g>
  <g id="Rectángulo_14" data-name="Rectángulo 14" transform="translate(747.882 0.159)" fill="none" stroke="#000" stroke-width="7">
    <rect width="168.826" height="83.624" stroke="none"/>
    <rect x="3.5" y="3.5" width="161.826" height="76.624" fill="none"/>
  </g>
  <g id="Rectángulo_15" data-name="Rectángulo 15" transform="translate(735.259 0.159)" fill="none" stroke="#000" stroke-width="7">
    <rect width="181.448" height="97.035" stroke="none"/>
    <rect x="3.5" y="3.5" width="174.448" height="90.035" fill="none"/>
  </g>
  <g id="Rectángulo_16" data-name="Rectángulo 16" transform="translate(717.903 0.159)" fill="none" stroke="#000" stroke-width="7">
    <rect width="198.804" height="112.813" stroke="none"/>
    <rect x="3.5" y="3.5" width="191.804" height="105.813" fill="none"/>
  </g>
  <g id="Rectángulo_18" data-name="Rectángulo 18" transform="translate(993.231 42.76)" fill="none" stroke="#000" stroke-width="7">
    <rect width="112.024" height="41.023" stroke="none"/>
    <rect x="3.5" y="3.5" width="105.024" height="34.023" fill="none"/>
  </g>
  <g id="Rectángulo_19" data-name="Rectángulo 19" transform="translate(972.72 29.349)" fill="none" stroke="#000" stroke-width="7">
    <rect width="153.048" height="67.846" stroke="none"/>
    <rect x="3.5" y="3.5" width="146.048" height="60.846" fill="none"/>
  </g>
  <g id="Rectángulo_20" data-name="Rectángulo 20" transform="translate(950.63 13.571)" fill="none" stroke="#000" stroke-width="7">
    <rect width="194.859" height="99.402" stroke="none"/>
    <rect x="3.5" y="3.5" width="187.859" height="92.402" fill="none"/>
  </g>
  <g id="Rectángulo_21" data-name="Rectángulo 21" transform="translate(0 0.159)" fill="none" stroke="#000" stroke-width="8">
    <rect width="1163.635" height="127.803" stroke="none"/>
    <rect x="4" y="4" width="1155.635" height="119.803" fill="none"/>
  </g>
  <path id="Trazado_12" data-name="Trazado 12" d="M1376.073,2553.791v122.453" transform="translate(-442.741 -2550.641)" fill="none" stroke="#000" stroke-width="8"/>
  <path id="Trazado_13" data-name="Trazado 13" d="M1376.073,2553.791v122.453" transform="translate(-674.006 -2550.641)" fill="none" stroke="#000" stroke-width="8"/>
  <path id="Trazado_14" data-name="Trazado 14" d="M1376.073,2553.791v122.453" transform="translate(-875.966 -2550.641)" fill="none" stroke="#000" stroke-width="8"/>
  <path id="Trazado_15" data-name="Trazado 15" d="M1376.073,2553.791v122.453" transform="translate(-901.211 -2550.641)" fill="none" stroke="#000" stroke-width="7"/>
  <path id="Trazado_16" data-name="Trazado 16" d="M1376.073,2553.791v122.453" transform="translate(-1118.573 -2550.641)" fill="none" stroke="#000" stroke-width="8"/>
  <path id="Trazado_17" data-name="Trazado 17" d="M1376.073,2553.791v122.453" transform="translate(-1140.861 -2550.641)" fill="none" stroke="#000" stroke-width="7"/>
</svg>
