<svg id="Grupo_15353" data-name="Grupo 15353" xmlns="http://www.w3.org/2000/svg" width="464.488" height="298.497" viewBox="0 0 464.488 298.497">
  <g id="Grupo_15345" data-name="Grupo 15345" transform="translate(402.791 3.866)">
    <path id="Trazado_24417" data-name="Trazado 24417" d="M589.993,495.389a8.3,8.3,0,0,0,.294,6.639c3.4,7.034,4.83,14.734,7.483,22.026,2.525,6.936,2.169,14.347,1.945,21.565-.335,10.8-1.08,21.6-2.037,32.359-1.591,17.877-2.83,35.77-3.075,53.716-.078,5.713.422,11.441.836,17.15.253,3.5.156,7.028-1.216,10.149-2.766,6.3-2.661,12.894-2.723,19.486-.115,12.2-.673,24.434.076,36.585.689,11.175,3.478,15.643,14.143,17.685,4.238.813,8.461,1.764,12.729,2.459,1.6.259,3.151.65,3.312,2.536.165,1.92-1.389,2.573-2.883,3.032-8.138,2.494-16.351,3.822-24.792,1.542a27.139,27.139,0,0,0-11.324-.694c-6.438.971-8.654-1.282-8.325-7.829a6.192,6.192,0,0,1,.274-2.26c4.213-8.918,1.638-17.77-.6-26.44a87.631,87.631,0,0,1-1.916-36.688,8.975,8.975,0,0,1,.512-2.608c4.855-9.4,1.733-18.918.445-28.391-1.665-12.26-7.493-23.192-11.356-34.747-3.091-9.243-1.879-17.776,2.513-26.138,2.873-5.468,4.118-11.171,2.846-17.321-.772-3.731-1.009-7.631-2.233-11.2-6.329-18.432-5.151-35.821,6.674-51.837,1.5-2.033,1.344-3.532-.152-5.341-4.627-5.6-6.324-12.468-7.794-19.3-1.959-9.091,3.978-18.72,12.9-21.717,8.667-2.912,17.745,1.054,22.27,9.373,4.81,8.839,5.38,18.161,3.894,27.823a6.5,6.5,0,0,1-3.353,4.832A23.886,23.886,0,0,1,589.993,495.389Z" transform="translate(-560.076 -448.862)" fill="#7138be"/>
    <path id="Trazado_24418" data-name="Trazado 24418" d="M568.581,569.843c-.751,3.626-3.1,6.259-4.522,9.331-5.118,11.079-1.774,21.6,2.8,31.651,5.2,11.422,7.854,23.378,9.3,35.669.521,4.433,2.126,8.911.006,13.5-4.5,9.726-4.108,20.054-3.165,30.373.65,7.125,3.3,13.87,4.291,20.929.811,5.8,2.708,11.641-.587,17.432-.873,1.535-.8,3.715-.827,5.6-.037,2.721,1.579,4.128,4.205,3.491,5.559-1.342,10.8,0,16.183,1.126,6.382,1.334,12.8,1.235,19.4-2.044-5.238-1.19-9.93-2.163-14.571-3.336-4.555-1.151-8.821-3.025-10.787-7.671-1.683-3.972-3.178-8.084-3.136-12.517.144-14.758.346-29.515.457-44.272a25.185,25.185,0,0,1,2.248-11.114,18.618,18.618,0,0,0,1.309-11.581,56.172,56.172,0,0,1-.655-7.592c-.657-16.568.737-33.1,1.881-49.573,1.126-16.249,2.622-32.475,3.005-48.764.138-5.814.484-11.778-1.788-17.368-2.877-7.078-4.437-14.58-7.36-21.67-3.073-7.459-2.338-8.179,5.184-10.9,3-1.083,6.541-1.875,7.218-5.946,1.533-9.2.63-18.033-4.207-26.191a15.228,15.228,0,0,0-7.07-6.728c-5.921-2.482-11.6-1.953-16.487,2.212a16.245,16.245,0,0,0-5.674,16.483c1.358,6.18,2.824,12.513,7.174,17.492,3.058,3.5,2.122,6.594-.323,9.85-8.237,10.966-11.322,23.2-8.737,36.737a29.569,29.569,0,0,0,2.8,9.216c.4-8.918-.41-16.8,1.173-24.827,2.219,1.008,2.109,2.116,2.068,3.095-.339,8.132.55,16.282-.578,24.413a29.354,29.354,0,0,0,.146,10.26c2.7,12.587,5.719,25.059,11.916,36.5.692,1.278,1.19,2.517-.167,3.785-2.074,1.935-2.031,4.52-1.074,6.747,1.434,3.334,1.677,6.72,1.227,11.058,3.861-5.409,7.58-9.9,5.771-16.277-1.124-3.962-1.208-8.024-1.476-12.091-.778-11.766-.093-23.711-4.443-35.056-1.247-3.252-.881-6.724-.35-10.186,1.081-7.033,1.289-14.176,2.637-21.192a19.845,19.845,0,0,0-.132-6.843c-1.078-6.532-6.569-9.119-12.071-5.828-.76.455-1.486,1.262-2.315.329-.973-1.1,0-1.858.7-2.564,2.867-2.888,9.309-2.554,12.585.512,4.882,4.567,5.32,10.4,4.053,16.261-1.572,7.261-1.529,14.664-2.715,21.943a19.051,19.051,0,0,0,1.3,9.753,52.605,52.605,0,0,1,2.739,13.036c1.206,11.5.329,23.118,2.5,34.594,1,5.287-1.85,10.253-4.643,14.615-1.041,1.622-3.268,4.326-5.9,3.083-2.591-1.225-1.4-4-.957-6.174a10.626,10.626,0,0,0-.572-6.337c-1.321-3.272-2.034-6.617.224-9.832a2.224,2.224,0,0,0,.226-2.476C574.356,586.192,570.55,578.462,568.581,569.843Z" transform="translate(-558.745 -447.609)" fill="#ba68c8"/>
  </g>
  <path id="Trazado_24419" data-name="Trazado 24419" d="M448.188,495.231a3.755,3.755,0,0,0-.023,3.486c3.585,6.646,4.861,14.172,8.072,20.951A16.236,16.236,0,0,1,457.888,526c.751,20.412.788,40.765-1.78,61.129-1.463,11.591-5.065,22.645-6.9,34.119a177.157,177.157,0,0,0-2.12,25.846,10.907,10.907,0,0,1-.951,5.275c-5.322,9.667-6.549,20.186-7.261,31a183.062,183.062,0,0,0,.6,33.25,6.333,6.333,0,0,0,3.386,5.224,94.641,94.641,0,0,0,19.144,8.346c1.941.611,4.448,1.157,4.236,3.773-.226,2.8-2.877,3.079-5.04,3.248-4.635.366-9.381.7-13.89-.356-6.613-1.554-13.011-.8-19.519.329-4.244.735-6.03-.543-5.474-4.592,2.3-16.761-2.834-32.826-4.217-49.229-.7-8.282-.313-16.315,4.452-23.487a12.666,12.666,0,0,0,1.889-9.6c-1.439-8.393-2.966-16.726-5.236-24.991-4.511-16.422-5.82-32.827.9-49.392,3.5-8.636,1.721-18.068-.282-27.14-1.972-8.93-4.219-17.767-5.538-26.891-1.624-11.235,3.63-18.821,10.459-26.185a43.109,43.109,0,0,1,5.831-5.606c2.6-1.912,2.6-4.071,1.706-6.751-2.332-6.987-1.55-14.147-.313-21.114,1.628-9.173,10.848-15.814,20.2-15.31,9.216.5,16.185,7.555,17.5,17.2,1.363,9.982-1.4,18.92-6.119,27.484a6.883,6.883,0,0,1-4.946,3.349A35.4,35.4,0,0,1,448.188,495.231Z" transform="translate(-295.345 -446.874)" fill="#7138be"/>
  <path id="Trazado_24420" data-name="Trazado 24420" d="M460.976,732.142a113.029,113.029,0,0,1-22.472-9.809A5.143,5.143,0,0,1,435.494,718c-2.208-15.082-1.572-30.126-.128-45.214.434-4.548.669-9.222,2.75-13.186,3.853-7.347,4.989-15.09,5.059-23.164A113.48,113.48,0,0,1,445.61,616.3c-1.951.677-3.1,2.334-4.75,1.033-1.447-1.144-1.4-2.881-1.06-4.293a14.734,14.734,0,0,0-1.185-9.757c-1.148-2.63-1.484-5.555.228-8.2a2.779,2.779,0,0,0,.016-3.217A107.025,107.025,0,0,1,428.108,565.8c-1.706-6.845-4.1-13.594-3.713-20.762.165-3.1.257-6.18.161-9.282-.159-5.166-.268-10.334-.284-15.5,0-1.268-.416-3,1.877-3.326a5.5,5.5,0,0,1,.7,1.7c.327,7.872.786,15.746.792,23.621,0,3.47-.811,7.07.041,10.406,3.295,12.882,6.641,25.784,13.561,37.36,1.247,2.085,2.219,3.927.033,6.189-1.321,1.367-1.037,3.482-.307,5.182a22.655,22.655,0,0,1,1.976,11.762c3.935-5.7,6.915-10.71,4.974-16.987-1.235-3.993-1.55-8.094-2.017-12.2-1.319-11.636-1.107-23.52-6-34.58-1.525-3.445-1.352-7.275-.9-11.075.829-7.045.6-14.176,1.632-21.227a20.775,20.775,0,0,0-.416-6.936c-1.278-6.351-7.331-9.224-12.184-5.923-.916.622-1.854,2-2.859.517-.832-1.229.453-2.128,1.3-2.869,2.98-2.6,8.912-2.229,12.19.548,5.04,4.271,5.925,10.013,4.991,15.9-1.161,7.312-.831,14.686-1.727,21.986a17.617,17.617,0,0,0,1.169,9.15c3.7,8.605,4.447,17.732,5.193,26.889.428,5.238.523,10.523,1.725,15.994a7.313,7.313,0,0,0,1.27-4,255.587,255.587,0,0,0,2.214-58.351c-.2-2.692.305-5.582-.5-8.059-2.245-6.858-5.009-13.548-7.578-20.3-.687-1.809-1.568-3.56-2.095-5.413-1.05-3.686.406-5.419,4.178-5.094a27.936,27.936,0,0,0,6.956.091c2.322-.375,4.468-.745,5.789-3.2,4.343-8.082,6.637-16.514,5.016-25.724-.613-3.486-1.735-6.779-4.39-9.288-4.979-4.709-10.858-6.183-17.158-3.509A17.067,17.067,0,0,0,432.9,464.384c-.589,6.432-1.068,12.921,1.305,19.165.772,2.033.2,3.665-.821,5.448-1.885,3.291-5.491,4.635-7.874,7.354-5.3,6.053-10.931,11.883-9.916,20.949.749,6.674,1.344,13.337,3.106,19.877,1.743,6.471,3.773,12.931,4.159,19.684.477,8.389.811,16.757-3.322,24.592a24.623,24.623,0,0,0-2.217,8.994,82.278,82.278,0,0,0,3.244,32.96c3.029,9.844,4.456,19.883,5.785,30a5.382,5.382,0,0,1-1.157,4.281,28.78,28.78,0,0,0-5.8,16.144c-.442,7.714,1.356,15.16,2.153,22.723,1.2,11.385,4.474,22.631,2.005,34.238a2.207,2.207,0,0,0,1.142,2.564c.879-.115,2.025-.2,3.147-.422,5.326-1.033,10.531-1.78,16.063-.486A30.989,30.989,0,0,0,460.976,732.142Z" transform="translate(-293.945 -445.655)" fill="#ba68c8"/>
  <path id="Trazado_24421" data-name="Trazado 24421" d="M536.755,494.614a6.41,6.41,0,0,0,1.406,4.213c12.285,17.523,18,37.288,19.418,58.367,1.509,22.454-.338,44.92-.385,67.386-.014,7.621-.192,15.244-.333,22.867a40.835,40.835,0,0,1-4.507,18.609A157.1,157.1,0,0,0,541.683,691.8c-3.3,10.505-4.34,21.47-4.777,32.466a5.179,5.179,0,0,0,1.546,3.719c5.131,6.246,12.855,7.956,19.525,11.5,1.881,1,5.028,1.48,4.575,3.972-.5,2.76-3.684,1.735-5.676,1.688-10.2-.23-20.4-.578-30.591-1.1-5.66-.288-5.911-1.227-5.1-6.919,1.836-12.925,2.879-25.891,1.792-39-1.054-12.711.3-25.07,7.691-36.047a8.208,8.208,0,0,0,1.476-5.1,98.8,98.8,0,0,0-7.082-32.384c-2.566-6.473-5.351-12.9-6.981-19.6-1.933-7.954-2.414-16.144,3.594-23.082,2.41-2.783,1.772-6.065,1.373-9.251-1.07-8.543-4.186-16.487-7.214-24.462-1.556-4.1-2.863-8.3-4.314-12.441-2.953-8.434-2.39-16.7.819-24.973,2.194-5.662,4.1-11.441,6.985-16.8a3.427,3.427,0,0,0-.325-4.236c-4.517-5.652-6-12.526-7.531-19.321-2.138-9.5,3.912-19.673,13.215-22.658,9.113-2.925,18.4,1.492,22.845,10.434,4.553,9.163,4.624,18.648,2.852,28.373a6.413,6.413,0,0,1-3.466,4.411A31.843,31.843,0,0,1,536.755,494.614Z" transform="translate(-205.002 -446.874)" fill="#7138be"/>
  <path id="Trazado_24422" data-name="Trazado 24422" d="M539.8,483.452c-.21,2.527-.093,4.655-.6,6.621-1.883,7.312-1.64,14.872-2.818,22.264a18.787,18.787,0,0,0,1.26,9.521,54.873,54.873,0,0,1,2.871,14c1.126,11.546.716,23.162,2.32,34.738a17.5,17.5,0,0,1-6.82,16.374c-1.2.916-2.2,2.435-4.005,1.346-1.669-1.008-1.461-2.83-1.087-4.2a16.663,16.663,0,0,0-.852-10.57c-.973-2.61-1.043-5.394.786-7.771,1.15-1.494.305-2.641-.28-3.908-2.5-5.394-4.9-10.822-6.862-16.44-1-2.877-.749-6.11-3.011-9.846.543,6.069.832,10.869-2.519,15.372-4.316,5.8-4.077,12.606-2.107,19.286,3.824,12.96,10.134,25.082,12.394,38.606,1.422,8.5,3.34,16.625-2.583,24.376-2.673,3.5-3.334,8.068-4.149,12.408-1.521,8.1-.656,16.2-.29,24.337.545,12.1-1.046,24.1-2.653,36.373l31.592,1.511.218-.976c-6.629-3.093-13.532-5.623-19-10.834-1.325-1.263-2.324-2.054-2.3-3.865.177-14.946,1.747-29.661,7.619-43.6,2.91-6.9,5.475-13.952,8.99-20.6a27.088,27.088,0,0,0,2.885-10.393c1.169-13.415.56-26.868.8-40.3.179-9.93-.136-19.943.447-29.778,1.214-20.443-.616-40.2-7.72-59.421C541.77,486.572,541.445,484.87,539.8,483.452Z" transform="translate(-200.154 -412.305)" fill="#ba68c8"/>
  <path id="Trazado_24423" data-name="Trazado 24423" d="M537.462,617.441c3.81-5.405,7.524-9.646,6.071-15.67-2.175-9.016-1.8-18.222-2.233-27.362a65,65,0,0,0-3.155-18.638c-1.521-4.343-1.533-8.722-1.076-13.337.848-8.6,2.865-17.088,2.774-25.751-.088-8.5-5.419-11.7-12.9-8.014-.809.4-1.472.578-2.038-.15a1.38,1.38,0,0,1,.22-1.772,6.7,6.7,0,0,1,4.6-2.595c3.237-.4,6.331-.1,9.212,2.074-2.015-5.121-8.111-8.381-5.52-15.271,2.389-1.083,5.631-1.046,8.368-2.573,2.023-1.128,4.065-1.951,4.608-4.738,1.813-9.323,1.128-18.27-3.5-26.693-2.782-5.067-6.917-8.259-12.9-8.652-12.126-.794-19.208,10.681-16.961,21.015,1.4,6.429,3.044,12.867,7.368,18.15,1.391,1.7,1.434,3.322.48,5.333a191.258,191.258,0,0,0-7.584,18.661c-2.237,6.382-3.095,12.791-1.185,19.391.716,2.478,1.42,4.968,2.291,7.4,2.521,7.028,5.125,14.026,7.769,21.229.478-13.26.111-26.167,1.681-39.388,2.114.889,2.118,1.85,2.087,2.719-.3,8.383.521,16.782-.582,25.164a31.708,31.708,0,0,0,.233,11.163c2.815,12.626,5.88,25.146,12.06,36.653.655,1.218.973,2.375-.241,3.5-2.254,2.093-2.054,4.83-1.091,7.211C537.629,609.732,537.975,612.951,537.462,617.441Z" transform="translate(-203.611 -445.564)" fill="#ba68c8"/>
  <path id="Trazado_24424" data-name="Trazado 24424" d="M501.371,494.549c1.367,5.071,3.84,9.2,6.3,13.234,15.442,25.294,16.037,51.187,3.3,77.592a20.694,20.694,0,0,0-1.387,14.261c1.857,8.047-.267,14.968-5.9,20.861-1.309,1.367-1.352,3.027-1.492,4.662-.71,8.232-1.085,16.5-2.087,24.7-1.4,11.513-3.552,22.933-4.474,34.51-1.025,12.878-2.12,25.753-2.037,38.694.016,2.379.712,3.571,3.044,4.585,7.345,3.184,14.466,6.876,22.036,9.554,2.023.716,3.879,1.8,3.606,4.388-.261,2.472-2.336,2.892-4.248,3.237a34.6,34.6,0,0,1-4.631.35c-9.543.4-18.973-1.434-28.529-1.356-6.17.051-8.716-4.122-6.971-10.009,2.647-8.934,1.354-17.728-1.159-26.35-4.441-15.232-5.071-30.242,1.334-45.109,1.233-2.865.772-5.827.261-8.77a122.519,122.519,0,0,0-7.553-25.2c-3.97-9.764-5-20.264-7.564-30.369a24.133,24.133,0,0,1,5.24-21.871c1.165-1.383,2.221-2.865,3.441-4.2,10.395-11.34,12.921-24.108,5.567-37.764-6.876-12.762-3.141-24.176,2.729-35.683a3.206,3.206,0,0,1,.414-.654c3.379-3.913,3.231-7.3.14-11.82-3.863-5.654-5.435-12.591-5.686-19.488-.319-8.693,6.508-17.2,14.734-19.136,8.99-2.12,17.43,2.282,21.7,10.875,4.491,9.035,4.592,18.4,2.89,28a6.37,6.37,0,0,1-3.272,4.553A33.483,33.483,0,0,1,501.371,494.549Z" transform="translate(-249.545 -446.874)" fill="#7138be"/>
  <path id="Trazado_24425" data-name="Trazado 24425" d="M517.266,739.967c-7.7-3.727-15.154-7.615-22.933-10.544-4.709-1.776-5.335-4.571-5.168-8.5.443-10.459.78-20.923,1.48-31.365.6-8.875.725-17.93,2.7-26.531,3.033-13.227,2.7-26.7,4.528-39.985a2.648,2.648,0,0,0-.334-1.822c-1.566-1.984-1.22-4.159-.7-6.293a10.872,10.872,0,0,0-.5-6.808c-1.3-3.32-2.091-6.744.292-9.965.887-1.2.366-2.188-.159-3.223a108.111,108.111,0,0,1-9.665-27.294c-1.264-6.156-3.114-12.338-2.47-18.649.541-5.3.494-10.57.673-15.855.121-3.616.323-7.228.574-10.836.076-1.074.031-2.453,2-2.328a4.041,4.041,0,0,1,.477,1.309c-.041,8.008.074,16.024-.284,24.018-.161,3.6-1.1,7.271-.377,10.786,2.643,12.766,5.363,25.543,11.6,37.2,1.194,2.237,2.291,4.275-.27,6.518-1.165,1.019-.982,2.947-.572,4.448,1.01,3.7,2.515,7.292,1.51,11.918,5.738-6.014,7.568-12,5.248-19.208-.928-2.881-.84-6.043-.99-9.142-.545-11.3.3-22.773-3.88-33.7-1.486-3.89-1.175-8.016-.8-12.221.8-8.86,3.06-17.586,2.776-26.523-.255-7.936-5.874-11.109-12.768-7.469-.735.387-1.395.788-2.054.037s-.241-1.457.276-2.066a7.3,7.3,0,0,1,4.693-2.445c4.565-.7,8.125.988,10.935,4.765-2.18-4.509-3.857-8.949-6.582-12.878-1.531-2.206-1.095-4.19,2.029-4.746a29.134,29.134,0,0,0,8.42-2.8,5.534,5.534,0,0,0,3.231-4.464c.708-5.123,1.453-10.223.294-15.392-1.554-6.938-3.622-13.729-10.192-17.533-5.746-3.326-11.793-2.9-17.138,1.138a16.415,16.415,0,0,0-6.53,16.788c1.124,6.182,2.624,12.349,6.46,17.689,3.256,4.532,2.674,5.425-.309,10.276-6.857,11.147-11.461,22.68-4.164,35.636a32.665,32.665,0,0,1,3.126,8.737c1.684,7.436,2.037,14.911-2,21.787-3.205,5.454-7.308,10.3-11.274,15.218a18.478,18.478,0,0,0-4.3,12.978c.784,11.881,3.925,23.328,7.5,34.6,2.651,8.366,6.1,16.485,7.59,25.193.622,3.649,1.8,7.325.183,11.046-6.226,14.31-5.921,28.826-1.614,43.574,2.515,8.615,3.974,17.442,1.688,26.364-1.718,6.7.338,9.523,7.14,8.422a33.033,33.033,0,0,1,11.505.523A48.418,48.418,0,0,0,517.266,739.967Z" transform="translate(-247.961 -445.66)" fill="#ba68c8"/>
  <path id="Trazado_24426" data-name="Trazado 24426" d="M485.945,480.08a29.2,29.2,0,0,1,.146,14.865c-1.663,6.567-1.2,13.357-2.377,19.976a18.474,18.474,0,0,0,1.307,9.511,49.59,49.59,0,0,1,2.118,8.236c1.062,5.911,1,11.925,1.5,18.387C501.245,530.89,498.664,497.024,485.945,480.08Z" transform="translate(-229.639 -415.491)" fill="#ba68c8"/>
  <path id="Trazado_24427" data-name="Trazado 24427" d="M391.416,487.647c-3.688-6.218-4.384-12.824-5.073-19.354A19.848,19.848,0,0,1,401.6,447.325c9.556-2.085,18.288,3.211,21.9,12.867,3.54,9.455,2.764,18.809-.1,28.14-1.465,4.781-6.152,4.966-10.006,6.213-1.941.63-4.413-.832-5.878,1.827-1.735,3.151-3,6.285-2.062,9.957a29.829,29.829,0,0,1,.98,4.939c.224,2.826.788,5.8.2,8.488-2.107,9.638.115,18.83,1.632,28.262,1.994,12.386,1.533,24.711-5.291,36.045-3.639,6.045-1.4,12.63-.675,18.971,1.69,14.748,5.777,29.124,6.825,43.994a19.85,19.85,0,0,1-1.945,10.136c-4.081,8.424-4.145,17.525-5.154,26.461-1.159,10.266-1.939,20.573-2.972,30.855-.727,7.24.475,9,9.967,12.832a57.347,57.347,0,0,0,14.168,3.873c1.706.218,4.011.033,4.334,2.385.313,2.3-1.642,3.455-3.4,4.223-6.582,2.89-13.3,3.81-20.21.988-3.96-1.618-7.955-1.507-12.149-.558-7.446,1.686-11.5-1.589-10-8.881,2.291-11.174.71-22.124-.366-33.144-1.146-11.735-.387-23.283,3.46-34.442,2.8-8.134.043-15.491-2.138-23.055-1.5-5.2-4.312-9.669-7.341-14.007-6.934-9.932-9.873-21.225-11.515-32.971A25.5,25.5,0,0,1,366.346,577c4.159-8.687,4.048-17.712,2.649-26.922a180.144,180.144,0,0,1-2.21-20.406c-.321-8.689,2.529-16.267,7.619-23.084C379.428,499.858,384.55,493.2,391.416,487.647Z" transform="translate(-342.934 -446.874)" fill="#7138be"/>
  <path id="Trazado_24428" data-name="Trazado 24428" d="M391.762,619.414c5.236-5.658,7.6-11.369,5.279-18.479-1-3.067-.918-6.36-1.068-9.593-.547-11.832.13-23.8-4.215-35.214-1.342-3.525-1.01-7.31-.408-11.1,1.111-7,1.3-14.123,2.651-21.116a21.33,21.33,0,0,0-.084-6.95c-.986-6.8-6.666-9.517-12.394-6.036-.8.484-1.535,1.2-2.32.185-.729-.947.01-1.665.611-2.354,2.772-3.167,9.543-2.867,13.019.42,4.941,4.672,5.3,10.6,4.028,16.531-1.579,7.372-1.578,14.884-2.781,22.269a18.641,18.641,0,0,0,1.2,9.531,52.1,52.1,0,0,1,2.927,14.374c.2,2.583.49,5.158.78,8.152a9.9,9.9,0,0,0,2.881-4.808c3.733-10.68,3.863-21.54,1.249-32.44-1.593-6.648-3.225-13.155-1.363-20.1,1.461-5.454.788-11.013-.574-16.489a21.492,21.492,0,0,1-.329-5.014c-.018-3.554,1.883-6.4,3.672-9.233,1.408-2.233,3.849-.675,5.734-1.3,3.443-1.13,7.743-.891,9.084-5.4,1.63-5.477,2.657-11.062,1.857-16.815-.9-6.506-2.318-13.015-7.965-17.08-9.134-6.576-22.655-2.922-25.3,11.112-1.327,7.049.432,14.158,3.558,20.678,1.043,2.179,1.148,3.649-.619,5.452a166.96,166.96,0,0,0-15.866,18.535c-5.123,7.037-7.9,14.833-7.008,23.608.7,6.8,2.015,13.55,2.589,20.359.706,8.368,1.2,16.773-2.778,24.7a22.275,22.275,0,0,0-2.453,10.439,63.4,63.4,0,0,0,10.113,34.442c3.143,4.87,6.524,9.6,8.2,15.308,2.328,7.922,5.53,15.726,2.6,24.176-4.781,13.789-4.911,27.938-2.851,42.123a77.288,77.288,0,0,1-.519,25.79c-.984,5.2,1.336,7.58,6.4,6.135,5.009-1.432,9.622-.706,14.429.6,6.049,1.641,12.128,2.213,18.231-1.406a7.454,7.454,0,0,0-1.661-.844c-6.792-1.14-13.4-2.776-19.175-6.8a3.151,3.151,0,0,0-2.192-.49c-2.523.516-3.106-1.012-3.589-2.955a22.672,22.672,0,0,1-.683-7.3c.576-7.339.941-14.707,1.826-22.009,1.622-13.394,1.235-27.156,6.948-39.849a9.567,9.567,0,0,0,.652-3.013c1.122-12.044-2.334-23.474-4.536-36.109-1.315,2.762-1.834,4.882-3.124,6.308-1.7,1.879-3.558,4.923-6.485,3.725-2.614-1.068-1.424-4.046-.98-6.25a11,11,0,0,0-.568-6.436c-1.309-3.32-2.114-6.738.243-9.969.869-1.194.42-2.173-.1-3.223a108.269,108.269,0,0,1-9.572-26.92c-1.3-6.415-3.171-12.816-2.573-19.408.375-4.125.568-8.232.652-12.363q.137-6.585.5-13.166c.068-1.26-.191-2.914,1.564-3.266a1.626,1.626,0,0,1,1.037,1.745c-.2,8.385.529,16.782-.5,25.162a32.49,32.49,0,0,0,.072,11.176c2.848,12.74,5.841,25.424,12.112,37.044.632,1.171,1.144,2.365-.091,3.517-2.377,2.215-2.14,5.04-1.1,7.559A19.883,19.883,0,0,1,391.762,619.414Z" transform="translate(-341.316 -445.623)" fill="#ba68c8"/>
  <g id="Grupo_15349" data-name="Grupo 15349" transform="translate(0 35.091)">
    <g id="Grupo_15346" data-name="Grupo 15346" transform="translate(22.637)">
      <path id="Trazado_24429" data-name="Trazado 24429" d="M367.4,471.095l-2.762-2.739a36.367,36.367,0,0,1,3.836-3.441l2.313,3.128A34.081,34.081,0,0,0,367.4,471.095Z" transform="translate(-364.634 -464.915)" fill="#ff5953"/>
    </g>
    <g id="Grupo_15347" data-name="Grupo 15347" transform="translate(0 10.848)">
      <path id="Trazado_24430" data-name="Trazado 24430" d="M353.908,571.129a58.906,58.906,0,0,1-.912-9.609l3.89-.045a55.1,55.1,0,0,0,.852,8.975Zm3.655-18.62-3.838-.63a53.922,53.922,0,0,1,2.424-9.377l3.663,1.311A49.908,49.908,0,0,0,357.563,552.509ZM363.338,535l-3.758-1.01a19.967,19.967,0,0,0,.673-5.182,22.1,22.1,0,0,0-.251-3.287l3.846-.586a25.786,25.786,0,0,1,.3,3.873A23.883,23.883,0,0,1,363.338,535Zm-4.9-18.757a75.544,75.544,0,0,1-.514-8.695l.006-.885,3.89.052-.006.833a71.582,71.582,0,0,0,.486,8.241Zm4.126-18.556-3.844-.6a63.955,63.955,0,0,1,2.188-9.375l3.709,1.169A60.13,60.13,0,0,0,362.562,497.686Zm5.427-17.189-3.486-1.729a62.316,62.316,0,0,1,4.939-8.276l3.176,2.245A58.382,58.382,0,0,0,367.989,480.5Z" transform="translate(-352.996 -470.492)" fill="#ff5953"/>
    </g>
    <g id="Grupo_15348" data-name="Grupo 15348" transform="translate(3.318 119.635)">
      <path id="Trazado_24431" data-name="Trazado 24431" d="M356.458,532.338c-.648-1.566-1.239-3.139-1.756-4.682l3.69-1.235c.488,1.455,1.046,2.947,1.659,4.427Z" transform="translate(-354.702 -526.421)" fill="#ff5953"/>
    </g>
  </g>
  <g id="Grupo_15350" data-name="Grupo 15350" transform="translate(104.438 35.258)">
    <path id="Trazado_24432" data-name="Trazado 24432" d="M416.134,543.593q-.869-1.745-1.651-3.456l3.54-1.614q.753,1.648,1.591,3.336Zm-5.3-12.68a83.589,83.589,0,0,1-2.61-9.6l3.809-.79a79.82,79.82,0,0,0,2.488,9.154Zm-3.98-19.492c-.107-1.562-.161-3.137-.161-4.682,0-1.78.074-3.571.214-5.322l3.878.315c-.134,1.646-.2,3.332-.2,5.007,0,1.455.053,2.943.154,4.415Zm5.415-18.984-3.783-.91A63.248,63.248,0,0,1,411.606,482l3.589,1.5A58.99,58.99,0,0,0,412.266,492.437Zm7.248-17.29-3.3-2.064A45.825,45.825,0,0,1,422.433,465l2.706,2.8A43.005,43.005,0,0,0,419.513,475.147Z" transform="translate(-406.689 -465.001)" fill="#ff5953"/>
  </g>
  <g id="Grupo_15351" data-name="Grupo 15351" transform="translate(193.516 43.352)">
    <path id="Trazado_24433" data-name="Trazado 24433" d="M456.011,586.362c-.622-1.745-1.173-3.513-1.634-5.252l3.76-1c.434,1.634.951,3.3,1.539,4.941ZM452.652,571.2c-.111-1.373-.167-2.754-.167-4.1a48.4,48.4,0,0,1,.368-6l3.861.479a44.5,44.5,0,0,0-.339,5.518c0,1.243.053,2.521.154,3.791Zm6.185-18.669-3.672-1.284a50.111,50.111,0,0,1,4.295-9.142l3.34,2A46.286,46.286,0,0,0,458.838,552.529Zm9.523-16.053-3.021-2.451a20.427,20.427,0,0,0,3.949-7.868l3.773.938A24.287,24.287,0,0,1,468.361,536.476Zm1.013-19.041a17.957,17.957,0,0,0-.784-2.5,42.477,42.477,0,0,1-2.066-6.831l3.8-.809a38.791,38.791,0,0,0,1.875,6.2,21.566,21.566,0,0,1,.957,3.044Zm.049-19.373-3.89-.035a54.962,54.962,0,0,1,1.043-10.017l3.816.743A51.031,51.031,0,0,0,469.423,498.062Zm3.505-18.379-3.657-1.328a56.761,56.761,0,0,1,4.205-9.193l3.33,2.013A53.957,53.957,0,0,0,472.928,479.683Z" transform="translate(-452.485 -469.162)" fill="#ff5953"/>
  </g>
  <g id="Grupo_15352" data-name="Grupo 15352" transform="translate(352.598 51.504)">
    <path id="Trazado_24434" data-name="Trazado 24434" d="M552.711,573.323l-3.857-.5q.289-2.241.535-4.417l3.867.436Q553,571.052,552.711,573.323Zm1.455-14.236-3.879-.286c.237-3.242.406-6.483.5-9.626l3.888.119C554.582,552.493,554.409,555.788,554.165,559.087Zm-3.3-19.544c-.053-3.254-.189-6.487-.4-9.615l3.88-.265c.22,3.19.36,6.495.414,9.815Zm-1.338-19.177c-.412-3.229-.924-6.415-1.521-9.473l3.818-.743c.613,3.139,1.138,6.409,1.562,9.724Zm-3.7-18.8c-.865-3.151-1.85-6.211-2.922-9.087l3.645-1.362c1.113,2.988,2.132,6.156,3.029,9.42Zm-6.709-17.805a45.254,45.254,0,0,0-4.845-7.9l2.966-2.515a47.366,47.366,0,0,1,5.349,8.654Z" transform="translate(-534.271 -473.353)" fill="#ff5953"/>
  </g>
</svg>
