<svg xmlns="http://www.w3.org/2000/svg" xmlns:xlink="http://www.w3.org/1999/xlink" width="400" height="344.521" viewBox="0 0 400 344.521">
  <defs>
    <clipPath id="clip-path">
      <rect id="Rectángulo_374758" data-name="Rectángulo 374758" width="400" height="344.521" fill="none"/>
    </clipPath>
    <clipPath id="clip-path-3">
      <rect id="Rectángulo_374755" data-name="Rectángulo 374755" width="141.333" height="340.649" transform="translate(133.667)" fill="none"/>
    </clipPath>
    <clipPath id="clip-path-5">
      <rect id="Rectángulo_374756" data-name="Rectángulo 374756" width="248" height="126.954" transform="translate(78 105.567)" fill="none"/>
    </clipPath>
  </defs>
  <g id="Grupo_1079171" data-name="Grupo 1079171" transform="translate(-1020 -4166.939)">
    <g id="Grupo_1079146" data-name="Grupo 1079146" transform="translate(1020 4166.939)">
      <g id="Grupo_1079145" data-name="Grupo 1079145" clip-path="url(#clip-path)">
        <g id="Grupo_1079137" data-name="Grupo 1079137">
          <g id="Grupo_1079136" data-name="Grupo 1079136" clip-path="url(#clip-path)">
            <path id="Trazado_842227" data-name="Trazado 842227" d="M12,58.521H388a12,12,0,0,1,12,12v262a12,12,0,0,1-12,12H12a12,12,0,0,1-12-12v-262a12,12,0,0,1,12-12" fill="#b8acd5"/>
            <path id="Trazado_842228" data-name="Trazado 842228" d="M210,90.521l-132,70,93,72,155-83Z" fill="#673ab7"/>
          </g>
        </g>
        <g id="Grupo_1079139" data-name="Grupo 1079139">
          <g id="Grupo_1079138" data-name="Grupo 1079138" clip-path="url(#clip-path-3)">
            <path id="Trazado_842229" data-name="Trazado 842229" d="M223.532,77.113s2.22-2.694,2.22-4.2,10.158,3.009,12.152,8.728.6,26.8.6,26.8-6.737,1.8-10.951-1.214-4.025-30.112-4.025-30.112" fill="#131212"/>
            <path id="Trazado_842230" data-name="Trazado 842230" d="M223.791,88.036l10.99,12.868s1.173,12.641,4.2,17.457,3.628,2.471,4.229,14.177,1.5,29.944,2.709,32.111c.12.217.279.514.463.867-2.044,2.155-4.485,4-6.685,5.926-.12.106-.243.21-.364.315-.227-1.552-.446-3.128-.636-3.811a20.107,20.107,0,0,1-.378-3.985S223.646,122.01,221.5,114.448s2.291-26.412,2.291-26.412" fill="#d85e38"/>
            <path id="Trazado_842231" data-name="Trazado 842231" d="M243.764,163.344s4.7,1.723,6.221,5.984-1.469,9.269-1.469,9.269-4.1,2.814-9.957-1.272c-1.025-.715-.05-8.863-.049-11.246,0-3.735,5.254-2.735,5.254-2.735" fill="#d85e38"/>
            <path id="Trazado_842232" data-name="Trazado 842232" d="M247.854,177.865l1.322-1.079-.764,7.78-2.363,3.923-4.294,3.009s-1.182-1.877.228-2.943,2.53-1.992,2.53-1.992l1.127-2.593-.728-5.464Z" fill="#d85e38"/>
            <path id="Trazado_842233" data-name="Trazado 842233" d="M245.19,176.1l.359,7.3-2.708,4.172-4.774,3.109s-1.214-2.081.357-3.187,2.82-2.07,2.82-2.07l1.318-2.774-.59-5.96Z" fill="#d85e38"/>
            <path id="Trazado_842234" data-name="Trazado 842234" d="M241.955,176.221l.76,5.984-1.965,3.606-3.73,2.863s-1.133-1.635.09-2.646,2.19-1.883,2.19-1.883l.908-2.367-.864-4.869Z" fill="#d85e38"/>
            <path id="Trazado_842235" data-name="Trazado 842235" d="M240.351,177.167c.014.171.349,4.2.349,4.2l-1.481,2.458-2.691,1.886s-.741-1.175.143-1.844,1.587-1.25,1.587-1.25l.707-1.624-.9-5.116Z" fill="#d85e38"/>
            <path id="Trazado_842236" data-name="Trazado 842236" d="M253.377,184.685s-.171-6.289-.054-8.047-1.8-6.924-4.147-8.955-6.349-.993-5.753,3.813c.372,3,6.549,7.293,6.549,7.293l-.263,3.135s.1,3.23,2.309,4.188,1.359-1.427,1.359-1.427" fill="#d85e38"/>
            <path id="Trazado_842237" data-name="Trazado 842237" d="M220.937,285.639s13.845,12.706,17.156,14.663,9.272,4.317,11.379,8.379-3.553,4.863-11.53,4.863-17.612-7.6-21.676-8.8-3.446-.848-7.067-2.939,1.2-17.759,1.2-17.759Z" fill="#90c7aa"/>
            <path id="Trazado_842238" data-name="Trazado 842238" d="M220.937,283.833s13.845,12.706,17.156,14.663,8.879,5.117,10.985,9.18-3.16,4.063-11.136,4.063-17.155-9.33-21.219-10.534-3.446-.847-7.067-2.938.747-16.025.747-16.025Z" fill="#003a40"/>
            <path id="Trazado_842239" data-name="Trazado 842239" d="M231.17,145.313s12.34,37.12,3.611,61.517S223.6,288.055,223.6,288.055s-.552,2.784-9.28,1.392-10.534-6.728-10.534-6.728-2.408-28.592,0-37.635,4.438-15.65,4.438-15.65l-2.034-74.579Z" fill="#00778f"/>
            <path id="Trazado_842240" data-name="Trazado 842240" d="M192.344,301.657s5.117,11.889,8.277,15.651,17.307,9.933,12.34,16.554c-2.948,3.93-14.9,1.8-19.263-1.956s-10.368-10.9-12.625-12.231a7.787,7.787,0,0,1-3.778-7.031c0-3.311,2.407-11.589,2.407-11.589Z" fill="#90c7aa"/>
            <path id="Trazado_842241" data-name="Trazado 842241" d="M192.344,299.4s5.117,11.889,8.277,15.651,16.1,13.393,12.34,16.554-14.9,1.8-19.263-1.957-8.578-11.932-10.835-13.264-5.568-2.687-5.568-6,2.407-11.589,2.407-11.589Z" fill="#003a40"/>
            <path id="Trazado_842242" data-name="Trazado 842242" d="M217.928,156.66s-3.162,50.131-9.708,71.228-13.77,57.956-11.663,67.215-.373,9.261-.373,9.261-13.171,2.408-16.482-1.806-5.657-5.568-5.657-5.568-3.853-31.908,0-44.321,7.162-26.735,5.657-31.011-1.434-51.647.071-55.975,38.153-9.023,38.153-9.023" fill="#0d899a"/>
            <path id="Trazado_842243" data-name="Trazado 842243" d="M214.616,72.011s10.083-.15,11.136.9,13.092,27.54,12.942,32.656S236.136,129,236.136,130.9s-.259,33.826-.259,33.826-8.019,15.117-35.407,16.685c-11.8.676-22.121-13.243-22.121-13.243s6.114-18.081,5.813-27.184-8.673-29.7-10.027-38.278,18.059-23.928,24.831-27.239,15.651-3.461,15.651-3.461" fill="#0b0b0b"/>
            <path id="Trazado_842244" data-name="Trazado 842244" d="M216.722,70.657s-1.2,4.364,0,7.825,1.806,6.321,1.2,9.181-9.631,4.966-16.554.752-8.354-9.252-7.115-10.083,3.2-3.16,3.2-5.117-.752-9.782-.752-9.782Z" fill="#df7843"/>
            <path id="Trazado_842245" data-name="Trazado 842245" d="M218.163,45.261s-1.558,4.267-7.836,6.208-4.4,9.819-7,10.27-7.673-2.522-7.673-2.522l3.838,6.581s-2.257,2.483-3.838,1.354-5.3-9.367-5.3-9.367-8.916-16.027,4.741-23.7,24.154,4.4,27.765,5.643,3.16,3.95,2.032,5.53-6.724,0-6.724,0" fill="#4c170c"/>
            <path id="Trazado_842246" data-name="Trazado 842246" d="M221.178,45.818s1.9,3.055,1.452,4.748.451,2.483.677,3.273a41.992,41.992,0,0,1,.226,5.869V71.333c0,.991-1.467,3.047-3.95,3.161s-12.3.211-15.8-2.491a12,12,0,0,1-4.289-6.2s-.564,1.241-3.048,0-3.611-3.5-4.176-8.239,6.433.564,6.433.564,5.644,4.332,5.644,1.094,1.513-13.7,2.036-14.3c3.381-3.866,14.8.9,14.8.9" fill="#ee8d5c"/>
            <path id="Trazado_842247" data-name="Trazado 842247" d="M187.489,107.225s1.167,18.059-.752,25.621a143.506,143.506,0,0,1-5.078,15.462s2.483,15.237,1.58,21.557,3.837,22.009,3.837,22.009,6.641,3.819,6.715,3.875,4.854,6.509,4.854,6.509V208.8c0,1.129-2.032,1.524-2.483,0a36.757,36.757,0,0,1-.79-4.684s-5.361-3.555-5.53-3.555-2.032,8.8-1.862,9.537,1.806,3.33,1.862,4.063,3.5,2.756,4.8,3.41,3.387-.193,3.725,1.557-3.611,1.75-4.289,1.75-5.531-2.6-5.812-2.54-3.612-.113-3.951-1.3-.908-.856-.908-.856a2.039,2.039,0,0,1-1.744-.724,4.22,4.22,0,0,0-1.117-1.124s-1.2.566-1.992-1.466-2.144-9.876-2.37-10.892,1.354-7.111,1.354-7.111-9.029-37.415-9.988-40.068,1.523-10.1.79-21.163.222-30.756,5.726-33.859,12.6,2.935,13.423,7.449" fill="#ee8d5c"/>
            <path id="Trazado_842248" data-name="Trazado 842248" d="M182.986,98.924s8.492,1.981,8.267,10.559-2.37,29.12-2.935,29.571-4.853,7.562-11.513,5.418-12.189-7.9-12.189-7.9,3.052-32.056,5.752-35.555,11.124-2.954,12.614-2.094" fill="#131212"/>
          </g>
        </g>
        <g id="Grupo_1079144" data-name="Grupo 1079144">
          <g id="Grupo_1079143" data-name="Grupo 1079143" clip-path="url(#clip-path)">
            <g id="Grupo_1079142" data-name="Grupo 1079142" opacity="0.3">
              <g id="Grupo_1079141" data-name="Grupo 1079141">
                <g id="Grupo_1079140" data-name="Grupo 1079140" clip-path="url(#clip-path-5)">
                  <path id="Trazado_842249" data-name="Trazado 842249" d="M167.474,113.073,78,160.521l93,72,155-83-87.306-43.954.287,12.794s9.792,17.863,4.854,25.891c0,0,.891,7.164-7.8.93,0,0-14.239,37.135-52.8,16.339,0,0,4.776,14.509-12,7.523l-3.652-19.25.863-9.9-3.826-3.32Z" fill="#673ab7"/>
                </g>
              </g>
            </g>
          </g>
        </g>
      </g>
    </g>
  </g>
</svg>
