<svg xmlns="http://www.w3.org/2000/svg" width="296.851" height="272.682" viewBox="0 0 296.851 272.682">
  <g id="Grupo_1069679" data-name="Grupo 1069679" transform="translate(-1123.149 -934.126)">
    <g id="Grupo_1069678" data-name="Grupo 1069678">
      <g id="Grupo_1069677" data-name="Grupo 1069677">
        <g id="Grupo_1069676" data-name="Grupo 1069676">
          <g id="Grupo_1069675" data-name="Grupo 1069675">
            <g id="Grupo_1069674" data-name="Grupo 1069674">
              <circle id="Elipse_4750" data-name="Elipse 4750" cx="82.42" cy="82.42" r="82.42" transform="matrix(0.987, -0.16, 0.16, 0.987, 1125, 1018.116)" fill="none" stroke="#895cd8" stroke-miterlimit="10" stroke-width="3.227" opacity="0.5"/>
              <g id="Grupo_1054591" data-name="Grupo 1054591" transform="translate(57.749 -95)">
                <circle id="Elipse_4745" data-name="Elipse 4745" cx="80.52" cy="80.52" r="80.52" transform="translate(1186.402 1029.126)" fill="#895cd8"/>
                <path id="Trazado_771895" data-name="Trazado 771895" d="M262.183,116.256A103.292,103.292,0,0,0,233.126,31.72,97.025,97.025,0,0,0,187.7,5.556C132.376-8.376,96.522,4.387,78.6,38.286S9.243,66.34,1.061,124.785s31.56,122.735,98.968,126.242,58.731-30.048,95.6-44.441C223.833,195.577,256.9,162.675,262.183,116.256Z" transform="translate(1099.555 1041.505) rotate(2)" fill="#ffd54f"/>
                <g id="Grupo_1054590" data-name="Grupo 1054590" transform="translate(1103.942 1074.255)">
                  <path id="Trazado_816195" data-name="Trazado 816195" d="M18.906,15.117h4.977V17h-7.32V5.625h2.344ZM29.977,17a2.507,2.507,0,0,1-.227-.758,2.732,2.732,0,0,1-2.133.914,3,3,0,0,1-2.059-.719,2.312,2.312,0,0,1-.816-1.812,2.389,2.389,0,0,1,1-2.062,4.915,4.915,0,0,1,2.879-.727h1.039v-.484a1.393,1.393,0,0,0-.3-.937,1.183,1.183,0,0,0-.949-.352,1.345,1.345,0,0,0-.895.273.929.929,0,0,0-.324.75H24.93a2.268,2.268,0,0,1,.453-1.359,3,3,0,0,1,1.281-.98,4.669,4.669,0,0,1,1.859-.355A3.689,3.689,0,0,1,31,9.176a2.747,2.747,0,0,1,.918,2.207v3.664a4.041,4.041,0,0,0,.336,1.82V17ZM28.11,15.43a1.945,1.945,0,0,0,.922-.223,1.462,1.462,0,0,0,.625-.6V13.156h-.844q-1.7,0-1.8,1.172L27,14.461a.9.9,0,0,0,.3.7A1.153,1.153,0,0,0,28.11,15.43ZM45.25,12.852a5.07,5.07,0,0,1-.887,3.129,2.843,2.843,0,0,1-2.395,1.176,2.633,2.633,0,0,1-2.07-.891V20.25H37.641V8.547h2.094l.078.828a2.654,2.654,0,0,1,2.141-.984,2.862,2.862,0,0,1,2.43,1.156,5.207,5.207,0,0,1,.867,3.188Zm-2.258-.164a3.327,3.327,0,0,0-.418-1.82,1.361,1.361,0,0,0-1.215-.641,1.478,1.478,0,0,0-1.461.813V14.5a1.5,1.5,0,0,0,1.477.836Q42.992,15.336,42.992,12.688Zm8.719,3.453A2.831,2.831,0,0,1,49.4,17.156a2.67,2.67,0,0,1-2.074-.781,3.335,3.335,0,0,1-.73-2.289V8.547h2.258v5.461q0,1.32,1.2,1.32a1.631,1.631,0,0,0,1.578-.8V8.547H53.9V17H51.774ZM57.985,17H55.719V5h2.266Zm1.531-4.289a4.954,4.954,0,0,1,.926-3.133,3,3,0,0,1,2.5-1.187,2.631,2.631,0,0,1,2.164.953l.094-.8h2.047v8.172a3.613,3.613,0,0,1-.5,1.93A3.236,3.236,0,0,1,65.32,19.9a4.985,4.985,0,0,1-2.141.43,4.635,4.635,0,0,1-1.812-.371A3.217,3.217,0,0,1,60.031,19l1-1.375a2.645,2.645,0,0,0,2.047.945,1.936,1.936,0,0,0,1.4-.48,1.8,1.8,0,0,0,.5-1.363v-.453a2.612,2.612,0,0,1-2.055.883,2.992,2.992,0,0,1-2.465-1.191,4.953,4.953,0,0,1-.941-3.16Zm2.258.164a3.076,3.076,0,0,0,.461,1.8,1.467,1.467,0,0,0,1.266.652,1.568,1.568,0,0,0,1.477-.773V11a1.565,1.565,0,0,0-1.461-.773,1.476,1.476,0,0,0-1.277.664A3.467,3.467,0,0,0,61.774,12.875ZM73.875,17a2.507,2.507,0,0,1-.227-.758,2.732,2.732,0,0,1-2.133.914,3,3,0,0,1-2.059-.719,2.312,2.312,0,0,1-.816-1.812,2.389,2.389,0,0,1,1-2.062,4.915,4.915,0,0,1,2.879-.727h1.039v-.484a1.393,1.393,0,0,0-.3-.937,1.183,1.183,0,0,0-.949-.352,1.345,1.345,0,0,0-.895.273.929.929,0,0,0-.324.75H68.828a2.268,2.268,0,0,1,.453-1.359,3,3,0,0,1,1.281-.98,4.669,4.669,0,0,1,1.859-.355,3.689,3.689,0,0,1,2.48.785,2.747,2.747,0,0,1,.918,2.207v3.664a4.041,4.041,0,0,0,.336,1.82V17Zm-1.867-1.57a1.945,1.945,0,0,0,.922-.223,1.462,1.462,0,0,0,.625-.6V13.156h-.844q-1.7,0-1.8,1.172l-.008.133a.9.9,0,0,0,.3.7A1.153,1.153,0,0,0,72.008,15.43Zm5.2-2.719a5.094,5.094,0,0,1,.887-3.148,2.877,2.877,0,0,1,2.426-1.172,2.589,2.589,0,0,1,2.039.922V5H84.82V17H82.781l-.109-.9A2.657,2.657,0,0,1,80.5,17.156a2.869,2.869,0,0,1-2.395-1.176A5.258,5.258,0,0,1,77.2,12.711Zm2.258.164a3.328,3.328,0,0,0,.414,1.82,1.349,1.349,0,0,0,1.2.633,1.511,1.511,0,0,0,1.477-.883V11.109a1.489,1.489,0,0,0-1.461-.883Q79.461,10.227,79.461,12.875ZM91.469,17a2.507,2.507,0,0,1-.227-.758,2.732,2.732,0,0,1-2.133.914,3,3,0,0,1-2.059-.719,2.312,2.312,0,0,1-.816-1.812,2.389,2.389,0,0,1,1-2.062,4.915,4.915,0,0,1,2.879-.727h1.039v-.484a1.393,1.393,0,0,0-.3-.937,1.183,1.183,0,0,0-.949-.352,1.345,1.345,0,0,0-.895.273.929.929,0,0,0-.324.75H86.422a2.268,2.268,0,0,1,.453-1.359,3,3,0,0,1,1.281-.98,4.669,4.669,0,0,1,1.859-.355,3.689,3.689,0,0,1,2.48.785,2.747,2.747,0,0,1,.918,2.207v3.664a4.041,4.041,0,0,0,.336,1.82V17ZM89.6,15.43a1.945,1.945,0,0,0,.922-.223,1.462,1.462,0,0,0,.625-.6V13.156H90.3q-1.7,0-1.8,1.172l-.008.133a.9.9,0,0,0,.3.7A1.153,1.153,0,0,0,89.6,15.43Z" transform="translate(54.605 30.374)" fill="#12263f"/>
                  <path id="Trazado_816194" data-name="Trazado 816194" d="M18.44,17H16.1L11.533,9.516V17H9.19V5.625h2.344l4.57,7.5v-7.5H18.44Zm6.961-.859a2.831,2.831,0,0,1-2.312,1.016,2.67,2.67,0,0,1-2.074-.781,3.335,3.335,0,0,1-.73-2.289V8.547h2.258v5.461q0,1.32,1.2,1.32a1.631,1.631,0,0,0,1.578-.8V8.547h2.266V17H25.463Zm6.008-7.594.07.945a2.971,2.971,0,0,1,2.43-1.1A2.255,2.255,0,0,1,36.15,9.68,2.9,2.9,0,0,1,38.69,8.391a2.521,2.521,0,0,1,2.047.8,3.681,3.681,0,0,1,.672,2.41V17H39.143V11.609a1.61,1.61,0,0,0-.281-1.051,1.246,1.246,0,0,0-.992-.332,1.409,1.409,0,0,0-1.406.969l.008,5.8H34.213V11.617a1.59,1.59,0,0,0-.289-1.062,1.259,1.259,0,0,0-.984-.328,1.463,1.463,0,0,0-1.391.8V17H29.291V8.547Zm15.625,8.609a4.15,4.15,0,0,1-3.027-1.141,4.054,4.054,0,0,1-1.168-3.039v-.219a5.106,5.106,0,0,1,.492-2.277,3.612,3.612,0,0,1,1.395-1.547,3.914,3.914,0,0,1,2.059-.543,3.508,3.508,0,0,1,2.73,1.094,4.444,4.444,0,0,1,1,3.1v.922H45.127a2.1,2.1,0,0,0,.66,1.328,2,2,0,0,0,1.395.5,2.437,2.437,0,0,0,2.039-.945l1.109,1.242a3.389,3.389,0,0,1-1.375,1.121A4.511,4.511,0,0,1,47.033,17.156Zm-.258-6.937a1.414,1.414,0,0,0-1.09.453,2.341,2.341,0,0,0-.535,1.3h3.141v-.18a1.669,1.669,0,0,0-.406-1.16A1.459,1.459,0,0,0,46.775,10.219Zm9.766.445a6.134,6.134,0,0,0-.812-.062,1.654,1.654,0,0,0-1.68.867V17H51.791V8.547h2.133l.063,1.008a2.092,2.092,0,0,1,1.883-1.164,2.366,2.366,0,0,1,.7.1ZM62.291,17a2.507,2.507,0,0,1-.227-.758,2.732,2.732,0,0,1-2.133.914,3,3,0,0,1-2.059-.719,2.312,2.312,0,0,1-.816-1.812,2.389,2.389,0,0,1,1-2.062,4.915,4.915,0,0,1,2.879-.727h1.039v-.484a1.393,1.393,0,0,0-.3-.937,1.183,1.183,0,0,0-.949-.352,1.345,1.345,0,0,0-.895.273.929.929,0,0,0-.324.75H57.244A2.268,2.268,0,0,1,57.7,9.727a3,3,0,0,1,1.281-.98,4.669,4.669,0,0,1,1.859-.355,3.689,3.689,0,0,1,2.48.785,2.747,2.747,0,0,1,.918,2.207v3.664a4.041,4.041,0,0,0,.336,1.82V17Zm-1.867-1.57a1.945,1.945,0,0,0,.922-.223,1.462,1.462,0,0,0,.625-.6V13.156h-.844q-1.7,0-1.8,1.172l-.008.133a.9.9,0,0,0,.3.7A1.153,1.153,0,0,0,60.424,15.43Zm5.2-2.719a5.094,5.094,0,0,1,.887-3.148,2.877,2.877,0,0,1,2.426-1.172,2.589,2.589,0,0,1,2.039.922V5h2.266V17H71.2l-.109-.9a2.657,2.657,0,0,1-2.172,1.055,2.869,2.869,0,0,1-2.395-1.176A5.258,5.258,0,0,1,65.619,12.711Zm2.258.164a3.328,3.328,0,0,0,.414,1.82,1.349,1.349,0,0,0,1.2.633,1.511,1.511,0,0,0,1.477-.883V11.109a1.489,1.489,0,0,0-1.461-.883Q67.877,10.227,67.877,12.875Zm6.758-.18a5.013,5.013,0,0,1,.484-2.242A3.546,3.546,0,0,1,76.514,8.93a4.069,4.069,0,0,1,2.113-.539A3.849,3.849,0,0,1,81.42,9.438a4.2,4.2,0,0,1,1.207,2.844l.016.578a4.418,4.418,0,0,1-1.086,3.121,4.209,4.209,0,0,1-5.832,0,4.5,4.5,0,0,1-1.09-3.187Zm2.258.164a3.151,3.151,0,0,0,.453,1.84,1.629,1.629,0,0,0,2.578.008,3.448,3.448,0,0,0,.461-2.012,3.12,3.12,0,0,0-.461-1.828,1.5,1.5,0,0,0-1.3-.648,1.475,1.475,0,0,0-1.281.645A3.506,3.506,0,0,0,76.893,12.859Zm11.891-2.2a6.134,6.134,0,0,0-.812-.062,1.654,1.654,0,0,0-1.68.867V17H84.033V8.547h2.133l.063,1.008a2.092,2.092,0,0,1,1.883-1.164,2.366,2.366,0,0,1,.7.1Zm9.461,2.375h-4.4v-1.82h4.4ZM104.19,17V5.625h3.5a5.315,5.315,0,0,1,2.684.676,4.712,4.712,0,0,1,1.848,1.922,5.928,5.928,0,0,1,.664,2.832v.523a5.945,5.945,0,0,1-.652,2.82,4.672,4.672,0,0,1-1.84,1.914,5.355,5.355,0,0,1-2.68.688Zm2.344-9.477v7.594h1.133a2.545,2.545,0,0,0,2.1-.9,4.06,4.06,0,0,0,.742-2.57v-.6a4.124,4.124,0,0,0-.719-2.629,2.537,2.537,0,0,0-2.1-.895Zm11.8,9.633a4.15,4.15,0,0,1-3.027-1.141,4.054,4.054,0,0,1-1.168-3.039v-.219a5.106,5.106,0,0,1,.492-2.277,3.612,3.612,0,0,1,1.395-1.547,3.914,3.914,0,0,1,2.059-.543,3.508,3.508,0,0,1,2.73,1.094,4.444,4.444,0,0,1,1,3.1v.922h-5.383a2.1,2.1,0,0,0,.66,1.328,2,2,0,0,0,1.395.5,2.437,2.437,0,0,0,2.039-.945l1.109,1.242a3.389,3.389,0,0,1-1.375,1.121A4.511,4.511,0,0,1,118.33,17.156Zm-.258-6.937a1.414,1.414,0,0,0-1.09.453,2.341,2.341,0,0,0-.535,1.3h3.141v-.18a1.669,1.669,0,0,0-.406-1.16A1.459,1.459,0,0,0,118.072,10.219Zm7.094-1.672.07.977a2.951,2.951,0,0,1,2.43-1.133,2.453,2.453,0,0,1,2,.789,3.682,3.682,0,0,1,.672,2.359V17H128.08V11.594a1.465,1.465,0,0,0-.312-1.043,1.4,1.4,0,0,0-1.039-.324,1.553,1.553,0,0,0-1.43.813V17h-2.258V8.547ZM131.7,12.7a5.013,5.013,0,0,1,.484-2.242,3.546,3.546,0,0,1,1.395-1.523,4.069,4.069,0,0,1,2.113-.539,3.849,3.849,0,0,1,2.793,1.047,4.2,4.2,0,0,1,1.207,2.844l.016.578a4.418,4.418,0,0,1-1.086,3.121,4.209,4.209,0,0,1-5.832,0A4.5,4.5,0,0,1,131.7,12.8Zm2.258.164a3.151,3.151,0,0,0,.453,1.84,1.629,1.629,0,0,0,2.578.008,3.448,3.448,0,0,0,.461-2.012,3.12,3.12,0,0,0-.461-1.828,1.5,1.5,0,0,0-1.3-.648,1.475,1.475,0,0,0-1.281.645A3.506,3.506,0,0,0,133.955,12.859Zm9.258-4.312.07.945a2.971,2.971,0,0,1,2.43-1.1,2.255,2.255,0,0,1,2.242,1.289,2.9,2.9,0,0,1,2.539-1.289,2.521,2.521,0,0,1,2.047.8,3.681,3.681,0,0,1,.672,2.41V17h-2.266V11.609a1.61,1.61,0,0,0-.281-1.051,1.246,1.246,0,0,0-.992-.332,1.409,1.409,0,0,0-1.406.969l.008,5.8h-2.258V11.617a1.59,1.59,0,0,0-.289-1.062,1.259,1.259,0,0,0-.984-.328,1.463,1.463,0,0,0-1.391.8V17H141.1V8.547ZM157.33,17h-2.266V8.547h2.266Zm-2.4-10.641a1.112,1.112,0,0,1,.34-.836,1.465,1.465,0,0,1,1.848,0,1.105,1.105,0,0,1,.344.836,1.109,1.109,0,0,1-.348.844,1.448,1.448,0,0,1-1.836,0A1.109,1.109,0,0,1,154.932,6.359Zm6.336,2.188.07.977a2.951,2.951,0,0,1,2.43-1.133,2.453,2.453,0,0,1,2,.789,3.682,3.682,0,0,1,.672,2.359V17h-2.258V11.594a1.465,1.465,0,0,0-.312-1.043,1.4,1.4,0,0,0-1.039-.324,1.553,1.553,0,0,0-1.43.813V17h-2.258V8.547ZM173.049,17a2.507,2.507,0,0,1-.227-.758,2.732,2.732,0,0,1-2.133.914,3,3,0,0,1-2.059-.719,2.312,2.312,0,0,1-.816-1.812,2.389,2.389,0,0,1,1-2.062,4.915,4.915,0,0,1,2.879-.727h1.039v-.484a1.393,1.393,0,0,0-.3-.937,1.183,1.183,0,0,0-.949-.352,1.345,1.345,0,0,0-.895.273.929.929,0,0,0-.324.75H168a2.268,2.268,0,0,1,.453-1.359,3,3,0,0,1,1.281-.98,4.669,4.669,0,0,1,1.859-.355,3.689,3.689,0,0,1,2.48.785,2.747,2.747,0,0,1,.918,2.207v3.664a4.041,4.041,0,0,0,.336,1.82V17Zm-1.867-1.57a1.945,1.945,0,0,0,.922-.223,1.462,1.462,0,0,0,.625-.6V13.156h-.844q-1.7,0-1.8,1.172l-.008.133a.9.9,0,0,0,.3.7A1.153,1.153,0,0,0,171.182,15.43Zm5.2-2.719a5.094,5.094,0,0,1,.887-3.148,2.877,2.877,0,0,1,2.426-1.172,2.589,2.589,0,0,1,2.039.922V5h2.266V17h-2.039l-.109-.9a2.657,2.657,0,0,1-2.172,1.055,2.869,2.869,0,0,1-2.395-1.176A5.258,5.258,0,0,1,176.377,12.711Zm2.258.164a3.328,3.328,0,0,0,.414,1.82,1.349,1.349,0,0,0,1.2.633,1.511,1.511,0,0,0,1.477-.883V11.109a1.489,1.489,0,0,0-1.461-.883Q178.635,10.227,178.635,12.875Zm6.758-.18a5.013,5.013,0,0,1,.484-2.242,3.546,3.546,0,0,1,1.395-1.523,4.069,4.069,0,0,1,2.113-.539,3.849,3.849,0,0,1,2.793,1.047,4.2,4.2,0,0,1,1.207,2.844l.016.578a4.418,4.418,0,0,1-1.086,3.121,4.209,4.209,0,0,1-5.832,0,4.5,4.5,0,0,1-1.09-3.187Zm2.258.164a3.151,3.151,0,0,0,.453,1.84,1.629,1.629,0,0,0,2.578.008,3.448,3.448,0,0,0,.461-2.012,3.12,3.12,0,0,0-.461-1.828,1.5,1.5,0,0,0-1.3-.648,1.475,1.475,0,0,0-1.281.645A3.506,3.506,0,0,0,187.65,12.859Zm11.891-2.2a6.134,6.134,0,0,0-.812-.062,1.654,1.654,0,0,0-1.68.867V17h-2.258V8.547h2.133l.063,1.008a2.092,2.092,0,0,1,1.883-1.164,2.366,2.366,0,0,1,.7.1Z" transform="translate(5.553 0)" fill="#12263f"/>
                  <path id="Trazado_816196" data-name="Trazado 816196" d="M18.926,17H17.473V7.367l-2.914,1.07V7.125L18.7,5.57h.227ZM29,12.547V17H27.5V5.625h4.2a4.215,4.215,0,0,1,2.926.953A3.231,3.231,0,0,1,35.676,9.1a3.189,3.189,0,0,1-1.035,2.551,4.4,4.4,0,0,1-2.965.895Zm0-1.227h2.7a2.7,2.7,0,0,0,1.844-.566,2.069,2.069,0,0,0,.641-1.637,2.138,2.138,0,0,0-.641-1.625,2.528,2.528,0,0,0-1.758-.633H29Zm13.586,4.844a3.07,3.07,0,0,1-2.477.992,2.628,2.628,0,0,1-2.059-.785,3.4,3.4,0,0,1-.715-2.324v-5.5h1.445v5.461q0,1.922,1.563,1.922a2.163,2.163,0,0,0,2.2-1.234V8.547h1.445V17H42.614ZM47.754,17H46.309V5h1.445Zm1.969-4.3a4.968,4.968,0,0,1,.914-3.145,3.151,3.151,0,0,1,4.836-.074l.07-.937h1.32V16.8a3.439,3.439,0,0,1-.973,2.586,3.589,3.589,0,0,1-2.613.945,4.348,4.348,0,0,1-1.789-.391,3.08,3.08,0,0,1-1.336-1.07L50.9,18a2.826,2.826,0,0,0,2.273,1.148,2.214,2.214,0,0,0,1.645-.594,2.269,2.269,0,0,0,.59-1.672v-.727a2.971,2.971,0,0,1-2.367,1,2.887,2.887,0,0,1-2.4-1.2A5.224,5.224,0,0,1,49.723,12.7Zm1.453.164a3.79,3.79,0,0,0,.586,2.246,1.9,1.9,0,0,0,1.641.816,2.117,2.117,0,0,0,2.008-1.242V10.828a2.142,2.142,0,0,0-1.992-1.211,1.921,1.921,0,0,0-1.648.82A4.128,4.128,0,0,0,51.176,12.867ZM64.262,17a3.036,3.036,0,0,1-.2-.891,3.225,3.225,0,0,1-2.406,1.047,2.984,2.984,0,0,1-2.051-.707,2.287,2.287,0,0,1-.8-1.793,2.39,2.39,0,0,1,1-2.051,4.733,4.733,0,0,1,2.824-.73h1.406v-.664A1.623,1.623,0,0,0,63.583,10a1.821,1.821,0,0,0-1.336-.449,2.107,2.107,0,0,0-1.3.391,1.151,1.151,0,0,0-.523.945H58.973a2,2,0,0,1,.449-1.223,3.066,3.066,0,0,1,1.219-.934,4.1,4.1,0,0,1,1.691-.344,3.342,3.342,0,0,1,2.289.73,2.635,2.635,0,0,1,.859,2.012v3.891a4.757,4.757,0,0,0,.3,1.852V17Zm-2.4-1.1a2.54,2.54,0,0,0,1.289-.352,2.127,2.127,0,0,0,.883-.914V12.9H62.9q-2.656,0-2.656,1.555a1.316,1.316,0,0,0,.453,1.063A1.742,1.742,0,0,0,61.864,15.9ZM67.4,12.7a4.952,4.952,0,0,1,.922-3.129,3.137,3.137,0,0,1,4.766-.168V5h1.445V17H73.2l-.07-.906a2.943,2.943,0,0,1-2.414,1.063,2.887,2.887,0,0,1-2.395-1.2,5.008,5.008,0,0,1-.926-3.141Zm1.445.164a3.749,3.749,0,0,0,.594,2.25,1.92,1.92,0,0,0,1.641.813A2.108,2.108,0,0,0,73.083,14.7V10.813a2.125,2.125,0,0,0-1.992-1.2,1.929,1.929,0,0,0-1.656.82A4.128,4.128,0,0,0,68.84,12.867ZM81.989,17a3.036,3.036,0,0,1-.2-.891,3.225,3.225,0,0,1-2.406,1.047,2.984,2.984,0,0,1-2.051-.707,2.288,2.288,0,0,1-.8-1.793,2.39,2.39,0,0,1,1-2.051,4.733,4.733,0,0,1,2.824-.73h1.406v-.664A1.623,1.623,0,0,0,81.309,10a1.821,1.821,0,0,0-1.336-.449,2.108,2.108,0,0,0-1.3.391,1.151,1.151,0,0,0-.523.945H76.7a2,2,0,0,1,.449-1.223,3.066,3.066,0,0,1,1.219-.934,4.1,4.1,0,0,1,1.691-.344,3.342,3.342,0,0,1,2.289.73,2.635,2.635,0,0,1,.859,2.012v3.891a4.757,4.757,0,0,0,.3,1.852V17Zm-2.4-1.1a2.54,2.54,0,0,0,1.289-.352,2.127,2.127,0,0,0,.883-.914V12.9H80.629q-2.656,0-2.656,1.555a1.316,1.316,0,0,0,.453,1.063A1.742,1.742,0,0,0,79.59,15.9Zm16.453-5.258H89.528V9.383h6.516Zm0,3.242H89.528v-1.25h6.516ZM106.778,17h-1.453V7.367l-2.914,1.07V7.125l4.141-1.555h.227Zm10.18,0h-1.5V5.625h1.5Zm11.484,0h-1.508l-5.727-8.766V17H119.7V5.625h1.508l5.742,8.8v-8.8h1.492Zm13.008-6.359h-6.516V9.383h6.516Zm0,3.242h-6.516v-1.25h6.516ZM152.184,17h-1.453V7.367l-2.914,1.07V7.125l4.141-1.555h.227Zm5.453-10.937-.234,2.8h-.867L156.543,5h1.094Zm2.109,0-.234,2.8h-.867L158.653,5h1.094Z" transform="translate(22.317 194.969)" fill="#12263f"/>
                  <g id="Grupo_1054519" data-name="Grupo 1054519" transform="translate(0 60.748)">
                    <rect id="Rectángulo_3600" data-name="Rectángulo 3600" width="1.64" height="21.738" transform="translate(145.156 72.002)" fill="#7b1fa2"/>
                    <rect id="Rectángulo_3601" data-name="Rectángulo 3601" width="1.64" height="21.738" transform="translate(139.342 72.002)" fill="#7b1fa2"/>
                    <rect id="Rectángulo_3602" data-name="Rectángulo 3602" width="1.64" height="21.738" transform="translate(133.672 72.002)" fill="#7b1fa2"/>
                    <rect id="Rectángulo_3603" data-name="Rectángulo 3603" width="219.04" height="109.754" rx="7.453" transform="translate(0)" fill="#f8f3ff"/>
                    <text id="inches" transform="translate(25.859 34.494)" fill="#ba68c8" font-size="21" font-family="Helvetica"><tspan x="0" y="0">inches</tspan></text>
                    <rect id="Rectángulo_3604" data-name="Rectángulo 3604" width="1.64" height="71.202" transform="translate(196.264 22.538)" fill="#7b1fa2"/>
                    <rect id="Rectángulo_3605" data-name="Rectángulo 3605" width="1.64" height="30.469" transform="translate(173.617 63.27)" fill="#7b1fa2"/>
                    <rect id="Rectángulo_3606" data-name="Rectángulo 3606" width="1.64" height="45.155" transform="translate(150.97 48.585)" fill="#7b1fa2"/>
                    <g id="Grupo_15315" data-name="Grupo 15315" transform="translate(133.672 72.002)">
                      <rect id="Rectángulo_3607" data-name="Rectángulo 3607" width="1.64" height="21.738" transform="translate(11.484)" fill="#7b1fa2"/>
                      <rect id="Rectángulo_3608" data-name="Rectángulo 3608" width="1.64" height="21.738" transform="translate(5.67)" fill="#7b1fa2"/>
                      <rect id="Rectángulo_3609" data-name="Rectángulo 3609" width="1.64" height="21.738" fill="#7b1fa2"/>
                    </g>
                    <g id="Grupo_15316" data-name="Grupo 15316" transform="translate(111.257 72.002)">
                      <rect id="Rectángulo_3610" data-name="Rectángulo 3610" width="1.64" height="21.738" transform="translate(11.484)" fill="#7b1fa2"/>
                      <rect id="Rectángulo_3611" data-name="Rectángulo 3611" width="1.64" height="21.738" transform="translate(5.67)" fill="#7b1fa2"/>
                      <rect id="Rectángulo_3612" data-name="Rectángulo 3612" width="1.64" height="21.738" fill="#7b1fa2"/>
                    </g>
                    <g id="Grupo_15317" data-name="Grupo 15317" transform="translate(88.529 72.002)">
                      <rect id="Rectángulo_3613" data-name="Rectángulo 3613" width="1.64" height="21.738" transform="translate(11.484)" fill="#7b1fa2"/>
                      <rect id="Rectángulo_3614" data-name="Rectángulo 3614" width="1.64" height="21.738" transform="translate(5.67)" fill="#7b1fa2"/>
                      <rect id="Rectángulo_3615" data-name="Rectángulo 3615" width="1.64" height="21.738" fill="#7b1fa2"/>
                    </g>
                    <g id="Grupo_15318" data-name="Grupo 15318" transform="translate(65.801 72.002)">
                      <rect id="Rectángulo_3616" data-name="Rectángulo 3616" width="1.64" height="21.738" transform="translate(11.484)" fill="#7b1fa2"/>
                      <rect id="Rectángulo_3617" data-name="Rectángulo 3617" width="1.64" height="21.738" transform="translate(5.67)" fill="#7b1fa2"/>
                      <rect id="Rectángulo_3618" data-name="Rectángulo 3618" width="1.64" height="21.738" fill="#7b1fa2"/>
                    </g>
                    <g id="Grupo_15319" data-name="Grupo 15319" transform="translate(43.154 72.002)">
                      <rect id="Rectángulo_3619" data-name="Rectángulo 3619" width="1.64" height="21.738" transform="translate(11.484)" fill="#7b1fa2"/>
                      <rect id="Rectángulo_3620" data-name="Rectángulo 3620" width="1.64" height="21.738" transform="translate(5.67)" fill="#7b1fa2"/>
                      <rect id="Rectángulo_3621" data-name="Rectángulo 3621" width="1.64" height="21.738" fill="#7b1fa2"/>
                    </g>
                    <g id="Grupo_15320" data-name="Grupo 15320" transform="translate(156.552 72.002)">
                      <rect id="Rectángulo_3622" data-name="Rectángulo 3622" width="1.64" height="21.738" transform="translate(11.484)" fill="#7b1fa2"/>
                      <rect id="Rectángulo_3623" data-name="Rectángulo 3623" width="1.64" height="21.738" transform="translate(5.67)" fill="#7b1fa2"/>
                      <rect id="Rectángulo_3624" data-name="Rectángulo 3624" width="1.64" height="21.738" fill="#7b1fa2"/>
                    </g>
                    <g id="Grupo_15321" data-name="Grupo 15321" transform="translate(179.199 72.002)">
                      <rect id="Rectángulo_3625" data-name="Rectángulo 3625" width="1.64" height="21.738" transform="translate(11.484)" fill="#7b1fa2"/>
                      <rect id="Rectángulo_3626" data-name="Rectángulo 3626" width="1.64" height="21.738" transform="translate(5.67)" fill="#7b1fa2"/>
                      <rect id="Rectángulo_3627" data-name="Rectángulo 3627" width="1.64" height="21.738" fill="#7b1fa2"/>
                    </g>
                    <rect id="Rectángulo_3628" data-name="Rectángulo 3628" width="1.64" height="30.469" transform="translate(128.323 63.27)" fill="#7b1fa2"/>
                    <rect id="Rectángulo_3629" data-name="Rectángulo 3629" width="1.64" height="45.155" transform="translate(105.676 48.585)" fill="#7b1fa2"/>
                    <rect id="Rectángulo_3630" data-name="Rectángulo 3630" width="178.449" height="1.64" transform="translate(19.454 92.92)" fill="#7b1fa2"/>
                    <text id="_1" data-name="1" transform="translate(178.147 40.029)" fill="#ba68c8" font-size="26" font-family="Helvetica"><tspan x="0" y="0">1</tspan></text>
                    <rect id="Rectángulo_3631" data-name="Rectángulo 3631" width="1.64" height="30.469" transform="translate(82.866 63.27)" fill="#7b1fa2"/>
                    <rect id="Rectángulo_3632" data-name="Rectángulo 3632" width="1.64" height="45.155" transform="translate(60.219 48.585)" fill="#7b1fa2"/>
                    <rect id="Rectángulo_3633" data-name="Rectángulo 3633" width="1.64" height="30.469" transform="translate(37.572 63.27)" fill="#7b1fa2"/>
                    <rect id="Rectángulo_3634" data-name="Rectángulo 3634" width="1.64" height="21.738" transform="translate(31.615 72.002)" fill="#7b1fa2"/>
                    <rect id="Rectángulo_3635" data-name="Rectángulo 3635" width="1.64" height="21.738" transform="translate(25.412 72.002)" fill="#7b1fa2"/>
                    <rect id="Rectángulo_3636" data-name="Rectángulo 3636" width="1.64" height="71.202" transform="translate(19.454 22.538)" fill="#7b1fa2"/>
                  </g>
                </g>
              </g>
            </g>
          </g>
        </g>
      </g>
    </g>
  </g>
</svg>
