<svg id="Grupo_15344" data-name="Grupo 15344" xmlns="http://www.w3.org/2000/svg" width="184.492" height="298.496" viewBox="0 0 184.492 298.496">
  <g id="Grupo_15334" data-name="Grupo 15334" transform="translate(121.985 0)">
    <path id="Trazado_24411" data-name="Trazado 24411" d="M583.151,696.262a8.4,8.4,0,0,0,.3,6.724c3.449,7.128,4.891,14.929,7.581,22.317,2.558,7.027,2.2,14.535,1.971,21.848-.339,10.941-1.094,21.88-2.063,32.783-1.612,18.112-2.867,36.24-3.116,54.421-.081,5.788.428,11.591.847,17.375.256,3.541.158,7.12-1.232,10.283-2.8,6.385-2.7,13.063-2.759,19.742-.116,12.358-.684,24.755.077,37.065.7,11.321,3.523,15.848,14.328,17.917,4.294.824,8.572,1.787,12.9,2.491,1.618.262,3.19.658,3.356,2.57.167,1.945-1.407,2.607-2.923,3.072-8.243,2.526-16.563,3.872-25.117,1.563a27.492,27.492,0,0,0-11.473-.7c-6.521.983-8.765-1.3-8.434-7.932a6.308,6.308,0,0,1,.28-2.29c4.266-9.035,1.659-18-.607-26.787a88.716,88.716,0,0,1-1.941-37.17,9.089,9.089,0,0,1,.518-2.643c4.919-9.524,1.756-19.166.451-28.763-1.689-12.421-7.593-23.5-11.5-35.2-3.131-9.364-1.9-18.01,2.546-26.481,2.909-5.539,4.172-11.317,2.883-17.548-.782-3.78-1.023-7.731-2.264-11.345-6.412-18.674-5.216-36.291,6.763-52.517,1.519-2.059,1.36-3.579-.156-5.411-4.688-5.669-6.4-12.632-7.9-19.551-1.982-9.211,4.03-18.965,13.069-22,8.781-2.95,17.978,1.068,22.562,9.494,4.873,8.956,5.451,18.4,3.945,28.19a6.584,6.584,0,0,1-3.4,4.9A24.2,24.2,0,0,1,583.151,696.262Z" transform="translate(-552.841 -649.124)" fill="#7138be"/>
    <path id="Trazado_24412" data-name="Trazado 24412" d="M561.44,771.675c-.761,3.673-3.145,6.341-4.584,9.453-5.183,11.225-1.8,21.884,2.84,32.066,5.266,11.572,7.957,23.685,9.423,36.137.528,4.491,2.154,9.027.006,13.674-4.558,9.853-4.162,20.317-3.206,30.771.658,7.218,3.348,14.052,4.347,21.2.822,5.88,2.743,11.794-.6,17.661-.885,1.555-.812,3.764-.837,5.677-.038,2.757,1.6,4.18,4.26,3.537,5.632-1.36,10.937,0,16.4,1.141,6.466,1.352,12.973,1.251,19.659-2.071-5.307-1.206-10.06-2.191-14.762-3.38-4.617-1.167-8.937-3.064-10.931-7.772-1.7-4.024-3.218-8.19-3.175-12.681.146-14.951.351-29.9.463-44.853a25.493,25.493,0,0,1,2.278-11.26,18.863,18.863,0,0,0,1.326-11.733,56.57,56.57,0,0,1-.664-7.691c-.666-16.786.747-33.53,1.906-50.225,1.141-16.461,2.656-32.9,3.045-49.4.138-5.89.491-11.932-1.811-17.6-2.915-7.171-4.495-14.772-7.457-21.955-3.115-7.557-2.371-8.286,5.252-11.041,3.037-1.1,6.627-1.9,7.313-6.024,1.553-9.323.639-18.27-4.262-26.534a15.429,15.429,0,0,0-7.163-6.817c-6-2.514-11.759-1.978-16.7,2.241a16.458,16.458,0,0,0-5.748,16.7c1.376,6.259,2.861,12.677,7.268,17.722,3.1,3.547,2.15,6.68-.329,9.979-8.345,11.11-11.469,23.5-8.85,37.219a29.956,29.956,0,0,0,2.838,9.337c.4-9.035-.418-17.022,1.188-25.153,2.248,1.019,2.136,2.144,2.095,3.135-.343,8.239.558,16.5-.587,24.733a29.781,29.781,0,0,0,.15,10.4c2.733,12.752,5.794,25.388,12.072,36.981.7,1.295,1.206,2.55-.169,3.835-2.1,1.961-2.057,4.58-1.088,6.836,1.452,3.378,1.7,6.809,1.244,11.2,3.912-5.48,7.679-10.034,5.847-16.49-1.139-4.014-1.224-8.129-1.5-12.249-.788-11.92-.095-24.022-4.5-35.517-1.263-3.295-.895-6.812-.355-10.322,1.1-7.124,1.307-14.36,2.672-21.468a20.105,20.105,0,0,0-.134-6.933c-1.092-6.617-6.655-9.238-12.23-5.9-.77.461-1.505,1.279-2.345.333-.985-1.113,0-1.882.707-2.6,2.9-2.926,9.431-2.587,12.75.518,4.946,4.627,5.39,10.535,4.1,16.474-1.59,7.356-1.547,14.856-2.749,22.231a19.3,19.3,0,0,0,1.312,9.881,53.379,53.379,0,0,1,2.775,13.207c1.222,11.648.333,23.421,2.534,35.047,1.015,5.356-1.874,10.387-4.7,14.807-1.052,1.644-3.309,4.383-5.975,3.123-2.625-1.241-1.415-4.057-.97-6.255a10.768,10.768,0,0,0-.579-6.42c-1.34-3.315-2.061-6.706.227-9.961a2.253,2.253,0,0,0,.229-2.509C567.291,788.238,563.432,780.407,561.44,771.675Z" transform="translate(-551.475 -647.837)" fill="#ba68c8"/>
  </g>
  <g id="Grupo_15335" data-name="Grupo 15335" transform="translate(0 3.326)">
    <path id="Trazado_24413" data-name="Trazado 24413" d="M555.954,698.925a8.42,8.42,0,0,0-1.074,6.647c1.933,7.678,1.764,15.609,2.9,23.389,1.078,7.4-.8,14.679-2.5,21.8-2.55,10.643-5.508,21.2-8.669,31.682-5.252,17.409-10.157,34.906-14.088,52.657-1.251,5.652-1.931,11.437-2.694,17.186-.465,3.52-1.289,7.006-3.291,9.82-4.04,5.685-5.289,12.245-6.706,18.774-2.619,12.076-5.687,24.1-7.441,36.309-1.614,11.229.236,10.322,10.4,14.539,4.038,1.677,8.032,1.517,12.123,3.084,1.531.585,2.991,1.291,2.765,3.2-.231,1.939-1.907,2.268-3.484,2.416-8.584.8-17,4.373-24.913.378-3.484-1.76-7.11,1.141-11.093.924-6.584-.359-8.32-3.049-6.649-9.477a6.255,6.255,0,0,1,.737-2.185c6.01-7.981,5.275-17.294,4.838-26.353a88.743,88.743,0,0,1,5.638-36.792,9.141,9.141,0,0,1,1.042-2.481c6.749-8.33,5.606-18.414,6.276-28.075.865-12.506-2.67-24.548-4.126-36.805-1.167-9.806,1.787-18.019,7.863-25.413,3.973-4.834,6.381-10.237,6.383-16.6,0-3.859.568-7.776.085-11.568-2.493-19.586,2.25-36.594,17.272-50.054,1.906-1.708,2.057-3.228.946-5.331-3.441-6.5-3.711-13.668-3.768-20.745-.075-9.423,7.794-17.755,17.259-18.9,9.2-1.107,17.389,4.694,20.169,13.875,2.954,9.757,1.6,19.123-1.854,28.4a6.589,6.589,0,0,1-4.322,4.1A24.185,24.185,0,0,1,555.954,698.925Z" transform="translate(-490.939 -650.812)" fill="#7138be"/>
    <path id="Trazado_24414" data-name="Trazado 24414" d="M519.077,768.656c-1.49,3.441-4.365,5.571-6.4,8.328-7.352,9.938-6.2,21.064-3.722,31.973,2.808,12.4,2.987,24.806,1.9,37.3-.392,4.5.28,9.278-2.767,13.39-6.46,8.726-8.2,19.052-9.38,29.482-.818,7.2.428,14.439-.043,21.645-.386,5.924.294,12.106-4.164,17.172-1.182,1.344-1.559,3.522-1.973,5.39-.6,2.694.719,4.418,3.455,4.329,5.792-.191,10.712-1.726,15.824.5,6.058,2.637,12.448-.083,19.671-1.98-4.952-2.256-9.406-2.215-13.771-4.333-4.284-2.077-8.129-2.842-9.126-7.857-.853-4.286-1.492-4.731-.538-9.12,3.175-14.61,6.408-29.209,9.55-43.827a25.531,25.531,0,0,1,4.515-10.565,18.837,18.837,0,0,0,3.677-11.221,56.746,56.746,0,0,1,.91-7.666c2.753-16.573,7.532-32.681,12.052-48.794,4.456-15.887,9.274-31.678,13-47.758,1.33-5.739,2.9-11.585,1.8-17.6-1.4-7.612-1.407-15.377-2.85-23.011-1.517-8.03-.64-8.594,7.382-9.747,3.2-.459,6.876-.516,8.383-4.414,3.411-8.816,4.329-17.761,1.206-26.85a15.431,15.431,0,0,0-5.632-8.127c-5.362-3.679-11.11-4.321-16.809-1.194A16.456,16.456,0,0,0,536.2,669.29c.075,6.408.231,12.992,3.521,18.827,2.314,4.1.751,6.978-2.345,9.705-10.427,9.187-16,20.686-16.216,34.649a30.005,30.005,0,0,0,.885,9.719c2.229-8.763,3.045-16.752,6.267-24.389,1.994,1.454,1.655,2.532,1.413,3.494-2,8-2.8,16.267-5.589,24.1a29.782,29.782,0,0,0-1.963,10.21c.091,13.042.524,26.036,4.322,38.66.424,1.411.664,2.743-.944,3.721-2.455,1.494-2.944,4.069-2.451,6.475.737,3.6.284,7.01-1.054,11.221,4.942-4.572,9.556-8.267,9.071-14.961-.3-4.162.447-8.208,1.017-12.3,1.646-11.833,4.781-23.543,2.8-35.692-.568-3.482.506-6.852,1.746-10.178,2.519-6.755,4.192-13.8,6.972-20.481a20.173,20.173,0,0,0,1.275-6.816c.272-6.7-4.643-10.395-10.779-8.261-.847.3-1.734.948-2.365-.15-.739-1.289.378-1.843,1.22-2.4,3.439-2.276,9.761-.619,12.381,3.094,3.9,5.534,3.141,11.408.678,16.965-3.049,6.881-4.529,14.234-7.2,21.21a19.3,19.3,0,0,0-.719,9.942,53.318,53.318,0,0,1,.039,13.495c-1.167,11.656-4.424,23-4.625,34.835-.095,5.451-3.943,9.79-7.609,13.544-1.366,1.4-4.13,3.622-6.485,1.849-2.319-1.748-.564-4.261.319-6.322a10.785,10.785,0,0,0,.733-6.4c-.639-3.518-.658-6.984,2.242-9.707a2.256,2.256,0,0,0,.733-2.41C521.447,786.061,519.258,777.611,519.077,768.656Z" transform="translate(-489.541 -649.561)" fill="#ba68c8"/>
  </g>
  <g id="Grupo_15339" data-name="Grupo 15339" transform="translate(16.2 3.326)">
    <g id="Grupo_15336" data-name="Grupo 15336" transform="translate(0)">
      <rect id="Rectángulo_3726" data-name="Rectángulo 3726" width="3.941" height="4.927" fill="#ffd54f"/>
    </g>
    <g id="Grupo_15337" data-name="Grupo 15337" transform="translate(0 14.934)">
      <path id="Trazado_24415" data-name="Trazado 24415" d="M503.1,908.572H499.16V898.565H503.1Zm0-20.016H499.16V878.55H503.1Zm0-20.016H499.16V858.534H503.1Zm0-20.014H499.16V838.52H503.1Zm0-20.014H499.16V818.507H503.1Zm0-20.016H499.16V798.491H503.1Zm0-20.016H499.16V778.476H503.1Zm0-20.014H499.16V758.462H503.1Zm0-20.014H499.16V738.448H503.1Zm0-20.014H499.16V718.433H503.1Zm0-20.015H499.16V698.417H503.1Zm0-20.016H499.16V678.4H503.1Zm0-20.014H499.16V658.39H503.1Z" transform="translate(-499.16 -658.39)" fill="#ffd54f"/>
    </g>
    <g id="Grupo_15338" data-name="Grupo 15338" transform="translate(0 275.123)">
      <rect id="Rectángulo_3727" data-name="Rectángulo 3727" width="3.941" height="4.927" fill="#ffd54f"/>
    </g>
  </g>
  <g id="Grupo_15343" data-name="Grupo 15343" transform="translate(142.951 3.326)">
    <g id="Grupo_15340" data-name="Grupo 15340">
      <rect id="Rectángulo_3728" data-name="Rectángulo 3728" width="3.941" height="4.927" fill="#ffd54f"/>
    </g>
    <g id="Grupo_15341" data-name="Grupo 15341" transform="translate(0 14.934)">
      <path id="Trazado_24416" data-name="Trazado 24416" d="M567.421,908.572H563.48V898.565h3.941Zm0-20.016H563.48V878.55h3.941Zm0-20.016H563.48V858.534h3.941Zm0-20.014H563.48V838.52h3.941Zm0-20.014H563.48V818.507h3.941Zm0-20.016H563.48V798.491h3.941Zm0-20.016H563.48V778.476h3.941Zm0-20.014H563.48V758.462h3.941Zm0-20.014H563.48V738.448h3.941Zm0-20.014H563.48V718.433h3.941Zm0-20.015H563.48V698.417h3.941Zm0-20.016H563.48V678.4h3.941Zm0-20.014H563.48V658.39h3.941Z" transform="translate(-563.48 -658.39)" fill="#ffd54f"/>
    </g>
    <g id="Grupo_15342" data-name="Grupo 15342" transform="translate(0 275.123)">
      <rect id="Rectángulo_3729" data-name="Rectángulo 3729" width="3.941" height="4.927" fill="#ffd54f"/>
    </g>
  </g>
</svg>
