<svg xmlns="http://www.w3.org/2000/svg" width="274" height="274" viewBox="0 0 274 274">
  <g id="Grupo_1054471" data-name="Grupo 1054471" transform="translate(-193 -2196.587)">
    <circle id="Elipse_4749" data-name="Elipse 4749" cx="137" cy="137" r="137" transform="translate(193 2196.587)" fill="#fff"/>
    <path id="Trazado_21081" data-name="Trazado 21081" d="M1457.458,1021.958a20.463,20.463,0,0,1-4.973-4.618,13.421,13.421,0,0,0-5.615-3.831,4.951,4.951,0,0,1-1.131-.53c-.7-.5-.817-1.533-1.009-2.316s-.337-1.558-.543-2.326a31.587,31.587,0,0,1-.8-8.135c0-9.765-2.006-18.193-3.076-20.467s-1.738-4.013-2.988-13.243,1.159-7.714,0-18.862-9.721-13.111-13.555-14-11.683-4.124-13.2-5.283c-.747-.572-.865-3.481-.795-6.283a18.549,18.549,0,0,0,2.2-6.247c.185.235.569.668.917.694.477.037,1.174-1.468,1.394-2.276a12.656,12.656,0,0,0,.183-4.587c-.329-1.028-1.1-.22-1.357.183a1.421,1.421,0,0,1-.492.4c.071-1.359.139-2.718.337-4.067a15.98,15.98,0,0,0-.691-7.782c-1.9-5.413-9.327-5.791-10.356-5.818h0c-1.031.027-8.455.4-10.357,5.818a15.977,15.977,0,0,0-.69,7.782c.2,1.35.266,2.709.337,4.067a1.419,1.419,0,0,1-.492-.4c-.257-.4-1.028-1.211-1.359-.183a12.693,12.693,0,0,0,.185,4.587c.22.808.917,2.313,1.395,2.276.348-.027.732-.459.917-.694a18.549,18.549,0,0,0,2.2,6.247c.071,2.8-.047,5.711-.795,6.283-1.517,1.159-9.365,4.392-13.2,5.283s-12.4,2.855-13.557,14,1.249,9.631,0,18.862-1.917,10.969-2.986,13.243-3.078,10.7-3.078,20.467a31.618,31.618,0,0,1-.8,8.135c-.208.768-.356,1.554-.544,2.326s-.309,1.817-1.009,2.316a4.962,4.962,0,0,1-1.133.53,13.428,13.428,0,0,0-5.614,3.831,20.482,20.482,0,0,1-4.973,4.618c-1.145.8-.771,2.831,1.843,2.237s4.344-3.909,4.988-3.713-.715,5.107-1.254,6.764-1.063,3.646-1.408,4.66-.722,2.882.046,3.917,1.858-.3,2.613-2.964,2.31-7.421,2.31-7.421-.857,4.014-1.487,6.447-2.263,5.538-.87,6.711c.734.616,1.6-.168,2.088-1.342s1.1-3.165,1.145-3.357c.461-1.984,1.816-7.441,1.816-7.441s-.876,4.574-1.391,6.743a22.422,22.422,0,0,0-.96,3.769,1.038,1.038,0,0,0,1.407,1.052c.719-.214,1.359-1.833,1.78-3.549.433-1.758,1.083-4.953,1.474-6.457.149-.57.4-1.134.382-.706-.035.927-.756,3.463-.991,4.731-.3,1.607-.242,2.743.515,2.836.476.059.894-.061,1.3-.765a22.222,22.222,0,0,0,1.264-4.443c.542-2.437,1.289-4.679,1.6-6.869s.768-6.662,1.1-8.129,1.028-3.379,1.028-3.379l-.049-.006c1.329-4.121,4.537-14.017,6.615-20.043,2.675-7.76,1.738-10.434,2.14-13.78.26-2.17,2.546-7.6,4.195-13.421,2.494,5.225,5.06,12.922,3.522,20.511-2.7,13.335-1.858,9.452-2.7,13.335a110.032,110.032,0,0,0-2.294,12.858c-.945,9.78-1.679,19.684-.127,29.366.566,3.531,2.62,23.978,2.491,24.687-.484,2.664-2.059,8.234-2.664,11.382s-.3,7.872-.056,16.471,1.332,15.258,1.7,19.981c.312,4.054-.284,14.419-.458,17.272a5.66,5.66,0,0,1-.285,1.467,27.882,27.882,0,0,1-1.56,3.788,50.657,50.657,0,0,1-4.8,7.432c-.907.906-2.367,3.094-1,3.717.481.219.725.01.725.01a1.529,1.529,0,0,0,.567,1.678,1.688,1.688,0,0,0,.793.124,1.519,1.519,0,0,0,2.038,1.224s.345,1.214,1.4,1.269a2.37,2.37,0,0,0,1.018-.126c.3-.118.625-.459.982-1.3a1.417,1.417,0,0,0,1.068,1.608,2.969,2.969,0,0,0,3.74-1.812c.815-1.722.725-2.04,1.4-3.536s.364-5.392.861-6.978,1.949-2.13,2.085-3.444a18.009,18.009,0,0,0-.071-3.717c.031-.009.094-5.928.094-5.928l.171-2.641a98.873,98.873,0,0,1,1.536-12.165c1.289-6.747,3.079-17.925,3.622-24.7.726-9.083,1.574-16.713,2.059-18.165l.089-.273a87.009,87.009,0,0,0,3.741-17.091c.208-1.834.4-3.859.55-6.035.658-9.551.359-14.75,2.068-15,1.709.248,1.409,5.447,2.068,15,.149,2.175.341,4.2.55,6.035a87.009,87.009,0,0,0,3.741,17.091c.037.115.068.208.089.273.484,1.452,1.332,9.082,2.059,18.165.542,6.778,2.333,17.956,3.622,24.7a98.873,98.873,0,0,1,1.536,12.165l.171,2.641s.063,5.919.094,5.928a18.026,18.026,0,0,0-.071,3.717c.136,1.314,1.586,1.858,2.085,3.444s.182,5.484.861,6.978.589,1.813,1.4,3.536a2.968,2.968,0,0,0,3.74,1.812,1.417,1.417,0,0,0,1.068-1.608c.357.843.685,1.185.982,1.3a2.365,2.365,0,0,0,1.016.126c1.053-.055,1.4-1.269,1.4-1.269a1.52,1.52,0,0,0,2.04-1.224,1.69,1.69,0,0,0,.793-.124,1.529,1.529,0,0,0,.567-1.678s.244.208.725-.01c1.371-.623-.092-2.811-1-3.717a50.636,50.636,0,0,1-4.8-7.432,28.062,28.062,0,0,1-1.561-3.788,5.709,5.709,0,0,1-.284-1.467c-.174-2.853-.77-13.218-.458-17.272.364-4.723,1.453-11.383,1.7-19.981s.55-13.322-.056-16.471-2.18-8.718-2.664-11.382c-.128-.709,1.926-21.156,2.491-24.687,1.552-9.681.818-19.585-.127-29.366a110.032,110.032,0,0,0-2.294-12.858c-.845-3.883,0,0-2.7-13.335-1.538-7.59,1.028-15.286,3.522-20.511,1.647,5.816,3.934,11.251,4.194,13.421.4,3.345-.535,6.02,2.14,13.78,2.078,6.026,5.286,15.923,6.614,20.043l-.047.006s.689,1.914,1.026,3.379.792,5.94,1.1,8.129,1.062,4.432,1.6,6.869a22.188,22.188,0,0,0,1.265,4.443c.407.7.825.824,1.3.765.756-.093.812-1.229.514-2.836-.233-1.267-.954-3.8-.99-4.731-.018-.428.234.136.381.706.393,1.5,1.042,4.7,1.474,6.457.422,1.716,1.062,3.335,1.781,3.549a1.038,1.038,0,0,0,1.407-1.052,22.469,22.469,0,0,0-.96-3.769c-.516-2.169-1.391-6.743-1.391-6.743s1.356,5.457,1.816,7.441c.044.192.653,2.17,1.145,3.357s1.354,1.958,2.088,1.342c1.393-1.173-.239-4.28-.87-6.711s-1.487-6.447-1.487-6.447,1.554,4.757,2.308,7.421,1.848,4,2.614,2.964.388-2.9.046-3.917-.869-3-1.408-4.66-1.9-6.569-1.254-6.764,2.372,3.119,4.986,3.713S1458.6,1022.759,1457.458,1021.958Z" transform="translate(-1071.748 1312.026)" fill="#895cd8"/>
  </g>
</svg>
