<svg xmlns="http://www.w3.org/2000/svg" width="274" height="274" viewBox="0 0 274 274">
  <g id="Grupo_1054473" data-name="Grupo 1054473" transform="translate(-201 -2507.587)">
    <g id="Grupo_1054472" data-name="Grupo 1054472" transform="translate(8 311)">
      <circle id="Elipse_4749" data-name="Elipse 4749" cx="137" cy="137" r="137" transform="translate(193 2196.587)" fill="#fff"/>
    </g>
    <path id="Trazado_21082" data-name="Trazado 21082" d="M1506.592,1020.589c-.117-5.534-.483-11.067-.345-16.6.121-4.87.392-9.533-1.2-14.1a44.565,44.565,0,0,1-2.063-10.922c-.314-9.313.576-18.643.171-27.951-.3-6.967,1.794-14.967-9.027-15.824-11.022-3.974-13.6-8.074-14.051-12.206,0-.27,0-.533,0-.8,1.171-1.8,3.254-4.173,3.68-6.248.186.234.568.669.917.7.477.037,1.174-1.468,1.395-2.275a12.669,12.669,0,0,0,.182-4.589c-.33-1.028-1.1-.221-1.358.183a1.394,1.394,0,0,1-.492.4c.072-1.359.14-2.717.337-4.067a15.993,15.993,0,0,0-.69-7.782c-1.9-5.412-9.328-5.79-10.357-5.817h0c-1.031.026-8.454.4-10.357,5.817a15.99,15.99,0,0,0-.691,7.782c.2,1.35.265,2.708.337,4.067a1.383,1.383,0,0,1-.492-.4c-.258-.4-1.028-1.211-1.359-.183a12.692,12.692,0,0,0,.184,4.589c.221.807.917,2.312,1.395,2.275.349-.026.732-.461.917-.7.425,2.075,2.509,4.449,3.68,6.248.006.267,0,.529,0,.8-.452,4.134-3.023,8.236-14.052,12.214-10.823.857-8.727,8.858-9.028,15.824-.405,9.308.484,18.638.172,27.951a44.649,44.649,0,0,1-2.064,10.922c-1.595,4.569-1.326,9.233-1.2,14.1.138,5.533-.23,11.065-.344,16.6-.86,4.5-2.272,9.193-3.132,13.693.224,2.4,1.45,3.977,2.187,5.656q2.151,1.8,4.3,3.611.945.948,1.891,1.894a2.082,2.082,0,0,0-.429-2.322c-.786-1.081-1.375-2.293-2.063-3.44q-.131-2.279-.259-4.559c.1-1.77.722-3.238,1.377-2.493.76.864.362,1.987.735,3.076-.886,1.967-.88,3.805-.134,4.75q1.16-2.538,2.322-5.075a70.634,70.634,0,0,0-1.023-7.292c-.355-1.842-1.29-3.483-1.116-5.639a66.893,66.893,0,0,1,1.366-9.344c1.671-7.634,6.423-16.117,5.5-22.791-1.154-8.361,1.076-20.24,1.031-29.069,1.06,5.992,2.1,11.988,3.182,17.974.818,4.5.948,8.928-1.033,12.987-5.353,10.965-8.013,22.153-6.535,33.369,1.713,12.969,5.8,29.923,7.912,42.834a23.417,23.417,0,0,1-.259,8.428c-4.137,20.031,7.613,39.371,9.373,59.422a2.856,2.856,0,0,0-.6,3.269c-1.25,4.515-1.383,4.164-3.478,6.3-1.769,1.8-1.682,2-1.805,2.671-1.23,1.43.714,1.493,1.109,1.317a1.266,1.266,0,0,0,1.745.346c.063.683,1.462.745,2.179.355.221.592,2.056.593,2.37-.127.169,1.11,3.967.886,3.955-.545,1.365-.227.866-2.91.8-4.863q.151-5.767.3-11.531c-1.04-11.09-.7-21.874-.505-32.688-.3-6.743-.359-9.108-.9-15.836a49.367,49.367,0,0,1,.377-10.676c.389-2.939.4-5.915.6-8.874.639-12.172.891-28.785-.075-41.16a6.175,6.175,0,0,0,1.617.177,6.276,6.276,0,0,0,1.653-.177c-.964,12.376-.714,28.988-.073,41.16.2,2.958.211,5.934.6,8.874a49.346,49.346,0,0,1,.375,10.676c-.543,6.728-.6,9.093-.9,15.836.2,10.814.535,21.6-.505,32.688q.151,5.765.3,11.531c-.063,1.953-.564,4.636.8,4.863-.013,1.431,3.783,1.655,3.955.545.314.72,2.148.718,2.368.127.719.39,2.116.328,2.181-.355a1.264,1.264,0,0,0,1.743-.346c.395.177,2.338.113,1.109-1.317-.122-.673-.035-.867-1.805-2.671-2.1-2.134-2.227-1.783-3.478-6.3a2.854,2.854,0,0,0-.6-3.269c1.76-20.051,13.511-39.39,9.375-59.422a23.346,23.346,0,0,1-.259-8.428c2.107-12.911,6.2-29.865,7.909-42.834,1.48-11.215-1.18-22.4-6.534-33.369-1.982-4.058-1.848-8.484-1.031-12.987,1.085-5.986,2.12-11.983,3.182-17.974-.046,8.828,2.184,20.708,1.029,29.069-.92,6.674,3.833,15.158,5.5,22.791a66.692,66.692,0,0,1,1.365,9.344c.175,2.156-.76,3.8-1.116,5.639a71.409,71.409,0,0,0-1.024,7.292q1.162,2.536,2.322,5.075c.747-.945.754-2.783-.133-4.75.373-1.09-.026-2.212.733-3.076.655-.745,1.275.723,1.377,2.493q-.128,2.282-.258,4.559c-.689,1.147-1.278,2.359-2.063,3.44a2.084,2.084,0,0,0-.431,2.322l1.892-1.894,4.3-3.611c.737-1.679,1.964-3.259,2.188-5.656C1508.864,1029.782,1507.45,1025.089,1506.592,1020.589Z" transform="translate(-1135.656 1621.907)" fill="#ffd54f"/>
  </g>
</svg>
