<svg xmlns="http://www.w3.org/2000/svg" width="563.524" height="264.451" viewBox="0 0 563.524 264.451">
  <g id="Grupo_1069677" data-name="Grupo 1069677" transform="translate(-816 -9165.587)">
    <g id="Grupo_1069676" data-name="Grupo 1069676">
      <g id="Grupo_1069675" data-name="Grupo 1069675">
        <g id="Grupo_1069674" data-name="Grupo 1069674">
          <g id="Grupo_1054564" data-name="Grupo 1054564" transform="translate(37 -5.864)">
            <path id="Trazado_816194" data-name="Trazado 816194" d="M2.939,11.493V15H.889V5.047H4.771a4.492,4.492,0,0,1,1.972.41A3.022,3.022,0,0,1,8.053,6.623a3.25,3.25,0,0,1,.458,1.719,2.858,2.858,0,0,1-1,2.307,4.171,4.171,0,0,1-2.772.844Zm0-1.661H4.771a1.8,1.8,0,0,0,1.241-.383,1.392,1.392,0,0,0,.427-1.094,1.642,1.642,0,0,0-.431-1.183,1.609,1.609,0,0,0-1.189-.465H2.939Zm6.453,1.4a4.387,4.387,0,0,1,.424-1.962,3.1,3.1,0,0,1,1.22-1.333,3.56,3.56,0,0,1,1.849-.472,3.368,3.368,0,0,1,2.444.916,3.676,3.676,0,0,1,1.056,2.488l.014.506a3.866,3.866,0,0,1-.95,2.731,3.3,3.3,0,0,1-2.55,1.029,3.319,3.319,0,0,1-2.553-1.025,3.934,3.934,0,0,1-.954-2.789Zm1.976.144a2.757,2.757,0,0,0,.4,1.61,1.426,1.426,0,0,0,2.256.007,3.017,3.017,0,0,0,.4-1.76,2.73,2.73,0,0,0-.4-1.6,1.312,1.312,0,0,0-1.135-.567,1.29,1.29,0,0,0-1.121.564A3.068,3.068,0,0,0,11.368,11.377Zm10.254,1.579a.637.637,0,0,0-.359-.571,4.077,4.077,0,0,0-1.152-.373q-2.639-.554-2.639-2.242a2.032,2.032,0,0,1,.817-1.644,3.3,3.3,0,0,1,2.136-.66,3.547,3.547,0,0,1,2.252.663,2.09,2.09,0,0,1,.844,1.723H21.547a.956.956,0,0,0-.273-.7,1.157,1.157,0,0,0-.854-.277,1.182,1.182,0,0,0-.772.226.712.712,0,0,0-.273.574.609.609,0,0,0,.311.53,3.2,3.2,0,0,0,1.049.349,8.571,8.571,0,0,1,1.244.332,2.044,2.044,0,0,1,1.565,1.989,1.929,1.929,0,0,1-.868,1.637,3.745,3.745,0,0,1-2.242.625,3.912,3.912,0,0,1-1.651-.332A2.77,2.77,0,0,1,17.65,13.9a2.113,2.113,0,0,1-.41-1.248h1.873a1.031,1.031,0,0,0,.39.807,1.546,1.546,0,0,0,.971.28,1.43,1.43,0,0,0,.858-.215A.67.67,0,0,0,21.622,12.956ZM27.18,5.785V7.6h1.265V9.053H27.18v3.691a.881.881,0,0,0,.157.588.79.79,0,0,0,.6.178,3.15,3.15,0,0,0,.581-.048v1.5a4.067,4.067,0,0,1-1.2.178,1.886,1.886,0,0,1-2.119-2.1V9.053h-1.08V7.6H25.2V5.785Zm6.795,8.463a2.477,2.477,0,0,1-2.023.889,2.337,2.337,0,0,1-1.815-.684,2.918,2.918,0,0,1-.639-2V7.6h1.976v4.778q0,1.155,1.053,1.155a1.427,1.427,0,0,0,1.381-.7V7.6h1.982V15H34.029Zm7.561-4.792a5.367,5.367,0,0,0-.711-.055,1.447,1.447,0,0,0-1.47.759V15H37.379V7.6h1.866l.055.882a1.831,1.831,0,0,1,1.647-1.019,2.07,2.07,0,0,1,.615.089ZM46.566,15a2.194,2.194,0,0,1-.2-.663,2.39,2.39,0,0,1-1.866.8,2.626,2.626,0,0,1-1.8-.629,2.023,2.023,0,0,1-.714-1.586,2.09,2.09,0,0,1,.872-1.8,4.3,4.3,0,0,1,2.519-.636h.909v-.424a1.219,1.219,0,0,0-.263-.82,1.035,1.035,0,0,0-.831-.308,1.177,1.177,0,0,0-.783.239.813.813,0,0,0-.284.656H42.15a1.984,1.984,0,0,1,.4-1.189,2.621,2.621,0,0,1,1.121-.858,4.086,4.086,0,0,1,1.627-.311,3.228,3.228,0,0,1,2.17.687,2.4,2.4,0,0,1,.8,1.931v3.206a3.536,3.536,0,0,0,.294,1.593V15Zm-1.634-1.374a1.7,1.7,0,0,0,.807-.195,1.28,1.28,0,0,0,.547-.523V11.637h-.738q-1.483,0-1.579,1.025l-.007.116a.791.791,0,0,0,.26.608A1.009,1.009,0,0,0,44.933,13.626Zm11.416-.082a1.3,1.3,0,0,0,.889-.3,1.054,1.054,0,0,0,.355-.8h1.853a2.534,2.534,0,0,1-.41,1.377,2.706,2.706,0,0,1-1.1.971,3.455,3.455,0,0,1-1.548.345,3.211,3.211,0,0,1-2.5-1.008,3.99,3.99,0,0,1-.916-2.786v-.13a3.944,3.944,0,0,1,.909-2.728,3.174,3.174,0,0,1,2.5-1.019,3.111,3.111,0,0,1,2.225.79,2.8,2.8,0,0,1,.851,2.1H57.593a1.346,1.346,0,0,0-.355-.933,1.324,1.324,0,0,0-1.945.144,2.908,2.908,0,0,0-.352,1.63V11.4a2.945,2.945,0,0,0,.349,1.641A1.205,1.205,0,0,0,56.349,13.544Zm3.917-2.311a4.387,4.387,0,0,1,.424-1.962,3.1,3.1,0,0,1,1.22-1.333,3.56,3.56,0,0,1,1.849-.472,3.368,3.368,0,0,1,2.444.916,3.676,3.676,0,0,1,1.056,2.488l.014.506a3.866,3.866,0,0,1-.95,2.731,3.683,3.683,0,0,1-5.1,0,3.934,3.934,0,0,1-.954-2.789Zm1.976.144a2.757,2.757,0,0,0,.4,1.61,1.426,1.426,0,0,0,2.256.007,3.017,3.017,0,0,0,.4-1.76,2.73,2.73,0,0,0-.4-1.6,1.312,1.312,0,0,0-1.135-.567,1.29,1.29,0,0,0-1.121.564A3.068,3.068,0,0,0,62.241,11.377Zm10.4-1.921a5.367,5.367,0,0,0-.711-.055,1.447,1.447,0,0,0-1.47.759V15H68.489V7.6h1.866l.055.882a1.831,1.831,0,0,1,1.647-1.019,2.07,2.07,0,0,1,.615.089Zm5.106,0a5.367,5.367,0,0,0-.711-.055,1.447,1.447,0,0,0-1.47.759V15H73.6V7.6h1.866l.055.882a1.831,1.831,0,0,1,1.647-1.019,2.07,2.07,0,0,1,.615.089Zm4.354,5.681a3.631,3.631,0,0,1-2.649-1,3.548,3.548,0,0,1-1.022-2.659v-.191A4.468,4.468,0,0,1,78.866,9.3a3.161,3.161,0,0,1,1.22-1.354,3.425,3.425,0,0,1,1.8-.475,3.07,3.07,0,0,1,2.389.957,3.889,3.889,0,0,1,.872,2.714v.807h-4.71a1.835,1.835,0,0,0,.578,1.162,1.746,1.746,0,0,0,1.22.438,2.132,2.132,0,0,0,1.784-.827l.971,1.087a2.966,2.966,0,0,1-1.2.981A3.947,3.947,0,0,1,82.106,15.137Zm-.226-6.07a1.237,1.237,0,0,0-.954.4,2.048,2.048,0,0,0-.468,1.135h2.748V10.44a1.46,1.46,0,0,0-.355-1.015A1.277,1.277,0,0,0,81.881,9.066Zm7.465,4.478a1.3,1.3,0,0,0,.889-.3,1.054,1.054,0,0,0,.355-.8h1.853a2.534,2.534,0,0,1-.41,1.377,2.706,2.706,0,0,1-1.1.971,3.455,3.455,0,0,1-1.548.345,3.211,3.211,0,0,1-2.5-1.008,3.99,3.99,0,0,1-.916-2.786v-.13a3.944,3.944,0,0,1,.909-2.728,3.174,3.174,0,0,1,2.5-1.019,3.111,3.111,0,0,1,2.225.79,2.8,2.8,0,0,1,.851,2.1H90.59a1.346,1.346,0,0,0-.355-.933,1.324,1.324,0,0,0-1.945.144,2.908,2.908,0,0,0-.352,1.63V11.4a2.945,2.945,0,0,0,.349,1.641A1.205,1.205,0,0,0,89.346,13.544Zm6.59-7.759V7.6H97.2V9.053H95.936v3.691a.881.881,0,0,0,.157.588.79.79,0,0,0,.6.178,3.15,3.15,0,0,0,.581-.048v1.5a4.067,4.067,0,0,1-1.2.178,1.886,1.886,0,0,1-2.119-2.1V9.053H92.88V7.6h1.08V5.785ZM102.587,15a2.194,2.194,0,0,1-.2-.663,2.39,2.39,0,0,1-1.866.8,2.626,2.626,0,0,1-1.8-.629,2.023,2.023,0,0,1-.714-1.586,2.09,2.09,0,0,1,.872-1.8,4.3,4.3,0,0,1,2.519-.636h.909v-.424a1.219,1.219,0,0,0-.263-.82,1.035,1.035,0,0,0-.831-.308,1.177,1.177,0,0,0-.783.239.813.813,0,0,0-.284.656H98.171a1.985,1.985,0,0,1,.4-1.189,2.621,2.621,0,0,1,1.121-.858,4.086,4.086,0,0,1,1.627-.311,3.228,3.228,0,0,1,2.17.687,2.4,2.4,0,0,1,.8,1.931v3.206a3.536,3.536,0,0,0,.294,1.593V15Zm-1.634-1.374a1.7,1.7,0,0,0,.807-.195,1.28,1.28,0,0,0,.547-.523V11.637h-.738q-1.483,0-1.579,1.025l-.007.116a.791.791,0,0,0,.26.608A1.009,1.009,0,0,0,100.953,13.626Z" transform="translate(836 9420.766)" fill="#12263f"/>
            <g id="Grupo_6563" data-name="Grupo 6563" transform="translate(383.6 9278.212)">
              <g id="Grupo_6558" data-name="Grupo 6558" transform="translate(553.212 -106.525)">
                <g id="Grupo_6556" data-name="Grupo 6556">
                  <path id="Trazado_22089" data-name="Trazado 22089" d="M502.184-48.978h-15.59c.28,4.16.53,8.543.02,9.73-.748,1.744-10.6,12.6-13.542,22.909s-3.446,26.4-7.721,33.934-5.1,6.9-5.232,10.846,18.693,1.634,18.693,1.634-4.575-5.3-2.845-10.039c.927-2.536,5.786-16.762,11.3-29.355a156.535,156.535,0,0,1,10.883-21.055c3.22-4.511,5.919-5.134,5.487-10.086A71.933,71.933,0,0,0,502.184-48.978Z" transform="translate(-459.191 190.471)" fill="#ff926d"/>
                  <path id="Trazado_22090" data-name="Trazado 22090" d="M480.164-68.416s-7.027,11.778-7.881,22.261c-1.261,15.44-1.317,27.486-1.317,27.486s.12.571,6.284,2.249,9.929,1.042,9.929,1.042l8.742-26.534Z" transform="translate(-443.431 162.232)" fill="#5b1282"/>
                  <path id="Trazado_22091" data-name="Trazado 22091" d="M481.426-87.511c-4.785.26-5.946,5.968-4.03,10.633s12.4,27.545,13.637,30.594,2.585,6.436,9.433,14.94c2.323,2.882,7.753,8.057,9.134,11.15,1.6,3.6,1.653,6.291,3.581,10.608,1.03,2.313,5.259,4.253,8.322,3.922s.024-7.15-2.374-10.846c-3.78-5.825-9.35-16.443-11.109-19.654-5.131-9.365-8.175-11.587-8.938-14.231-1.791-6.188-5.286-25.693-9.149-30.871S484.728-87.693,481.426-87.511Z" transform="translate(-435.366 134.466)" fill="#ff926d"/>
                  <path id="Trazado_22092" data-name="Trazado 22092" d="M473.357-51.961c-.115,4.1,8.857,25.22,11.037,29.387s2.384,4.31,2.441,6.206S485.9-.094,487.588,10.5s8.133,24.459,7.439,33.1-1.712,8.408-.169,12.041,15.715-4.947,15.715-4.947-5.538-5.354-5.97-10.38-1.337-51.619-1.486-56.473-6.009-31.788-7.994-38.224S473.833-68.824,473.357-51.961Z" transform="translate(-439.96 171.506)" fill="#ff926d"/>
                  <g id="Grupo_6555" data-name="Grupo 6555" transform="translate(22.709)">
                    <path id="Trazado_22093" data-name="Trazado 22093" d="M478.857-92.845a43.9,43.9,0,0,1-.417,6.576,37.33,37.33,0,0,1-1.56,6.088s4.05,3.211,7.375,3.934a25.587,25.587,0,0,0,4.938.714s-.635-6.049-.635-8.1a61.276,61.276,0,0,1,.78-6.726l-8.987-6.2Z" transform="translate(-457.548 121.336)" fill="#ff926d"/>
                    <path id="Trazado_22094" data-name="Trazado 22094" d="M496.63-103.858s1.974,4.643,2.747,6.61,1.273,3.162.552,4.783c-.5,1.118-1.366,2.36-.466,3.983.731,1.325,2.519,3.628,3.064,4.476.373.584-1.432,1.185-2.487,2.011s-.6,1.126-.316,1.457c.3.351.51.78-.591,1.234.876.584.731,1.074-.162,1.526-.63.316-.606.7-.422,1.751.226,1.3-.584,1.771-1.943,1.719-3.338-.132-8-1.153-10.917-4.077a23.526,23.526,0,0,1-2.973-3.964s-10.861-6.414-6.183-16.829C479.424-105.615,492.966-108.291,496.63-103.858Z" transform="translate(-459.753 107.564)" fill="#ff926d"/>
                    <path id="Trazado_22095" data-name="Trazado 22095" d="M485.257-103.874s-.513-3.056-6.184-2.772-7.5,6.963-8.509,12.3c-2.244,11.832-1.418,30.657-1.418,30.657H479.9s0-28.9,2.953-31.916a30.356,30.356,0,0,1,2.924-2.669Z" transform="translate(-468.998 106.665)" fill="#004061"/>
                    <path id="Trazado_22096" data-name="Trazado 22096" d="M482.337-104.813a5.572,5.572,0,0,0-6.853,0c-3.544,2.713,0,7.317,0,7.317Z" transform="translate(-461.864 107.603)" fill="#ffd54f"/>
                    <path id="Trazado_22097" data-name="Trazado 22097" d="M484.766-81.459a8.255,8.255,0,0,1-1.4-1.091,3.37,3.37,0,0,1-1.148-2.88c.312-2.826,1.935-2.705,3.284-1.675.871.665.684,1.447,1.565,2.4.5-.243,1.577-.957,1.577-.957a50.7,50.7,0,0,0,.054-5.874c-.191-2.006,2.122-2.781,6.362-3.937a18.523,18.523,0,0,1,6.363-.888s1.253-3.343-3.664-7.447c-3.657-3.054-10.819-4.182-16.772-.714s-7.979,10.792-6.65,16.3c1.521,6.311,8.771,10.032,8.771,10.032Z" transform="translate(-461.803 106.675)" fill="#004061"/>
                    <path id="Trazado_22098" data-name="Trazado 22098" d="M479.62-91.944s10.025-3.331,12.627-3.9,4.773-.866,4.773-.866.385-7.422-6.458-8.406S478.847-95.719,479.62-91.944Z" transform="translate(-453.685 108.821)" fill="#004061"/>
                    <path id="Trazado_22099" data-name="Trazado 22099" d="M480.486-95.519a1.432,1.432,0,0,1-1.15-.461c-.26-.385.024-1.087-.172-1.781-.105-.373-.481-.908-.866-.746a1.008,1.008,0,0,0-.245,1.432.032.032,0,0,0,.054-.015c.054-.287-.012-.694.243-.792s.454.231.49.422c.123.635-.341,1.548.093,2.06.388.451,1.057.341,1.563.211C480.753-95.252,480.721-95.494,480.486-95.519Z" transform="translate(-456.13 118.474)" fill="#ff926d"/>
                  </g>
                  <path id="Trazado_22100" data-name="Trazado 22100" d="M476.892-68.325s-3.444,8.531-3.961,16.277,3,19.522,5.377,25.627S484.3-13.353,484.3-13.353s12.436-1.376,17.5-5.05c-2.779-14.216-2.355-28.928-2.541-35.565A108.527,108.527,0,0,0,497.424-68.9Z" transform="translate(-440.652 161.523)" fill="#7b1fa2"/>
                  <path id="Trazado_22101" data-name="Trazado 22101" d="M475.336-37.843H496.41c-.147-1.327-.233-2.127-.233-2.127s1.214-16.716,1.849-18.133,2.418-3.39,3.544-5.043,2.926-4.332-.388-9.139-7.734-12.953-7.734-12.953a10.267,10.267,0,0,1-4.665-2.271c-2.784-2.107-7.648-2.377-7.648-2.377s-7.187,7.044-7.187,20.753c0,8.33,2.3,29.164,2.3,29.164S475.888-39.172,475.336-37.843Z" transform="translate(-439.096 131.04)" fill="#ffd54f"/>
                  <path id="Trazado_22102" data-name="Trazado 22102" d="M475.317-70.119l-.832,3.672a69.13,69.13,0,0,0,11.089,1.369H495.8l-.4-3.608s-5.487.142-9.826-.015A73.965,73.965,0,0,1,475.317-70.119Z" transform="translate(-438.319 159.757)" fill="#d8aa2a"/>
                  <path id="Trazado_22103" data-name="Trazado 22103" d="M478.361-90.651l-2.09,3.694s4.052,1.221,8.016,2.831a63.733,63.733,0,0,1,8.143,4.2l-2.352-4.2S483.284-89.648,478.361-90.651Z" transform="translate(-435.724 129.929)" fill="#d8aa2a"/>
                  <path id="Trazado_22104" data-name="Trazado 22104" d="M483.379-15.46S480.178-8.911,481.255-5l35.551-.164s1.023-4.484-2.217-5.188c-8.783-1.911-11.057-4.211-17.981-7.6C491.922-16.272,490.1-10,483.379-15.46Z" transform="translate(-428.805 235.552)" fill="#ffd54f"/>
                  <path id="Trazado_22105" data-name="Trazado 22105" d="M485.951-15.752a86.77,86.77,0,0,0,7.967,4.224c3.79,1.7,7.869,2.21,8.894-.042-9.3-4.275-13.348-6.377-13.348-6.377S488.335-17.942,485.951-15.752Z" transform="translate(-421.661 235.552)" fill="#d8aa2a"/>
                  <path id="Trazado_22106" data-name="Trazado 22106" d="M463.866-20.661s-3.883,4.086-4.126,8.138c3.937,2.678,13.017,10.309,20.719,10.309h14.113s1.793-4.562-1.437-5.315c-9.919-2.315-11.334-5.482-16.794-10.922C471.366-18.377,468.467-13.325,463.866-20.661Z" transform="translate(-459.74 231.609)" fill="#ffd54f"/>
                  <path id="Trazado_22107" data-name="Trazado 22107" d="M465.21-18.909a22.667,22.667,0,0,0,4.781,7.41c3.039,2.828,9.132,3.351,10.829,1.553a14.135,14.135,0,0,1-5.879-3.687,75.155,75.155,0,0,1-5.7-6.22S468.17-20.214,465.21-18.909Z" transform="translate(-451.793 232.717)" fill="#d8aa2a"/>
                  <path id="Trazado_22108" data-name="Trazado 22108" d="M484.24-87.221c-4.479-1.712-7.861,3.027-8.016,8.067s.1,30.206-.015,33.5-.26,6.932,2.529,17.488c.944,3.579,3.795,10.518,3.795,13.9,0,3.939-1.052,6.419-1.052,11.145,0,2.531,3.071,6.026,6,6.973s2.936-6.52,2.254-10.871c-1.079-6.86-1.837-18.828-2.136-22.475-.871-10.645-2.742-13.915-2.365-16.64.888-6.382,5.646-25.617,4.229-31.918S487.328-86.041,484.24-87.221Z" transform="translate(-435.881 134.394)" fill="#ff926d"/>
                </g>
                <g id="Grupo_6557" data-name="Grupo 6557" transform="translate(16.772 19.925)">
                  <rect id="Rect치ngulo_3160" data-name="Rect치ngulo 3160" width="1.719" height="126.423" fill="#673ab7"/>
                </g>
              </g>
              <g id="Grupo_6562" data-name="Grupo 6562" transform="translate(395.4 -106.761)">
                <g id="Grupo_6560" data-name="Grupo 6560">
                  <path id="Trazado_22109" data-name="Trazado 22109" d="M470.56-59.768c-3.292,2.445-15.028,14.636-16.956,18.926s-.979,14.253-2.433,15.472-15.141,6.453-22.423,14.329-14.989,22-22.207,26.794-7.665,3.856-9.566,7.317,15.945,9.895,15.945,9.895-1.69-6.794,1.992-10.24c1.972-1.847,12.727-12.347,23.333-21.094A156.387,156.387,0,0,1,457.46-12.246c4.908-2.573,7.6-1.908,9.448-6.522,3.068-7.648,5.335-22.541,7.724-26C478.46-50.308,484.1-69.822,470.56-59.768Z" transform="translate(-393.319 170.915)" fill="#ff926d"/>
                  <path id="Trazado_22110" data-name="Trazado 22110" d="M448.35-85.239c-2.208-2.99-5.823-5.18-11.518.262-4.474,4.278-6.887,12.188-11.192,16.792A52.66,52.66,0,0,0,418.1-57.505c-1.344,2.406-2.519,4.209-1.786,4.974,0,0,4.736,7.027,16.183,8.4a114.251,114.251,0,0,1,19.07,4.329c4.484,1.273,6.618,1.195,8.111.419s5.278-8.641,4.314-10.334-4.962-1.58-7.206-1.724-4.984,2.477-7.687,2.445-18.288-6.363-18.288-6.363,7.268-11.221,11.7-15.46C447.874-75.933,451.69-80.718,448.35-85.239Z" transform="translate(-365.338 133.565)" fill="#ff926d"/>
                  <path id="Trazado_22111" data-name="Trazado 22111" d="M429.567-68.718s-7.027,11.778-7.883,22.261c-1.261,15.44-2.367,26.806-2.367,26.806s1.172,1.248,7.336,2.929,9.926,1.042,9.926,1.042l8.744-26.534Z" transform="translate(-360.654 162.028)" fill="#5b1282"/>
                  <path id="Trazado_22112" data-name="Trazado 22112" d="M424.612-51.055c.387,4.081,8.043,19.193,10.719,23.064s6.745,8.727,7.035,10.6-.65,17.015,2.325,27.319S455.764,34.137,456.137,42.8s-.662,8.555,1.315,11.97,16.716-8.528,16.716-8.528-6.689-2.065-7.736-7c-.559-2.642-3.983-17.28-5.985-30.881-1.737-11.786-1.555-25.318-1.9-27.547-.746-4.8-9.87-30.807-12.634-36.949S423.01-67.847,424.612-51.055Z" transform="translate(-353.093 171.498)" fill="#ff926d"/>
                  <g id="Grupo_6559" data-name="Grupo 6559" transform="translate(55.453)">
                    <path id="Trazado_22113" data-name="Trazado 22113" d="M427.867-92.941a43.488,43.488,0,0,1-.417,6.576,37.422,37.422,0,0,1-1.56,6.088s4.049,3.211,7.375,3.934a25.583,25.583,0,0,0,4.937.714s-.635-6.049-.635-8.1a61.277,61.277,0,0,1,.78-6.726l-8.987-6.2Z" transform="translate(-406.558 121.432)" fill="#ff926d"/>
                    <path id="Trazado_22114" data-name="Trazado 22114" d="M445.64-103.954s1.974,4.643,2.747,6.61,1.276,3.162.552,4.783c-.5,1.118-1.366,2.36-.466,3.983.733,1.324,2.519,3.628,3.063,4.476.373.584-1.432,1.182-2.487,2.011s-.6,1.126-.317,1.457c.3.351.51.78-.591,1.234.876.584.731,1.074-.162,1.526-.63.316-.606.7-.422,1.751.226,1.3-.584,1.771-1.943,1.719-3.338-.132-8-1.153-10.917-4.077a23.526,23.526,0,0,1-2.973-3.964s-10.861-6.414-6.183-16.829C428.434-105.711,441.975-108.387,445.64-103.954Z" transform="translate(-408.763 107.66)" fill="#ff926d"/>
                    <path id="Trazado_22115" data-name="Trazado 22115" d="M434.267-103.97s-.513-3.056-6.183-2.772-7.5,6.963-8.509,12.3c-2.244,11.832-1.418,30.657-1.418,30.657H428.91s0-28.9,2.953-31.916a30.348,30.348,0,0,1,2.924-2.669Z" transform="translate(-418.008 106.761)" fill="#004061"/>
                    <path id="Trazado_22116" data-name="Trazado 22116" d="M431.347-104.909a5.572,5.572,0,0,0-6.853,0c-3.544,2.713,0,7.317,0,7.317Z" transform="translate(-410.875 107.699)" fill="#ffd54f"/>
                    <path id="Trazado_22117" data-name="Trazado 22117" d="M433.776-81.555a8.255,8.255,0,0,1-1.4-1.091,3.37,3.37,0,0,1-1.148-2.88c.311-2.828,1.935-2.705,3.284-1.675.871.665.687,1.447,1.565,2.4.5-.243,1.577-.957,1.577-.957a50.706,50.706,0,0,0,.054-5.874c-.191-2.006,2.122-2.781,6.363-3.937a18.522,18.522,0,0,1,6.362-.888s1.253-3.343-3.664-7.447c-3.657-3.054-10.819-4.182-16.772-.714s-7.979,10.792-6.65,16.3c1.521,6.311,8.771,10.032,8.771,10.032Z" transform="translate(-410.813 106.771)" fill="#004061"/>
                    <path id="Trazado_22118" data-name="Trazado 22118" d="M428.63-92.04s10.025-3.333,12.627-3.9,4.773-.866,4.773-.866.385-7.422-6.458-8.406S427.857-95.815,428.63-92.04Z" transform="translate(-402.695 108.917)" fill="#004061"/>
                    <path id="Trazado_22119" data-name="Trazado 22119" d="M429.5-95.615a1.436,1.436,0,0,1-1.15-.461c-.26-.385.025-1.087-.172-1.781-.105-.373-.481-.908-.866-.746a1.008,1.008,0,0,0-.245,1.432.032.032,0,0,0,.054-.015c.054-.287-.012-.694.243-.792s.454.231.491.422c.123.635-.341,1.548.093,2.06.388.451,1.057.341,1.562.211C429.763-95.348,429.731-95.59,429.5-95.615Z" transform="translate(-405.14 118.57)" fill="#ff926d"/>
                  </g>
                  <path id="Trazado_22120" data-name="Trazado 22120" d="M425.448-67.839a53.769,53.769,0,0,0-3.228,18.749c.253,7.761,7.765,16.765,10.873,22.531s8.342,13.517,8.342,13.517,12.813-2.946,17.385-7.216c-4.506-13.765-8.079-27.984-9.083-34.547a108.234,108.234,0,0,0-3.652-14.6Z" transform="translate(-356.464 161.036)" fill="#7b1fa2"/>
                  <path id="Trazado_22121" data-name="Trazado 22121" d="M424.346-37.939H445.42c-.145-1.327-.231-2.127-.231-2.127S446.4-56.781,447.036-58.2s2.418-3.387,3.544-5.04,2.926-4.332-.388-9.139-7.734-12.953-7.734-12.953a10.267,10.267,0,0,1-4.665-2.271c-2.784-2.107-7.648-2.377-7.648-2.377s-7.187,7.044-7.187,20.753c0,8.33,2.3,29.164,2.3,29.164S424.9-39.268,424.346-37.939Z" transform="translate(-355.361 131.136)" fill="#ffd54f"/>
                  <path id="Trazado_22122" data-name="Trazado 22122" d="M424.325-70.216l-.829,3.674a69.082,69.082,0,0,0,11.087,1.369h10.223l-.395-3.608s-5.489.142-9.828-.015A73.8,73.8,0,0,1,424.325-70.216Z" transform="translate(-354.583 159.852)" fill="#d8aa2a"/>
                  <path id="Trazado_22123" data-name="Trazado 22123" d="M427.371-90.747l-2.09,3.694s4.052,1.221,8.016,2.831a63.717,63.717,0,0,1,8.143,4.2l-2.352-4.2S432.293-89.744,427.371-90.747Z" transform="translate(-351.989 130.025)" fill="#d8aa2a"/>
                  <path id="Trazado_22124" data-name="Trazado 22124" d="M437.768-13.8s-1.626,7.106.316,10.672c7.729-1.847,34.579-8.259,34.579-8.259s-.027-4.6-3.341-4.547c-8.989.142-11.727-1.582-19.24-3.3C445.9-16.536,445.559-10.014,437.768-13.8Z" transform="translate(-334.774 233.918)" fill="#ffd54f"/>
                  <path id="Trazado_22125" data-name="Trazado 22125" d="M441.221-16.3a86.519,86.519,0,0,0,8.72,2.3c4.077.787,8.165.358,8.651-2.068-10.034-2.043-14.449-3.169-14.449-3.169S443.043-18.972,441.221-16.3Z" transform="translate(-328.832 233.918)" fill="#d8aa2a"/>
                  <path id="Trazado_22126" data-name="Trazado 22126" d="M403.5-29.481s-6.549,3.2-8.1,6.951c6.294,4.852,28.156,21.71,28.156,21.71s3.561-2.911,1.437-5.457c-5.759-6.9-6.139-10.115-9.522-17.042C410.745-24.875,405.456-21.043,403.5-29.481Z" transform="translate(-395.4 219.031)" fill="#ffd54f"/>
                  <path id="Trazado_22127" data-name="Trazado 22127" d="M401.9-27.106a86.722,86.722,0,0,0,3.691,8.227c1.948,3.664,4.852,6.576,7.044,5.43-4.714-9.09-6.615-13.233-6.615-13.233S405.128-27.371,401.9-27.106Z" transform="translate(-385.953 222.393)" fill="#d8aa2a"/>
                  <path id="Trazado_22128" data-name="Trazado 22128" d="M432.617-86.887c-3.686-.471-7.768.628-7.768,8.506,0,6.193,4.05,13.4,4.405,19.7a52.513,52.513,0,0,0,2.512,12.823c.809,2.634,1.3,4.729,2.362,4.729,0,0,8.352,1.432,17.255-5.894a114.235,114.235,0,0,1,16.306-10.792c4.018-2.362,5.435-3.961,5.909-5.575s-2.6-9.787-4.491-10.26-4.57,2.5-6.223,4.018-1.656,5.318-3.544,7.248S442.1-53.566,442.1-53.566s-3.091-13.007-3.091-19.142C439.014-80.112,438.192-86.178,432.617-86.887Z" transform="translate(-352.617 135.498)" fill="#ff926d"/>
                </g>
                <g id="Grupo_6561" data-name="Grupo 6561" transform="translate(44.659 15.547)">
                  <rect id="Rect치ngulo_3161" data-name="Rect치ngulo 3161" width="1.719" height="126.423" fill="#673ab7"/>
                </g>
              </g>
            </g>
          </g>
          <g id="Grupo_1054563" data-name="Grupo 1054563" transform="translate(65 -5.864)">
            <path id="Trazado_816195" data-name="Trazado 816195" d="M2.939,11.493V15H.889V5.047H4.771a4.492,4.492,0,0,1,1.972.41A3.022,3.022,0,0,1,8.053,6.623a3.25,3.25,0,0,1,.458,1.719,2.858,2.858,0,0,1-1,2.307,4.171,4.171,0,0,1-2.772.844Zm0-1.661H4.771a1.8,1.8,0,0,0,1.241-.383,1.392,1.392,0,0,0,.427-1.094,1.642,1.642,0,0,0-.431-1.183,1.609,1.609,0,0,0-1.189-.465H2.939Zm6.453,1.4a4.387,4.387,0,0,1,.424-1.962,3.1,3.1,0,0,1,1.22-1.333,3.56,3.56,0,0,1,1.849-.472,3.368,3.368,0,0,1,2.444.916,3.676,3.676,0,0,1,1.056,2.488l.014.506a3.866,3.866,0,0,1-.95,2.731,3.3,3.3,0,0,1-2.55,1.029,3.319,3.319,0,0,1-2.553-1.025,3.934,3.934,0,0,1-.954-2.789Zm1.976.144a2.757,2.757,0,0,0,.4,1.61,1.426,1.426,0,0,0,2.256.007,3.017,3.017,0,0,0,.4-1.76,2.73,2.73,0,0,0-.4-1.6,1.312,1.312,0,0,0-1.135-.567,1.29,1.29,0,0,0-1.121.564A3.068,3.068,0,0,0,11.368,11.377Zm10.254,1.579a.637.637,0,0,0-.359-.571,4.077,4.077,0,0,0-1.152-.373q-2.639-.554-2.639-2.242a2.032,2.032,0,0,1,.817-1.644,3.3,3.3,0,0,1,2.136-.66,3.547,3.547,0,0,1,2.252.663,2.09,2.09,0,0,1,.844,1.723H21.547a.956.956,0,0,0-.273-.7,1.157,1.157,0,0,0-.854-.277,1.182,1.182,0,0,0-.772.226.712.712,0,0,0-.273.574.609.609,0,0,0,.311.53,3.2,3.2,0,0,0,1.049.349,8.571,8.571,0,0,1,1.244.332,2.044,2.044,0,0,1,1.565,1.989,1.929,1.929,0,0,1-.868,1.637,3.745,3.745,0,0,1-2.242.625,3.912,3.912,0,0,1-1.651-.332A2.77,2.77,0,0,1,17.65,13.9a2.113,2.113,0,0,1-.41-1.248h1.873a1.031,1.031,0,0,0,.39.807,1.546,1.546,0,0,0,.971.28,1.43,1.43,0,0,0,.858-.215A.67.67,0,0,0,21.622,12.956ZM27.18,5.785V7.6h1.265V9.053H27.18v3.691a.881.881,0,0,0,.157.588.79.79,0,0,0,.6.178,3.15,3.15,0,0,0,.581-.048v1.5a4.067,4.067,0,0,1-1.2.178,1.886,1.886,0,0,1-2.119-2.1V9.053h-1.08V7.6H25.2V5.785Zm6.795,8.463a2.477,2.477,0,0,1-2.023.889,2.337,2.337,0,0,1-1.815-.684,2.918,2.918,0,0,1-.639-2V7.6h1.976v4.778q0,1.155,1.053,1.155a1.427,1.427,0,0,0,1.381-.7V7.6h1.982V15H34.029Zm7.561-4.792a5.367,5.367,0,0,0-.711-.055,1.447,1.447,0,0,0-1.47.759V15H37.379V7.6h1.866l.055.882a1.831,1.831,0,0,1,1.647-1.019,2.07,2.07,0,0,1,.615.089ZM46.566,15a2.194,2.194,0,0,1-.2-.663,2.39,2.39,0,0,1-1.866.8,2.626,2.626,0,0,1-1.8-.629,2.023,2.023,0,0,1-.714-1.586,2.09,2.09,0,0,1,.872-1.8,4.3,4.3,0,0,1,2.519-.636h.909v-.424a1.219,1.219,0,0,0-.263-.82,1.035,1.035,0,0,0-.831-.308,1.177,1.177,0,0,0-.783.239.813.813,0,0,0-.284.656H42.15a1.984,1.984,0,0,1,.4-1.189,2.621,2.621,0,0,1,1.121-.858,4.086,4.086,0,0,1,1.627-.311,3.228,3.228,0,0,1,2.17.687,2.4,2.4,0,0,1,.8,1.931v3.206a3.536,3.536,0,0,0,.294,1.593V15Zm-1.634-1.374a1.7,1.7,0,0,0,.807-.195,1.28,1.28,0,0,0,.547-.523V11.637h-.738q-1.483,0-1.579,1.025l-.007.116a.791.791,0,0,0,.26.608A1.009,1.009,0,0,0,44.933,13.626ZM55.357,15H53.375V7.6h1.982Zm-2.1-9.311a.973.973,0,0,1,.3-.731,1.281,1.281,0,0,1,1.617,0,.967.967,0,0,1,.3.731.97.97,0,0,1-.3.738,1.267,1.267,0,0,1-1.606,0A.97.97,0,0,1,53.259,5.689ZM58.8,7.6l.062.854a2.582,2.582,0,0,1,2.126-.991,2.146,2.146,0,0,1,1.75.69,3.221,3.221,0,0,1,.588,2.064V15H61.353V10.27a1.282,1.282,0,0,0-.273-.913,1.224,1.224,0,0,0-.909-.284,1.359,1.359,0,0,0-1.251.711V15H56.943V7.6Zm9.1,5.94a1.3,1.3,0,0,0,.889-.3,1.054,1.054,0,0,0,.355-.8H71a2.534,2.534,0,0,1-.41,1.377,2.706,2.706,0,0,1-1.1.971,3.455,3.455,0,0,1-1.548.345,3.211,3.211,0,0,1-2.5-1.008,3.99,3.99,0,0,1-.916-2.786v-.13a3.944,3.944,0,0,1,.909-2.728,3.174,3.174,0,0,1,2.5-1.019,3.111,3.111,0,0,1,2.225.79,2.8,2.8,0,0,1,.851,2.1H69.146a1.346,1.346,0,0,0-.355-.933,1.324,1.324,0,0,0-1.945.144,2.908,2.908,0,0,0-.352,1.63V11.4a2.945,2.945,0,0,0,.349,1.641A1.205,1.205,0,0,0,67.9,13.544Zm3.917-2.311a4.387,4.387,0,0,1,.424-1.962,3.1,3.1,0,0,1,1.22-1.333,3.56,3.56,0,0,1,1.849-.472,3.368,3.368,0,0,1,2.444.916,3.676,3.676,0,0,1,1.056,2.488l.014.506a3.866,3.866,0,0,1-.95,2.731,3.683,3.683,0,0,1-5.1,0,3.934,3.934,0,0,1-.954-2.789Zm1.976.144a2.757,2.757,0,0,0,.4,1.61,1.426,1.426,0,0,0,2.256.007,3.017,3.017,0,0,0,.4-1.76,2.73,2.73,0,0,0-.4-1.6,1.312,1.312,0,0,0-1.135-.567,1.29,1.29,0,0,0-1.121.564A3.068,3.068,0,0,0,73.794,11.377ZM84.2,9.456a5.367,5.367,0,0,0-.711-.055,1.447,1.447,0,0,0-1.47.759V15H80.042V7.6h1.866l.055.882A1.831,1.831,0,0,1,83.61,7.467a2.07,2.07,0,0,1,.615.089Zm5.106,0a5.367,5.367,0,0,0-.711-.055,1.447,1.447,0,0,0-1.47.759V15H85.148V7.6h1.866l.055.882a1.831,1.831,0,0,1,1.647-1.019,2.07,2.07,0,0,1,.615.089Zm4.354,5.681a3.631,3.631,0,0,1-2.649-1,3.548,3.548,0,0,1-1.022-2.659v-.191A4.468,4.468,0,0,1,90.419,9.3a3.161,3.161,0,0,1,1.22-1.354,3.425,3.425,0,0,1,1.8-.475,3.07,3.07,0,0,1,2.389.957,3.889,3.889,0,0,1,.872,2.714v.807h-4.71a1.835,1.835,0,0,0,.578,1.162,1.746,1.746,0,0,0,1.22.438,2.132,2.132,0,0,0,1.784-.827l.971,1.087a2.966,2.966,0,0,1-1.2.981A3.947,3.947,0,0,1,93.659,15.137Zm-.226-6.07a1.237,1.237,0,0,0-.954.4,2.048,2.048,0,0,0-.468,1.135H94.76V10.44A1.46,1.46,0,0,0,94.4,9.425,1.277,1.277,0,0,0,93.434,9.066Zm7.465,4.478a1.3,1.3,0,0,0,.889-.3,1.054,1.054,0,0,0,.355-.8H104a2.534,2.534,0,0,1-.41,1.377,2.706,2.706,0,0,1-1.1.971,3.455,3.455,0,0,1-1.548.345,3.211,3.211,0,0,1-2.5-1.008,3.99,3.99,0,0,1-.916-2.786v-.13a3.944,3.944,0,0,1,.909-2.728,3.174,3.174,0,0,1,2.5-1.019,3.111,3.111,0,0,1,2.225.79,2.8,2.8,0,0,1,.851,2.1h-1.853a1.346,1.346,0,0,0-.355-.933,1.324,1.324,0,0,0-1.945.144,2.908,2.908,0,0,0-.352,1.63V11.4a2.945,2.945,0,0,0,.349,1.641A1.205,1.205,0,0,0,100.9,13.544Zm6.59-7.759V7.6h1.265V9.053h-1.265v3.691a.881.881,0,0,0,.157.588.79.79,0,0,0,.6.178,3.15,3.15,0,0,0,.581-.048v1.5a4.067,4.067,0,0,1-1.2.178,1.886,1.886,0,0,1-2.119-2.1V9.053h-1.08V7.6h1.08V5.785ZM114.14,15a2.194,2.194,0,0,1-.2-.663,2.39,2.39,0,0,1-1.866.8,2.626,2.626,0,0,1-1.8-.629,2.023,2.023,0,0,1-.714-1.586,2.09,2.09,0,0,1,.872-1.8,4.3,4.3,0,0,1,2.519-.636h.909v-.424a1.219,1.219,0,0,0-.263-.82,1.035,1.035,0,0,0-.831-.308,1.177,1.177,0,0,0-.783.239.813.813,0,0,0-.284.656h-1.976a1.985,1.985,0,0,1,.4-1.189,2.621,2.621,0,0,1,1.121-.858,4.086,4.086,0,0,1,1.627-.311,3.228,3.228,0,0,1,2.17.687,2.4,2.4,0,0,1,.8,1.931v3.206a3.536,3.536,0,0,0,.294,1.593V15Zm-1.634-1.374a1.7,1.7,0,0,0,.807-.195,1.28,1.28,0,0,0,.547-.523V11.637h-.738q-1.483,0-1.579,1.025l-.007.116a.791.791,0,0,0,.26.608A1.009,1.009,0,0,0,112.506,13.626Z" transform="translate(1117 9420.766)" fill="#12263f"/>
            <g id="Grupo_6572" data-name="Grupo 6572" transform="translate(544.604 9278.591)">
              <g id="Grupo_6567" data-name="Grupo 6567" transform="translate(679.795 -103.551)">
                <g id="Grupo_6565" data-name="Grupo 6565">
                  <path id="Trazado_22129" data-name="Trazado 22129" d="M624.34-48.978H608.4c.286,4.253.541,8.734.02,9.948-.765,1.783-10.835,12.876-13.844,23.421s-3.523,26.986-7.894,34.692-5.213,7.056-5.349,11.088,19.11,1.67,19.11,1.67-4.677-5.419-2.909-10.263c.948-2.593,5.915-17.137,11.552-30.011a160.348,160.348,0,0,1,11.126-21.525c3.292-4.611,6.051-5.248,5.609-10.311A73.553,73.553,0,0,0,624.34-48.978Z" transform="translate(-580.388 191.234)" fill="#ff926d"/>
                  <path id="Trazado_22130" data-name="Trazado 22130" d="M601.586-68.416s-7.184,12.041-8.059,22.759c-1.286,15.785-1.344,28.1-1.344,28.1s.123.584,6.424,2.3,10.151,1.066,10.151,1.066L617.7-41.319Z" transform="translate(-564.033 161.93)" fill="#5b1282"/>
                  <path id="Trazado_22131" data-name="Trazado 22131" d="M602.722-87.159c-4.9.073-6.319,5.853-4.556,10.7S609.7-47.813,610.842-44.651s2.377,6.683,9.025,15.65c2.252,3.042,7.588,8.548,8.869,11.766,1.495,3.741,1.434,6.5,3.225,10.983.958,2.4,5.2,4.561,8.34,4.348s.318-7.3-1.978-11.176c-3.624-6.106-8.877-17.182-10.542-20.532-4.857-9.78-7.874-12.174-8.548-14.9-1.575-6.4-4.343-26.462-8.077-31.909S606.1-87.207,602.722-87.159Z" transform="translate(-556.109 133.671)" fill="#ff926d"/>
                  <path id="Trazado_22132" data-name="Trazado 22132" d="M594.574-51.736c-.118,4.188,9.055,25.783,11.284,30.043s2.437,4.406,2.5,6.344-.953,16.638.77,27.468,8.315,25.006,7.606,33.835-1.75,8.6-.173,12.31,16.066-5.058,16.066-5.058-5.662-5.474-6.1-10.612S625.151-10.178,625-15.141s-6.144-32.5-8.172-39.078S595.06-68.976,594.574-51.736Z" transform="translate(-560.43 171.554)" fill="#ff926d"/>
                  <g id="Grupo_6564" data-name="Grupo 6564" transform="translate(33.441)">
                    <path id="Trazado_22133" data-name="Trazado 22133" d="M609.381-91.265s-3.247,4.654-6.028,7.889c-1.72,2-4.5,4.867-4.5,4.867s7.615,3.348,10.63,5.085,1.75,2.756,1.75,2.756a24.413,24.413,0,0,1,2.726-8.032c1.086-1.8,4.862-6.891,4.862-6.891l-6.823-8.834Z" transform="translate(-587.425 122.719)" fill="#ff926d"/>
                    <path id="Trazado_22134" data-name="Trazado 22134" d="M626.776-97.858s.481,5.135.622,7.292.258,3.476-.951,4.83c-.832.933-2.061,1.873-1.693,3.736.3,1.517,1.326,4.316,1.592,5.311.183.685-1.76.707-3.047,1.184-1.3.486-.93.913-.76,1.324.178.431.253.918-.96,1.016.672.843.379,1.274-.632,1.434-.712.113-.807.5-.955,1.575-.183,1.334-1.118,1.545-2.427,1.071-3.21-1.166-7.43-3.608-9.366-7.365a24.206,24.206,0,0,1-1.662-4.784s-8.581-9.622-.79-18.31C610.564-104.917,624.587-103.314,626.776-97.858Z" transform="translate(-581.953 110.011)" fill="#ff926d"/>
                    <path id="Trazado_22135" data-name="Trazado 22135" d="M614.161-105.479c-5.612-1.487-11.242,4.556-13.884,9.436-5.452,10.06-5.943,27.182-5.983,29.552h12.535c.278-1.82,3.919-25.123,7.583-27.062a31.215,31.215,0,0,1,3.676-1.69l1.234-5.614S619.772-103.992,614.161-105.479Z" transform="translate(-594.293 105.708)" fill="#004061"/>
                    <path id="Trazado_22136" data-name="Trazado 22136" d="M611.577-101.743a5.7,5.7,0,0,0-6.675-2.131c-4.3,1.54-2.274,7.127-2.274,7.127Z" transform="translate(-582.444 107.905)" fill="#ffd54f"/>
                    <path id="Trazado_22137" data-name="Trazado 22137" d="M608.955-79.8a8.388,8.388,0,0,1-1.018-1.5,3.434,3.434,0,0,1-.223-3.16c1.181-2.656,2.726-2.034,3.719-.609.642.915.218,1.622.777,2.824.564-.08,1.833-.441,1.833-.441a51.931,51.931,0,0,0,1.881-5.7c.436-2.016,2.929-2.051,7.42-1.858a18.927,18.927,0,0,1,6.472,1.113s2.259-2.866-1.251-8.393c-2.613-4.11-9.24-7.437-16.114-5.908S601.321-95.4,600.9-89.62c-.479,6.623,5.424,12.5,5.424,12.5Z" transform="translate(-584.37 108.573)" fill="#004061"/>
                    <path id="Trazado_22138" data-name="Trazado 22138" d="M606.286-91.042s10.8-.128,13.511.128,4.917.639,4.917.639,2.683-7.109-3.679-10.193S606.7-94.959,606.286-91.042Z" transform="translate(-576.213 112.621)" fill="#004061"/>
                    <path id="Trazado_22139" data-name="Trazado 22139" d="M606.091-92.78c-.419-.168-.853-.384-.975-.807-.133-.454.361-1.051.384-1.788.015-.4-.186-1.033-.609-.993a1.027,1.027,0,0,0-.685,1.316.031.031,0,0,0,.055,0c.143-.261.206-.68.484-.7s.371.369.349.567c-.08.654-.815,1.4-.552,2.034.236.562.923.659,1.457.692C606.269-92.436,606.314-92.684,606.091-92.78Z" transform="translate(-579.446 119.787)" fill="#ff926d"/>
                  </g>
                  <path id="Trazado_22140" data-name="Trazado 22140" d="M597.714-38.515l20.938,3.734c0-.08.359-1.464.359-1.545-.043-4.857,1.449-16.154,2.553-17.3,1.928-2.006,4.677-3.057,5.695-5.845.7-1.921.449-4.223-2.939-9.135s-8.042-14.79-8.042-14.79a10.487,10.487,0,0,1-4.767-2.325,27.453,27.453,0,0,0-5.166-3.142,30.718,30.718,0,0,0-6.086,4.7c-3.16,3.232-6.174,6.748-5.788,14.908C594.873-60.752,601.318-52.989,597.714-38.515Z" transform="translate(-560.632 131.106)" fill="#ffd54f"/>
                  <path id="Trazado_22141" data-name="Trazado 22141" d="M602.843-90.019l-3.656,2.9a25.206,25.206,0,0,1,7.854,6.028c2.889,3.282,6.833,8.764,6.833,8.764s-2.034-7.513-2.861-9.5A13.686,13.686,0,0,0,602.843-90.019Z" transform="translate(-553.474 129.362)" fill="#d8aa2a"/>
                  <path id="Trazado_22142" data-name="Trazado 22142" d="M598.2-68.312s-3.521,8.721-4.05,16.64,3.069,19.958,5.5,26.2,6.126,13.36,6.126,13.36,12.713-1.407,17.889-5.163c-2.841-14.534-2.407-29.574-2.6-36.36A110.946,110.946,0,0,0,619.189-68.9Z" transform="translate(-561.149 161.194)" fill="#7b1fa2"/>
                  <path id="Trazado_22143" data-name="Trazado 22143" d="M596.551-70.119l-.848,3.754a70.628,70.628,0,0,0,11.334,1.4h10.451l-.406-3.689s-5.609.145-10.045-.015A75.619,75.619,0,0,1,596.551-70.119Z" transform="translate(-558.726 159.362)" fill="#d8aa2a"/>
                  <path id="Trazado_22144" data-name="Trazado 22144" d="M604.649-15.4s-3.272,6.7-2.172,10.7l36.347-.168s1.043-4.584-2.269-5.3c-8.98-1.953-11.3-4.306-18.383-7.768C613.383-16.234,611.522-9.822,604.649-15.4Z" transform="translate(-548.855 238.015)" fill="#ffd54f"/>
                  <path id="Trazado_22145" data-name="Trazado 22145" d="M607.168-15.7a88.677,88.677,0,0,0,8.145,4.318c3.874,1.735,8.044,2.259,9.092-.043-9.511-4.371-13.646-6.52-13.646-6.52S609.605-17.942,607.168-15.7Z" transform="translate(-541.442 238.015)" fill="#d8aa2a"/>
                  <path id="Trazado_22146" data-name="Trazado 22146" d="M585.175-20.661s-3.969,4.178-4.218,8.32C584.982-9.6,594.265-1.8,602.139-1.8h14.429S618.4-6.466,615.1-7.235C604.957-9.6,603.51-12.84,597.928-18.4,592.843-18.326,589.879-13.161,585.175-20.661Z" transform="translate(-580.957 233.924)" fill="#ffd54f"/>
                  <path id="Trazado_22147" data-name="Trazado 22147" d="M586.427-18.887a23.172,23.172,0,0,0,4.887,7.575c3.107,2.891,9.336,3.425,11.071,1.587a14.451,14.451,0,0,1-6.011-3.769,76.848,76.848,0,0,1-5.825-6.359S589.454-20.221,586.427-18.887Z" transform="translate(-572.71 235.073)" fill="#d8aa2a"/>
                  <path id="Trazado_22148" data-name="Trazado 22148" d="M604-86.935c-4.722-1.316-7.716,3.827-7.4,8.972s2.954,30.74,3.155,34.1.389,7.081,4.225,17.563c1.3,3.553,4.86,10.346,5.181,13.794.371,4.012-.466,6.638-.02,11.447.241,2.578,3.7,5.845,6.77,6.53s2.372-6.913,1.266-11.279c-1.748-6.881-3.651-18.99-4.3-22.676-1.891-10.752-4.107-13.9-3.98-16.715.3-6.577,3.323-26.608,1.284-32.889S607.255-86.024,604-86.935Z" transform="translate(-557.404 133.697)" fill="#ff926d"/>
                </g>
                <g id="Grupo_6566" data-name="Grupo 6566" transform="translate(17.993 35.774)">
                  <path id="Trazado_22149" data-name="Trazado 22149" d="M588.209-1.626c-.033-.466-.767-11.495,3.062-19.459a66.185,66.185,0,0,1,3.751-6.54c3.513-5.6,6.542-10.439,5.115-18.328a49.717,49.717,0,0,0-2.1-7.605,39.5,39.5,0,0,1-2.55-15.946c.273-10.745,13.666-21.487,14.235-21.939l1.354,1.705c-.133.105-13.167,10.562-13.411,20.289A37.559,37.559,0,0,0,600.1-54.257a51.128,51.128,0,0,1,2.179,7.919c1.577,8.716-1.818,14.135-5.411,19.87a65.695,65.695,0,0,0-3.639,6.327c-3.578,7.447-2.856,18.253-2.849,18.363Z" transform="translate(-588.132 91.442)" fill="#673ab7"/>
                </g>
              </g>
              <g id="Grupo_6571" data-name="Grupo 6571" transform="translate(515.396 -107.139)">
                <g id="Grupo_6569" data-name="Grupo 6569">
                  <path id="Trazado_22150" data-name="Trazado 22150" d="M592.2-59.705c-3.365,2.5-15.367,14.963-17.337,19.348s-1,14.572-2.485,15.818S556.9-17.941,549.456-9.89,534.13,12.6,526.753,17.5s-7.836,3.942-9.78,7.48,16.3,10.116,16.3,10.116-1.728-6.946,2.036-10.469c2.016-1.888,13.014-12.623,23.857-21.565a159.943,159.943,0,0,1,19.642-14.185c5.02-2.63,7.768-1.951,9.662-6.668,3.137-7.819,5.454-23.045,7.894-26.578C600.28-50.033,606.047-69.984,592.2-59.705Z" transform="translate(-513.237 174.285)" fill="#ff926d"/>
                  <path id="Trazado_22151" data-name="Trazado 22151" d="M569.066-85.17c-2.259-3.057-5.953-5.3-11.775.268-4.576,4.373-7.044,12.46-11.442,17.167a53.63,53.63,0,0,0-7.7,10.918c-1.377,2.46-2.575,4.3-1.825,5.085,0,0,4.842,7.184,16.545,8.588a116.761,116.761,0,0,1,19.494,4.426c4.586,1.3,6.768,1.221,8.3.429s5.4-8.834,4.408-10.564-5.07-1.615-7.365-1.763-5.1,2.533-7.861,2.5-18.7-6.5-18.7-6.5,7.432-11.472,11.966-15.805C568.577-75.657,572.482-80.549,569.066-85.17Z" transform="translate(-484.2 135.526)" fill="#ff926d"/>
                  <path id="Trazado_22152" data-name="Trazado 22152" d="M549.79-68.718s-7.182,12.041-8.057,22.759c-1.289,15.785-2.42,27.405-2.42,27.405s1.2,1.276,7.5,2.994,10.151,1.066,10.151,1.066L565.9-41.621Z" transform="translate(-479.339 165.063)" fill="#5b1282"/>
                  <g id="Grupo_6568" data-name="Grupo 6568" transform="translate(67.657)">
                    <path id="Trazado_22153" data-name="Trazado 22153" d="M557.466-92.7s-3.247,4.654-6.028,7.889c-1.72,2-4.5,4.867-4.5,4.867s7.615,3.348,10.629,5.085,1.75,2.756,1.75,2.756a24.346,24.346,0,0,1,2.726-8.032c1.083-1.8,4.862-6.891,4.862-6.891l-6.826-8.834Z" transform="translate(-535.507 124.15)" fill="#ff926d"/>
                    <path id="Trazado_22154" data-name="Trazado 22154" d="M574.862-99.289s.482,5.135.622,7.292.258,3.475-.95,4.83c-.833.933-2.064,1.873-1.693,3.736.3,1.517,1.326,4.316,1.592,5.311.183.685-1.763.707-3.047,1.184-1.3.486-.93.913-.762,1.324.181.431.256.918-.958,1.016.669.843.376,1.274-.632,1.434-.712.113-.81.5-.956,1.575-.183,1.334-1.121,1.545-2.427,1.071-3.21-1.166-7.432-3.611-9.366-7.365a24.206,24.206,0,0,1-1.662-4.784s-8.584-9.622-.79-18.31C558.65-106.348,572.672-104.745,574.862-99.289Z" transform="translate(-530.036 111.442)" fill="#ff926d"/>
                    <path id="Trazado_22155" data-name="Trazado 22155" d="M562.247-106.91c-5.615-1.487-11.242,4.556-13.885,9.436-5.451,10.06-5.943,27.182-5.986,29.552h12.538c.278-1.82,3.917-25.123,7.583-27.062a31.218,31.218,0,0,1,3.676-1.69l1.234-5.614S567.859-105.423,562.247-106.91Z" transform="translate(-542.377 107.139)" fill="#004061"/>
                    <path id="Trazado_22156" data-name="Trazado 22156" d="M559.662-103.174a5.7,5.7,0,0,0-6.675-2.131c-4.3,1.54-2.274,7.126-2.274,7.126Z" transform="translate(-530.527 109.336)" fill="#ffd54f"/>
                    <path id="Trazado_22157" data-name="Trazado 22157" d="M557.04-81.229a8.3,8.3,0,0,1-1.021-1.5,3.44,3.44,0,0,1-.221-3.16c1.181-2.656,2.723-2.034,3.719-.609.642.915.218,1.622.777,2.824.564-.08,1.833-.441,1.833-.441a52.137,52.137,0,0,0,1.878-5.7c.436-2.016,2.931-2.051,7.42-1.858a18.932,18.932,0,0,1,6.474,1.113s2.259-2.866-1.254-8.393c-2.613-4.11-9.238-7.437-16.114-5.908s-11.126,8.029-11.545,13.809c-.479,6.622,5.424,12.5,5.424,12.5Z" transform="translate(-532.453 110.004)" fill="#004061"/>
                    <path id="Trazado_22158" data-name="Trazado 22158" d="M554.37-92.473s10.8-.128,13.513.128,4.915.639,4.915.639,2.683-7.109-3.676-10.193S554.791-96.388,554.37-92.473Z" transform="translate(-524.297 114.052)" fill="#004061"/>
                    <path id="Trazado_22159" data-name="Trazado 22159" d="M554.177-94.211a1.461,1.461,0,0,1-.978-.807c-.133-.456.363-1.051.386-1.788.013-.4-.186-1.033-.612-.993a1.03,1.03,0,0,0-.684,1.316.033.033,0,0,0,.058,0c.143-.261.206-.68.484-.7s.371.369.346.567c-.08.654-.815,1.4-.549,2.034.236.562.923.659,1.454.692C554.355-93.867,554.4-94.115,554.177-94.211Z" transform="translate(-527.529 121.218)" fill="#ff926d"/>
                    <path id="Trazado_22160" data-name="Trazado 22160" d="M559.545-92.162c-.146-.065-.351-.155-.577-.246a3.559,3.559,0,0,0-.486-.168c-.1-.028-.928-.16-1.164.065a.128.128,0,0,0-.04.133c.088.356.624.293,1.246.208A4.358,4.358,0,0,1,559.545-92.162Z" transform="translate(-519.92 128.999)" fill="#ff926d"/>
                  </g>
                  <path id="Trazado_22161" data-name="Trazado 22161" d="M545.8-39.948l20.938,3.736c0-.08.361-1.464.361-1.545-.045-4.857,1.449-16.154,2.553-17.3,1.928-2.006,4.674-3.057,5.692-5.845.7-1.921.451-4.223-2.937-9.135s-8.042-14.79-8.042-14.79a10.475,10.475,0,0,1-4.767-2.325,27.449,27.449,0,0,0-5.166-3.142,30.774,30.774,0,0,0-6.088,4.7c-3.16,3.232-6.174,6.748-5.787,14.908C542.96-62.183,549.4-54.42,545.8-39.948Z" transform="translate(-474.501 132.537)" fill="#ffd54f"/>
                  <path id="Trazado_22162" data-name="Trazado 22162" d="M550.928-91.45l-3.656,2.9a25.213,25.213,0,0,1,7.851,6.028c2.891,3.282,6.836,8.764,6.836,8.764s-2.034-7.513-2.864-9.5A13.673,13.673,0,0,0,550.928-91.45Z" transform="translate(-467.341 130.793)" fill="#d8aa2a"/>
                  <path id="Trazado_22163" data-name="Trazado 22163" d="M544.609-50.806c.4,4.173,8.222,19.622,10.958,23.579s6.9,8.922,7.192,10.84-.662,17.4,2.377,27.929,11.324,24.747,11.705,33.6-.679,8.746,1.344,12.237,17.089-8.719,17.089-8.719-6.838-2.111-7.909-7.157c-.574-2.7-4.075-17.666-6.121-31.57-1.773-12.049-1.587-25.883-1.941-28.163-.765-4.907-10.093-31.5-12.917-37.774S542.971-67.973,544.609-50.806Z" transform="translate(-471.495 174.89)" fill="#ff926d"/>
                  <path id="Trazado_22164" data-name="Trazado 22164" d="M545.515-67.8a54.936,54.936,0,0,0-3.3,19.168c.258,7.934,7.936,17.139,11.113,23.035s8.528,13.819,8.528,13.819,13.1-3.012,17.776-7.377c-4.607-14.072-8.263-28.609-9.286-35.319A110.9,110.9,0,0,0,566.614-69.4Z" transform="translate(-474.992 164.033)" fill="#7b1fa2"/>
                  <path id="Trazado_22165" data-name="Trazado 22165" d="M544.338-70.216l-.847,3.756a70.623,70.623,0,0,0,11.334,1.4c4.584,0,10.818.07,10.818.07l-.77-3.759s-5.609.145-10.048-.015A75.516,75.516,0,0,1,544.338-70.216Z" transform="translate(-473.041 162.804)" fill="#d8aa2a"/>
                  <path id="Trazado_22166" data-name="Trazado 22166" d="M557.779-13.677s-1.662,7.264.321,10.91l35.352-8.443s-.025-4.7-3.415-4.649c-9.19.145-11.989-1.617-19.669-3.375C566.094-16.476,565.743-9.808,557.779-13.677Z" transform="translate(-452.484 239.663)" fill="#ffd54f"/>
                  <path id="Trazado_22167" data-name="Trazado 22167" d="M561.217-16.232a88.522,88.522,0,0,0,8.912,2.352c4.168.8,8.348.366,8.844-2.114-10.256-2.089-14.772-3.24-14.772-3.24S563.078-18.966,561.217-16.232Z" transform="translate(-446.318 239.663)" fill="#d8aa2a"/>
                  <path id="Trazado_22168" data-name="Trazado 22168" d="M523.678-29.481s-6.7,3.272-8.282,7.106C521.83-17.415,544.178-.18,544.178-.18s3.641-2.976,1.469-5.579c-5.888-7.059-6.274-10.341-9.732-17.423C531.081-24.772,525.677-20.855,523.678-29.481Z" transform="translate(-515.396 224.215)" fill="#ffd54f"/>
                  <path id="Trazado_22169" data-name="Trazado 22169" d="M521.9-27.1a88.313,88.313,0,0,0,3.771,8.41c1.993,3.746,4.962,6.723,7.2,5.552-4.82-9.293-6.76-13.528-6.76-13.528S525.2-27.376,521.9-27.1Z" transform="translate(-505.592 227.704)" fill="#d8aa2a"/>
                  <path id="Trazado_22170" data-name="Trazado 22170" d="M552.785-86.885c-3.769-.481-7.941.642-7.941,8.7,0,6.332,4.14,13.7,4.5,20.136a53.561,53.561,0,0,0,2.57,13.11c.828,2.693,1.329,4.835,2.415,4.835,0,0,8.538,1.464,17.638-6.026a116.787,116.787,0,0,1,16.673-11.033c4.107-2.415,5.557-4.05,6.038-5.7s-2.656-10.005-4.589-10.489-4.672,2.553-6.364,4.107-1.69,5.436-3.623,7.41-17.621,9.02-17.621,9.02-3.157-13.3-3.157-19.569C559.328-79.959,558.488-86.16,552.785-86.885Z" transform="translate(-471.001 137.532)" fill="#ff926d"/>
                </g>
                <g id="Grupo_6570" data-name="Grupo 6570" transform="translate(52.24 35.308)">
                  <path id="Trazado_22171" data-name="Trazado 22171" d="M536.3-3.243c-.03-.466-.767-11.495,3.062-19.459a66.482,66.482,0,0,1,3.754-6.54c3.511-5.6,6.542-10.439,5.113-18.325a49.5,49.5,0,0,0-2.1-7.608,39.446,39.446,0,0,1-2.55-15.943c.273-10.747,13.666-21.49,14.235-21.941l1.352,1.705c-.13.105-13.165,10.562-13.41,20.291A37.573,37.573,0,0,0,548.2-55.874a51.2,51.2,0,0,1,2.179,7.919c1.577,8.716-1.818,14.133-5.411,19.872a65.045,65.045,0,0,0-3.638,6.327c-3.578,7.445-2.856,18.253-2.849,18.36Z" transform="translate(-536.229 93.059)" fill="#673ab7"/>
                </g>
              </g>
            </g>
          </g>
        </g>
      </g>
    </g>
  </g>
</svg>
