<svg xmlns="http://www.w3.org/2000/svg" xmlns:xlink="http://www.w3.org/1999/xlink" width="400" height="331.683" viewBox="0 0 400 331.683">
  <defs>
    <clipPath id="clip-path">
      <rect id="Rectángulo_374753" data-name="Rectángulo 374753" width="400" height="331.683" fill="#d1bcff"/>
    </clipPath>
    <clipPath id="clip-path-3">
      <rect id="Rectángulo_374750" data-name="Rectángulo 374750" width="129.914" height="313.128" transform="translate(134.086 0)" fill="none"/>
    </clipPath>
    <clipPath id="clip-path-4">
      <rect id="Rectángulo_374752" data-name="Rectángulo 374752" width="400" height="331.683" fill="none"/>
    </clipPath>
    <clipPath id="clip-path-5">
      <rect id="Rectángulo_374751" data-name="Rectángulo 374751" width="59.129" height="305.683" transform="translate(198.538 26)" fill="none"/>
    </clipPath>
  </defs>
  <g id="Grupo_1079170" data-name="Grupo 1079170" transform="translate(-600 -4193.329)">
    <g id="Grupo_1079135" data-name="Grupo 1079135" transform="translate(600 4193.329)">
      <g id="Grupo_1079134" data-name="Grupo 1079134" clip-path="url(#clip-path)">
        <g id="Grupo_1079126" data-name="Grupo 1079126">
          <g id="Grupo_1079125" data-name="Grupo 1079125" clip-path="url(#clip-path)">
            <path id="Trazado_842204" data-name="Trazado 842204" d="M12,31H388a12,12,0,0,1,12,12V305a12,12,0,0,1-12,12H12A12,12,0,0,1,0,305V43A12,12,0,0,1,12,31" fill="#b8acd5"/>
            <path id="Trazado_842205" data-name="Trazado 842205" d="M257.667,52,151,0V251l102,80.683Z" fill="#673ab7"/>
          </g>
        </g>
        <g id="Grupo_1079128" data-name="Grupo 1079128">
          <g id="Grupo_1079127" data-name="Grupo 1079127" clip-path="url(#clip-path-3)">
            <path id="Trazado_842206" data-name="Trazado 842206" d="M216.69,70.883s2.041-2.476,2.041-3.861,9.337,2.766,11.17,8.023.551,24.635.551,24.635-6.192,1.655-10.066-1.116-3.7-27.679-3.7-27.679" fill="#131212"/>
            <path id="Trazado_842207" data-name="Trazado 842207" d="M216.928,80.924l10.1,11.828s1.078,11.62,3.861,16.047,3.335,2.271,3.887,13.032,1.384,27.525,2.49,29.516c.111.2.257.473.426.8-1.879,1.981-4.123,3.677-6.145,5.448-.11.1-.223.193-.335.289-.208-1.426-.41-2.875-.584-3.5a18.453,18.453,0,0,1-.348-3.663s-13.487-38.562-15.458-45.513,2.106-24.278,2.106-24.278" fill="#d85e38"/>
            <path id="Trazado_842208" data-name="Trazado 842208" d="M235.288,150.148s4.32,1.584,5.718,5.5-1.35,8.52-1.35,8.52-3.769,2.586-9.153-1.17c-.942-.657-.045-8.147-.045-10.337,0-3.433,4.83-2.514,4.83-2.514" fill="#d85e38"/>
            <path id="Trazado_842209" data-name="Trazado 842209" d="M239.047,163.495l1.215-.992-.7,7.152-2.172,3.606-3.947,2.766s-1.087-1.726.209-2.706,2.326-1.831,2.326-1.831l1.036-2.383-.669-5.023Z" fill="#d85e38"/>
            <path id="Trazado_842210" data-name="Trazado 842210" d="M236.6,161.874l.33,6.71-2.489,3.835-4.389,2.858s-1.115-1.913.329-2.93,2.592-1.9,2.592-1.9l1.211-2.55-.542-5.479Z" fill="#d85e38"/>
            <path id="Trazado_842211" data-name="Trazado 842211" d="M233.625,161.984l.7,5.5-1.807,3.314-3.428,2.632s-1.042-1.5.082-2.432,2.013-1.731,2.013-1.731l.835-2.176-.794-4.476Z" fill="#d85e38"/>
            <path id="Trazado_842212" data-name="Trazado 842212" d="M232.15,162.854l.321,3.861-1.362,2.259-2.473,1.734s-.681-1.08.131-1.695,1.459-1.149,1.459-1.149l.65-1.493-.827-4.7Z" fill="#d85e38"/>
            <path id="Trazado_842213" data-name="Trazado 842213" d="M244.124,169.764s-.157-5.781-.05-7.4-1.659-6.364-3.812-8.231-5.836-.913-5.288,3.505c.342,2.757,6.02,6.7,6.02,6.7l-.242,2.882s.092,2.969,2.123,3.85,1.249-1.312,1.249-1.312" fill="#d85e38"/>
            <path id="Trazado_842214" data-name="Trazado 842214" d="M214.3,262.562s12.726,11.679,15.77,13.478,8.523,3.969,10.46,7.7-3.266,4.471-10.6,4.471-16.189-6.986-19.925-8.089-3.167-.78-6.5-2.7,1.1-16.324,1.1-16.324Z" fill="#90c7aa"/>
            <path id="Trazado_842215" data-name="Trazado 842215" d="M214.3,260.9s12.726,11.679,15.77,13.478,8.162,4.7,10.1,8.439-2.9,3.734-10.236,3.734-15.769-8.576-19.505-9.683-3.167-.778-6.5-2.7.687-14.73.687-14.73Z" fill="#003a40"/>
            <path id="Trazado_842216" data-name="Trazado 842216" d="M223.711,133.573s11.343,34.121,3.319,56.547-10.278,74.663-10.278,74.663-.508,2.559-8.531,1.279-9.683-6.184-9.683-6.184-2.213-26.282,0-34.595,4.08-14.385,4.08-14.385l-1.87-68.554Z" fill="#00778f"/>
            <path id="Trazado_842217" data-name="Trazado 842217" d="M188.022,277.286s4.7,10.928,7.608,14.387,15.909,9.13,11.343,15.216c-2.709,3.613-13.7,1.659-17.706-1.8s-9.531-10.019-11.6-11.243a7.156,7.156,0,0,1-3.473-6.463c0-3.043,2.212-10.652,2.212-10.652Z" fill="#90c7aa"/>
            <path id="Trazado_842218" data-name="Trazado 842218" d="M188.022,275.211s4.7,10.928,7.608,14.387,14.8,12.311,11.343,15.216-13.7,1.659-17.706-1.8-7.885-10.968-9.96-12.192-5.118-2.47-5.118-5.515,2.212-10.653,2.212-10.653Z" fill="#003a40"/>
            <path id="Trazado_842219" data-name="Trazado 842219" d="M211.539,144s-2.907,46.081-8.924,65.473-12.657,53.274-10.72,61.785-.343,8.513-.343,8.513-12.107,2.213-15.151-1.66A21.375,21.375,0,0,0,171.2,273s-3.541-29.33,0-40.741,6.584-24.575,5.2-28.5-1.318-47.475.066-51.453S211.537,144,211.537,144" fill="#0d899a"/>
            <path id="Trazado_842220" data-name="Trazado 842220" d="M208.494,66.193s9.268-.138,10.236.827,12.035,25.315,11.9,30.018-2.352,21.54-2.352,23.289-.238,31.093-.238,31.093-7.371,13.9-32.546,15.337c-10.847.622-20.334-12.173-20.334-12.173s5.62-16.62,5.343-24.988-7.972-27.3-9.217-35.185,16.6-22,22.825-25.038,14.387-3.182,14.387-3.182" fill="#0b0b0b"/>
            <path id="Trazado_842221" data-name="Trazado 842221" d="M210.43,64.949s-1.1,4.011,0,7.193,1.66,5.81,1.1,8.439-8.853,4.565-15.217.691-7.679-8.5-6.54-9.268,2.942-2.9,2.942-4.7-.692-8.991-.692-8.991Z" fill="#de723b"/>
            <path id="Trazado_842222" data-name="Trazado 842222" d="M211.755,41.6s-1.432,3.922-7.2,5.706-4.044,9.026-6.434,9.441-7.054-2.318-7.054-2.318l3.528,6.049s-2.074,2.282-3.528,1.244-4.871-8.61-4.871-8.61-8.2-14.732,4.358-21.785,22.2,4.044,25.522,5.187,2.9,3.631,1.867,5.083-6.18,0-6.18,0" fill="#4c170c"/>
            <path id="Trazado_842223" data-name="Trazado 842223" d="M214.526,42.116s1.747,2.808,1.335,4.364.414,2.283.622,3.009a38.574,38.574,0,0,1,.208,5.4V65.57c0,.911-1.349,2.8-3.631,2.9s-11.306.194-14.524-2.289a11.039,11.039,0,0,1-3.942-5.7s-.519,1.141-2.8,0-3.319-3.217-3.839-7.573,5.914.518,5.914.518,5.188,3.982,5.188,1.006,1.391-12.593,1.871-13.145c3.108-3.553,13.605.823,13.605.823" fill="#ee8d5c"/>
            <path id="Trazado_842224" data-name="Trazado 842224" d="M183.559,98.562s1.073,16.6-.691,23.551a131.894,131.894,0,0,1-4.668,14.213s2.282,14.006,1.452,19.815,3.527,20.231,3.527,20.231,6.1,3.511,6.173,3.562,4.462,5.983,4.462,5.983v6.017c0,1.038-1.868,1.4-2.283,0a33.906,33.906,0,0,1-.726-4.305s-4.928-3.268-5.083-3.268a61.043,61.043,0,0,0-1.712,8.767c.157.677,1.66,3.061,1.712,3.734s3.217,2.534,4.412,3.135,3.113-.178,3.424,1.431-3.319,1.609-3.942,1.609-5.084-2.39-5.343-2.335-3.32-.1-3.632-1.195-.834-.787-.834-.787a1.875,1.875,0,0,1-1.6-.665,3.9,3.9,0,0,0-1.027-1.034s-1.1.521-1.831-1.347-1.971-9.078-2.179-10.012,1.245-6.537,1.245-6.537-8.3-34.392-9.181-36.831,1.4-9.284.726-19.453.2-28.271,5.263-31.123,11.582,2.7,12.339,6.847" fill="#ee8d5c"/>
            <path id="Trazado_842225" data-name="Trazado 842225" d="M179.42,90.932s7.806,1.821,7.6,9.706-2.178,26.767-2.7,27.182-4.461,6.951-10.583,4.98-11.2-7.262-11.2-7.262,2.806-29.466,5.287-32.682,10.226-2.715,11.6-1.925" fill="#131212"/>
          </g>
        </g>
        <g id="Grupo_1079133" data-name="Grupo 1079133">
          <g id="Grupo_1079132" data-name="Grupo 1079132" clip-path="url(#clip-path-4)">
            <g id="Grupo_1079131" data-name="Grupo 1079131" opacity="0.51">
              <g id="Grupo_1079130" data-name="Grupo 1079130">
                <g id="Grupo_1079129" data-name="Grupo 1079129" clip-path="url(#clip-path-5)">
                  <path id="Trazado_842226" data-name="Trazado 842226" d="M257.667,52,204.334,26s16.3,25.36,6.1,38.949c0,0,18.5,75.824-.561,99.252,0,0,.312,41.607-11.331,61.083l1.9,64.824L253,331.683Z" fill="#673ab7"/>
                </g>
              </g>
            </g>
          </g>
        </g>
      </g>
    </g>
  </g>
</svg>
