<svg xmlns="http://www.w3.org/2000/svg" xmlns:xlink="http://www.w3.org/1999/xlink" width="400" height="294.289" viewBox="0 0 400 294.289">
  <defs>
    <clipPath id="clip-path">
      <rect id="Rectángulo_374623" data-name="Rectángulo 374623" width="246" height="212.932" fill="none"/>
    </clipPath>
  </defs>
  <g id="Grupo_1078847" data-name="Grupo 1078847" transform="translate(-285 -18568.523)">
    <g id="Grupo_1078825" data-name="Grupo 1078825" transform="translate(27.301 1324.37)">
      <g id="Grupo_1078835" data-name="Grupo 1078835">
        <ellipse id="Elipse_5026" data-name="Elipse 5026" cx="179.096" cy="104.347" rx="179.096" ry="104.347" transform="matrix(0.966, -0.259, 0.259, 0.966, 257.699, 17336.859)" fill="#fff" opacity="0.7"/>
        <g id="Grupo_1078834" data-name="Grupo 1078834" transform="translate(342.699 17284.832)">
          <g id="Grupo_1078833" data-name="Grupo 1078833" clip-path="url(#clip-path)">
            <path id="Trazado_841521" data-name="Trazado 841521" d="M606.791,135.338l-6.846,3.221a161.3,161.3,0,0,0-19.464-31.87l4.4-6.409a163.691,163.691,0,0,1,21.911,35.057" transform="translate(-360.791 -62.328)" fill="#673ab7"/>
            <path id="Trazado_841522" data-name="Trazado 841522" d="M530.26,393.23a33.1,33.1,0,1,1-33.1-33.1,33.1,33.1,0,0,1,33.1,33.1" transform="translate(-288.434 -223.836)" fill="#ffd54f"/>
            <path id="Trazado_841523" data-name="Trazado 841523" d="M539,415.588A19.484,19.484,0,1,1,519.519,396.1,19.485,19.485,0,0,1,539,415.588" transform="translate(-310.791 -246.194)" fill="#e1b016"/>
            <path id="Trazado_841524" data-name="Trazado 841524" d="M526.3,438.57a5.491,5.491,0,1,1-5.489-5.49,5.49,5.49,0,0,1,5.489,5.49" transform="translate(-320.293 -269.176)" fill="#2a2b2a"/>
            <path id="Trazado_841525" data-name="Trazado 841525" d="M569.675,438.57a5.49,5.49,0,1,1-5.491-5.49,5.491,5.491,0,0,1,5.491,5.49" transform="translate(-347.25 -269.176)" fill="#2a2b2a"/>
            <path id="Trazado_841526" data-name="Trazado 841526" d="M546.246,440.379a4.39,4.39,0,0,1-4.389,4.39h-7.635a4.389,4.389,0,0,1,0-8.779h7.635a4.388,4.388,0,0,1,4.389,4.389" transform="translate(-329.312 -270.985)" fill="#fbbb1f"/>
            <path id="Trazado_841527" data-name="Trazado 841527" d="M329.128,72.1a41.91,41.91,0,1,0,0,59.27,41.91,41.91,0,0,0,0-59.27m-12.189,47.081a24.672,24.672,0,1,1,0-34.892,24.672,24.672,0,0,1,0,34.892" transform="translate(-160.098 -37.185)" fill="#d1bcff"/>
            <path id="Trazado_841528" data-name="Trazado 841528" d="M345.249,112.6a24.672,24.672,0,1,0,0,34.892,24.671,24.671,0,0,0,0-34.892m-19.878,15.014a6.952,6.952,0,1,1,0-9.833,6.951,6.951,0,0,1,0,9.833m14.7,14.7a6.953,6.953,0,1,1,0-9.834,6.953,6.953,0,0,1,0,9.834" transform="translate(-188.408 -65.494)" fill="#9269eb"/>
            <path id="Trazado_841529" data-name="Trazado 841529" d="M399.457,50.312q2.839,2.51,5.619,5.315l.125-.227c1.783-3.305,5.569-4.718,8.235-3.061s3,5.778.867,8.882c-2.338,3.4-.886,1.285-6.2,9.025L397.724,85.378c-3.228,4.694-9.25,1.061-6.535-3.987l10.193-18.908q-2.711-2.876-5.483-5.425L303.141,232.993l109.6-156.573c5.743-8.195,3.349-4.776,9.741-13.912,10.565-15.081-12.968-31.256-23.021-12.2" transform="translate(-188.414 -25.885)" fill="#73abab"/>
            <path id="Trazado_841530" data-name="Trazado 841530" d="M85.087,36.64C71.478,62.024,77.5,90.521,82.2,115.889c18.791,102-48.574,97.721-78.173,79.175L0,201.472c33.627,21.162,109.992,23.509,89.646-86.954-4.744-25.587-10.169-51.392,2.111-74.3C110.59,5.093,174.432-12.526,219.69,44.361l4.4-6.409C176.321-19.614,107.295-4.8,85.087,36.64" transform="translate(0 0.001)" fill="#673ab7"/>
            <rect id="Rectángulo_374615" data-name="Rectángulo 374615" width="43.906" height="59.747" transform="translate(17.55 49.247)" fill="#673ab7"/>
            <rect id="Rectángulo_374616" data-name="Rectángulo 374616" width="44.281" height="5.091" transform="translate(17.363 78.623)" fill="#d1bcff"/>
            <rect id="Rectángulo_374617" data-name="Rectángulo 374617" width="44.281" height="5.088" transform="translate(17.363 69.065)" fill="#d1bcff"/>
            <rect id="Rectángulo_374618" data-name="Rectángulo 374618" width="44.281" height="5.088" transform="translate(17.363 59.505)" fill="#d1bcff"/>
            <rect id="Rectángulo_374619" data-name="Rectángulo 374619" width="44.281" height="5.091" transform="translate(17.363 97.742)" fill="#d1bcff"/>
            <rect id="Rectángulo_374620" data-name="Rectángulo 374620" width="44.281" height="5.089" transform="translate(17.363 88.183)" fill="#d1bcff"/>
            <path id="Trazado_841531" data-name="Trazado 841531" d="M45.99,83.436V105.66H24.037l-13.6-22.224Z" transform="translate(-6.487 -51.859)" fill="#12263f"/>
            <path id="Trazado_841532" data-name="Trazado 841532" d="M139.932,83.436l-13.6,22.224H104.379V83.436Z" transform="translate(-64.875 -51.859)" fill="#12263f"/>
            <path id="Trazado_841533" data-name="Trazado 841533" d="M45.99,310.213V287.99H24.037l-13.6,22.223Z" transform="translate(-6.487 -178.997)" fill="#12263f"/>
            <path id="Trazado_841534" data-name="Trazado 841534" d="M139.932,310.213l-13.6-22.223H104.379v22.223Z" transform="translate(-64.875 -178.997)" fill="#12263f"/>
            <rect id="Rectángulo_374621" data-name="Rectángulo 374621" width="71.107" height="5.328" transform="translate(3.95 26.249)" fill="#1b4374"/>
            <rect id="Rectángulo_374622" data-name="Rectángulo 374622" width="71.107" height="5.329" transform="translate(3.95 131.216)" fill="#1b4374"/>
          </g>
        </g>
      </g>
    </g>
  </g>
</svg>
