<svg xmlns="http://www.w3.org/2000/svg" xmlns:xlink="http://www.w3.org/1999/xlink" width="304" height="107.28" viewBox="0 0 304 107.28">
  <defs>
    <clipPath id="clip-path">
      <rect id="Rectángulo_364495" data-name="Rectángulo 364495" width="270.256" height="107.28" fill="none" stroke="#12263f" stroke-width="1"/>
    </clipPath>
  </defs>
  <g id="Grupo_1069677" data-name="Grupo 1069677" transform="translate(-284.655 -6831.118)">
    <g id="Grupo_1069676" data-name="Grupo 1069676">
      <g id="Grupo_1069675" data-name="Grupo 1069675">
        <g id="Grupo_1069674" data-name="Grupo 1069674">
          <g id="Grupo_1069673" data-name="Grupo 1069673">
            <g id="Grupo_1060911" data-name="Grupo 1060911" transform="translate(-5676.88 10742.239)">
              <g id="Grupo_1060910" data-name="Grupo 1060910" transform="translate(5962.035 -3911.121)">
                <path id="Trazado_780971" data-name="Trazado 780971" d="M2.915,19.363V36.783h42.1V28.315l-7.923-7.925v7.8l-8.257-8.257v7.893l-7.7-7.7v8.181l-9.474-9.474v9.474l-8.85-8.85" transform="translate(33.942 15.152)" fill="none" stroke="#12263f" stroke-miterlimit="10" stroke-width="1"/>
                <path id="Trazado_780972" data-name="Trazado 780972" d="M66.556,19.363V36.783h44.512V28.315l-8.378-7.925v7.8l-8.73-8.257v7.893l-8.137-7.7v8.181L75.8,18.841v9.474l-9.358-8.85" transform="translate(156.9 15.152)" fill="none" stroke="#12263f" stroke-miterlimit="10" stroke-width="1"/>
                <path id="Trazado_780973" data-name="Trazado 780973" d="M118.142,10.522V32.163h44.512V21.644L154.276,11.8v9.694l-8.73-10.257v9.805l-8.137-9.561V21.644L127.391,9.874v11.77l-9.358-10.994" transform="translate(9.451 11.333)" fill="none" stroke="#12263f" stroke-miterlimit="10" stroke-width="1"/>
                <path id="Trazado_780974" data-name="Trazado 780974" d="M118.482,33.919V54.855h44.512V44.678l-8.378-9.523v9.378l-8.73-9.924V44.1l-8.137-9.251v9.832L127.731,33.291V44.678l-9.358-10.637" transform="translate(9.112 32.711)" fill="none" stroke="#12263f" stroke-miterlimit="10" stroke-width="1"/>
                <rect id="Rectángulo_364493" data-name="Rectángulo 364493" width="303" height="1.088" transform="translate(0 33.669)" fill="#161615" stroke="#12263f" stroke-width="1"/>
                <rect id="Rectángulo_364494" data-name="Rectángulo 364494" width="303" height="1.088" transform="translate(0 43.467)" fill="#161615" stroke="#12263f" stroke-width="1"/>
                <g id="Grupo_1060909" data-name="Grupo 1060909" transform="translate(32.744 0)">
                  <g id="Grupo_1060908" data-name="Grupo 1060908" clip-path="url(#clip-path)">
                    <path id="Trazado_780975" data-name="Trazado 780975" d="M6.056,0H4.665L.008,6.774c-.151.151,1.875.046,1.875.046L4,2.662l.12-.787V24.437H5.573V1.875l2.782,4.6H9.868Z" transform="translate(27.411 31.566) rotate(180)" fill="#161615" stroke="#12263f" stroke-width="1"/>
                    <path id="Trazado_780976" data-name="Trazado 780976" d="M86.22,0H84.828L80.171,6.774c-.151.151,1.875.046,1.875.046l2.117-4.158.12-.787V24.437h1.453V1.875l2.782,4.6h1.513Z" transform="translate(129.663 58.718)" fill="#161615" stroke="#12263f" stroke-width="1"/>
                    <path id="Trazado_780977" data-name="Trazado 780977" d="M158.444,56.474V55.082l-7.359-4.657c-.164-.151-.048,1.875-.048,1.875l4.517,2.117.854.12H131.9V55.99h24.507l-4.993,2.782v1.513Z" transform="translate(-17.603 42.062)" fill="#161615" stroke="#12263f" stroke-width="1"/>
                    <path id="Trazado_780978" data-name="Trazado 780978" d="M132.99,67.132v1.392l7.359,4.657c.164.151.048-1.875.048-1.875l-4.517-2.117-.854-.12h24.507V67.616H135.026l4.993-2.782V63.321Z" transform="translate(-40.079 -53.841)" fill="#161615" stroke="#12263f" stroke-width="1"/>
                  </g>
                </g>
              </g>
              <path id="Trazado_816242" data-name="Trazado 816242" d="M1.89-2.254V0H.571V-6.4h2.5a2.888,2.888,0,0,1,1.268.264,1.943,1.943,0,0,1,.842.749A2.089,2.089,0,0,1,5.471-4.28,1.837,1.837,0,0,1,4.827-2.8a2.681,2.681,0,0,1-1.782.543Zm0-1.068H3.067a1.158,1.158,0,0,0,.8-.246.9.9,0,0,0,.275-.7,1.055,1.055,0,0,0-.277-.76,1.034,1.034,0,0,0-.765-.3H1.89ZM9,0a1.41,1.41,0,0,1-.127-.426,1.537,1.537,0,0,1-1.2.514,1.688,1.688,0,0,1-1.158-.4,1.3,1.3,0,0,1-.459-1.02,1.344,1.344,0,0,1,.56-1.16A2.765,2.765,0,0,1,8.235-2.9H8.82v-.272A.784.784,0,0,0,8.651-3.7a.666.666,0,0,0-.534-.2.757.757,0,0,0-.5.154.523.523,0,0,0-.182.422H6.161a1.276,1.276,0,0,1,.255-.765,1.685,1.685,0,0,1,.721-.552,2.627,2.627,0,0,1,1.046-.2,2.075,2.075,0,0,1,1.4.442,1.545,1.545,0,0,1,.516,1.241V-1.1a2.273,2.273,0,0,0,.189,1.024V0ZM7.95-.883a1.094,1.094,0,0,0,.519-.125.823.823,0,0,0,.352-.336v-.817H8.345q-.954,0-1.015.659l0,.075a.508.508,0,0,0,.167.391A.649.649,0,0,0,7.95-.883Zm5.7-.431a.409.409,0,0,0-.231-.367,2.621,2.621,0,0,0-.74-.24q-1.7-.356-1.7-1.441A1.307,1.307,0,0,1,11.5-4.419a2.118,2.118,0,0,1,1.373-.424,2.28,2.28,0,0,1,1.448.426,1.343,1.343,0,0,1,.543,1.107H13.6a.615.615,0,0,0-.176-.45.744.744,0,0,0-.549-.178.76.76,0,0,0-.5.145.458.458,0,0,0-.176.369.391.391,0,0,0,.2.341,2.057,2.057,0,0,0,.675.224,5.51,5.51,0,0,1,.8.213A1.314,1.314,0,0,1,14.88-1.367a1.24,1.24,0,0,1-.558,1.052,2.408,2.408,0,0,1-1.441.4,2.515,2.515,0,0,1-1.061-.213,1.781,1.781,0,0,1-.727-.584,1.358,1.358,0,0,1-.264-.8h1.2a.663.663,0,0,0,.25.519.994.994,0,0,0,.624.18.92.92,0,0,0,.552-.138A.431.431,0,0,0,13.645-1.314ZM15.5-2.421a2.82,2.82,0,0,1,.272-1.261,2,2,0,0,1,.784-.857,2.289,2.289,0,0,1,1.189-.3,2.165,2.165,0,0,1,1.571.589A2.363,2.363,0,0,1,20-2.654L20-2.329a2.485,2.485,0,0,1-.611,1.756,2.123,2.123,0,0,1-1.639.661,2.134,2.134,0,0,1-1.641-.659A2.529,2.529,0,0,1,15.5-2.364Zm1.27.092a1.773,1.773,0,0,0,.255,1.035.841.841,0,0,0,.729.358.843.843,0,0,0,.721-.354,1.94,1.94,0,0,0,.259-1.132,1.755,1.755,0,0,0-.259-1.028.843.843,0,0,0-.729-.365.829.829,0,0,0-.721.363A1.972,1.972,0,0,0,16.77-2.329ZM27.36,0H22.975V-.87l2.07-2.206a5.106,5.106,0,0,0,.631-.813,1.306,1.306,0,0,0,.2-.659.977.977,0,0,0-.215-.67.777.777,0,0,0-.615-.244.838.838,0,0,0-.679.3,1.175,1.175,0,0,0-.248.78H22.847a2.1,2.1,0,0,1,.279-1.068,1.967,1.967,0,0,1,.789-.758,2.4,2.4,0,0,1,1.156-.275,2.27,2.27,0,0,1,1.536.475,1.679,1.679,0,0,1,.547,1.34,2.151,2.151,0,0,1-.246.967,5.373,5.373,0,0,1-.844,1.147L24.609-1.024H27.36Z" transform="translate(6116.958 -3899.312)" fill="#12263f"/>
              <path id="Trazado_816241" data-name="Trazado 816241" d="M1.89-2.254V0H.571V-6.4h2.5a2.888,2.888,0,0,1,1.268.264,1.943,1.943,0,0,1,.842.749A2.089,2.089,0,0,1,5.471-4.28,1.837,1.837,0,0,1,4.827-2.8a2.681,2.681,0,0,1-1.782.543Zm0-1.068H3.067a1.158,1.158,0,0,0,.8-.246.9.9,0,0,0,.275-.7,1.055,1.055,0,0,0-.277-.76,1.034,1.034,0,0,0-.765-.3H1.89ZM9,0a1.41,1.41,0,0,1-.127-.426,1.537,1.537,0,0,1-1.2.514,1.688,1.688,0,0,1-1.158-.4,1.3,1.3,0,0,1-.459-1.02,1.344,1.344,0,0,1,.56-1.16A2.765,2.765,0,0,1,8.235-2.9H8.82v-.272A.784.784,0,0,0,8.651-3.7a.666.666,0,0,0-.534-.2.757.757,0,0,0-.5.154.523.523,0,0,0-.182.422H6.161a1.276,1.276,0,0,1,.255-.765,1.685,1.685,0,0,1,.721-.552,2.627,2.627,0,0,1,1.046-.2,2.075,2.075,0,0,1,1.4.442,1.545,1.545,0,0,1,.516,1.241V-1.1a2.273,2.273,0,0,0,.189,1.024V0ZM7.95-.883a1.094,1.094,0,0,0,.519-.125.823.823,0,0,0,.352-.336v-.817H8.345q-.954,0-1.015.659l0,.075a.508.508,0,0,0,.167.391A.649.649,0,0,0,7.95-.883Zm5.7-.431a.409.409,0,0,0-.231-.367,2.621,2.621,0,0,0-.74-.24q-1.7-.356-1.7-1.441A1.307,1.307,0,0,1,11.5-4.419a2.118,2.118,0,0,1,1.373-.424,2.28,2.28,0,0,1,1.448.426,1.343,1.343,0,0,1,.543,1.107H13.6a.615.615,0,0,0-.176-.45.744.744,0,0,0-.549-.178.76.76,0,0,0-.5.145.458.458,0,0,0-.176.369.391.391,0,0,0,.2.341,2.057,2.057,0,0,0,.675.224,5.51,5.51,0,0,1,.8.213A1.314,1.314,0,0,1,14.88-1.367a1.24,1.24,0,0,1-.558,1.052,2.408,2.408,0,0,1-1.441.4,2.515,2.515,0,0,1-1.061-.213,1.781,1.781,0,0,1-.727-.584,1.358,1.358,0,0,1-.264-.8h1.2a.663.663,0,0,0,.25.519.994.994,0,0,0,.624.18.92.92,0,0,0,.552-.138A.431.431,0,0,0,13.645-1.314ZM15.5-2.421a2.82,2.82,0,0,1,.272-1.261,2,2,0,0,1,.784-.857,2.289,2.289,0,0,1,1.189-.3,2.165,2.165,0,0,1,1.571.589A2.363,2.363,0,0,1,20-2.654L20-2.329a2.485,2.485,0,0,1-.611,1.756,2.123,2.123,0,0,1-1.639.661,2.134,2.134,0,0,1-1.641-.659A2.529,2.529,0,0,1,15.5-2.364Zm1.27.092a1.773,1.773,0,0,0,.255,1.035.841.841,0,0,0,.729.358.843.843,0,0,0,.721-.354,1.94,1.94,0,0,0,.259-1.132,1.755,1.755,0,0,0-.259-1.028.843.843,0,0,0-.729-.365.829.829,0,0,0-.721.363A1.972,1.972,0,0,0,16.77-2.329Zm7.5-1.433h.677A.954.954,0,0,0,25.66-4a.886.886,0,0,0,.233-.642.783.783,0,0,0-.231-.6.894.894,0,0,0-.635-.215.937.937,0,0,0-.611.2.639.639,0,0,0-.246.521H22.9a1.562,1.562,0,0,1,.27-.9,1.8,1.8,0,0,1,.756-.622A2.523,2.523,0,0,1,25-6.486,2.392,2.392,0,0,1,26.587-6a1.657,1.657,0,0,1,.576,1.338,1.346,1.346,0,0,1-.268.809,1.742,1.742,0,0,1-.7.567,1.59,1.59,0,0,1,.806.58,1.574,1.574,0,0,1,.266.914,1.684,1.684,0,0,1-.622,1.367A2.5,2.5,0,0,1,25,.088a2.371,2.371,0,0,1-1.567-.505,1.65,1.65,0,0,1-.609-1.336h1.27a.736.736,0,0,0,.27.589,1,1,0,0,0,.666.229,1,1,0,0,0,.71-.24.827.827,0,0,0,.257-.635q0-.958-1.055-.958h-.672Z" transform="translate(5964.312 -3888.142)" fill="#12263f"/>
              <path id="Trazado_816240" data-name="Trazado 816240" d="M1.89-2.254V0H.571V-6.4h2.5a2.888,2.888,0,0,1,1.268.264,1.943,1.943,0,0,1,.842.749A2.089,2.089,0,0,1,5.471-4.28,1.837,1.837,0,0,1,4.827-2.8a2.681,2.681,0,0,1-1.782.543Zm0-1.068H3.067a1.158,1.158,0,0,0,.8-.246.9.9,0,0,0,.275-.7,1.055,1.055,0,0,0-.277-.76,1.034,1.034,0,0,0-.765-.3H1.89ZM9,0a1.41,1.41,0,0,1-.127-.426,1.537,1.537,0,0,1-1.2.514,1.688,1.688,0,0,1-1.158-.4,1.3,1.3,0,0,1-.459-1.02,1.344,1.344,0,0,1,.56-1.16A2.765,2.765,0,0,1,8.235-2.9H8.82v-.272A.784.784,0,0,0,8.651-3.7a.666.666,0,0,0-.534-.2.757.757,0,0,0-.5.154.523.523,0,0,0-.182.422H6.161a1.276,1.276,0,0,1,.255-.765,1.685,1.685,0,0,1,.721-.552,2.627,2.627,0,0,1,1.046-.2,2.075,2.075,0,0,1,1.4.442,1.545,1.545,0,0,1,.516,1.241V-1.1a2.273,2.273,0,0,0,.189,1.024V0ZM7.95-.883a1.094,1.094,0,0,0,.519-.125.823.823,0,0,0,.352-.336v-.817H8.345q-.954,0-1.015.659l0,.075a.508.508,0,0,0,.167.391A.649.649,0,0,0,7.95-.883Zm5.7-.431a.409.409,0,0,0-.231-.367,2.621,2.621,0,0,0-.74-.24q-1.7-.356-1.7-1.441A1.307,1.307,0,0,1,11.5-4.419a2.118,2.118,0,0,1,1.373-.424,2.28,2.28,0,0,1,1.448.426,1.343,1.343,0,0,1,.543,1.107H13.6a.615.615,0,0,0-.176-.45.744.744,0,0,0-.549-.178.76.76,0,0,0-.5.145.458.458,0,0,0-.176.369.391.391,0,0,0,.2.341,2.057,2.057,0,0,0,.675.224,5.51,5.51,0,0,1,.8.213A1.314,1.314,0,0,1,14.88-1.367a1.24,1.24,0,0,1-.558,1.052,2.408,2.408,0,0,1-1.441.4,2.515,2.515,0,0,1-1.061-.213,1.781,1.781,0,0,1-.727-.584,1.358,1.358,0,0,1-.264-.8h1.2a.663.663,0,0,0,.25.519.994.994,0,0,0,.624.18.92.92,0,0,0,.552-.138A.431.431,0,0,0,13.645-1.314ZM15.5-2.421a2.82,2.82,0,0,1,.272-1.261,2,2,0,0,1,.784-.857,2.289,2.289,0,0,1,1.189-.3,2.165,2.165,0,0,1,1.571.589A2.363,2.363,0,0,1,20-2.654L20-2.329a2.485,2.485,0,0,1-.611,1.756,2.123,2.123,0,0,1-1.639.661,2.134,2.134,0,0,1-1.641-.659A2.529,2.529,0,0,1,15.5-2.364Zm1.27.092a1.773,1.773,0,0,0,.255,1.035.841.841,0,0,0,.729.358.843.843,0,0,0,.721-.354,1.94,1.94,0,0,0,.259-1.132,1.755,1.755,0,0,0-.259-1.028.843.843,0,0,0-.729-.365.829.829,0,0,0-.721.363A1.972,1.972,0,0,0,16.77-2.329Zm9.962-.079h.725v1.024h-.725V0h-1.27V-1.384H22.838l-.057-.8L25.449-6.4h1.283Zm-2.685,0h1.415V-4.667l-.083.145Z" transform="translate(6062.973 -3813.681)" fill="#12263f"/>
              <path id="Trazado_816239" data-name="Trazado 816239" d="M1.89-2.254V0H.571V-6.4h2.5a2.888,2.888,0,0,1,1.268.264,1.943,1.943,0,0,1,.842.749A2.089,2.089,0,0,1,5.471-4.28,1.837,1.837,0,0,1,4.827-2.8a2.681,2.681,0,0,1-1.782.543Zm0-1.068H3.067a1.158,1.158,0,0,0,.8-.246.9.9,0,0,0,.275-.7,1.055,1.055,0,0,0-.277-.76,1.034,1.034,0,0,0-.765-.3H1.89ZM9,0a1.41,1.41,0,0,1-.127-.426,1.537,1.537,0,0,1-1.2.514,1.688,1.688,0,0,1-1.158-.4,1.3,1.3,0,0,1-.459-1.02,1.344,1.344,0,0,1,.56-1.16A2.765,2.765,0,0,1,8.235-2.9H8.82v-.272A.784.784,0,0,0,8.651-3.7a.666.666,0,0,0-.534-.2.757.757,0,0,0-.5.154.523.523,0,0,0-.182.422H6.161a1.276,1.276,0,0,1,.255-.765,1.685,1.685,0,0,1,.721-.552,2.627,2.627,0,0,1,1.046-.2,2.075,2.075,0,0,1,1.4.442,1.545,1.545,0,0,1,.516,1.241V-1.1a2.273,2.273,0,0,0,.189,1.024V0ZM7.95-.883a1.094,1.094,0,0,0,.519-.125.823.823,0,0,0,.352-.336v-.817H8.345q-.954,0-1.015.659l0,.075a.508.508,0,0,0,.167.391A.649.649,0,0,0,7.95-.883Zm5.7-.431a.409.409,0,0,0-.231-.367,2.621,2.621,0,0,0-.74-.24q-1.7-.356-1.7-1.441A1.307,1.307,0,0,1,11.5-4.419a2.118,2.118,0,0,1,1.373-.424,2.28,2.28,0,0,1,1.448.426,1.343,1.343,0,0,1,.543,1.107H13.6a.615.615,0,0,0-.176-.45.744.744,0,0,0-.549-.178.76.76,0,0,0-.5.145.458.458,0,0,0-.176.369.391.391,0,0,0,.2.341,2.057,2.057,0,0,0,.675.224,5.51,5.51,0,0,1,.8.213A1.314,1.314,0,0,1,14.88-1.367a1.24,1.24,0,0,1-.558,1.052,2.408,2.408,0,0,1-1.441.4,2.515,2.515,0,0,1-1.061-.213,1.781,1.781,0,0,1-.727-.584,1.358,1.358,0,0,1-.264-.8h1.2a.663.663,0,0,0,.25.519.994.994,0,0,0,.624.18.92.92,0,0,0,.552-.138A.431.431,0,0,0,13.645-1.314ZM15.5-2.421a2.82,2.82,0,0,1,.272-1.261,2,2,0,0,1,.784-.857,2.289,2.289,0,0,1,1.189-.3,2.165,2.165,0,0,1,1.571.589A2.363,2.363,0,0,1,20-2.654L20-2.329a2.485,2.485,0,0,1-.611,1.756,2.123,2.123,0,0,1-1.639.661,2.134,2.134,0,0,1-1.641-.659A2.529,2.529,0,0,1,15.5-2.364Zm1.27.092a1.773,1.773,0,0,0,.255,1.035.841.841,0,0,0,.729.358.843.843,0,0,0,.721-.354,1.94,1.94,0,0,0,.259-1.132,1.755,1.755,0,0,0-.259-1.028.843.843,0,0,0-.729-.365.829.829,0,0,0-.721.363A1.972,1.972,0,0,0,16.77-2.329ZM26.06,0H24.79V-4.9l-1.516.47V-5.458l2.65-.949h.136Z" transform="translate(6213.757 -3832.296)" fill="#12263f"/>
            </g>
          </g>
        </g>
      </g>
    </g>
  </g>
</svg>
