<svg xmlns="http://www.w3.org/2000/svg" width="330.418" height="204.999" viewBox="0 0 330.418 204.999">
  <g id="Grupo_1069681" data-name="Grupo 1069681" transform="translate(-629.655 -6822.118)">
    <g id="Grupo_1069680" data-name="Grupo 1069680">
      <g id="Grupo_1069679" data-name="Grupo 1069679">
        <g id="Grupo_1069678" data-name="Grupo 1069678">
          <g id="Grupo_1060914" data-name="Grupo 1060914" transform="translate(656.335 6885.657)">
            <g id="Grupo_1060912" data-name="Grupo 1060912" transform="translate(0 0)">
              <path id="Trazado_780979" data-name="Trazado 780979" d="M.5,28.516V81.753L11.943,99.416l11.443-18.16V28.766" transform="translate(-0.5 -28.516)" fill="none" stroke="#12263f" stroke-miterlimit="10" stroke-width="1"/>
              <path id="Trazado_780980" data-name="Trazado 780980" d="M6.113,28.516V74.041h9.454V28.516" transform="translate(1.101 -28.516)" fill="none" stroke="#12263f" stroke-miterlimit="10" stroke-width="1"/>
              <path id="Trazado_780981" data-name="Trazado 780981" d="M15.428,65.1c0,5.382-2.172,9.744-4.851,9.744S5.726,70.481,5.726,65.1s2.171-9.744,4.851-9.744,4.851,4.362,4.851,9.744" transform="translate(0.991 -20.859)" fill="#fff" stroke="#12263f" stroke-width="1"/>
              <ellipse id="Elipse_4962" data-name="Elipse 4962" cx="4.851" cy="9.744" rx="4.851" ry="9.744" transform="translate(6.717 34.496)" fill="none" stroke="#12263f" stroke-miterlimit="10" stroke-width="1.043"/>
            </g>
          </g>
          <g id="Grupo_1060915" data-name="Grupo 1060915" transform="translate(770.505 6822.118)">
            <g id="Grupo_1060912-2" data-name="Grupo 1060912">
              <path id="Trazado_780979-2" data-name="Trazado 780979" d="M.5,28.516v43.04l7.8,14.28,7.8-14.682V28.718" transform="translate(-0.5 -28.516)" fill="none" stroke="#12263f" stroke-miterlimit="10" stroke-width="1"/>
              <path id="Trazado_780980-2" data-name="Trazado 780980" d="M6.113,28.516V63.645h9.454V28.516" transform="translate(-2.817 -28.516)" fill="none" stroke="#12263f" stroke-miterlimit="10" stroke-width="1"/>
              <path id="Trazado_780981-2" data-name="Trazado 780981" d="M15.428,62.353c0,3.865-2.172,7-4.851,7s-4.851-3.133-4.851-7,2.171-7,4.851-7,4.851,3.133,4.851,7" transform="translate(-2.726 -24.479)" fill="#fff" stroke="#12263f" stroke-width="1"/>
            </g>
          </g>
          <path id="Trazado_780985" data-name="Trazado 780985" d="M188.887,0V83.187l9.785,27.6,9.785-28.377V.388" transform="translate(704.445 6846.735)" fill="none" stroke="#12263f" stroke-miterlimit="10" stroke-width="1.156"/>
          <path id="Trazado_780986" data-name="Trazado 780986" d="M195.123,0V89.557h4.06V0" transform="translate(706.224 6846.735)" fill="none" stroke="#12263f" stroke-miterlimit="10" stroke-width="0.919"/>
          <path id="Trazado_780987" data-name="Trazado 780987" d="M201.651,72.233c0,4.085-1.857,7.4-4.148,7.4s-4.148-3.311-4.148-7.4,1.856-7.4,4.148-7.4,4.148,3.311,4.148,7.4" transform="translate(705.719 6865.234)" fill="#fff" stroke="#12263f" stroke-width="1"/>
          <ellipse id="Elipse_4964" data-name="Elipse 4964" cx="4.148" cy="7.396" rx="4.148" ry="7.396" transform="translate(899.075 6930.071)" fill="none" stroke="#12263f" stroke-miterlimit="10" stroke-width="0.84"/>
          <path id="Trazado_780971" data-name="Trazado 780971" d="M2.941,19.494v21.8H55.622V30.7L45.707,20.78v9.765L35.375,20.213v9.877l-9.631-9.631V30.7L13.887,18.841V30.7L2.813,19.622" transform="translate(641.825 6940.734)" fill="none" stroke="#12263f" stroke-miterlimit="10" stroke-width="1"/>
          <path id="Trazado_780972" data-name="Trazado 780972" d="M66.583,19.494v21.8h55.7V30.7L111.8,20.78v9.765L100.876,20.213v9.877L90.693,20.459V30.7L78.157,18.841V30.7L66.447,19.622" transform="translate(811.69 6940.734)" fill="none" stroke="#12263f" stroke-miterlimit="10" stroke-width="1"/>
          <path id="Trazado_780973" data-name="Trazado 780973" d="M118.169,10.685V37.766h55.7V24.6L163.387,12.284V24.415L152.462,11.579v12.27L142.28,11.884V24.6L129.744,9.873V24.6l-11.71-13.758" transform="translate(640.143 6933.702)" fill="none" stroke="#12263f" stroke-miterlimit="10" stroke-width="1"/>
          <path id="Trazado_780974" data-name="Trazado 780974" d="M118.509,34.076v26.2h55.7V47.54L163.726,35.623V47.358L152.8,34.94V46.812L142.619,35.236v12.3L130.083,33.291V47.54l-11.71-13.31" transform="translate(639.803 6966.34)" fill="none" stroke="#12263f" stroke-miterlimit="10" stroke-width="1"/>
          <rect id="Rect치ngulo_364493" data-name="Rect치ngulo 364493" width="329.418" height="1.361" transform="translate(630.155 6959.17)" fill="#161615" stroke="#12263f" stroke-width="1"/>
          <rect id="Rect치ngulo_364494" data-name="Rect치ngulo 364494" width="329.418" height="1.361" transform="translate(630.155 6971.431)" fill="#161615" stroke="#12263f" stroke-width="1"/>
          <path id="Trazado_780975" data-name="Trazado 780975" d="M7.579,0H5.837L.01,8.477c-.189.189,2.346.057,2.346.057l2.65-5.2.15-.985V30.58H6.974V2.346L10.455,8.1h1.893Z" transform="translate(928.414 6930.071) rotate(180)" fill="#161615" stroke="#12263f" stroke-width="1"/>
          <path id="Trazado_780976" data-name="Trazado 780976" d="M87.742,0H86L80.173,8.477c-.189.189,2.346.057,2.346.057l2.65-5.2.15-.985V30.58h1.818V2.346L90.618,8.1h1.893Z" transform="translate(558.301 6917.816)" fill="#161615" stroke="#12263f" stroke-width="1"/>
          <path id="Trazado_780988" data-name="Trazado 780988" d="M87.742,0H86L80.173,8.477c-.189.189,2.346.057,2.346.057l2.65-5.2.15-.985V30.58h1.818V2.346L90.618,8.1h1.893Z" transform="translate(817.04 6988.967)" fill="#161615" stroke="#12263f" stroke-width="1"/>
          <path id="Trazado_816246" data-name="Trazado 816246" d="M2.31-2.755V0H.7V-7.82H3.749A3.53,3.53,0,0,1,5.3-7.5a2.375,2.375,0,0,1,1.029.916,2.553,2.553,0,0,1,.36,1.351A2.245,2.245,0,0,1,5.9-3.419a3.277,3.277,0,0,1-2.178.663Zm0-1.305H3.749a1.415,1.415,0,0,0,.975-.3,1.094,1.094,0,0,0,.336-.859,1.29,1.29,0,0,0-.338-.929,1.264,1.264,0,0,0-.935-.365H2.31ZM11,0a1.724,1.724,0,0,1-.156-.521A1.878,1.878,0,0,1,9.378.107,2.063,2.063,0,0,1,7.963-.387,1.589,1.589,0,0,1,7.4-1.633a1.642,1.642,0,0,1,.685-1.418,3.379,3.379,0,0,1,1.979-.5h.714v-.333a.958.958,0,0,0-.207-.645A.813.813,0,0,0,9.92-4.77a.925.925,0,0,0-.615.188.639.639,0,0,0-.223.516H7.53A1.559,1.559,0,0,1,7.842-5a2.059,2.059,0,0,1,.881-.674A3.21,3.21,0,0,1,10-5.919a2.536,2.536,0,0,1,1.705.54,1.888,1.888,0,0,1,.631,1.517v2.519a2.778,2.778,0,0,0,.231,1.251V0ZM9.716-1.08a1.337,1.337,0,0,0,.634-.153,1,1,0,0,0,.43-.411v-1H10.2q-1.166,0-1.241.806l-.005.091a.621.621,0,0,0,.2.478A.793.793,0,0,0,9.716-1.08Zm6.961-.526a.5.5,0,0,0-.282-.448,3.2,3.2,0,0,0-.905-.293q-2.073-.435-2.073-1.762A1.6,1.6,0,0,1,14.059-5.4a2.589,2.589,0,0,1,1.678-.518,2.787,2.787,0,0,1,1.77.521,1.642,1.642,0,0,1,.663,1.354H16.618a.751.751,0,0,0-.215-.551.909.909,0,0,0-.671-.218.929.929,0,0,0-.607.177.56.56,0,0,0-.215.451.478.478,0,0,0,.244.416,2.514,2.514,0,0,0,.824.274,6.734,6.734,0,0,1,.978.26,1.606,1.606,0,0,1,1.23,1.563A1.516,1.516,0,0,1,17.5-.384a2.943,2.943,0,0,1-1.762.491,3.073,3.073,0,0,1-1.3-.26,2.176,2.176,0,0,1-.889-.714,1.66,1.66,0,0,1-.322-.98h1.472a.81.81,0,0,0,.306.634,1.214,1.214,0,0,0,.763.22,1.124,1.124,0,0,0,.674-.169A.526.526,0,0,0,16.677-1.606Zm2.267-1.354A3.447,3.447,0,0,1,19.277-4.5a2.438,2.438,0,0,1,.959-1.047,2.8,2.8,0,0,1,1.453-.371,2.646,2.646,0,0,1,1.92.72,2.889,2.889,0,0,1,.83,1.955l.011.4A3.038,3.038,0,0,1,23.7-.7a2.6,2.6,0,0,1-2,.808A2.608,2.608,0,0,1,19.693-.7a3.091,3.091,0,0,1-.749-2.191Zm1.552.113a2.166,2.166,0,0,0,.312,1.265,1.028,1.028,0,0,0,.892.438,1.031,1.031,0,0,0,.881-.432A2.371,2.371,0,0,0,22.9-2.959a2.145,2.145,0,0,0-.317-1.257,1.031,1.031,0,0,0-.892-.446,1.014,1.014,0,0,0-.881.443A2.41,2.41,0,0,0,20.5-2.847ZM33.44,0H28.08V-1.063l2.53-2.7a6.241,6.241,0,0,0,.771-.994,1.6,1.6,0,0,0,.25-.806,1.2,1.2,0,0,0-.263-.819.95.95,0,0,0-.752-.3,1.025,1.025,0,0,0-.83.363,1.436,1.436,0,0,0-.3.953H27.924a2.564,2.564,0,0,1,.341-1.305,2.4,2.4,0,0,1,.964-.927,2.93,2.93,0,0,1,1.413-.336,2.775,2.775,0,0,1,1.877.58,2.052,2.052,0,0,1,.669,1.638,2.629,2.629,0,0,1-.3,1.182,6.566,6.566,0,0,1-1.031,1.4L30.078-1.251H33.44Z" transform="translate(851.637 6913.678)" fill="#12263f"/>
          <path id="Trazado_816243" data-name="Trazado 816243" d="M2.31-2.755V0H.7V-7.82H3.749A3.53,3.53,0,0,1,5.3-7.5a2.375,2.375,0,0,1,1.029.916,2.553,2.553,0,0,1,.36,1.351A2.245,2.245,0,0,1,5.9-3.419a3.277,3.277,0,0,1-2.178.663Zm0-1.305H3.749a1.415,1.415,0,0,0,.975-.3,1.094,1.094,0,0,0,.336-.859,1.29,1.29,0,0,0-.338-.929,1.264,1.264,0,0,0-.935-.365H2.31ZM11,0a1.724,1.724,0,0,1-.156-.521A1.878,1.878,0,0,1,9.378.107,2.063,2.063,0,0,1,7.963-.387,1.589,1.589,0,0,1,7.4-1.633a1.642,1.642,0,0,1,.685-1.418,3.379,3.379,0,0,1,1.979-.5h.714v-.333a.958.958,0,0,0-.207-.645A.813.813,0,0,0,9.92-4.77a.925.925,0,0,0-.615.188.639.639,0,0,0-.223.516H7.53A1.559,1.559,0,0,1,7.842-5a2.059,2.059,0,0,1,.881-.674A3.21,3.21,0,0,1,10-5.919a2.536,2.536,0,0,1,1.705.54,1.888,1.888,0,0,1,.631,1.517v2.519a2.778,2.778,0,0,0,.231,1.251V0ZM9.716-1.08a1.337,1.337,0,0,0,.634-.153,1,1,0,0,0,.43-.411v-1H10.2q-1.166,0-1.241.806l-.005.091a.621.621,0,0,0,.2.478A.793.793,0,0,0,9.716-1.08Zm6.961-.526a.5.5,0,0,0-.282-.448,3.2,3.2,0,0,0-.905-.293q-2.073-.435-2.073-1.762A1.6,1.6,0,0,1,14.059-5.4a2.589,2.589,0,0,1,1.678-.518,2.787,2.787,0,0,1,1.77.521,1.642,1.642,0,0,1,.663,1.354H16.618a.751.751,0,0,0-.215-.551.909.909,0,0,0-.671-.218.929.929,0,0,0-.607.177.56.56,0,0,0-.215.451.478.478,0,0,0,.244.416,2.514,2.514,0,0,0,.824.274,6.734,6.734,0,0,1,.978.26,1.606,1.606,0,0,1,1.23,1.563A1.516,1.516,0,0,1,17.5-.384a2.943,2.943,0,0,1-1.762.491,3.073,3.073,0,0,1-1.3-.26,2.176,2.176,0,0,1-.889-.714,1.66,1.66,0,0,1-.322-.98h1.472a.81.81,0,0,0,.306.634,1.214,1.214,0,0,0,.763.22,1.124,1.124,0,0,0,.674-.169A.526.526,0,0,0,16.677-1.606Zm2.267-1.354A3.447,3.447,0,0,1,19.277-4.5a2.438,2.438,0,0,1,.959-1.047,2.8,2.8,0,0,1,1.453-.371,2.646,2.646,0,0,1,1.92.72,2.889,2.889,0,0,1,.83,1.955l.011.4A3.038,3.038,0,0,1,23.7-.7a2.6,2.6,0,0,1-2,.808A2.608,2.608,0,0,1,19.693-.7a3.091,3.091,0,0,1-.749-2.191Zm1.552.113a2.166,2.166,0,0,0,.312,1.265,1.028,1.028,0,0,0,.892.438,1.031,1.031,0,0,0,.881-.432A2.371,2.371,0,0,0,22.9-2.959a2.145,2.145,0,0,0-.317-1.257,1.031,1.031,0,0,0-.892-.446,1.014,1.014,0,0,0-.881.443A2.41,2.41,0,0,0,20.5-2.847ZM29.659-4.6h.827a1.166,1.166,0,0,0,.875-.3,1.082,1.082,0,0,0,.285-.784.957.957,0,0,0-.282-.736,1.093,1.093,0,0,0-.776-.263,1.145,1.145,0,0,0-.747.244.781.781,0,0,0-.3.636H27.989a1.909,1.909,0,0,1,.33-1.1,2.2,2.2,0,0,1,.924-.76,3.083,3.083,0,0,1,1.308-.274,2.924,2.924,0,0,1,1.944.594A2.025,2.025,0,0,1,33.2-5.7a1.646,1.646,0,0,1-.328.988,2.129,2.129,0,0,1-.859.693A1.943,1.943,0,0,1,33-3.309a1.923,1.923,0,0,1,.325,1.117,2.059,2.059,0,0,1-.76,1.67,3.056,3.056,0,0,1-2.011.628A2.9,2.9,0,0,1,28.636-.51a2.017,2.017,0,0,1-.744-1.633h1.552a.9.9,0,0,0,.33.72,1.217,1.217,0,0,0,.814.279,1.223,1.223,0,0,0,.867-.293,1.01,1.01,0,0,0,.314-.776q0-1.171-1.289-1.171h-.822Z" transform="translate(709.46 7022.478)" fill="#12263f"/>
          <path id="Trazado_816244" data-name="Trazado 816244" d="M2.31-2.755V0H.7V-7.82H3.749A3.53,3.53,0,0,1,5.3-7.5a2.375,2.375,0,0,1,1.029.916,2.553,2.553,0,0,1,.36,1.351A2.245,2.245,0,0,1,5.9-3.419a3.277,3.277,0,0,1-2.178.663Zm0-1.305H3.749a1.415,1.415,0,0,0,.975-.3,1.094,1.094,0,0,0,.336-.859,1.29,1.29,0,0,0-.338-.929,1.264,1.264,0,0,0-.935-.365H2.31ZM11,0a1.724,1.724,0,0,1-.156-.521A1.878,1.878,0,0,1,9.378.107,2.063,2.063,0,0,1,7.963-.387,1.589,1.589,0,0,1,7.4-1.633a1.642,1.642,0,0,1,.685-1.418,3.379,3.379,0,0,1,1.979-.5h.714v-.333a.958.958,0,0,0-.207-.645A.813.813,0,0,0,9.92-4.77a.925.925,0,0,0-.615.188.639.639,0,0,0-.223.516H7.53A1.559,1.559,0,0,1,7.842-5a2.059,2.059,0,0,1,.881-.674A3.21,3.21,0,0,1,10-5.919a2.536,2.536,0,0,1,1.705.54,1.888,1.888,0,0,1,.631,1.517v2.519a2.778,2.778,0,0,0,.231,1.251V0ZM9.716-1.08a1.337,1.337,0,0,0,.634-.153,1,1,0,0,0,.43-.411v-1H10.2q-1.166,0-1.241.806l-.005.091a.621.621,0,0,0,.2.478A.793.793,0,0,0,9.716-1.08Zm6.961-.526a.5.5,0,0,0-.282-.448,3.2,3.2,0,0,0-.905-.293q-2.073-.435-2.073-1.762A1.6,1.6,0,0,1,14.059-5.4a2.589,2.589,0,0,1,1.678-.518,2.787,2.787,0,0,1,1.77.521,1.642,1.642,0,0,1,.663,1.354H16.618a.751.751,0,0,0-.215-.551.909.909,0,0,0-.671-.218.929.929,0,0,0-.607.177.56.56,0,0,0-.215.451.478.478,0,0,0,.244.416,2.514,2.514,0,0,0,.824.274,6.734,6.734,0,0,1,.978.26,1.606,1.606,0,0,1,1.23,1.563A1.516,1.516,0,0,1,17.5-.384a2.943,2.943,0,0,1-1.762.491,3.073,3.073,0,0,1-1.3-.26,2.176,2.176,0,0,1-.889-.714,1.66,1.66,0,0,1-.322-.98h1.472a.81.81,0,0,0,.306.634,1.214,1.214,0,0,0,.763.22,1.124,1.124,0,0,0,.674-.169A.526.526,0,0,0,16.677-1.606Zm2.267-1.354A3.447,3.447,0,0,1,19.277-4.5a2.438,2.438,0,0,1,.959-1.047,2.8,2.8,0,0,1,1.453-.371,2.646,2.646,0,0,1,1.92.72,2.889,2.889,0,0,1,.83,1.955l.011.4A3.038,3.038,0,0,1,23.7-.7a2.6,2.6,0,0,1-2,.808A2.608,2.608,0,0,1,19.693-.7a3.091,3.091,0,0,1-.749-2.191Zm1.552.113a2.166,2.166,0,0,0,.312,1.265,1.028,1.028,0,0,0,.892.438,1.031,1.031,0,0,0,.881-.432A2.371,2.371,0,0,0,22.9-2.959a2.145,2.145,0,0,0-.317-1.257,1.031,1.031,0,0,0-.892-.446,1.014,1.014,0,0,0-.881.443A2.41,2.41,0,0,0,20.5-2.847Zm12.176-.1h.886v1.251h-.886V0H31.12V-1.692H27.914l-.07-.978L31.1-7.82h1.568Zm-3.282,0H31.12V-5.7l-.1.177Z" transform="translate(653.047 6874.188)" fill="#12263f"/>
          <path id="Trazado_816245" data-name="Trazado 816245" d="M2.31-2.755V0H.7V-7.82H3.749A3.53,3.53,0,0,1,5.3-7.5a2.375,2.375,0,0,1,1.029.916,2.553,2.553,0,0,1,.36,1.351A2.245,2.245,0,0,1,5.9-3.419a3.277,3.277,0,0,1-2.178.663Zm0-1.305H3.749a1.415,1.415,0,0,0,.975-.3,1.094,1.094,0,0,0,.336-.859,1.29,1.29,0,0,0-.338-.929,1.264,1.264,0,0,0-.935-.365H2.31ZM11,0a1.724,1.724,0,0,1-.156-.521A1.878,1.878,0,0,1,9.378.107,2.063,2.063,0,0,1,7.963-.387,1.589,1.589,0,0,1,7.4-1.633a1.642,1.642,0,0,1,.685-1.418,3.379,3.379,0,0,1,1.979-.5h.714v-.333a.958.958,0,0,0-.207-.645A.813.813,0,0,0,9.92-4.77a.925.925,0,0,0-.615.188.639.639,0,0,0-.223.516H7.53A1.559,1.559,0,0,1,7.842-5a2.059,2.059,0,0,1,.881-.674A3.21,3.21,0,0,1,10-5.919a2.536,2.536,0,0,1,1.705.54,1.888,1.888,0,0,1,.631,1.517v2.519a2.778,2.778,0,0,0,.231,1.251V0ZM9.716-1.08a1.337,1.337,0,0,0,.634-.153,1,1,0,0,0,.43-.411v-1H10.2q-1.166,0-1.241.806l-.005.091a.621.621,0,0,0,.2.478A.793.793,0,0,0,9.716-1.08Zm6.961-.526a.5.5,0,0,0-.282-.448,3.2,3.2,0,0,0-.905-.293q-2.073-.435-2.073-1.762A1.6,1.6,0,0,1,14.059-5.4a2.589,2.589,0,0,1,1.678-.518,2.787,2.787,0,0,1,1.77.521,1.642,1.642,0,0,1,.663,1.354H16.618a.751.751,0,0,0-.215-.551.909.909,0,0,0-.671-.218.929.929,0,0,0-.607.177.56.56,0,0,0-.215.451.478.478,0,0,0,.244.416,2.514,2.514,0,0,0,.824.274,6.734,6.734,0,0,1,.978.26,1.606,1.606,0,0,1,1.23,1.563A1.516,1.516,0,0,1,17.5-.384a2.943,2.943,0,0,1-1.762.491,3.073,3.073,0,0,1-1.3-.26,2.176,2.176,0,0,1-.889-.714,1.66,1.66,0,0,1-.322-.98h1.472a.81.81,0,0,0,.306.634,1.214,1.214,0,0,0,.763.22,1.124,1.124,0,0,0,.674-.169A.526.526,0,0,0,16.677-1.606Zm2.267-1.354A3.447,3.447,0,0,1,19.277-4.5a2.438,2.438,0,0,1,.959-1.047,2.8,2.8,0,0,1,1.453-.371,2.646,2.646,0,0,1,1.92.72,2.889,2.889,0,0,1,.83,1.955l.011.4A3.038,3.038,0,0,1,23.7-.7a2.6,2.6,0,0,1-2,.808A2.608,2.608,0,0,1,19.693-.7a3.091,3.091,0,0,1-.749-2.191Zm1.552.113a2.166,2.166,0,0,0,.312,1.265,1.028,1.028,0,0,0,.892.438,1.031,1.031,0,0,0,.881-.432A2.371,2.371,0,0,0,22.9-2.959a2.145,2.145,0,0,0-.317-1.257,1.031,1.031,0,0,0-.892-.446,1.014,1.014,0,0,0-.881.443A2.41,2.41,0,0,0,20.5-2.847ZM31.851,0H30.3V-5.983l-1.853.575V-6.671l3.239-1.16h.167Z" transform="translate(796.019 6860.049)" fill="#12263f"/>
          <g id="Grupo_1060913" data-name="Grupo 1060913" transform="translate(770.505 6899.873)">
            <path id="Trazado_780982" data-name="Trazado 780982" d="M81.661,56.516v69.862l7.8,23.178,7.794-23.831V56.843" transform="translate(-81.661 -56.516)" fill="#fff" stroke="#12263f" stroke-miterlimit="10" stroke-width="0.945"/>
            <path id="Trazado_780983" data-name="Trazado 780983" d="M86.629,56.516v75.212h3.234V56.516" transform="translate(-80.244 -56.516)" fill="none" stroke="#12263f" stroke-miterlimit="10" stroke-width="0.752"/>
            <path id="Trazado_780984" data-name="Trazado 780984" d="M91.83,117.179c0,3.431-1.479,6.211-3.306,6.211s-3.3-2.78-3.3-6.211,1.479-6.211,3.3-6.211,3.306,2.78,3.306,6.211" transform="translate(-80.646 -40.98)" fill="#fff"/>
            <ellipse id="Elipse_4963" data-name="Elipse 4963" cx="3.305" cy="6.211" rx="3.305" ry="6.211" transform="translate(4.575 69.988)" fill="none" stroke="#12263f" stroke-miterlimit="10" stroke-width="0.687"/>
          </g>
        </g>
      </g>
    </g>
  </g>
</svg>
