<svg xmlns="http://www.w3.org/2000/svg" width="65.522" height="74.056" viewBox="0 0 65.522 74.056">
  <g id="expediente" transform="translate(-29.5)">
    <g id="Grupo_1078492" data-name="Grupo 1078492" transform="translate(30.585 1.085)">
      <path id="Trazado_841102" data-name="Trazado 841102" d="M115.768,72.968a6.425,6.425,0,0,1-6.431,6.418H65.121a6.425,6.425,0,0,1-6.431-6.418V13.918A6.425,6.425,0,0,1,65.121,7.5H92.647a4.828,4.828,0,0,1,3.414,1.414l18.3,18.3a4.809,4.809,0,0,1,1.409,3.4Z" transform="translate(-55.553 -7.5)" fill="#f9f8f9"/>
      <path id="Trazado_841103" data-name="Trazado 841103" d="M69.46,79.387H65.121a6.425,6.425,0,0,1-6.431-6.419V13.919A6.425,6.425,0,0,1,65.121,7.5H69.46a6.425,6.425,0,0,0-6.431,6.419V72.967A6.425,6.425,0,0,0,69.46,79.387Z" transform="translate(-55.553 -7.5)" fill="#e3e0e4"/>
      <path id="Trazado_841104" data-name="Trazado 841104" d="M302.75,30.614v2.349H285.977a8.7,8.7,0,0,1-8.687-8.689V7.5h2.339a4.83,4.83,0,0,1,3.414,1.413l18.3,18.3A4.81,4.81,0,0,1,302.75,30.614Z" transform="translate(-242.534 -7.5)" fill="#e3e0e4"/>
      <path id="Trazado_841105" data-name="Trazado 841105" d="M327.978,31.2h-16.34a4.349,4.349,0,0,1-4.348-4.349V10.51a4.779,4.779,0,0,1,1.413.978l18.3,18.3A4.78,4.78,0,0,1,327.978,31.2Z" transform="translate(-268.195 -10.075)" fill="#dc4955"/>
      <path id="Trazado_841106" data-name="Trazado 841106" d="M94.567,245.189H42.786A5.786,5.786,0,0,1,37,239.4V218.286a5.786,5.786,0,0,1,5.786-5.786H94.567a5.786,5.786,0,0,1,5.786,5.786V239.4A5.786,5.786,0,0,1,94.567,245.189Z" transform="translate(-37 -182.849)" fill="#dc4955"/>
      <path id="Trazado_841107" data-name="Trazado 841107" d="M46.4,245.189H42.786A5.786,5.786,0,0,1,37,239.4V218.286a5.786,5.786,0,0,1,5.786-5.786H46.4a5.786,5.786,0,0,0-5.786,5.786V239.4A5.786,5.786,0,0,0,46.4,245.189Z" transform="translate(-37 -182.849)" fill="#c42430"/>
    </g>
    <g id="Grupo_1078493" data-name="Grupo 1078493" transform="translate(29.5 0)">
      <path id="Trazado_841108" data-name="Trazado 841108" d="M91.885,30.759V24.2a5.856,5.856,0,0,0-1.727-4.167l-18.3-18.3A5.874,5.874,0,0,0,67.679,0H40.153a7.518,7.518,0,0,0-7.516,7.5V20.558a1.085,1.085,0,1,0,2.17,0V7.5A5.346,5.346,0,0,1,40.153,2.17H67.679a3.72,3.72,0,0,1,.916.115v9.682a1.085,1.085,0,0,0,2.17,0V3.7L88.182,21.123H74.028a3.267,3.267,0,0,1-3.263-3.264V17.03a1.085,1.085,0,0,0-2.17,0v.829a5.439,5.439,0,0,0,5.433,5.434H89.6a3.742,3.742,0,0,1,.111.906v5.634a6.854,6.854,0,0,0-1.564-.182H84.278a1.085,1.085,0,1,0,0,2.17h3.874a4.706,4.706,0,0,1,4.7,4.7V57.639a4.706,4.706,0,0,1-4.7,4.7h-26.7a1.085,1.085,0,0,0,0,2.17h26.7a6.854,6.854,0,0,0,1.564-.182v2.225a5.346,5.346,0,0,1-5.347,5.334H40.153a5.346,5.346,0,0,1-5.347-5.334V64.328a6.855,6.855,0,0,0,1.564.182H56.391a1.085,1.085,0,1,0,0-2.17H36.371a4.706,4.706,0,0,1-4.7-4.7V36.522a4.706,4.706,0,0,1,4.7-4.7H79.215a1.085,1.085,0,1,0,0-2.17H36.371a6.854,6.854,0,0,0-1.564.182V25.621a1.085,1.085,0,1,0-2.17,0v5.138A6.869,6.869,0,0,0,29.5,36.522V57.639A6.869,6.869,0,0,0,32.637,63.4v3.15a7.518,7.518,0,0,0,7.516,7.5H84.369a7.518,7.518,0,0,0,7.516-7.5V63.4a6.869,6.869,0,0,0,3.137-5.763V36.522A6.869,6.869,0,0,0,91.885,30.759Z" transform="translate(-29.5 0)"/>
      <path id="Trazado_841109" data-name="Trazado 841109" d="M338.558,263.591a1.085,1.085,0,0,0,0-2.17h-6.634a1.085,1.085,0,0,0-1.085,1.085v16.367a1.085,1.085,0,0,0,2.17,0v-7.254h5.022a1.085,1.085,0,0,0,0-2.17H333.01v-5.859Z" transform="translate(-287.254 -223.609)"/>
      <path id="Trazado_841110" data-name="Trazado 841110" d="M219.829,279.513a1.193,1.193,0,0,0,1.121,1.345c.137,0,3.362-.013,4.647-.035a6.921,6.921,0,0,0,5.462-2.78,10.327,10.327,0,0,0,1.932-6.27c0-5.434-3.033-9.085-7.546-9.085h-4.532a1.091,1.091,0,0,0-1.085,1.1Zm5.616-14.656c3.964,0,5.377,3.572,5.377,6.915,0,4-2.164,6.826-5.263,6.88-.807.014-2.441.024-3.532.03-.006-1.789-.017-5.318-.017-6.928,0-1.346-.006-5.045-.01-6.9h3.445Z" transform="translate(-192.299 -224.692)"/>
      <path id="Trazado_841111" data-name="Trazado 841111" d="M121.381,261a1.092,1.092,0,0,0-1.085,1.085v16.488a1.085,1.085,0,1,0,2.17,0v-6.083c1.075-.006,2.7-.014,3.506-.014a5.738,5.738,0,1,0,0-11.475h-4.591Zm8.25,5.738a3.663,3.663,0,0,1-3.659,3.568c-.8,0-2.4.008-3.48.014-.006-1.1-.014-2.767-.014-3.582,0-.686,0-2.421-.008-3.568h3.5A3.663,3.663,0,0,1,129.631,266.741Z" transform="translate(-107.163 -223.251)"/>
    </g>
  </g>
</svg>
