<svg xmlns="http://www.w3.org/2000/svg" xmlns:xlink="http://www.w3.org/1999/xlink" width="295.345" height="295.346" viewBox="0 0 295.345 295.346">
  <defs>
    <clipPath id="clip-path">
      <circle id="Elipse_4944" data-name="Elipse 4944" cx="147.416" cy="147.416" r="147.416" fill="#fff" stroke="#707070" stroke-width="1"/>
    </clipPath>
    <clipPath id="clip-path-2">
      <rect id="Rectángulo_374739" data-name="Rectángulo 374739" width="233.683" height="239.286" fill="none"/>
    </clipPath>
    <clipPath id="clip-path-4">
      <rect id="Rectángulo_374709" data-name="Rectángulo 374709" width="233.683" height="152.294" fill="none"/>
    </clipPath>
    <clipPath id="clip-path-5">
      <rect id="Rectángulo_374710" data-name="Rectángulo 374710" width="6.704" height="9.253" fill="none"/>
    </clipPath>
    <clipPath id="clip-path-6">
      <path id="Trazado_842040" data-name="Trazado 842040" d="M194.971,35.439a16.543,16.543,0,0,0-12.884,6.9,21.411,21.411,0,0,0-2.69,4.633c-.194.45-.374.907-.535,1.379-.011.026-.021.051-.033.08s-.034.092-.048.135a2.3,2.3,0,0,0,2.174,3.037H209.4a2.294,2.294,0,0,0,2.174-3.037c-.015-.044-.033-.092-.048-.135s-.022-.054-.033-.08c-.161-.472-.341-.929-.535-1.379a21.366,21.366,0,0,0-2.691-4.633,16.528,16.528,0,0,0-13.088-6.9c-.07,0-.139,0-.2,0" transform="translate(-178.655 -35.435)" fill="none"/>
    </clipPath>
    <clipPath id="clip-path-8">
      <rect id="Rectángulo_374712" data-name="Rectángulo 374712" width="16.726" height="16.165" fill="none"/>
    </clipPath>
    <clipPath id="clip-path-10">
      <rect id="Rectángulo_374719" data-name="Rectángulo 374719" width="24.437" height="3.798" fill="none"/>
    </clipPath>
    <clipPath id="clip-path-11">
      <rect id="Rectángulo_374721" data-name="Rectángulo 374721" width="30.037" height="24.923" fill="none"/>
    </clipPath>
    <clipPath id="clip-path-12">
      <rect id="Rectángulo_374722" data-name="Rectángulo 374722" width="10.015" height="18.232" fill="none"/>
    </clipPath>
    <clipPath id="clip-path-13">
      <rect id="Rectángulo_374725" data-name="Rectángulo 374725" width="55.456" height="71.317" fill="none"/>
    </clipPath>
    <clipPath id="clip-path-14">
      <rect id="Rectángulo_374726" data-name="Rectángulo 374726" width="32.429" height="34.562" fill="none"/>
    </clipPath>
    <clipPath id="clip-path-15">
      <rect id="Rectángulo_374727" data-name="Rectángulo 374727" width="17.007" height="16.892" fill="none"/>
    </clipPath>
    <clipPath id="clip-path-16">
      <rect id="Rectángulo_374728" data-name="Rectángulo 374728" width="5.219" height="2.481" fill="none"/>
    </clipPath>
    <clipPath id="clip-path-17">
      <rect id="Rectángulo_374729" data-name="Rectángulo 374729" width="8.609" height="12.378" fill="none"/>
    </clipPath>
    <clipPath id="clip-path-18">
      <rect id="Rectángulo_374730" data-name="Rectángulo 374730" width="51.266" height="14.661" fill="none"/>
    </clipPath>
    <clipPath id="clip-path-19">
      <path id="Trazado_842130" data-name="Trazado 842130" d="M338.668,117.334c-.1,7.055,3,13.514,9.516,13.179,5.815-.3,11.465-5.83,11.564-12.885s-4.546-12.634-10.36-12.921c-.141-.007-.282-.011-.421-.011-5.853,0-10.207,6.072-10.3,12.638" transform="translate(-338.666 -104.696)" fill="none"/>
    </clipPath>
    <clipPath id="clip-path-20">
      <rect id="Rectángulo_374732" data-name="Rectángulo 374732" width="15.182" height="3.858" fill="none"/>
    </clipPath>
  </defs>
  <g id="Grupo_1079131" data-name="Grupo 1079131" transform="translate(-389.655 -4739.453)">
    <g id="Grupo_1079104" data-name="Grupo 1079104" transform="translate(389.655 4739.453)">
      <circle id="Elipse_5028" data-name="Elipse 5028" cx="144" cy="144" r="144" transform="translate(1.574 2.134)" fill="#fff"/>
      <g id="Elipse_4945" data-name="Elipse 4945" fill="none" stroke="#ffd54f" stroke-width="6">
        <circle cx="147.673" cy="147.673" r="147.673" stroke="none"/>
        <circle cx="147.673" cy="147.673" r="144.673" fill="none"/>
      </g>
    </g>
    <g id="Grupo_1079103" data-name="Grupo 1079103" transform="translate(405.654 4748.151)">
      <g id="Grupo_1079102" data-name="Grupo 1079102" clip-path="url(#clip-path-2)">
        <g id="Grupo_1079054" data-name="Grupo 1079054">
          <g id="Grupo_1079053" data-name="Grupo 1079053" clip-path="url(#clip-path-2)">
            <g id="Grupo_1079049" data-name="Grupo 1079049" transform="translate(0 14.497)" opacity="0.65">
              <g id="Grupo_1079048" data-name="Grupo 1079048">
                <g id="Grupo_1079047" data-name="Grupo 1079047" clip-path="url(#clip-path-4)">
                  <path id="Trazado_842030" data-name="Trazado 842030" d="M233.658,113.781c.9,35.7-21.947,70.207-65.058,62.081-23.157-4.372-39.961-17.464-58.29-20.118-23.436-3.4-33.982,7.741-50.3,17.127a37.235,37.235,0,0,1-24.033,4.882c-10.711-1.513-20.7-7.861-27.788-18.142-19.974-28.994-.146-72.011,24.44-97.119,24.154-24.67,64.064-39.852,98.485-36.11,30.351,3.3,65.392,17.481,85.461,40.932,11.084,12.952,16.659,29.837,17.081,46.467" transform="translate(0 -25.817)" fill="#ebebf5"/>
                </g>
              </g>
            </g>
            <path id="Trazado_842031" data-name="Trazado 842031" d="M207.66,26.51c-.047-6.543-.076-19.71-.058-26.251a.265.265,0,0,1,.53,0c.018,6.543-.011,19.71-.058,26.251a.206.206,0,0,1-.413,0" transform="translate(-91.025 0)" fill="#2b1f38"/>
            <path id="Trazado_842032" data-name="Trazado 842032" d="M208.89,62.189c0,2.576-1.662,4.665-3.711,4.665s-3.711-2.089-3.711-4.665,1.662-4.665,3.711-4.665,3.711,2.089,3.711,4.665" transform="translate(-88.338 -25.223)" fill="#d99449"/>
            <g id="Grupo_1079052" data-name="Grupo 1079052" transform="translate(113.851 32.378)" opacity="0.25" style="mix-blend-mode: multiply;isolation: isolate">
              <g id="Grupo_1079051" data-name="Grupo 1079051">
                <g id="Grupo_1079050" data-name="Grupo 1079050" clip-path="url(#clip-path-5)">
                  <path id="Trazado_842033" data-name="Trazado 842033" d="M209.455,62.249c0,2.576-1.664,4.665-3.713,4.665a3.53,3.53,0,0,1-2.991-1.906,2.906,2.906,0,0,0,.67.077c2.049,0,3.709-2.089,3.709-4.665a5.486,5.486,0,0,0-.718-2.759c1.73.4,3.042,2.3,3.042,4.588" transform="translate(-202.751 -57.661)" fill="#d99449"/>
                </g>
              </g>
            </g>
            <path id="Trazado_842034" data-name="Trazado 842034" d="M209.4,51.6H180.955a2.294,2.294,0,0,1-2.173-3.037c.015-.044.033-.092.048-.135s.022-.055.033-.081c.161-.472.34-.929.535-1.379a21.427,21.427,0,0,1,2.69-4.632,16.544,16.544,0,0,1,12.884-6.9c.066,0,.135,0,.2,0a16.53,16.53,0,0,1,13.089,6.9,21.382,21.382,0,0,1,2.69,4.632c.194.45.374.907.535,1.379.011.026.022.052.033.081s.033.092.048.135A2.294,2.294,0,0,1,209.4,51.6" transform="translate(-78.335 -15.537)" fill="#414156"/>
          </g>
        </g>
        <g id="Grupo_1079056" data-name="Grupo 1079056" transform="translate(100.32 19.898)">
          <g id="Grupo_1079055" data-name="Grupo 1079055" clip-path="url(#clip-path-6)">
            <path id="Trazado_842035" data-name="Trazado 842035" d="M193.208,33.746c.159,6.5-4.533,10.749-10.78,11.319a27.561,27.561,0,0,1-5.71-.02.265.265,0,1,1,.053-.527,27.084,27.084,0,0,0,5.6.01c5.979-.576,10.506-4.518,10.43-10.753a.206.206,0,1,1,.412-.029" transform="translate(-177.701 -34.609)" fill="#2b1f38"/>
            <path id="Trazado_842036" data-name="Trazado 842036" d="M224.462,36.506c-5.573.216-8.136,4.678-7.6,9.88a27.12,27.12,0,0,0,.854,4.737.265.265,0,0,1-.51.14,25.268,25.268,0,0,1-.893-4.837c-.306-3.246.519-7.012,3.434-8.894a8.88,8.88,0,0,1,4.729-1.439.206.206,0,1,1-.008.413" transform="translate(-195.138 -35.724)" fill="#2b1f38"/>
            <path id="Trazado_842037" data-name="Trazado 842037" d="M214.671,27.174c-5.616,4.528-7.5,12.25-5.654,19.079a34.492,34.492,0,0,0,1.542,4.623.268.268,0,0,1-.147.367.264.264,0,0,1-.339-.156c-.384-1.035-.8-2.059-1.154-3.1a32.76,32.76,0,0,1-.777-3.222L207.9,43.12a18.609,18.609,0,0,1,2.257-11.232,16.953,16.953,0,0,1,4.278-5.049.206.206,0,1,1,.24.336" transform="translate(-191.427 -31.647)" fill="#2b1f38"/>
            <path id="Trazado_842038" data-name="Trazado 842038" d="M187.187,33c.057,2.772-.927,5.974-3.541,7.368-2.616,1.35-5.734.391-8.28-.612a34.163,34.163,0,0,1-4.939-2.625.265.265,0,1,1,.281-.449,33.715,33.715,0,0,0,4.865,2.576c6.2,2.667,10.99,1.067,11.2-6.254a.206.206,0,0,1,.413-.005" transform="translate(-174.992 -34.279)" fill="#2b1f38"/>
            <path id="Trazado_842039" data-name="Trazado 842039" d="M232.078,42.138c-4.259,1.336-6.024,4.963-4.579,9.161l.615,1.573.011.027a.265.265,0,0,1-.491.2c-1.558-3.259-1.91-7.29,1.213-9.75a8.757,8.757,0,0,1,3.131-1.607.206.206,0,1,1,.1.4" transform="translate(-199.62 -38.195)" fill="#2b1f38"/>
          </g>
        </g>
        <g id="Grupo_1079061" data-name="Grupo 1079061">
          <g id="Grupo_1079060" data-name="Grupo 1079060" clip-path="url(#clip-path-2)">
            <path id="Trazado_842041" data-name="Trazado 842041" d="M209.4,60.605H180.955a2.294,2.294,0,0,1-2.173-3.037.5.5,0,0,1,.015-.048l.033-.088c.011-.029.022-.055.033-.081a2.3,2.3,0,0,1,2.111-1.379h28.406a2.3,2.3,0,0,1,2.111,1.379c.011.026.022.052.033.081l.033.088c0,.015.011.029.015.048a2.294,2.294,0,0,1-2.174,3.037" transform="translate(-78.335 -24.543)" fill="#2b1f38"/>
            <g id="Grupo_1079059" data-name="Grupo 1079059" transform="translate(116.636 19.898)" opacity="0.35" style="mix-blend-mode: multiply;isolation: isolate">
              <g id="Grupo_1079058" data-name="Grupo 1079058">
                <g id="Grupo_1079057" data-name="Grupo 1079057" clip-path="url(#clip-path-8)">
                  <path id="Trazado_842042" data-name="Trazado 842042" d="M222.138,51.6h-5.795a12.238,12.238,0,0,0-1.132-4.632c-1.983-4.672-6-9.732-7.5-11.529.066,0,.135,0,.2,0a16.529,16.529,0,0,1,13.089,6.9,21.382,21.382,0,0,1,2.69,4.632c.194.45.374.907.535,1.379.011.026.022.052.033.081s.022.058.033.088.011.029.015.048a2.294,2.294,0,0,1-2.174,3.037" transform="translate(-207.712 -35.435)" fill="#6d7085"/>
                </g>
              </g>
            </g>
            <path id="Trazado_842043" data-name="Trazado 842043" d="M232.905,100.208H251.7l-6.849,6.677h-6.145Z" transform="translate(-102.122 -43.938)" fill="#6d7085"/>
            <rect id="Rectángulo_374713" data-name="Rectángulo 374713" width="1.728" height="6.655" transform="translate(139.216 49.908)" fill="#2b1f38"/>
            <path id="Trazado_842044" data-name="Trazado 842044" d="M199.3,100.208h18.795l-6.848,6.677H205.1Z" transform="translate(-87.386 -43.938)" fill="#6d7085"/>
            <rect id="Rectángulo_374714" data-name="Rectángulo 374714" width="1.728" height="6.655" transform="translate(120.344 49.908)" fill="#2b1f38"/>
          </g>
        </g>
        <text id="Porta_conos" data-name="Porta conos" transform="translate(71.198 58.308)" font-size="6" font-family="Roboto-Regular, Roboto"><tspan x="0" y="0" letter-spacing="-0.006em">P</tspan><tspan y="0">o</tspan><tspan y="0" letter-spacing="0.024em">r</tspan><tspan y="0">ta conos</tspan></text>
        <g id="Grupo_1079090" data-name="Grupo 1079090">
          <g id="Grupo_1079089" data-name="Grupo 1079089" clip-path="url(#clip-path-2)">
            <rect id="Rectángulo_374716" data-name="Rectángulo 374716" width="43.592" height="15.034" transform="translate(53.41 144.518)" fill="#6d7085"/>
            <rect id="Rectángulo_374717" data-name="Rectángulo 374717" width="3.62" height="15.034" transform="translate(95.046 144.518)" fill="#9397ad"/>
            <rect id="Rectángulo_374718" data-name="Rectángulo 374718" width="3.62" height="10.542" transform="translate(98.406 146.764)" fill="#acb0bf"/>
            <line id="Línea_10646" data-name="Línea 10646" x2="46.373" transform="translate(108.316 64.576)" fill="none" stroke="#2b1f38" stroke-linecap="round" stroke-miterlimit="10" stroke-width="3.913"/>
            <path id="Trazado_842045" data-name="Trazado 842045" d="M214.642,202.045c-9.289.057-7.473,10.13-5.344,16.2a102.972,102.972,0,0,1,3.21,12.255c1.925,11.149.764,22.621-1.953,33.535-3.495,13.167-8.735,27.76-2.807,40.974a31.23,31.23,0,0,0,10.471,12.769,16.791,16.791,0,0,0,7.709,2.833.265.265,0,1,1-.044.528,17.318,17.318,0,0,1-7.957-2.917,31.737,31.737,0,0,1-10.666-12.987c-6-13.342-.785-28.064,2.77-41.331,2.722-10.84,3.9-22.248,2.008-33.32a102.639,102.639,0,0,0-3.173-12.206c-1.242-3.985-2.536-8.391-1.148-12.516.944-2.905,4.039-4.284,6.917-4.228a.206.206,0,1,1,.007.413" transform="translate(-89.677 -88.409)" fill="#2b1f38"/>
            <path id="Trazado_842046" data-name="Trazado 842046" d="M266.341,412.749a3.488,3.488,0,0,1-3.5,3.49H245.4a3.493,3.493,0,0,1-3.5-3.49v-2.784a3.5,3.5,0,0,1,4.046-3.447l17.447,2.787a3.5,3.5,0,0,1,2.928,3.136,2.958,2.958,0,0,1,.015.307" transform="translate(-106.068 -178.227)" fill="#6d7085"/>
            <g id="Grupo_1079064" data-name="Grupo 1079064" transform="translate(135.836 234.215)" opacity="0.25" style="mix-blend-mode: multiply;isolation: isolate">
              <g id="Grupo_1079063" data-name="Grupo 1079063">
                <g id="Grupo_1079062" data-name="Grupo 1079062" clip-path="url(#clip-path-10)">
                  <path id="Trazado_842047" data-name="Trazado 842047" d="M266.341,417.409a3.488,3.488,0,0,1-3.5,3.491H245.4a3.493,3.493,0,0,1-3.5-3.491V417.1h24.421a2.956,2.956,0,0,1,.015.307" transform="translate(-241.904 -417.102)" fill="#414156"/>
                </g>
              </g>
            </g>
            <rect id="Rectángulo_374720" data-name="Rectángulo 374720" width="147.048" height="10.454" transform="translate(43.318 134.064)" fill="#414156"/>
            <path id="Trazado_842048" data-name="Trazado 842048" d="M220.983,232.3H58.087c-3.5,0-6.332-2.436-6.332-5.441s2.835-5.441,6.332-5.441h162.9c3.5,0,6.332,2.436,6.332,5.441s-2.835,5.441-6.332,5.441" transform="translate(-22.693 -97.084)" fill="#2b1f38"/>
            <line id="Línea_10647" data-name="Línea 10647" x2="155.367" transform="translate(39.06 174.96)" fill="none" stroke="#2b1f38" stroke-linecap="round" stroke-miterlimit="10" stroke-width="3.913"/>
            <line id="Línea_10648" data-name="Línea 10648" x2="13.527" y2="107.364" transform="translate(189.243 130.6)" fill="none" stroke="#2b1f38" stroke-linecap="round" stroke-miterlimit="10" stroke-width="3.913"/>
            <line id="Línea_10649" data-name="Línea 10649" x1="13.527" y2="107.364" transform="translate(30.913 130.6)" fill="none" stroke="#2b1f38" stroke-linecap="round" stroke-miterlimit="10" stroke-width="3.913"/>
            <path id="Trazado_842049" data-name="Trazado 842049" d="M209.251,192.349c-.745-.055-2.188-.135-3.977-.1h-.007c-4.56.091-11.348.933-14.53,4.829-4.461,5.459-2.3,17.661-2.042,19.022a.08.08,0,0,1-.1.1,30.911,30.911,0,0,1-13.367-7.183,28.141,28.141,0,0,1-4.135-4.742.087.087,0,0,1,.074-.135c8.4.182,10.524-10.834,16.9-14.277,6.576-3.553,14.977-.227,21.222,2.327a.085.085,0,0,1-.036.165" transform="translate(-75.014 -82.568)" fill="#bddecd"/>
            <g id="Grupo_1079067" data-name="Grupo 1079067" transform="translate(100.216 108.705)" opacity="0.25" style="mix-blend-mode: multiply;isolation: isolate">
              <g id="Grupo_1079066" data-name="Grupo 1079066">
                <g id="Grupo_1079065" data-name="Grupo 1079065" clip-path="url(#clip-path-11)">
                  <path id="Trazado_842050" data-name="Trazado 842050" d="M208.507,194.56c-4.56.092-11.348.933-14.53,4.83-4.461,5.459-2.3,17.661-2.042,19.022a.08.08,0,0,1-.1.095,30.911,30.911,0,0,1-13.367-7.182c4.164-.724,9.258-10.014,10.619-12.144,2.192-3.436,4.779-5.291,8.972-5.591a94.751,94.751,0,0,1,10.447.97" transform="translate(-178.47 -193.587)" fill="#82b59b"/>
                </g>
              </g>
            </g>
            <path id="Trazado_842051" data-name="Trazado 842051" d="M206.6,190.272c-3.949-.185-8.891,1.718-10.262,5.733a.265.265,0,0,1-.507-.153c1.376-4.3,6.651-6.348,10.855-5.984a.206.206,0,1,1-.086.4" transform="translate(-85.862 -83.233)" fill="#2b1f38"/>
            <path id="Trazado_842052" data-name="Trazado 842052" d="M145.156,217.76H140.75a.366.366,0,0,1-.366-.366v-3.583a.366.366,0,0,1,.366-.366h4.406a.366.366,0,0,1,.366.366v3.583a.366.366,0,0,1-.366.366" transform="translate(-61.554 -93.589)" fill="#2b1f38"/>
            <path id="Trazado_842053" data-name="Trazado 842053" d="M145.156,184.136H140.75a.366.366,0,0,1-.366-.366v-3.583a.366.366,0,0,1,.366-.366h4.406a.366.366,0,0,1,.366.366v3.583a.366.366,0,0,1-.366.366" transform="translate(-61.554 -78.846)" fill="#2b1f38"/>
            <path id="Trazado_842054" data-name="Trazado 842054" d="M146.057,201.593a1.376,1.376,0,0,1-1.375,1.456h-7.264a1.37,1.37,0,0,1-1.371-1.456l.136-2.225L137,186.1a1.371,1.371,0,0,1,1.371-1.288h5.366A1.372,1.372,0,0,1,145.1,186.1Z" transform="translate(-59.651 -81.037)" fill="#d99449"/>
            <path id="Trazado_842055" data-name="Trazado 842055" d="M140.08,189.23q2.768,2.633,5.448,5.356a.265.265,0,0,1-.375.375q-2.735-2.667-5.365-5.438a.207.207,0,0,1,.291-.292" transform="translate(-61.268 -82.947)" fill="#2b1f38"/>
            <path id="Trazado_842056" data-name="Trazado 842056" d="M140.08,195.888q2.768,2.633,5.448,5.356a.265.265,0,0,1-.375.375q-2.735-2.667-5.365-5.438a.207.207,0,0,1,.291-.292" transform="translate(-61.268 -85.866)" fill="#2b1f38"/>
            <path id="Trazado_842057" data-name="Trazado 842057" d="M140.08,202.546q2.768,2.633,5.448,5.355c.238.238-.134.614-.375.375q-2.735-2.667-5.365-5.438a.207.207,0,0,1,.291-.292" transform="translate(-61.268 -88.785)" fill="#2b1f38"/>
            <g id="Grupo_1079070" data-name="Grupo 1079070" transform="translate(76.393 103.78)" opacity="0.25" style="mix-blend-mode: multiply;isolation: isolate">
              <g id="Grupo_1079069" data-name="Grupo 1079069">
                <g id="Grupo_1079068" data-name="Grupo 1079068" clip-path="url(#clip-path-12)">
                  <path id="Trazado_842058" data-name="Trazado 842058" d="M146.057,201.593a1.376,1.376,0,0,1-1.375,1.456h-7.264a1.37,1.37,0,0,1-1.371-1.456l.136-2.225c4.688-1.8,6.733-11.108,7.334-14.551h.216A1.372,1.372,0,0,1,145.1,186.1Z" transform="translate(-136.044 -184.816)" fill="#d99449"/>
                </g>
              </g>
            </g>
            <rect id="Rectángulo_374723" data-name="Rectángulo 374723" width="2.979" height="61.997" transform="translate(149.907 22.622)" fill="#2b1f38"/>
            <path id="Trazado_842059" data-name="Trazado 842059" d="M330.565,198.789a6.042,6.042,0,0,1-2.837,4.635c-1.345.911-2.91.875-4.776.238,0,0-.007,0-.011,0-3.931-1.331-19.236-10.662-25.433-15.144a4.682,4.682,0,0,1-2.137-2.572,2.191,2.191,0,0,1,.194-1.387c1.243-2.737,4.446-1.332,6.536-.607,4.693,1.622,21.179,7.551,23.527,8.591,2.631,1.167,5.15,3.073,4.937,6.249" transform="translate(-129.494 -80.213)" fill="#f0d0bb"/>
            <path id="Trazado_842060" data-name="Trazado 842060" d="M338.39,202.609a6.042,6.042,0,0,1-2.837,4.635c-1.345.911-2.91.875-4.776.238,0,0-.007,0-.011,0a14.825,14.825,0,0,1-1.389-.556c-1.034-.457-2.145-1.053-3.35-1.738-1.532-.86-3.207-1.866-5.054-2.909-2-1.108-4.875-2.839-7.8-4.69a17.885,17.885,0,0,0,7.576-5.935c1.272.476,2.547.948,3.834,1.4,2.976,1.043,5.981,2.034,8.866,3.311,2.631,1.167,5.15,3.073,4.937,6.249" transform="translate(-137.319 -84.033)" fill="#2b1f38"/>
            <path id="Trazado_842061" data-name="Trazado 842061" d="M284.555,179.18a2.793,2.793,0,0,1,.049-1.663c.179-.6.4-1.362-.189-1.792-.768-.557-2.471-.811-3.151-1.485a.643.643,0,0,1,0-1.02c.516-.368,2.084-.127,2.667-.063,3.355.367,3.621.745,2.9-.711s.092-2.205,1.019-1.743c1.883.938,5.335,5.233,6.047,7.273a3.119,3.119,0,0,1-3.064,4.226c-1.956-.01-5.61-.907-6.279-3.021" transform="translate(-123.217 -74.789)" fill="#f0d0bb"/>
            <path id="Trazado_842062" data-name="Trazado 842062" d="M287.543,179.777a9,9,0,0,1,3.4.7.961.961,0,0,1,.474.541c.146.522-.376.948-.791,1.085a6.144,6.144,0,0,1-3.013.067.3.3,0,0,1,.07-.594,8.875,8.875,0,0,0,2.694-.151.656.656,0,0,0,.363-.233c-.743-.619-2.211-.749-3.24-.951a.233.233,0,0,1,.043-.464" transform="translate(-125.972 -78.826)" fill="#2b1f38"/>
            <path id="Trazado_842063" data-name="Trazado 842063" d="M287.884,182.955a9,9,0,0,1,3.4.7.961.961,0,0,1,.474.541c.146.522-.376.948-.791,1.085a6.144,6.144,0,0,1-3.013.067.3.3,0,0,1,.07-.594,8.876,8.876,0,0,0,2.694-.151.656.656,0,0,0,.363-.233c-.743-.619-2.211-.749-3.24-.951a.233.233,0,0,1,.043-.464" transform="translate(-126.122 -80.22)" fill="#2b1f38"/>
            <path id="Trazado_842064" data-name="Trazado 842064" d="M294.6,177.357a6.128,6.128,0,0,0-2.591-2.107.3.3,0,0,1,.134-.579,2.78,2.78,0,0,1,1.727.889,5.416,5.416,0,0,1,1.105,1.566.223.223,0,0,1-.375.231" transform="translate(-127.953 -76.587)" fill="#2b1f38"/>
            <path id="Trazado_842065" data-name="Trazado 842065" d="M300.326,187.319a3.8,3.8,0,0,0,1.718-2.734.3.3,0,0,1,.6-.023,2.927,2.927,0,0,1-1.255,2.661,3.922,3.922,0,0,1-.85.511.233.233,0,0,1-.211-.416" transform="translate(-131.632 -80.812)" fill="#2b1f38"/>
            <rect id="Rectángulo_374724" data-name="Rectángulo 374724" width="24.477" height="9.025" transform="translate(198.077 163.907)" fill="#414156"/>
            <line id="Línea_10650" data-name="Línea 10650" x2="30.769" transform="translate(195.113 197.088)" fill="none" stroke="#2b1f38" stroke-linecap="round" stroke-miterlimit="10" stroke-width="3.913"/>
            <line id="Línea_10651" data-name="Línea 10651" x1="9.444" y2="71.598" transform="translate(189.002 165.848)" fill="none" stroke="#2b1f38" stroke-linecap="round" stroke-miterlimit="10" stroke-width="3.913"/>
            <line id="Línea_10652" data-name="Línea 10652" x2="9.444" y2="71.598" transform="translate(222.548 165.848)" fill="none" stroke="#2b1f38" stroke-linecap="round" stroke-miterlimit="10" stroke-width="3.913"/>
            <line id="Línea_10653" data-name="Línea 10653" x2="30.769" transform="translate(195.113 164.516)" fill="none" stroke="#2b1f38" stroke-linecap="round" stroke-miterlimit="10" stroke-width="7.826"/>
            <path id="Trazado_842066" data-name="Trazado 842066" d="M304.546,279.753a42.242,42.242,0,0,1-6.636,7.122c-.8.722-1.534,1.385-2.157,1.975a34.816,34.816,0,0,0-3.638,3.973,12.22,12.22,0,0,0-2.442,4.61,41.929,41.929,0,0,1-3,9q-.658,1.489-1.438,3.062-1.039,2.1-2.284,4.347-.983,1.778-2.086,3.628c-.4.668-1.877,3.407-3.324,6.445-1.464,3.029-2.855,6.363-3.552,8.027-.957,3.224-1.23,4.3-1.319,4.6a2.059,2.059,0,0,0-.06.305,16.457,16.457,0,0,0-.051,4.044c.2,1.313.557,3.465-.517,4.48a.443.443,0,0,1-.066.056c-1.339,1.188-3.761.494-5.66-.056a11.388,11.388,0,0,0-4-.174,26.724,26.724,0,0,1-4.226.222c-2.006-.16-5.714.007-6.533-2.463-.025-.081-.053-.167-.072-.259-.2-.873.974-.994,1.464-1.086a31.353,31.353,0,0,0,7.406-2.921c.7-.326,1.308-.631,1.835-.936a7.2,7.2,0,0,0,2.182-1.751A9.777,9.777,0,0,0,266,331.63c.107-.546.218-1.092.327-1.634,1.124-5.7,2.367-11.426,3.832-17.133,1.14-4.452,2.417-8.895,3.876-13.3q.478-1.426.992-2.839,1.007-2.76,2.148-5.461.4-.959.825-1.912v0c2.092-4.752,4.455-9.393,6.971-13.952q.447-.812.9-1.618c.142-.255.282-.507.428-.762,1.609-2.85,3.1-6.42,6.256-7.994a8.308,8.308,0,0,1,5.654-.567,11.52,11.52,0,0,1,6.064,3.735q.158.185.3.379c2.73,3.56,2.4,7.573-.033,11.181" transform="translate(-110.259 -115.848)" fill="#f0d0bb"/>
            <path id="Trazado_842067" data-name="Trazado 842067" d="M305.291,310.155A7.564,7.564,0,0,0,309.8,311.6a.3.3,0,0,1,.026.6,5.965,5.965,0,0,1-4.862-1.7.233.233,0,0,1,.323-.336" transform="translate(-133.69 -135.967)" fill="#2b1f38"/>
            <path id="Trazado_842068" data-name="Trazado 842068" d="M250.242,401.406a10.533,10.533,0,0,0,3.431.957c.281.041,12.106,1.648,15.353,1.806,1.373.07,2.078-.925,2.472-2.137.066-.194.12-.393.17-.593a42.059,42.059,0,0,0,.944-6.263,1.752,1.752,0,0,0-.557-1.512,1.417,1.417,0,0,0-1.727-.321c-.119.057-.24.1-.354.17-1.384.842-2.819,1.935-4.439,2.11a5.341,5.341,0,0,1-2.467-.391c-.845-.326-1.856-1.283-2.811-1.044a19.141,19.141,0,0,0-3.641,1.553c-1.151.553-2.352,1-3.516,1.53a12.809,12.809,0,0,0-2.944,1.439,2.062,2.062,0,0,0-.548.674,1.442,1.442,0,0,0,.632,2.022" transform="translate(-109.366 -172.396)" fill="#96384b"/>
            <path id="Trazado_842069" data-name="Trazado 842069" d="M250.242,406.252a10.534,10.534,0,0,0,3.431.957c.281.041,12.106,1.648,15.353,1.806,1.373.07,2.078-.925,2.472-2.137-.106-.011-.211-.027-.316-.038q-5.306-.638-10.607-1.283-4.459-.542-8.918-1.081c-.683-.081-1.362-.172-2.049-.247a1.442,1.442,0,0,0,.632,2.022" transform="translate(-109.366 -177.243)" fill="#2b1f38"/>
            <path id="Trazado_842070" data-name="Trazado 842070" d="M266.736,392.142c-.027-.082-.1-.042-.049-.068a3.488,3.488,0,0,0,1.7-3.107,1.3,1.3,0,0,0-.492-.983c-.734-.349-1,1.051-1.048,1.6a15.152,15.152,0,0,0,.029,2.042c0,.06.016.385.018.44,0,.031,0,.011-.011.016-.025-.016-.115.02-.149.056m-.268.364a2.126,2.126,0,0,1-.122-.848l-.038-.694c-.02-1.169-.157-2.717.946-3.487a.915.915,0,0,1,.929.046,2.4,2.4,0,0,1,.471,2.868,3.743,3.743,0,0,1-1.764,2.049.645.645,0,0,1-.421.065" transform="translate(-116.761 -169.851)" fill="#2b1f38"/>
            <path id="Trazado_842071" data-name="Trazado 842071" d="M264.209,393.218a.545.545,0,0,1-.406.14,3.752,3.752,0,0,1-2.446-1.034,3.347,3.347,0,0,1-1.175-1.842c-.1-.584.334-1.32,1-1.245,1.294.222,1.892,1.536,2.442,2.57.1.2.357.728.448.925a.91.91,0,0,1,.134.486m-.4-.207c-.068-.011-.151.043-.143.084-.04-.083-.172-.352-.213-.44a10.588,10.588,0,0,0-1.335-2.27,1.84,1.84,0,0,0-.969-.6c-.558.033-.515.747-.255,1.187a3.927,3.927,0,0,0,2.46,1.9,3.36,3.36,0,0,0,.474.069c.044-.009-.017.021-.02.071" transform="translate(-114.076 -170.667)" fill="#2b1f38"/>
            <path id="Trazado_842072" data-name="Trazado 842072" d="M280.066,395.9A6.46,6.46,0,0,1,274,398.879a12.393,12.393,0,0,1-3.74-1.023l-1.375-.7a.265.265,0,1,1,.259-.462c3.424,1.936,8.044,2.758,10.56-.985a.206.206,0,1,1,.363.2" transform="translate(-117.835 -173.456)" fill="#2b1f38"/>
            <path id="Trazado_842073" data-name="Trazado 842073" d="M274.135,274.972l-.221.18a34.231,34.231,0,0,0-3.889,3.675,12.165,12.165,0,0,0-2.764,4.4c-1.339,5.067-5.016,11.829-10.621,19.322-.474.63-2.274,3.243-4.155,6.137s-3.838,6.063-4.841,7.638c-1.579,3.145-2.1,4.188-2.248,4.48a19.964,19.964,0,0,0-1.146,4.459c-.14,1.393-.4,3.736-1.747,4.512-1.664.958-3.82-.469-5.521-1.535-2.137-1.337-5.341-1.285-7.908-2.237-1.952-.735-5.7-1.7-5.667-4.279.01-.826,1.166-.62,1.66-.571a27.048,27.048,0,0,0,7.82-.847c4.251-.833,5.411-1.813,6.93-5.673.2-.515.408-1.034.613-1.549,3.689-9.579,7-19.393,11.1-29.005a142.072,142.072,0,0,1,9.393-18.028Z" transform="translate(-97.957 -116.656)" fill="#f0d0bb"/>
            <path id="Trazado_842074" data-name="Trazado 842074" d="M221.414,365.429a10.531,10.531,0,0,0,3.113,1.731c.263.105,11.384,4.425,14.505,5.336,1.318.388,2.237-.416,2.9-1.5.11-.173.208-.354.3-.537a42.069,42.069,0,0,0,2.384-5.87,1.749,1.749,0,0,0-.188-1.6,1.416,1.416,0,0,0-1.6-.715,3.915,3.915,0,0,0-.384.083c-1.543.5-3.194,1.224-4.809,1.016a5.342,5.342,0,0,1-2.307-.956c-.745-.514-1.5-1.681-2.489-1.671a19.111,19.111,0,0,0-3.9.661c-1.249.269-2.521.423-3.776.667a12.837,12.837,0,0,0-3.2.713,2.058,2.058,0,0,0-.691.528,1.441,1.441,0,0,0,.141,2.113" transform="translate(-96.849 -158.176)" fill="#96384b"/>
            <path id="Trazado_842075" data-name="Trazado 842075" d="M221.414,367.435a10.532,10.532,0,0,0,3.113,1.731c.263.1,11.384,4.425,14.505,5.336,1.318.388,2.237-.416,2.9-1.5-.1-.036-.2-.075-.3-.111q-5.01-1.857-10.013-3.72-4.208-1.567-8.418-3.131c-.645-.238-1.284-.485-1.934-.717a1.441,1.441,0,0,0,.141,2.113" transform="translate(-96.849 -160.183)" fill="#2b1f38"/>
            <path id="Trazado_842076" data-name="Trazado 842076" d="M240.1,357.759c-.008-.086-.084-.063-.032-.078a3.49,3.49,0,0,0,2.383-2.623,1.3,1.3,0,0,0-.249-1.071c-.644-.495-1.214.777-1.394,1.316a15.078,15.078,0,0,0-.45,1.993c-.012.058-.075.378-.086.431-.006.031,0,.011-.013.013-.021-.022-.117-.007-.158.02m-.346.291a2.124,2.124,0,0,1,.08-.854l.125-.683c.254-1.142.484-2.678,1.736-3.169a.914.914,0,0,1,.892.261,2.4,2.4,0,0,1-.214,2.9,3.743,3.743,0,0,1-2.194,1.58.643.643,0,0,1-.425-.035" transform="translate(-105.112 -154.918)" fill="#2b1f38"/>
            <path id="Trazado_842077" data-name="Trazado 842077" d="M237.986,358.136a.545.545,0,0,1-.427.042,3.746,3.746,0,0,1-2.137-1.576,3.34,3.34,0,0,1-.711-2.065,1.034,1.034,0,0,1,1.267-.977c1.207.518,1.481,1.936,1.774,3.069.045.219.177.791.218,1a.916.916,0,0,1,.016.5m-.345-.3c-.064-.026-.157.006-.158.048-.02-.09-.084-.382-.1-.477a10.607,10.607,0,0,0-.766-2.518,1.838,1.838,0,0,0-.8-.81c-.55-.1-.676.606-.527,1.094a3.923,3.923,0,0,0,1.947,2.422,3.391,3.391,0,0,0,.445.178c.045,0-.022.016-.036.065" transform="translate(-102.91 -155.004)" fill="#2b1f38"/>
            <path id="Trazado_842078" data-name="Trazado 842078" d="M252.753,365.14a6.461,6.461,0,0,1-6.593,1.48,12.381,12.381,0,0,1-3.4-1.867l-1.172-1.006a.265.265,0,1,1,.36-.389c2.878,2.682,7.177,4.557,10.5,1.5.175-.212.5.079.307.276" transform="translate(-105.889 -159.289)" fill="#2b1f38"/>
            <path id="Trazado_842079" data-name="Trazado 842079" d="M336.552,244.527c-2.232,6.392-6.422,12.074-10.692,17.134A145.583,145.583,0,0,1,308.4,278.5c-2.339,1.979-4.695,3.951-6.964,6.012-.278.252-.553.5-.832.761-1.155,1.069-1.752,2.038-3.233,1.774a3.549,3.549,0,0,1-.458-.109,23.909,23.909,0,0,1-4.164-2.239,23.667,23.667,0,0,1-8.141-7.369l-.187-.275a15.56,15.56,0,0,1-1.393-2.59,20.715,20.715,0,0,1-.869-2.415c-.637-2.107-1.037-4.288-1.587-6.465-1.1-4.376-4.167-7.317-6.352-11.2-.3-.538-.564-.919-.832-1.38v0a13.6,13.6,0,0,1-1.235-3.136c-1.341-4.621-2.309-10.6,2.141-13.666,2.851-1.961,5.791-3.7,8.749-5.411a134.547,134.547,0,0,1,21.215-10.161c.763-.278,1.788-.607,3-.962q.786-.231,1.671-.472c.411-.113.839-.227,1.28-.344.74-.194,1.521-.388,2.324-.578.223-.055.447-.109.674-.161l.608-.143.975-.22c.308-.069.615-.135.927-.2.074-.015.147-.033.22-.044.2-.048.4-.088.608-.128.147-.033.293-.062.44-.092q.869-.176,1.749-.337c.517-.1,1.037-.19,1.554-.278,1-.168,2.005-.322,2.98-.45.759-.1,1.5-.187,2.225-.256l.15-.011q.714-.066,1.4-.11c.615-.037,1.206-.059,1.774-.062.279,0,.554,0,.824,0a16.76,16.76,0,0,1,1.862.132,8.886,8.886,0,0,1,1.488.307,4.364,4.364,0,0,1,1.122.5A1.948,1.948,0,0,1,335,217.9c.059.256.121.519.184.79,1.635,7.145,3.731,19.063,1.363,25.839" transform="translate(-118.838 -94.608)" fill="#d46965"/>
            <g id="Grupo_1079073" data-name="Grupo 1079073" transform="translate(163.321 121.161)" opacity="0.25" style="mix-blend-mode: multiply;isolation: isolate">
              <g id="Grupo_1079072" data-name="Grupo 1079072">
                <g id="Grupo_1079071" data-name="Grupo 1079071" clip-path="url(#clip-path-13)">
                  <path id="Trazado_842080" data-name="Trazado 842080" d="M345.243,244.527c-2.232,6.392-6.422,12.074-10.692,17.134A145.583,145.583,0,0,1,317.09,278.5c-2.339,1.979-4.695,3.951-6.964,6.012-.279.252-.553.5-.832.761-1.155,1.069-1.752,2.038-3.233,1.774a3.548,3.548,0,0,1-.458-.109,23.907,23.907,0,0,1-4.164-2.239,23.666,23.666,0,0,1-8.14-7.369l-.187-.275a15.564,15.564,0,0,1-1.393-2.59,20.709,20.709,0,0,1-.869-2.415,15.885,15.885,0,0,0,1.694-.4c.425-.117.879-.256,1.36-.413.3-.1.612-.209.931-.326,1.158-.41,2.434-.919,3.8-1.508a136.576,136.576,0,0,0,14.371-7.336c15.589-9.085,31.071-21.8,20.918-27.035-13.653-7.047-17.135-13.212-17.978-15.374q.786-.231,1.671-.472c.411-.113.839-.227,1.28-.344.74-.194,1.521-.388,2.324-.578.224-.055.447-.109.674-.161l.608-.143.975-.22c.308-.069.615-.135.927-.2.074-.015.147-.033.22-.044.2-.048.4-.088.608-.128.147-.033.293-.062.44-.092q.869-.176,1.749-.337c.517-.1,1.037-.19,1.554-.278,1-.168,2.005-.322,2.98-.45.759-.1,1.5-.187,2.225-.256l.15-.011q.714-.066,1.4-.11c.615-.037,1.206-.059,1.774-.062.279,0,.554,0,.824,0a16.759,16.759,0,0,1,1.862.132,8.886,8.886,0,0,1,1.488.307,4.364,4.364,0,0,1,1.122.5,1.948,1.948,0,0,1,.894,1.186c.059.256.121.519.184.79,1.635,7.145,3.731,19.063,1.363,25.839" transform="translate(-290.85 -215.77)" fill="#d46965"/>
                </g>
              </g>
            </g>
            <path id="Trazado_842081" data-name="Trazado 842081" d="M279.8,259.347a16.268,16.268,0,0,0,1.936,11.977c2.173,3.529,5.451,6.435,7.106,10.444a27.513,27.513,0,0,1,1.054,3.007,26.6,26.6,0,0,0,7.575,13.432,21.782,21.782,0,0,0,5.128,3.516.265.265,0,0,1-.245.469,22.3,22.3,0,0,1-5.253-3.6,26.374,26.374,0,0,1-6.84-10.625c-.659-2.01-1.085-4.056-1.917-5.992a23.083,23.083,0,0,0-3.267-5.3l-1.934-2.493a17.673,17.673,0,0,1-4.171-11.787,9.562,9.562,0,0,1,.437-3.182.206.206,0,0,1,.39.134" transform="translate(-122.318 -113.596)" fill="#2b1f38"/>
            <path id="Trazado_842082" data-name="Trazado 842082" d="M323.537,240.266c-5.276,3.645-8.987,9.082-11.8,14.763A84.941,84.941,0,0,0,305.189,273a.265.265,0,0,1-.515-.123,84.354,84.354,0,0,1,6.575-18.09c2.886-5.728,6.686-11.207,12.055-14.864a.206.206,0,0,1,.232.341" transform="translate(-133.587 -105.185)" fill="#2b1f38"/>
            <path id="Trazado_842083" data-name="Trazado 842083" d="M329.163,261.026a33.421,33.421,0,0,0-7.5,18.874.265.265,0,0,1-.529-.023,32.811,32.811,0,0,1,7.711-19.11c.163-.2.491.05.321.259" transform="translate(-140.806 -114.306)" fill="#2b1f38"/>
            <path id="Trazado_842084" data-name="Trazado 842084" d="M366.805,169.193c-.092,1.654-.29,3.253-.513,4.68a66.624,66.624,0,0,1-4.538,16.022q-.236.56-.495,1.108a4.256,4.256,0,0,1-.224.45,2.35,2.35,0,0,1-.473.563,3.259,3.259,0,0,1-.521.351l-.2.106q-.209.11-.473.231c-.371.176-.777.34-1.213.5s-.9.3-1.385.439a.013.013,0,0,1-.011,0,36.116,36.116,0,0,1-11.794,1.218c-.1,0-2.375-.278-2.412-.314a24.916,24.916,0,0,1-4.787-1.313,15.675,15.675,0,0,1-2.107-1.083c-.11-.062-.209-.121-.3-.176-.462-.281-.635-.49-.7-.812a8.971,8.971,0,0,1-.008-1.383v-.132a26.772,26.772,0,0,0-1.275-7.387,22.122,22.122,0,0,0-1.224-3.608,22.834,22.834,0,0,1-1.807-8.492c.249-7.01,4.267-16.794,16.494-16.93,1-.015,1.7-.19,2.807-.241,3.981-.2,11.557,1.4,14.573,4.036a7.319,7.319,0,0,1,2.3,3.381c.836,2.539.454,5.554.279,8.785" transform="translate(-144.845 -67.075)" fill="#bddecd"/>
            <g id="Grupo_1079076" data-name="Grupo 1079076" transform="translate(189.771 93.333)" opacity="0.25" style="mix-blend-mode: multiply;isolation: isolate">
              <g id="Grupo_1079075" data-name="Grupo 1079075">
                <g id="Grupo_1079074" data-name="Grupo 1079074" clip-path="url(#clip-path-14)">
                  <path id="Trazado_842085" data-name="Trazado 842085" d="M370.143,175c-.092,1.654-.29,3.253-.513,4.68a66.624,66.624,0,0,1-4.538,16.022c-.117.241-.227.48-.326.71-.059.147-.114.278-.169.4a4.256,4.256,0,0,1-.224.45,1.991,1.991,0,0,1-.473.563,3.257,3.257,0,0,1-.521.351l-.2.106q-.209.11-.473.231c-.371.176-.777.34-1.213.5s-.9.3-1.385.439a.013.013,0,0,1-.011,0,35.866,35.866,0,0,1-11.794,1.222v0c-.1,0-2.375-.278-2.412-.314a24.915,24.915,0,0,1-4.787-1.313A15.676,15.676,0,0,1,339,197.957c-.11-.062-.209-.121-.3-.176a1.4,1.4,0,0,1-.7-.812,5.423,5.423,0,0,1-.008-1.383v-.132c.011-.271.008-.582-.011-.944,4.483,1.841,15.024,2.956,19.55.523,4.241-2.305,4.743-6.761,5.457-11.408,2.412-15.016,5.63-16.118,6.873-17.412.836,2.539.454,5.554.279,8.785" transform="translate(-337.954 -166.213)" fill="#82b59b"/>
                </g>
              </g>
            </g>
            <path id="Trazado_842086" data-name="Trazado 842086" d="M340.418,166.463c.058,4.835,2.841,8.275,7.942,7.371a19.754,19.754,0,0,0,4.12-1.219.265.265,0,0,1,.346.143.268.268,0,0,1-.142.346,18.709,18.709,0,0,1-4.24,1.274c-3.07.572-6.308-.525-7.563-3.575A10.6,10.6,0,0,1,340,166.45a.206.206,0,1,1,.413.013" transform="translate(-149.082 -72.895)" fill="#2b1f38"/>
            <path id="Trazado_842087" data-name="Trazado 842087" d="M296.192,184.467H279.186l.26-4.83.645-12.063h15.2Z" transform="translate(-122.415 -73.476)" fill="#414156"/>
            <path id="Trazado_842088" data-name="Trazado 842088" d="M304.569,173.061c.214,3.58.394,7.162.517,10.747a.265.265,0,0,1-.529.022c-.183-3.582-.308-7.166-.4-10.752a.207.207,0,0,1,.412-.017" transform="translate(-133.364 -75.8)" fill="#2b1f38"/>
            <path id="Trazado_842089" data-name="Trazado 842089" d="M294.03,186.653h-3.846a.51.51,0,0,1-.51-.51v-3.985a2.431,2.431,0,0,1,2.431-2.431h0a2.431,2.431,0,0,1,2.431,2.431v3.985a.51.51,0,0,1-.51.51" transform="translate(-127.014 -78.805)" fill="#6d7085"/>
            <path id="Trazado_842090" data-name="Trazado 842090" d="M293.936,187.952h-2.451a.435.435,0,0,1-.435-.435V184.98a.435.435,0,0,1,.435-.435h2.451a.435.435,0,0,1,.435.435v2.537a.435.435,0,0,1-.435.435" transform="translate(-127.617 -80.918)" fill="#fff"/>
            <g id="Grupo_1079079" data-name="Grupo 1079079" transform="translate(156.771 94.098)" opacity="0.25" style="mix-blend-mode: multiply;isolation: isolate">
              <g id="Grupo_1079078" data-name="Grupo 1079078">
                <g id="Grupo_1079077" data-name="Grupo 1079077" clip-path="url(#clip-path-15)">
                  <path id="Trazado_842091" data-name="Trazado 842091" d="M296.192,184.467H279.186l.26-4.83c4.145-.381,11.41-2.18,11.062-10.095a10.892,10.892,0,0,1,.077-1.969h4.7Z" transform="translate(-279.185 -167.575)" fill="#414156"/>
                </g>
              </g>
            </g>
            <path id="Trazado_842092" data-name="Trazado 842092" d="M242.125,180.326c.061,2.382.088,4.765.058,7.147a.265.265,0,0,1-.53,0c-.03-2.383,0-4.765.058-7.147a.207.207,0,0,1,.413,0" transform="translate(-105.953 -78.983)" fill="#2b1f38"/>
            <path id="Trazado_842093" data-name="Trazado 842093" d="M244.869,185.594c-.976.061-1.954.088-2.932.058a.265.265,0,0,1,0-.53c.489-.022.978-.009,1.466-.006.489.021.978.025,1.466.065a.207.207,0,0,1,0,.413" transform="translate(-105.971 -81.166)" fill="#2b1f38"/>
            <path id="Trazado_842094" data-name="Trazado 842094" d="M247.347,184.762c0,.607-.314,1.1-.7,1.1s-.7-.492-.7-1.1.314-1.1.7-1.1.7.492.7,1.1" transform="translate(-107.838 -80.531)" fill="#6d7085"/>
            <path id="Trazado_842095" data-name="Trazado 842095" d="M317.289,160.578h0a1.436,1.436,0,0,1-1.436-1.436v-3.379a1.435,1.435,0,0,1,1.436-1.436h0a1.436,1.436,0,0,1,1.436,1.436v3.379a1.436,1.436,0,0,1-1.436,1.436" transform="translate(-138.491 -67.668)" fill="#6d7085"/>
            <path id="Trazado_842096" data-name="Trazado 842096" d="M312.813,160.911h0a2.132,2.132,0,0,1-2.132-2.132v-5.017a2.132,2.132,0,0,1,2.132-2.132h0a2.132,2.132,0,0,1,2.132,2.132v5.017a2.132,2.132,0,0,1-2.132,2.132" transform="translate(-136.223 -66.485)" fill="#414156"/>
            <path id="Trazado_842097" data-name="Trazado 842097" d="M275.418,146.991c-7.612.2-22.931.528-30.543.66a.265.265,0,0,1-.01-.53c7.613-.168,22.933-.441,30.545-.544a.206.206,0,0,1,.008.413" transform="translate(-107.255 -64.27)" fill="#82b59b"/>
            <path id="Trazado_842098" data-name="Trazado 842098" d="M302.5,142.034c.061,1.321.088,2.642.058,3.964a.265.265,0,0,1-.53,0c-.03-1.322,0-2.643.058-3.964a.207.207,0,0,1,.413,0" transform="translate(-132.426 -62.195)" fill="#2b1f38"/>
            <path id="Trazado_842099" data-name="Trazado 842099" d="M301.651,142.462c-.608,0-1.1-.314-1.1-.7s.493-.7,1.1-.7,1.1.314,1.1.7-.493.7-1.1.7" transform="translate(-131.782 -61.85)" fill="#6d7085"/>
            <path id="Trazado_842100" data-name="Trazado 842100" d="M303.084,145.945a1.281,1.281,0,0,1-1.279,1.28H299.13a1.278,1.278,0,0,1-1.265-1.075,1.3,1.3,0,0,1-.018-.2,1.282,1.282,0,0,1,1.283-1.281h2.676a1.284,1.284,0,0,1,1.279,1.281" transform="translate(-130.597 -63.431)" fill="#bddecd"/>
            <g id="Grupo_1079082" data-name="Grupo 1079082" transform="translate(167.268 81.314)" opacity="0.25" style="mix-blend-mode: multiply;isolation: isolate">
              <g id="Grupo_1079081" data-name="Grupo 1079081">
                <g id="Grupo_1079080" data-name="Grupo 1079080" clip-path="url(#clip-path-16)">
                  <path id="Trazado_842101" data-name="Trazado 842101" d="M303.1,146.008a1.281,1.281,0,0,1-1.279,1.28h-2.676a1.278,1.278,0,0,1-1.265-1.075c2.683.212,3.881-.743,4.384-1.4a1.281,1.281,0,0,1,.836,1.2" transform="translate(-297.879 -144.808)" fill="#82b59b"/>
                </g>
              </g>
            </g>
            <path id="Trazado_842102" data-name="Trazado 842102" d="M275.746,151.816v7.193a2.593,2.593,0,0,1-2.595,2.594H240.278a.428.428,0,0,0-.414.314L239,165.109a2.6,2.6,0,0,1-2.507,1.917h-5.682a2.6,2.6,0,0,1-2.459-1.756l-1.092-3.2a2.314,2.314,0,0,1-.114-.468,2.521,2.521,0,0,1-.026-.369v-9.418a2.593,2.593,0,0,1,2.6-2.59h43.433a2.593,2.593,0,0,1,2.595,2.59" transform="translate(-99.587 -65.431)" fill="#6d7085"/>
            <path id="Trazado_842103" data-name="Trazado 842103" d="M242.787,158.828h0a.433.433,0,0,1-.433-.433V147.5a.433.433,0,0,1,.433-.433h1.762a.433.433,0,0,1,.432.433v9.136a2.191,2.191,0,0,1-2.192,2.192" transform="translate(-106.264 -64.485)" fill="#414156"/>
            <path id="Trazado_842104" data-name="Trazado 842104" d="M296.1,157.168a3.5,3.5,0,1,1-3.5-3.491,3.494,3.494,0,0,1,3.5,3.491" transform="translate(-126.763 -67.383)" fill="#414156"/>
            <path id="Trazado_842105" data-name="Trazado 842105" d="M295.776,158.311a2.031,2.031,0,1,1-2.031-2.028,2.03,2.03,0,0,1,2.031,2.028" transform="translate(-127.908 -68.525)" fill="#fff"/>
            <path id="Trazado_842106" data-name="Trazado 842106" d="M240.3,171.269a.428.428,0,0,0-.414.314l-.861,3.191a2.6,2.6,0,0,1-2.507,1.917h-5.681a2.6,2.6,0,0,1-2.46-1.756l-1.092-3.2a2.354,2.354,0,0,1-.114-.468Z" transform="translate(-99.607 -75.096)" fill="#414156"/>
            <path id="Trazado_842107" data-name="Trazado 842107" d="M229.906,173.125c3.176-.061,6.353-.088,9.53-.058a.265.265,0,0,1,0,.529c-3.177.03-6.354,0-9.53-.058a.207.207,0,0,1,0-.413" transform="translate(-100.721 -75.879)" fill="#2b1f38"/>
            <path id="Trazado_842108" data-name="Trazado 842108" d="M233.819,151.91l-.768.024a2.116,2.116,0,0,0-2.071,2.258c0,.512,0,1.024-.011,1.536a.265.265,0,0,1-.53,0c.03-1.057-.223-2.207.431-3.145a2.592,2.592,0,0,1,2.181-1.11l.768.024a.207.207,0,0,1,0,.413" transform="translate(-101.03 -66.416)" fill="#fff"/>
            <g id="Grupo_1079085" data-name="Grupo 1079085" transform="translate(167.55 83.795)" opacity="0.25" style="mix-blend-mode: multiply;isolation: isolate">
              <g id="Grupo_1079084" data-name="Grupo 1079084">
                <g id="Grupo_1079083" data-name="Grupo 1079083" clip-path="url(#clip-path-17)">
                  <path id="Trazado_842109" data-name="Trazado 842109" d="M306.991,151.816v7.193A2.593,2.593,0,0,1,304.4,161.6h-6.015c5.132-2.821,5.714-9.451,5.707-12.378h.308a2.592,2.592,0,0,1,2.595,2.59" transform="translate(-298.382 -149.226)" fill="#414156"/>
                </g>
              </g>
            </g>
            <path id="Trazado_842110" data-name="Trazado 842110" d="M272.129,198.289v8.682a2.993,2.993,0,0,1-2.995,2.99H224.862a2.993,2.993,0,0,1-2.379-1.175l-1.621-2.115-2.353-3.066a3,3,0,0,1-.355-.6,2.958,2.958,0,0,1-.261-1.219v-3.5a2.993,2.993,0,0,1,2.995-2.989h48.245a2.993,2.993,0,0,1,2.995,2.989" transform="translate(-95.54 -85.633)" fill="#6d7085"/>
            <path id="Trazado_842111" data-name="Trazado 842111" d="M272.332,209.029v3.962a2.993,2.993,0,0,1-2.995,2.99H225.065a2.994,2.994,0,0,1-2.379-1.174l-3.973-5.181a2.973,2.973,0,0,1-.355-.6Z" transform="translate(-95.744 -91.653)" fill="#414156"/>
            <path id="Trazado_842112" data-name="Trazado 842112" d="M240.483,195.687v1.325a1.532,1.532,0,0,1-1.536,1.533H230.29a1.532,1.532,0,0,1-1.536-1.533v-1.325a1.5,1.5,0,0,1,.051-.388h11.626a1.5,1.5,0,0,1,.052.388" transform="translate(-100.302 -85.633)" fill="#414156"/>
            <path id="Trazado_842113" data-name="Trazado 842113" d="M229.906,197.767c3.176-.061,6.353-.088,9.53-.058a.265.265,0,0,1,0,.53c-3.177.03-6.353,0-9.53-.058a.207.207,0,0,1,0-.413" transform="translate(-100.721 -86.684)" fill="#2b1f38"/>
            <path id="Trazado_842114" data-name="Trazado 842114" d="M226.2,212.254c11.7-.047,35.258-.076,46.96-.058a.265.265,0,1,1,0,.53c-11.7.018-35.258-.011-46.96-.058a.206.206,0,0,1,0-.413" transform="translate(-99.091 -93.039)" fill="#2b1f38"/>
            <g id="Grupo_1079088" data-name="Grupo 1079088" transform="translate(125.323 109.667)" opacity="0.25" style="mix-blend-mode: multiply;isolation: isolate">
              <g id="Grupo_1079087" data-name="Grupo 1079087">
                <g id="Grupo_1079086" data-name="Grupo 1079086" clip-path="url(#clip-path-18)">
                  <path id="Trazado_842115" data-name="Trazado 842115" d="M274.447,198.289v8.682a2.993,2.993,0,0,1-2.995,2.99H227.18a2.993,2.993,0,0,1-2.379-1.175l-1.621-2.115c18.213,1.53,41.3-1.4,42.766-11.372h5.505a2.993,2.993,0,0,1,2.995,2.989" transform="translate(-223.181 -195.3)" fill="#414156"/>
                </g>
              </g>
            </g>
            <path id="Trazado_842116" data-name="Trazado 842116" d="M245.116,192.805c1.157-.793,3.361-1.732,4.431-.245.8,1.361.76,2.973,1.2,4.387.247.863.75,1.809,1.747,1.8a.207.207,0,0,1,.005.413c-1.18.072-1.947-1.073-2.22-2.071-.909-3.258-.519-6.422-4.88-3.838a.265.265,0,0,1-.279-.45" transform="translate(-107.422 -84.088)" fill="#82b59b"/>
            <path id="Trazado_842117" data-name="Trazado 842117" d="M242.034,194.443h-3a.549.549,0,0,1,0-1.1h3a.549.549,0,0,1,0,1.1" transform="translate(-104.571 -84.776)" fill="#6d7085"/>
            <path id="Trazado_842118" data-name="Trazado 842118" d="M351.453,159.59a13.223,13.223,0,0,0,7.023-3.5,47.748,47.748,0,0,0,4.133-4.625c1.085-1.195,2.051-2.772.886-4.261-3.8-4.859-1.053-6.277-5.854-7.456a16.438,16.438,0,0,0-3.31-.347c-3.16-.129-6.579,1.679-5.505,4.387.033.088.066.172.095.26.037.11.07.22.1.333a8,8,0,0,1-.2,4.281,10.436,10.436,0,0,1-.51,1.368,9.841,9.841,0,0,1-.608,1.145,11.523,11.523,0,0,0-1.713,4.542c-.343,2.817,2.333,3.939,4.477,3.93a9.218,9.218,0,0,0,.989-.056" transform="translate(-151.692 -61.12)" fill="#f0d0bb"/>
            <path id="Trazado_842119" data-name="Trazado 842119" d="M350.145,153.409l.176-.022a12.434,12.434,0,0,0,5.233-1.906,10.593,10.593,0,0,0,2.357-1.869c1.715-1.863.381-2.858-.631-2.4a19.535,19.535,0,0,1-6.139.589l-.286-.044a7.992,7.992,0,0,1-.2,4.281,10.522,10.522,0,0,1-.509,1.368" transform="translate(-153.528 -64.5)" fill="#2b1f38"/>
            <path id="Trazado_842120" data-name="Trazado 842120" d="M338.668,117.333c-.1,7.056,3,13.515,9.516,13.179,5.815-.3,11.465-5.829,11.564-12.884s-4.546-12.634-10.36-12.922c-6.064-.3-10.625,5.906-10.72,12.627" transform="translate(-148.495 -45.906)" fill="#f0d0bb"/>
          </g>
        </g>
        <g id="Grupo_1079095" data-name="Grupo 1079095" transform="translate(190.171 58.79)">
          <g id="Grupo_1079094" data-name="Grupo 1079094" clip-path="url(#clip-path-19)">
            <path id="Trazado_842121" data-name="Trazado 842121" d="M343.927,122.548c-.078-1.112-2.818-.66-2.619.457.168.944,2.682.45,2.619-.457" transform="translate(-339.82 -112.242)" fill="#d99449"/>
            <path id="Trazado_842122" data-name="Trazado 842122" d="M357.33,122.769c.183-1.1-2.587-1.3-2.653-.163-.056.957,2.5,1.06,2.653.163" transform="translate(-345.686 -112.215)" fill="#d99449"/>
            <path id="Trazado_842123" data-name="Trazado 842123" d="M348.773,139.343a1.823,1.823,0,0,0,.755.321,2.569,2.569,0,0,0,2.638-1.276.372.372,0,0,0,.036-.085,1.835,1.835,0,0,0,.165-.819c-.012-.281-.115-.688-.4-.793a.773.773,0,0,0-.828.185,4.487,4.487,0,0,0-.3.36,2.358,2.358,0,0,1-1.41.888,2.822,2.822,0,0,0-.546.156.6.6,0,0,0-.106,1.064" transform="translate(-342.976 -118.704)" fill="#fff"/>
            <path id="Trazado_842124" data-name="Trazado 842124" d="M342.643,128.182a.631.631,0,0,0,.655.522c.645-.074.8-.994.472-1.457a.649.649,0,0,0-1.137.24,1.28,1.28,0,0,0,.01.695" transform="translate(-340.386 -114.474)" fill="#2b1f38"/>
            <path id="Trazado_842125" data-name="Trazado 842125" d="M355.781,127.576a.631.631,0,0,0,.676.495c.641-.1.761-1.026.412-1.475a.649.649,0,0,0-1.125.286,1.285,1.285,0,0,0,.038.694" transform="translate(-346.14 -114.197)" fill="#2b1f38"/>
            <g id="Grupo_1079093" data-name="Grupo 1079093" transform="translate(-0.239 15.178)" opacity="0.35" style="mix-blend-mode: multiply;isolation: isolate">
              <g id="Grupo_1079092" data-name="Grupo 1079092">
                <g id="Grupo_1079091" data-name="Grupo 1079091" clip-path="url(#clip-path-20)">
                  <path id="Trazado_842126" data-name="Trazado 842126" d="M362.02,133.184c0-.738-.936-1.486-2.143-1.458-1.09.025-2.007.613-2.027,1.618-.016.782.979,1.546,1.993,1.522,1.173-.026,2.219-.624,2.177-1.682" transform="translate(-346.839 -131.725)" fill="#d46965"/>
                  <path id="Trazado_842127" data-name="Trazado 842127" d="M338.25,134.743c-.1-.731.724-1.6,1.924-1.736a1.831,1.831,0,0,1,2.229,1.327c.122.773-.76,1.664-1.768,1.779-1.166.133-2.283-.317-2.385-1.371" transform="translate(-338.241 -132.279)" fill="#d46965"/>
                </g>
              </g>
            </g>
            <path id="Trazado_842128" data-name="Trazado 842128" d="M349.512,125.839c-.207.965-.382,1.973-.547,2.948-.083.471-.092.942.189,1.16a2.786,2.786,0,0,0,.93.359,2,2,0,0,0,.332.072.225.225,0,0,1-.03.448c-1.381-.022-2.3-.638-1.951-2.13a24.157,24.157,0,0,1,.743-2.959.175.175,0,0,1,.335.1" transform="translate(-342.916 -113.871)" fill="#2b1f38"/>
            <path id="Trazado_842129" data-name="Trazado 842129" d="M369.923,131.728a.406.406,0,0,0,.651.125c.446-.368.676-1.6-.047-1.519a.329.329,0,0,0-.142.048,1.613,1.613,0,0,0-.462,1.345" transform="translate(-352.357 -115.936)" fill="#2b1f38"/>
          </g>
        </g>
        <g id="Grupo_1079097" data-name="Grupo 1079097">
          <g id="Grupo_1079096" data-name="Grupo 1079096" clip-path="url(#clip-path-2)">
            <path id="Trazado_842131" data-name="Trazado 842131" d="M339.209,100.218a4.4,4.4,0,0,1,3.423,1.737,2.407,2.407,0,0,1,.458,1.337,4.531,4.531,0,0,1-.677,2.58,5.185,5.185,0,0,1-3.1,1.809,3.9,3.9,0,0,0-2.513,2.362,28.317,28.317,0,0,0-1.443,4.855c-.267,1.123-.63,2.426-2.022,2.478-1.627.061-2.536-1.3-2.671-2.781-.171-1.888.788-2.812,1.736-4.259.664-1.014.4-1.7.291-2.837a6.778,6.778,0,0,1,4.047-6.878,5.737,5.737,0,0,1,2.474-.4" transform="translate(-144.976 -43.938)" fill="#d99449"/>
            <path id="Trazado_842132" data-name="Trazado 842132" d="M341.908,104.071c-2.1-.466-4.185.478-4.161,2.845-.023,1,.285,2.289-.376,3.228-.582.9-1.628,1.44-2.2,2.277a3.878,3.878,0,0,0-.741,1.8,2.716,2.716,0,0,0,.431,1.829.265.265,0,0,1-.441.294c-1.421-2.066.107-4.513,1.841-5.761,1.251-.946.975-2.277.971-3.68a3.751,3.751,0,0,1,.686-2.115,3.051,3.051,0,0,1,1.9-1.157,5.393,5.393,0,0,1,2.189.04.206.206,0,1,1-.1.4" transform="translate(-146.387 -45.398)" fill="#2b1f38"/>
            <path id="Trazado_842133" data-name="Trazado 842133" d="M377.13,93.023a4.912,4.912,0,0,1,3.759,1.031,3.7,3.7,0,0,1,1.376,3.517,10.316,10.316,0,0,1-.238,1.082c-.054.231-.124.459-.17.691a2.074,2.074,0,0,0,.419,1.787c.183.226.372.446.555.672a5.221,5.221,0,0,1,.8,1.445,2.409,2.409,0,0,1-.1,1.916,4.126,4.126,0,0,1-3.063,2.39,5.694,5.694,0,0,1-4.718-1.074,10.175,10.175,0,0,1-3.91-5.787,6.093,6.093,0,0,1,2.27-6.4,6.2,6.2,0,0,1,3.017-1.273" transform="translate(-162.955 -40.769)" fill="#d99449"/>
            <path id="Trazado_842134" data-name="Trazado 842134" d="M382.745,98.2c-1.27-1.651-3.689-.681-5.245.044a.265.265,0,0,1-.225-.479c1.736-.912,4.555-1.794,5.84.254a.206.206,0,1,1-.371.181" transform="translate(-165.36 -42.429)" fill="#2b1f38"/>
            <path id="Trazado_842135" data-name="Trazado 842135" d="M357.564,97.822a11.125,11.125,0,0,1,6.462,1.376,10.342,10.342,0,0,1,4.957,5.354c1.629,3.879-.359,4.88.288,10.095a9.143,9.143,0,0,1-2.029,6.96,11.921,11.921,0,0,1-2.684,2.493,3.129,3.129,0,0,1-2.141.553c-1.965-.3-2.27-2.257-1.663-3.859s3.31-2.564,2.706-4.414c-.34-1.041-1.417-1.338-2.383-1.508-1.612-.284-3.885-.549-4.467-2.117-.469-1.262-.161-1.53-.669-2.518-1.232-2.4-3.928-.34-5.39-3.182-.958-1.863-.1-4.264,1.034-5.842a8.24,8.24,0,0,1,5.98-3.39" transform="translate(-153.525 -42.869)" fill="#d99449"/>
            <path id="Trazado_842136" data-name="Trazado 842136" d="M354.415,108.692a1.968,1.968,0,0,0,1.558,2.2c1.024.161,2.405-.494,3.309.361,1.736,1.694-.072,4.4,3.005,5.265a10.746,10.746,0,0,1,3.164,1.128,5.238,5.238,0,0,1,1.933,2.826,4.748,4.748,0,0,1-.8,3.312c-.466.9-.877,1.947-.192,2.824a.265.265,0,0,1-.056.371c-.595.337-.965-1.408-.819-1.808.232-1.576,1.759-3,1.348-4.561a4.706,4.706,0,0,0-1.728-2.518c-1.36-.947-3.3-.7-4.54-1.936-1.336-1.184-.414-3.367-1.625-4.544-.846-.736-2.024-.063-3.078-.282a2.382,2.382,0,0,1-1.886-2.692.206.206,0,1,1,.409.057" transform="translate(-155.21 -47.555)" fill="#2b1f38"/>
            <path id="Trazado_842137" data-name="Trazado 842137" d="M352.242,103.883a6.039,6.039,0,0,0-1.956,4.473.265.265,0,0,1-.528-.032,6.231,6.231,0,0,1,1.257-3.83,4.215,4.215,0,0,1,1-.956.205.205,0,0,1,.285.057.208.208,0,0,1-.06.289" transform="translate(-153.358 -45.383)" fill="#2b1f38"/>
            <path id="Trazado_842138" data-name="Trazado 842138" d="M372.307,99.01c4.016,2.03,8.192,6.263,6.759,11.132a.265.265,0,0,1-.512-.138c1.288-4.634-2.693-8.573-6.43-10.624a.206.206,0,0,1,.183-.37" transform="translate(-163.116 -43.402)" fill="#2b1f38"/>
            <path id="Trazado_842139" data-name="Trazado 842139" d="M367.377,136.8a1.6,1.6,0,1,1,3.173.357,1.652,1.652,0,0,1-1.794,1.4,1.682,1.682,0,0,1-1.379-1.759" transform="translate(-161.081 -59.361)" fill="#414156"/>
            <path id="Trazado_842140" data-name="Trazado 842140" d="M369.72,136.248a1.321,1.321,0,0,1,1.175,1.622.265.265,0,0,1-.522-.07,1.008,1.008,0,0,0-.736-1.148.207.207,0,0,1,.083-.4" transform="translate(-162.01 -59.739)" fill="#fff"/>
            <path id="Trazado_842141" data-name="Trazado 842141" d="M317.278,179.141c.147.208.286.41.425.611a.525.525,0,0,1,.04.051q.874,1.23,1.785,2.44a91.41,91.41,0,0,0,8.129,9.484,55.577,55.577,0,0,0,4.853,4.365c.887.7,1.818,1.376,2.833,2.02q.764.489,1.6.944l.436.223.216.11.11.055.154.073c.418.186.828.373,1.275.527a11.075,11.075,0,0,0,7.9.326,10.7,10.7,0,0,0,4.89-4.636c.241-.4.469-.816.685-1.236l.231-.461.172-.355c.113-.234.227-.472.33-.7a57.357,57.357,0,0,0,2.584-7.047c1.078-3.567,3.625-8.712.686-11.979a5.691,5.691,0,0,0-7.924-.519c-2.712,2.056-2.866,5.174-3.556,8.339-.326,1.485-1.191,7.208-2.881,7.881l-.058.022c-.316.1-.8-.2-1.082-.326-.4-.175-.8-.369-1.195-.57a39.356,39.356,0,0,1-3.764-2.272c-1.965-1.317-3.871-2.781-5.784-4.292s-3.841-3.1-5.872-4.738c-.67-.541-1.371-1.1-2.086-1.672-.392-.315-.788-.629-1.191-.955,0,0-.007,0-.015-.007a5.388,5.388,0,0,0-2.331-.947,2.772,2.772,0,0,0-2.734,2.1c0,.007,0,.007,0,.015a4.657,4.657,0,0,0,1.133,3.136" transform="translate(-138.608 -75.451)" fill="#f0d0bb"/>
            <path id="Trazado_842142" data-name="Trazado 842142" d="M306.336,164.206c-.554-.316-.984-.043-.908.579.144,1.189,1.545,2.585,1.776,3a.4.4,0,0,1-.136-.051c-.227-.2-.456-.394-.669-.606-.615-.613-1.067-.446-1.142.075-.143.977,1.013,2.955,2.81,4.64s4.224,3.071,6.506,2.927a2.914,2.914,0,0,0,2.4-2.5,16.039,16.039,0,0,0-1.738-7.436c-.684-1.278-1.6-1.29-1.9-.5a7.416,7.416,0,0,0-.269,2.093c-.211,1.687-2.465-1.464-3.927-3.291-.928-1.151-2.034-1.228-2.084-.195-.043,1.126.866,2.47.509,2.2-.194-.145-.938-.764-1.226-.929" transform="translate(-133.841 -71.125)" fill="#f0d0bb"/>
            <path id="Trazado_842143" data-name="Trazado 842143" d="M324.143,180.826A3.292,3.292,0,0,1,321,183.258a.265.265,0,0,1-.033-.529,3.13,3.13,0,0,0,2.77-2,.206.206,0,0,1,.4.1" transform="translate(-140.628 -79.176)" fill="#2b1f38"/>
            <path id="Trazado_842144" data-name="Trazado 842144" d="M310.618,169.408a7.242,7.242,0,0,1-1.581-1.668.265.265,0,0,1,.434-.3c.439.565.932,1.121,1.425,1.666a.208.208,0,0,1-.277.306" transform="translate(-135.486 -73.371)" fill="#2b1f38"/>
            <path id="Trazado_842145" data-name="Trazado 842145" d="M309.155,173.377a8.444,8.444,0,0,1-1.592-1.736.265.265,0,0,1,.433-.305c.455.585.955,1.167,1.447,1.746a.208.208,0,0,1-.288.3" transform="translate(-134.839 -75.081)" fill="#2b1f38"/>
            <path id="Trazado_842146" data-name="Trazado 842146" d="M366.287,212.631a7.54,7.54,0,0,0-1.974-4.3.3.3,0,0,1,.422-.421,5.942,5.942,0,0,1,2.018,4.733.233.233,0,0,1-.465-.012" transform="translate(-159.71 -91.132)" fill="#2b1f38"/>
            <path id="Trazado_842147" data-name="Trazado 842147" d="M360.614,178.264c-1.361,3.284,2.834,5.065,5.265,5.842,2.593.828,8.444,2.645,10.424.132,1.04-1.32,1.256-3.279,1.721-4.842,1.611-5.414,5.31-17-2.478-19.546a7.224,7.224,0,0,0-8.958,4l-5.974,14.416" transform="translate(-158.002 -69.927)" fill="#bddecd"/>
            <path id="Trazado_842148" data-name="Trazado 842148" d="M364.785,174.923a122.371,122.371,0,0,0-4.391,11.579.265.265,0,0,1-.5-.167c.964-2.96,2.009-5.9,3.21-8.774a30.653,30.653,0,0,1,1.326-2.843.207.207,0,1,1,.358.206" transform="translate(-157.796 -76.561)" fill="#2b1f38"/>
            <path id="Trazado_842149" data-name="Trazado 842149" d="M377.627,197.408a26.576,26.576,0,0,1-11.291-2.541c-.5-.229-1-.482-1.5-.722a.265.265,0,1,1,.229-.477A29.56,29.56,0,0,0,377.6,197a.206.206,0,0,1,.028.412" transform="translate(-159.905 -84.906)" fill="#2b1f38"/>
          </g>
        </g>
        <text id="Cabezote" transform="translate(96.067 90.513)" font-size="6" font-family="Roboto-Regular, Roboto"><tspan x="0" y="0">Cabe</tspan><tspan y="0" letter-spacing="-0.008em">z</tspan><tspan y="0">ote</tspan></text>
        <text id="Mueble" transform="translate(2.646 129.649)" font-size="6" font-family="Roboto-Regular, Roboto"><tspan x="0" y="0">Mueble</tspan></text>
        <text id="Motor" transform="translate(65.872 165.49)" font-size="6" font-family="Roboto-Regular, Roboto"><tspan x="0" y="0">Mo</tspan><tspan y="0" letter-spacing="-0.009em">t</tspan><tspan y="0">or</tspan></text>
        <g id="Grupo_1079099" data-name="Grupo 1079099">
          <g id="Grupo_1079098" data-name="Grupo 1079098" clip-path="url(#clip-path-2)">
            <text id="Pedal" transform="translate(111.487 237.16)" font-size="8" font-family="Roboto-Regular, Roboto"><tspan x="0" y="0">Pedal</tspan></text>
          </g>
        </g>
        <text id="Interruptor" transform="translate(9.246 144.017)" font-size="6" font-family="Roboto-Regular, Roboto"><tspan x="0" y="0">Interrup</tspan><tspan y="0" letter-spacing="-0.009em">t</tspan><tspan y="0">or</tspan></text>
        <g id="Grupo_1079101" data-name="Grupo 1079101">
          <g id="Grupo_1079100" data-name="Grupo 1079100" clip-path="url(#clip-path-2)">
            <rect id="Rectángulo_374735" data-name="Rectángulo 374735" width="8.547" height="10.937" transform="translate(42.202 137.424)"/>
            <rect id="Rectángulo_374736" data-name="Rectángulo 374736" width="4.273" height="1.597" transform="translate(43.886 140.734)" fill="#c0c5d8"/>
            <rect id="Rectángulo_374737" data-name="Rectángulo 374737" width="4.273" height="1.597" transform="translate(43.886 144.518)" fill="#c0c5d8"/>
          </g>
        </g>
      </g>
    </g>
  </g>
</svg>
