<svg xmlns="http://www.w3.org/2000/svg" width="400" height="389" viewBox="0 0 400 389">
  <g id="Grupo_1078510" data-name="Grupo 1078510" transform="translate(-1020 -5025.167)">
    <path id="Trazado_774731" data-name="Trazado 774731" d="M20,0H380c11.046,0,20,7.318,20,16.345V372.655c0,9.027-8.954,16.345-20,16.345H20c-11.046,0-20-7.318-20-16.345V16.345C0,7.318,8.954,0,20,0Z" transform="translate(1020 5025.167)" fill="#ffd54f"/>
    <path id="Trazado_841133" data-name="Trazado 841133" d="M110.191,15.758h-6.469v4.078h7.641V23H99.609V5.938h11.777V9.113h-7.664v3.6h6.469Zm6.293-5.437.129,1.488a4.3,4.3,0,0,1,3.621-1.723,3.618,3.618,0,0,1,2.959,1.184,5.635,5.635,0,0,1,1.014,3.563V23h-3.961V15a2.14,2.14,0,0,0-.387-1.412,1.789,1.789,0,0,0-1.406-.451,1.883,1.883,0,0,0-1.723.914V23h-3.949V10.32Zm9.41,6.246a7.746,7.746,0,0,1,1.3-4.746,4.282,4.282,0,0,1,3.633-1.734,3.641,3.641,0,0,1,2.859,1.336V5h3.961V23H134.1l-.2-1.359a3.739,3.739,0,0,1-3.094,1.594,4.274,4.274,0,0,1-3.586-1.734A7.991,7.991,0,0,1,125.895,16.566Zm3.949.246q0,3.375,1.969,3.375a1.944,1.944,0,0,0,1.875-1.1V14.258a1.892,1.892,0,0,0-1.852-1.125q-1.828,0-1.98,2.953Zm9.551-.27a7.484,7.484,0,0,1,.738-3.381,5.28,5.28,0,0,1,2.121-2.279,6.388,6.388,0,0,1,3.246-.8,5.83,5.83,0,0,1,4.488,1.764,6.768,6.768,0,0,1,1.641,4.8v.141a6.566,6.566,0,0,1-1.646,4.705,5.846,5.846,0,0,1-4.459,1.74,5.912,5.912,0,0,1-4.348-1.623,6.348,6.348,0,0,1-1.77-4.4Zm3.949.246a4.718,4.718,0,0,0,.551,2.578,1.835,1.835,0,0,0,1.629.82q2.109,0,2.156-3.246v-.4q0-3.41-2.18-3.41-1.98,0-2.145,2.941ZM157.1,10.32l.129,1.488a4.36,4.36,0,0,1,3.621-1.723A3.21,3.21,0,0,1,164.1,12a4.22,4.22,0,0,1,3.727-1.91q3.855,0,3.961,4.664V23h-3.961V15a2.417,2.417,0,0,0-.328-1.418,1.4,1.4,0,0,0-1.2-.445,1.871,1.871,0,0,0-1.746,1.043l.012.164V23h-3.961V15.02a2.541,2.541,0,0,0-.316-1.441,1.393,1.393,0,0,0-1.207-.445,1.894,1.894,0,0,0-1.734,1.043V23H153.4V10.32Zm16.441,6.223a7.484,7.484,0,0,1,.738-3.381,5.28,5.28,0,0,1,2.121-2.279,6.388,6.388,0,0,1,3.246-.8,5.83,5.83,0,0,1,4.488,1.764,6.768,6.768,0,0,1,1.641,4.8v.141a6.566,6.566,0,0,1-1.646,4.705,5.846,5.846,0,0,1-4.459,1.74,5.912,5.912,0,0,1-4.348-1.623,6.348,6.348,0,0,1-1.77-4.4Zm3.949.246a4.718,4.718,0,0,0,.551,2.578,1.835,1.835,0,0,0,1.629.82q2.109,0,2.156-3.246v-.4q0-3.41-2.18-3.41-1.98,0-2.145,2.941Zm17.7-2.895-1.3-.094a2.336,2.336,0,0,0-2.391,1.172V23h-3.949V10.32h3.7l.129,1.629a3.058,3.058,0,0,1,2.777-1.863,3.851,3.851,0,0,1,1.1.141ZM197.719,23V13.063h-1.84V10.32h1.84V9.313A4.381,4.381,0,0,1,199,5.949a5.047,5.047,0,0,1,3.586-1.2A7.853,7.853,0,0,1,204.434,5l.012,2.906a3.608,3.608,0,0,0-.973-.105q-1.793,0-1.793,1.547v.973h2.473v2.742H201.68V23Zm7.324-6.457a7.484,7.484,0,0,1,.738-3.381,5.28,5.28,0,0,1,2.121-2.279,6.388,6.388,0,0,1,3.246-.8,5.83,5.83,0,0,1,4.488,1.764,6.768,6.768,0,0,1,1.641,4.8v.141a6.566,6.566,0,0,1-1.646,4.705,5.846,5.846,0,0,1-4.459,1.74,5.912,5.912,0,0,1-4.348-1.623,6.348,6.348,0,0,1-1.77-4.4Zm3.949.246a4.718,4.718,0,0,0,.551,2.578,1.835,1.835,0,0,0,1.629.82q2.109,0,2.156-3.246v-.4q0-3.41-2.18-3.41-1.98,0-2.145,2.941Zm23.719.375h-7.043V14.117h7.043ZM75.855,53.234a6.518,6.518,0,0,1-4.723-1.74,6.009,6.009,0,0,1-1.8-4.529v-.328a7.787,7.787,0,0,1,.721-3.434,5.274,5.274,0,0,1,2.1-2.3,6.35,6.35,0,0,1,3.281-.814,5.489,5.489,0,0,1,4.219,1.658A6.516,6.516,0,0,1,81.2,46.367V47.9H73.348a2.846,2.846,0,0,0,.926,1.676,2.755,2.755,0,0,0,1.852.609,3.549,3.549,0,0,0,2.93-1.312l1.8,2.133a5.045,5.045,0,0,1-2.092,1.623A7.069,7.069,0,0,1,75.855,53.234Zm-.445-10.1q-1.734,0-2.062,2.3h3.984v-.3a1.956,1.956,0,0,0-.48-1.471A1.912,1.912,0,0,0,75.41,43.133Zm14.016,6.3a.912.912,0,0,0-.527-.809,8.021,8.021,0,0,0-2-.633,9.138,9.138,0,0,1-2.437-.861,4.083,4.083,0,0,1-1.465-1.295,3.092,3.092,0,0,1-.5-1.746,3.5,3.5,0,0,1,1.441-2.877A5.938,5.938,0,0,1,87.7,40.086a6.579,6.579,0,0,1,4.031,1.137,3.555,3.555,0,0,1,1.523,2.988H89.3q0-1.523-1.605-1.523a1.591,1.591,0,0,0-1.043.346,1.07,1.07,0,0,0-.422.861.982.982,0,0,0,.516.855,4.872,4.872,0,0,0,1.646.539,14.228,14.228,0,0,1,1.986.5q2.859.984,2.859,3.527a3.321,3.321,0,0,1-1.541,2.824,6.758,6.758,0,0,1-3.99,1.09,6.9,6.9,0,0,1-2.906-.586A4.86,4.86,0,0,1,82.8,51.055a3.609,3.609,0,0,1-.715-2.121h3.691a1.526,1.526,0,0,0,.586,1.283,2.41,2.41,0,0,0,1.441.4,1.9,1.9,0,0,0,1.213-.328A1.05,1.05,0,0,0,89.426,49.438ZM99.68,37.168V40.32h2.086v2.742H99.68v5.8a1.481,1.481,0,0,0,.258,1,1.383,1.383,0,0,0,1.02.281,5.793,5.793,0,0,0,.984-.07v2.824a7.288,7.288,0,0,1-2.227.34,4.137,4.137,0,0,1-3.012-.961,3.939,3.939,0,0,1-.973-2.918V43.063H94.113V40.32H95.73V37.168Zm11.309,6.727-1.3-.094a2.336,2.336,0,0,0-2.391,1.172V53h-3.949V40.32h3.7l.129,1.629a3.058,3.058,0,0,1,2.777-1.863,3.851,3.851,0,0,1,1.1.141Zm8.977,7.734a4.072,4.072,0,0,1-3.387,1.605,3.993,3.993,0,0,1-3.158-1.213,5.1,5.1,0,0,1-1.072-3.486V40.32H116.3v8.238a1.419,1.419,0,0,0,1.582,1.629,2.064,2.064,0,0,0,1.934-.973V40.32h3.973V53h-3.7Zm11.344-1.441a1.756,1.756,0,0,0,1.289-.451,1.654,1.654,0,0,0,.445-1.26h3.7a4.384,4.384,0,0,1-1.494,3.422,5.558,5.558,0,0,1-3.85,1.336,5.627,5.627,0,0,1-4.359-1.734,6.834,6.834,0,0,1-1.594-4.8v-.164a7.723,7.723,0,0,1,.709-3.393,5.162,5.162,0,0,1,2.045-2.262,6.1,6.1,0,0,1,3.164-.791,5.488,5.488,0,0,1,3.926,1.371,4.863,4.863,0,0,1,1.453,3.715h-3.7a2.168,2.168,0,0,0-.48-1.512,1.658,1.658,0,0,0-1.289-.527q-1.535,0-1.793,1.957A13.809,13.809,0,0,0,129.4,46.8a5.424,5.424,0,0,0,.457,2.648A1.582,1.582,0,0,0,131.309,50.188Zm11.707-13.02V40.32H145.1v2.742h-2.086v5.8a1.481,1.481,0,0,0,.258,1,1.383,1.383,0,0,0,1.02.281,5.793,5.793,0,0,0,.984-.07v2.824a7.288,7.288,0,0,1-2.227.34,4.137,4.137,0,0,1-3.012-.961,3.939,3.939,0,0,1-.973-2.918V43.063h-1.617V40.32h1.617V37.168Zm11.191,14.461a4.072,4.072,0,0,1-3.387,1.605,3.993,3.993,0,0,1-3.158-1.213,5.1,5.1,0,0,1-1.072-3.486V40.32h3.949v8.238a1.419,1.419,0,0,0,1.582,1.629,2.064,2.064,0,0,0,1.934-.973V40.32h3.973V53h-3.7Zm13.652-7.734-1.3-.094a2.336,2.336,0,0,0-2.391,1.172V53h-3.949V40.32h3.7l.129,1.629a3.058,3.058,0,0,1,2.777-1.863,3.851,3.851,0,0,1,1.1.141ZM176.074,53a4.459,4.459,0,0,1-.375-1.137,3.672,3.672,0,0,1-3.047,1.371,4.5,4.5,0,0,1-3.047-1.084,3.45,3.45,0,0,1-1.254-2.725,3.546,3.546,0,0,1,1.523-3.117,7.761,7.761,0,0,1,4.43-1.055h1.219v-.671q0-1.755-1.512-1.755a1.236,1.236,0,0,0-1.406,1.39h-3.949a3.54,3.54,0,0,1,1.564-2.985,6.575,6.575,0,0,1,3.99-1.147,5.764,5.764,0,0,1,3.832,1.184,4.115,4.115,0,0,1,1.441,3.246v5.613a5.748,5.748,0,0,0,.539,2.672V53ZM173.6,50.422a2.2,2.2,0,0,0,1.225-.316,1.983,1.983,0,0,0,.7-.715V47.363h-1.148q-2.062,0-2.062,1.852a1.131,1.131,0,0,0,.363.873A1.315,1.315,0,0,0,173.6,50.422Zm25.816-3.668a7.646,7.646,0,0,1-1.33,4.717,4.264,4.264,0,0,1-3.592,1.764,3.655,3.655,0,0,1-2.871-1.277v5.918h-3.949V40.32h3.691l.117,1.172a3.656,3.656,0,0,1,2.988-1.406,4.3,4.3,0,0,1,3.645,1.729,7.741,7.741,0,0,1,1.3,4.752Zm-3.949-.246q0-3.375-1.969-3.375a1.859,1.859,0,0,0-1.875,1.008v4.992a1.919,1.919,0,0,0,1.9,1.055q1.887,0,1.945-3.258Zm11.824,6.727a6.518,6.518,0,0,1-4.723-1.74,6.009,6.009,0,0,1-1.8-4.529v-.328a7.787,7.787,0,0,1,.721-3.434,5.274,5.274,0,0,1,2.1-2.3,6.35,6.35,0,0,1,3.281-.814,5.489,5.489,0,0,1,4.219,1.658,6.516,6.516,0,0,1,1.547,4.623V47.9h-7.852a2.846,2.846,0,0,0,.926,1.676,2.755,2.755,0,0,0,1.852.609,3.549,3.549,0,0,0,2.93-1.312l1.8,2.133a5.045,5.045,0,0,1-2.092,1.623A7.069,7.069,0,0,1,207.293,53.234Zm-.445-10.1q-1.734,0-2.062,2.3h3.984v-.3a1.956,1.956,0,0,0-.48-1.471A1.912,1.912,0,0,0,206.848,43.133Zm14.016,6.3a.912.912,0,0,0-.527-.809,8.021,8.021,0,0,0-2-.633,9.138,9.138,0,0,1-2.437-.861,4.083,4.083,0,0,1-1.465-1.295,3.092,3.092,0,0,1-.5-1.746,3.5,3.5,0,0,1,1.441-2.877,5.938,5.938,0,0,1,3.773-1.131,6.579,6.579,0,0,1,4.031,1.137,3.555,3.555,0,0,1,1.523,2.988h-3.961q0-1.523-1.605-1.523a1.591,1.591,0,0,0-1.043.346,1.07,1.07,0,0,0-.422.861.982.982,0,0,0,.516.855,4.872,4.872,0,0,0,1.646.539,14.228,14.228,0,0,1,1.986.5q2.859.984,2.859,3.527a3.321,3.321,0,0,1-1.541,2.824,6.758,6.758,0,0,1-3.99,1.09,6.9,6.9,0,0,1-2.906-.586,4.86,4.86,0,0,1-1.992-1.594,3.609,3.609,0,0,1-.715-2.121h3.691a1.526,1.526,0,0,0,.586,1.283,2.41,2.41,0,0,0,1.441.4,1.9,1.9,0,0,0,1.213-.328A1.05,1.05,0,0,0,220.863,49.438ZM233.66,53a4.459,4.459,0,0,1-.375-1.137,3.672,3.672,0,0,1-3.047,1.371,4.5,4.5,0,0,1-3.047-1.084,3.45,3.45,0,0,1-1.254-2.725,3.546,3.546,0,0,1,1.523-3.117,7.761,7.761,0,0,1,4.43-1.055h1.219v-.671q0-1.755-1.512-1.755a1.236,1.236,0,0,0-1.406,1.39h-3.949a3.54,3.54,0,0,1,1.564-2.985,6.575,6.575,0,0,1,3.99-1.147,5.764,5.764,0,0,1,3.832,1.184,4.115,4.115,0,0,1,1.441,3.246v5.613a5.748,5.748,0,0,0,.539,2.672V53Zm-2.473-2.578a2.2,2.2,0,0,0,1.225-.316,1.983,1.983,0,0,0,.7-.715V47.363h-1.148q-2.062,0-2.062,1.852a1.131,1.131,0,0,0,.363.873A1.315,1.315,0,0,0,231.188,50.422Zm7.57-3.855a7.746,7.746,0,0,1,1.3-4.746,4.282,4.282,0,0,1,3.633-1.734,3.641,3.641,0,0,1,2.859,1.336V35h3.961V53h-3.551l-.2-1.359a3.739,3.739,0,0,1-3.094,1.594,4.274,4.274,0,0,1-3.586-1.734A7.991,7.991,0,0,1,238.758,46.566Zm3.949.246q0,3.375,1.969,3.375a1.944,1.944,0,0,0,1.875-1.1V44.258a1.892,1.892,0,0,0-1.852-1.125q-1.828,0-1.98,2.953ZM259.9,53a4.459,4.459,0,0,1-.375-1.137,3.672,3.672,0,0,1-3.047,1.371,4.5,4.5,0,0,1-3.047-1.084,3.45,3.45,0,0,1-1.254-2.725,3.546,3.546,0,0,1,1.523-3.117,7.761,7.761,0,0,1,4.43-1.055h1.219v-.671q0-1.755-1.512-1.755a1.236,1.236,0,0,0-1.406,1.39H252.48a3.54,3.54,0,0,1,1.564-2.985,6.575,6.575,0,0,1,3.99-1.147,5.764,5.764,0,0,1,3.832,1.184,4.115,4.115,0,0,1,1.441,3.246v5.613a5.748,5.748,0,0,0,.539,2.672V53Zm-2.473-2.578a2.2,2.2,0,0,0,1.225-.316,1.983,1.983,0,0,0,.7-.715V47.363H258.2q-2.062,0-2.062,1.852a1.131,1.131,0,0,0,.363.873A1.315,1.315,0,0,0,257.426,50.422Z" transform="translate(1054 5328.587)" fill="#12263f"/>
    <g id="Grupo_6554" data-name="Grupo 6554" transform="translate(1140.952 5056.887)">
      <path id="Trazado_22014" data-name="Trazado 22014" d="M455.245,97.108c-13.567,4.7-25.847,15.839-29.344,29.969-5.555,22.453,10.725,45.78.767,67.614-3.415,7.486-10.537,11.57-15.505,17.934-3.544,4.537-6.216,9.926-6.618,15.659-1.126,16.1,14.526,33.641,28.205,40.458,19.692,9.811,46.365,8.879,66.9,2.405,10.768-3.4,20.545-10.084,31.929-11.465,9.66-1.171,18.437,2.393,27.62,4.6,18.047,4.334,41.6,3.67,53.12-13.174,4.9-7.159,6.808-16.008,6.908-24.669a107.124,107.124,0,0,0-7.428-39.912c-4.466-11.195-11.288-21.821-13.492-33.808-2.387-12.973.016-26.324.573-39.343.639-14.991-1.308-31.695-14.52-41.1-16.523-11.761-42.6-6.475-58.757,2.876-10.611,6.14-19.99,13.748-32.276,16.225-12.172,2.454-24.886,1.545-36.819,5.31C456.085,96.821,455.663,96.961,455.245,97.108Z" transform="translate(-433.439 -48.187)" fill="#ffe38a"/>
      <g id="Grupo_6536" data-name="Grupo 6536" transform="translate(115.659 14.063)">
        <g id="Grupo_6528" data-name="Grupo 6528" transform="translate(55.157 82.026)">
          <g id="Grupo_6527" data-name="Grupo 6527" transform="translate(0 28.745)">
            <path id="Trazado_22015" data-name="Trazado 22015" d="M505.754,143.089l-2.872,1.158h0a2.676,2.676,0,0,1,1.675-3.083l2.548-.954.859-.851.316,3.022Z" transform="translate(-500.575 -111.103)" fill="#962e09"/>
            <g id="Grupo_6525" data-name="Grupo 6525" transform="translate(0 20.863)">
              <path id="Trazado_22016" data-name="Trazado 22016" d="M511.47,139.31l-5.269,1.956-4.6-1.458s.757-1.653,1.827-1.359a19.645,19.645,0,0,0,3.33.36l3.574-2.085Z" transform="translate(-501.599 -134.175)" fill="#792304"/>
              <path id="Trazado_22017" data-name="Trazado 22017" d="M510.479,137l-4.524,1.677-3.66-1.669s.794-1.292,1.649-.939a16.531,16.531,0,0,0,2.719.632l3.166-1.362Z" transform="translate(-501.016 -135.338)" fill="#ff7e46"/>
              <path id="Trazado_22018" data-name="Trazado 22018" d="M511.479,137.881l-5.431,2.013-4.392-2s.954-1.55,1.98-1.127a19.838,19.838,0,0,0,3.261.759l3.8-1.636Z" transform="translate(-501.551 -134.878)" fill="#792304"/>
            </g>
            <g id="Grupo_6526" data-name="Grupo 6526" transform="translate(2.836)">
              <path id="Trazado_22019" data-name="Trazado 22019" d="M503.846,143.288c-.017,1.3.48,3.473.127,4.719-.629,2.225-1.392,5.341-.221,5.712,1.6.509,2.706-4.9,2.791-5.122a1.2,1.2,0,0,1,1.5-.7h0a.7.7,0,0,1,.476.684l-.344,2.429-.485,1.235.316,3.022s2.293-1.669,2.583-2.392c.822-2.043,2.607-4.824,2.19-6.528-.191-.78-2.655-7.668-2.655-7.668l.267-11.323a3.287,3.287,0,0,0-4.361-3.182h0l-1,10.921a6.845,6.845,0,0,1-.329,3.456A14.186,14.186,0,0,0,503.846,143.288Z" transform="translate(-503.142 -123.99)" fill="#962e09"/>
              <path id="Trazado_22020" data-name="Trazado 22020" d="M504.995,138.676a1.2,1.2,0,0,1,1.5-.7.7.7,0,0,1,.476.684l-.344,2.429s2.2-5.837-.072-5.218C505.671,136.113,504.91,138.9,504.995,138.676Z" transform="translate(-501.593 -114.068)" fill="#792304"/>
            </g>
          </g>
          <path id="Trazado_22021" data-name="Trazado 22021" d="M504.293,150.2l-.237-36.157,9.2-5.683s4.059,10.891,2.456,18.1c-1.91,8.591-6.348,25.331-6.348,25.331Z" transform="translate(-499.539 -108.355)" fill="#962e09"/>
        </g>
        <g id="Grupo_6529" data-name="Grupo 6529" transform="translate(11.489 201.425)">
          <path id="Trazado_22022" data-name="Trazado 22022" d="M492.161,178.582s-2.633,14.748-2.633,19.622,2.107,7.374,1.316,8.56-1.975,1.053-2.239,3.686-2.9,4.741-7.111,4.741-3.686-3.951-3.556-4.609,4.214-5.267,5.4-9.218-.791-24.1-.791-24.1S491.24,167.52,492.161,178.582Z" transform="translate(-477.847 -173.299)" fill="#962e09"/>
        </g>
        <path id="Trazado_22023" data-name="Trazado 22023" d="M504.682,115.34H490.564s-18.357,3.809-16.489,37.876c.575,10.507,7.056,27.778,8.812,41.528-1.3,13.84,3.951,44.817,3.951,44.817l6.718.107c2.4-14.9,4.2-29.153,4.35-41.629l6.773-40.768,0,.02Z" transform="translate(-469.632 -20.472)" fill="#962e09"/>
        <g id="Grupo_6530" data-name="Grupo 6530" transform="translate(42.297 201.425)">
          <path id="Trazado_22024" data-name="Trazado 22024" d="M494.6,178.582s2.635,14.748,2.635,19.622-2.107,7.374-1.316,8.56,1.974,1.053,2.237,3.686,2.9,4.741,7.111,4.741,3.688-3.951,3.556-4.609-4.214-5.267-5.4-9.218.79-24.1.79-24.1S495.527,167.52,494.6,178.582Z" transform="translate(-494.604 -173.299)" fill="#962e09"/>
        </g>
        <path id="Trazado_22025" data-name="Trazado 22025" d="M489.575,115.34h14.119s18.346,2.844,16.039,39.036c-.669,10.5-6.606,26.617-8.363,40.367,1.3,13.84-3.949,44.817-3.949,44.817l-6.72.107c-2.4-14.9-4.2-29.153-4.35-41.629L489.58,157.27l-.005.02Z" transform="translate(-456.524 -20.472)" fill="#962e09"/>
        <path id="Trazado_22026" data-name="Trazado 22026" d="M523.181,122.484c-4.536-6.324-9.8-7.144-9.8-7.144H487.142s-4.714.982-9.119,6.378A158.847,158.847,0,0,0,523.181,122.484Z" transform="translate(-466.21 -20.472)" fill="#832307"/>
        <path id="Trazado_22027" data-name="Trazado 22027" d="M518.477,116.512a25.97,25.97,0,0,1-14.441,3.82c-6.725-.195-14.1-.6-20.03-4.083a21.745,21.745,0,0,0-6.756,6.628c10.8,5.332,18.62,14.129,24.66,24.257,2.379-8.849,17.944-21.942,23.63-22.672A21.347,21.347,0,0,0,518.477,116.512Z" transform="translate(-466.859 -19.71)" fill="#ffd54f"/>
        <ellipse id="Elipse_554" data-name="Elipse 554" cx="3.431" cy="3.431" rx="3.431" ry="3.431" transform="translate(23.202 27.807)" fill="#431202"/>
        <path id="Trazado_22028" data-name="Trazado 22028" d="M488.854,80.725a3.432,3.432,0,1,1-3.431-3.431A3.432,3.432,0,0,1,488.854,80.725Z" transform="translate(-462.883 -52.373)" fill="#431202"/>
        <ellipse id="Elipse_555" data-name="Elipse 555" cx="4.112" cy="4.112" rx="4.112" ry="4.112" transform="translate(41.077 9.237)" fill="#431202"/>
        <path id="Trazado_22029" data-name="Trazado 22029" d="M502.8,75.794a3.612,3.612,0,1,1-3.611-3.611A3.611,3.611,0,0,1,502.8,75.794Z" transform="translate(-451.491 -56.658)" fill="#431202"/>
        <path id="Trazado_22030" data-name="Trazado 22030" d="M501.729,78.412a3.611,3.611,0,1,1-3.611-3.611A3.612,3.612,0,0,1,501.729,78.412Z" transform="translate(-452.387 -54.463)" fill="#431202"/>
        <path id="Trazado_22031" data-name="Trazado 22031" d="M481.9,81.148c.618,7.815,6.962,13.687,14.173,13.118s12.709-7.378,11.939-15.178c-.836-8.461-6.194-12.1-13.342-10.992C486.824,69.314,481.281,73.334,481.9,81.148Z" transform="translate(-463 -60.249)" fill="#431202"/>
        <path id="Trazado_22032" data-name="Trazado 22032" d="M520.719,133.059c-.173-7.464-13.632-41.289-18.968-43.206,0,0-7.141,17.147-2.434,29.041S510.39,135.62,510.39,135.62C517.187,133.818,520.719,133.059,520.719,133.059Z" transform="translate(-449.701 -41.842)" fill="#962e09"/>
        <path id="Trazado_22033" data-name="Trazado 22033" d="M517.024,137.4a88.253,88.253,0,0,0,4-12.321s5.937-3.063,4.24-8.457a44.492,44.492,0,0,0-2.39-5.721,35.345,35.345,0,0,1-3.561-17.357c.035-.671.064-1.05.064-1.05s-11.571-6.017-19.067-5.786c-9.093.279-23.624,6.251-23.624,6.251a80.745,80.745,0,0,0,2.131,18.162s6.251,18.072,9.45,26.279Z" transform="translate(-467.33 -44.484)" fill="#962e09"/>
        <path id="Trazado_22034" data-name="Trazado 22034" d="M525.267,114.983a44.492,44.492,0,0,0-2.39-5.721A35.345,35.345,0,0,1,519.315,91.9c.035-.671.064-1.05.064-1.05s-1.954-1.017-4.776-2.2c-1.18,6.863-4.8,14.287-11.954,14.765-11.737.787-20.008-14.311-20.008-14.311-3.51,1.2-5.953,2.208-5.953,2.208a80.745,80.745,0,0,0,2.131,18.162s4.723,13.658,8.06,22.619a304.02,304.02,0,0,0,31.657-.233c1.493-4.285,2.491-8.428,2.491-8.428S526.964,120.377,525.267,114.983Z" transform="translate(-467.33 -42.844)" fill="#ffd54f"/>
        <path id="Trazado_22035" data-name="Trazado 22035" d="M493.193,91.6s-1.23-2.256-2.193-1.9a50.427,50.427,0,0,1-5.333.881s4.491.031,5.28.6S493.509,92.114,493.193,91.6Z" transform="translate(-459.801 -42.005)" fill="#792304"/>
        <path id="Trazado_22036" data-name="Trazado 22036" d="M491.055,91.633s.86-2.421,1.866-2.225a43.309,43.309,0,0,0,4.541.189s-3.567.579-4.254,1.267S490.821,92.19,491.055,91.633Z" transform="translate(-455.301 -42.225)" fill="#792304"/>
        <g id="Grupo_6532" data-name="Grupo 6532" transform="translate(27.611 31.238)">
          <g id="Grupo_6531" data-name="Grupo 6531">
            <path id="Trazado_22037" data-name="Trazado 22037" d="M486.616,80.822l.425,15.716,10.3-.814L496.263,80.73Z" transform="translate(-486.616 -80.73)" fill="#962e09"/>
          </g>
        </g>
        <path id="Trazado_22038" data-name="Trazado 22038" d="M495.937,80.73,487,80.816a26.763,26.763,0,0,0,.458,3.532c2.929,6.5,6.045,7.832,9.319,8.1Z" transform="translate(-458.679 -49.492)" fill="#792304"/>
        <path id="Trazado_22039" data-name="Trazado 22039" d="M498.865,97.378h0c-5.012.153-13.162-5.773-13.316-10.786,0,0-1.079-7.641.261-10.053,2.326-4.19,12.343-4.892,16.355-4.308,6.146.9,5.37,12.248,5.37,12.248C508.273,93.81,501.059,97.31,498.865,97.378Z" transform="translate(-460.243 -56.767)" fill="#962e09"/>
        <path id="Trazado_22040" data-name="Trazado 22040" d="M483.478,80.75a4.451,4.451,0,0,0,4.815,3.773l-.267-7.8C485.439,76.794,483.171,76.895,483.478,80.75Z" transform="translate(-461.659 -52.851)" fill="#962e09"/>
        <path id="Trazado_22041" data-name="Trazado 22041" d="M485.252,78.271a.288.288,0,0,0-.533-.158,1.708,1.708,0,0,0-.136,1.675c.428.974,1.267,1.912,1.629,1.493s-.031-.313-.662-1.568A3.067,3.067,0,0,1,485.252,78.271Z" transform="translate(-460.842 -51.802)" fill="#792304"/>
        <path id="Trazado_22042" data-name="Trazado 22042" d="M487.137,72.431c3.66-1.465,17.442-2.112,17.442-2.112a20.268,20.268,0,0,1-7.9,8.273,24.686,24.686,0,0,1-5.4,2.23,5.175,5.175,0,0,0-3.681,4.184h0l-.114-.489a2.876,2.876,0,0,0-3.175-2.19h0a22.219,22.219,0,0,1,.305-6.047C485,74.555,485.745,72.988,487.137,72.431Z" transform="translate(-461.005 -58.221)" fill="#431202"/>
        <path id="Trazado_22043" data-name="Trazado 22043" d="M496.838,78.834c.05.625-.279,1.162-.734,1.2s-.862-.443-.912-1.068" transform="translate(-451.813 -51.081)" fill="none" stroke="#28121e" stroke-miterlimit="10" stroke-width="0.595"/>
        <path id="Trazado_22044" data-name="Trazado 22044" d="M492.442,79c.05.625-.279,1.162-.734,1.2s-.862-.443-.912-1.068" transform="translate(-455.499 -50.939)" fill="none" stroke="#28121e" stroke-miterlimit="10" stroke-width="0.595"/>
        <path id="Trazado_22045" data-name="Trazado 22045" d="M489.471,78.085a5.978,5.978,0,0,1,5.556-.438" transform="translate(-456.611 -52.516)" fill="none" stroke="#792304" stroke-miterlimit="10" stroke-width="0.679"/>
        <path id="Trazado_22046" data-name="Trazado 22046" d="M499.9,77.289a5.049,5.049,0,0,0-2.647-.509,3.828,3.828,0,0,0-3.537,4.734,3.981,3.981,0,0,0,.193.533c.962,2.138,1.76,2.756.171,3.079" transform="translate(-453.164 -52.816)" fill="none" stroke="#792304" stroke-miterlimit="10" stroke-width="0.679"/>
        <path id="Trazado_22047" data-name="Trazado 22047" d="M481.07,89.966s6.859,15.177,5.126,32.131c-.927,9.066-2.587,22.007-8.863,15.059C470.238,129.3,467.912,95.625,481.07,89.966Z" transform="translate(-471.597 -41.748)" fill="#962e09"/>
        <g id="Grupo_6533" data-name="Grupo 6533" transform="translate(17.919 73.92)">
          <path id="Trazado_22048" data-name="Trazado 22048" d="M491.73,111.977c-8.38,0-10.332-6.775-10.352-6.854a.932.932,0,0,1,1.8-.491c.092.32,2.236,7.427,12.632,4.96a.932.932,0,1,1,.43,1.815A19.512,19.512,0,0,1,491.73,111.977Z" transform="translate(-481.344 -103.945)" fill="#e8bc42"/>
        </g>
        <g id="Grupo_6534" data-name="Grupo 6534" transform="translate(41.795 78.996)">
          <path id="Trazado_22049" data-name="Trazado 22049" d="M501.367,110.336a12.3,12.3,0,0,1-6.641-1.936.932.932,0,0,1,1.072-1.526,10.5,10.5,0,0,0,10.045.585.933.933,0,0,1,.781,1.7A12.5,12.5,0,0,1,501.367,110.336Z" transform="translate(-494.331 -106.707)" fill="#e8bc42"/>
        </g>
        <path id="Trazado_22050" data-name="Trazado 22050" d="M493.161,69.5a2.862,2.862,0,1,1-2.861-2.863A2.862,2.862,0,0,1,493.161,69.5Z" transform="translate(-458.315 -61.308)" fill="#431202"/>
        <path id="Trazado_22051" data-name="Trazado 22051" d="M491.676,70.339a3.455,3.455,0,1,1-3.455-3.454A3.455,3.455,0,0,1,491.676,70.339Z" transform="translate(-460.555 -61.101)" fill="#431202"/>
        <ellipse id="Elipse_556" data-name="Elipse 556" cx="4.616" cy="4.616" rx="4.616" ry="4.616" transform="translate(16.449 3.082)" fill="#431202"/>
        <ellipse id="Elipse_557" data-name="Elipse 557" cx="4.807" cy="4.807" rx="4.807" ry="4.807" transform="translate(13.317 8.953)" fill="#431202"/>
        <path id="Trazado_22052" data-name="Trazado 22052" d="M488.139,76.523a4.847,4.847,0,1,1-4.848-4.846A4.849,4.849,0,0,1,488.139,76.523Z" transform="translate(-465.856 -57.082)" fill="#431202"/>
        <path id="Trazado_22053" data-name="Trazado 22053" d="M488.2,78.689a4.105,4.105,0,1,1-4.105-4.105A4.1,4.1,0,0,1,488.2,78.689Z" transform="translate(-464.565 -54.645)" fill="#431202"/>
        <path id="Trazado_22054" data-name="Trazado 22054" d="M492.368,68.239a4.213,4.213,0,1,1-4.214-4.214A4.213,4.213,0,0,1,492.368,68.239Z" transform="translate(-461.247 -63.498)" fill="#431202"/>
        <ellipse id="Elipse_558" data-name="Elipse 558" cx="4.987" cy="4.987" rx="4.987" ry="4.987" transform="translate(28.065)" fill="#431202"/>
        <ellipse id="Elipse_559" data-name="Elipse 559" cx="5.736" cy="5.736" rx="5.736" ry="5.736" transform="translate(34.018 2.699)" fill="#431202"/>
        <path id="Trazado_22055" data-name="Trazado 22055" d="M497.448,73.032a2.333,2.333,0,1,1-2.333-2.335A2.333,2.333,0,0,1,497.448,73.032Z" transform="translate(-453.835 -57.904)" fill="#431202"/>
        <path id="Trazado_22056" data-name="Trazado 22056" d="M496.5,74.692a3.192,3.192,0,1,1-3.192-3.192A3.192,3.192,0,0,1,496.5,74.692Z" transform="translate(-456.067 -57.231)" fill="#431202"/>
        <path id="Trazado_22057" data-name="Trazado 22057" d="M494.18,75.507a3.192,3.192,0,1,1-3.192-3.192A3.192,3.192,0,0,1,494.18,75.507Z" transform="translate(-458.014 -56.548)" fill="#431202"/>
        <path id="Trazado_22058" data-name="Trazado 22058" d="M491.4,82.573a2.544,2.544,0,0,0,5.087,0Z" transform="translate(-454.995 -47.946)" fill="#fff"/>
        <g id="Grupo_6535" data-name="Grupo 6535" transform="translate(39.753 86.479)">
          <path id="Trazado_22059" data-name="Trazado 22059" d="M503.951,121.642l-1.342-.392-9.389-2.491,1-5.477,3.942-.515s7.227-2.16,7.547-1.98l3.006.993a.543.543,0,0,1-.077.984,1.961,1.961,0,0,1-1.658.16l-.647-.208-1.778.579,4.5.427,1.987.487a2.345,2.345,0,0,1,1.254.849.869.869,0,0,1,.092.4.433.433,0,0,1-.254.283,2.428,2.428,0,0,1-1.539.094l-1.774-.438-3.015-.314c-.787.037-.259.272-.072.3l3.515.491,2.66.732a2.336,2.336,0,0,1,1.252.851l.022.028a.428.428,0,0,1-.184.654l-.031.013a2.362,2.362,0,0,1-1.506.083l-2.447-.682-4.2-.257c-.746.061-.37.351-.033.379l2.714.226,2.7.583a2.343,2.343,0,0,1,1.3.778l.024.028a.429.429,0,0,1-.147.664l-.031.015a2.351,2.351,0,0,1-1.5.165l-2.48-.544-3.381-.129a.113.113,0,0,0-.059.211l.333.184,2.68.592,1.976-.112a1.185,1.185,0,0,1,1.173.9.364.364,0,0,1-.353.476l-2.669.3Z" transform="translate(-493.22 -110.777)" fill="#962e09"/>
        </g>
        <path id="Trazado_22060" data-name="Trazado 22060" d="M514.067,114.209s-26.224-4.337-31.353-4.047c-10.391.59-11.373,9.845-3.488,12.774,5.365,1.993,8.613.792,8.613.792l22.635-3.453c1.316.028,3.808-.265,3.808-.265S515.5,118.253,514.067,114.209Z" transform="translate(-469.571 -24.825)" fill="#962e09"/>
      </g>
      <g id="Grupo_6547" data-name="Grupo 6547" transform="translate(2.525 0)">
        <path id="Trazado_22061" data-name="Trazado 22061" d="M422.916,136.519s-.2,26.542,1.574,36.963,2.949,11.994,2.949,11.994.59,17.7,2.359,33.62,2.555,24.38,2.555,24.38S419.77,252.716,417.8,253.7s-7.471,0-7.668,1.572-.59,5.113,7.275,4.719,18.677-.787,23-1.18,7.078-.588,7.865-3.931-1.377-8.062-2.557-9.242,8.258-34.6,8.258-43.057-5.9-18.482-5.9-18.482,7.275-29.294,9.24-39.912-19.661-23.593-25.56-19.661S423.309,135.535,422.916,136.519Z" transform="translate(-410.061 0.69)" fill="#ff926d"/>
        <path id="Trazado_22062" data-name="Trazado 22062" d="M418.5,119.76s-1.327,10.764-1.327,16.072-.443,16.074-.443,16.074,4.661,1.7,15.631,3.1c13.862,1.769,19.613,1.622,19.613,1.622s3.39-29.048-3.1-32.293S418.5,119.76,418.5,119.76Z" transform="translate(-404.467 -2.703)" fill="#ba68c8"/>
        <path id="Trazado_22063" data-name="Trazado 22063" d="M432.132,132.458s3.146,26.836,8.258,40.009,7.078,17.7,7.078,17.7,14.154,24.871,18.677,32.933a133.115,133.115,0,0,1,6.685,13.369s-5.7,14.746-6.488,15.337-7.865.2-7.865,1.965,1.18,4.719,6.291,4.326a30.828,30.828,0,0,0,7.275-1.18s8.258-5.9,10.814-8.257c2.261-2.089,9.24-5.7,7.668-10.617a12.283,12.283,0,0,0-5.31-6.881s-4.521-35-8.847-42.272-8.65-10.027-8.65-10.027,3.539-38.93,1.572-46.793S433.706,127.149,432.132,132.458Z" transform="translate(-391.554 3.572)" fill="#ff926d"/>
        <path id="Trazado_22064" data-name="Trazado 22064" d="M430.528,135.309s2.655,17.99,3.392,20.2,1.474,3.835,1.474,3.835a104.444,104.444,0,0,0,21.086-1.918c10.913-2.212,16.664-5.161,16.664-5.161s.294-15.19-1.623-23.3a62.5,62.5,0,0,0-5.014-13.86S441.439,136.489,430.528,135.309Z" transform="translate(-392.899 -6.603)" fill="#ba68c8"/>
        <path id="Trazado_22065" data-name="Trazado 22065" d="M446.039,79.255c-.441,0-14.3,6.047-21.233,13.566s-8.553,18.138-8.849,26.4a93.283,93.283,0,0,0,.59,14.6s22.266-8.406,30.081-23.152S446.039,79.255,446.039,79.255Z" transform="translate(-405.167 -36.665)" fill="#ff926d"/>
        <path id="Trazado_22066" data-name="Trazado 22066" d="M446.194,75.661s-.294,7.519-.884,8.11S428.942,96.6,426.287,104.562s-1.031,11.8-1.031,11.8-9.437,13.86-10.323,26.542,3.835,25.511,23.889,29.64,33.473-5.751,39.518-12.976,7.374-19.613,7.227-23.593,11.8-33.179,4.423-40.257c-7.152-6.858-25.364-11.207-25.364-11.207l-.441-9.584S451.651,79.938,446.194,75.661Z" transform="translate(-406.06 -40.297)" fill="#ff926d"/>
        <path id="Trazado_22067" data-name="Trazado 22067" d="M435.076,80.958a23.686,23.686,0,0,0,10.884.853,16.333,16.333,0,0,0,4.247-1.524l.035-.018L450,74.924s-12.535,5.014-17.991.737c0,0-.083,2.114-.248,4.188C432.852,80.254,433.953,80.638,435.076,80.958Z" transform="translate(-391.869 -40.297)" fill="#c1b1b3" style="mix-blend-mode: multiply;isolation: isolate"/>
        <path id="Trazado_22068" data-name="Trazado 22068" d="M433.771,61.294s-8.514,15.923-7.569,22.387,11.983,11.351,22.861,10.878S463.882,80.843,464.2,77.533s-1.4-13.735-7.863-16.888S436.608,57.51,433.771,61.294Z" transform="translate(-396.587 -54.184)" fill="#ff926d"/>
        <path id="Trazado_22069" data-name="Trazado 22069" d="M446.685,70.289a5.427,5.427,0,0,1,5.359.158c2.522,1.734,0,6.464-2.837,6.306a5.935,5.935,0,0,1-4.258-2.05Z" transform="translate(-380.807 -44.733)" fill="#ff926d"/>
        <path id="Trazado_22070" data-name="Trazado 22070" d="M488.255,120.635c-4.8.434-9.658-2.636-14.191-10.716-5.843-10.417-1.73-24-.478-27.562-1.326-.458-2.583-.86-3.712-1.206-.735,2.476-1.02,6.7-5.541,10.139-4.168,3.171-14.107,8.306-22.069,2.555s-1.18-13.173-1.18-13.173l-2.511,1.245c-3.546,4.1-10.308,11.9-12.285,17.826-2.653,7.964-1.031,11.8-1.031,11.8s-9.437,13.86-10.323,26.542,3.835,25.511,23.889,29.64,33.473-5.751,39.518-12.976,8.161-17.008,8.012-20.988C486.3,132.44,487.532,128.055,488.255,120.635Z" transform="translate(-406.06 -35.477)" fill="#fadee1"/>
        <path id="Trazado_22071" data-name="Trazado 22071" d="M478.412,162.23c-2.5,9.13-3.728,11.261-3.728,11.261a32.337,32.337,0,0,1-.184,8.124c-.684,4.17-1.276,4.74-2.41,5.824a5.268,5.268,0,0,1-1.489,1.1,1.331,1.331,0,0,1-.243.085,4,4,0,0,1-.456.862l-.015.022a1.149,1.149,0,0,1-.669.478c-.542.085-.813-.057-.954-.23a.711.711,0,0,1-.151-.427s-.05.072-.142.193l-.007.006c-.342.45-1.219,1.469-1.918,1.269a1.308,1.308,0,0,1-.778-1.1,3.434,3.434,0,0,1-.07-.654v-.086a1.822,1.822,0,0,1-.919.585,1.281,1.281,0,0,1-1.434-1.739c.357-1.6,1.37-5.082,1.833-7.619a17.832,17.832,0,0,0,.419-3.563,2.071,2.071,0,0,0-1.383,1.987c-.064,1.625-.647,4.754-1.482,2.881s-2.3-4.762-1.39-7.313a25.5,25.5,0,0,1,3.265-5.624l-.421-32.464s-13.421-26.5-15.816-36.128,6.436-22.165,17.34-10.6,15.4,42.642,15.495,44.708S480.914,153.1,478.412,162.23Z" transform="translate(-378.688 -32.083)" fill="#ff926d"/>
        <g id="Grupo_6537" data-name="Grupo 6537" transform="translate(21.092 76.244)" style="mix-blend-mode: multiply;isolation: isolate">
          <path id="Trazado_22072" data-name="Trazado 22072" d="M421.7,98.024a67.038,67.038,0,0,0,7.722,1.616q1.93.287,3.877.472c1.224.119,2.8.493,3.977.07a.2.2,0,0,0,.016-.386,11.132,11.132,0,0,0-3.664-.4q-1.944-.143-3.883-.386a71.923,71.923,0,0,1-7.9-1.44c-.3-.072-.447.375-.147.456Z" transform="translate(-421.533 -97.561)" fill="#d7cdce"/>
        </g>
        <g id="Grupo_6538" data-name="Grupo 6538" transform="translate(40.583 78.507)" style="mix-blend-mode: multiply;isolation: isolate">
          <path id="Trazado_22073" data-name="Trazado 22073" d="M432.451,99.449l1.2.035c.2.006.392.007.59,0l.283-.009a1.055,1.055,0,0,0,.336-.077.191.191,0,0,0,.015-.364,1.046,1.046,0,0,0-.305-.1c-.1-.013-.2-.022-.305-.035-.2-.022-.392-.035-.59-.046l-1.2-.061a.328.328,0,1,0-.026.656Z" transform="translate(-432.135 -98.792)" fill="#d7cdce"/>
        </g>
        <g id="Grupo_6539" data-name="Grupo 6539" transform="translate(49.683 79.487)" style="mix-blend-mode: multiply;isolation: isolate">
          <path id="Trazado_22074" data-name="Trazado 22074" d="M437.317,99.875c2.763.233,5.493.737,8.266.9a27.009,27.009,0,0,0,4.1-.029c.989-.09,2.561-.12,3.236-.947a.29.29,0,0,0-.156-.43,3.333,3.333,0,0,0-1.531.158,15.476,15.476,0,0,1-1.991.3,28.766,28.766,0,0,1-4,.007c-2.64-.151-5.254-.452-7.9-.46a.251.251,0,0,0-.02.5Z" transform="translate(-437.085 -99.325)" fill="#d7cdce"/>
        </g>
        <path id="Trazado_22075" data-name="Trazado 22075" d="M461.9,65.206a2.552,2.552,0,0,0-2.419.219,13.127,13.127,0,0,0-8.641-8.531,16.472,16.472,0,0,0-3.978-.759,15.9,15.9,0,0,0-8.74,1.585,21.029,21.029,0,0,0-7.483,7.2,25.822,25.822,0,0,0-3.681,9.783,48.867,48.867,0,0,1,11.974-7.1,49.968,49.968,0,0,1,9.33-2.305,27.006,27.006,0,0,1,5.688-.226c-3.725,1.954-5,3.085-6.35,6.253,1.372-.441,2.624-1.294,4.035-1.715a22.1,22.1,0,0,1,3.717-.919c.89-.1,1.794-.037,2.69-.057a25.446,25.446,0,0,0-.346,3.727,22.559,22.559,0,0,0,3.686,12.608s2.875-3.171,3.392-10.764C465.055,70.138,464.116,65.869,461.9,65.206Z" transform="translate(-395.889 -56.089)" fill="#bb5a38"/>
        <g id="Grupo_6540" data-name="Grupo 6540" transform="translate(86.51 147.191)" style="mix-blend-mode: multiply;isolation: isolate">
          <path id="Trazado_22076" data-name="Trazado 22076" d="M460.365,137.58c-.156.585-.327,1.169-.506,1.754-.414,1.311-.877,2.609-1.353,3.9-.421,1.12-.857,2.239-1.32,3.342a3.434,3.434,0,0,1-.07-.655c.384-.969.761-1.94,1.118-2.916.471-1.261.912-2.537,1.313-3.828.164-.541.327-1.083.463-1.631a6.2,6.2,0,0,1,.377-1.348.1.1,0,0,1,.178.022A3.533,3.533,0,0,1,460.365,137.58Z" transform="translate(-457.116 -136.151)" fill="#c1b1b3"/>
        </g>
        <g id="Grupo_6541" data-name="Grupo 6541" transform="translate(89.283 147.451)" style="mix-blend-mode: multiply;isolation: isolate">
          <path id="Trazado_22077" data-name="Trazado 22077" d="M462.051,136.42a9.817,9.817,0,0,1-.6,2.7c-.208.741-.421,1.467-.649,2.2-.349,1.134-.713,2.259-1.133,3.379-.228.6-.471,1.219-.748,1.816a.711.711,0,0,1-.151-.427s-.05.072-.142.193c.248-.592.471-1.2.684-1.8.384-1.085.726-2.182,1.055-3.287.221-.761.434-1.531.647-2.294a10.988,10.988,0,0,1,.8-2.544A.129.129,0,0,1,462.051,136.42Z" transform="translate(-458.624 -136.292)" fill="#c1b1b3"/>
        </g>
        <g id="Grupo_6542" data-name="Grupo 6542" transform="translate(91.213 147.659)" style="mix-blend-mode: multiply;isolation: isolate">
          <path id="Trazado_22078" data-name="Trazado 22078" d="M462.426,139.6c-.257.89-.535,1.781-.849,2.651-.362,1-.761,1.98-1.2,2.951a1.33,1.33,0,0,1-.243.085,4,4,0,0,1-.456.862c.564-1.311,1.09-2.651,1.576-3.991.307-.84.563-1.7.791-2.572a15.892,15.892,0,0,0,.357-1.64,10.282,10.282,0,0,1,.25-1.462.107.107,0,0,1,.206,0A6.125,6.125,0,0,1,462.426,139.6Z" transform="translate(-459.674 -136.405)" fill="#c1b1b3"/>
        </g>
        <g id="Grupo_6543" data-name="Grupo 6543" transform="translate(19.887 186.118)" style="mix-blend-mode: multiply;isolation: isolate">
          <path id="Trazado_22079" data-name="Trazado 22079" d="M421.047,158.157a6.8,6.8,0,0,0,3.671.939,5.756,5.756,0,0,0,3.453-1.359.242.242,0,0,0-.233-.4,11.927,11.927,0,0,1-3.219.945,6.326,6.326,0,0,1-3.328-.712c-.388-.195-.73.373-.344.586Z" transform="translate(-420.878 -157.324)" fill="#c1b1b3"/>
        </g>
        <g id="Grupo_6544" data-name="Grupo 6544" transform="translate(57.348 185.725)" style="mix-blend-mode: multiply;isolation: isolate">
          <path id="Trazado_22080" data-name="Trazado 22080" d="M441.352,157.689a8.517,8.517,0,0,0,4.591,2.2,4.376,4.376,0,0,0,4.387-1.741.219.219,0,0,0-.3-.3,8.012,8.012,0,0,1-2.021,1.024,5.058,5.058,0,0,1-2.125.125,10.292,10.292,0,0,1-4.127-1.84c-.314-.213-.684.27-.406.526Z" transform="translate(-441.254 -157.11)" fill="#c1b1b3"/>
        </g>
        <g id="Grupo_6545" data-name="Grupo 6545" transform="translate(27.528 243.581)" style="mix-blend-mode: multiply;isolation: isolate">
          <path id="Trazado_22081" data-name="Trazado 22081" d="M425.5,192.172a2.786,2.786,0,0,0,1.671-1.259,4.042,4.042,0,0,0,.454-.978,4.748,4.748,0,0,0,.125-.482,2.3,2.3,0,0,0,.007-.585.292.292,0,0,0-.54-.145c-.074.142-.166.278-.23.423s-.118.32-.18.478c-.029.074.007-.016-.011.028l-.051.114c-.024.053-.046.108-.068.164-.039.1.02-.042-.018.046a4.473,4.473,0,0,1-.211.419,3.849,3.849,0,0,1-.241.368c-.009.011-.075.1-.048.066s-.035.042-.041.05c-.05.059-.1.116-.158.171s-.1.1-.158.142c-.022.018-.02.017.005,0l-.048.035c-.026.018-.053.037-.079.053a1.62,1.62,0,0,1-.375.188.378.378,0,0,0-.257.452.373.373,0,0,0,.452.256Z" transform="translate(-425.034 -188.58)" fill="#c1b1b3"/>
        </g>
        <g id="Grupo_6546" data-name="Grupo 6546" transform="translate(88.258 235.707)" style="mix-blend-mode: multiply;isolation: isolate">
          <path id="Trazado_22082" data-name="Trazado 22082" d="M458.733,189.2a3.611,3.611,0,0,0,.809-2.291,10.383,10.383,0,0,0-.064-1.2,6.868,6.868,0,0,0-.232-1.267.207.207,0,0,0-.4,0,5.3,5.3,0,0,0-.153,1.156c-.022.375-.018.752-.044,1.127a4.257,4.257,0,0,1-.531,2c-.228.368.327.818.612.471Z" transform="translate(-458.067 -184.297)" fill="#c1b1b3"/>
        </g>
      </g>
      <g id="Grupo_6553" data-name="Grupo 6553" transform="translate(39.987 12.33)">
        <g id="Grupo_6548" data-name="Grupo 6548" transform="translate(0.551 4.695)">
          <path id="Trazado_22083" data-name="Trazado 22083" d="M430.917,66.343a1.35,1.35,0,0,0,.371,1.826c.55.252,1.276-.16,1.622-.917a1.352,1.352,0,0,0-.371-1.827C431.989,65.172,431.263,65.584,430.917,66.343Z" transform="translate(-430.737 -65.35)" fill="#28121e"/>
        </g>
        <g id="Grupo_6549" data-name="Grupo 6549" transform="translate(10.896 8.644)">
          <path id="Trazado_22084" data-name="Trazado 22084" d="M436.544,68.489a1.352,1.352,0,0,0,.371,1.827c.55.25,1.276-.16,1.622-.919a1.35,1.35,0,0,0-.371-1.826C437.616,67.32,436.89,67.732,436.544,68.489Z" transform="translate(-436.364 -67.498)" fill="#28121e"/>
        </g>
        <g id="Grupo_6550" data-name="Grupo 6550" transform="translate(10.077 4.591)">
          <path id="Trazado_22085" data-name="Trazado 22085" d="M442.11,69.648c-.022-.031-2.4-3.168-6.016-2.758l-.176-1.548c4.521-.52,7.33,3.219,7.446,3.381Z" transform="translate(-435.918 -65.293)" fill="#ff7454"/>
        </g>
        <g id="Grupo_6551" data-name="Grupo 6551">
          <path id="Trazado_22086" data-name="Trazado 22086" d="M433.822,76.7a2.2,2.2,0,0,1-1.245-1.515c-.083-.82.537-1.4,1.474-2.269.355-.329.77-.715,1.228-1.186a4.586,4.586,0,0,0,.408-.491,3.948,3.948,0,0,0,.592-3.39,4.53,4.53,0,0,0-2.541-2.951,5.868,5.868,0,0,0-3.125-.5l-.176-1.548a7.452,7.452,0,0,1,3.94.629,6.083,6.083,0,0,1,3.407,3.966,5.56,5.56,0,0,1-.829,4.706,5.825,5.825,0,0,1-.557.667c-.478.493-.914.9-1.285,1.243a7.319,7.319,0,0,0-.967.995c.066,0,.178.127.489.318Z" transform="translate(-430.437 -62.796)" fill="#ff7454"/>
        </g>
        <g id="Grupo_6552" data-name="Grupo 6552" transform="translate(0.099 16.234)">
          <path id="Trazado_22087" data-name="Trazado 22087" d="M433.111,74.781a4.515,4.515,0,0,1-2.62-2.524l1.425-.631a2.969,2.969,0,0,0,3.26,1.846L435.464,75A4.617,4.617,0,0,1,433.111,74.781Z" transform="translate(-430.491 -71.626)" fill="#ff7454"/>
        </g>
      </g>
    </g>
  </g>
</svg>
