<svg xmlns="http://www.w3.org/2000/svg" width="400" height="389" viewBox="0 0 400 389">
  <g id="Grupo_1078508" data-name="Grupo 1078508" transform="translate(-180 -5025.167)">
    <path id="Trazado_774730" data-name="Trazado 774730" d="M20,0H380c11.046,0,20,7.318,20,16.345V372.655c0,9.027-8.954,16.345-20,16.345H20c-11.046,0-20-7.318-20-16.345V16.345C0,7.318,8.954,0,20,0Z" transform="translate(180 5025.167)" fill="#ffd54f"/>
    <path id="Trazado_841131" data-name="Trazado 841131" d="M73.643,15.758H67.174v4.078h7.641V23H63.061V5.938H74.838V9.113H67.174v3.6h6.469Zm7.8,4.43a1.756,1.756,0,0,0,1.289-.451,1.654,1.654,0,0,0,.445-1.26h3.7A4.384,4.384,0,0,1,85.391,21.9a5.558,5.558,0,0,1-3.85,1.336A5.627,5.627,0,0,1,77.182,21.5a6.834,6.834,0,0,1-1.594-4.8v-.164a7.723,7.723,0,0,1,.709-3.393,5.162,5.162,0,0,1,2.045-2.262,6.1,6.1,0,0,1,3.164-.791,5.488,5.488,0,0,1,3.926,1.371,4.863,4.863,0,0,1,1.453,3.715h-3.7a2.168,2.168,0,0,0-.48-1.512,1.658,1.658,0,0,0-1.289-.527q-1.535,0-1.793,1.957a13.809,13.809,0,0,0-.082,1.711,5.424,5.424,0,0,0,.457,2.648A1.582,1.582,0,0,0,81.447,20.188ZM93.154,7.168V10.32H95.24v2.742H93.154v5.8a1.481,1.481,0,0,0,.258,1,1.383,1.383,0,0,0,1.02.281,5.793,5.793,0,0,0,.984-.07v2.824a7.288,7.288,0,0,1-2.227.34,4.137,4.137,0,0,1-3.012-.961,3.939,3.939,0,0,1-.973-2.918V13.063H87.588V10.32h1.617V7.168Zm2.789,9.375a7.484,7.484,0,0,1,.738-3.381A5.28,5.28,0,0,1,98.8,10.883a6.388,6.388,0,0,1,3.246-.8,5.83,5.83,0,0,1,4.488,1.764,6.768,6.768,0,0,1,1.641,4.8v.141a6.566,6.566,0,0,1-1.646,4.705,5.846,5.846,0,0,1-4.459,1.74,5.912,5.912,0,0,1-4.348-1.623,6.348,6.348,0,0,1-1.77-4.4Zm3.949.246a4.718,4.718,0,0,0,.551,2.578,1.835,1.835,0,0,0,1.629.82q2.109,0,2.156-3.246v-.4q0-3.41-2.18-3.41-1.98,0-2.145,2.941ZM113.65,10.32l.129,1.488a4.36,4.36,0,0,1,3.621-1.723A3.21,3.21,0,0,1,120.646,12a4.22,4.22,0,0,1,3.727-1.91q3.855,0,3.961,4.664V23h-3.961V15a2.417,2.417,0,0,0-.328-1.418,1.4,1.4,0,0,0-1.2-.445,1.871,1.871,0,0,0-1.746,1.043l.012.164V23h-3.961V15.02a2.541,2.541,0,0,0-.316-1.441,1.393,1.393,0,0,0-1.207-.445,1.894,1.894,0,0,0-1.734,1.043V23h-3.949V10.32Zm16.441,6.223a7.484,7.484,0,0,1,.738-3.381,5.28,5.28,0,0,1,2.121-2.279,6.388,6.388,0,0,1,3.246-.8,5.83,5.83,0,0,1,4.488,1.764,6.768,6.768,0,0,1,1.641,4.8v.141a6.566,6.566,0,0,1-1.646,4.705,5.846,5.846,0,0,1-4.459,1.74,5.912,5.912,0,0,1-4.348-1.623,6.348,6.348,0,0,1-1.77-4.4Zm3.949.246a4.718,4.718,0,0,0,.551,2.578,1.835,1.835,0,0,0,1.629.82q2.109,0,2.156-3.246v-.4q0-3.41-2.18-3.41-1.98,0-2.145,2.941Zm17.7-2.895-1.3-.094a2.336,2.336,0,0,0-2.391,1.172V23H144.1V10.32h3.7l.129,1.629a3.058,3.058,0,0,1,2.777-1.863,3.851,3.851,0,0,1,1.1.141ZM154.268,23V13.063h-1.84V10.32h1.84V9.313a4.381,4.381,0,0,1,1.277-3.363,5.047,5.047,0,0,1,3.586-1.2A7.853,7.853,0,0,1,160.982,5l.012,2.906a3.608,3.608,0,0,0-.973-.105q-1.793,0-1.793,1.547v.973H160.7v2.742h-2.473V23Zm7.324-6.457a7.484,7.484,0,0,1,.738-3.381,5.28,5.28,0,0,1,2.121-2.279,6.388,6.388,0,0,1,3.246-.8,5.83,5.83,0,0,1,4.488,1.764,6.768,6.768,0,0,1,1.641,4.8v.141a6.566,6.566,0,0,1-1.646,4.705,5.846,5.846,0,0,1-4.459,1.74,5.912,5.912,0,0,1-4.348-1.623,6.348,6.348,0,0,1-1.77-4.4Zm3.949.246a4.718,4.718,0,0,0,.551,2.578,1.835,1.835,0,0,0,1.629.82q2.109,0,2.156-3.246v-.4q0-3.41-2.18-3.41-1.98,0-2.145,2.941Zm23.719.375h-7.043V14.117h7.043ZM44.006,53.234a6.518,6.518,0,0,1-4.723-1.74,6.009,6.009,0,0,1-1.8-4.529v-.328A7.787,7.787,0,0,1,38.2,43.2a5.274,5.274,0,0,1,2.1-2.3,6.35,6.35,0,0,1,3.281-.814A5.489,5.489,0,0,1,47.8,41.744a6.516,6.516,0,0,1,1.547,4.623V47.9H41.5a2.846,2.846,0,0,0,.926,1.676,2.755,2.755,0,0,0,1.852.609,3.549,3.549,0,0,0,2.93-1.312l1.8,2.133a5.045,5.045,0,0,1-2.092,1.623A7.069,7.069,0,0,1,44.006,53.234Zm-.445-10.1q-1.734,0-2.062,2.3h3.984v-.3A1.956,1.956,0,0,0,45,43.654,1.912,1.912,0,0,0,43.561,43.133Zm14.016,6.3a.912.912,0,0,0-.527-.809,8.021,8.021,0,0,0-2-.633,9.138,9.138,0,0,1-2.437-.861,4.083,4.083,0,0,1-1.465-1.295,3.092,3.092,0,0,1-.5-1.746,3.5,3.5,0,0,1,1.441-2.877,5.938,5.938,0,0,1,3.773-1.131,6.579,6.579,0,0,1,4.031,1.137,3.555,3.555,0,0,1,1.523,2.988H57.447q0-1.523-1.605-1.523a1.591,1.591,0,0,0-1.043.346,1.07,1.07,0,0,0-.422.861.982.982,0,0,0,.516.855,4.872,4.872,0,0,0,1.646.539,14.228,14.228,0,0,1,1.986.5q2.859.984,2.859,3.527a3.321,3.321,0,0,1-1.541,2.824,6.758,6.758,0,0,1-3.99,1.09,6.9,6.9,0,0,1-2.906-.586,4.86,4.86,0,0,1-1.992-1.594,3.609,3.609,0,0,1-.715-2.121h3.691a1.526,1.526,0,0,0,.586,1.283,2.41,2.41,0,0,0,1.441.4,1.9,1.9,0,0,0,1.213-.328A1.05,1.05,0,0,0,57.576,49.438ZM67.83,37.168V40.32h2.086v2.742H67.83v5.8a1.481,1.481,0,0,0,.258,1,1.383,1.383,0,0,0,1.02.281,5.793,5.793,0,0,0,.984-.07v2.824a7.288,7.288,0,0,1-2.227.34,4.137,4.137,0,0,1-3.012-.961,3.939,3.939,0,0,1-.973-2.918V43.063H62.264V40.32h1.617V37.168Zm11.309,6.727-1.3-.094a2.336,2.336,0,0,0-2.391,1.172V53H71.5V40.32h3.7l.129,1.629a3.058,3.058,0,0,1,2.777-1.863,3.851,3.851,0,0,1,1.1.141Zm8.977,7.734a4.072,4.072,0,0,1-3.387,1.605,3.993,3.993,0,0,1-3.158-1.213A5.1,5.1,0,0,1,80.5,48.535V40.32h3.949v8.238a1.419,1.419,0,0,0,1.582,1.629,2.064,2.064,0,0,0,1.934-.973V40.32h3.973V53h-3.7Zm11.344-1.441a1.756,1.756,0,0,0,1.289-.451,1.654,1.654,0,0,0,.445-1.26h3.7A4.384,4.384,0,0,1,103.4,51.9a5.558,5.558,0,0,1-3.85,1.336A5.627,5.627,0,0,1,95.193,51.5,6.834,6.834,0,0,1,93.6,46.7v-.164a7.723,7.723,0,0,1,.709-3.393,5.162,5.162,0,0,1,2.045-2.262,6.1,6.1,0,0,1,3.164-.791,5.488,5.488,0,0,1,3.926,1.371,4.863,4.863,0,0,1,1.453,3.715h-3.7a2.168,2.168,0,0,0-.48-1.512,1.658,1.658,0,0,0-1.289-.527q-1.535,0-1.793,1.957a13.809,13.809,0,0,0-.082,1.711,5.424,5.424,0,0,0,.457,2.648A1.582,1.582,0,0,0,99.459,50.188Zm11.707-13.02V40.32h2.086v2.742h-2.086v5.8a1.481,1.481,0,0,0,.258,1,1.383,1.383,0,0,0,1.02.281,5.793,5.793,0,0,0,.984-.07v2.824a7.288,7.288,0,0,1-2.227.34,4.137,4.137,0,0,1-3.012-.961,3.939,3.939,0,0,1-.973-2.918V43.063H105.6V40.32h1.617V37.168Zm11.191,14.461a4.072,4.072,0,0,1-3.387,1.605,3.993,3.993,0,0,1-3.158-1.213,5.1,5.1,0,0,1-1.072-3.486V40.32h3.949v8.238a1.419,1.419,0,0,0,1.582,1.629,2.064,2.064,0,0,0,1.934-.973V40.32h3.973V53h-3.7Zm13.652-7.734-1.3-.094a2.336,2.336,0,0,0-2.391,1.172V53h-3.949V40.32h3.7l.129,1.629a3.058,3.058,0,0,1,2.777-1.863,3.851,3.851,0,0,1,1.1.141ZM144.225,53a4.459,4.459,0,0,1-.375-1.137,3.672,3.672,0,0,1-3.047,1.371,4.5,4.5,0,0,1-3.047-1.084,3.45,3.45,0,0,1-1.254-2.725,3.546,3.546,0,0,1,1.523-3.117,7.761,7.761,0,0,1,4.43-1.055h1.219v-.671q0-1.755-1.512-1.755a1.236,1.236,0,0,0-1.406,1.39h-3.949a3.54,3.54,0,0,1,1.564-2.985,6.575,6.575,0,0,1,3.99-1.147,5.764,5.764,0,0,1,3.832,1.184,4.115,4.115,0,0,1,1.441,3.246v5.613a5.748,5.748,0,0,0,.539,2.672V53Zm-2.473-2.578a2.2,2.2,0,0,0,1.225-.316,1.983,1.983,0,0,0,.7-.715V47.363h-1.148q-2.062,0-2.062,1.852a1.131,1.131,0,0,0,.363.873A1.315,1.315,0,0,0,141.752,50.422ZM159.963,53H156V35h3.961Zm6.6,0H162.6V40.32h3.961Zm-4.2-15.961a1.778,1.778,0,0,1,.609-1.391,2.579,2.579,0,0,1,3.164,0,1.893,1.893,0,0,1,0,2.782,2.579,2.579,0,0,1-3.164,0A1.778,1.778,0,0,1,162.365,37.039Zm6.164,9.527a8.561,8.561,0,0,1,.633-3.4,5.094,5.094,0,0,1,1.816-2.279,4.788,4.788,0,0,1,2.754-.8,3.807,3.807,0,0,1,3.094,1.336l.141-1.1h3.586v12.2a5.346,5.346,0,0,1-.779,2.912,5,5,0,0,1-2.256,1.9,8.292,8.292,0,0,1-3.422.662,7.153,7.153,0,0,1-2.7-.527,4.876,4.876,0,0,1-2-1.371l1.652-2.32a3.621,3.621,0,0,0,2.906,1.3q2.625,0,2.625-2.7v-.4a3.708,3.708,0,0,1-2.871,1.254,4.583,4.583,0,0,1-3.75-1.775,7.356,7.356,0,0,1-1.43-4.752Zm3.961.246a4.511,4.511,0,0,0,.586,2.467,1.849,1.849,0,0,0,1.641.908,2.1,2.1,0,0,0,1.863-.855V44a2.045,2.045,0,0,0-1.84-.867,1.861,1.861,0,0,0-1.652.943A5.144,5.144,0,0,0,172.49,46.813Zm16.441,6.422a6.518,6.518,0,0,1-4.723-1.74,6.009,6.009,0,0,1-1.8-4.529v-.328a7.787,7.787,0,0,1,.721-3.434,5.274,5.274,0,0,1,2.1-2.3,6.35,6.35,0,0,1,3.281-.814,5.489,5.489,0,0,1,4.219,1.658,6.516,6.516,0,0,1,1.547,4.623V47.9h-7.852a2.846,2.846,0,0,0,.926,1.676,2.755,2.755,0,0,0,1.852.609,3.549,3.549,0,0,0,2.93-1.312l1.8,2.133a5.045,5.045,0,0,1-2.092,1.623A7.069,7.069,0,0,1,188.932,53.234Zm-.445-10.1q-1.734,0-2.062,2.3h3.984v-.3a1.956,1.956,0,0,0-.48-1.471A1.912,1.912,0,0,0,188.486,43.133Zm15.047.762-1.3-.094a2.336,2.336,0,0,0-2.391,1.172V53h-3.949V40.32h3.7l.129,1.629a3.058,3.058,0,0,1,2.777-1.863,3.851,3.851,0,0,1,1.1.141ZM211.748,53a4.459,4.459,0,0,1-.375-1.137,3.672,3.672,0,0,1-3.047,1.371,4.5,4.5,0,0,1-3.047-1.084,3.45,3.45,0,0,1-1.254-2.725,3.546,3.546,0,0,1,1.523-3.117,7.761,7.761,0,0,1,4.43-1.055H211.2v-.671q0-1.755-1.512-1.755a1.236,1.236,0,0,0-1.406,1.39H204.33a3.54,3.54,0,0,1,1.564-2.985,6.575,6.575,0,0,1,3.99-1.147,5.764,5.764,0,0,1,3.832,1.184,4.115,4.115,0,0,1,1.441,3.246v5.613A5.748,5.748,0,0,0,215.7,52.8V53Zm-2.473-2.578a2.2,2.2,0,0,0,1.225-.316,1.983,1.983,0,0,0,.7-.715V47.363h-1.148q-2.062,0-2.062,1.852a1.131,1.131,0,0,0,.363.873A1.315,1.315,0,0,0,209.275,50.422Z" transform="translate(254 5328.587)" fill="#12263f"/>
    <g id="Grupo_1078478" data-name="Grupo 1078478" transform="translate(276 5056.887)">
      <path id="Trazado_21842" data-name="Trazado 21842" d="M460.562,270.3c-13.142,4.345-25.04,14.626-28.426,27.674-5.382,20.735,10.388,42.275.741,62.436-3.307,6.913-10.207,10.686-15.021,16.561-3.431,4.191-6.02,9.166-6.41,14.46-1.093,14.868,14.071,31.065,27.325,37.36,19.077,9.059,44.916,8.2,64.809,2.221,10.432-3.134,19.9-9.312,30.932-10.587,9.359-1.082,17.862,2.21,26.758,4.247,17.482,4,40.3,3.391,51.46-12.163,4.743-6.613,6.6-14.784,6.694-22.78a94.842,94.842,0,0,0-7.2-36.857c-4.327-10.336-10.934-20.15-13.071-31.217-2.313-11.982.018-24.308.555-36.333.621-13.843-1.265-29.266-14.067-37.95-16.008-10.861-41.269-5.98-56.921,2.656-10.28,5.672-19.366,12.7-31.268,14.983-11.794,2.268-24.109,1.426-35.67,4.9C461.376,270.038,460.969,270.165,460.562,270.3Z" transform="translate(-411.39 -209.748)" fill="#ffe38a"/>
      <g id="Grupo_6463" data-name="Grupo 6463" transform="translate(96.517 16.579)">
        <g id="Grupo_6446" data-name="Grupo 6446" transform="translate(70.603 84.094)">
          <g id="Grupo_6445" data-name="Grupo 6445" transform="translate(4.95 24.664)">
            <path id="Trazado_21843" data-name="Trazado 21843" d="M507.513,307.98l-2.279,1.545h0a2.378,2.378,0,0,1,.879-2.992l2.036-1.306.585-.9.842,2.566Z" transform="translate(-501.586 -279.819)" fill="#ffa181"/>
            <g id="Grupo_6443" data-name="Grupo 6443" transform="translate(0 17.817)">
              <path id="Trazado_21844" data-name="Trazado 21844" d="M511.884,303.98l-4.214,2.688-4.27-.407s.349-1.578,1.333-1.522a17.514,17.514,0,0,0,2.962-.311l2.714-2.48Z" transform="translate(-503.001 -299.715)" fill="#ff7e46"/>
              <path id="Trazado_21845" data-name="Trazado 21845" d="M510.707,302.08l-3.618,2.3-3.492-.767s.448-1.269,1.258-1.125a14.548,14.548,0,0,0,2.48.041l2.495-1.777Z" transform="translate(-502.828 -300.757)" fill="#ff7e46"/>
              <path id="Trazado_21846" data-name="Trazado 21846" d="M511.72,302.778l-4.341,2.765-4.191-.919s.538-1.526,1.509-1.35a17.566,17.566,0,0,0,2.977.049l3-2.131Z" transform="translate(-503.187 -300.377)" fill="#ff7e46"/>
            </g>
            <g id="Grupo_6444" data-name="Grupo 6444" transform="translate(0.454)">
              <path id="Trazado_21847" data-name="Trazado 21847" d="M505.1,308.7c.229,1.129,1.065,2.926.994,4.077-.131,2.051-.212,4.9.877,5,1.488.142,1.434-4.767,1.466-4.973a1.066,1.066,0,0,1,1.175-.89h0a.621.621,0,0,1,.542.506l.156,2.174-.191,1.164.842,2.566a10.854,10.854,0,0,0,1.8-2.561c.332-1.929,1.361-4.681.68-6.083-.311-.641-3.741-6.167-3.741-6.167l-1.888-9.89a2.922,2.922,0,0,0-4.384-1.949h0l1.172,9.678a6.088,6.088,0,0,1,.362,3.065A12.619,12.619,0,0,0,505.1,308.7Z" transform="translate(-503.429 -291.252)" fill="#ffa181"/>
              <path id="Trazado_21848" data-name="Trazado 21848" d="M506.1,304.078a1.066,1.066,0,0,1,1.175-.89.621.621,0,0,1,.542.506l.155,2.174s.821-5.485-1.037-4.521C506.212,301.724,506.073,304.284,506.1,304.078Z" transform="translate(-501.093 -282.524)" fill="#ff7e46"/>
            </g>
          </g>
          <path id="Trazado_21849" data-name="Trazado 21849" d="M507.519,314.586l-6.973-31.373,5.325-5.119,2.765,2.742c2.919,2.9,4.163,6.881,4.362,10.988.377,7.815-.776,23.2-.776,23.2Z" transform="translate(-500.546 -278.094)" fill="#ffa181"/>
        </g>
        <g id="Grupo_6447" data-name="Grupo 6447" transform="translate(26.228 200.311)">
          <path id="Trazado_21850" data-name="Trazado 21850" d="M491.623,345.481s-2.686,15.037-2.686,20.006,2.148,7.519,1.342,8.727-2.013,1.074-2.281,3.758-2.954,4.834-7.25,4.834-4.12-3.389-3.625-4.7c.242-.641,4.3-5.37,5.5-9.4s-.8-24.572-.8-24.572S490.682,334.2,491.623,345.481Z" transform="translate(-476.873 -340.094)" fill="#ffa181"/>
        </g>
        <g id="Grupo_6448" data-name="Grupo 6448" transform="translate(60.391 200.274)">
          <path id="Trazado_21851" data-name="Trazado 21851" d="M504.746,345.239s-2.566,18.244-1.3,21.5c2.283,5.833,10.615,8.5,10.615,8.5s4.124.656,4.459,1.3-.1,2.174-3,2.609c-1.46.219-3.037.38-4.244.489a6.632,6.632,0,0,1-3.524-.682,20.476,20.476,0,0,0-9.622-2.2s-3.012-.365-1.6-4.975-1.438-21.755-1.438-21.755S502.356,331.288,504.746,345.239Z" transform="translate(-495.098 -340.075)" fill="#ffa181"/>
        </g>
        <path id="Trazado_21852" data-name="Trazado 21852" d="M463.553,281.8s21.457,23.408,25.358,22.107,2.144-6.015-.163-8.778c-1.258-1.507-7.785-11.852-13.147-19.817S460.262,277.848,463.553,281.8Z" transform="translate(-462.862 -198.973)" fill="#ff947a"/>
        <path id="Trazado_21853" data-name="Trazado 21853" d="M475,290.86l.086-.088a1.13,1.13,0,0,0-.086-1.638h0l.454-1.417h0a1.143,1.143,0,0,0,.082-1.49l-.221-.287,3.187-2.555,2.21.457s.763,6.81-2.172,8.266S475,290.86,475,290.86Z" transform="translate(-452.28 -189.374)" fill="#ffa181"/>
        <path id="Trazado_21854" data-name="Trazado 21854" d="M481.464,249.01c.615,7.783,6.937,13.633,14.118,13.067s12.66-7.352,11.893-15.121c-.834-8.428-6.171-12.055-13.29-10.949C486.371,237.22,480.851,241.226,481.464,249.01Z" transform="translate(-446.671 -230.973)" fill="#ff5953"/>
        <path id="Trazado_21855" data-name="Trazado 21855" d="M517.316,260.868a10.578,10.578,0,0,1-1.978-8.984,18.132,18.132,0,0,0,.48-5.378c-.688-11.946-6.165-13.695-12.4-13.2a9.789,9.789,0,0,0-6.242,3.033,6.113,6.113,0,0,1-3.05,1.674,10.3,10.3,0,0,0-7.906,11.34,7.155,7.155,0,0,1-1.843,5.869,14.913,14.913,0,0,0-4.12,9.455,7.459,7.459,0,0,1-3.307,5.683,14.949,14.949,0,1,0,21.526,19.521,9.4,9.4,0,0,1,7.71-5c.129-.006.259-.015.388-.024C519.1,283.869,524.019,269.565,517.316,260.868Z" transform="translate(-456.301 -233.231)" fill="#ff5953"/>
        <path id="Trazado_21856" data-name="Trazado 21856" d="M512.972,303.677c-3.612-33.928-11.215-45.4-14.716-48.172,0,0-1.526,17.05-.714,29.765.48,7.537,5.016,20.038,8.443,19.129C512.755,302.6,512.972,303.677,512.972,303.677Z" transform="translate(-432.778 -213.754)" fill="#ffa181"/>
        <path id="Trazado_21857" data-name="Trazado 21857" d="M511.705,323.556s7.2-30.274,7.016-41.859c-.069-4.433-2.221-23.89-2.221-23.89s-9.815-5.159-17.283-4.928c-9.057.279-21.335,5.372-21.335,5.372a34.361,34.361,0,0,0-1.235,13.044c1.333,10.047,5.936,21.965,6.814,25.142C492.929,330.677,502.3,329.056,511.705,323.556Z" transform="translate(-451.022 -216.056)" fill="#ffa181"/>
        <path id="Trazado_21858" data-name="Trazado 21858" d="M516.484,274.3a29.767,29.767,0,0,1-3.792-18.533c-.954-.435-2.2-.967-3.616-1.5a57.916,57.916,0,0,1-1.49,10.866c-.763,3.016-1.848,7.072-5.262,8.019-3.809,1.059-8.2-2.135-10.171-4.9-3.1-4.351-7.115-14.156-7.115-14.156-1.946.564-3.726,1.153-5.175,1.663,1.657,3.063,4.109,13,3.447,19.843a14.851,14.851,0,0,1-4.812,10c1.4,4.525,2.733,8.2,3.164,9.764q.233.843.467,1.659c3.095-.772,25.839-4,33.371-2.328a31.827,31.827,0,0,1,.789-3.586,9.835,9.835,0,0,0,2.021-2.6c1-3.2.024-3.923,0-5.636C518.289,281.658,516.728,277.066,516.484,274.3Z" transform="translate(-449.223 -214.986)" fill="#7b1fa2"/>
        <path id="Trazado_21859" data-name="Trazado 21859" d="M516.793,282.135H488.784s-16.006-.311-14.207,42.054c.455,10.718,4.589,24.885,6.381,38.9-1.323,14.111,4.026,45.694,4.026,45.694l6.851.109c2.448-15.189,4.287-29.725,4.435-42.443,0,0,1-51.034,7.252-51.481s8.035,52.994,8.035,52.994c-1.141,10.017.176,24.359,2.748,40.9h7.082l5.989-43.8C532.594,317.933,526.963,287.533,516.793,282.135Z" transform="translate(-452.775 -190.467)" fill="#ffa181"/>
        <path id="Trazado_21860" data-name="Trazado 21860" d="M502.748,315.152c8.306-9.938,23.963-11.316,23.963-11.316-2.163-11.783-5.815-19.273-10.386-21.7-6.887,4.289-15.879,4.889-28.008,0,0,0-10.085-.193-13.344,20.919C484.162,301.781,500.493,309.841,502.748,315.152Z" transform="translate(-452.307 -190.467)" fill="#7b1fa2"/>
        <path id="Trazado_21861" data-name="Trazado 21861" d="M492.306,257.7s-1.226-2.247-2.184-1.9a50.054,50.054,0,0,1-5.312.877s4.472.032,5.258.6S492.621,258.207,492.306,257.7Z" transform="translate(-443.704 -213.529)" fill="#ff7454"/>
        <path id="Trazado_21862" data-name="Trazado 21862" d="M490.074,257.731s.859-2.411,1.859-2.214a43.381,43.381,0,0,0,4.525.187s-3.554.577-4.24,1.263S489.843,258.288,490.074,257.731Z" transform="translate(-439.119 -213.753)" fill="#ff7454"/>
        <g id="Grupo_6450" data-name="Grupo 6450" transform="translate(42.844 25.881)">
          <g id="Grupo_6449" data-name="Grupo 6449">
            <path id="Trazado_21863" data-name="Trazado 21863" d="M485.737,247.13l.423,15.655,10.261-.81-1.074-14.936Z" transform="translate(-485.737 -247.038)" fill="#ffa181"/>
          </g>
        </g>
        <path id="Trazado_21864" data-name="Trazado 21864" d="M497.968,263.788h0c-4.994.152-13.112-5.751-13.265-10.744,0,0-1.074-7.61.261-10.013,2.317-4.174,12.294-4.874,16.291-4.291,6.122.89,5.352,12.2,5.352,12.2C507.339,260.232,500.152,263.72,497.968,263.788Z" transform="translate(-444.155 -228.57)" fill="#ff8f68"/>
        <path id="Trazado_21865" data-name="Trazado 21865" d="M495.307,247.038l-9.524.092a4.27,4.27,0,0,0,1.528,2.982c.251,4.8,5.192,8.264,8.812,8.264Z" transform="translate(-442.853 -221.157)" fill="#ff7454"/>
        <path id="Trazado_21866" data-name="Trazado 21866" d="M497.968,263.788h0c-4.994.152-13.112-5.751-13.265-10.744,0,0-1.074-7.61.261-10.013,2.317-4.174,12.294-4.874,16.291-4.291,6.122.89,5.352,12.2,5.352,12.2C507.339,260.232,500.152,263.72,497.968,263.788Z" transform="translate(-444.155 -228.57)" fill="#ffa181"/>
        <path id="Trazado_21867" data-name="Trazado 21867" d="M482.672,247.135a4.434,4.434,0,0,0,4.8,3.758l-.266-7.77C484.627,243.193,482.365,243.295,482.672,247.135Z" transform="translate(-445.598 -224.58)" fill="#ffa181"/>
        <path id="Trazado_21868" data-name="Trazado 21868" d="M484.422,244.64a.288.288,0,0,0-.532-.157,1.705,1.705,0,0,0-.135,1.67c.427.971,1.262,1.9,1.623,1.486s-.032-.311-.66-1.561A3.053,3.053,0,0,1,484.422,244.64Z" transform="translate(-444.765 -223.511)" fill="#ff7454"/>
        <path id="Trazado_21869" data-name="Trazado 21869" d="M486.3,238.97c3.646-1.46,17.374-2.1,17.374-2.1a20.2,20.2,0,0,1-7.865,8.24,24.505,24.505,0,0,1-5.38,2.221,5.158,5.158,0,0,0-3.666,4.169h0l-.114-.487a2.865,2.865,0,0,0-3.162-2.182h0S482.656,240.43,486.3,238.97Z" transform="translate(-444.931 -230.052)" fill="#ff5953"/>
        <g id="Grupo_6451" data-name="Grupo 6451" transform="translate(48.881 21.469)">
          <path id="Trazado_21870" data-name="Trazado 21870" d="M488.964,246.517a1.971,1.971,0,0,1,.262-1.172,1.308,1.308,0,0,1,1.01-.656,1.271,1.271,0,0,1,.928.315,1.884,1.884,0,0,1,.617,1.29l-1.177.094a.74.74,0,0,0-.206-.485l-.163.06a.784.784,0,0,0-.094.461Z" transform="translate(-488.958 -244.684)" fill="#28121e"/>
        </g>
        <g id="Grupo_6452" data-name="Grupo 6452" transform="translate(58.547 21.342)">
          <path id="Trazado_21871" data-name="Trazado 21871" d="M495.759,245.684c.049.622-.277,1.157-.731,1.192s-.858-.44-.909-1.063.279-1.158.731-1.194S495.711,245.059,495.759,245.684Z" transform="translate(-494.114 -244.617)" fill="#28121e"/>
        </g>
        <g id="Grupo_6453" data-name="Grupo 6453" transform="translate(47.749 18.686)">
          <path id="Trazado_21872" data-name="Trazado 21872" d="M489,245.234l-.647-.975a6.493,6.493,0,0,1,6.12-.472l-.523,1.048A5.373,5.373,0,0,0,489,245.234Z" transform="translate(-488.354 -243.2)" fill="#ff7454"/>
        </g>
        <g id="Grupo_6454" data-name="Grupo 6454" transform="translate(55.018 18.035)">
          <path id="Trazado_21873" data-name="Trazado 21873" d="M493.426,252.338l-.232-1.145a1.205,1.205,0,0,0,.476-.154c-.041-.047-.272-.5-.476-.894-.172-.339-.375-.737-.587-1.207a4.587,4.587,0,0,1-.223-.615,4.169,4.169,0,0,1,.624-3.531,4.568,4.568,0,0,1,3.419-1.923,5.589,5.589,0,0,1,2.941.568l-.523,1.046a4.433,4.433,0,0,0-2.332-.446,3.4,3.4,0,0,0-2.549,1.428,2.962,2.962,0,0,0-.452,2.546,3.315,3.315,0,0,0,.161.45c.2.448.4.829.562,1.151.437.857.727,1.423.459,1.978A1.645,1.645,0,0,1,493.426,252.338Z" transform="translate(-492.232 -242.853)" fill="#ff7454"/>
        </g>
        <g id="Grupo_6455" data-name="Grupo 6455" transform="translate(53.558 29.644)">
          <path id="Trazado_21874" data-name="Trazado 21874" d="M493.168,250.965a3.475,3.475,0,0,1-1.715-.446l.6-1.007a2.233,2.233,0,0,0,2.772-.467l.844.812A3.389,3.389,0,0,1,493.168,250.965Z" transform="translate(-491.453 -249.046)" fill="#ff7454"/>
        </g>
        <path id="Trazado_21875" data-name="Trazado 21875" d="M488.779,247.224a.364.364,0,1,1-.392-.334A.365.365,0,0,1,488.779,247.224Z" transform="translate(-440.869 -221.287)" fill="#ff7454"/>
        <path id="Trazado_21876" data-name="Trazado 21876" d="M489.479,247.6a.156.156,0,0,1-.143.169.157.157,0,0,1-.169-.144.156.156,0,0,1,.142-.169A.157.157,0,0,1,489.479,247.6Z" transform="translate(-439.893 -220.795)" fill="#ff7454"/>
        <path id="Trazado_21877" data-name="Trazado 21877" d="M488.626,248.269a.319.319,0,1,1-.343-.292A.319.319,0,0,1,488.626,248.269Z" transform="translate(-440.924 -220.338)" fill="#ff7454"/>
        <path id="Trazado_21878" data-name="Trazado 21878" d="M487.533,247.485a.178.178,0,1,1-.191-.163A.178.178,0,0,1,487.533,247.485Z" transform="translate(-441.633 -220.909)" fill="#ff7454"/>
        <path id="Trazado_21879" data-name="Trazado 21879" d="M489.616,248.639a.267.267,0,1,1-.287-.246A.265.265,0,0,1,489.616,248.639Z" transform="translate(-439.968 -219.973)" fill="#ff7454"/>
        <path id="Trazado_21880" data-name="Trazado 21880" d="M490.531,247.152a.24.24,0,1,1-.257-.219A.239.239,0,0,1,490.531,247.152Z" transform="translate(-439.119 -221.251)" fill="#ff7454"/>
        <path id="Trazado_21881" data-name="Trazado 21881" d="M490.123,248.148a.416.416,0,1,1,.446.382A.415.415,0,0,1,490.123,248.148Z" transform="translate(-439.059 -220.578)" fill="#ff7454"/>
        <path id="Trazado_21882" data-name="Trazado 21882" d="M495.041,246.824a.318.318,0,1,1-.341-.292A.316.316,0,0,1,495.041,246.824Z" transform="translate(-435.312 -221.601)" fill="#ff7454"/>
        <path id="Trazado_21883" data-name="Trazado 21883" d="M494.989,248.066a.443.443,0,1,1,.476.407A.442.442,0,0,1,494.989,248.066Z" transform="translate(-434.804 -220.676)" fill="#ff7454"/>
        <path id="Trazado_21884" data-name="Trazado 21884" d="M496.012,246.993a.258.258,0,1,1-.277-.236A.259.259,0,0,1,496.012,246.993Z" transform="translate(-434.358 -221.404)" fill="#ff7454"/>
        <path id="Trazado_21885" data-name="Trazado 21885" d="M486.253,251.782a40.993,40.993,0,0,1,20.452-2.851s1.871-8.767-3.815-12.368C499.217,234.235,482.961,235.765,486.253,251.782Z" transform="translate(-442.824 -231.073)" fill="#ff5953"/>
        <path id="Trazado_21886" data-name="Trazado 21886" d="M489.684,255.835s-3.972,1.361-12.61,16.222c-9.993,17.187-14.848,18.559-14.124,22.718s9.406,3.981,15.239-1.622c3.786-3.636,15.045-20.632,16.674-26.664S492.044,255.955,489.684,255.835Z" transform="translate(-462.88 -213.465)" fill="#ffa181"/>
        <g id="Grupo_6461" data-name="Grupo 6461" transform="translate(29.624 58.624)">
          <g id="Grupo_6456" data-name="Grupo 6456" transform="translate(1.528 9.111)">
            <path id="Trazado_21887" data-name="Trazado 21887" d="M483.356,283.131a.7.7,0,0,1-.68-.529l-3.155-12.358a.7.7,0,1,1,1.363-.347l3.155,12.356a.706.706,0,0,1-.682.877Z" transform="translate(-479.499 -269.367)" fill="#621989"/>
          </g>
          <g id="Grupo_6457" data-name="Grupo 6457" transform="translate(36.442)">
            <path id="Trazado_21888" data-name="Trazado 21888" d="M498.829,283.033a.7.7,0,0,1-.392-1.29,6.326,6.326,0,0,0,2.174-7.307,76.748,76.748,0,0,1-2.038-9.1.7.7,0,1,1,1.385-.244,74.871,74.871,0,0,0,1.995,8.924,7.833,7.833,0,0,1-2.739,8.9A.7.7,0,0,1,498.829,283.033Z" transform="translate(-498.126 -264.506)" fill="#621989"/>
          </g>
          <g id="Grupo_6458" data-name="Grupo 6458" transform="translate(7.421 14.799)">
            <path id="Trazado_21889" data-name="Trazado 21889" d="M490.888,276.112a15.343,15.343,0,0,1-7.948-2.433.7.7,0,0,1,.81-1.149c.287.2,7.063,4.857,13.419.015a.7.7,0,1,1,.851,1.119A11.527,11.527,0,0,1,490.888,276.112Z" transform="translate(-482.644 -272.402)" fill="#621989"/>
          </g>
          <g id="Grupo_6459" data-name="Grupo 6459" transform="translate(20.115 40.011)">
            <path id="Trazado_21890" data-name="Trazado 21890" d="M490.12,312.6a.739.739,0,0,1-.169-.019.705.705,0,0,1-.515-.851,99.811,99.811,0,0,0,2.107-25.148.7.7,0,0,1,.671-.735.721.721,0,0,1,.733.671,101.238,101.238,0,0,1-2.144,25.545A.7.7,0,0,1,490.12,312.6Z" transform="translate(-489.415 -285.852)" fill="#621989"/>
          </g>
          <g id="Grupo_6460" data-name="Grupo 6460" transform="translate(0 35.091)">
            <path id="Trazado_21891" data-name="Trazado 21891" d="M500.885,289.592c-5.565,0-12.741-1.258-21.766-5.012a.7.7,0,0,1,.538-1.3c25.809,10.737,36.05.277,36.149.171a.7.7,0,0,1,1.031.958C516.55,284.719,511.837,289.592,500.885,289.592Z" transform="translate(-478.684 -283.227)" fill="#621989"/>
          </g>
        </g>
        <g id="Grupo_6462" data-name="Grupo 6462" transform="translate(22.593 92.917)">
          <path id="Trazado_21892" data-name="Trazado 21892" d="M482.128,282.8l-5.385.4a1.091,1.091,0,0,0-1.037,1.074c.021.6.352,1.318.949,1.278l4.947-.289,2.658.855a2.077,2.077,0,0,0,2.768-.984h0Z" transform="translate(-474.258 -282.801)" fill="#ffa181"/>
          <path id="Trazado_21893" data-name="Trazado 21893" d="M482.777,285.283l-6.334-1.52c-.592-.208-1.153.54-1.267,1.188-.09.512.212,1.535.7,1.706l5.04.65,3.644,2.079a2.714,2.714,0,0,0,2.943-.7Z" transform="translate(-474.735 -281.991)" fill="#ffa181"/>
          <path id="Trazado_21894" data-name="Trazado 21894" d="M481.448,286.213l-5.067-.812c-.615-.051-1.509.933-1.443,1.59a1.091,1.091,0,0,0,1.037.935l4.739.319,2.5,1.809a2.078,2.078,0,0,0,2.9-.465h0Z" transform="translate(-474.933 -280.529)" fill="#ffa181"/>
          <path id="Trazado_21895" data-name="Trazado 21895" d="M479.486,287.493l-3.391-.4a1.042,1.042,0,0,0-1.16,1.082,1.081,1.081,0,0,0,.975.99l2.954.352,1.8.935a2.078,2.078,0,0,0,2.8-.885h0Z" transform="translate(-474.933 -279.058)" fill="#ffa181"/>
        </g>
      </g>
      <g id="Grupo_6483" data-name="Grupo 6483" transform="translate(32.916 0)">
        <path id="Trazado_21896" data-name="Trazado 21896" d="M474.206,351.219a4.917,4.917,0,0,1-.821,1.68,1.219,1.219,0,0,1-.341.174.528.528,0,0,1-.291.021.129.129,0,0,1-.052-.008.741.741,0,0,1-.369.225c-.081.023-.159.038-.232.052a2.115,2.115,0,0,1-.255.021.481.481,0,0,1-.051.088.389.389,0,0,1-.632.066c-.452-.379-.487-2-.677-4.476a53.9,53.9,0,0,0-.9-6.694c-.225-.712-.334-.748-.334-.748s-1.766,4.621-2.448,4.287-.371-.98-.227-1.846,1.134-6.8,1.172-7.288-3.766-17.519-4.36-19.358-3.875-14.512-4.7-16.692c0,0-5.522-26.683-6.424-35.7a56.042,56.042,0,0,0-4.113-16.038s14.534,6.613,16.836,9.622,3.009,15.935,3.41,23.755.3,20.448.7,22.047,4.206,32.779,4.206,32.779,1.811,1.505,2.107,6.111A17.067,17.067,0,0,1,474.206,351.219Z" transform="translate(-412.163 -202.876)" fill="#ffa181"/>
        <path id="Trazado_21897" data-name="Trazado 21897" d="M446.585,245.685v7.92s-5.813,11.125-7.918,14.533-1.1,12.628-1.1,12.628.2,17.239.7,23.254a85.366,85.366,0,0,1-.6,14.533s16.638.7,21.35.4a37.372,37.372,0,0,0,9.119-1.9s1.3-23.956.8-34.078-.5-16.238-.5-16.238-8.621-10.624-9.121-12.428a37.97,37.97,0,0,1-.4-6.816S447.487,244.885,446.585,245.685Z" transform="translate(-421.625 -205.895)" fill="#ffa181"/>
        <path id="Trazado_21898" data-name="Trazado 21898" d="M443.475,250.786a14.429,14.429,0,0,0,8.118,2.547,11.515,11.515,0,0,0,3.164-.474c-.225-2.2-.163-5.368-.163-5.368s-11.427-2.606-12.328-1.805v4.2C442.656,250.2,443.057,250.506,443.475,250.786Z" transform="translate(-417.306 -205.895)" fill="#ff7454"/>
        <path id="Trazado_21899" data-name="Trazado 21899" d="M440.288,234.449s.2,18.342.8,23.453,1,6.214,1.7,6.516,8.22,3.908,10.424,4.21,9.121-4.009,10.525-5.815-.2-30.97-.3-31.472-6.714-6.514-12.227-5.513S440.288,233.748,440.288,234.449Z" transform="translate(-419.035 -223.223)" fill="#ffa181"/>
        <path id="Trazado_21900" data-name="Trazado 21900" d="M443.85,239.343s-3.91-4.309-5.513-2.7-1,7.217,2.105,7.618,3.809-3.209,3.809-3.209Z" transform="translate(-421.495 -213.985)" fill="#ffa181"/>
        <path id="Trazado_21901" data-name="Trazado 21901" d="M454.514,258.114c-1.205,4.913-6.714,13.037-7.419,15.536s-8.619,26.567-8.821,28.668-1.7,37.684-1.7,37.684.4,1.207,1.1,2.907,1.664,5.588.6,6.017c-.677.276-2.2-3.511-2.2-3.511a7.224,7.224,0,0,0,.7,3.41,19.829,19.829,0,0,1,1.455,5.863c-.066.538-.634.422-1,.283-.174-.066-.3-.131-.3-.131a5.777,5.777,0,0,1,.144.8,1.283,1.283,0,0,1-.2,1.031.982.982,0,0,1-1.164-.051H435.7c-.109-.073-.182-.131-.182-.131a1.447,1.447,0,0,1-.058.255c-.094.276-.311.639-.821.4a4.688,4.688,0,0,1-1.453-1.256l-.008-.008c-.167-.212-.268-.364-.268-.364a1.1,1.1,0,0,1-.146.21c-.217.227-.647.452-1.177-.465a16.828,16.828,0,0,1-1.533-7.339c0-3.307,1.1-6.817,1.1-7.419s-2.208-30.368-2.208-34.278,5.813-40.991,7.419-44.1S454.607,249.2,454.607,249.2A19.441,19.441,0,0,1,454.514,258.114Z" transform="translate(-428.95 -202.69)" fill="#ffa181"/>
        <path id="Trazado_21902" data-name="Trazado 21902" d="M439.344,300.186c0,1,1.8,39.892,2,40.9s-2.605,11.625-2.2,26.059,2.606,38.689,2.606,38.689-9.02,10.223-8.621,12.43,8.019,3.408,10.624,3.408,2.808-.4,3.608-2.206a61.351,61.351,0,0,0,2.607-13.431c0-3.007-.6-3.207-.4-10.825s2.606-45.3,4.009-52.922,1.4-41.9,1.4-43.7S439.344,300.186,439.344,300.186Z" transform="translate(-425.308 -159.965)" fill="#ffa181"/>
        <path id="Trazado_21903" data-name="Trazado 21903" d="M447.393,310.081s5.01,43.7,5.01,44.9a84.734,84.734,0,0,0,.6,21.048c1.805,11.828,5.814,34.88,5.814,34.88s-1.8,11.627-.4,13.029,28.6,1.2,29.819.855,1.376-3.547-1.37-4.883-5.968-1.089-6.741-1.728-11.685-7.273-12.087-9.878-2.4-52.721-2.4-54.125,0-34.278-2.808-46.3-6.615-18.844-6.615-18.844S446.189,299.056,447.393,310.081Z" transform="translate(-412.91 -167.855)" fill="#ffa181"/>
        <path id="Trazado_21904" data-name="Trazado 21904" d="M469.267,313.28c0-3.828-.566-23.86-.227-31.7a152.541,152.541,0,0,0-1.878-29.541l-2.557-1.278c0,6.716-.459,14.053-8.343,15.035-8.675,1.078-13.08-7.818-14.81-14.66l-3.608,2.332a33.359,33.359,0,0,1,1.9,6.679,61.785,61.785,0,0,1,.752,8.229c.238,4.632-1.494,9.134-3.207,12.87.066,10.317.512,21.984.5,32.366,8.834,5.831,29.78,2.452,31.371-.433" transform="translate(-421.654 -201.322)" fill="#fadee1"/>
        <path id="Trazado_21905" data-name="Trazado 21905" d="M438.644,283.375s4.9,2.62,16.688,2.306c11.275-.3,15.335-2.557,15.335-2.557s1.554,16.287,2.354,22.1,1,11.625,1,11.625-2.306.1-8.219,1c-6.488.99-8.017,1.7-8.017,1.7s-1.67-8.04-1.854-9.145a5.642,5.642,0,0,0-1.655-3.308L453,319.659a39.031,39.031,0,0,1-8.8.525c-5.724-.146-7.517-.9-7.517-.9a98.23,98.23,0,0,1-.527-20.147A91.909,91.909,0,0,1,438.644,283.375Z" transform="translate(-422.904 -173.022)" fill="#ffd54f"/>
        <path id="Trazado_21906" data-name="Trazado 21906" d="M443.046,238.356c.5-3.824.051-7.923-.3-8.66s-2.054-1.52-2.907,1.612-.4,8.154.2,11.239a26.865,26.865,0,0,0,1.455,4.836S442.545,242.178,443.046,238.356Z" transform="translate(-419.84 -220.322)" fill="#aa4f20"/>
        <path id="Trazado_21907" data-name="Trazado 21907" d="M457.832,224.408c-7.067.369-15.436,6.493-16.64,8.6-1.28,2.24.019,2.559.019,2.559s5.695-3.228,11.86-2.86,10.653,4.238,11.727,3.758c2.456-1.093-1.6-4.178-1.6-4.178s3.458,2.626,4.411.821c.877-1.661-2.054-3.262-2.054-3.262s2.1,1.381,2.354-.047S464.9,224.039,457.832,224.408Z" transform="translate(-418.738 -224.386)" fill="#aa4f20"/>
        <g id="Grupo_6464" data-name="Grupo 6464" transform="translate(2.245 146.26)" style="mix-blend-mode: multiply;isolation: isolate">
          <path id="Trazado_21908" data-name="Trazado 21908" d="M431.863,308.98a1.1,1.1,0,0,1-.146.21c-.073-.159-.137-.319-.2-.485a16.258,16.258,0,0,1-.575-1.818,18.829,18.829,0,0,1-.791-4.294c-.007-.217.26-.246.264-.028A24.545,24.545,0,0,0,431.863,308.98Z" transform="translate(-430.148 -302.414)" fill="#c1b1b3"/>
        </g>
        <g id="Grupo_6465" data-name="Grupo 6465" transform="translate(3.769 146.163)" style="mix-blend-mode: multiply;isolation: isolate">
          <path id="Trazado_21909" data-name="Trazado 21909" d="M433.76,310a1.446,1.446,0,0,1-.058.255,6.3,6.3,0,0,1-.5-.791,13,13,0,0,1-.988-1.869,17.333,17.333,0,0,1-.669-2.238,24.973,24.973,0,0,1-.581-2.8c-.03-.189.255-.27.283-.081a32.44,32.44,0,0,0,1.357,5.119C432.989,308.566,433.76,310,433.76,310Z" transform="translate(-430.961 -302.362)" fill="#c1b1b3"/>
        </g>
        <g id="Grupo_6466" data-name="Grupo 6466" transform="translate(5.586 145.766)" style="mix-blend-mode: multiply;isolation: isolate">
          <path id="Trazado_21910" data-name="Trazado 21910" d="M434.316,308.534a5.781,5.781,0,0,1,.144.8c-.247-.429-.45-.879-.654-1.293-.334-.684-.609-1.389-.879-2.1a16.154,16.154,0,0,1-1-3.64c-.028-.217.253-.189.294.036A44.379,44.379,0,0,0,434.316,308.534Z" transform="translate(-431.93 -302.151)" fill="#c1b1b3"/>
        </g>
        <g id="Grupo_6467" data-name="Grupo 6467" transform="translate(59.63 141.269)" style="mix-blend-mode: multiply;isolation: isolate">
          <path id="Trazado_21911" data-name="Trazado 21911" d="M461.611,303.89a23.977,23.977,0,0,1-.544,5.08,2.125,2.125,0,0,1-.255.021.482.482,0,0,1-.051.088,23.5,23.5,0,0,0,.523-5.138c-.008-.778-.051-1.556-.116-2.332a10.22,10.22,0,0,1-.131-1.753c.015-.086.109-.144.174-.071.364.354.349,1.183.371,1.649C461.619,302.248,461.619,303.069,461.611,303.89Z" transform="translate(-460.762 -299.751)" fill="#c1b1b3"/>
        </g>
        <g id="Grupo_6468" data-name="Grupo 6468" transform="translate(60.59 140.595)" style="mix-blend-mode: multiply;isolation: isolate">
          <path id="Trazado_21912" data-name="Trazado 21912" d="M462.777,302.438a23.74,23.74,0,0,1-.268,2.4,30,30,0,0,1-.945,4.158.528.528,0,0,1-.291.021,35.071,35.071,0,0,0,.806-4.083,24.532,24.532,0,0,0,.262-2.624,18.166,18.166,0,0,1-.015-2.819c.028-.146.21-.109.253,0A7.187,7.187,0,0,1,462.777,302.438Z" transform="translate(-461.274 -299.392)" fill="#c1b1b3"/>
        </g>
        <g id="Grupo_6469" data-name="Grupo 6469" transform="translate(48.134 182.946)" style="mix-blend-mode: multiply;isolation: isolate">
          <path id="Trazado_21913" data-name="Trazado 21913" d="M454.86,323.8a7.232,7.232,0,0,0,1.025.081,3.218,3.218,0,0,0,1-.189,2.215,2.215,0,0,0,1.5-1.425.224.224,0,0,0-.324-.249c-.27.163-.485.4-.74.564a3.237,3.237,0,0,1-.7.377,5.982,5.982,0,0,1-.842.223,6.827,6.827,0,0,1-.909.142.238.238,0,0,0,0,.476Z" transform="translate(-454.629 -321.986)" fill="#c1b1b3"/>
        </g>
        <g id="Grupo_6470" data-name="Grupo 6470" transform="translate(22.073 183.18)" style="mix-blend-mode: multiply;isolation: isolate">
          <path id="Trazado_21914" data-name="Trazado 21914" d="M440.861,322.651a8.533,8.533,0,0,0,1.989,1.054c.656.216,1.766.324,2.126-.429a.246.246,0,0,0-.21-.367,3.538,3.538,0,0,0-.486.081,2.676,2.676,0,0,1-.412.069,2.91,2.91,0,0,1-.926-.107,8.266,8.266,0,0,1-1.788-.8.29.29,0,0,0-.292.5Z" transform="translate(-440.726 -322.11)" fill="#c1b1b3"/>
        </g>
        <g id="Grupo_6471" data-name="Grupo 6471" transform="translate(24.056 186.319)" style="mix-blend-mode: multiply;isolation: isolate">
          <path id="Trazado_21915" data-name="Trazado 21915" d="M441.968,324.34a3.5,3.5,0,0,0,.873.022,1.657,1.657,0,0,0,.426-.081,1.829,1.829,0,0,0,.216-.094.612.612,0,0,0,.161-.141.149.149,0,0,0-.1-.251.638.638,0,0,0-.2-.006c-.066.009-.073.011-.141.017s-.146.019-.219.032c-.008,0-.1.017-.062.011-.032,0-.062.008-.094.009a3.126,3.126,0,0,1-.373.015c-.064,0-.127-.006-.189-.009l-.094-.009-.054-.007-.011,0a.265.265,0,0,0-.315.178.258.258,0,0,0,.178.315Z" transform="translate(-441.784 -323.785)" fill="#c1b1b3"/>
        </g>
        <g id="Grupo_6472" data-name="Grupo 6472" transform="translate(16.622 257.05)" style="mix-blend-mode: multiply;isolation: isolate">
          <path id="Trazado_21916" data-name="Trazado 21916" d="M438.838,364.957a2.4,2.4,0,0,1,.12-1.61c.094-.24.242-.487.364-.742a1.573,1.573,0,0,0,.255-.911.252.252,0,0,0-.3-.171c-.332.054-.619.422-.8.688a4.207,4.207,0,0,0-.478.96,3.243,3.243,0,0,0-.182,1,2.243,2.243,0,0,0,.262,1.1.416.416,0,0,0,.757-.319Z" transform="translate(-437.818 -361.519)" fill="#c1b1b3"/>
        </g>
        <g id="Grupo_6473" data-name="Grupo 6473" transform="translate(13.46 258.274)" style="mix-blend-mode: multiply;isolation: isolate">
          <path id="Trazado_21917" data-name="Trazado 21917" d="M436.772,363.98c.058-.264.129-.527.21-.785.041-.126.069-.257.1-.386a1.668,1.668,0,0,0,.058-.217.937.937,0,0,0-.03-.259.217.217,0,0,0-.317-.129.957.957,0,0,0-.195.161,1.057,1.057,0,0,0-.105.212,4.315,4.315,0,0,0-.167.424,7.991,7.991,0,0,0-.193.806.329.329,0,1,0,.634.174Z" transform="translate(-436.131 -362.172)" fill="#c1b1b3"/>
        </g>
        <g id="Grupo_6474" data-name="Grupo 6474" transform="translate(11.276 258.329)" style="mix-blend-mode: multiply;isolation: isolate">
          <path id="Trazado_21918" data-name="Trazado 21918" d="M435.465,363.334a2.254,2.254,0,0,1,.06-.253c.013-.041.028-.082.043-.124l.024-.064c0,.009-.019.045-.006.015l.015-.034c.039-.083.092-.158.126-.24l.028-.071.011-.03c0,.008-.017.041-.006.013s.032-.067.051-.1a.167.167,0,0,0-.024-.2.17.17,0,0,0-.2-.026,1.255,1.255,0,0,0-.221.152.855.855,0,0,0-.176.259,2.323,2.323,0,0,0-.217.566.256.256,0,0,0,.493.135Z" transform="translate(-434.965 -362.202)" fill="#c1b1b3"/>
        </g>
        <g id="Grupo_6475" data-name="Grupo 6475" transform="translate(50.168 241.112)" style="mix-blend-mode: multiply;isolation: isolate">
          <path id="Trazado_21919" data-name="Trazado 21919" d="M455.765,353.257a7.013,7.013,0,0,0,.006,1.693,1.639,1.639,0,0,0,.339.757.9.9,0,0,0,.324.255.659.659,0,0,0,.538.049.208.208,0,0,0,.09-.343.886.886,0,0,0-.176-.148c-.049-.026-.1-.052-.146-.081-.028-.021-.03-.021,0,0l-.073-.056c-.013-.008-.084-.066-.032-.021-.038-.034-.071-.069-.109-.1s.019.032-.015-.019c-.015-.026-.034-.051-.049-.075s-.03-.053-.043-.081c-.006-.011-.038-.081-.013-.024a1.714,1.714,0,0,1-.1-.343,3.74,3.74,0,0,1-.054-.72c0-.247.011-.493.017-.739.006-.324-.482-.319-.5,0Z" transform="translate(-455.714 -353.016)" fill="#c1b1b3"/>
        </g>
        <g id="Grupo_6476" data-name="Grupo 6476" transform="translate(23.309 79.111)" style="mix-blend-mode: multiply;isolation: isolate">
          <path id="Trazado_21920" data-name="Trazado 21920" d="M441.649,267.618a26.433,26.433,0,0,1,3.77-.364,13,13,0,0,0,3.6-.427c.12-.043.12-.234-.024-.236-.632-.006-1.271.079-1.9.111s-1.241.075-1.863.109a26.016,26.016,0,0,0-3.678.388c-.274.054-.171.47.1.42Z" transform="translate(-441.385 -266.591)" fill="#d7cdce"/>
        </g>
        <g id="Grupo_6477" data-name="Grupo 6477" transform="translate(32.458 78.417)" style="mix-blend-mode: multiply;isolation: isolate">
          <path id="Trazado_21921" data-name="Trazado 21921" d="M446.373,267.044c1.91.058,3.824-.06,5.732-.131.941-.034,1.878-.1,2.817-.133a18.533,18.533,0,0,0,2.776-.167.127.127,0,0,0,.006-.242,9.214,9.214,0,0,0-2.658-.107c-.926.045-1.848.111-2.77.21a47.685,47.685,0,0,1-5.9.343.113.113,0,0,0-.006.227Z" transform="translate(-446.266 -266.221)" fill="#d7cdce"/>
        </g>
        <g id="Grupo_6478" data-name="Grupo 6478" transform="translate(26.636 23.534)">
          <path id="Trazado_21922" data-name="Trazado 21922" d="M443.169,239.353a2.581,2.581,0,0,1,.343-1.543,1.731,1.731,0,0,1,1.331-.864,1.686,1.686,0,0,1,1.222.416,2.475,2.475,0,0,1,.81,1.7l-1.548.124a.96.96,0,0,0-.272-.639l-.215.077a1.046,1.046,0,0,0-.122.609Z" transform="translate(-443.16 -236.941)" fill="#28121e"/>
        </g>
        <g id="Grupo_6479" data-name="Grupo 6479" transform="translate(39.363 23.368)">
          <path id="Trazado_21923" data-name="Trazado 21923" d="M452.113,238.255c.064.821-.366,1.526-.962,1.573s-1.132-.581-1.2-1.4.366-1.524.962-1.571S452.048,237.434,452.113,238.255Z" transform="translate(-449.949 -236.853)" fill="#28121e"/>
        </g>
        <g id="Grupo_6480" data-name="Grupo 6480" transform="translate(25.146 19.87)">
          <path id="Trazado_21924" data-name="Trazado 21924" d="M443.218,237.664l-.853-1.282c.161-.109,4.028-2.628,8.056-.622l-.688,1.378C446.5,235.523,443.252,237.643,443.218,237.664Z" transform="translate(-442.365 -234.987)" fill="#ff7454"/>
        </g>
        <g id="Grupo_6481" data-name="Grupo 6481" transform="translate(34.716 19.014)">
          <path id="Trazado_21925" data-name="Trazado 21925" d="M449.044,247.018l-.307-1.507a1.624,1.624,0,0,0,.626-.2c-.054-.062-.358-.654-.626-1.179-.227-.446-.495-.969-.772-1.588a5.8,5.8,0,0,1-.294-.81,5.489,5.489,0,0,1,.821-4.649,6,6,0,0,1,4.5-2.532,7.335,7.335,0,0,1,3.869.748l-.686,1.378a5.853,5.853,0,0,0-3.072-.59,4.478,4.478,0,0,0-3.355,1.882,3.909,3.909,0,0,0-.6,3.351,4.162,4.162,0,0,0,.214.592c.264.59.521,1.091.739,1.515.577,1.128.958,1.873.605,2.606A2.167,2.167,0,0,1,449.044,247.018Z" transform="translate(-447.47 -234.53)" fill="#ff7454"/>
        </g>
        <g id="Grupo_6482" data-name="Grupo 6482" transform="translate(32.794 34.299)">
          <path id="Trazado_21926" data-name="Trazado 21926" d="M448.7,245.209a4.571,4.571,0,0,1-2.259-.587l.785-1.325a2.935,2.935,0,0,0,3.648-.613l1.112,1.067A4.457,4.457,0,0,1,448.7,245.209Z" transform="translate(-446.445 -242.684)" fill="#ff7454"/>
        </g>
      </g>
    </g>
  </g>
</svg>
